<svg xmlns="http://www.w3.org/2000/svg" viewBox="0 0 1922.92 1056.03"><defs><style>.cls-1{fill:none;stroke:#8fb38e;stroke-miterlimit:10;stroke-width:5.8px;}</style></defs><g id="Layer_2" data-name="Layer 2"><g id="Layer_1-2" data-name="Layer 1"><path class="cls-1" d="M3.34,903.48a358.3,358.3,0,0,0,32.42,43c70.7,80.06,183.15,127.18,702,97.84,560.7-31.71,841.05-47.56,886.47-185.87,56.85-173.11-301-342.88-238.36-547.4,44-143.77,272-227,458.35-202.74a459.83,459.83,0,0,1,77.84,17"/><path class="cls-1" d="M4.44,2.74A261.44,261.44,0,0,1,74.33,39.11c101.05,73.54,160.58,207.12,124.8,304.11C165.26,435,70.05,432.18,2,496.48"/></g></g></svg>