<svg xmlns="http://www.w3.org/2000/svg" viewBox="0 0 1041.7 1011.06"><defs><style>.cls-1{isolation:isolate;}.cls-17,.cls-18,.cls-2{fill:#fff;}.cls-3{fill:#6b93b8;}.cls-4{fill:#497c97;opacity:0.39;}.cls-5{fill:#ffa9a4;}.cls-6,.cls-7{fill:none;}.cls-7{stroke:#e7aa49;stroke-miterlimit:10;stroke-width:0.96px;}.cls-8{fill:#7cb5e1;}.cls-9{fill:#7a9edb;}.cls-10,.cls-16{fill:#d2e2ff;mix-blend-mode:multiply;}.cls-10{opacity:0.48;}.cls-11{fill:#4a80b7;}.cls-12{fill:#ffbf00;}.cls-13{fill:#ff8b00;}.cls-14{fill:#8ae6c5;}.cls-15{fill:#a180a1;}.cls-17{opacity:0.21;}.cls-18{opacity:0.76;}.cls-19,.cls-24{fill:#3e4794;}.cls-19{opacity:0.58;}.cls-20{fill:#ffac3c;}.cls-21{fill:#c5c5c5;}.cls-22{fill:#4c65b3;}.cls-23{fill:#9e80a8;}.cls-24{opacity:0.14;}</style></defs><g class="cls-1"><g id="Layer_1" data-name="Layer 1"><polyline class="cls-2" points="241.22 665.8 241.22 741.58 441.8 782.75 452.25 740.93 433.63 686.38 242.2 669.39"/><path class="cls-3" d="M231.09,663.84,570.18,609,806.69,637.7s15,46.39-5.88,91.47L440.16,791.89,229.79,748.12l2.61-12.42,203.19,42.47s19-33.32-4.57-83L231.58,667.8Z"/><polygon class="cls-4" points="258.29 661.49 487.07 698.13 494.5 755.08 601.46 703.58 265.22 652.58 258.29 661.49"/><polyline class="cls-2" points="742.01 584.46 742.01 631.5 603.17 698.79 588.47 701.73 577.04 669.72 589.13 639.34 741.35 587.39"/><path class="cls-5" d="M262.94,601.28l222.47-70.56L751,584.62l-158.76,63.7s-18,39.85,1,50.63L752,626.43l1,5.56L597.13,706.47,260.74,657.63S250,630.19,262.94,601.28Z"/><line class="cls-6" x1="586.84" y1="663.51" x2="697.42" y2="552.93"/><line class="cls-7" x1="586.13" y1="665.34" x2="742.12" y2="600.92"/><line class="cls-7" x1="586.27" y1="675.79" x2="742.25" y2="611.37"/><line class="cls-7" x1="586.4" y1="686.24" x2="742.39" y2="621.83"/><line class="cls-7" x1="241.87" y1="681.64" x2="437.88" y2="711.04"/><line class="cls-7" x1="241.87" y1="696.34" x2="437.88" y2="725.74"/><line class="cls-7" x1="241.87" y1="711.04" x2="437.88" y2="740.44"/><line class="cls-7" x1="241.87" y1="725.74" x2="437.88" y2="755.14"/><polygon class="cls-8" points="416.42 570.07 656.47 597.56 702.74 585.69 710.73 525.53 723.17 431.87 729.87 381.4 735.42 339.57 747.96 245.19 703.35 227.38 616.96 226.01 589.73 225.58 572.65 225.29 503.94 224.2 460.81 223.52 445.01 346.93 416.42 570.07"/><polygon class="cls-9" points="668.01 259.04 651.42 381.4 466.42 372.7 485.02 255.46 668.01 259.04"/><polygon class="cls-3" points="703.35 227.38 656.48 597.57 702.74 585.69 747.96 245.19 703.35 227.38"/><path class="cls-10" d="M413.57,573.43l240.05,25,46.27-10.81,8-54.72a98.68,98.68,0,0,1-42.7-14.76c-54.61-3.24-107.89-22.79-149.71-54.9-32.32-24.83-57.64-57.07-73.31-92.8Z"/><polygon class="cls-11" points="741.56 293.36 696.99 277.61 692.27 314.87 736.98 327.85 741.56 293.36"/><polygon class="cls-11" points="734.97 342.98 690.3 330.46 688.39 345.56 733.18 356.48 734.97 342.98"/><path class="cls-12" d="M418.61,535l-4.8,36.22,31.11,3.33V568C420.53,565.53,423,536.25,423,536.25Z"/><path class="cls-12" d="M628.71,597,657,601.3,674.54,595l-.63-5.22s-9.73-6.09-8.45-25.12l-4.53-2.29-7.39,1s-5.5,24.07-22.78,26.88Z"/><path class="cls-13" d="M706,567.32l-2.05,19.45-9.4,2.31.57-4c5.7-2,7.87-17.4,7.87-17.4Z"/><path class="cls-13" d="M657,601.3,674.54,595l-.63-5.22s-9.73-6.09-8.45-25.12l-4.53-2.29Z"/><path class="cls-12" d="M491.19,220.71l-32.64-1.54-5.19,38.08,7.7-2.32c3.07-23.43,28.53-27.12,28.53-27.12Z"/><path class="cls-12" d="M672.42,223.52v5.59s21.4.56,24.5,17.49l3.71,2.18,2.71-1.12s7.19-13.48,17.85-10.94l2-3.6-19.27-9.6Z"/><path class="cls-13" d="M700.63,248.78l2.71-1.12s7.19-13.48,17.85-10.94l2-3.6-19.27-9.6Z"/><path class="cls-13" d="M740.38,240.43l8.65,4L747,257.38l-2.25-1.15A14.48,14.48,0,0,0,740,243.18Z"/><polygon class="cls-14" points="328.5 542.69 364.98 546.07 532.46 561.61 539.6 501.4 554.4 376.35 568.11 260.52 360.2 261.72 331.33 517.61 328.5 542.69"/><path class="cls-2" d="M460.23,347l6.9-62a4.64,4.64,0,0,1,4.41-4.11l72.83-.08a3.63,3.63,0,0,1,3.64,4.18l-7.24,63.33a4.68,4.68,0,0,1-4.58,4.1l-72.48-1.29A3.6,3.6,0,0,1,460.23,347Zm11.19-65a3.43,3.43,0,0,0-3.26,3l-6.91,62a2.67,2.67,0,0,0,2.58,3.07l72.49,1.26a3.44,3.44,0,0,0,3.38-3l7.24-63.31a2.68,2.68,0,0,0-2.69-3.09Z"/><path class="cls-2" d="M476.5,288.91h11.24l-6.13,54.62-11.2-.18ZM486.58,290h-9.17l-5.85,52.34,9.14.14Z"/><path class="cls-2" d="M490.37,310.58l11.33.08L498,343.79l-11.3-.17Zm10.16,1.15-9.24-.07-3.47,30.9,9.22.14Z"/><path class="cls-2" d="M509.25,289H520.7l-6.25,55.09-11.4-.18ZM519.52,290l-9.34,0-6,52.79,9.3.15Z"/><path class="cls-2" d="M524.08,304.54l11.53.06-4.52,39.71-11.5-.18Zm10.34,1.14-9.4-.06-4.26,37.45,9.39.14Z"/><polygon class="cls-2" points="455.54 290.74 455.18 293.98 401.11 293.85 401.46 290.66 455.54 290.74"/><polygon class="cls-2" points="453.8 306.33 380.59 305.92 380.93 302.74 454.16 303.09 453.8 306.33"/><polygon class="cls-2" points="421.25 318.39 379.28 318.01 379.62 314.84 421.6 315.18 421.25 318.39"/><polygon class="cls-2" points="451.07 331 388.8 330.24 389.14 327.05 451.43 327.77 451.07 331"/><polygon class="cls-2" points="449.7 343.32 404.64 342.62 404.99 339.42 450.06 340.09 449.7 343.32"/><polygon class="cls-2" points="510.1 361.99 509.78 364.77 374.53 361.92 374.82 359.24 510.1 361.99"/><polygon class="cls-2" points="537.08 375.93 536.76 378.73 416.48 375.77 416.77 373.06 537.08 375.93"/><polygon class="cls-2" points="515.05 388.72 514.74 391.5 371.76 387.47 372.05 384.8 515.05 388.72"/><polygon class="cls-2" points="372.11 462.84 515.04 468.78 514.68 471.56 371.78 465.5 372.11 462.84"/><polygon class="cls-2" points="355.14 475.02 515.04 483.01 514.68 485.78 354.81 477.69 355.14 475.02"/><polygon class="cls-2" points="372.11 491.29 521.34 501.67 520.99 504.45 371.78 493.96 372.11 491.29"/><path class="cls-15" d="M482.48,431.17c-1.53,13.62,8,25.13,21.31,25.74s25.66-10.06,27.24-23.84-8.14-25.37-21.61-25.8S484,417.54,482.48,431.17Z"/><path class="cls-12" d="M485.61,415a31.27,31.27,0,0,1,14.34-10l6.65,27.17L478.83,431A31.27,31.27,0,0,1,485.61,415Z"/><path class="cls-15" d="M415.78,428.57c-1.47,13.37,7.7,24.68,20.56,25.26s24.75-9.89,26.26-23.43-7.85-24.9-20.85-25.32S417.25,415.19,415.78,428.57Z"/><path class="cls-12" d="M443,401a24.94,24.94,0,0,1,16.54,6.85l-19.71,21.68-27.17-1.06C414.32,412.92,428,400.51,443,401Z"/><path class="cls-15" d="M357.47,426.3c-1.42,13.16,7.47,24.28,19.93,24.85s24-9.76,25.41-23.08-7.61-24.5-20.2-24.91S358.89,413.12,357.47,426.3Z"/><path class="cls-12" d="M360.38,410.62l.28-.32L380,427.18l-25.94-1A30.74,30.74,0,0,1,360.38,410.62Z"/><path class="cls-16" d="M328.5,542.69,365,546.07a308.74,308.74,0,0,0,27.19-22.77c10.64-9.9,17.86-17.68,17.92-17.74.51-.35.14-1.88-.86-4.07l8.59-5.77c13.29,18.78,32.95,30.54,55.31,30.54a61.58,61.58,0,0,0,6.8-.39,60.71,60.71,0,0,0,6.79.39c20,0,38.6-9.43,52.88-24.86l14.8-125c-13-23.31-34.93-38.42-60.28-38.42a64.16,64.16,0,0,0-6.81.38,63.08,63.08,0,0,0-6.76-.38c-42.35,0-78.34,42.15-80.38,94.17a107.7,107.7,0,0,0,9,48.36L399.49,487c-1.43-1.51-2.59-2.41-3.2-2.41a.43.43,0,0,0-.25.07s-16.3,6.1-34.86,15.45a236.19,236.19,0,0,0-29.85,17.55Z"/><circle class="cls-17" cx="432.27" cy="431.73" r="74.07" transform="translate(-178.67 432.11) rotate(-45)"/><path class="cls-18" d="M490.32,437.06a4.69,4.69,0,0,0,4.68-4.68,67.84,67.84,0,0,0-67.77-67.77,4.68,4.68,0,1,0,0,9.36,58.47,58.47,0,0,1,58.41,58.41A4.68,4.68,0,0,0,490.32,437.06Z"/><path class="cls-19" d="M355.86,431.73a76.41,76.41,0,1,1,76.41,76.42A76.5,76.5,0,0,1,355.86,431.73Zm4.68,0A71.73,71.73,0,1,0,432.27,360,71.81,71.81,0,0,0,360.54,431.73Z"/><circle class="cls-6" cx="432.27" cy="431.73" r="74.07"/><path class="cls-20" d="M369.68,490.29l10,10a86.28,86.28,0,1,0-15.84-15.77,3.17,3.17,0,0,1,.35.29ZM358.2,431.73a74.07,74.07,0,1,1,74.07,74.07A74.07,74.07,0,0,1,358.2,431.73Z"/><path class="cls-21" d="M366.33,498.32l3.35-3.35a3.31,3.31,0,0,0,0-4.68l10,10,.16.17a3.3,3.3,0,0,1,0,4.67l-4.07,4.07C374.43,507,370.51,502.55,366.33,498.32Z"/><path class="cls-22" d="M369.68,490.29a3.31,3.31,0,0,1,0,4.68l-3.35,3.35a92,92,0,0,0-10.71-9.62l3.9-3.89a3.28,3.28,0,0,1,4.32-.29,3.17,3.17,0,0,1,.35.29Z"/><path class="cls-2" d="M369.68,490.29a3.31,3.31,0,0,1,0,4.68l-3.35,3.35a92,92,0,0,0-10.71-9.62l3.9-3.89a3.28,3.28,0,0,1,4.32-.29,3.17,3.17,0,0,1,.35.29Z"/><path class="cls-23" d="M292.91,549.51,353.78,488c.22-.22.88.07,1.84.72a92,92,0,0,1,10.71,9.62c4.18,4.23,8.1,8.63,9.44,10.88.44.73.61,1.24.42,1.43l-60.87,61.53a15.72,15.72,0,0,1-22.41,0A16.13,16.13,0,0,1,292.91,549.51Z"/><path class="cls-24" d="M292.91,572.16h0c6.19,6.26,79.65-67.43,74.58-72.65-6-6.14-12.89-12.36-13.71-11.53l-60.87,61.53A16.13,16.13,0,0,0,292.91,572.16Z"/></g></g></svg>