<svg id="Layer_1" data-name="Layer 1" xmlns="http://www.w3.org/2000/svg" xmlns:xlink="http://www.w3.org/1999/xlink" viewBox="0 0 1041.7 1011.06"><defs><style>.cls-1,.cls-11,.cls-3,.cls-8,.cls-9{fill:none;}.cls-2{fill:#396176;opacity:0.43;}.cls-3{stroke:#6b93b8;stroke-width:4.13px;}.cls-11,.cls-3,.cls-8,.cls-9{stroke-miterlimit:10;}.cls-4{fill:#353535;}.cls-5{fill:#ff9f24;}.cls-6{fill:#6b93b8;}.cls-7{clip-path:url(#clip-path);}.cls-8,.cls-9{stroke:#e9edf5;}.cls-11,.cls-8{stroke-width:2.07px;}.cls-9{stroke-width:4.99px;}.cls-10{fill:#284856;}.cls-11{stroke:#fff;}.cls-12,.cls-13{fill:#fff;}.cls-12{opacity:0.21;}.cls-13{opacity:0.76;}.cls-14,.cls-20{fill:#3e4794;}.cls-14{opacity:0.58;}.cls-15{fill:#ffac3c;}.cls-16{fill:#7dc0a7;}.cls-17{fill:#4c65b3;}.cls-18{fill:#5fab8d;}.cls-19{fill:#9e80a8;}.cls-20{opacity:0.14;}</style><clipPath id="clip-path"><path class="cls-1" d="M436.66,432.92a406.28,406.28,0,0,1-11.47,54.81c-2.91,10.31-11.4,38.84-40.15,97.51-28.56,58.29-32.17,54.58-38.24,77.12-4.39,16.31-13.64,52.53,0,95,12.93,40.24,39.45,64.38,52.26,74.57H525.9c13.79-9.33,48.22-35.43,63.09-82.22,17.91-56.4.26-120.4-44.62-167a271.39,271.39,0,0,1-45.25-148.51Z"/></clipPath></defs><ellipse class="cls-2" cx="464.4" cy="842.13" rx="164.3" ry="10.5"/><path class="cls-3" d="M444.29,435.56a400.93,400.93,0,0,1-11.68,54.81c-3,10.31-11.62,38.84-40.91,97.51-29.11,58.28-32.78,54.58-39,77.12-4.47,16.31-13.89,52.52,0,95,13.18,40.24,40.2,64.39,53.25,74.57H535.21c14-9.32,49.14-35.43,64.28-82.21,18.25-56.4.27-120.41-45.45-167a270.67,270.67,0,0,1-38.32-86,266.9,266.9,0,0,1-7.79-62.46Z"/><path class="cls-3" d="M428.47,435a399.41,399.41,0,0,1-11.69,54.81c-3,10.31-11.61,38.84-40.91,97.51-29.1,58.29-32.77,54.58-39,77.12-4.47,16.31-13.89,52.53,0,95,13.17,40.24,40.2,64.38,53.25,74.57H519.39c14.05-9.33,49.13-35.43,64.28-82.22,18.25-56.4.27-120.4-45.46-167a270.8,270.8,0,0,1-38.31-86,266.24,266.24,0,0,1-7.79-62.46Z"/><path class="cls-4" d="M505.59,442.68c0-.24.05-.45.08-.67a5.18,5.18,0,0,1,.15-1.35q-1.47,1.59-2.84,3.17c5.69-15.57,12.43-31.84,20.3-49,10.34-13.27,18.16-17,18.24-17l-1.31-2.9c-.27.12-5,2.33-12.06,9.47,18.39-38.75,42.32-82.06,72.65-132l-2.71-1.65c-13.05,21.5-24.89,41.74-35.64,61a34,34,0,0,0-1.1-6l-3.05.92c0,.06,1.88,6.37.68,11.29-15,27-27.74,52-38.43,75.28a1.13,1.13,0,0,1-.1.13l0,0c-6.58,14.35-12.36,28.06-17.43,41.28a62.72,62.72,0,0,0-.69-13.21l-3.12.66c1.55,7.35,0,22.56,0,22.71h0c-.76,2.1-1.53,4.22-2.25,6.3A226.45,226.45,0,0,0,472.62,489q-.58-8.28-1.42-17.19c-1.6-16.93-4.07-36.58-7.83-58.42q.31-13.23.84-27.79h0a30.87,30.87,0,0,1,11.18-17.33l-1.92-2.54a33.44,33.44,0,0,0-8.9,10.25c1.37-33.39,3.65-72,7.17-117A27.83,27.83,0,0,1,484.45,241l-1.7-2.69a32.81,32.81,0,0,0-10.18,10.2c2.59-32.08,5.78-67.3,9.7-106.12l-3.17-.32c-6.32,62.67-10.77,116-13.8,161.82-13.36-4.95-16.78-18.64-16.81-18.79l-3.1.74c.16.67,4,16.16,19.7,21.37-2.24,34.37-3.67,64.42-4.49,90.91-4.12-21.53-9.49-44.89-16.47-69.66l.06,0c-.21-.73-.44-1.41-.67-2.09a852.84,852.84,0,0,0-38.25-106.82l-2.92,1.28a846.6,846.6,0,0,1,33.87,92,26.66,26.66,0,0,0-6.85-5.67c-.39-.24-.71-.44-.94-.61l-1.93,2.53c.29.22.71.48,1.22.79,2.65,1.62,8.68,5.31,12.75,17.41a834,834,0,0,1,19.71,86.32c-.28,12.35-.43,23.87-.47,34.66a27.57,27.57,0,0,0-3.94-6.52l-2.46,2c4.27,5.21,6.25,12,6.43,21.95h0c.17,18.77.69,35.11,1.42,49.6a247.94,247.94,0,0,0-12.83,54.1l3.16.39a246.69,246.69,0,0,1,10.12-46c.47,8.09,1,15.58,1.56,22.6l3.17-.25c-.73-9.2-1.41-19.22-2-30.32q2.61-7.16,5.81-14.37c2.42,45.95-.74,73.73-.78,74.05l3.16.38c0-.35,3.51-30.74.45-80.56a223.49,223.49,0,0,1,20.81-34.8c-12.66,38.93-18.57,73.72-19,107.7l3.18,0c.45-36.19,7.2-73.36,21.8-115.59,1.77-2.21,3.61-4.41,5.49-6.6A28.89,28.89,0,0,0,505.59,442.68ZM464,507.87c-.92-21.16-1.39-46.14-1-76.57,2.21,14.83,3.83,28.46,5,40.66q1.13,11.91,1.79,22.7Q466.66,501.28,464,507.87Z"/><path class="cls-4" d="M447.46,488.16h.05c-.19-1.15-.43-2.35-.71-3.57-6.26-32-18.34-69.25-36.58-108-2.45-6.22-3.83-15.13-2.82-19l-3.07-.81a21.88,21.88,0,0,0-.3,7.1,563.59,563.59,0,0,0-65-101l-2.47,2A554.56,554.56,0,0,1,373.86,317a35.77,35.77,0,0,0-15-5.24l-.41,3.15c10.56,1.35,18.14,6.19,23.18,14.8l.05,0c9.59,16.08,18.12,32.17,25.6,48,.25.63.49,1.23.75,1.79l.09,0a486,486,0,0,1,31.85,88.78,43.36,43.36,0,0,0-5.7-6.87c0,.18,0,.36,0,.55a4.48,4.48,0,0,1,0,.64c.33.37.68.73,1,1.1a5.56,5.56,0,0,1,1.31,5.27,46,46,0,0,1,7.21,16.57,262.54,262.54,0,0,1,4.85,39.35l3.18-.12A259.89,259.89,0,0,0,447.46,488.16Z"/><path class="cls-5" d="M491.07,123.19c14.71,14.31,6,40.95-3.18,44.93-18.69.79-22.67-1.19-25.45-3.18-15.91-16.31-6.76-38.18-4.37-40.56,1.59,7.16,5.17,17.1,6.76,11.13s2-18.69,5.56-19.08c4.38,11.13,3.5,24.25,5.73,24.25s2.62-20.28,6.2-23.86c3.18,11.53.8,26,4.38,25.54S488.29,128.35,491.07,123.19Z"/><path class="cls-5" d="M518,213.55c1.85,9.31-3.27,20.43-10.74,26.14-6.76,5.17-18.59,5.35-22,.7s-4.07-18,6.2-26.28c7.54-6.08,15.94-8.48,19.38-7.68-8.48,5-11,7.68-9.09,9s6.18-5.57,13.34-6.89c.79,6.36-8,13-6.1,14.31S516,219.71,518,213.55Z"/><path class="cls-5" d="M331.29,231.39c6.43,4.35,14.84,25.18,5.83,31.81s-23.86-2.65-27.84-12.19-.79-7.91,4-6.61.53-11.42,3.45-13,8.21,11.71,11.66,11.69S329.09,229.91,331.29,231.39Z"/><path class="cls-5" d="M400.83,187c12,8.11,13,24.55,3.94,31.09-10,7.22-22.5,1-26.74-6.43s-3.71-17.24-1.06-17.24,4,8.22,7.42,6.9-4-8.75.26-11.93,10.34,12.46,12.73,7.16S388.5,178.65,400.83,187Z"/><path class="cls-5" d="M355.73,307.08c-5.34-6.87-16.7-8.33-23.2-5.84-7,2.69,13.32,4.79,2,8.17s8.44,6.18.78,9.94-1.51,7.12,10.2,4.76C358.61,321.46,359.85,312.38,355.73,307.08Z"/><path class="cls-5" d="M418.39,330.22c3.09,8.72-.67,26.18-10.22,27.24s-16.56-14.25-13.11-23.26,4.24-2.65,5.83,0,3.83-10.6,6.42-.8,7.37,6.9,7.63,1.6S417.32,327.22,418.39,330.22Z"/><path class="cls-5" d="M458.05,260c1,14.4-2.82,22.8-9.18,25.19s-15-2.32-17-14.85c-1.13-7.31.06-15,2.71-15.31s3.85,8.35,6.76,2.79,4.84-6.63,7,1.59S457.63,253.87,458.05,260Z"/><path class="cls-5" d="M498.44,361.77c-8.19,12.11-23.07,9.54-25.72,2.65s2.66-19.09,9.82-22.53c3.71-1.59-4.24,7.16,2.38,6.1s10.08-.27,8,5S504.54,352.76,498.44,361.77Z"/><path class="cls-5" d="M507.46,394.38c5,12.09-.57,26-6.65,27.3s-19.33-7.95-16.68-27.57c1.86-3.44,5.83,9.81,7.16,3.45s2.32-8.49,5.93-3.18,4.67,5.3,5.47,1.32S505.11,388.73,507.46,394.38Z"/><path class="cls-5" d="M638.68,341.69c-1,7.56-11.93,17.43-19.09,15.84s-11.4-11.7-6.62-19.37,7.95-10.32,9-4.49c3.18-1.59,7.69-6.36,7.69,1.33s2.12,6.69,2.12,6.69C635.23,337.91,639,339.17,638.68,341.69Z"/><path class="cls-5" d="M562.6,274.55c10.34,12.2,6.23,30.16-4.24,32.08-8,1.47-17.23-5.83-18.56-12.46s0-14.58,1.86-14.05S547,287,547,287c1.32-6.09,4.5-13.78,6.62-8.48s5.31,5.3,5.31,5.3c.79-6.09,3.44-3.44,3.44-3.44C561,275.08,562.6,274.55,562.6,274.55Z"/><path class="cls-5" d="M622.29,225.9c2.92,18.56-8.48,26.78-19.35,25.45s-14.05-16.17-10.34-24.12,9.81-9.54,10.61-8.22c-2.39,3.18,0,6.89,0,6.89,4-.53,5.83-6.09,7.42-4.5s1.59,5.83,1.59,5.83c3.71-3.18,5,1.33,5,1.33C618.58,223,620.7,220.6,622.29,225.9Z"/><path class="cls-5" d="M572.67,376.09c-7.42,6.89-29.16,6.89-31.81.26-2.41-8.32,3.45-15.91,9-19.62s12.2-6.09,15.91-6.09c4,1.32-3.18,9.27-3.18,9.27,6.89,0,5.3.8,5.3,2.13,7.69,1.06,3.18,6.3,2.12,8.18C576.91,371.05,576.59,373.55,572.67,376.09Z"/><path class="cls-4" d="M476,181.76c7.12-.12,15.87-16.82,15.87-16.82-2.39-4.77-6.37-6.76-10.34-4.77-13.52-4.38-21.18,2.39-21.18,2.39C462,174.48,476,181.76,476,181.76Z"/><path class="cls-4" d="M405.21,223c-3.42,3-13.47,1.07-13.6-1.73-.4-4.26,4.38-4.39,10.08-3.2,1.85-7.69,6.23-6.94,7.55-5.46C410.17,216.5,408.21,220.39,405.21,223Z"/><path class="cls-4" d="M447.94,289.27c-3.64-.39-10.09-4.26-10.41-7,.47-4,6.86.21,7.31.74,6.15-4.51,9.07-1.75,9.07-1.75C453.91,285.56,450.84,289.58,447.94,289.27Z"/><path class="cls-4" d="M489.22,243c3.26-1.16,1.4-1.29,1.4-1.29l-4.1-1.85c3-7.16,2.31-11.14,2.31-11.14-4,1.33-4.44,2.79-4.44,2.79,1.73-6.76.81-9.35.81-9.35-4.38,3.65-4.78,12.4-3.85,16.11S485,244.12,489.22,243Z"/><path class="cls-4" d="M610.12,250.81c4-4.09,5.76-8.34-2.06-4.22s-8.61,2.25-8.61,2.25c.39-5.3-4.64-11.4-5.17-11-1.59,1.59-3.72,3.84-1.33,8.08s5.44,8,9.41,7.56A21.61,21.61,0,0,0,610.12,250.81Z"/><path class="cls-4" d="M560.33,308.4c1.87-.84,4.83-3.84,5.1-6.62-2.7,1.54-3.63.41-1.71-3.3s-.19-5.5-1.85-.47-4.24,6.23-4.24,6.23c-5-4.24-8.55-1.92-8.75-1.72-.06,2.31,2.52,5.17,6.36,5.44S560.33,308.4,560.33,308.4Z"/><path class="cls-5" d="M410.81,289.28c13.67,3.17,18.58,12.24,16.72,17.54-3.25,8-17.73,6.17-22.85,1.67-1.14-3.72,5.65-.53,2.39-5s-4.42-6.1,2.39-5.57.05-5.17-1-6.76S408.87,288.84,410.81,289.28Z"/><path class="cls-4" d="M404.47,358.85c3.94.69,8.32-3.44,8.32-3.44,1.35-4.11.61-3.55-4.15-1.06l-3.91,1.85c-1.32-4.9-3.84-9.14-4.37-7.29s.93,4.77.93,4.77c-3.79-2.75-3.36-4.67-4.47-3.92C398.24,356.2,401.43,358.32,404.47,358.85Z"/><path class="cls-4" d="M359.53,313.61c.46-3.17-1.71-8.11-5-9a13.7,13.7,0,0,0,1.78,6c-1.45.26-5.07-.2-5.07.66s4.81,3,4.81,3c-2.25,2.52-1.6,4-2.45,5.3-1,1.53-1.64,3.06-.8,2.93C357.15,321.48,358.93,317.81,359.53,313.61Z"/><path class="cls-4" d="M428.82,308.68c1.62-4.54-.42-8.1-1.88-8.32a19.71,19.71,0,0,0,0,4.94,13.93,13.93,0,0,0-6.23,1.93c0,.6,3.67,1.45,3.67,1.45a12.74,12.74,0,0,0-6.06,3.67C419.12,314.65,427.69,311.86,428.82,308.68Z"/><path class="cls-4" d="M473.37,368.43a9.37,9.37,0,0,0,10.76,1.77c2-2.33-7.69-3.24-7.69-3.24.93-3.86-.53-9.3-1.46-7.18-1.72-3.58-.6-6.1-2.81-4.64S469.76,365,473.37,368.43Z"/><path class="cls-4" d="M501,422.86c5.46-2,8.44-8.86,7.37-11.12-.93-1.33-7.58,7.82-7.58,7.82-9.12-5-9.33-1.42-9.33-1.42C492.48,422.74,499.44,423.45,501,422.86Z"/><path class="cls-4" d="M543,373.83c4.11-9.28,2.65-15.51,2.65-15.51-8.88,12.07-7.93,13.44-6,18.45,2.84,5.54,14.34,8.46,18.27,3.82a11.3,11.3,0,0,0-9.78-2.52c2.44-2.38,2-7.46,2-7.46A13.56,13.56,0,0,1,543,373.83Z"/><path class="cls-4" d="M617.64,358.28c4.47,2.08,11.63-.58,13.34-3.83.21-1.2-10.59,1-10.59,1-.66-7.29-3.71-8.22-3.71-8.22a10.43,10.43,0,0,0-1.06,5.77c-4.25-4.23-4.11-8.77-5.31-8.86C608.59,352.36,613.17,356.2,617.64,358.28Z"/><path class="cls-4" d="M337.18,264.71c5.48-4.44,6.09-9.11,5.29-14.18-.3-1.19-3.6,4.63-4.47,8.65-1.59-4-3.18-4.18-3.18-4.18-1.2,3.38.59,7.46.59,7.46-7.55-1.19-12.92,1.09-13,2.29C324.18,267.23,333.85,267.4,337.18,264.71Z"/><path class="cls-6" d="M436.66,432.92a406.28,406.28,0,0,1-11.47,54.81c-2.91,10.31-11.4,38.84-40.15,97.51-28.56,58.29-32.17,54.58-38.24,77.12-4.39,16.31-13.64,52.53,0,95,12.93,40.24,39.45,64.38,52.26,74.57H525.9c13.79-9.33,48.22-35.43,63.09-82.22,17.91-56.4.26-120.4-44.62-167a271.39,271.39,0,0,1-45.25-148.51Z"/><g class="cls-7"><path class="cls-8" d="M404.8,487.73a137.26,137.26,0,0,0,54.81,13.17c37.41,1,65-13.78,76.48-20.82"/><path class="cls-9" d="M377.18,559.11c35.38-17.73,58.73-15.63,73.08-11,7.06,2.25,22.67,8.54,84.13,76.9,23.41,26,30.6,35.65,43.76,36.54,23.56,1.61,44.14-26.2,55.66-45"/><path class="cls-9" d="M312.59,664.49c29-20.72,50.38-22.36,64.16-20.4,34.54,4.91,42,35.31,97.73,69.69,26,16,45.67,28.18,71.38,26.76,39.74-2.18,66.9-35.29,76.06-47.58"/><path class="cls-9" d="M341.91,772.41H588.49"/></g><path class="cls-10" d="M548.69,668.75c-3,8.18-1.45,14.94,1.93,16.46.48.22,2.48,1,6.07-1l-3-29.27Z"/><path class="cls-11" d="M581,616.19l-23.21,17.4q-8.82,35.08-17.66,70.15l-40.35,5-15,22.94"/><polyline class="cls-11" points="553.17 651.88 558.54 690.69 567.37 691.87 570.53 705.59 594.4 705.32"/><circle class="cls-12" cx="536.68" cy="688.12" r="105.41" transform="translate(-329.39 581.04) rotate(-45)"/><path class="cls-13" d="M454.09,695.7a6.67,6.67,0,0,1-6.67-6.66,96.55,96.55,0,0,1,96.44-96.44,6.67,6.67,0,0,1,0,13.33A83.2,83.2,0,0,0,460.75,689,6.66,6.66,0,0,1,454.09,695.7Z"/><path class="cls-14" d="M536.68,796.86A108.74,108.74,0,1,1,645.42,688.12,108.86,108.86,0,0,1,536.68,796.86Zm0-210.81A102.08,102.08,0,1,0,638.76,688.12,102.19,102.19,0,0,0,536.68,586.05Z"/><circle class="cls-1" cx="536.68" cy="688.12" r="105.41"/><path class="cls-15" d="M633.57,763.65a3.89,3.89,0,0,1,.5-.41,123.28,123.28,0,1,0-22.54,22.45l14.23-14.23Zm-96.89,29.88A105.41,105.41,0,1,1,642.09,688.12,105.4,105.4,0,0,1,536.68,793.53Z"/><path class="cls-16" d="M630.53,782.88l-4.77-4.77a4.7,4.7,0,0,1,0-6.65l-14.23,14.23-.24.23a4.71,4.71,0,0,0,0,6.65l5.79,5.79C619,795.16,624.58,788.89,630.53,782.88Z"/><path class="cls-17" d="M625.76,771.46a4.7,4.7,0,0,0,0,6.65l4.77,4.77c5.75-5.82,11.82-11.38,15.23-13.69l-5.54-5.54a4.68,4.68,0,0,0-6.15-.41,3.89,3.89,0,0,0-.5.41Z"/><path class="cls-18" d="M625.76,771.46a4.7,4.7,0,0,0,0,6.65l4.77,4.77c5.75-5.82,11.82-11.38,15.23-13.69l-5.54-5.54a4.68,4.68,0,0,0-6.15-.41,3.89,3.89,0,0,0-.5.41Z"/><path class="cls-19" d="M735,855.72l-86.62-87.56c-.31-.31-1.26.11-2.62,1-3.41,2.31-9.48,7.87-15.23,13.69-5.95,6-11.54,12.28-13.45,15.48-.62,1-.86,1.76-.59,2L703.11,888A22.38,22.38,0,0,0,735,888,23,23,0,0,0,735,855.72Z"/><path class="cls-20" d="M735,855.72l-86.62-87.56c-1.16-1.18-11,7.67-19.51,16.4C621.66,792,726.2,896.86,735,888h0A23,23,0,0,0,735,855.72Z"/></svg>