<svg xmlns="http://www.w3.org/2000/svg" viewBox="0 0 355.39 325.53"><defs><style>.cls-1{fill:none;stroke:#8fb38e;stroke-miterlimit:10;stroke-width:4.58px;}</style></defs><g id="Layer_2" data-name="Layer 2"><g id="Layer_1-2" data-name="Layer 1"><path class="cls-1" d="M220.57,2.34a180.6,180.6,0,0,0-23.2,2.16,59.24,59.24,0,0,0-11.44-.65,99.69,99.69,0,0,0-16.39,2.07c-5.42,1.08-10.78,2.43-16.1,4a254.91,254.91,0,0,0-31.36,11.18A186.59,186.59,0,0,0,93.3,36.49a158.6,158.6,0,0,0-13.1,9.78c-4.31,3.56-8.38,7.42-12.35,11.39q-2.94,2.94-5.76,6c-6,4.52-12,9.17-17.63,14.19-3.25,2.89-6.33,6-9.33,9.16s-5.86,6.41-8.61,9.78a116.12,116.12,0,0,0-7.88,10.9,94.4,94.4,0,0,0-6.38,11.75C10.37,123.55,8.63,127.78,7,132s-3,8.72-4.6,13.06a2.71,2.71,0,0,0,1.16,3A2.46,2.46,0,0,0,7,147.15c1.44-3.4,2.85-6.8,4.32-10.18s3.13-7,4.75-10.49,3.34-6.8,5.24-10.08a104.55,104.55,0,0,1,5.94-9c3-4,6.25-7.84,9.61-11.53a160.36,160.36,0,0,0-8.82,15.68,122.07,122.07,0,0,0-10.59,32.11,114,114,0,0,0-1.69,17.09,109.29,109.29,0,0,0,1,17.16,135.67,135.67,0,0,0,9,33.22,216.36,216.36,0,0,0,15.29,30.33A205.35,205.35,0,0,0,60.6,268.72a150,150,0,0,0,51.81,38.6,181.67,181.67,0,0,0,64.06,15.57,187.28,187.28,0,0,0,33.31-.94,182.76,182.76,0,0,0,32.76-6.77,169.67,169.67,0,0,0,30.25-12.63,161.58,161.58,0,0,0,26.64-18,141.09,141.09,0,0,0,39.09-52.41c9.24-21.15,13.53-44.43,14.43-67.59a225.2,225.2,0,0,0-1.49-35.41,194.48,194.48,0,0,0-7.3-34.34c-1.69-5.48-3.64-10.86-5.71-16.18a147,147,0,0,0-7.12-15.77A112.39,112.39,0,0,0,311.56,36.5a123.54,123.54,0,0,0-12.61-11,106,106,0,0,0-13.73-8.86,114.87,114.87,0,0,0-31.16-11.4,141.57,141.57,0,0,0-29.45-3c-1.35,0-2.69,0-4,0Zm-34,3.73c.63,0,1.25,0,1.88,0l-1.86.37c-22,4.38-43,12.48-63.55,21.61q-15.24,6.77-29.82,15-7.19,4-14.13,8.55c-1.19.76-2.36,1.54-3.53,2.34C78.27,51.4,81,49,83.84,46.66a153.43,153.43,0,0,1,19.1-13.24A202.89,202.89,0,0,1,123.35,23l-.08,0,.22-.09.05,0,0,0c4.2-1.85,8.43-3.58,12.72-5.14s8.88-3.07,13.36-4.46a180.48,180.48,0,0,1,26.95-6.41l-.08,0a93.51,93.51,0,0,1,10.15-.89Zm57.08,5.87A129.54,129.54,0,0,1,259,15.19a114.22,114.22,0,0,1,14.82,5.3,111.36,111.36,0,0,1,23.5,14.43,123.18,123.18,0,0,1,20.42,21.32,110.12,110.12,0,0,1,8.12,13.07,154.26,154.26,0,0,1,6.73,14.74,225.36,225.36,0,0,1,7.91,23.33,191.92,191.92,0,0,1,5.15,25.85,220.7,220.7,0,0,1,.06,54.42,172.31,172.31,0,0,1-10.39,40.83c.08-.18.15-.36.23-.55a143.82,143.82,0,0,1-17.37,31.4,141.25,141.25,0,0,1-10.74,12.76,131.93,131.93,0,0,1-12.53,11.48l.36-.29a162.29,162.29,0,0,1-16.9,12,159,159,0,0,1-18.41,9.66,3.52,3.52,0,0,1,.4-.18,172.29,172.29,0,0,1-21.91,8,176.31,176.31,0,0,1-23.59,5,191.35,191.35,0,0,1-25.65,1.87,188.12,188.12,0,0,1-26.3-1.76H163a178.81,178.81,0,0,1-47.19-13.26,154.41,154.41,0,0,1-33.45-20.33h0l-.37-.3.23.18a154.53,154.53,0,0,1-14.8-13.83,170.59,170.59,0,0,1-12.93-15.76,224.92,224.92,0,0,1-14.12-22.18,207.45,207.45,0,0,1-11.44-23.57,2.6,2.6,0,0,1,.1.25A139.32,139.32,0,0,1,20,175.8l0,.21c0-.11,0-.22,0-.33a.78.78,0,0,1,0-.16v.09a106.71,106.71,0,0,1,0-27l0,.17c0-.11,0-.23,0-.35v0a118,118,0,0,1,7.15-27.17l-.06.15.15-.37v0h0A163.56,163.56,0,0,1,47.18,86.2c.63-.86,1.27-1.71,1.92-2.56C51,82,52.89,80.31,54.84,78.71c5.24-4.22,10.61-8.26,16-12.21,5.71-4.17,11.55-8.11,17.57-11.77a332,332,0,0,1,37.81-19.62l-.89.4a386.35,386.35,0,0,1,36.8-14.34,232.16,232.16,0,0,1,37.77-8.85q5.85-.83,11.73-1.26c.85.32,1.7.65,2.53,1l-.25-.12a4,4,0,0,1,.51.25,1.05,1.05,0,0,0,1.46-.4,1.11,1.11,0,0,0,.06-1,149.4,149.4,0,0,1,27.72,1.14Zm-.95-.14.58.09-.58-.09Zm-42,.39-.33.05.33-.05ZM297.43,35l.51.41-.51-.41Zm34.83,48.24.12.29-.12-.29ZM47.37,85.94a.64.64,0,0,1-.1.13l.1-.13Zm-19.76,21-.27.38.27-.38Zm-.38.53c-.05.07-.11.14-.16.22a1.77,1.77,0,0,1,.16-.22ZM162.48,317.71l.29,0-.29,0ZM82.31,284.18h0l-.15-.12.14.12ZM20,175.68s0,.08,0,.12a1.37,1.37,0,0,0,0-.19v.07Zm0-27.29,0,.18,0-.21v0ZM27.33,121l-.09.22a1.6,1.6,0,0,0,.1-.23Zm96.16-98-.14.06.16-.07Z"/></g></g></svg>