<svg id="Layer_1" data-name="Layer 1" xmlns="http://www.w3.org/2000/svg" viewBox="0 0 1014.13 576"><defs><style>.cls-1,.cls-2{fill:none;stroke:#85a784;stroke-miterlimit:10;stroke-width:2px;}.cls-2{stroke-dasharray:12.02 12.02;}</style></defs><path class="cls-1" d="M49.24,137.48q3-.71,5.85-1.35"/><path class="cls-2" d="M66.86,133.68C142.68,119,179.6,135.16,199.37,152.8c30,26.74,40.81,89.93,61.27,215.23,9.45,57.81,13.77,97.75,40.6,108.77,21.9,9,47.34-6,59-13,45.53-27.59,60.5-71.24,98-170C510.14,157.2,522.43,133,551.71,117.57c42.83-22.56,93.87-10.41,105.7-7.66,12.93,3,53,12.84,84.77,46.46,31.91,33.78,40.09,76.26,55.15,159.83,12.94,71.86,9.35,94.42,28.59,108.26,25.85,18.59,69.17,4.34,107.31-14.87"/><path class="cls-1" d="M938.58,406.84c1.78-.93,3.55-1.86,5.3-2.81"/></svg>