<svg xmlns="http://www.w3.org/2000/svg" viewBox="0 0 595.43 606.67"><defs><style>.cls-1{fill:#b286b0;}.cls-2{fill:#8fb38e;}.cls-3{fill:#f2c22a;}.cls-4{fill:#7dc7ae;}.cls-12,.cls-13,.cls-14,.cls-15,.cls-16,.cls-18,.cls-19,.cls-20,.cls-5,.cls-8,.cls-9{fill:none;stroke-miterlimit:10;}.cls-12,.cls-16,.cls-5{stroke:#7dc7ae;}.cls-5{stroke-width:1.54px;}.cls-6,.cls-7{fill:#fff;}.cls-7{opacity:0.18;}.cls-8,.cls-9{stroke:#f9b3af;}.cls-8{stroke-width:3.58px;}.cls-9{stroke-width:2.39px;}.cls-10{fill:#a682ae;}.cls-11{fill:#69acc7;}.cls-12,.cls-14{stroke-width:1.92px;}.cls-13,.cls-18,.cls-19{stroke:#a682ae;}.cls-13{stroke-width:1.72px;}.cls-14,.cls-15{stroke:#69acc7;}.cls-15{stroke-width:1.5px;}.cls-16{stroke-width:1.1px;}.cls-17{fill:#ffb23c;}.cls-18{stroke-width:2.28px;}.cls-19{stroke-width:1.66px;}.cls-20{stroke:#fff;stroke-width:1.83px;}</style></defs><g id="Layer_2" data-name="Layer 2"><g id="Layer_1-2" data-name="Layer 1"><polygon class="cls-1" points="433.26 0 364.64 309.65 0 355.34 76.47 50.64 433.26 0"/><polygon class="cls-2" points="0 355.34 165.55 606.67 523.36 556.27 364.64 309.66 0 355.34"/><polygon class="cls-3" points="433.26 0 595.43 252.33 523.36 556.27 364.64 309.66 433.26 0"/><path class="cls-4" d="M185.19,527c35.51-13.15,134.58-35.78,186-40.63,44.43-4.19,34.21,6.67,1,18.93a444.47,444.47,0,0,1-51.31,15.57C260.5,535.73,169.8,551,156.64,545.6,154.25,544.62,163,535.23,185.19,527Z"/><path class="cls-5" d="M403.59,487.43c-4.2-8.2-82.48,2.42-149.59,18.55-71.38,17.16-115.69,37.06-95.08,41,16,3.08,69-3.7,126.36-17.09C348.3,515.22,407.34,494.76,403.59,487.43Z"/><path class="cls-5" d="M184.84,524.8c35.39-13.83,134.41-36.54,186-40.56,44.55-3.47,34.54,8.49,1.48,21.38a391.82,391.82,0,0,1-51.21,16.11c-60.41,15.06-151.22,29.7-164.54,23.24C154.13,543.79,162.72,533.44,184.84,524.8Z"/><path class="cls-5" d="M322.07,491.57c60.47-10.23,106.37-7.14,70.16,9.61-30.41,14.07-105.85,31.7-159,40.51-12.44,2.06-38,6.3-54.4,6.61-36.31.69-34.91-12.88,27.68-31.09C218.09,513.85,284.59,497.91,322.07,491.57Z"/><path class="cls-6" d="M287.64,508.79l-26.46,5.9c-5.43,1.21-10.38-.87-11-4.63l-2.63-15.79c-.62-3.74,3.29-7.81,8.7-9l26.33-6c5.47-1.25,10.49.8,11.14,4.57l2.74,15.89C297.1,503.46,293.13,507.56,287.64,508.79Z"/><path class="cls-7" d="M276.76,503.79a43.42,43.42,0,0,0-12.48,2c3.51-3.88,6.1-8,9.9-11.9-7.32-1-16.57.47-24.56.44-.61-.07-1-.4-.67-.47,13.41-6.53,27-12.3,40.15-19.41-9.05-.4-17.86.4-27,.66-3.84.07-7.83,1-11.25-.06,2.11-1.51,4.6-2.49,6.71-4,5.31-3.68,10.79-6.37,14.83-10.58-13.6.3-27,1.39-40.2,1.43,13.07-7.93,27.37-14.13,39.87-22.57-15.34.37-30.39,3.73-46.23,5.26-.87,0-2.34-.05-1.56-.64,10.05-9.85,24.38-17.11,32.32-27.71-11.44,1.95-22.58,5.44-33.9,7.56a3.35,3.35,0,0,1,1.43-1.95c10.87-10.06,19.64-20.63,25.34-32.07l.84-1.53L245.21,387l-70.15,67.25,15.84,76.16,76-18.06a114.71,114.71,0,0,0,10-7.53C277.18,504.52,276.76,503.79,276.76,503.79Z"/><path class="cls-7" d="M352.53,404.83l-87.81-21.77c-.29.52-.56,1-.84,1.54-5.72,11.47-14.52,22.07-25.44,32.16a3.33,3.33,0,0,0-1.43,2c11.37-2.14,22.56-5.65,34.06-7.61-8,10.62-22.36,17.91-32.45,27.8-.78.59.69.64,1.57.63,15.93-1.55,31-4.93,46.47-5.32-12.56,8.47-26.93,14.7-40.05,22.66,13.27-.05,26.74-1.16,40.41-1.48-4.06,4.22-9.56,6.93-14.89,10.62-2.12,1.52-4.63,2.51-6.75,4,3.44,1,7.45.12,11.31,0,9.22-.28,18.07-1.08,27.16-.7-13.19,7.15-26.86,12.94-40.33,19.5-.29.07.06.4.67.46,8,0,17.33-1.47,24.69-.46-3.81,4-6.41,8.05-9.93,11.93a43.73,43.73,0,0,1,12.54-2s.43.73.17,1a115.62,115.62,0,0,1-10.08,7.56L367.43,487Z"/><polygon class="cls-8" points="186.28 532.21 169.62 454.16 251.48 382.7 357.54 403.75 372.92 488.18 186.28 532.21"/><polygon class="cls-9" points="191.56 531.04 174.73 450.83 251.52 379.22 352.33 402.66 368.04 489.21 191.56 531.04"/><path class="cls-6" d="M344.63,430.06c3.84,5.7,7.36,11.13,11.12,16.46,3.32,4.7,6.68,9.42,11.28,13.5,1.23,1.09.6,2.05-.71,3.09a19.71,19.71,0,0,1-6.12,3.09c-1.95.65-2.18,1.41-1.84,2.45a145.62,145.62,0,0,1,4.84,20.92,18.29,18.29,0,0,1-.07,6.47,2.06,2.06,0,0,1-1.6,2,2.34,2.34,0,0,1-2.47-.86c-3-2.93-4.67-6.46-6.31-9.94-2.27-4.82-4.88-9.5-7.28-14.24-.69-1.37-1.66-1.81-3.91-1.13-1.87.57-3.81.91-5.72,1.33-4.33.95-4.43.95-4.8,4.12-.72,6.16-1.26,12.3-2,18.47a27.29,27.29,0,0,1-1.94,8.38c-.37.81-.71,1.75-2.12,2-1.25.18-1.65-.59-2-1.22a14.82,14.82,0,0,1-2.12-5.32c-1.25-7.36-2.5-14.7-3.1-22.17-.1-1.15-.45-1.64-2.18-1.43a13.35,13.35,0,0,1-2.76-.06c-3.37-.32-3.82-1-2.77-3.62,4.57-11.26,6.72-22.49,9-33.7.19-.91,0-1.67-1.11-1.89a3.21,3.21,0,0,0-2.87,1.34c-3,3-5,6.37-7.4,9.59a55.68,55.68,0,0,1-6,7.42,3.87,3.87,0,0,1-3.1,1.51c-1.21-.12-1.43-.94-1.58-1.73-1.09-5.67,1.41-11.34,5.13-16.95,5.51-8.31,13.83-14.76,26.12-17.77,12.74-3.12,22.92-.89,31.19,4.4,5.2,3.33,9.22,7.34,10.59,12.66.26,1,.6,2.22-1,3.07s-2.95.12-4.12-.36c-5.69-2.33-10-5.77-15.27-8.41A11.17,11.17,0,0,0,344.63,430.06Z"/><path class="cls-6" d="M186.73,520.3c-1.25-13.46-2-26-.6-38.93.42-3.93,1.66-7.94,1.57-11.83a6,6,0,0,0-.24-1.69c-.52-1.5-1.84-1.6-3.43-.2a32.53,32.53,0,0,0-4.76,5.69c-2.48,3.4-4.89,6.81-7.49,10.17-.92,1.19-2.06,2.82-4.12,2.72s-1.95-1.79-1.92-3c.18-7.76,3.88-15.17,10.93-22.05,13.53-13.18,35.69-16.22,50.25-6.08,4.16,2.9,7.43,6.33,9.12,10.58.61,1.51,1.91,3.4-.48,4.77s-4.18-.26-5.73-1.12c-3.84-2.15-7.46-4.48-11.2-6.68a42.24,42.24,0,0,0-3.88-1.89,3,3,0,0,0-2.75-.1,1.7,1.7,0,0,0-.95,2.23,18,18,0,0,0,1.8,4.62c5.7,9.23,9.08,19.31,11.9,29.59,2.21,8.07,4.45,16.19,4.77,24.76a11.8,11.8,0,0,1-.21,3.39c-.21.87,0,2.06-1.64,2.52s-2.17-.55-2.79-1.23a25.28,25.28,0,0,1-4.25-6.88,138.69,138.69,0,0,0-10.71-20.53,11.59,11.59,0,0,0-3.54-3.65c-1.77-1.1-3-.83-4.29.95a13.87,13.87,0,0,0-2.12,4.74c-2,7.21-2.7,14.34-3.27,21.47a40.07,40.07,0,0,1-2,10.39c-.34.94-.51,2.27-2.2,2.54s-2.13-1-2.53-1.89A46.42,46.42,0,0,1,186.73,520.3Z"/><path class="cls-10" d="M259.73,514.13a152,152,0,0,1,.59-23.61,38.4,38.4,0,0,0,0-8.9c-.21-1.68-1.23-2.55-3.46-2.94-5.5-.95-11.08-1.77-16.06-3.49a10.7,10.7,0,0,1-3.67-1.82c-.58-.51-1.06-1.15-.34-2s1.74-.43,2.48-.33a66,66,0,0,0,18,.53c12.89-1.65,25.4-4.56,36.4-11.73.9-.59,2-1.78,3.15-1.3s.24,1.73-.3,2.61c-3.25,5.28-8.5,9.48-15.34,12.61-2.16,1-2.77,1.89-2.46,3.39.88,4.17,3.32,7.79,5.19,11.6,2.94,6,4.83,12.29,6.82,18.59a12.46,12.46,0,0,1,.29,5.55,1.92,1.92,0,0,1-1.42,1.79,2.11,2.11,0,0,1-2.28-.65,26.49,26.49,0,0,1-5.25-7.18,23,23,0,0,0-5.35-6.89c-2.53-2.1-4.46-1.63-6.27,1.32-2.51,4.1-2.51,8.21-3.56,12.32A20.29,20.29,0,0,1,265,519.1a2.35,2.35,0,0,1-2,1.48,1.7,1.7,0,0,1-1.69-1C260.28,518.09,260.28,516.27,259.73,514.13Z"/><path class="cls-6" d="M188.41,439.51c-.93-5.81,5-12.08,13.29-14.1,8.55-2.08,16.17.95,17.14,6.82s-5.24,12.3-13.72,14.28S189.35,445.35,188.41,439.51Z"/><path class="cls-6" d="M316.68,399.16c8.74-2.08,16.31.93,17.32,6.92s-5.13,12.23-13.82,14.28-16.41-1.06-17.39-6.89C301.78,407.44,307.74,401.28,316.68,399.16Z"/><path class="cls-10" d="M255.28,462.48c-.76-4.43,3.44-8.89,9.79-10.39s12.14.74,12.86,5.13-3.83,9-10.07,10.46S256,466.78,255.28,462.48Z"/><path class="cls-11" d="M204.29,444.81c-4.39,1-8.67.24-11-1.56a4.25,4.25,0,0,1-2-3.75c.43-4.6,6.9-11.05,13.85-12,1.37-.2,7.15.41,9.23,2.13h0c1.43,1.18,1.83,3.23,1.1,5.62a14.49,14.49,0,0,1-7,8A17.46,17.46,0,0,1,204.29,444.81ZM204,428.67c-5.71,1.38-11,6.85-11.31,10.67a3.56,3.56,0,0,0,1.73,3.13c2.68,2.1,8.42,2.66,13.38-.05a13,13,0,0,0,6.31-7.21c.63-2.07.3-3.89-.87-4.86h0c-1.77-1.46-7.12-2-8.12-1.89A10.52,10.52,0,0,0,204,428.67Z"/><path class="cls-11" d="M205.57,442.76a20.81,20.81,0,0,1-6.5.56c-1.2-.1-3.69-.31-5.23-1.68a6.63,6.63,0,0,1-1.55-7.25,10.48,10.48,0,0,1,5.33-5.7c1.22-.62,7.57-2.31,11.14-2a8.15,8.15,0,0,1,6.44,4,6.28,6.28,0,0,1-.77,7C212.53,440.22,209.11,441.92,205.57,442.76Zm-4.45-14.14a20,20,0,0,0-2.88.86,9.11,9.11,0,0,0-4.61,4.95A5.93,5.93,0,0,0,195,440.9c1.29,1.14,3.48,1.32,4.53,1.41,4.6.38,11-1.34,13.72-4.9a5.51,5.51,0,0,0,.63-6.11,7.1,7.1,0,0,0-5.59-3.57h0A25.5,25.5,0,0,0,201.12,428.62Z"/><path class="cls-11" d="M194.63,440c-1.81-3.14,1.83-9,7.84-10.61,5.1-1.39,9.89.81,11.63,3.61a4.18,4.18,0,0,1,.65,3.74c-1.36,3.81-7.87,8.28-13.61,7.42C200.09,444,195.77,441.94,194.63,440Z"/><path class="cls-12" d="M328.26,413.3c-3.58,3.28-13.18,4.46-17.94,1.3-4-2.68-3-7.4.1-10.38a10.64,10.64,0,0,1,4.85-2.84c5.8-1.48,14.7.18,16,4.72C331.46,406.93,330.51,411.23,328.26,413.3Z"/><path class="cls-12" d="M327.45,411.29c-.8,4.07-8.28,8.88-14.62,8.26-5.36-.52-7.75-4.73-7.14-8.37a6.72,6.72,0,0,1,2.23-4.22c4-3.52,12.82-5.76,17.07-2.63C325.76,404.9,328,408.73,327.45,411.29Z"/><path class="cls-4" d="M313.47,403.34c4.8-2.88,13.64-2.71,16,1.3,2,3.4-1.4,8.2-5.69,10.86a14.09,14.09,0,0,1-5.69,2.22c-5.75.67-12.42-2.42-11.05-7.33A20.46,20.46,0,0,1,313.47,403.34Z"/><path class="cls-13" d="M362.24,362.17c6,3.75,3.38,15.42-7.15,22-8.91,5.54-19.88,5.18-25.36,1.9-1.3-.78-4-2.39-4.09-5.45-.26-6.86,8.92-18.15,20.7-20.62C348.49,359.52,358.46,359.81,362.24,362.17Z"/><path class="cls-13" d="M352.55,359.59c9.49.15,17,8.43,11.85,16.42-4.37,6.78-16.11,10.59-24.68,10.53-2,0-6.22,0-9-1.94-6.26-4.24-6.58-14.71,3.47-20.57C336,363,346.57,359.49,352.55,359.59Z"/><path class="cls-13" d="M328,380.94c-4.24-5.36,1.3-16.29,12.42-20.05,9.47-3.2,19.22.06,23.27,4.82,1,1.13,3,3.47,2.2,6.6-1.67,7-13.11,15.93-24.37,15.17C339.43,387.35,330.64,384.33,328,380.94Z"/><path class="cls-14" d="M311.21,365.58c-2.43,2.25-9,3.11-12.22,1-2.75-1.79-2-5,.08-7.06a7.35,7.35,0,0,1,3.31-2c3.95-1.05,10,0,10.86,3.11A7.55,7.55,0,0,1,311.21,365.58Z"/><path class="cls-14" d="M310.67,364.22c-.55,2.77-5.65,6.09-10,5.71-3.66-.32-5.29-3.17-4.87-5.66a4.65,4.65,0,0,1,1.52-2.88c2.72-2.42,8.75-4,11.64-1.89C309.53,359.88,311,362.47,310.67,364.22Z"/><path class="cls-14" d="M302.23,359.18c3.28-2,9.3-1.92,10.93.79,1.39,2.3-1,5.58-3.88,7.42a9.75,9.75,0,0,1-3.88,1.55c-3.92.49-8.47-1.57-7.53-4.92A14.2,14.2,0,0,1,302.23,359.18Z"/><path class="cls-12" d="M179.91,429c.31,2.11-3.56,5.55-7.78,6.17-3.59.51-6-1.21-6.34-3.08a2.72,2.72,0,0,1,.58-2.4c1.87-2.3,7.14-4.67,10.53-3.75C177.52,426.15,179.71,427.71,179.91,429Z"/><path class="cls-12" d="M178.53,425.65c2.12,1.45,1.51,5.27-1.9,7.14a9.05,9.05,0,0,1-8.58-.15,2.93,2.93,0,0,1-1.53-1.95c-.25-2.32,2.61-5.82,6.56-6.28C173.8,424.33,177.2,424.74,178.53,425.65Z"/><path class="cls-12" d="M166.92,429.08c.52-2.39,4.86-5.18,8.47-4.79a4.22,4.22,0,0,1,4,5,4.12,4.12,0,0,1-1.35,2.49c-2.34,2-7.44,3.3-9.8,1.42A5.85,5.85,0,0,1,166.92,429.08Z"/><path class="cls-15" d="M524.75,331.8c-14.9,5.79-36.18-24.56-37.76-62.5-1.36-32.42,12.15-57.92,25.59-64.36,3.21-1.53,9.87-4.72,16.61,1.43,15.16,13.83,28.39,60,19.29,93.16C546.84,305.54,534.23,328.11,524.75,331.8Z"/><path class="cls-15" d="M541.79,314.88c-11.68,21.59-37.86,21.32-48.55-7.14-9.07-24.17-3.58-59.48,6.49-79.73,2.4-4.83,7.4-14.88,14.76-17.7,16.63-6.39,39.77,14.91,40.12,51.7C554.67,268.68,549.23,301.12,541.79,314.88Z"/><path class="cls-11" d="M538.67,320.23c-12.33,15.15-37.45,2.06-46.22-30.8-7.47-27.95-.3-59.53,10.48-74.18,2.57-3.49,7.92-10.76,15.15-9.82,16.3,2.1,37.3,34.24,35.67,70C553.45,281.9,546.52,310.58,538.67,320.23Z"/><path class="cls-15" d="M499.12,225.93c11.44-22.48,38.14-23.63,49.23,5.37,9.41,24.59,3.59,60.54-6.74,80.73-2.43,4.75-7.44,14.55-14.78,17.19-16.32,5.86-38.81-15-39.6-50.56C487.09,272.14,492,240,499.12,225.93Z"/><path class="cls-16" d="M437.77,315.29c-13.55-26.87-11.35-86.12,9.07-109.71,17.6-20.33,41.58-6,54.47,18.36a82.14,82.14,0,0,1,10.4,34.79c2.25,38-15,88.16-39.76,87.14C467.48,345.68,446.32,332.26,437.77,315.29Z"/><path class="cls-16" d="M424.65,291.94c-2.77-33.83,19.72-81.48,46.08-83.59,22.7-1.82,38.75,30.81,41.46,62,.64,7.36,2,22.6-3.1,37.46-11.24,32.94-43.58,59.39-64.82,38C440.41,341.94,426.39,313.17,424.65,291.94Z"/><path class="cls-16" d="M436,317.66c-13.53-26.85-11.35-86,9-109.58,17.57-20.3,41.53-6,54.4,18.37a82.16,82.16,0,0,1,10.39,34.77c2.26,37.93-15,88-39.68,87C465.65,348,444.52,334.62,436,317.66Z"/><path class="cls-4" d="M465.42,353.84c-20.91,2.59-45.57-39-42.69-84.1,2.47-38.72,24.21-65.3,43.39-69.3,4.57-1,14.09-2.94,22.45,6.23C507.38,227.32,519,285.82,502,322.55,499,329.18,478.76,352.19,465.42,353.84Z"/><path class="cls-6" d="M468.94,303.28l.5.66c3.6-2.33,7.69-2.52,10.29-9.13,1.56-4,1.82-11.59,0-15.14-1.33-2.55-2.67-2.53-3.69.41-2,5.72-3.9,11.53-5.75,17.37C469.68,299.26,469.37,301.33,468.94,303.28Z"/><path class="cls-6" d="M508.61,311.25c.89,2.1,1.72,4.47,2.76,6.47a19.81,19.81,0,0,1,2.23,10.79c-.38,5.76-1,11.47-1.31,17.22a23.68,23.68,0,0,0,.62,6.06c.25,1.19,1,2,1.83,3.55.08-8.35.32-8.82,4.3-9.24.34-2.5.68-5,1-7.56.39-2.94.84-5.86,1.17-8.83s.95-6,.7-8.75a66,66,0,0,0-4.3-19.46c-2.09-5-6.6-5.6-9-.94-1.09,2.14-1.94,4.65-2.93,7.07,1,1.63,1.81,3.08,2.73,4.63C508.57,311.51,508.63,311.09,508.61,311.25Z"/><path class="cls-6" d="M461.45,227.78l-.08-.93c-4.15.75-8.31,1.25-12.4,2.39-1.47.4-3.08,1.74-3.59,6.42Z"/><path class="cls-6" d="M496.92,318c2,2.75,3.85,5.79,5.72,8.77s2.52,6.83,2.24,11.52c-.39,6.53-.35,13.15-.49,19.87,2.58-1.23,3.24-.78,4.19,3,.2-1.18.31-1.75.38-2.34,1.29-10.3,2.68-20.6,3.78-31a15.61,15.61,0,0,0-1.11-7,112.7,112.7,0,0,0-6.4-11.64c-.66-1.08-2-2.19-2.64-1.69a37.33,37.33,0,0,0-6,6.22C495.69,314.85,495.85,316.49,496.92,318Z"/><path class="cls-6" d="M525.45,416.74c2.24-5.81,2.87-12.44,3.46-19.18.79-9.06.85-18.4,2.93-27.06.65-2.68,1.2-5.44,1.94-8a59,59,0,0,0,2.42-16.54c0-8.32,2.77-14.77,4.81-21.73a26.34,26.34,0,0,0,1.18-5.23c.27-3.4-.94-5.23-2.79-4.32-4,1.95-6.74,6.28-8.45,13-3.05,12-6.31,23.59-11.14,33.66-1.87,3.92-2.76,9.3-4,13.52-.42-5,1.36-9.36,2.93-14-2.79-4.33-7.83-4.78-7.17-14.41l-.46.17c-.11.78-.3,1.55-.34,2.34a65.19,65.19,0,0,1-2.8,17.15c-1.4,4.2-2.42,4.55-4.06,1.11-.52,2.08-.78,4.87-1.71,6.41-1.44,2.4-2.36-1.26-3.66-2.21a11.49,11.49,0,0,0,.6,6.6c1.14,3.73,2.44,7.31,3.53,11.07a122.43,122.43,0,0,1,3.44,13.12c1.13,6.41.22,12.73-1.07,18.79a2.05,2.05,0,0,1-.33.68c-.07.11-.19.13-.09.07.42-4.81,1.37-9.84,1.15-14.74a70.48,70.48,0,0,0-2.62-14.2c-1.27-4.84-3.17-9.18-4.5-14-.63-2.25-.58-5.08-.82-7.65,0-.39.1-.84,0-1.2-.77-4.28-1.57-8.55-2.4-13.08-3.18,2.57-6.63,2.94-10.1.11,1.69.26,3.39.89,5.05.68s3.35-1.27,5-2c-.29-4.78-.55-9.17-.8-13.23l-5.73-2.75.1-.78,5.12,2.1c0-.26.11-.52.17-.78q-2.55-4.11-5.08-8.23l.27-.53c1.9,2.59,3.81,5.15,5.69,7.81a6,6,0,0,1,.14,1.67c.76,8.18,1.5,16.35,2.28,24.49a7.42,7.42,0,0,0,.69,2.23c.09-3.12.34-6.1,2.41-6.44.79-.13,1.64.7,2.7,1.21,0-1,.14-2.78.18-4.54.19-7.45.44-14.92.48-22.41a13.33,13.33,0,0,0-1.07-5.66,133.34,133.34,0,0,0-8.21-13.16c-2.33-3.2-5.07-2-6.32,2.58-1.36,5-2.41,10.31-3.36,15.61-.29,1.63.17,3.71.33,6.22-1.88-8-3.61-15.4-5.27-22.48l-8.92,4.13c1.16,8.42,2.48,17.18,3.56,26,.76,6.22,1.73,12.58,1.67,18.81A190.18,190.18,0,0,0,481.69,413c.38,1.64.69,3.33,1,5L516,457.2c.05-.77.12-1.53.23-2.27C518.27,441.46,521,428.42,525.45,416.74Z"/><path class="cls-6" d="M482.58,309.5a71.39,71.39,0,0,1,3.72-7.77c-2.22-5.15-2.08-5.89,2.5-12.14l0-.94c-1.12.14-2.29-.07-3.34.5-3.14,1.72-5.08,6.31-7.27,10.29a6.13,6.13,0,0,1-2.41,2.48c-3.55,1.73-7.11,3.3-10.68,4.74a2.8,2.8,0,0,1-2.6-.23c-2.47-1.63-4.87-3.56-7.31-5.4L452.76,308l-.32-.2a19.05,19.05,0,0,1,.62-3.08c2.29-5.86,4.65-11.64,7-17.49.87-2.19,1.79-4.33,2.53-6.66a19,19,0,0,0,.12-10.14c-3.19,4.05-5.34,9.32-6.74,15.69a29,29,0,0,1,3.66-12.77c2.12-3.78,4.34-7.43,6.33-11.46,1.6-3.23,1.7-7.17.82-11.24-.47-2.16-1.1-2.56-2.27-1.63a30.55,30.55,0,0,0-10,13.94c-.15.4-.36.74-.7,1.44.68-4.31,3.1-9.65,5.73-12.28,2.36-2.37,4.84-4.38,7.29-6.49s2.85-3.16,2.76-7.64c-.1-4.32-1.54-8.68-3.3-9.69a1.86,1.86,0,0,0-1.7-.09,57.16,57.16,0,0,0-8.52,4c-6.14,3.92-12.4,4.59-18.78,4a44.91,44.91,0,0,0-10.15.56c-1.23.16-2.42,1.33-3.62,2.05l-.18-.91c1.7-1,3.37-2.43,5.12-2.89a26.13,26.13,0,0,1,6.61-.38c1.06,0,1.86-.37,2.72-1.8,1.81-3,3.82-5.58,5.78-8.27a37.38,37.38,0,0,0,5.48-12.78,15,15,0,0,0,.42-4.24c-.3.62-.57,1.29-.89,1.85-3.26,5.55-3,6.15-6.54,0-.29-.5-.54-1.08-.78-1.58-.16,0-.31-.13-.38,0-3.6,5-7.68,8.1-11.82,11-1.12.79-2,2.85-2.91,4.45-2.2,3.85-4.25,8-6.55,11.57a48.81,48.81,0,0,1-5.54,7c-4.35,4.7-7.69,11.08-10.07,19.21a221.07,221.07,0,0,1-17.78,43.72,1.68,1.68,0,0,1-.28.4l25.7,30.19c1.05-.84,2.09-1.74,3.17-2.44,5.53-3.59,11.13-6.37,17.22-6.14,3.55.13,7.16-.88,10.68-2,3.83-1.26,7.59-2.49,11.57-2.35,5.13.16,10.27-.93,15.43-1.48a10.19,10.19,0,0,1,1.55-.16C476.25,320.94,479.92,317.09,482.58,309.5Z"/><path class="cls-17" d="M514.87,373.33c-.39-4.92,1.38-9.32,3-14-2.71-4.24-7.66-4.59-7-14.16l-.45.18a23,23,0,0,0-.35,2.33,66.12,66.12,0,0,1-2.86,17.08c-1.41,4.2-2.4,4.57-4,1.19-.52,2.07-.8,4.85-1.71,6.39-1.44,2.42-2.32-1.2-3.59-2.11a11.46,11.46,0,0,0,.55,6.54c1.1,3.68,2.35,7.2,3.4,10.92a121,121,0,0,1,3.3,13c1.07,6.34.14,12.63-1.16,18.67a2.21,2.21,0,0,1-.33.69c-.07.11-.19.12-.09.06.44-4.77,1.41-9.79,1.22-14.65a69.46,69.46,0,0,0-2.49-14.05c-1.22-4.78-3.06-9.05-4.34-13.79-.6-2.22-.54-5-.76-7.58,0-.38.11-.84.05-1.19-.73-4.24-1.49-8.46-2.28-12.94-3.15,2.61-6.53,3.05-9.92.31,1.65.22,3.32.81,4.95.57s3.31-1.33,4.94-2c-.25-4.73-.48-9.09-.7-13.12L488.64,339l.09-.78,5,2,.18-.77L489,331.35l.27-.53c1.86,2.53,3.72,5,5.55,7.65a6.25,6.25,0,0,1,.13,1.65c.69,8.11,1.37,16.2,2.09,24.28a7.53,7.53,0,0,0,.66,2.2c.11-3.1.38-6.07,2.42-6.45.77-.14,1.6.67,2.64,1.15.05-1,.15-2.76.21-4.51.23-7.41.52-14.83.61-22.26a13.43,13.43,0,0,0-1-5.61,131.63,131.63,0,0,0-8-12.9c-2.26-3.13-5-1.92-6.23,2.69-1.36,5-2.42,10.29-3.39,15.57-.3,1.62.15,3.68.29,6.17-1.81-7.94-3.46-15.22-5-22.22l-8.8,4.27c1.1,8.35,2.34,17,3.35,25.76.71,6.16,1.63,12.46,1.53,18.64a189,189,0,0,0,4.83,45c.44,2,.77,4,1.14,6a7.47,7.47,0,0,1,0,1.31,10.62,10.62,0,0,1-.66-1.63c-3.63-16.33-6.33-33-6-51.05.13-6.35-1.06-12.8-1.7-19.21-.34-3.3-.76-6.58-1.18-9.85-.66-5.15-1.35-10.29-2-15.53-2.23.31-4.19.66-6.15.83-4.13.36-8.27.48-12.37,1a60.47,60.47,0,0,0-6.6,1.72c-4.67,1.12-9.31,2.84-14,3.09-5.91.31-11.3,3.68-16.72,7.1l-2.32,1.48-.17-.81c1.16-.93,2.3-2,3.48-2.78,5.46-3.66,11-6.54,17-6.43,3.5.06,7.05-1,10.52-2.24,3.77-1.33,7.47-2.62,11.38-2.57,5,.07,10.11-1.12,15.19-1.77a9.74,9.74,0,0,1,1.51-.19c4.91.2,8.54-3.7,11.21-11.29a72.52,72.52,0,0,1,3.7-7.79c-2.16-5.07-2-5.81,2.52-12.11v-.93c-1.09.17-2.25,0-3.28.57-3.1,1.77-5,6.37-7.21,10.36a6.16,6.16,0,0,1-2.39,2.5q-5.23,2.69-10.52,4.93a2.71,2.71,0,0,1-2.56-.18c-2.41-1.56-4.76-3.44-7.16-5.21l-2.4,6.92-.32-.2a20.28,20.28,0,0,1,.63-3.07c2.29-5.86,4.64-11.66,7-17.51.87-2.19,1.79-4.33,2.53-6.66a19.18,19.18,0,0,0,.18-10.08c-3.16,4.09-5.31,9.37-6.73,15.72a29.59,29.59,0,0,1,3.68-12.75c2.11-3.81,4.31-7.47,6.29-11.51,1.6-3.24,1.71-7.16.87-11.19-.44-2.13-1.06-2.52-2.22-1.57a31.51,31.51,0,0,0-9.89,14c-.15.4-.35.73-.69,1.43.7-4.29,3.11-9.64,5.7-12.3,2.34-2.4,4.79-4.44,7.21-6.59s2.83-3.2,2.76-7.65c-.07-4.28-1.45-8.59-3.18-9.56a1.82,1.82,0,0,0-1.67-.05,58.46,58.46,0,0,0-8.41,4.14c-6.06,4-12.21,4.8-18.48,4.35a44.2,44.2,0,0,0-10,.75c-1.21.19-2.39,1.38-3.58,2.11l-.16-.9c1.68-1,3.33-2.48,5.05-3a25.38,25.38,0,0,1,6.51-.5c1,0,1.82-.41,2.67-1.84,1.8-3,3.8-5.63,5.74-8.34a38.46,38.46,0,0,0,5.47-12.8,14.85,14.85,0,0,0,.43-4.22c-.29.62-.56,1.29-.89,1.85-3.23,5.58-2.94,6.18-6.43.13-.28-.48-.52-1.06-.75-1.55-.16,0-.3-.13-.37,0A47.42,47.42,0,0,1,430.49,220c-1.1.8-2,2.86-2.88,4.48-2.19,3.86-4.23,8-6.51,11.61a50.65,50.65,0,0,1-5.49,7c-4.31,4.76-7.63,11.16-10,19.28a227.53,227.53,0,0,1-17.75,43.79,1,1,0,0,1-1,.69,24.53,24.53,0,0,1,.89-2.63c2.65-5.55,5.58-10.72,7.95-16.71,3.32-8.39,6.46-17.17,9.29-26.26,3.14-10.11,7.81-16.77,13-22.91,2.65-3.15,5-7.23,7.48-10.93a4.48,4.48,0,0,0,.78-1.61c1-5.29,3.53-7.2,6-8.68,3.76-2.23,7-6.21,10.27-10.2a42.4,42.4,0,0,1,6.63-6.47c2.22-1.72,2.74-.22,2.59,4.18a40.25,40.25,0,0,1-8.05,23.77,48.37,48.37,0,0,0-4.49,7.26c1.66,0,3.32.13,5,.06.32,0,.75-.53.94-1.05,1.69-4.64,4.3-6.34,7-6.87a96.11,96.11,0,0,1,12.55-1.25c5.16-.33,7.35,8.93,5.9,16.83-.34,1.84-1.9,3-3,4.58A22.2,22.2,0,0,1,465,267.4a5.74,5.74,0,0,0-.72,4.79,17.25,17.25,0,0,1-.67,9.54c-1.73,4.38-3.63,8.52-5.43,12.77-.79,1.85-1.54,3.75-2.34,5.71a49,49,0,0,1,5.48,4c2.45,2.36,4.81.53,6.71.11,1.29-4.54,2.5-8.47,3.54-12.53.72-2.8,1.07-5.93,1.86-8.66a76.25,76.25,0,0,1,3.07-8.28c.73-1.73,1.54-1.44,2.21.35a23,23,0,0,0,1.42,2.95,17.12,17.12,0,0,1,1.8,8.43c0,1.32-.08,2.64-.15,4.32,1-1,1.78-1.91,2.63-2.66,1.67-1.47,3.31-2.24,5-.12.42.52,1.19.15,1.8.13,1.2,0,1.68,1.15,1.06,2.9a63.87,63.87,0,0,1-2.93,6.53c-2.72,5.65-5.49,11.19-8.12,16.91a8,8,0,0,0-.35,4c1,4.65,2.21,9.16,3.47,14.23.83-3.85,1.53-7.28,2.32-10.65,2-8.52,3.43-9.83,8.23-7.46,1.36-5.32,4.17-7.13,6.9-9.18.42-.31,1-.68,1.34-.44,1.92,1.29,2.68-1.12,3.45-3.46,1.86-5.61,4.72-6.86,8-6.24a2.92,2.92,0,0,1,1.65,1.51c3.89,7.11,5.66,16,5.91,25.85.06,2.54-.86,5.15-1.21,7.78-.81,6.09-1.5,12.21-2.32,18.27-.35,2.59-.91,5.09-1.42,7.93.63,1.37,1.3,1.74,2.14-.32,2.53-6.22,5.28-12.12,6.89-19.51,1.16-5.34,2.81-10.4,4.42-15.43s4.36-7.92,7.49-9.45a18.41,18.41,0,0,0,1.86-1c1.77-1.12,2.68-.29,2.33,3a58.43,58.43,0,0,1-2.15,10.24c-2.08,7-4.39,13.64-4.43,22A62.46,62.46,0,0,1,534.2,358c-1.21,6.07-3,11.83-4,17.94-.86,5.08-1,10.51-1.51,15.77-.29,3.25-.37,6.62-.93,9.71-.88,4.83-1.71,9.9-3.24,14.09a175.15,175.15,0,0,0-6.42,24.28c-1.09,5.32-2,10.72-3,16.07a1.4,1.4,0,0,1-.69,1.13c.13-1.38.18-2.79.39-4.14,2.07-13.41,4.79-26.41,9.28-38.1,2.23-5.81,2.89-12.4,3.51-19.11.84-9,.95-18.28,3-26.92.65-2.68,1.21-5.43,2-8a60.25,60.25,0,0,0,2.48-16.48c.05-8.25,2.81-14.71,4.86-21.67a27.21,27.21,0,0,0,1.19-5.21c.28-3.39-.89-5.18-2.72-4.24-3.92,2-6.66,6.37-8.38,13.1-3.07,11.93-6.35,23.55-11.15,33.64C517,363.75,516.07,369.11,514.87,373.33Zm-9.54-66.55,2.65,4.55c.12-.75.18-1.16.16-1,.86,2.08,1.66,4.41,2.68,6.38a19.56,19.56,0,0,1,2.12,10.67c-.41,5.73-1,11.4-1.39,17.12a24.18,24.18,0,0,0,.57,6c.24,1.17,1,2,1.78,3.49.13-8.3.37-8.76,4.28-9.27.35-2.48.7-5,1.05-7.53.4-2.92.86-5.83,1.2-8.78s1-6,.74-8.71c-.57-6.9-1.75-13.51-4.11-19.23-2-4.9-6.45-5.43-8.8-.77C507.17,301.85,506.32,304.37,505.33,306.78Zm2.48,53.07c.2-1.18.31-1.75.39-2.33,1.33-10.26,2.76-20.51,3.9-30.89a15.39,15.39,0,0,0-1.05-6.92,108.6,108.6,0,0,0-6.22-11.44c-.64-1.06-1.95-2.13-2.58-1.62a38.1,38.1,0,0,0-5.9,6.3,3.48,3.48,0,0,0,.26,4.28c1.94,2.69,3.75,5.67,5.57,8.6s2.44,6.73,2.13,11.39c-.42,6.5-.42,13.07-.6,19.74C506.26,355.69,506.9,356.12,507.81,359.85Zm-38.62-56.66.49.65c3.56-2.38,7.58-2.66,10.17-9.28,1.55-3.95,1.86-11.54.06-15-1.3-2.5-2.62-2.46-3.64.48-2,5.73-3.9,11.54-5.75,17.37C469.94,299.18,469.63,301.25,469.19,303.19ZM446.43,236.5l15.86-8.15-.08-.92c-4.08.83-8.18,1.41-12.21,2.61C448.56,230.47,447,231.84,446.43,236.5Z"/><path class="cls-17" d="M515.09,377.14c-.42-4.95,1.35-9.35,2.92-14-2.79-4.32-7.82-4.78-7.16-14.4l-.46.17a23.14,23.14,0,0,0-.34,2.34,65.45,65.45,0,0,1-2.8,17.13c-1.4,4.2-2.42,4.55-4.06,1.11-.52,2.07-.78,4.86-1.7,6.4-1.44,2.4-2.36-1.26-3.66-2.21a11.5,11.5,0,0,0,.6,6.6c1.14,3.72,2.43,7.3,3.53,11.06a122.23,122.23,0,0,1,3.43,13.11c1.13,6.41.22,12.72-1.06,18.77a2.1,2.1,0,0,1-.33.69c-.07.11-.19.12-.09.07.42-4.81,1.37-9.83,1.14-14.73a69.81,69.81,0,0,0-2.61-14.19c-1.28-4.84-3.17-9.18-4.5-14-.63-2.24-.58-5.07-.82-7.64,0-.39.1-.84,0-1.2-.77-4.28-1.57-8.55-2.4-13.07-3.18,2.56-6.62,2.94-10.09.1,1.68.26,3.38.89,5,.68s3.35-1.26,5-1.94q-.42-7.15-.79-13.22L488.2,342l.1-.78,5.12,2.1.17-.78-5.08-8.23.27-.53c1.9,2.59,3.81,5.16,5.68,7.82a5.85,5.85,0,0,1,.15,1.66q1.13,12.26,2.28,24.48a7.59,7.59,0,0,0,.69,2.23c.08-3.12.34-6.1,2.41-6.44.79-.13,1.64.7,2.69,1.21,0-1,.14-2.78.19-4.54.18-7.44.43-14.9.47-22.39a13.24,13.24,0,0,0-1.07-5.66,136.23,136.23,0,0,0-8.2-13.15c-2.33-3.2-5.07-2-6.32,2.57-1.36,5-2.41,10.31-3.35,15.6-.3,1.63.17,3.71.33,6.22-1.89-8-3.61-15.39-5.27-22.47l-8.92,4.12c1.17,8.42,2.48,17.16,3.56,26,.76,6.21,1.74,12.57,1.68,18.79A190,190,0,0,0,481,415.28c.47,2,.82,4,1.21,6.07a10.56,10.56,0,0,1-.05,1.32,11.66,11.66,0,0,1-.68-1.65c-3.8-16.52-6.64-33.31-6.39-51.51.09-6.39-1.16-12.91-1.85-19.36-.36-3.33-.81-6.64-1.26-9.95-.7-5.19-1.43-10.38-2.16-15.67-2.28.27-4.27.58-6.26.71-4.2.28-8.39.31-12.57.73a61.79,61.79,0,0,0-6.69,1.59c-4.74,1-9.45,2.66-14.18,2.81-6,.19-11.47,3.47-16.95,6.8l-2.35,1.44-.17-.82c1.16-.91,2.31-1.94,3.51-2.72,5.53-3.57,11.13-6.35,17.21-6.12,3.55.13,7.16-.87,10.68-2,3.82-1.26,7.57-2.48,11.55-2.35,5.13.18,10.27-.91,15.43-1.46a9.93,9.93,0,0,1,1.54-.16c5,.31,8.65-3.54,11.32-11.12a70.31,70.31,0,0,1,3.71-7.76c-2.22-5.16-2.07-5.89,2.49-12.14V291c-1.12.14-2.29-.07-3.34.5-3.14,1.72-5.07,6.3-7.27,10.27a6,6,0,0,1-2.4,2.47q-5.32,2.6-10.67,4.74a2.85,2.85,0,0,1-2.61-.23c-2.46-1.63-4.86-3.57-7.3-5.4L452,310.26l-.32-.2a19,19,0,0,1,.63-3.08c2.29-5.85,4.64-11.63,7-17.47.87-2.18,1.79-4.32,2.53-6.65a19.17,19.17,0,0,0,.12-10.13c-3.19,4-5.34,9.3-6.74,15.67a29,29,0,0,1,3.65-12.76c2.12-3.78,4.34-7.42,6.33-11.45,1.6-3.22,1.7-7.16.82-11.23-.47-2.16-1.1-2.56-2.27-1.63a30.45,30.45,0,0,0-10,13.93c-.15.4-.36.73-.7,1.43.68-4.3,3.1-9.64,5.72-12.26,2.36-2.37,4.84-4.37,7.29-6.48s2.85-3.16,2.75-7.64c-.09-4.31-1.53-8.67-3.29-9.68a1.86,1.86,0,0,0-1.7-.09,57.56,57.56,0,0,0-8.52,4c-6.13,3.91-12.38,4.58-18.76,4a46.1,46.1,0,0,0-10.15.55c-1.23.16-2.41,1.34-3.62,2.05l-.17-.91c1.7-1,3.37-2.43,5.12-2.88a25.6,25.6,0,0,1,6.6-.37c1.06,0,1.86-.38,2.72-1.8,1.8-3,3.82-5.58,5.78-8.26a37.43,37.43,0,0,0,5.47-12.77,15,15,0,0,0,.42-4.24c-.3.62-.57,1.29-.89,1.85-3.26,5.54-3,6.15-6.54,0-.29-.5-.53-1.08-.78-1.58-.16,0-.3-.14-.37,0-3.6,5-7.68,8.09-11.82,11-1.12.78-2,2.83-2.91,4.44-2.19,3.84-4.25,8-6.53,11.55a48.85,48.85,0,0,1-5.54,6.95c-4.35,4.7-7.69,11.07-10.06,19.2a221.67,221.67,0,0,1-17.77,43.67,1,1,0,0,1-1,.68,27,27,0,0,1,.89-2.63c2.66-5.53,5.61-10.67,8-16.64,3.33-8.38,6.46-17.14,9.27-26.23,3.14-10.11,7.84-16.71,13-22.77,2.67-3.12,5-7.18,7.53-10.84a4.66,4.66,0,0,0,.79-1.61c1-5.3,3.54-7.17,6.08-8.61,3.81-2.17,7.06-6.1,10.37-10a41.16,41.16,0,0,1,6.7-6.38c2.24-1.68,2.78-.16,2.66,4.26-.3,10.82-3.66,17.81-8,23.75a47,47,0,0,0-4.51,7.21c1.68.07,3.37.2,5.06.16.32,0,.76-.51.95-1,1.68-4.63,4.32-6.29,7.07-6.77a98.82,98.82,0,0,1,12.74-1c5.25-.22,7.53,9.14,6.11,17.06-.33,1.84-1.91,2.95-3,4.54a22,22,0,0,1-2.52,19.46,5.67,5.67,0,0,0-.71,4.8,17,17,0,0,1-.62,9.59c-1.72,4.37-3.63,8.49-5.44,12.73-.79,1.84-1.54,3.74-2.34,5.7a49.48,49.48,0,0,1,5.59,4.16c2.52,2.43,4.9.63,6.83.25,1.29-4.54,2.48-8.47,3.52-12.54.71-2.8,1.05-5.94,1.84-8.67a72.12,72.12,0,0,1,3.07-8.27c.73-1.72,1.55-1.42,2.25.4a22,22,0,0,0,1.46,3,17.43,17.43,0,0,1,1.88,8.52c0,1.33-.07,2.65-.12,4.34,1-1,1.79-1.88,2.65-2.62,1.68-1.44,3.35-2.18,5.11,0,.43.53,1.21.17,1.83.16,1.22,0,1.72,1.2,1.1,2.95a62.4,62.4,0,0,1-2.94,6.5c-2.73,5.64-5.51,11.15-8.15,16.86a7.88,7.88,0,0,0-.33,4c1.06,4.7,2.31,9.27,3.62,14.39.82-3.86,1.51-7.3,2.29-10.67,2-8.53,3.43-9.82,8.32-7.34,1.35-5.31,4.2-7.08,6.95-9.08.43-.31,1-.67,1.37-.42,2,1.33,2.71-1.08,3.48-3.41,1.85-5.61,4.76-6.81,8.08-6.12a3.11,3.11,0,0,1,1.68,1.56c4,7.24,5.86,16.22,6.18,26.15.08,2.55-.84,5.16-1.18,7.79-.79,6.11-1.45,12.26-2.25,18.34-.34,2.6-.89,5.11-1.39,8,.65,1.39,1.33,1.77,2.17-.28,2.53-6.21,5.3-12.09,6.88-19.49a158.5,158.5,0,0,1,4.41-15.44c1.65-5.13,4.38-7.88,7.55-9.36a17.48,17.48,0,0,0,1.89-.94c1.79-1.09,2.71-.23,2.38,3a56.87,56.87,0,0,1-2.12,10.26c-2.07,7-4.38,13.64-4.36,22a61.92,61.92,0,0,1-1.45,11.81c-1.19,6.09-2.93,11.84-3.94,18-.84,5.09-1,10.55-1.43,15.83-.28,3.27-.34,6.66-.89,9.76-.87,4.85-1.68,9.93-3.2,14.12a168.89,168.89,0,0,0-6.38,24.3c-1.08,5.33-2,10.75-3,16.11a1.38,1.38,0,0,1-.7,1.12c.12-1.38.17-2.81.37-4.15,2-13.46,4.7-26.49,9.2-38.16,2.23-5.8,2.86-12.43,3.45-19.16.79-9.05.85-18.39,2.93-27,.64-2.67,1.19-5.43,1.94-8a59.38,59.38,0,0,0,2.41-16.54c0-8.31,2.76-14.75,4.81-21.7a27.22,27.22,0,0,0,1.17-5.23c.27-3.4-.94-5.23-2.79-4.32-4,1.95-6.73,6.27-8.44,13-3,11.95-6.3,23.57-11.12,33.64C517.18,367.54,516.29,372.92,515.09,377.14ZM505,310l2.73,4.63c.11-.75.18-1.17.15-1,.89,2.11,1.72,4.47,2.77,6.47a19.81,19.81,0,0,1,2.22,10.79c-.38,5.75-1,11.45-1.31,17.2a24.66,24.66,0,0,0,.62,6.06c.25,1.18,1,2,1.84,3.55.08-8.35.32-8.81,4.29-9.24.34-2.49.68-5,1-7.55.39-2.94.84-5.86,1.17-8.82s.94-6,.69-8.75a66.13,66.13,0,0,0-4.29-19.44c-2.09-5-6.6-5.6-9-.95C506.82,305.05,506,307.56,505,310Zm2.86,53.46c.2-1.18.31-1.75.38-2.34,1.29-10.29,2.68-20.58,3.77-31a15.59,15.59,0,0,0-1.11-7,110.81,110.81,0,0,0-6.39-11.64c-.66-1.08-2-2.19-2.64-1.69a37.33,37.33,0,0,0-6,6.22c-.93,1.19-.78,2.83.3,4.32,2,2.74,3.84,5.77,5.71,8.76s2.52,6.82,2.24,11.51c-.39,6.53-.35,13.14-.49,19.85C506.23,359.21,506.88,359.66,507.83,363.43ZM468.21,305.6l.51.67c3.59-2.33,7.68-2.52,10.28-9.13,1.55-3.95,1.81-11.58,0-15.12-1.34-2.55-2.68-2.53-3.69.4-2,5.72-3.9,11.53-5.75,17.36C469,301.58,468.64,303.66,468.21,305.6ZM444.66,238l16.07-7.87-.08-.93c-4.15.76-8.31,1.26-12.4,2.38C446.78,232,445.18,233.34,444.66,238Z"/><path class="cls-17" d="M514.51,376.34c-.42-4.95,1.35-9.35,2.92-14-2.79-4.33-7.82-4.78-7.16-14.41l-.46.18a22.73,22.73,0,0,0-.34,2.34,65.45,65.45,0,0,1-2.8,17.13c-1.4,4.2-2.41,4.55-4.05,1.11-.52,2.07-.79,4.86-1.71,6.4-1.44,2.41-2.36-1.26-3.65-2.2-.65,2.48,0,4.59.59,6.59,1.14,3.72,2.44,7.3,3.53,11.06a121.82,121.82,0,0,1,3.44,13.12c1.13,6.4.22,12.71-1.07,18.76a2,2,0,0,1-.32.69c-.07.11-.19.12-.09.07.41-4.8,1.37-9.83,1.14-14.73a69.82,69.82,0,0,0-2.62-14.19c-1.27-4.84-3.16-9.17-4.5-14-.62-2.24-.58-5.07-.82-7.64,0-.38.11-.84,0-1.19-.77-4.28-1.56-8.55-2.4-13.08-3.18,2.57-6.62,2.94-10.08.11,1.68.26,3.38.89,5,.68s3.35-1.27,5-2c-.29-4.77-.55-9.16-.79-13.22l-5.73-2.74.09-.79,5.12,2.1.17-.77-5.08-8.23.27-.54c1.9,2.59,3.82,5.16,5.69,7.82a5.91,5.91,0,0,1,.14,1.66c.76,8.18,1.5,16.34,2.28,24.48a7.5,7.5,0,0,0,.69,2.23c.09-3.12.34-6.1,2.41-6.44.79-.13,1.64.7,2.69,1.21,0-1,.14-2.78.19-4.53.18-7.45.43-14.91.48-22.4a13.39,13.39,0,0,0-1.08-5.66,136.23,136.23,0,0,0-8.2-13.15c-2.33-3.2-5.06-2-6.32,2.58-1.36,5-2.4,10.3-3.35,15.59-.29,1.63.17,3.71.33,6.22-1.88-8-3.61-15.39-5.27-22.46L470,324.29c1.16,8.42,2.48,17.16,3.56,26,.76,6.22,1.74,12.57,1.68,18.8a189.85,189.85,0,0,0,5.18,45.41c.47,2,.82,4,1.21,6.08a12,12,0,0,1,0,1.32,12,12,0,0,1-.69-1.65c-3.8-16.52-6.64-33.31-6.39-51.51.09-6.39-1.16-12.91-1.85-19.36-.36-3.34-.82-6.64-1.26-9.95-.7-5.19-1.43-10.38-2.17-15.67-2.27.27-4.26.58-6.25.71-4.2.28-8.39.31-12.57.73-2.24.23-4.46,1.11-6.69,1.59-4.73,1-9.45,2.67-14.17,2.82-6,.19-11.47,3.47-16.95,6.8l-2.35,1.45-.17-.83c1.17-.91,2.31-1.94,3.51-2.72,5.53-3.58,11.13-6.35,17.2-6.12a30.92,30.92,0,0,0,10.68-2c3.82-1.26,7.58-2.48,11.55-2.34,5.13.17,10.27-.92,15.42-1.47a10.19,10.19,0,0,1,1.55-.16c5,.3,8.65-3.55,11.31-11.13a71.18,71.18,0,0,1,3.71-7.76c-2.22-5.15-2.07-5.89,2.49-12.13v-.94c-1.12.14-2.29-.07-3.34.5-3.13,1.72-5.07,6.31-7.26,10.27a6,6,0,0,1-2.41,2.48c-3.54,1.73-7.1,3.3-10.66,4.74a2.85,2.85,0,0,1-2.61-.23c-2.46-1.63-4.86-3.57-7.3-5.4l-2.4,6.91-.33-.2a19.25,19.25,0,0,1,.63-3.08c2.29-5.85,4.64-11.63,7-17.48.87-2.18,1.78-4.32,2.53-6.64a19.11,19.11,0,0,0,.11-10.14c-3.18,4.05-5.34,9.31-6.73,15.68a29,29,0,0,1,3.65-12.76c2.12-3.78,4.34-7.42,6.33-11.45,1.6-3.22,1.69-7.16.81-11.23-.47-2.16-1.1-2.56-2.27-1.63a30.53,30.53,0,0,0-10,13.93c-.15.4-.35.73-.69,1.43.68-4.3,3.09-9.64,5.72-12.26,2.36-2.37,4.83-4.38,7.28-6.49s2.85-3.15,2.75-7.63c-.09-4.31-1.53-8.67-3.29-9.69a1.9,1.9,0,0,0-1.69-.09,58.17,58.17,0,0,0-8.52,4c-6.14,3.91-12.38,4.58-18.76,4a45.5,45.5,0,0,0-10.15.56c-1.22.16-2.41,1.33-3.61,2.05l-.18-.91c1.7-1,3.37-2.43,5.12-2.88a26.06,26.06,0,0,1,6.6-.38c1.06,0,1.86-.38,2.72-1.8,1.8-3,3.81-5.58,5.78-8.26a37.63,37.63,0,0,0,5.47-12.77,15,15,0,0,0,.41-4.24c-.29.62-.56,1.29-.89,1.85-3.25,5.54-3,6.15-6.53,0-.29-.5-.54-1.08-.78-1.58-.16,0-.31-.13-.37,0-3.6,5-7.68,8.09-11.82,11-1.12.78-2,2.84-2.9,4.44-2.2,3.84-4.25,8-6.54,11.56a49.42,49.42,0,0,1-5.54,6.95c-4.34,4.7-7.68,11.07-10.05,19.2A221.41,221.41,0,0,1,385,306.16a1,1,0,0,1-1,.67,22.33,22.33,0,0,1,.89-2.62c2.66-5.53,5.6-10.68,8-16.65,3.33-8.37,6.46-17.14,9.27-26.23,3.13-10.11,7.84-16.71,13-22.77,2.67-3.12,5-7.18,7.53-10.85a4.44,4.44,0,0,0,.79-1.6c1-5.31,3.54-7.17,6.08-8.62,3.81-2.16,7.06-6.1,10.37-10a40.76,40.76,0,0,1,6.7-6.38c2.24-1.68,2.78-.16,2.66,4.26-.3,10.82-3.66,17.81-8,23.75a47,47,0,0,0-4.51,7.21c1.68.07,3.37.2,5,.16.33,0,.77-.51,1-1,1.68-4.63,4.32-6.29,7.06-6.77a98.83,98.83,0,0,1,12.75-1c5.25-.23,7.52,9.14,6.1,17-.33,1.85-1.91,3-3,4.55a21.94,21.94,0,0,1-2.52,19.45,5.7,5.7,0,0,0-.7,4.81,17,17,0,0,1-.62,9.58c-1.73,4.38-3.63,8.5-5.44,12.74-.79,1.84-1.54,3.74-2.34,5.7a50.4,50.4,0,0,1,5.59,4.16c2.51,2.43,4.9.63,6.83.25,1.28-4.54,2.48-8.47,3.52-12.54.71-2.8,1.05-5.94,1.83-8.67a72.6,72.6,0,0,1,3.07-8.27c.73-1.72,1.55-1.42,2.25.39a22,22,0,0,0,1.46,3,17.46,17.46,0,0,1,1.88,8.52c0,1.33-.07,2.66-.12,4.34,1-1,1.79-1.87,2.65-2.61,1.69-1.45,3.36-2.19,5.11,0,.43.53,1.21.17,1.83.16,1.22,0,1.72,1.2,1.1,2.95a62.58,62.58,0,0,1-2.94,6.51c-2.72,5.63-5.51,11.15-8.15,16.85a8,8,0,0,0-.33,4c1.06,4.71,2.31,9.27,3.62,14.39.83-3.85,1.52-7.29,2.29-10.67,2-8.53,3.43-9.81,8.32-7.33,1.35-5.32,4.2-7.09,6.95-9.09.43-.31,1-.67,1.36-.42,2,1.33,2.72-1.08,3.49-3.41,1.85-5.61,4.76-6.81,8.07-6.12a3.05,3.05,0,0,1,1.69,1.56c4,7.23,5.85,16.22,6.17,26.14.08,2.55-.84,5.17-1.17,7.8-.79,6.11-1.46,12.26-2.25,18.34-.34,2.6-.89,5.11-1.4,7.95.66,1.39,1.34,1.78,2.18-.28,2.53-6.2,5.29-12.08,6.88-19.49a158.28,158.28,0,0,1,4.4-15.43c1.65-5.14,4.38-7.89,7.55-9.36a19.65,19.65,0,0,0,1.89-.95c1.79-1.09,2.71-.23,2.38,3a56.87,56.87,0,0,1-2.12,10.26c-2.07,7-4.38,13.64-4.36,22a61.92,61.92,0,0,1-1.45,11.81c-1.19,6.09-2.92,11.85-3.93,18-.84,5.1-1,10.55-1.44,15.84-.27,3.26-.33,6.65-.89,9.76-.86,4.84-1.67,9.93-3.19,14.11a170.69,170.69,0,0,0-6.38,24.31c-1.08,5.33-2,10.75-3,16.11a1.4,1.4,0,0,1-.7,1.13c.12-1.39.16-2.81.37-4.16,2-13.46,4.7-26.49,9.19-38.16,2.23-5.8,2.86-12.43,3.45-19.16.79-9.05.85-18.39,2.93-27,.64-2.68,1.19-5.44,1.93-8a59.74,59.74,0,0,0,2.42-16.53c0-8.31,2.75-14.76,4.8-21.71a26.49,26.49,0,0,0,1.17-5.23c.27-3.4-.94-5.23-2.79-4.32-4,1.95-6.72,6.28-8.44,13-3,11.95-6.3,23.57-11.12,33.63C516.6,366.74,515.71,372.12,514.51,376.34Zm-10.12-67.17,2.73,4.63c.11-.75.17-1.17.15-1,.89,2.11,1.72,4.47,2.77,6.47a19.88,19.88,0,0,1,2.22,10.79c-.38,5.75-1,11.45-1.31,17.19a24.22,24.22,0,0,0,.62,6.07c.25,1.18,1,2,1.84,3.54.08-8.34.31-8.81,4.29-9.23.33-2.5.67-5,1-7.56.4-2.93.84-5.85,1.17-8.81s1-6,.7-8.75a65.81,65.81,0,0,0-4.3-19.44c-2.08-5-6.59-5.6-9-.95C506.24,304.24,505.38,306.76,504.39,309.17Zm2.86,53.46c.2-1.18.31-1.75.38-2.34,1.29-10.29,2.68-20.58,3.77-31a15.56,15.56,0,0,0-1.11-7,110.81,110.81,0,0,0-6.39-11.64c-.66-1.08-2-2.19-2.64-1.69a37.33,37.33,0,0,0-6,6.22c-.93,1.19-.78,2.83.3,4.32,2,2.74,3.84,5.78,5.71,8.76s2.52,6.82,2.24,11.51c-.39,6.53-.35,13.14-.49,19.85C505.65,358.41,506.3,358.86,507.25,362.63Zm-39.61-57.82.5.66c3.6-2.32,7.68-2.52,10.28-9.12,1.55-4,1.82-11.58,0-15.13-1.34-2.54-2.67-2.53-3.69.41-2,5.72-3.89,11.52-5.74,17.36C468.38,300.79,468.07,302.86,467.64,304.81Zm-23.55-67.58,16.06-7.87-.08-.93c-4.15.75-8.3,1.25-12.4,2.38C446.21,231.22,444.6,232.56,444.09,237.23Z"/><path class="cls-11" d="M514.55,347.83s3.3-2.58,3.8-1.28-1.92,16.9-1.92,16.9l-2.21.3S512.65,357.33,514.55,347.83Z"/><path class="cls-11" d="M498.79,364.8c.9-4.52,3.26-2.55,3.76-1.26s-1.87,16.76-1.87,16.76l-1.36.17-.46-.8s-.45.05-.53-1.33C498.13,375.13,497.93,369.12,498.79,364.8Z"/><path class="cls-11" d="M503.4,360.22c.91-4.54,3.27-2.56,3.77-1.27s-1.88,16.8-1.88,16.8l-1.37.18-.91-.19s0-.57-.09-1.94C502.73,370.58,502.53,364.55,503.4,360.22Z"/><path class="cls-11" d="M470.61,290.19l8.63-19.84-.61-2.12s-7.51,15.43-7.76,19.42S470.61,290.19,470.61,290.19Z"/><path class="cls-11" d="M538.49,332.12S543,317.23,542.28,314s-.46-4-.46-4l1.39,3.78s-1.42,13.56-3.8,18.39C538.8,333.46,538.49,332.12,538.49,332.12Z"/><path class="cls-10" d="M485.33,302.79s-2-3.39-1.18-5.43a23.18,23.18,0,0,1,10.08-11.81s-5.22,17-8.83,17.23Z"/><path class="cls-10" d="M440.48,208.24s2.43,5.26,4.18,4.81,9.14-12.71,8.84-15.2S442.6,200.68,440.48,208.24Z"/><polygon class="cls-10" points="550.1 228.94 519.84 252.87 543.29 260.29 517.22 267.31 541.68 271.27 521.77 278.69 566.96 289.51 533.58 278.79 550.72 270.97 533.63 266.09 550.73 261.79 529.52 252.27 550.1 228.94"/><path class="cls-11" d="M500.52,190.67c.4-1,.8-2,1.19-3-1.71-3.7-3.42-7.41-5.34-11.54l6.54-12.5c-.41-1.05-.83-2.1-1.25-3.16-2.68,3-5.23,7.58-8.08,8.67s-5.75-1.48-9.43-2.69l5.32-15.46c-.45-1.58-.89-3.15-1.34-4.72-4.23,17.68-12,14.15-19.12,14.39.06,1,.13,2,.19,3.07l6.75,4,.18,3.19-10.06,6c-1.13,8.3-2.05,15-3.35,24.56,6.57-5.33,10-27,17.87-9.18L473,212l2.18,3.32,9.62-16.6,6.86,6c.27-.8.54-1.61.8-2.41-1.4-3.8-2.81-7.61-4.48-12.12l4.58-6.69C495.67,186.3,498.1,188.48,500.52,190.67Zm-23.33-11.81c4-11.83,7.4-4.9,11.14-.83C484.34,190.63,480.94,183.32,477.19,178.86Z"/><path class="cls-6" d="M488.33,178c-4,12.61-7.39,5.29-11.14.83C481.18,167,484.59,174,488.33,178Z"/><path class="cls-10" d="M488.88,261.94c4.12-3.28,6.34-11.52,5.5-17.24-.92-6.21-4.8-10.29-8.51-8.95-4.59,1.65-7.55,10.33-7.88,21.81a32,32,0,0,1-1-5.61c0-7.83,2.08-13.81,5.73-17.71s7.05-2.19,10.1,2c4.57,6.24,3.94,21.41-1,27-2,2.3-3.36,1.44-5.13-1.69-1.85-1.12-4.87-1.44-5.27-3.53-.64-3.43,0-8.28.86-12s3-4.41,5.08-3.46c2.77,1.24,3.63,4.23,2.82,9.85C489.8,255.11,489.44,257.85,488.88,261.94Z"/><path class="cls-4" d="M487.32,254.45c-.82,2.33-2.25,3.33-3.19,2.24s-1.06-3.86-.24-6.19,2.25-3.34,3.2-2.25S488.14,252.12,487.32,254.45Z"/><path class="cls-18" d="M201.78,175.41c-2,30.85-46.83,70.93-87.8,70.83-34.06-.09-53.53-27.91-53.78-54.3-.06-6.32-.19-19.51,9.26-32.44,21.67-29.64,77.85-55.07,109.57-34.91C184.83,128.28,203.05,155.6,201.78,175.41Z"/><path class="cls-18" d="M192.45,139.21c17.68,25.39,2.49,78.92-34.49,98-30.45,15.71-64.46,2.15-80.37-18.82C73.8,213.4,66,203,66.53,188.56c1.34-33,34.81-78.63,74.48-78.1C148.33,110.55,181.23,123.09,192.45,139.21Z"/><path class="cls-10" d="M70.77,170.4c9.12-31.53,55.32-63.63,88.92-52.28,28.76,9.72,35.19,47,26,75.74-2.15,6.72-6.58,20.52-18.46,30.85-26.06,22.66-74.47,29.83-92.2,1.83C71.74,221.4,65.13,189.87,70.77,170.4Z"/><path class="cls-6" d="M217,185.7l-10.73,1.55c-8.45,1.22-15-4.53-14.54-12.8l.54-10.54c.43-8.38,7.77-16.37,16.34-17.72l10.9-1.7c8.67-1.36,15.34,4.52,14.77,13l-.71,10.69C233,176.61,225.55,184.46,217,185.7Z"/><path class="cls-6" d="M135.18,260.89l-10,1.24c-7.85,1-14.1-4.48-13.91-12.17l.24-9.78c.19-7.79,6.83-15.08,14.8-16.16l10.12-1.38c8.06-1.1,14.43,4.49,14.13,12.38l-.38,9.92C149.89,252.74,143.12,259.9,135.18,260.89Z"/><path class="cls-11" d="M260.83,201.84c-1.11,14.55-2.19,28.95-3.32,43.22-.48,6.08-.56,6.13-7,7-5.29.71-10.56,1.14-15.83,2-4.1.67-5.6-.48-5.21-4.51q1.23-12.72,1.72-25.5c.42-10.85-6.86-17.86-17.25-17.05a24.22,24.22,0,0,0-22.11,22.17q-1,12.69-1.29,25.15c-.09,3.82-1.48,5.53-5.59,5.85-5.5.43-11,1.17-16.51,2-3.58.55-5.21-.44-4.88-4.08s.34-7.19.5-10.8c1.06-24.45,2.31-49.36,3.1-74.63.17-5.41,2.18-8.78,6.71-12.46,12.85-10.42,25.62-21.35,38.46-32.55,3.81-3.32,6.42-3.71,9.89-1.63q19.05,11.44,38.6,22.31c3.25,1.81,3.88,4.46,3.56,8.22C263.05,171.83,262,186.91,260.83,201.84Zm-46.77-20c9.44-1.46,17.07-9.78,17.49-19.17.4-8.95-6.65-15-15.73-13.59s-17.19,10.51-17.44,19.45S205.07,183.27,214.06,181.89Z"/><path class="cls-4" d="M129.92,266.87c-7.69.94-15.34,1.79-23,2.86-3.29.46-5-.07-4.87-3.83.46-13.09.69-26.29.88-39.59,0-3,1.14-4.39,4.17-4.8q24.27-3.25,49-6.76c3.13-.44,4.18.75,4,3.77q-1,20.41-1.65,40.41c-.11,3.21-1.33,4.67-4.71,5-8,.85-16,1.92-23.94,2.9Zm-2.13-15.37c.2-6.75.12-6.82-7.1-5.83-6.7.91-6.7.91-6.89,7.61-.2,7-.2,7,6.8,6.06S127.59,258.46,127.79,251.5Zm19.45-2c.32-7.32.32-7.32-6.43-6.48-7.37.92-7.52,1.07-7.77,7.57-.28,7.15-.28,7.15,6.5,6.34C147,256.07,147,256.07,147.24,249.54Zm.68-18.56c.38-7.86.38-7.86-6.12-7.09-7.68.91-7.85,1.07-8.13,7.49-.32,7.45-.32,7.45,6.45,6.6C147.62,237,147.62,237,147.92,231Zm-19.54,1.45c.18-6.62.11-6.69-6-5.89-8,1-8,1-8.13,7.91s-.16,6.94,6.95,6S128.18,239.54,128.38,232.43Z"/><path class="cls-4" d="M293,246.85c-8.49,1.05-16.93,2-25.34,3.16-3.8.54-5.3-.44-4.95-4.21q1.86-20.45,3.26-41.23c.26-3.84,2-5.35,5.87-5.86q26.11-3.44,52.81-7.23c3.73-.53,5.12.5,4.73,4.11q-2.36,21.65-4.27,42.8c-.32,3.55-2.09,4.86-5.66,5.25C310.61,244.61,301.78,245.77,293,246.85Zm.59-36.15c.67-7.36.53-7.49-7.33-6.43-7.65,1-7.65,1-8.27,8-.69,7.65-.69,7.65,6.83,6.69C293,217.9,293,217.9,293.6,210.7Zm21.63-2.93c.72-7.44.61-7.54-7.39-6.44-7.71,1.06-7.73,1.07-8.41,8.76-.62,7-.62,7,6.93,6C314.51,215.1,314.51,215.1,315.23,207.77Zm-38.89,24.57c-.65,7.48-.65,7.48,6.67,6.61,8.13-.95,8.13-.95,8.79-7.85.71-7.57.61-7.68-6.79-6.77C277,225.32,277,225.39,276.34,232.34Zm37-4.52c.67-7.18.55-7.27-7.6-6.17-7.47,1-7.47,1-8.1,8.15-.66,7.39-.66,7.39,7.1,6.42S312.63,235.23,313.33,227.82Z"/><path class="cls-17" d="M208.89,269.32q-53.17,6.33-104.09,12.39-2.83.35-5.66.61c-2.23.2-3.42-.71-3.47-3s1.19-3.51,3.45-3.85c1.26-.19,2.52-.35,3.78-.5q105.39-12.79,220.61-26.71c2.93-.36,7.71-2.53,7.17,2.66-.58,5.52-5.29,4.43-8.44,4.81Q264.25,262.81,208.89,269.32Z"/><path class="cls-17" d="M252.87,79c-.81,11.39-1.21,11.85-12.76,12.82-4.77.41-9.46.42-14.19.68-3.23.18-4.79,1.83-5.18,5.28-.54,4.85,0,8.38,4.31,10.72,16.38,8.85,32.45,18.22,48.67,27.44a17.51,17.51,0,0,1,3.19,2.12c1.4,1.28,1.5,3.12.17,5.08a4.66,4.66,0,0,1-5.26,2.15,31.79,31.79,0,0,1-6.52-2.87c-13.15-7.53-26.22-15.14-39.3-22.69-8.2-4.74-8.37-4.5-17.13,3-14.88,12.78-29.72,25.11-44.25,37.36-.76.64-1.56,1.22-2.28,1.9-2,1.83-4,2.1-5.41.56-1.6-1.74-1.14-4.05.93-6.09s4-3.8,6-5.57c15.35-13,30.88-26.33,46.92-39.54,4.61-3.79,6.66-7.46,6.62-12.79,0-6.59.8-13.43,1.05-20.16.15-4.09,2.3-6,6-6.82,4.18-1,8.08-.44,12.09-.48,3.81,0,7.63.1,11.54-1.19,4.2-1.38,5.95-.51,5.12,3.94A44.47,44.47,0,0,0,252.87,79Z"/><path class="cls-17" d="M128.26,213.3c-8.9,1.24-17.75,2.58-26.54,3.67-4.92.6-5.32-.28-2.51-4.81,3.78-6.07,7.73-12.09,11.53-18.25,1.48-2.4,3.21-3.82,5.93-4.21q19.35-2.73,39-5.76c3.88-.6,5.75.43,5.37,4.59-.42,4.66-.38,9.26-.63,13.87-.32,6.17-.49,6.4-6.53,7.3C145.32,211,136.76,212.12,128.26,213.3Z"/><path class="cls-17" d="M301.47,189.11c-9.64,1.34-19.21,2.57-28.74,4.07-3.86.6-5.6-.26-5.12-4.24.65-5.48,1-11,1.31-16.43.18-3.63,1.47-5.61,5.71-6.18,14.19-1.91,28.52-4.08,43-6.29,3.59-.55,5.85.5,7.49,3.05,3.42,5.31,7.14,10.4,10.58,15.68,2.31,3.56,1.54,5.06-3.49,5.88-10.31,1.69-20.53,2.94-30.71,4.37Z"/><path class="cls-17" d="M217.22,162.43c0,2.32-.26,5.07-3.09,7.26-1.77,1.36-3.22,3.21-5.4,3.89-.23-2.66,2.44-3.25,3.91-4.54,2.92-2.55,3.22-5.41,3.42-8.43a16.79,16.79,0,0,1,.64-2.68c1.29.43.48,1.76.62,2.68A11.49,11.49,0,0,1,217.22,162.43Z"/><path class="cls-6" d="M323.7,146.53c-19.89,15.82-55.73,15-65.6-6.44-8.44-18.34,5.12-45,22.61-60.3,4.2-3.67,12.94-11.31,23.75-13.36,24.48-4.63,53,12.29,46.63,40.48C350,112,336.46,136.39,323.7,146.53Z"/><path class="cls-10" d="M302.23,91.11a8.2,8.2,0,0,0-1.6.42,193.83,193.83,0,0,0-17.77,9.3c-1.43.87-1.72,1.6-1.2,2.88,1.14,2.8,2.12,5.68,3,8.59.4,1.28,1,1.4,2.4.62a52.09,52.09,0,0,1,10.82-4.48,10.77,10.77,0,0,1,5.28-.3c.63.13,1.56.15,1.36,1.09s-1.07,1.17-1.82,1.3c-4.2.71-8.09,2.8-11.94,5-4.21,2.44-4.15,2.44-3.1,6.31,1.46,5.36,2.93,10.7,4.18,16.12.53,2.28-.37,3.49-2.58,4.37-2.63,1-4.45.45-4.93-1.7a245.48,245.48,0,0,0-7.59-27c-.31-.9-.64-1.79-.92-2.7-.43-1.4-.8-2.56-3-2a3,3,0,0,1-3.67-1.92c-.55-1.43.68-2.64,1.6-3.84a14,14,0,0,0,2-2.84,4.06,4.06,0,0,1,1.85-1.81c8.22-4.57,16.46-9.3,25.07-13.1a10.76,10.76,0,0,1,3.62-1.12c2.07-.12,3.86,1.41,3.56,3S304.2,90.9,302.23,91.11Z"/><path class="cls-10" d="M333.68,93.77a4.4,4.4,0,0,1,3.5.48,2.17,2.17,0,0,1,1.12,2.49c-.35,1.31-1.53,1.51-2.53,1.88a80.73,80.73,0,0,0-17.35,8.75c-1.76,1.19-3.31,1.3-4.71.48-2.23-1.31-2-3,.73-4.76a87.8,87.8,0,0,1,18-8.94C333,94,333.51,93.82,333.68,93.77Z"/><path class="cls-19" d="M344.31,77.65c10.39,15.34-4.17,53.08-31.58,69.83-22.74,13.9-45.72,8-55.24-4.79-2.26-3-7-9.35-5.31-19.32,3.73-22.62,31-56.63,58.59-60.06C315.85,62.68,337.73,67.93,344.31,77.65Z"/><path class="cls-19" d="M324.78,64.64c20.94,4.6,31.23,36,13.89,60.37-14.4,20.22-42.14,27.44-60.33,23.57-4.29-.91-13.16-2.8-17.9-10.08-10.66-16.38-4.83-51,20.79-66.52C286,69.12,311.64,61.75,324.78,64.64Z"/><path class="cls-19" d="M256.91,125.5C251.2,106.15,270.13,72,297,63.93c23.19-7,42.39,8.42,47.73,26.36,1.26,4.23,3.86,13-.14,23.1-8.84,22.4-39.71,46.2-63.14,39C277.2,151,260.49,137.61,256.91,125.5Z"/><polyline class="cls-20" points="128.72 177.5 140.76 177.76 138.05 162.75"/><polyline class="cls-20" points="81.41 138.84 99.38 163.32 111.78 154.36 122.01 172.4 127.31 166.83 139.88 177.21 126.99 162.27 122.08 169.38 111.48 156.16 102.42 161.31 80.27 129.91"/></g></g></svg>