<svg xmlns="http://www.w3.org/2000/svg" viewBox="0 0 595.42 606.67"><defs><style>.cls-1{fill:#f2c22a;}.cls-2{fill:#8fb38e;}.cls-3{fill:#b286b0;}.cls-4{fill:#7dc7ae;}.cls-12,.cls-13,.cls-14,.cls-15,.cls-16,.cls-18,.cls-19,.cls-20,.cls-5,.cls-8,.cls-9{fill:none;stroke-miterlimit:10;}.cls-12,.cls-16,.cls-5{stroke:#7dc7ae;}.cls-5{stroke-width:1.54px;}.cls-6,.cls-7{fill:#fff;}.cls-7{opacity:0.18;}.cls-8,.cls-9{stroke:#f9b3af;}.cls-8{stroke-width:3.58px;}.cls-9{stroke-width:2.39px;}.cls-10{fill:#a682ae;}.cls-11{fill:#69acc7;}.cls-12,.cls-14{stroke-width:1.92px;}.cls-13,.cls-18,.cls-19{stroke:#a682ae;}.cls-13{stroke-width:1.72px;}.cls-14,.cls-15{stroke:#69acc7;}.cls-15{stroke-width:1.5px;}.cls-16{stroke-width:1.1px;}.cls-17{fill:#ffb23c;}.cls-18{stroke-width:2.28px;}.cls-19{stroke-width:1.66px;}.cls-20{stroke:#fff;stroke-width:1.83px;}</style></defs><g id="Layer_2" data-name="Layer 2"><g id="Layer_1-2" data-name="Layer 1"><polygon class="cls-1" points="76.47 50.65 433.26 0 364.64 309.66 0 355.34 76.47 50.65"/><polygon class="cls-2" points="0 355.34 165.55 606.67 523.36 556.27 364.64 309.66 0 355.34"/><polygon class="cls-3" points="433.26 0 595.42 252.33 523.36 556.27 364.64 309.66 433.26 0"/><path class="cls-4" d="M199.58,560.31c31.65-23.66,122.6-73.14,171.11-90.72,41.91-15.19,34.13-.06,4.56,22a415.12,415.12,0,0,1-46.38,30.15c-55.28,31.42-139.57,70.31-153.22,67C173.16,588.15,179.8,575.09,199.58,560.31Z"/><path class="cls-5" d="M402,463.34c-5.57-8.67-78.79,21.89-140.25,56.36-65.36,36.65-104.2,70.28-83.66,70.2,15.93-.07,65.58-20.28,118.22-49.29C354.11,508.77,407,471.09,402,463.34Z"/><path class="cls-5" d="M198.83,557.79c31.4-24.43,122.29-74,171.09-90.63,42.16-14.37,34.78,2,5.44,24.78a370,370,0,0,1-46.18,30.77C274,554.36,189.45,592.55,175.43,588,172.89,587.21,179.2,573.06,198.83,557.79Z"/><path class="cls-5" d="M324.45,487c56.18-26,100.87-33,69.23-4.91-26.59,23.56-95.76,61.71-145.17,84.34-11.56,5.3-35.36,16.2-51,20.34-34.76,9.2-36-7.08,20.76-42.93C228.72,537.24,289.63,503.14,324.45,487Z"/><path class="cls-6" d="M294.6,515.23l-24.31,13c-5,2.67-10.14,1.36-11.45-2.91l-5.5-17.95c-1.3-4.25,1.69-9.93,6.66-12.63l24.18-13.16c5-2.74,10.22-1.48,11.55,2.8l5.62,18.05C302.69,506.78,299.65,512.52,294.6,515.23Z"/><path class="cls-7" d="M283.21,511.86c-4,.86-7.74,2.85-11.62,5.21,2.64-5.37,4.36-10.76,7.27-16.27-7.22.49-15.83,4.37-23.52,6.19-.59.06-1-.25-.73-.39,11.66-10.78,23.65-20.7,34.93-32.1-8.76,1.63-17.08,4.6-25.83,7-3.68,1-7.34,3-10.83,2.52,1.75-2.26,4-4,5.71-6.25,4.4-5.55,9.16-10,12.25-15.86-13,3.49-25.67,7.86-38.35,11,11.06-12.33,23.63-22.93,34.06-35.73-14.67,4-28.49,11.4-43.43,16.86-.84.21-2.26.48-1.62-.39,7.8-13.9,20.21-25.75,25.85-40-10.63,4.93-20.68,11.6-31.15,16.71a4.37,4.37,0,0,1,1-2.62c8.56-14.34,15-28.79,18.33-43.55l.51-2-5.11-.32-54.77,95.24,29.54,85.86,69.63-38.78A135.3,135.3,0,0,0,283.56,513C283.75,512.62,283.21,511.86,283.21,511.86Z"/><path class="cls-7" d="M337.42,378.05l-88.48-5.3-.51,2c-3.34,14.8-9.81,29.29-18.4,43.68a4.38,4.38,0,0,0-1,2.63c10.53-5.14,20.62-11.85,31.3-16.82-5.65,14.33-18.12,26.23-26,40.18-.64.87.79.59,1.63.38,15-5.5,28.91-13,43.65-17-10.47,12.86-23.11,23.5-34.22,35.88,12.75-3.13,25.48-7.53,38.55-11.07-3.1,5.9-7.88,10.36-12.31,15.93-1.76,2.27-4,4-5.73,6.27,3.51.44,7.18-1.58,10.88-2.55,8.8-2.45,17.16-5.44,26-7.09-11.34,11.44-23.38,21.41-35.1,32.23-.26.15.14.45.73.39,7.73-1.83,16.38-5.74,23.65-6.25-2.93,5.53-4.65,10.94-7.31,16.32,3.9-2.37,7.61-4.37,11.68-5.24,0,0,.55.76.35,1.13A132.51,132.51,0,0,1,288.51,515l78.66-43.84Z"/><polygon class="cls-8" points="201.61 566.17 170.93 478.28 236.15 375.39 342.03 375.62 372.67 471.31 201.61 566.17"/><polygon class="cls-9" points="206.46 563.57 175.21 473.19 235.54 371.28 336.82 375.55 368.18 473.64 206.46 563.57"/><path class="cls-6" d="M334.57,409.53c4.76,5.81,9.16,11.38,13.78,16.77,4.07,4.76,8.18,9.53,13.37,13.27,1.39,1,1,2.27-.1,3.8a20.76,20.76,0,0,1-5.29,5c-1.76,1.21-1.84,2.16-1.31,3.31a197.09,197.09,0,0,1,8.58,23.46,26.35,26.35,0,0,1,1.15,7.62,2.68,2.68,0,0,1-1.17,2.7,2,2,0,0,1-2.54-.44c-3.44-2.75-5.69-6.51-7.93-10.23-3.08-5.13-6.47-10-9.67-15.05-.92-1.45-1.94-1.74-4-.42-1.69,1.09-3.5,1.94-5.26,2.88-4,2.12-4.07,2.14-3.83,5.95.46,7.4,1.1,14.75,1.56,22.17a39.73,39.73,0,0,1-.3,10.29c-.2,1.05-.34,2.23-1.66,2.8s-1.7-.31-2.19-1a18.85,18.85,0,0,1-3-5.77c-2.58-8.36-5.17-16.7-7.15-25.33-.3-1.34-.73-1.83-2.35-1.18a11.16,11.16,0,0,1-2.67.56c-3.3.4-3.87-.33-3.34-3.62,2.27-14.28,2.23-28,2.35-41.69,0-1.11-.32-2-1.42-2-1.28,0-2,1.24-2.51,2.23-2.34,4.27-3.64,8.65-5.3,13a72.64,72.64,0,0,1-4.34,10.1c-.63,1.1-1.32,2.32-2.69,2.49-1.19.14-1.55-.77-1.84-1.66-2.12-6.41-.79-13.66,1.74-21.12,3.73-11,10.52-20.53,21.76-26.91,11.65-6.61,21.86-6.35,30.79-2,5.62,2.71,10.25,6.5,12.56,12.44.44,1.14,1,2.47-.36,3.84s-2.81.81-4,.52c-5.89-1.42-10.7-4.47-16.25-6.36A9,9,0,0,0,334.57,409.53Z"/><path class="cls-6" d="M199.8,552.07c-3.73-15.53-6.81-30.15-7.9-45.62-.33-4.72.11-9.72-.71-14.26a7.7,7.7,0,0,0-.55-1.95c-.78-1.64-2.07-1.44-3.33.57a41.55,41.55,0,0,0-3.51,7.79c-1.74,4.56-3.41,9.13-5.28,13.68-.66,1.61-1.45,3.79-3.44,4.15s-2.21-1.65-2.42-3.12c-1.29-9.16.87-18.73,6.36-28.44,10.52-18.62,31.25-27.31,47.14-18.75a25,25,0,0,1,10.75,10.32c.87,1.64,2.47,3.55.43,5.72s-4.06.67-5.71,0c-4.1-1.64-8-3.54-12-5.27a36,36,0,0,0-4.08-1.33,2.47,2.47,0,0,0-2.66.53,2.35,2.35,0,0,0-.5,2.84,23.3,23.3,0,0,0,2.6,5c7.22,9.54,12.36,20.6,17,32,3.64,9,7.31,18,9.24,28a17.23,17.23,0,0,1,.43,4c0,1.07.37,2.43-1.1,3.34s-2.19-.14-2.91-.8a28.91,28.91,0,0,1-5.38-7.11,165.85,165.85,0,0,0-14.15-21.65,11.64,11.64,0,0,0-4.09-3.47c-1.91-.88-3-.29-3.94,2.11a19.65,19.65,0,0,0-1.15,6.05c-.58,8.95.1,17.49.89,26a58.28,58.28,0,0,1,0,12.67c-.14,1.19-.06,2.78-1.63,3.5S206,568,205.43,567C202.63,562.16,201,556.63,199.8,552.07Z"/><path class="cls-10" d="M268.79,528a219.38,219.38,0,0,1-3.87-27.88,55.09,55.09,0,0,0-1.66-10.48c-.51-1.92-1.66-2.7-3.88-2.64-5.46.15-11,.47-16.08-.39a9.16,9.16,0,0,1-3.88-1.3,1.59,1.59,0,0,1-.68-2.22c.59-1.21,1.58-.91,2.32-1a54.29,54.29,0,0,0,17.34-3.52c12.08-4.92,23.55-11.23,32.77-22.2.76-.9,1.59-2.56,2.78-2.26s.57,2,.21,3.13a40.16,40.16,0,0,1-12.37,18.37c-1.89,1.66-2.31,2.86-1.72,4.55,1.62,4.7,4.64,8.39,7.16,12.44,3.95,6.35,6.95,13.33,10,20.27a17.68,17.68,0,0,1,1.32,6.46,2.48,2.48,0,0,1-1,2.43,1.78,1.78,0,0,1-2.31-.24,28.45,28.45,0,0,1-6.39-7.22,24.81,24.81,0,0,0-6.44-6.87c-2.82-1.88-4.59-.88-5.77,3-1.65,5.4-.87,10.24-1.12,15.31a29.07,29.07,0,0,1-.75,6.84,2.73,2.73,0,0,1-1.62,2.2c-.91.32-1.37-.23-1.8-.74C270.06,532.48,269.72,530.34,268.79,528Z"/><path class="cls-6" d="M186.23,456.72c-2-6.62,2.5-15.35,10.12-19.64,7.83-4.42,15.72-2.62,17.75,4.06s-2.73,15.66-10.5,19.95S188.23,463.36,186.23,456.72Z"/><path class="cls-6" d="M301.9,379.66c8-4.46,15.85-2.66,17.94,4.14s-2.63,15.56-10.59,20-16,2.53-18-4.08C289.14,392.84,293.71,384.22,301.9,379.66Z"/><path class="cls-10" d="M254.81,468.27c-1.56-5,1.63-11.24,7.45-14.47s11.8-1.94,13.32,3.05-2,11.46-7.71,14.63S256.32,473.16,254.81,468.27Z"/><path class="cls-11" d="M202.48,459.28c-4,2.24-8.28,2.28-10.82.7a4.91,4.91,0,0,1-2.63-4c-.46-5.49,4.54-14.57,11-17.35,1.28-.54,6.94-1.16,9.27.38h0c1.59,1.05,2.36,3.37,2.11,6.35a18.51,18.51,0,0,1-5.23,11A16.61,16.61,0,0,1,202.48,459.28Zm-3.29-18.9C194,443.31,190,451,190.33,455.53a4.13,4.13,0,0,0,2.25,3.28c3,1.85,8.59,1.18,12.85-3.15a16.69,16.69,0,0,0,4.7-9.93c.22-2.59-.43-4.64-1.74-5.51h0c-2-1.31-7.23-.75-8.17-.35A10.94,10.94,0,0,0,199.19,440.38Z"/><path class="cls-11" d="M203.33,456.58a17.77,17.77,0,0,1-6.14,2.16c-1.17.16-3.6.49-5.34-.77-2.15-1.54-3.27-4.74-2.86-8.16a13.17,13.17,0,0,1,4.06-7.93c1-1,6.83-4.47,10.33-4.89a7.28,7.28,0,0,1,7,3.26,8.92,8.92,0,0,1,.57,8.39A17,17,0,0,1,203.33,456.58ZM196.4,441a17.29,17.29,0,0,0-2.61,1.69,11.44,11.44,0,0,0-3.5,6.87c-.36,3.07.63,5.93,2.52,7.29,1.45,1,3.59.75,4.62.61,4.49-.6,10.31-4.11,12.26-8.92a7.77,7.77,0,0,0-.54-7.33,6.36,6.36,0,0,0-6-2.9h0A22.22,22.22,0,0,0,196.4,441Z"/><path class="cls-11" d="M192.29,455.81c-2.33-3.28.07-11,5.53-14.29,4.65-2.82,9.66-1.33,11.86,1.56a5.56,5.56,0,0,1,1.33,4.24c-.59,4.8-6,11.56-11.69,11.87C198.29,459.25,193.76,457.88,192.29,455.81Z"/><path class="cls-12" d="M315.69,393.61c-2.82,4.68-11.83,8.28-17,5.67-4.38-2.21-4.28-8-1.85-12.22A11.46,11.46,0,0,1,301,382.6c5.3-3.08,14.16-3.19,16.23,1.86C317.56,385.38,317.46,390.66,315.69,393.61Z"/><path class="cls-12" d="M314.53,391.44c0,5-6.29,12.35-12.49,13.08-5.25.62-8.35-3.77-8.44-8.19a9.45,9.45,0,0,1,1.35-5.47c3.16-5.05,11.23-9.73,15.91-7C311.71,384.32,314.53,388.31,314.53,391.44Z"/><path class="cls-4" d="M299.6,385.33c4.07-4.51,12.61-6.34,15.66-2.19,2.6,3.53.2,10-3.42,14.08a14,14,0,0,1-5,3.93c-5.41,2.11-12.4,0-12-6.07A26.17,26.17,0,0,1,299.6,385.33Z"/><path class="cls-13" d="M338.73,325.66c6.47,3,6.15,17.35-2.74,27.48-7.52,8.57-18.14,10.68-24,8.09-1.39-.62-4.26-1.88-5-5.46-1.53-8,5.16-23.39,16-29C325,325.73,334.66,323.76,338.73,325.66Z"/><path class="cls-13" d="M328.93,324.87c9.15-2,17.94,6,14.48,16.57-2.93,9-13.49,16.16-21.74,18.07-1.95.45-6,1.39-9-.19-6.81-3.54-9.09-15.77-.54-25C313.67,332.65,323.17,326.13,328.93,324.87Z"/><path class="cls-13" d="M309.32,355.65c-5.08-5.33-1.81-19.45,8.17-26.44,8.49-5.94,18.48-4.37,23.26.29a9.45,9.45,0,0,1,3.36,7.25c-.29,8.64-9.61,21.75-20.57,23.46C321.54,360.53,312.53,359,309.32,355.65Z"/><path class="cls-14" d="M290.34,341.46c-1.92,3.21-8,5.73-11.56,4-3-1.47-2.91-5.42-1.25-8.32a7.92,7.92,0,0,1,2.81-3.07c3.6-2.14,9.63-2.27,11,1.15A10.76,10.76,0,0,1,290.34,341.46Z"/><path class="cls-14" d="M289.56,340c0,3.39-4.28,8.47-8.5,9-3.57.46-5.68-2.51-5.74-5.52a6.51,6.51,0,0,1,.92-3.74c2.16-3.47,7.65-6.72,10.83-4.92A8.38,8.38,0,0,1,289.56,340Z"/><path class="cls-14" d="M280.5,336c2.78-3.1,8.58-4.42,10.66-1.61,1.76,2.39.12,6.79-2.34,9.62a9.48,9.48,0,0,1-3.44,2.72c-3.67,1.48-8.43.12-8.16-4A18.2,18.2,0,0,1,280.5,336Z"/><path class="cls-12" d="M176.09,446.38c.7,2.41-2.37,7.35-6.32,9-3.34,1.44-6,0-6.67-2.15a3.9,3.9,0,0,1,.12-2.95c1.35-3.14,6-7.15,9.41-6.84C173.25,443.53,175.65,444.86,176.09,446.38Z"/><path class="cls-12" d="M174.13,442.72c2.31,1.21,2.44,5.84-.49,8.82a7.57,7.57,0,0,1-8.27,1.81,3.06,3.06,0,0,1-1.83-1.94c-.68-2.66,1.41-7.44,5.12-8.89C169.34,442.26,172.68,442,174.13,442.72Z"/><path class="cls-12" d="M163.61,449.43c.06-2.93,3.71-7.22,7.24-7.58,3-.31,4.74,2.33,4.74,5a5.68,5.68,0,0,1-.82,3.24c-1.87,3-6.53,5.61-9.16,3.94A7.58,7.58,0,0,1,163.61,449.43Z"/><path class="cls-15" d="M273.11,178.07c-12.09,16.13-60,13.8-91.87-9.79-27.25-20.17-32.35-48.08-22.4-63.44,2.37-3.65,7.3-11.26,19.72-12.8,27.95-3.46,79.36,15.89,95.52,45.21C277,142.56,280.8,167.81,273.11,178.07Z"/><path class="cls-15" d="M278.77,152.86c4.05,23.84-25.48,45.33-60,35.48-29.33-8.36-51.2-36.09-56-57.72-1.14-5.16-3.52-15.89,2.48-23.84,13.55-18,56.35-23.1,85.93.77C256.53,111.87,276.18,137.68,278.77,152.86Z"/><path class="cls-11" d="M279.52,159c-1.79,20.15-40.3,32.33-76.19,18-30.54-12.18-47.57-38.85-47.12-57.39.1-4.42.33-13.6,9.16-19,19.92-12.11,68.94-8.38,95.47,16.44C265.65,121.56,280.65,146.13,279.52,159Z"/><path class="cls-15" d="M160.41,129.76c-5-24.22,24-47.07,59.39-37.2,30,8.36,52.05,36.79,56.5,58.58,1.05,5.13,3.21,15.72-2.91,23.52-13.63,17.35-55.33,22.28-84.45-.44C183.6,170.06,163.55,144.91,160.41,129.76Z"/><path class="cls-16" d="M162.62,239.19c-36.48-6.43-81-47.16-76.89-79.53,3.57-27.92,41.79-38.36,75.55-33,8,1.27,24.6,3.9,39.25,14.25,32.65,23.07,53.12,70.32,24.63,90.1C220,234.57,185.67,243.26,162.62,239.19Z"/><path class="cls-16" d="M129.41,234.71c-29.94-19.92-42.57-69.81-14.73-93,24-20,67.83-11.82,95.64,6.44,6.56,4.31,20.14,13.22,26.25,27.16,13.56,30.93-1.67,75-42.44,78.57C186.73,254.51,148.2,247.22,129.41,234.71Z"/><path class="cls-16" d="M162.49,242.24c-36.45-6.44-81-47.1-76.83-79.42,3.57-27.87,41.75-38.29,75.48-32.95,8,1.27,24.59,3.89,39.22,14.23,32.63,23,53.07,70.22,24.61,90C219.83,237.63,185.52,246.3,162.49,242.24Z"/><path class="cls-4" d="M224.18,241.63c-21.37,19-82,12.1-114.54-19.9-27.95-27.48-24.7-62.92-6.41-81.4,4.37-4.41,13.46-13.6,30.1-14.49,37.44-2,96.9,26.77,107,65C242.16,197.69,237.8,229.51,224.18,241.63Z"/><path class="cls-6" d="M188,205.52l1.1,0c2.18-4.51,6.6-8,4.26-14.51-1.39-3.88-7.15-9.12-12-9.91-3.52-.57-5,.55-3.81,3.32,2.31,5.41,4.79,10.8,7.35,16.17A48.79,48.79,0,0,0,188,205.52Z"/><path class="cls-6" d="M238.73,177.93c2.67.65,5.47,1.51,8.23,2A19.7,19.7,0,0,1,258,185.14c4.14,4.1,8,8.35,12.19,12.39a21.17,21.17,0,0,0,5.5,3.47c1.22.57,2.75.49,4.87.81-6.53-5.55-6.63-6.05-2.52-9.62l-4.86-5.81c-1.89-2.26-3.71-4.54-5.69-6.76s-3.67-4.71-6.16-6.33a66.28,66.28,0,0,0-20.25-9.22c-6.28-1.54-11.83,1.79-10.79,6.8a66.11,66.11,0,0,0,2.32,7.07l6.74.78C238.89,178.14,238.63,177.81,238.73,177.93Z"/><path class="cls-6" d="M119.71,162.14l-.83-.55c-4,3.93-8.31,7.7-12,11.84-1.31,1.47-2,3.68,1.08,7.18C112.07,174.15,115.88,168.15,119.71,162.14Z"/><path class="cls-6" d="M231,192c4.39.16,8.89.61,13.36,1A18.53,18.53,0,0,1,256,198.75c4.74,4.62,10,8.93,15.21,13.46,1.93-3,3-3.19,7.07-1.51-.72-.93-1-1.4-1.43-1.85-6.73-7.83-13.34-15.74-20.39-23.5a14.64,14.64,0,0,0-6.79-3.67,156,156,0,0,0-16.4-2.35c-1.59-.17-4,.22-4.3,1.08a32.42,32.42,0,0,0-1.73,9C227.13,191,228.6,191.93,231,192Z"/><path class="cls-6" d="M341.29,233.26c-2.1-5.66-6.66-10.54-11.34-15.45-6.3-6.6-13.65-12.79-18.19-20.19-1.41-2.3-3-4.57-4.21-6.88a41.57,41.57,0,0,0-10.41-12.87c-6.6-5.46-8.63-12-11.86-18.25a17.53,17.53,0,0,0-2.83-4.4c-2.4-2.46-5.21-2.66-6.56-.53-2.9,4.57-2.55,9.69.87,15.54,6.08,10.37,11.66,20.71,14.25,31.31,1,4.12,4.27,8.4,6.28,12.16-4.41-2.9-5.91-7.26-7.85-11.62-6.55-.53-12.55,3.34-19.46-3.53l-.36.49a15.73,15.73,0,0,0,1.46,1.82c4.46,4.24,8.23,8.63,10.47,13.58,1.77,3.92.91,5-3.66,4.09,1.07,1.79,3,3.84,3.17,5.62.3,2.77-3.64,1.12-5.84,1.58,1.25,2.16,3.62,3,5.9,3.84,4.23,1.5,8.53,2.78,12.74,4.34a132.39,132.39,0,0,1,14.26,5.77c6.35,3.28,10.34,8.18,13.7,13.22a1.35,1.35,0,0,1,.18.72c0,.14-.12.24-.05.12-3.34-3.5-6.26-7.59-10.41-10.62s-9.28-5.17-14.2-7.16c-5.26-2.13-10.82-3.41-16.13-5.46-2.48-1-4.68-2.85-7-4.34-.35-.23-.56-.64-.91-.82-4.26-2.17-8.54-4.32-13.07-6.6-1.53,4.31-5.08,7.41-11.21,8.42,2.09-1.22,4.49-2.22,6.18-3.73s2.75-3.61,4.07-5.43l-11.38-8-8.6,2.94-.51-.6,7.4-2.86c-.15-.21-.29-.43-.43-.65l-12.22-1.2-.12-.57c4.19.13,8.37.23,12.57.43.41,0,1,.64,1.49,1q11,7.11,22,14.2a8.29,8.29,0,0,0,2.54.89c-2.37-2.12-4.45-4.29-2.41-6.23.79-.74,2.39-.89,4-1.43-.77-.71-2.05-1.94-3.4-3.13-5.7-5-11.34-10.17-17.24-15.12a13.05,13.05,0,0,0-5.69-2.83c-6.59-.89-13.21-1.62-19.63-1.85-5.15-.17-7.29,2.86-5,6.93a123.18,123.18,0,0,0,8.62,13c1,1.31,3.14,2.29,5.31,3.81l-23.74-10.4-6.72,10.09c8,4.57,16.41,9.22,24.62,14.13,5.79,3.45,11.93,6.82,16.81,11C259.94,252.05,274,260.29,289.35,267c1.73.76,3.41,1.62,5.1,2.47l68.38-1.86a21.69,21.69,0,0,1-1.54-1.68C352.86,255.44,345.52,244.65,341.29,233.26Z"/><path class="cls-6" d="M208.2,198.32c-1.14-2.7-1.36-5.44-2-8.18-6.58-1.55-7-2.15-6.84-10l-.76-.6c-1.14,1-2.62,1.85-3.34,3.09-2.15,3.73-.68,8.35,0,12.77a5.39,5.39,0,0,1-.73,3.62q-3.9,6.11-8.19,12a5.54,5.54,0,0,1-3.1,2c-4,1-8.28,1.68-12.47,2.5l2.8,6.53-.53.14a13.29,13.29,0,0,1-1.74-2.55c-2.08-5.73-4-11.49-6.06-17.26a65.49,65.49,0,0,0-2.45-6.46c-1.38-2.92-4.15-5.06-7.91-6.75-.36,5.29,1.41,10.54,4.89,15.88a19.5,19.5,0,0,1-6-11.41c-.63-4.24-1-8.48-2-12.77-.77-3.44-3.79-6.11-8-8.06-2.23-1-3.26-.77-3.83.81a23.47,23.47,0,0,0-.1,17.41,12.19,12.19,0,0,1,.36,1.51c-2.66-3.39-4.19-8.9-3.33-12.79.76-3.51,1.94-6.88,3-10.3s.69-4.44-3-7.3c-3.52-2.75-8.59-4.43-11.37-3.64a3.65,3.65,0,0,0-2,1.35c-2.22,3.18-4.69,6.25-6.38,9.68-3.76,7.66-10.23,13.27-17.83,18.16a86,86,0,0,0-10.93,8.77c-1.25,1.13-1.65,2.88-2.43,4.35l-.91-.46c1.11-2.06,1.84-4.38,3.44-6.13a48.65,48.65,0,0,1,7.1-5.72A3.36,3.36,0,0,0,97.21,185a85.13,85.13,0,0,1-.09-10.22c.09-4.23-1.46-8.55-4-12.93a10.93,10.93,0,0,0-2.9-3.13,18.53,18.53,0,0,1,.47,2c.75,6.34,1.57,6.48-7.33,5.41-.71-.09-1.45-.27-2.12-.39-.19.11-.45.16-.45.28-.08,6.25-2.17,11.67-4.5,17-.63,1.44,0,3.52.27,5.33.59,4.34,1.56,8.75,1.85,13a39.08,39.08,0,0,1-.68,9.16c-1.14,6.68.18,13.63,4,20.94a147.12,147.12,0,0,1,14.78,43.42,1.61,1.61,0,0,1,0,.49l52.73-1.43a40.52,40.52,0,0,1,1.61-4.23c3.34-6.93,7.41-13.39,14.4-18.27a52.92,52.92,0,0,0,10.35-10.19c3.28-4,6.52-7.9,11.08-11.11,5.88-4.13,10.77-9.1,16.11-13.73a16.43,16.43,0,0,1,1.6-1.39C210.19,211.07,211.24,205.5,208.2,198.32Z"/><path class="cls-17" d="M295,213.52c-4.34-2.91-5.85-7.27-7.78-11.62-6.41-.54-12.23,3.32-19-3.55l-.36.49a15.73,15.73,0,0,0,1.46,1.82c4.39,4.24,8.11,8.63,10.35,13.58,1.76,3.92.93,5-3.53,4.09,1.05,1.79,2.95,3.84,3.15,5.62.32,2.77-3.54,1.12-5.69,1.57,1.24,2.17,3.57,3,5.8,3.85,4.14,1.5,8.35,2.78,12.48,4.35a126.63,126.63,0,0,1,14,5.78c6.23,3.28,10.18,8.18,13.51,13.22a1.46,1.46,0,0,1,.19.72c0,.13-.12.24,0,.12-3.3-3.5-6.19-7.59-10.27-10.62s-9.11-5.18-13.93-7.17c-5.16-2.13-10.6-3.42-15.8-5.47-2.44-1-4.6-2.86-6.86-4.35-.35-.22-.55-.64-.9-.82-4.18-2.17-8.38-4.32-12.82-6.61-1.45,4.32-4.89,7.41-10.86,8.41,2-1.22,4.36-2.21,6-3.72s2.64-3.61,3.91-5.43l-11.19-8-8.36,2.94-.51-.6,7.19-2.85-.42-.65-11.94-1.21-.12-.58c4.09.14,8.17.24,12.28.44.39,0,1,.65,1.46,1q10.8,7.13,21.6,14.21a8.05,8.05,0,0,0,2.49.89c-2.34-2.12-4.4-4.29-2.42-6.22.76-.74,2.33-.9,3.87-1.43-.76-.71-2-1.95-3.34-3.14-5.62-5.05-11.18-10.17-17-15.12a12.75,12.75,0,0,0-5.58-2.84c-6.45-.89-12.91-1.63-19.19-1.86-5-.18-7.08,2.85-4.84,6.92a124.5,124.5,0,0,0,8.55,13c1,1.31,3.09,2.3,5.22,3.82l-23.28-10.42L206,216.14c7.85,4.57,16.11,9.23,24.18,14.14,5.68,3.46,11.71,6.83,16.51,11,12.27,10.58,26.06,18.82,41.13,25.58,2.05.92,4,2,6.05,3a6.27,6.27,0,0,1,1,.9,16.77,16.77,0,0,1-2-.52c-17-7.72-33.24-16.41-47.19-28.58-4.9-4.28-11.35-7.54-17.15-11.21-3-1.89-6.07-3.69-9.14-5.49-4.82-2.84-9.66-5.65-14.59-8.52-2.27,2.06-4.18,3.91-6.23,5.64-4.35,3.65-8.88,7.15-13.08,10.88-2.26,2-4,4.42-6,6.58-4.34,4.6-8.18,9.57-13.19,13.59-6.37,5.09-9.74,11.77-13.08,18.49l-1.43,2.9-.83-.4c.55-1.57,1-3.19,1.69-4.7,3.2-6.92,7.11-13.38,13.89-18.26a51.48,51.48,0,0,0,10-10.17c3.17-4,6.29-7.9,10.71-11.11,5.7-4.12,10.43-9.09,15.6-13.72a14.67,14.67,0,0,1,1.55-1.38c5.65-3.93,6.62-9.49,3.58-16.68-1.14-2.7-1.38-5.44-2-8.18-6.43-1.55-6.85-2.15-6.77-10l-.75-.6c-1.1,1-2.55,1.85-3.23,3.08-2.06,3.73-.58,8.35.14,12.78a5.4,5.4,0,0,1-.68,3.61q-3.73,6.1-7.87,11.94a5.38,5.38,0,0,1-3,2c-3.95,1-8.07,1.67-12.15,2.49l2.8,6.54-.52.13a14.49,14.49,0,0,1-1.73-2.54c-2.08-5.74-4-11.5-6.09-17.27a64.55,64.55,0,0,0-2.45-6.46c-1.37-2.92-4.1-5.06-7.79-6.76-.3,5.3,1.48,10.54,4.94,15.88a19.81,19.81,0,0,1-6-11.41c-.65-4.24-1.1-8.47-2.08-12.77-.79-3.44-3.76-6.11-7.9-8.06-2.19-1-3.19-.77-3.74.8a24,24,0,0,0,.08,17.41,12.19,12.19,0,0,1,.36,1.51c-2.62-3.39-4.17-8.9-3.37-12.79.71-3.51,1.83-6.88,2.84-10.29s.63-4.44-3-7.31-8.44-4.43-11.15-3.64a3.55,3.55,0,0,0-1.91,1.34c-2.13,3.18-4.51,6.24-6.13,9.68-3.6,7.65-9.86,13.26-17.24,18.14a82.36,82.36,0,0,0-10.59,8.77c-1.21,1.12-1.58,2.87-2.33,4.34l-.89-.46c1.06-2.06,1.75-4.38,3.29-6.12a47.14,47.14,0,0,1,6.89-5.72,3.37,3.37,0,0,0,1.54-3.42,85.34,85.34,0,0,1-.19-10.22c0-4.23-1.51-8.56-4-12.93a11.05,11.05,0,0,0-2.86-3.13,17.79,17.79,0,0,1,.47,1.95c.8,6.34,1.6,6.49-7.1,5.41-.7-.09-1.42-.27-2.07-.4-.19.12-.44.17-.44.28,0,6.26-2,11.68-4.23,17-.6,1.44.06,3.51.32,5.32.62,4.35,1.61,8.76,1.93,13a39.61,39.61,0,0,1-.57,9.16c-1,6.68.31,13.64,4.09,20.95a150.69,150.69,0,0,1,14.86,43.43,1.17,1.17,0,0,1-.58,1.29,15.46,15.46,0,0,1-1.08-2.47c-1.44-5.83-2.26-11.66-4.36-17.55a242.4,242.4,0,0,0-10.44-24.92c-4.51-9.24-4.55-17.48-3.66-25.77.46-4.26-.14-8.88-.3-13.36a3.1,3.1,0,0,0-.4-1.71c-3-4.33-1.76-7.64-.13-10.69,2.44-4.58,2.89-9.86,3.41-15.19a38.45,38.45,0,0,1,2.29-9.74c1.11-3,2.89-2.41,6.22.6,8.13,7.36,10,14.75,9.84,22.27a34.54,34.54,0,0,0,.74,8.48c1.88-1.35,3.81-2.66,5.61-4.08a1.38,1.38,0,0,0,.23-1.47c-1.79-4.43-.23-7.71,2.38-10.29,4-4,8.57-7.56,13.06-11.21,5.52-4.49,15.32-.22,20,6.17,1.09,1.49.23,3.52.27,5.49,8.7,3,12,8.46,12.48,14.88.13,1.64.78,2.69,3,3.74a12.82,12.82,0,0,1,6.82,6.82c1.55,4.3,2.7,8.59,4,12.88.58,1.86,1.26,3.73,1.92,5.68a94,94,0,0,1,9.32-1.89c4.62-.48,5.81-3.64,7.61-5.48-2.16-4-3.93-7.62-6-11.16-1.41-2.43-3.5-4.78-4.78-7.22a48.65,48.65,0,0,1-3.13-8c-.56-1.74.57-2.22,2.75-1.6a27.23,27.23,0,0,0,3.93.76,17.18,17.18,0,0,1,8.7,4.05c1.05.86,2,1.8,3.26,3,.3-1.45.48-2.72.83-3.92.7-2.34,1.94-4.21,5.54-4.24.88,0,1.45-.89,2.11-1.4a2.13,2.13,0,0,1,3.5,1,43.27,43.27,0,0,1,1.9,6.71c1.44,6,2.73,11.89,4.32,17.83a5.9,5.9,0,0,0,2.76,2.89c4.82,2.22,9.75,4.19,15.17,6.47-2.12-3.22-4.06-6.05-5.85-8.91-4.54-7.23-3.95-9.29,3.29-11.71-2.68-4.61-1-8.13.45-11.73.22-.55.55-1.25,1.15-1.39,3.17-.75,2.11-3,1.12-5.14-2.38-5.21-.16-8.4,4-10.69a5.34,5.34,0,0,1,3-.38c10,1.45,19,5.83,27.14,12.09,2.08,1.61,3.12,4.09,4.81,6.1,3.93,4.67,8,9.27,11.9,13.92,1.66,2,3,4.1,4.7,6.39,1.8.37,2.84.06,2.14-2-2.1-6.17-3.69-12.32-7.76-18.5a108.75,108.75,0,0,1-7.29-13.79,12.08,12.08,0,0,1,.89-12.41c.45-.72.93-1.42,1.31-2.18,1.09-2.2,2.76-2.4,5,0a38.73,38.73,0,0,1,5.72,8.49c3.22,6.32,5.91,12.59,12.47,18.09a44.42,44.42,0,0,1,7.65,9c3.47,5,6.09,10.21,9.78,15.08,3.07,4,7.18,7.75,10.82,11.6,2.25,2.38,4.84,4.65,6.66,7.15,2.85,3.9,5.94,7.92,7.56,11.93,3,7.33,7.35,14.32,12.08,21.26,3,4.39,6.23,8.71,9.35,13.06a1.07,1.07,0,0,1,.12,1.31c-1-1-2-2-2.85-3-8.33-10.51-15.6-21.3-19.84-32.69-2.11-5.66-6.61-10.54-11.23-15.45-6.21-6.61-13.45-12.8-18-20.2-1.4-2.29-3-4.57-4.18-6.88a41.88,41.88,0,0,0-10.3-12.87c-6.49-5.47-8.53-12-11.75-18.25a17.78,17.78,0,0,0-2.81-4.41c-2.36-2.46-5.1-2.66-6.4-.53-2.79,4.56-2.4,9.69,1,15.53,6,10.38,11.59,20.71,14.22,31.32C289.76,205.48,293,209.75,295,213.52Zm-63.48-35.8,6.58.79-.63-.8c2.61.65,5.36,1.52,8.06,2a19.24,19.24,0,0,1,10.84,5.26c4.09,4.1,7.88,8.35,12,12.39a20.64,20.64,0,0,0,5.41,3.47c1.19.57,2.69.49,4.76.82-6.44-5.56-6.54-6.06-2.56-9.63l-4.8-5.8c-1.87-2.26-3.67-4.55-5.63-6.77s-3.63-4.71-6.08-6.33a64.69,64.69,0,0,0-19.85-9.23c-6.15-1.55-11.53,1.77-10.47,6.78A65.76,65.76,0,0,0,231.52,177.72ZM276.4,210.5c-.71-.93-1-1.4-1.41-1.85-6.65-7.83-13.18-15.75-20.15-23.51a14.35,14.35,0,0,0-6.66-3.67,152.35,152.35,0,0,0-16-2.37c-1.56-.16-3.89.22-4.19,1.08a33.06,33.06,0,0,0-1.6,9c-.09,1.56,1.36,2.51,3.69,2.6,4.3.16,8.69.62,13.06,1s8.06,2.41,11.42,5.72c4.68,4.62,9.89,8.93,15,13.46C271.36,209.06,272.42,208.81,276.4,210.5Zm-88.19-5.25,1.07,0c2.08-4.5,6.36-8,4-14.5-1.4-3.88-7.08-9.12-11.87-9.92-3.44-.57-4.88.55-3.69,3.32,2.32,5.41,4.79,10.8,7.34,16.17A46.39,46.39,0,0,0,188.21,205.25Zm-78.41-25c4-6.46,7.62-12.45,11.29-18.47l-.81-.54c-3.92,3.92-8,7.69-11.6,11.82C107.41,174.58,106.71,176.79,109.8,180.29Z"/><path class="cls-17" d="M298.27,215.84c-4.41-2.9-5.9-7.26-7.84-11.61-6.55-.53-12.55,3.33-19.45-3.53l-.37.49a18,18,0,0,0,1.47,1.82c4.45,4.23,8.22,8.61,10.46,13.56,1.76,3.92.9,5-3.66,4.08,1.06,1.8,3,3.84,3.17,5.62.29,2.77-3.64,1.12-5.84,1.57,1.24,2.17,3.62,3,5.89,3.84,4.23,1.51,8.53,2.78,12.73,4.35a128.72,128.72,0,0,1,14.26,5.76c6.34,3.28,10.33,8.17,13.69,13.21a1.35,1.35,0,0,1,.18.72c0,.13-.12.24,0,.12-3.34-3.5-6.26-7.59-10.4-10.61s-9.28-5.17-14.19-7.16c-5.27-2.13-10.82-3.41-16.13-5.45-2.48-1-4.67-2.86-7-4.35-.34-.22-.55-.63-.9-.81-4.26-2.17-8.54-4.32-13.06-6.6-1.53,4.31-5.09,7.4-11.21,8.41,2.08-1.22,4.49-2.21,6.18-3.73s2.75-3.6,4.07-5.42l-11.38-8L240.32,215l-.52-.59,7.4-2.85-.42-.65-12.22-1.21-.12-.57c4.19.13,8.36.23,12.57.43.4,0,1,.64,1.48,1q11,7.11,22,14.19a8.29,8.29,0,0,0,2.54.89c-2.37-2.12-4.45-4.29-2.4-6.22.78-.74,2.39-.89,4-1.43-.77-.71-2.05-1.94-3.39-3.13-5.7-5.05-11.34-10.16-17.23-15.1a13,13,0,0,0-5.69-2.83c-6.59-.89-13.21-1.63-19.63-1.85-5.14-.18-7.28,2.85-5,6.92a124.52,124.52,0,0,0,8.62,13c1,1.31,3.14,2.29,5.31,3.81L213.8,208.43l-6.72,10.08c8,4.56,16.4,9.22,24.61,14.12,5.78,3.45,11.92,6.81,16.79,11,12.44,10.56,26.48,18.79,41.84,25.53,2.09.92,4.12,2,6.17,3a6.82,6.82,0,0,1,1,.89,15.29,15.29,0,0,1-2.08-.51c-17.36-7.71-33.87-16.38-48-28.54-5-4.27-11.54-7.52-17.44-11.18-3-1.89-6.18-3.69-9.3-5.49-4.91-2.83-9.84-5.63-14.86-8.5-2.33,2.06-4.31,3.91-6.43,5.64-4.49,3.65-9.16,7.15-13.5,10.88-2.34,2-4.12,4.41-6.23,6.58-4.49,4.6-8.47,9.57-13.65,13.58-6.57,5.09-10.08,11.76-13.58,18.48l-1.49,2.89-.85-.39c.59-1.57,1.06-3.19,1.78-4.7,3.35-6.91,7.42-13.37,14.41-18.25a52.55,52.55,0,0,0,10.35-10.17c3.28-4,6.51-7.89,11.08-11.1,5.87-4.12,10.76-9.09,16.1-13.72a17.82,17.82,0,0,1,1.6-1.38c5.83-3.93,6.88-9.49,3.85-16.67-1.14-2.69-1.36-5.43-2-8.16-6.58-1.55-7-2.15-6.84-10l-.76-.61c-1.13,1-2.62,1.85-3.33,3.09-2.15,3.73-.69,8.34,0,12.76a5.34,5.34,0,0,1-.73,3.62c-2.59,4.06-5.33,8-8.18,11.93a5.58,5.58,0,0,1-3.1,2c-4,1-8.27,1.68-12.46,2.49l2.79,6.53-.52.13a13,13,0,0,1-1.75-2.54c-2.07-5.73-4-11.47-6-17.24a66.82,66.82,0,0,0-2.44-6.45c-1.38-2.92-4.15-5.06-7.91-6.75-.36,5.29,1.4,10.53,4.89,15.86a19.33,19.33,0,0,1-6-11.4c-.63-4.24-1-8.46-2-12.75-.77-3.44-3.79-6.11-8-8.05-2.24-1-3.26-.77-3.84.8a23.47,23.47,0,0,0-.1,17.39,12.94,12.94,0,0,1,.36,1.52c-2.65-3.39-4.18-8.89-3.33-12.79.77-3.5,1.95-6.87,3-10.28s.69-4.43-3-7.29-8.6-4.43-11.37-3.64a3.65,3.65,0,0,0-2,1.35c-2.22,3.18-4.69,6.24-6.38,9.67-3.76,7.64-10.23,13.25-17.83,18.14a85.06,85.06,0,0,0-10.93,8.76c-1.25,1.12-1.64,2.87-2.43,4.34l-.91-.46c1.11-2.06,1.84-4.38,3.44-6.12a48.47,48.47,0,0,1,7.1-5.71,3.36,3.36,0,0,0,1.61-3.43,82.93,82.93,0,0,1-.08-10.21c.08-4.22-1.46-8.54-4-12.91a10.78,10.78,0,0,0-2.9-3.12,17.79,17.79,0,0,1,.47,1.95c.75,6.33,1.57,6.48-7.32,5.4-.72-.08-1.45-.26-2.12-.39-.2.12-.45.16-.46.28-.07,6.25-2.17,11.66-4.5,17-.63,1.44,0,3.51.27,5.32.59,4.34,1.56,8.74,1.84,13a38.34,38.34,0,0,1-.68,9.14c-1.14,6.68.18,13.63,4,20.93a146.41,146.41,0,0,1,14.75,43.38,1.14,1.14,0,0,1-.59,1.28,14.59,14.59,0,0,1-1.09-2.46c-1.42-5.83-2.19-11.65-4.28-17.53a235.26,235.26,0,0,0-10.42-24.89c-4.52-9.23-4.48-17.46-3.48-25.74.52-4.26-.06-8.87-.17-13.35a3,3,0,0,0-.39-1.7c-3.06-4.33-1.72-7.64,0-10.69,2.55-4.57,3.07-9.84,3.66-15.17a37.85,37.85,0,0,1,2.44-9.73c1.17-3,3-2.41,6.35.59,8.26,7.35,10,14.73,9.85,22.25a33.81,33.81,0,0,0,.66,8.47c1.94-1.35,3.93-2.66,5.79-4.08a1.36,1.36,0,0,0,.25-1.47c-1.79-4.43-.15-7.71,2.54-10.29,4.15-4,8.85-7.56,13.48-11.2,5.7-4.49,15.68-.23,20.37,6.15,1.1,1.48.2,3.51.22,5.48,8.88,3,12.16,8.45,12.62,14.86.12,1.64.77,2.69,3,3.74,3.38,1.57,5.91,4,6.91,6.8,1.54,4.3,2.67,8.59,4,12.87.58,1.86,1.25,3.73,1.91,5.68,3.42-.7,6.35-1.57,9.56-1.9,4.74-.48,6-3.64,7.84-5.48-2.16-4-3.94-7.61-6-11.15-1.42-2.43-3.53-4.77-4.82-7.21a48.49,48.49,0,0,1-3.12-8c-.55-1.73.61-2.21,2.83-1.6a30.08,30.08,0,0,0,4,.76,17.63,17.63,0,0,1,8.88,4c1.06.86,2,1.8,3.3,2.95.32-1.45.52-2.72.89-3.91.74-2.35,2-4.21,5.72-4.24.9,0,1.49-.89,2.17-1.41a2.19,2.19,0,0,1,3.58,1,40.59,40.59,0,0,1,1.86,6.7c1.42,6,2.68,11.88,4.25,17.81a5.8,5.8,0,0,0,2.79,2.89c4.91,2.21,9.93,4.17,15.47,6.45-2.14-3.21-4.1-6-5.91-8.9-4.57-7.22-3.94-9.28,3.5-11.7-2.7-4.61-.92-8.13.58-11.72.23-.55.57-1.25,1.2-1.39,3.24-.75,2.18-3,1.19-5.13-2.37-5.22-.07-8.41,4.19-10.7a5.62,5.62,0,0,1,3.12-.37c10.23,1.44,19.43,5.81,27.66,12.06,2.11,1.61,3.16,4.08,4.86,6.09,4,4.66,8.1,9.25,12,13.91,1.68,2,3.06,4.08,4.75,6.37,1.84.37,2.9.06,2.21-2-2.09-6.17-3.66-12.32-7.76-18.49a105.64,105.64,0,0,1-7.31-13.78,11.85,11.85,0,0,1,1-12.39c.48-.72,1-1.43,1.37-2.18,1.14-2.2,2.85-2.41,5.08,0a38.29,38.29,0,0,1,5.77,8.49c3.23,6.31,5.92,12.57,12.58,18.06a43.75,43.75,0,0,1,7.74,9c3.5,5,6.13,10.19,9.86,15.05,3.1,4,7.27,7.75,11,11.59,2.28,2.37,4.9,4.65,6.75,7.14,2.87,3.9,6,7.91,7.61,11.92,3,7.33,7.37,14.3,12.14,21.24,3,4.39,6.3,8.7,9.44,13a1,1,0,0,1,.11,1.32c-1-1-2-2-2.88-3-8.42-10.5-15.75-21.28-20-32.66-2.1-5.66-6.65-10.53-11.34-15.44-6.29-6.59-13.63-12.77-18.17-20.17-1.41-2.29-3-4.56-4.2-6.87A41.54,41.54,0,0,0,298.13,180c-6.6-5.46-8.62-12-11.85-18.23a17.71,17.71,0,0,0-2.83-4.4c-2.39-2.46-5.2-2.66-6.55-.53-2.9,4.56-2.56,9.69.86,15.52,6.08,10.37,11.65,20.69,14.24,31.29C293,207.8,296.27,212.07,298.27,215.84ZM233.65,180.1l6.73.79c-.47-.59-.73-.92-.64-.79,2.67.64,5.47,1.51,8.24,2a19.57,19.57,0,0,1,11,5.24c4.14,4.09,8,8.34,12.18,12.37a21.06,21.06,0,0,0,5.51,3.47c1.22.57,2.75.49,4.86.82-6.53-5.55-6.63-6.05-2.51-9.62l-4.86-5.8c-1.89-2.25-3.71-4.54-5.69-6.76s-3.67-4.7-6.16-6.32a66.14,66.14,0,0,0-20.23-9.21c-6.28-1.54-11.83,1.78-10.79,6.79A65.24,65.24,0,0,0,233.65,180.1Zm45.61,32.74c-.72-.94-1-1.41-1.43-1.85-6.72-7.82-13.33-15.73-20.37-23.48a14.69,14.69,0,0,0-6.79-3.67,156.21,156.21,0,0,0-16.39-2.35c-1.6-.17-4,.22-4.3,1.07a32.49,32.49,0,0,0-1.73,9c-.11,1.56,1.37,2.51,3.75,2.59,4.39.16,8.89.62,13.36,1A18.48,18.48,0,0,1,257,200.9c4.74,4.61,10,8.91,15.2,13.44C274.12,211.4,275.2,211.15,279.26,212.84ZM189,207.65h1.1c2.18-4.5,6.6-8,4.26-14.49-1.39-3.88-7.15-9.11-12-9.9-3.52-.57-5,.55-3.81,3.32,2.31,5.4,4.79,10.79,7.34,16.15A48.79,48.79,0,0,0,189,207.65Zm-80-24.89,11.75-18.46-.83-.54c-4,3.92-8.3,7.69-12,11.82C106.64,177.05,105.9,179.26,109,182.76Z"/><path class="cls-17" d="M297,215.79c-4.41-2.9-5.91-7.26-7.85-11.61-6.55-.53-12.55,3.33-19.44-3.53l-.37.49a15.73,15.73,0,0,0,1.46,1.82c4.46,4.24,8.23,8.62,10.46,13.57,1.77,3.91.91,5-3.65,4.08,1.06,1.79,3,3.84,3.17,5.61.3,2.77-3.64,1.12-5.84,1.58,1.25,2.16,3.62,3,5.89,3.84,4.24,1.5,8.53,2.77,12.74,4.34a129.35,129.35,0,0,1,14.25,5.76c6.34,3.28,10.33,8.17,13.7,13.21a1.45,1.45,0,0,1,.18.72c0,.13-.12.24-.05.12-3.34-3.5-6.27-7.59-10.41-10.61S302,240,297,238c-5.26-2.12-10.82-3.4-16.12-5.45-2.48-1-4.68-2.85-7-4.34-.35-.23-.56-.64-.91-.82-4.26-2.17-8.54-4.32-13.06-6.6-1.53,4.32-5.08,7.41-11.21,8.41,2.09-1.22,4.49-2.21,6.18-3.72s2.75-3.61,4.07-5.42l-11.38-8L239,215l-.52-.6,7.4-2.85-.42-.65-12.22-1.21-.11-.57c4.18.13,8.35.23,12.56.43.4,0,1,.65,1.48,1q11,7.13,22,14.19a8.29,8.29,0,0,0,2.54.89c-2.37-2.11-4.45-4.28-2.4-6.22.78-.74,2.39-.89,4-1.43-.77-.71-2.05-1.94-3.39-3.13-5.71-5.05-11.35-10.15-17.23-15.1a13.14,13.14,0,0,0-5.7-2.83c-6.59-.89-13.2-1.62-19.62-1.84-5.14-.18-7.28,2.85-5,6.91A123.59,123.59,0,0,0,231,215c1,1.31,3.13,2.29,5.3,3.81l-23.72-10.39-6.72,10.08c8,4.57,16.4,9.22,24.61,14.12,5.78,3.45,11.92,6.82,16.79,10.95,12.45,10.56,26.49,18.79,41.84,25.53,2.1.92,4.13,2,6.17,3a6.31,6.31,0,0,1,1,.89,15.69,15.69,0,0,1-2.08-.51c-17.35-7.71-33.86-16.38-48-28.54-5-4.27-11.54-7.51-17.44-11.18-3-1.89-6.18-3.68-9.3-5.48-4.9-2.83-9.84-5.64-14.85-8.5-2.34,2-4.31,3.9-6.44,5.63-4.48,3.66-9.16,7.15-13.49,10.88-2.34,2-4.12,4.42-6.23,6.58-4.49,4.6-8.47,9.57-13.64,13.58-6.57,5.09-10.08,11.76-13.57,18.48l-1.49,2.89-.85-.39c.59-1.57,1.05-3.19,1.78-4.7,3.34-6.91,7.41-13.37,14.4-18.25a52.77,52.77,0,0,0,10.34-10.17c3.28-4,6.51-7.89,11.07-11.1,5.87-4.12,10.77-9.09,16.1-13.71a17.6,17.6,0,0,1,1.6-1.38c5.83-3.93,6.87-9.49,3.84-16.67-1.14-2.7-1.36-5.43-2-8.17-6.58-1.54-7-2.15-6.84-10l-.76-.6c-1.13,1-2.62,1.85-3.33,3.09-2.15,3.72-.68,8.34,0,12.76a5.32,5.32,0,0,1-.73,3.61c-2.59,4.07-5.33,8-8.18,11.94a5.53,5.53,0,0,1-3.1,2c-4.05,1-8.27,1.68-12.46,2.5l2.8,6.52-.53.14a13.55,13.55,0,0,1-1.74-2.54c-2.08-5.73-4-11.48-6.06-17.24a67,67,0,0,0-2.44-6.46c-1.38-2.92-4.15-5.05-7.92-6.75-.35,5.29,1.41,10.53,4.9,15.87a19.45,19.45,0,0,1-6-11.4c-.63-4.24-1-8.47-2-12.76-.77-3.44-3.79-6.1-8-8-2.23-1-3.25-.77-3.83.81a23.42,23.42,0,0,0-.09,17.39,12.59,12.59,0,0,1,.35,1.51c-2.65-3.39-4.18-8.89-3.33-12.78.77-3.51,2-6.87,3-10.28s.68-4.44-3-7.3-8.59-4.42-11.37-3.63a3.67,3.67,0,0,0-2,1.34c-2.21,3.18-4.68,6.24-6.37,9.67-3.76,7.65-10.22,13.26-17.83,18.14a86.53,86.53,0,0,0-10.92,8.76c-1.25,1.12-1.64,2.88-2.42,4.34l-.92-.45c1.12-2.06,1.84-4.38,3.44-6.13a49.14,49.14,0,0,1,7.1-5.71A3.36,3.36,0,0,0,97,187.1a85,85,0,0,1-.09-10.21c.08-4.23-1.46-8.54-4-12.91a10.81,10.81,0,0,0-2.9-3.13,18.36,18.36,0,0,1,.47,2c.75,6.34,1.57,6.48-7.32,5.41-.72-.09-1.45-.27-2.12-.39-.19.11-.45.16-.45.28-.08,6.24-2.17,11.66-4.5,17-.63,1.43,0,3.51.27,5.32.59,4.33,1.56,8.74,1.85,13a39,39,0,0,1-.68,9.15c-1.14,6.67.18,13.62,4,20.92a146.48,146.48,0,0,1,14.77,43.38,1.15,1.15,0,0,1-.6,1.28,16.4,16.4,0,0,1-1.09-2.46c-1.41-5.83-2.19-11.65-4.28-17.53a235.37,235.37,0,0,0-10.43-24.89c-4.51-9.23-4.48-17.45-3.48-25.74.51-4.25-.06-8.87-.18-13.34a2.93,2.93,0,0,0-.39-1.71c-3.06-4.33-1.73-7.63,0-10.68,2.55-4.58,3.07-9.85,3.65-15.18a37.77,37.77,0,0,1,2.44-9.72c1.17-3,3-2.41,6.35.59,8.25,7.35,10,14.72,9.85,22.24a33.8,33.8,0,0,0,.67,8.47c1.94-1.34,3.93-2.66,5.79-4.08a1.35,1.35,0,0,0,.24-1.46c-1.79-4.44-.15-7.71,2.54-10.29,4.15-4,8.85-7.56,13.48-11.21,5.7-4.48,15.68-.22,20.37,6.15,1.09,1.49.2,3.52.22,5.49,8.87,3,12.16,8.44,12.62,14.85.12,1.64.77,2.7,3,3.74,3.38,1.58,5.91,4,6.91,6.81,1.54,4.3,2.68,8.58,4,12.86.59,1.87,1.25,3.73,1.91,5.68,3.43-.7,6.35-1.56,9.56-1.89,4.74-.49,6-3.64,7.84-5.49-2.16-4-3.94-7.61-6-11.14-1.42-2.43-3.54-4.77-4.82-7.22a47.34,47.34,0,0,1-3.13-8c-.55-1.73.61-2.21,2.83-1.59a29.88,29.88,0,0,0,4,.75,17.72,17.72,0,0,1,8.87,4c1.06.86,2,1.81,3.3,3,.32-1.45.52-2.72.9-3.92.73-2.34,2-4.21,5.71-4.24.9,0,1.49-.88,2.17-1.4a2.18,2.18,0,0,1,3.57,1,42,42,0,0,1,1.87,6.71c1.42,6,2.68,11.87,4.25,17.81A5.91,5.91,0,0,0,213.6,208c4.92,2.22,9.94,4.18,15.47,6.46-2.14-3.22-4.09-6-5.9-8.9-4.57-7.23-3.95-9.28,3.49-11.7-2.71-4.61-.92-8.13.57-11.72.23-.55.58-1.26,1.2-1.4,3.25-.75,2.19-3,1.2-5.13-2.38-5.21-.08-8.4,4.17-10.69a5.57,5.57,0,0,1,3.13-.37c10.22,1.44,19.43,5.8,27.65,12.06,2.12,1.6,3.16,4.08,4.87,6.09,4,4.66,8.1,9.25,12,13.9,1.68,2,3.06,4.09,4.75,6.38,1.84.37,2.91,0,2.21-2-2.09-6.16-3.66-12.31-7.76-18.48a105.16,105.16,0,0,1-7.32-13.78,11.87,11.87,0,0,1,1-12.4,23.44,23.44,0,0,0,1.37-2.18c1.14-2.19,2.85-2.4,5.08,0a38.53,38.53,0,0,1,5.77,8.49c3.23,6.31,5.92,12.58,12.58,18.06a44,44,0,0,1,7.75,9c3.5,5,6.12,10.19,9.86,15.06,3.1,4,7.27,7.74,11,11.58,2.28,2.38,4.9,4.65,6.75,7.15,2.87,3.89,6,7.9,7.62,11.91,3,7.33,7.37,14.31,12.14,21.24,3,4.39,6.3,8.7,9.45,13a1.05,1.05,0,0,1,.1,1.32c-1-1-2-2-2.88-3-8.42-10.5-15.75-21.28-20-32.66-2.1-5.65-6.65-10.52-11.34-15.43-6.29-6.6-13.63-12.78-18.17-20.18-1.41-2.29-3-4.55-4.21-6.87A41.5,41.5,0,0,0,296.83,180c-6.59-5.46-8.62-12-11.85-18.23a17.35,17.35,0,0,0-2.83-4.4c-2.4-2.46-5.2-2.66-6.55-.53-2.9,4.56-2.55,9.68.87,15.52,6.07,10.36,11.65,20.69,14.24,31.28C291.71,207.76,295,212,297,215.79Zm-64.63-35.73,6.73.78-.63-.79c2.66.65,5.47,1.51,8.23,2a19.76,19.76,0,0,1,11.05,5.24c4.13,4.1,8,8.34,12.18,12.38a21.17,21.17,0,0,0,5.5,3.47c1.22.57,2.75.49,4.87.81-6.54-5.55-6.63-6-2.52-9.62-1.61-1.91-3.23-3.85-4.86-5.8-1.89-2.25-3.71-4.53-5.69-6.75s-3.67-4.7-6.16-6.32a66,66,0,0,0-20.24-9.21C234.55,164.67,229,168,230,173A64.68,64.68,0,0,0,232.36,180.06ZM278,212.79c-.72-.94-1.05-1.4-1.43-1.85-6.73-7.82-13.33-15.73-20.38-23.48a14.59,14.59,0,0,0-6.79-3.66A156.26,156.26,0,0,0,233,181.44c-1.59-.16-4,.22-4.29,1.08a32.43,32.43,0,0,0-1.74,9c-.1,1.55,1.37,2.5,3.76,2.59,4.39.16,8.88.62,13.35,1a18.46,18.46,0,0,1,11.64,5.7c4.74,4.61,10,8.92,15.2,13.44C272.83,211.35,273.92,211.1,278,212.79Zm-90.23-5.19,1.09,0c2.18-4.5,6.6-8,4.27-14.5-1.4-3.87-7.15-9.1-12.05-9.89-3.51-.57-5,.55-3.81,3.32,2.32,5.4,4.79,10.78,7.35,16.14A46.63,46.63,0,0,0,187.75,207.6Zm-80-24.89,11.74-18.45-.82-.55c-4.05,3.93-8.3,7.69-12,11.82C105.37,177,104.63,179.21,107.76,182.71Z"/><path class="cls-11" d="M274.41,197s1.64-4.42,3.24-4,11.27,12.69,11.27,12.69l-2.25,2A32,32,0,0,1,274.41,197Z"/><path class="cls-11" d="M270.23,221.21c-2.58-3.71,1.62-4.36,3.21-3.93s11.2,12.55,11.2,12.55l-1.39,1.24-1.15-.15s-.46.41-1.65-.42C277.69,228.55,272.7,224.77,270.23,221.21Z"/><path class="cls-11" d="M271.75,214.39c-2.58-3.72,1.63-4.38,3.22-3.94S286.19,223,286.19,223l-1.39,1.25-1.17.63s-.45-.37-1.64-1.2C279.22,221.75,274.22,218,271.75,214.39Z"/><path class="cls-11" d="M179.49,195.54l-6.09-20.16-2.36-.89s3.83,16.34,6.72,19.16S179.49,195.54,179.49,195.54Z"/><path class="cls-11" d="M288.75,166.92s-6.75-13.53-10.13-15-3.67-2.24-3.67-2.24l4.56,1.33s9.17,10.08,10.34,15.22C290.15,167.55,288.75,166.92,288.75,166.92Z"/><path class="cls-10" d="M206,191.64s-4.9-.59-5.63-2.59c-3-8.24,1.92-16.1,1.92-16.1s7.64,15.49,3.78,18.62Z"/><path class="cls-10" d="M80.73,166.66s6.89,1.45,8.49-.3.14-15.91-2.16-17.3S77.1,159.94,80.73,166.66Z"/><polygon class="cls-10" points="219.88 89.56 204.99 130.31 237.13 115.78 213.51 141.96 244.04 124.33 227.63 145.66 286.82 115.38 240.94 135.96 253.92 116.65 230.92 127.58 246.65 110.61 215.35 121.9 219.88 89.56"/><path class="cls-11" d="M134,105.45c-.36-1-.73-2-1.09-3L117.78,99.3c-.85-4.47-1.72-9-2.58-13.61l-3.91-1c-.6,4.22.15,9.3-2.17,12.38-2.21,2.93-7.62,3.78-12.7,6L90.11,88.51l-5.24-2c9.28,15.11-2.23,19.23-10,25.27l2.65,1.86,10.76-2.92L91,112.66c-2.48,4.67-5,9.32-6.52,12.25l15.74,18.9c3.12-8.93-10.23-26,12.72-20.81l7.12,19.21,5.09.37c-.81-6.28-1.61-12.59-2.41-18.86L135.23,122l-1-2.24-14.63-4.25c-.08-3.16-.14-6.13-.19-8.18ZM98.51,117c-4.92-11.07,4.41-9.34,11.82-9.76C115.86,118.81,106.24,116.83,98.51,117Z"/><path class="cls-6" d="M110.33,107.24c5.53,11.57-4.09,9.59-11.82,9.76C93.59,105.93,102.92,107.66,110.33,107.24Z"/><path class="cls-10" d="M177.52,161.88c2-5.57-2-12.82-7.52-15.87-6-3.32-13.54-2.79-16.64,1.16-3.82,4.88-.25,13,8.5,20.84-1.87-.94-4.06-1.63-5.56-2.86-6.23-5.14-8.62-10.8-7.63-16.38s6.16-7.27,12.88-7.06c10.06.32,21.39,10.8,20.31,18.58-.45,3.18-2.63,3.73-7.1,3.14-2.95.79-6.59,3.08-8.69,2-3.44-1.71-6.54-5.45-8.58-8.6s-.18-5.35,2.93-6.48c4.1-1.48,7.42-.22,11,4.13C173.13,156.63,174.91,158.73,177.52,161.88Z"/><path class="cls-4" d="M169.83,158.25c.94,2.2.13,4.05-1.8,4.11s-4.24-1.66-5.18-3.86-.13-4.06,1.8-4.13S168.9,156,169.83,158.25Z"/><path class="cls-18" d="M473.44,265.48c-9.47,34.42-40.35,43-58.32,7.86-14.94-29.22-15.74-78.43-8.49-109.52,1.74-7.46,5.36-23,13.12-30.06,17.78-16.18,49.55,2.08,57.86,52.79C479.13,195.82,479.52,243.36,473.44,265.48Z"/><path class="cls-18" d="M479.44,215.13c.68,44.83-20.92,94.49-42.48,85.21C419.2,292.7,408,247.77,406.9,209.63c-.27-9.07-.84-27.91,3.46-44.36,9.79-37.49,37.21-62.28,54.49-27.76C468,143.87,479,186.66,479.44,215.13Z"/><path class="cls-10" d="M417.28,147.64c12.8-29.11,42.05-27.2,53.64,14.81,9.93,36,2.36,85-9.71,110.84-2.82,6-8.61,18.39-16.71,20.32-17.77,4.25-41-28.72-41-76.65C403.49,208.16,409.38,165.61,417.28,147.64Z"/><path class="cls-6" d="M477.26,290.53l-5.15-7.36c-4.05-5.79-5.31-18.09-2.82-27.41l3.18-11.86c2.53-9.45,8-12.53,12.12-6.78l5.26,7.31c4.19,5.82,5.48,18.41,2.86,27.89l-3.29,11.91C486.83,293.59,481.36,296.39,477.26,290.53Z"/><path class="cls-6" d="M420.35,308.6l-4.74-7.08c-3.72-5.57-4.94-17.3-2.71-26.14l2.83-11.24c2.25-8.95,7.2-11.8,11-6.27l4.84,7c3.84,5.6,5.08,17.59,2.75,26.57l-2.93,11.29C429.08,311.64,424.11,314.23,420.35,308.6Z"/><path class="cls-11" d="M492,346.87Q485.18,371,478.5,394.62c-1.91,6.71-1.95,6.7-5,2.19-2.53-3.7-5-7.69-7.52-11.18-2-2.72-2.32-5.34-1-9.73q4.09-13.83,7.87-28.38c3.21-12.34,2-26.77-2.83-34.7-5.38-8.93-12.22-5.95-15.89,7.06q-4,14-7.58,28.33c-1.11,4.39-2.19,5.21-4.09,2.07-2.53-4.2-5.17-8-7.81-11.76-1.73-2.42-2.17-5-1-8.94s2.16-8.13,3.23-12.22c7.29-27.71,14.78-55.8,22.18-84.7,1.58-6.18,3.4-8.41,6.42-8.85,8.55-1.22,17.21-3.1,26-5.23,2.6-.63,3.85,1.15,4.79,6.55q5.19,29.67,10.74,59.1a25.23,25.23,0,0,1-.73,12.67C501.35,313.65,496.68,330.38,492,346.87Zm-15-63.32c4.56,6.37,10.23,3.15,13-7.49,2.67-10.13,1.27-23.29-3.13-29.34s-10.48-2.39-13.08,7.86C471.29,264.68,472.69,277.49,477,283.55Z"/><path class="cls-4" d="M416.37,311.1c-3.64-5.47-7.24-11-10.89-16.27-1.57-2.28-2.18-4.36-1.07-8.64,3.86-14.93,7.64-30.18,11.43-45.59.85-3.44,1.72-4.16,3.17-2q11.57,16.92,23.43,34c1.49,2.15,1.63,4.45.72,7.86q-6.12,23.05-12,45.88c-.94,3.67-1.89,4.33-3.47,1.87-3.76-5.85-7.57-11.43-11.33-17.07Zm3.35-19.8c2-7.74,1.95-7.88-1.49-12.9-3.2-4.65-3.2-4.65-5.16,3-2,8-2,8,1.3,12.91S417.69,299.27,419.72,291.3Zm9.09,14.33c2.18-8.3,2.18-8.3-1-13.08-3.49-5.22-3.6-5.18-5.52,2.21-2.12,8.14-2.12,8.14,1.08,13C426.86,313,426.86,313,428.81,305.63Zm5.47-21.15c2.36-8.87,2.36-8.87-.71-13.52-3.63-5.5-3.75-5.46-5.66,1.81-2.22,8.44-2.22,8.44,1,13.24C432.46,291.32,432.46,291.32,434.28,284.48Zm-9-15c1.93-7.59,1.92-7.73-1-12-3.79-5.58-3.79-5.58-5.78,2.32s-2,8,1.37,13S423.22,277.63,425.29,269.47Z"/><path class="cls-4" d="M493.59,427.06c-4-6-8-12.15-12-17.95-1.82-2.63-2.2-5.05-1-9.17q6.53-22.33,12.93-45.47c1.19-4.27,2.37-4.55,4.21-1.84q12.43,18.3,25.22,36.67c1.78,2.57,2.11,5,.93,8.85q-7.07,23.33-13.81,46.46c-1.13,3.87-2.27,3.89-3.95,1.29C502,439.48,497.75,433.29,493.59,427.06Zm10.35-41.81c2.34-8,2.32-8.31-1.43-13.79-3.65-5.33-3.65-5.33-5.86,2.27-2.44,8.38-2.44,8.38,1.13,13.67C501.64,393.12,501.64,393.12,503.94,385.25Zm10.31,15.05c2.39-8.08,2.37-8.29-1.45-13.84-3.68-5.36-3.69-5.35-6.13,3.06-2.22,7.64-2.22,7.64,1.36,13C511.89,408.28,511.89,408.28,514.25,400.3Zm-23.93-4.47C488,404,488,404,491.4,409.27c3.84,5.83,3.84,5.83,6.05-1.69,2.43-8.24,2.41-8.45-1.09-13.71C492.58,388.2,492.52,388.22,490.32,395.83Zm17.51,26.32c2.29-7.83,2.27-8-1.62-13.72-3.56-5.21-3.56-5.21-5.83,2.62-2.35,8.08-2.35,8.08,1.33,13.58S505.46,430.23,507.83,422.15Z"/><path class="cls-17" d="M450.37,381.47,401.19,307c-.89-1.35-1.78-2.72-2.65-4.13-1-1.67-1.31-3.75-.7-6.44s1.5-3.09,2.59-1.56c.61.85,1.2,1.75,1.8,2.65q49.88,75.11,104.36,157.28c1.39,2.09,4.1,3.63,2.41,9.24-1.79,6-3.56.66-5.05-1.58Q476.52,421.17,450.37,381.47Z"/><path class="cls-17" d="M522.76,196.31c-3.53,12.63-3.83,12.83-9.18,4.1-2.21-3.6-4.27-7.61-6.42-11.33-1.47-2.55-2.62-2-3.75,1.75a30.72,30.72,0,0,0-1.1,16.23c4.73,24.35,9.18,49.06,13.73,73.71.32,1.7.64,3.42.81,5.2.26,2.7-.21,4.94-1.34,6.1s-2.27.2-2.91-2a90,90,0,0,1-2.06-8.93Q505,251.07,499.6,221c-2.28-12.56-2.42-12.42-8.36-11.1-10.11,2.24-20.06,4-29.86,5.9a11.83,11.83,0,0,0-1.54.27c-1.37.47-2.34-1-2.53-4-.21-3.42.63-5.72,2.11-6.34a22.38,22.38,0,0,1,4.21-1.35c10.37-2.11,20.91-4.42,31.64-6.17,3.08-.51,5-3.05,6.47-9.32,1.82-7.76,4.1-15,6.08-22.7,1.21-4.66,2.68-5,4.55-2.84,2.1,2.46,3.67,6.39,5.44,9.77,1.69,3.21,3.33,6.64,5.41,8.48s2.75,4.48,1.15,9C523.75,192.38,523.29,194.41,522.76,196.31Z"/><path class="cls-17" d="M430.57,247c-4.25-6.15-8.51-12.15-12.67-18.39-2.34-3.5-2.26-4.88.23-7.77,3.35-3.88,6.77-7.55,10.16-11.51,1.32-1.55,2.47-1.73,3.77.14q9.27,13.35,18.76,26.62c1.87,2.62,2.41,5.41,1.08,10-1.48,5.09-2.75,10.5-4.14,15.69-1.87,6.94-2,7.08-4.91,3C438.72,258.85,434.64,252.87,430.57,247Z"/><path class="cls-17" d="M513.41,366.7c-4.61-6.65-9.15-13.4-13.76-19.8-1.86-2.59-2.39-5.09-1.07-9.34,1.82-5.85,3.51-11.94,5.16-18.11,1.09-4.09,2.21-5.3,4.23-2.34,6.77,9.88,13.67,19.59,20.63,29.36,1.73,2.43,2.43,5.58,2.44,10,0,9.14.24,18.28.28,27.39,0,6.14-.74,7.24-3.17,3.91-5-6.84-9.85-14.11-14.71-21.14Z"/><path class="cls-17" d="M483.84,263.48c-.66,2.69-1.53,5.71-3.38,5.85-1.16.08-2.31,1-3.46-.05.64-3.32,2-1.73,3-2,2-.5,2.92-3.57,3.85-6.94a22.7,22.7,0,0,1,1-2.6c.44,1.61-.28,2.47-.48,3.66C484.3,262,484.12,262.45,483.84,263.48Z"/><path class="cls-6" d="M535.05,335.87c-13.15,1.51-28.66-30.07-27-63.6,1.4-28.68,14.79-48.3,26.75-51.26,2.86-.7,8.83-2.18,14.15,4.66,12.05,15.5,19.86,59.68,9.2,87.24C556.21,317.87,543.48,334.9,535.05,335.87Z"/><path class="cls-10" d="M541.07,252.65c-.27-.3-.53-.73-.82-.88a45.13,45.13,0,0,0-10.4-4.29c-.87-.21-1.2.4-1.33,2.35-.28,4.24-.65,8.45-1.06,12.64-.18,1.84,0,2.49.89,2.78a16.4,16.4,0,0,1,6,4,10.65,10.65,0,0,1,2.41,4.16,3.4,3.4,0,0,1,.29,2.44c-.32.84-.8.45-1.16,0a11.39,11.39,0,0,0-6.65-4.31c-2.53-.75-2.5-.7-3.11,4.73-.86,7.52-1.7,15-2.66,22.43-.41,3.13-1.14,3.78-2.36,2.91-1.44-1-2.08-3.27-1.69-6.2q2.51-18.74,4.19-38.08c.12-1.31.22-2.64.35-3.94.21-2,.36-3.67-.78-4.88-.85-.9-1.24-3.11-1.07-5.39a3.5,3.5,0,0,1,1.77-3.12,5.43,5.43,0,0,0,1.66-1.63,1,1,0,0,1,1.32-.53c4.89,1.68,9.83,3.18,14.67,6.1a4.69,4.69,0,0,1,1.9,1.77,9.9,9.9,0,0,1,.72,6.58C543.57,253.85,542,254.09,541.07,252.65Z"/><path class="cls-10" d="M554.15,282.65a7.25,7.25,0,0,1,1.4,3.55,7.49,7.49,0,0,1-.21,3.87c-.51,1.24-1.09.46-1.63,0-3.27-2.53-6.61-4.25-10.06-4.59-1.11-.11-1.82-1.31-2.2-3.46-.62-3.44,0-5.22,1.65-4.94A21.9,21.9,0,0,1,553.48,282,6.28,6.28,0,0,1,554.15,282.65Z"/><path class="cls-19" d="M563.31,272.86c.29,26.84-16.63,58.56-33.34,54.74-13.87-3.17-22.33-29.68-22.94-52.81-.14-5.49-.44-16.89,3.06-27.16,7.95-23.27,29.4-39.8,42.48-20.22C555,231,563.13,255.86,563.31,272.86Z"/><path class="cls-19" d="M558.36,240.94c7.92,23.29,3.67,68.84-10.74,82.54-12,11.36-26.16-3.91-33.07-24a81.81,81.81,0,0,1-5-27.09c-.12-28.28,12.11-63.87,27.68-60.09C540.06,213,553.39,226.33,558.36,240.94Z"/><path class="cls-19" d="M511.57,254.16c2.89-27.52,20.73-51.31,34.78-37.79C558.48,228,562.63,262.45,560,288c-.63,6-1.92,18.47-6.5,26.91-10.13,18.66-30.33,20.15-38.6-8.36C513.37,301.39,509.77,271.4,511.57,254.16Z"/><polyline class="cls-20" points="440.76 205.48 445.98 216.07 448.97 196.19"/><polyline class="cls-20" points="430.76 119.79 431.83 163.81 439.77 163.91 439.24 193.77 443.12 191.78 445.74 214.67 444.25 186.17 440.11 190.3 439.14 165.76 433.72 164.05 432.74 108.36"/></g></g></svg>