<svg xmlns="http://www.w3.org/2000/svg" viewBox="0 0 457.02 437.09"><defs><style>.cls-1{fill:#7dc7ae;}.cls-10,.cls-11,.cls-2,.cls-5,.cls-6,.cls-9{fill:none;stroke-miterlimit:10;}.cls-2,.cls-9{stroke:#7dc7ae;}.cls-2{stroke-width:2.09px;}.cls-3{fill:#fff;}.cls-4{fill:#ffb23c;}.cls-5,.cls-6{stroke:#ffb23c;}.cls-5{stroke-width:4.43px;}.cls-6{stroke-width:4.36px;}.cls-7{fill:#a682ae;}.cls-8{fill:#69acc7;}.cls-11,.cls-9{stroke-width:2.62px;}.cls-10{stroke:#a682ae;stroke-width:2.33px;}.cls-11{stroke:#69acc7;}</style></defs><g id="Layer_2" data-name="Layer 2"><g id="Layer_1-2" data-name="Layer 1"><path class="cls-1" d="M63.11,367.52c67.78-13.33,248.47-14.19,337.69,2.57,75.71,14.23,55.33,35.47-4.05,47.68-14.07,2.9-43.22,8.89-92.1,10.68-109.54,4-276.36-7.94-298.88-29.36C1.66,395.18,20.34,375.93,63.11,367.52Z"/><path class="cls-2" d="M454.82,390.65c-4.46-22.65-140.51-40-262.4-37.44C59.57,356-27.24,381.9,9.53,404.07c28.27,17,125.61,29.48,230.7,27.45C353.17,429.34,458.8,410.83,454.82,390.65Z"/><path class="cls-2" d="M63.11,361.62c67.78-15.1,248.47-16.08,337.69,2.92,75.71,16.13,55.33,40.2-4.05,54-14.07,3.28-43.22,10.08-92.1,12.1-109.54,4.55-276.36-9-298.88-33.28C1.66,393,20.34,371.15,63.11,361.62Z"/><path class="cls-2" d="M315.45,355.48c106,8.38,181.56,41.39,116.14,63-55.5,18.32-190.34,21.1-286.43,13.92-22.77-1.7-69.95-5.22-99.67-13.67-66.61-18.94-60.21-53.35,59-64.09C126.22,352.67,248.55,350.19,315.45,355.48Z"/><rect class="cls-3" x="184.45" y="301.52" width="84.23" height="77.95" rx="11.12"/><path class="cls-4" d="M233.11,360.64c-7.33-2.62-14.65-2.62-22.5-2.1,7.33-7.85,13.08-16.74,20.93-24.59-12.56-6.8-29.3-8.37-43.42-13.08-1.05-.52-1.57-1.56-1.05-1.56,25.63-8.9,51.27-15.7,76.38-26.16-15.69-6.28-31.39-9.42-47.61-14.13-6.8-2.09-14.12-2.09-19.88-6.8,4.19-2.62,8.9-3.66,13.08-6.28,10.47-6.28,20.93-9.94,29.3-18.31-24.07-7.32-48.13-12.55-71.67-20.4,25.63-12.56,52.84-19.88,77.42-34-27.2-8.37-54.93-8.89-83.7-14.65-1.57-.52-4.19-1.56-2.62-2.61,20.93-19.36,48.66-29.3,65.92-51.79-20.93-2.1-41.85,0-62.78-1.57a6.81,6.81,0,0,1,3.14-4.19c22.5-19.36,41.33-41.33,54.93-67.49.65-1.13,1.29-2.28,2-3.44l-8.66-6.56L65.65,172.3,72.5,379.47l140.76-2.81c6.8-4.23,13.66-8.26,19.85-13.41C233.63,362.73,233.11,360.64,233.11,360.64Z"/><path class="cls-4" d="M394.24,154,248.14,43.29l-1.95,3.45c-13.61,26.16-32.44,48.13-54.94,67.49a6.84,6.84,0,0,0-3.13,4.18C209,120,230,117.89,250.89,120c-17.26,22.5-45,32.44-65.91,51.79-1.57,1,1,2.1,2.61,2.62,28.78,5.75,56.5,6.28,83.71,14.65-24.59,14.12-51.79,21.45-77.43,34,23.54,7.85,47.61,13.08,71.67,20.41-8.37,8.37-18.83,12-29.29,18.31-4.19,2.61-8.9,3.66-13.08,6.28,5.75,4.7,13.08,4.7,19.88,6.8,16.22,4.7,31.91,7.84,47.61,14.12-25.12,10.47-50.75,17.27-76.39,26.16-.52,0,0,1.05,1,1.57,14.13,4.71,30.87,6.28,43.42,13.08-7.85,7.85-13.6,16.74-20.92,24.59,7.84-.53,15.17-.53,22.49,2.09,0,0,.53,2.09,0,2.62-6.18,5.15-13,9.18-19.84,13.41l153.77-3.07Z"/><polygon class="cls-5" points="63.6 381.56 55.71 168.78 224.73 33.84 403.13 154.27 403.13 375.53 63.6 381.56"/><polygon class="cls-6" points="73.49 381.56 66.03 163.24 225.86 24.79 394.58 148.35 394.58 375.37 73.49 381.56"/><path class="cls-3" d="M372.94,213.23c4.81,16.7,9.14,32.48,13.91,48.13,4.2,13.76,8.45,27.56,15,40.45,1.74,3.44.39,5.5-2.16,7.35a25.14,25.14,0,0,1-11.32,4.25c-3.52.5-4.15,2.29-3.88,5.1,1.74,18.32,1.86,36.69,1.8,55.06a65.69,65.69,0,0,1-2.11,16.11c-.44,1.74-1,3.93-3.31,4.06s-3.14-1.83-3.93-3.51c-4.22-9-5.95-18.74-7.68-28.38-2.4-13.35-5.41-26.55-8.05-39.84-.77-3.84-2.29-5.49-6.34-5.07a91.27,91.27,0,0,1-10.2.07c-7.72-.09-7.89-.14-9.49,7.62-3.1,15.1-5.9,30.26-9,45.36-1.41,6.79-2.86,13.6-5.88,19.93-.88,1.84-1.74,4-4.22,3.75-2.21-.25-2.67-2.4-3.15-4.2a55.91,55.91,0,0,1-2-14.56c.07-19.23.13-38.45,1.35-57.64.19-3-.27-4.4-3.32-4.87a17.67,17.67,0,0,1-4.76-1.76c-5.72-2.75-6.29-4.82-3.69-10.77,11.32-25.87,18.45-53.09,25.87-80.22.6-2.2.49-4.25-1.35-5.46-2.13-1.39-3.93.31-5.37,1.68-6.18,5.93-10.65,13.23-15.73,20-4,5.31-7.71,10.8-12.61,15.34-1.63,1.51-3.44,3.19-5.84,2-2.08-1-2.21-3.23-2.23-5.33-.19-15.1,5.87-28.09,14.06-40.19,12.11-17.89,28.51-29.32,50.66-29.57,22.86-.26,39.61,11.51,52.07,29.83,7.81,11.49,13.4,24,14.06,38.17.13,2.73.33,5.94-2.61,7.17s-5-1.43-6.88-3.34c-8.94-9.18-15.24-20.41-23.4-30.21C379.14,217.36,377.07,215,372.94,213.23Z"/><path class="cls-3" d="M67.84,351.12C69.44,315.61,71.71,282.57,78,250c1.91-10,5.33-19.64,6.28-29.82a21.84,21.84,0,0,0,.06-4.57c-.5-4.23-2.88-5.29-6.18-2.61C74,216.29,71,220.66,67.81,224.88c-5.5,7.35-10.89,14.78-16.61,22-2,2.55-4.59,6.1-8.32,4.61s-3.06-5.85-2.65-9.08a81.12,81.12,0,0,1,26.36-50.89c28.49-26.08,69.52-20.26,92.69,15,6.58,10,11.41,20.84,13.18,32.81.63,4.26,2.39,9.9-2.28,12s-7.39-3.16-9.9-6.32c-6.24-7.85-12-16.05-18.11-24-1.95-2.56-4.2-4.89-6.4-7.25-1.3-1.4-2.89-2.67-4.93-1.91-2.36.86-2.52,3.28-2.37,5.19a69.83,69.83,0,0,0,1.9,13.07c7.53,27.31,10.64,55.31,12.68,83.4,1.59,22,3.2,44.1,1.28,66.22a42.53,42.53,0,0,1-1.36,8.52c-.63,2.1-.63,5.27-3.66,5.52s-3.72-2.64-4.62-4.74a89.83,89.83,0,0,1-5.59-20c-3.56-19.85-7.39-39.63-13.25-59a37,37,0,0,0-5.3-11.5c-2.88-3.89-5.13-3.9-8-.08a36.71,36.71,0,0,0-5.21,11c-5.73,17.44-9,35.42-12.12,53.45-1.5,8.69-3.36,17.32-6.61,25.55-.88,2.24-1.56,5.55-4.69,5.29-3.39-.28-3.57-3.82-4-6.32C67.51,374.59,67.59,361.65,67.84,351.12Z"/><path class="cls-7" d="M200.13,377.23a543.56,543.56,0,0,1,8-59.81,139.49,139.49,0,0,0,2.67-22.74c.13-4.4-1.41-7.23-5.24-9.53-9.45-5.68-19.11-11.09-27.44-18.44a25.12,25.12,0,0,1-6-6.87c-.87-1.66-1.55-3.59,0-5.24s3.22-.08,4.51.63c10,5.51,20.28,10.36,31.69,12,23.22,3.38,46,3.32,67.42-8.47,1.75-1,4-3.37,5.88-1.46s-.09,4.55-1.3,6.47c-7.26,11.54-17.68,19.13-30.58,23.11-4.08,1.26-5.42,3.19-5.32,7.21.28,11.13,3.47,21.75,5.61,32.53,3.33,16.86,4.75,33.93,6.34,51a45.44,45.44,0,0,1-1.16,14.18c-.35,1.59-.92,3.47-3,3.73s-3-1.47-3.77-2.91c-3.47-6.66-5.31-13.87-7-21.13-1.67-7.1-3.72-14.13-7.31-20.52-3.8-6.77-7.33-6.7-11.38-.23-5.63,9-6.85,19.43-9.92,29.27-1.36,4.37-2.51,8.81-4.87,12.79-.86,1.45-1.84,3.07-3.91,2.66-1.72-.35-2.21-1.92-2.68-3.4C199.92,387.6,200.47,383,200.13,377.23Z"/><path class="cls-3" d="M94.3,142.17a28.61,28.61,0,0,1,57.21,0,28.79,28.79,0,0,1-28.95,28.63A28.45,28.45,0,0,1,94.3,142.17Z"/><path class="cls-3" d="M334.29,117.54c15.77.08,27.89,12.44,27.79,28.33a28.16,28.16,0,0,1-56.31-.19C305.85,129.57,318.12,117.46,334.29,117.54Z"/><path class="cls-7" d="M207.58,242.67c0-11.84,8.74-20.79,20.4-20.83a20.7,20.7,0,0,1,21.1,20.83,21,21,0,0,1-20.84,20.81A20.79,20.79,0,0,1,207.58,242.67Z"/><path class="cls-8" d="M121.56,165.89A23.11,23.11,0,0,1,102.15,155C101,153.1,98.66,149.14,99.6,144c2.12-11.75,15.76-24.57,28.66-22.78,2.53.35,12.79,5.57,16.05,11.37h0c2.22,4,2.33,9.54.31,15.33-2.65,7.55-8.25,13.69-15,16.43A21.24,21.24,0,0,1,121.56,165.89Zm4.25-42.27c-10.75,0-21.87,11-23.63,20.79-.77,4.24,1.17,7.51,2.22,9.26,4.25,7.16,14.48,12.18,24.25,8.21,6-2.46,11.1-8,13.5-14.87,1.75-5,1.7-9.94-.13-13.19h0c-2.77-4.94-12.26-9.8-14.12-10.06A16.18,16.18,0,0,0,125.81,123.62Z"/><path class="cls-8" d="M124.48,161.37a28.32,28.32,0,0,1-11.93-2.59c-2.14-1-6.6-3.1-9-7.65-3-5.59-3.23-13.42-.69-19.94a19.19,19.19,0,0,1,11.37-11.55c2.38-.85,14.38-1.28,20.74,1.87,5,2.46,9,8,10.44,14.58s.23,13-3.45,17.71C137.8,159.07,131.13,161.37,124.48,161.37Zm-3.9-39.72a23,23,0,0,0-5.49.45,16.69,16.69,0,0,0-9.81,10c-2.27,5.84-2,12.82.58,17.77,2,3.77,5.92,5.62,7.8,6.51,8.21,3.86,20.27,3.34,26.23-4.24,3.19-4.05,4.27-9.7,3-15.51s-4.78-10.7-9-12.82h0C130.39,122.16,124.81,121.65,120.58,121.65Z"/><path class="cls-8" d="M105.47,147.21c-2.37-9.35,6-22.35,17.34-22.83,9.65-.42,17.65,8.34,19.95,16.72.55,2,1.68,6.11.08,10.16-3.57,9.08-16.65,16.68-26.78,10.87C114.21,161.07,107,153.12,105.47,147.21Z"/><path class="cls-9" d="M350,160.8c-7.17,6.19-24.13,3.36-31.44-7.63-6.19-9.32-3-20.8,3.36-26.53,1.49-1.35,4.6-4.17,9.28-4.27,10.5-.23,25.37,9.5,26.14,21.86C357.44,146.49,354.49,156.89,350,160.8Z"/><path class="cls-9" d="M349.19,155.18c-2.63,9.89-17,17.62-27.81,12.19-9.15-4.61-12-16.84-9.85-25.8.52-2.12,1.59-6.51,5.16-9.44,8-6.56,24-6.84,30.39,3.77C348.24,137.83,350.85,148.94,349.19,155.18Z"/><path class="cls-1" d="M327.44,126.29c9.21-4.44,24.45,1.46,27.35,13.17,2.47,9.93-4.93,20.08-13.15,24.24-1.95,1-6,3-10.52,2.22-10.18-1.79-20.82-13.76-16.93-25.5C314.89,138.28,321.62,129.08,327.44,126.29Z"/><path class="cls-10" d="M424.12,51.31c9,13.34.93,41.43-19.07,51.6-17,8.63-35.72.91-44.15-10.88-2-2.8-6.13-8.59-5.38-16.53,1.68-17.78,21-41,42.07-39.84C401.42,35.87,418.41,42.9,424.12,51.31Z"/><path class="cls-10" d="M408.36,38.6C424.54,45,434.76,70.83,423.47,88c-9.58,14.54-30.82,17-45.51,11.55-3.48-1.29-10.69-4-14.93-10.56-9.51-14.79-6.83-41.89,12.35-50.6C378.88,36.78,398.14,34.57,408.36,38.6Z"/><path class="cls-10" d="M359.43,77.86c-5.68-16.43,7.29-41,27.63-43.61,17.26-2.21,32.94,12.29,38.35,27,1.28,3.48,3.94,10.7,1.69,18.21-5,16.83-27.35,32.46-46.42,23.58C377.21,101.4,363,88.23,359.43,77.86Z"/><path class="cls-11" d="M335.13,27.74c-4.93,4.26-16.6,2.31-21.63-5.25a14.36,14.36,0,0,1,2.31-18.24,9.69,9.69,0,0,1,6.39-2.94c7.22-.16,17.45,6.53,18,15C340.27,17.9,338.24,25.05,335.13,27.74Z"/><path class="cls-11" d="M334.6,23.88c-1.81,6.8-11.72,12.12-19.13,8.38-6.29-3.17-8.28-11.58-6.78-17.74.36-1.46,1.1-4.49,3.55-6.5,5.49-4.51,16.51-4.7,20.91,2.6C334,12,335.74,19.58,334.6,23.88Z"/><path class="cls-11" d="M321.43,5.44c6.34-3.05,16.82,1,18.82,9.06,1.7,6.84-3.4,13.81-9.05,16.68-1.33.67-4.11,2.08-7.23,1.53-7-1.24-14.32-9.47-11.65-17.55C312.81,13.69,317.44,7.37,321.43,5.44Z"/><path class="cls-9" d="M81.84,109.33c0,5.74-8.12,12.33-16,11.27a12.68,12.68,0,0,1-10.74-12.14,8.54,8.54,0,0,1,1.77-5.93c4.1-4.88,14.47-7.76,20.41-3.17C78.31,100.2,81.87,105.7,81.84,109.33Z"/><path class="cls-9" d="M80.31,99.55c3.45,5.15,1.21,14.8-5.57,17.54-5.75,2.33-12.48-1.25-15.68-5.83a10.19,10.19,0,0,1-2.24-6.12c.2-6.26,6.48-13.67,13.87-12.33C72,93.05,78.13,96.3,80.31,99.55Z"/><path class="cls-9" d="M58,101.16C59.67,95.19,68.45,90.61,75,94c5.5,2.84,7.16,10.27,5.78,15.68a10.29,10.29,0,0,1-3.2,5.68c-4.88,3.91-14.59,4-18.38-2.49C58.45,111.66,57,104.92,58,101.16Z"/></g></g></svg>