<svg width="68" height="63" viewBox="0 0 68 63" fill="none" xmlns="http://www.w3.org/2000/svg">
<path d="M9.38853 28.9784C5.12358 28.3465 1.77165 25.0925 1.10822 21.0361" stroke="#8EB28E" stroke-miterlimit="10"/>
<path d="M55.371 19.4438C54.8678 17.0235 53.7805 14.763 52.2039 12.859C50.6272 10.955 48.609 9.46531 46.325 8.51968C44.0409 7.57405 41.5604 7.20114 39.0993 7.43343C36.6382 7.66572 34.2712 8.49615 32.2044 9.85242C30.1886 8.76169 27.9518 8.14209 25.6621 8.04017C23.3724 7.93825 21.0894 8.35668 18.9847 9.264C16.88 10.1713 15.0083 11.5439 13.5104 13.2787C12.0125 15.0134 10.9272 17.0651 10.3363 19.2795C7.05031 21.3892 4.70484 24.6852 3.78836 28.4811C2.87187 32.277 3.45501 36.2801 5.41634 39.6567C7.37766 43.0333 10.566 45.5232 14.3173 46.6078C18.0686 47.6923 22.0936 47.288 25.5542 45.479C27.9269 47.3845 30.8193 48.53 33.8533 48.7656C36.8874 49.0012 39.9219 48.316 42.5603 46.7995C45.3938 47.8679 48.4844 48.053 51.4251 47.3302C54.3706 46.6114 57.033 45.0262 59.0685 42.7792C61.1041 40.5321 62.4193 37.7265 62.8445 34.7245C63.2696 31.7225 62.785 28.6621 61.4534 25.9382C60.1218 23.2143 58.0042 20.9522 55.3741 19.4438H55.371Z" fill="white" stroke="#8EB28E" stroke-miterlimit="10"/>
<path d="M1.10821 21.0361C0.843767 19.2792 1.06621 17.4834 1.75134 15.8441C2.43647 14.2048 3.55805 12.7847 4.99405 11.7385" stroke="#8EB28E" stroke-miterlimit="10"/>
<path d="M5.5848 13.0054C6.23736 13.0054 6.76636 12.4764 6.76636 11.8238C6.76636 11.1713 6.23736 10.6422 5.5848 10.6422C4.93225 10.6422 4.40326 11.1713 4.40326 11.8238C4.40326 12.4764 4.93225 13.0054 5.5848 13.0054Z" fill="#8EB28E"/>
<path d="M66.8863 21.0361C67.1511 19.2788 66.9285 17.4826 66.2428 15.8431C65.557 14.2036 64.4344 12.7839 62.9973 11.7385" stroke="#8EB28E" stroke-miterlimit="10"/>
<path d="M24.9382 46.0034C22.9163 47.8358 22.3951 49.5228 22.2339 50.4579C21.52 54.606 25.3458 59.0257 31.8664 61.5973" stroke="#8EB28E" stroke-miterlimit="10"/>
<path d="M42.494 46.6131C44.5159 48.4455 44.6328 49.3996 44.7939 50.3347C45.5079 54.4827 41.6821 58.9025 35.1614 61.4709" stroke="#8EB28E" stroke-miterlimit="10"/>
<path d="M35.3478 62.8357C35.8608 62.8357 36.2766 62.3067 36.2766 61.6542C36.2766 61.0016 35.8608 60.4726 35.3478 60.4726C34.8348 60.4726 34.419 61.0016 34.419 61.6542C34.419 62.3067 34.8348 62.8357 35.3478 62.8357Z" fill="#8EB28E"/>
<path d="M31.819 63C32.332 63 32.7478 62.471 32.7478 61.8185C32.7478 61.1659 32.332 60.6369 31.819 60.6369C31.306 60.6369 30.8902 61.1659 30.8902 61.8185C30.8902 62.471 31.306 63 31.819 63Z" fill="#8EB28E"/>
<path d="M24.3885 17.8137C24.952 17.8146 25.499 18.0039 25.9426 18.3513C26.3862 18.6988 26.701 19.1845 26.8369 19.7313C27.017 19.0268 26.998 18.2465 25.9365 17.2292C25.5957 16.8861 25.1518 16.6642 24.6728 16.5974C24.3154 16.5523 23.9525 16.5842 23.6084 16.6909C23.2643 16.7976 22.947 16.9766 22.6777 17.2159C22.4085 17.4553 22.1935 17.7494 22.0472 18.0786C21.9009 18.4078 21.8267 18.7645 21.8295 19.1248C21.8309 19.3381 21.8596 19.5505 21.9149 19.7566C22.0469 19.2009 22.3634 18.7063 22.8126 18.3534C23.2618 18.0006 23.8173 17.8103 24.3885 17.8137Z" fill="#8EB28E"/>
<path d="M41.2145 17.8137C41.778 17.8146 42.325 18.0039 42.7686 18.3513C43.2122 18.6988 43.527 19.1845 43.6629 19.7313C43.843 19.0268 43.824 18.2465 42.7625 17.2292C42.4267 16.8897 41.9901 16.6681 41.5178 16.5974C41.1604 16.5523 40.7975 16.5842 40.4534 16.6909C40.1093 16.7976 39.792 16.9766 39.5227 17.2159C39.2535 17.4553 39.0385 17.7494 38.8922 18.0786C38.7459 18.4078 38.6717 18.7645 38.6745 19.1248C38.6759 19.3381 38.7045 19.5505 38.7598 19.7566C38.8911 19.204 39.2048 18.7118 39.6501 18.3593C40.0955 18.0068 40.6466 17.8146 41.2145 17.8137Z" fill="#8EB28E"/>
<path d="M23.5861 21.352C24.1042 21.9396 28.2775 26.492 34.7381 26.0908C39.4769 25.7907 42.3487 22.4324 43.189 21.611C36.5989 21.3236 30.1762 21.6332 23.5861 21.352Z" fill="#8EB28E"/>
<path d="M48.2469 1.60371C48.2663 1.40257 48.2456 1.19958 48.186 1.00651C48.1263 0.813447 48.0289 0.634144 47.8994 0.479027C47.7002 0.25408 47.4348 0.0980604 47.1413 0.0333541C46.8479 -0.0313523 46.5415 -0.00142129 46.2661 0.118871C45.6342 0.453749 45.5742 1.34149 45.5553 1.69848C45.4889 3.06326 46.4335 4.14056 46.999 4.66499C47.103 4.7623 47.2283 4.83386 47.3649 4.87392C47.5015 4.91397 47.6456 4.9214 47.7857 4.89561C48.3378 4.79795 48.8644 4.58948 49.3337 4.28274C49.716 4.03316 50.8059 3.33496 50.8501 2.21344C50.8501 2.10918 50.8817 1.24039 50.3099 0.908676C49.836 0.630665 49.2421 0.889731 49.0462 0.978189C48.7311 1.11571 48.4561 1.33093 48.2469 1.60371Z" fill="#8EB28E"/>
<path d="M62.3402 27.6452C63.5304 26.9373 64.5531 25.98 65.3379 24.8391C66.1227 23.6981 66.651 22.4007 66.8863 21.0361" stroke="#8EB28E" stroke-miterlimit="10"/>
<path d="M62.7098 12.9643C63.3624 12.9643 63.8914 12.4353 63.8914 11.7827C63.8914 11.1302 63.3624 10.6012 62.7098 10.6012C62.0573 10.6012 61.5283 11.1302 61.5283 11.7827C61.5283 12.4353 62.0573 12.9643 62.7098 12.9643Z" fill="#66AF5B"/>
</svg>
