<svg xmlns="http://www.w3.org/2000/svg" viewBox="0 0 255.54 360.23"><defs><style>.cls-1{fill:#8fb38e;}.cls-2,.cls-4{fill:none;stroke-miterlimit:10;}.cls-2{stroke:#69acc7;stroke-width:1.55px;}.cls-3{fill:#69acc7;}.cls-4{stroke:#7dc7ae;stroke-width:1.14px;}.cls-5{fill:#7dc7ae;}.cls-6{fill:#fff;}.cls-7{fill:#ffb23c;}.cls-8{fill:#a682ae;}</style></defs><g id="Layer_2" data-name="Layer 2"><g id="Layer_1-2" data-name="Layer 1"><path class="cls-1" d="M53.61,336.63H70.9l.33,6.91h-.6a10.7,10.7,0,0,0-2.84-4.88,7.54,7.54,0,0,0-4.81-1.3h-.93v10.81h1.5A3.45,3.45,0,0,0,66.21,347a6.48,6.48,0,0,0,1.46-3.19h.5v9.84H67.6a7.78,7.78,0,0,0-1.48-3.56A3.26,3.26,0,0,0,63.55,349h-1.5v10.14h4.12v.73H53.61v-.73h2V337.36h-2Z"/><path class="cls-1" d="M83.36,345a2.61,2.61,0,0,0-2.16,1.59,7.42,7.42,0,0,0-.93,3.79v8.91h2.36v.6H72.26v-.6h1.83V344.67H72.26v-.59h8v3.19a4.52,4.52,0,0,1,1.66-2.61,4.57,4.57,0,0,1,2.8-.92,3.7,3.7,0,0,1,2.54.88,3.2,3.2,0,0,1,1,2.5,3.74,3.74,0,0,1-.73,2.48,2.81,2.81,0,0,1-2.25.86,2.53,2.53,0,0,1-2.22-1,3.07,3.07,0,0,1-.19-2.76h1.2C84.61,345.57,84.38,345,83.36,345Z"/><path class="cls-1" d="M88.58,344.08h8.15V359.3h1.86v.6H88.71v-.6h1.83V344.67h-2Zm5-2.3a3.11,3.11,0,0,1-2.51-.9,3.33,3.33,0,0,1-.75-2.22,3.06,3.06,0,0,1,.82-2.2,3.27,3.27,0,0,1,2.48-.86,3.64,3.64,0,0,1,2.52.78,2.83,2.83,0,0,1,.87,2.23,3.19,3.19,0,0,1-.84,2.31A3.45,3.45,0,0,1,93.6,341.78Z"/><path class="cls-1" d="M101.56,358a8.45,8.45,0,0,1-2.14-6.15,7.54,7.54,0,0,1,2.41-6,9,9,0,0,1,6.13-2.1q7.55,0,7.25,7.58h-9.37v1.3a11.3,11.3,0,0,0,.83,4.92,3,3,0,0,0,2.89,1.66q3.85,0,5-4.12l.6.1a6.8,6.8,0,0,1-2.28,3.72,7.69,7.69,0,0,1-4.93,1.33C105.14,360.23,103,359.5,101.56,358Zm4.31-7.36h3.42V349a14.06,14.06,0,0,0-.31-3.67,1.24,1.24,0,0,0-1.27-1,1.46,1.46,0,0,0-1.39,1,10.11,10.11,0,0,0-.45,3.61Z"/><path class="cls-1" d="M116.47,344.08h8v3.06a5.57,5.57,0,0,1,1.62-2.47,5.07,5.07,0,0,1,3.33-.93q5.15,0,5.15,5.56v10h1.86v.6h-9.4v-.6h1.36V348.5a7.59,7.59,0,0,0-.27-2.58,1,1,0,0,0-1-.58,2.29,2.29,0,0,0-1.88,1.4,6.65,6.65,0,0,0-.81,3.39v9.17h1.43v.6h-9.45v-.6h1.83V344.67h-1.83Z"/><path class="cls-1" d="M148.19,359.9l-.37-2.33c-.75,1.78-2.28,2.66-4.58,2.66a5.25,5.25,0,0,1-4.44-2.06c-1.06-1.37-1.58-3.42-1.58-6.15q0-8.28,6.58-8.28c1.95,0,3.24.55,3.86,1.63v-9.8h-2V335h8.31V359.3h1.63v.6ZM144,357.66a1.38,1.38,0,0,0,1.35,1.14,2.13,2.13,0,0,0,1.69-.86,3.93,3.93,0,0,0,.72-2.56v-7.25a4.79,4.79,0,0,0-.57-2.42,1.8,1.8,0,0,0-1.66-1c-.73,0-1.23.49-1.5,1.46a22.61,22.61,0,0,0-.4,5.12V353A18.74,18.74,0,0,0,144,357.66Z"/><path class="cls-1" d="M156.87,360.23v-6h.4a8,8,0,0,0,2.32,4.06,5.74,5.74,0,0,0,3.66,1.16q3.39,0,3.39-2.16a1.53,1.53,0,0,0-.83-1.4,11.55,11.55,0,0,0-3.33-1.13,13,13,0,0,1-3.79-1.59,4.21,4.21,0,0,1-1.82-3.79,5.51,5.51,0,0,1,1.59-4.14,5.87,5.87,0,0,1,4.26-1.55,8.26,8.26,0,0,1,3.35.77,2.74,2.74,0,0,0,1,.26.73.73,0,0,0,.56-.23,3.47,3.47,0,0,0,.57-.86h.36v5.08h-.39c-1.13-2.88-2.89-4.32-5.26-4.32a4,4,0,0,0-2.32.55,1.66,1.66,0,0,0-.77,1.38,1.23,1.23,0,0,0,.23.78c.16.19.28.33.37.42a1.67,1.67,0,0,0,.43.28l.5.23a6.4,6.4,0,0,0,.62.22,4,4,0,0,0,.61.16,25.23,25.23,0,0,1,3.26,1,10.4,10.4,0,0,1,1.89,1,4.59,4.59,0,0,1,1.83,4.07,5.35,5.35,0,0,1-1.66,4.26,6.73,6.73,0,0,1-4.55,1.44,8.82,8.82,0,0,1-4-1,1.29,1.29,0,0,0-.64-.27c-.48,0-1,.41-1.42,1.23Z"/><path class="cls-2" d="M204.59,103.17c-16.88,16.7-59.77,12.53-79.91-13.7-17.08-22.25-11-51.5,3.86-66.89,3.51-3.65,10.78-11.21,22.48-12.26,26.21-2.37,65,19.4,69.08,50.18C220.84,66.11,215.24,92.63,204.59,103.17Z"/><path class="cls-2" d="M218.75,76.9c-4.88,25.17-39.56,47-67.44,35.23-23.66-9.95-33-40.06-29-62.81.93-5.4,2.87-16.57,11.28-24.49,18.85-17.77,58.84-21.21,76.63,4.23C213.43,33.7,221.83,61,218.75,76.9Z"/><path class="cls-3" d="M217.25,83.29c-8.85,21.14-48.34,32.71-75.72,16.2-23.23-14-28.47-42.63-21-61.85,1.78-4.55,5.46-14,15.43-19.12C158.34,7,200.64,12.8,215.44,39.18,218.13,44,222.84,70,217.25,83.29Z"/><path class="cls-2" d="M120.49,48.34c4.67-25.19,39.17-47.27,67.14-35.81,23.72,9.73,33.28,39.71,29.52,62.48-.89,5.39-2.73,16.57-11.07,24.57-18.7,17.91-58.66,21.71-76.64-3.53C126.16,91.44,117.54,64.23,120.49,48.34Z"/><path class="cls-4" d="M79.53,165.25C48,157,23.22,111.19,40.39,76.79,55,47.6,93.92,38.27,122.47,45.14c6.76,1.62,20.77,5,30.14,16.32,21,25.37,22,76.39-11.69,96.86C134.77,162.05,99.43,170.46,79.53,165.25Z"/><path class="cls-4" d="M50.26,159.24C30.45,136.45,39.28,82.38,74.21,59c29.64-19.85,66.23-9.67,84.54,10.39,4.34,4.76,13.33,14.61,13.7,29.53.85,33.45-30,80.92-69.35,83.51C95.92,182.9,62.75,173.61,50.26,159.24Z"/><path class="cls-4" d="M78.17,168.59C46.64,160.32,21.86,114.53,39,80.13c14.57-29.19,53.53-38.52,82.07-31.65,6.76,1.62,20.78,5,30.14,16.32,21,25.37,22.05,76.39-11.68,96.86C133.42,165.39,98.07,173.8,78.17,168.59Z"/><path class="cls-5" d="M135.9,169.91c-27.37,20.27-81.46,10.72-98.8-25.55C22.39,113.58,40,75.86,64.28,57.11,70,52.67,82,43.47,97.43,43.2c34.68-.6,77.67,31.62,72.69,72.32C169.21,122.94,153.17,157.12,135.9,169.91Z"/><path class="cls-6" d="M116.46,129.46l1,.06c3.77-4.77,9.2-8.39,9.56-15.42.21-4.2-3-10-7.23-11-3-.73-4.81.4-4.79,3.4,0,5.86.2,11.72.47,17.57A38.65,38.65,0,0,0,116.46,129.46Z"/><path class="cls-6" d="M173.44,101.79c2.19.78,4.42,1.79,6.76,2.37,3.63.89,6.48,2.69,8.12,6,2.26,4.51,4.19,9.17,6.54,13.62a12.3,12.3,0,0,0,3.74,3.9c.91.66,2.33.62,4.14,1-3.92-6.16-3.83-6.7,1.22-10.36l-2.3-6.34c-.9-2.46-1.71-5-2.7-7.38s-1.62-5.1-3.28-6.91a38,38,0,0,0-15-10.44c-5.12-1.86-11.38,1.43-12.3,6.76a71.57,71.57,0,0,0-.52,7.56l5.84,1.08C173.51,102,173.4,101.65,173.44,101.79Z"/><path class="cls-6" d="M70.69,80.69l-.54-.61c-5.3,4-10.74,7.85-15.82,12.11-1.81,1.52-3.4,3.85-1.92,7.71Z"/><path class="cls-6" d="M161.12,116.49c4,.32,7.89,1,11.82,1.56s6.63,2.85,8.5,6.51c2.62,5.11,5.87,9.91,8.92,15,2.85-3.11,3.93-3.33,7-1.38-.31-1-.44-1.55-.63-2-3.26-8.62-6.37-17.31-9.94-25.81a8.46,8.46,0,0,0-4.82-4.14,102.39,102.39,0,0,0-14-3.08c-1.4-.23-3.71.09-4.32,1a52.94,52.94,0,0,0-5,9.53C158,115.24,159,116.31,161.12,116.49Z"/><path class="cls-6" d="M246.74,164.57c.1-6.19-2.32-11.61-4.84-17-3.38-7.31-7.84-14.18-9.32-22.24-.46-2.49-1.08-5-1.36-7.47a30.79,30.79,0,0,0-4.83-14c-4-6-3.51-12.93-4.19-19.61a14.29,14.29,0,0,0-1-4.72c-1.27-2.65-3.73-3-5.7-.79A18.65,18.65,0,0,0,210.73,95c1.76,11.16,3.08,22.32,1.6,33.72-.58,4.45.85,9.14,1.31,13.26-3-3.27-2.75-8-2.93-12.73-5.78-.8-12.66,3.14-16.43-4.45l-.52.51a13,13,0,0,0,.67,2c2.51,4.69,4.35,9.53,4.57,14.93.18,4.29-1,5.41-4.85,4.29.31,2,1.32,4.25.83,6.17-.75,3-3.75,1.1-5.94,1.52.34,2.39,2.2,3.41,4,4.36,3.33,1.77,6.8,3.3,10.09,5.14,3.75,2.09,7.68,4.06,11,6.74,4.63,3.77,6.51,9.25,7.77,14.87a1.86,1.86,0,0,1-.1.8c0,.15-.2.26-.09.13-1.8-3.94-3-8.51-5.69-11.95s-6.63-5.93-10.41-8.25c-4.06-2.49-8.69-4.06-12.8-6.46-1.93-1.13-3.24-3.25-4.8-4.95-.24-.25-.27-.7-.53-.91-3.11-2.5-6.23-5-9.54-7.58a18.9,18.9,0,0,1-13.47,8.75c2.39-1.26,5-2.26,7.1-3.84s3.88-3.82,5.77-5.74l-7.43-9.05-9,2.88-.25-.66,7.87-2.83c-.05-.23-.1-.47-.14-.71l-10.76-1.71c0-.21.07-.42.11-.63,3.79.29,7.58.54,11.36.9.37,0,.66.72,1,1.09q7.41,8,14.85,16.07a5.16,5.16,0,0,0,2,1c-1.39-2.38-2.49-4.79.11-6.82,1-.77,2.52-.88,4.17-1.41-.44-.79-1.16-2.16-1.95-3.49-3.35-5.62-6.61-11.3-10.15-16.81a7.54,7.54,0,0,0-4.15-3.22,139.85,139.85,0,0,0-17.25-2.66c-4.64-.37-7.75,2.79-7.23,7.23a100.47,100.47,0,0,0,3,14.31c.39,1.45,2,2.58,3.43,4.3-6.39-4.31-12.24-8.25-17.87-12l-10.08,10.66c5.61,5.22,11.59,10.56,17.29,16.17,4,3.95,8.42,7.83,11.35,12.52,7.5,12,17.39,21.49,29.1,29.42,1.32.89,2.56,1.89,3.81,2.88h63.76a15.12,15.12,0,0,1-.82-1.9C249.43,189.11,246.56,177.09,246.74,164.57Z"/><path class="cls-6" d="M137.85,122.43c0-2.94.84-5.87,1.29-8.82-5.43-1.89-5.59-2.55-2.42-10.94l-.47-.67c-1.43,1-3.11,1.87-4.24,3.16-3.4,3.9-3.83,8.89-4.9,13.65a8.83,8.83,0,0,1-2.07,3.85q-6,6.44-12.2,12.59a8,8,0,0,1-3.66,2.06c-4.13.91-8.32,1.54-12.53,2.29v7.19l-.54.13a10.41,10.41,0,0,1-.61-2.83c.35-6.29.82-12.58,1.22-18.88a69,69,0,0,0,.3-7c-.12-3.19-1.83-5.58-4.64-7.53a29.09,29.09,0,0,0-1.77,17.24c-1.84-3.22-2.15-7.91-1-12.49s2.4-9.11,3.21-13.72c.65-3.7-1.08-6.65-4.18-8.87-1.65-1.18-2.7-.94-3.85.72-3.94,5.63-6.76,11.63-7,18.57a16.54,16.54,0,0,1-.28,1.65c-1.1-3.74-.31-9.68,2-13.81,2.1-3.71,4.52-7.25,6.86-10.84s2.38-4.67.15-7.84-6.14-5-9-4.27a5.46,5.46,0,0,0-2.34,1.35,137.29,137.29,0,0,0-9.74,10c-6.55,8-14.81,13.76-23.87,18.73a138.54,138.54,0,0,0-13.79,9c-1.63,1.17-2.72,3.05-4.07,4.6l-.66-.52c1.9-2.19,3.54-4.67,5.76-6.49a78,78,0,0,1,9-5.9,5.83,5.83,0,0,0,2.9-3.62c1.09-3.71,2.66-7.31,4.1-10.92A27.65,27.65,0,0,0,46.31,79.4,7.15,7.15,0,0,0,44.91,76a21,21,0,0,1-.36,2.08c-1.89,6.75-1.19,6.94-9,5.46-.62-.11-1.23-.33-1.8-.49-.22.11-.48.16-.53.28C30.6,90,26.42,95.66,22,101.3c-1.19,1.52-1.44,3.77-2,5.72-1.26,4.7-2.19,9.48-3.7,14.1a61.53,61.53,0,0,1-4.49,9.9,42.51,42.51,0,0,0-5.11,23,166.9,166.9,0,0,1-4.56,48.73,1.92,1.92,0,0,1-.2.55H52.69c1.07-1.57,2.09-3.18,3.27-4.68C62,191,68.46,184,77,178.8a89.82,89.82,0,0,0,13.8-10.89c4.66-4.28,9.23-8.45,14.75-11.81,7.08-4.31,13.57-9.55,20.31-14.39.67-.48,1.3-1,2-1.44C134.78,136.21,137.89,130.25,137.85,122.43Z"/><path class="cls-7" d="M211.62,141.73c-2.9-3.27-2.69-8-2.87-12.73-5.63-.79-12.35,3.14-16-4.45l-.51.52a13.26,13.26,0,0,0,.66,2A34.87,34.87,0,0,1,197.32,142c.18,4.29-1,5.41-4.73,4.29.31,2,1.29,4.25.82,6.18-.74,3-3.67,1.09-5.81,1.51.34,2.39,2.15,3.41,3.9,4.36,3.25,1.77,6.63,3.3,9.84,5.14,3.67,2.1,7.5,4.06,10.71,6.74,4.52,3.77,6.36,9.25,7.59,14.88a1.82,1.82,0,0,1-.1.79c0,.15-.19.26-.09.13-1.75-3.94-2.92-8.51-5.56-11.94s-6.47-5.94-10.16-8.26c-3.95-2.49-8.47-4.06-12.49-6.46-1.88-1.12-3.16-3.25-4.68-4.94-.23-.26-.27-.71-.52-.92-3-2.49-6.08-5-9.31-7.58a18.45,18.45,0,0,1-13.15,8.75c2.33-1.26,4.86-2.25,6.93-3.84a51.76,51.76,0,0,0,5.63-5.74l-7.25-9-8.78,2.87-.24-.66,7.67-2.82-.14-.72L156.91,133l.1-.62c3.7.28,7.4.53,11.09.89.36,0,.64.72,1,1.1q7.23,8,14.49,16.06a4.85,4.85,0,0,0,2,1c-1.36-2.37-2.43-4.79.1-6.81,1-.78,2.46-.89,4.07-1.42-.43-.79-1.13-2.16-1.9-3.49-3.27-5.62-6.45-11.3-9.91-16.8a7.39,7.39,0,0,0-4-3.23A133.29,133.29,0,0,0,157,117.07c-4.53-.37-7.57,2.8-7.06,7.23a104.25,104.25,0,0,0,2.9,14.31c.38,1.45,2,2.58,3.35,4.3l-17.44-12-9.84,10.67c5.48,5.22,11.32,10.56,16.88,16.16,3.93,4,8.21,7.83,11.07,12.52,7.33,12,17,21.5,28.41,29.42,1.55,1.08,3,2.32,4.48,3.51.18.14.25.42.58,1a8.39,8.39,0,0,1-1.69-.63c-12.89-9.06-24.63-19.14-32.9-33-2.9-4.84-7.62-8.6-11.57-12.79-2-2.16-4.19-4.22-6.33-6.28-3.36-3.24-6.76-6.45-10.2-9.73-2.88,2.15-5.37,4.09-8,5.91-5.46,3.83-11,7.49-16.42,11.42-2.9,2.12-5.46,4.71-8.23,7-5.89,4.91-11.49,10.27-17.81,14.54-8.06,5.44-14,12.76-19.9,20.16-.85,1.06-1.7,2.13-2.54,3.2l-.63-.47c1.18-1.74,2.27-3.55,3.54-5.2,5.88-7.62,12.2-14.68,20.55-19.86a87.6,87.6,0,0,0,13.47-10.89c4.54-4.27,9-8.45,14.39-11.81,6.91-4.3,13.24-9.55,19.83-14.39.65-.48,1.27-1,2-1.44,6.73-4.05,9.76-10,9.73-17.84,0-2.93.82-5.87,1.26-8.82-5.31-1.89-5.45-2.55-2.37-10.94l-.45-.67c-1.4,1-3,1.87-4.14,3.17-3.32,3.89-3.74,8.88-4.78,13.64a9,9,0,0,1-2,3.86q-5.82,6.42-11.91,12.58a7.72,7.72,0,0,1-3.57,2.06c-4,.91-8.13,1.54-12.24,2.29v7.19l-.52.13a10.69,10.69,0,0,1-.6-2.83c.34-6.29.8-12.58,1.2-18.88.14-2.34.37-4.69.29-7-.12-3.18-1.79-5.57-4.53-7.53a29.65,29.65,0,0,0-1.73,17.25c-1.8-3.23-2.1-7.92-1-12.49s2.34-9.11,3.13-13.73c.63-3.7-1-6.65-4.08-8.87-1.61-1.17-2.63-.93-3.76.72C82,98.89,79.21,104.88,79,111.83a16.18,16.18,0,0,1-.27,1.64c-1.07-3.73-.3-9.68,2-13.81,2.06-3.71,4.42-7.25,6.7-10.83s2.33-4.68.15-7.84-6-5-8.78-4.27a5.17,5.17,0,0,0-2.29,1.34,135.87,135.87,0,0,0-9.5,10c-6.4,8-14.46,13.76-23.3,18.73a134,134,0,0,0-13.46,9c-1.59,1.17-2.66,3.05-4,4.61l-.65-.53c1.85-2.19,3.46-4.67,5.62-6.49a74.05,74.05,0,0,1,8.76-5.89,5.88,5.88,0,0,0,2.83-3.62c1.07-3.72,2.59-7.31,4-10.93a28.31,28.31,0,0,0,1.52-13.88,7.32,7.32,0,0,0-1.36-3.42,20.06,20.06,0,0,1-.36,2.08c-1.84,6.75-1.16,6.94-8.76,5.47-.61-.12-1.2-.34-1.75-.5-.23.11-.48.16-.53.28C33,89.68,28.88,95.39,24.6,101c-1.15,1.52-1.4,3.77-1.92,5.73-1.22,4.69-2.14,9.48-3.61,14.09a64.23,64.23,0,0,1-4.38,9.91,43.31,43.31,0,0,0-5,23,171.1,171.1,0,0,1-4.45,48.73,2.06,2.06,0,0,1-1.09,1.42,16.35,16.35,0,0,1,0-2.8C5.31,194.54,7,188,7.55,181.38a252.24,252.24,0,0,0,.74-27.9c-.33-10.28,3.1-19.27,7.43-28.24,2.21-4.6,3.58-9.61,5.3-14.45a3.73,3.73,0,0,0,.34-1.85c-1-4.77,1.53-8.27,4.31-11.48,4.16-4.8,6.75-10.4,9.42-16a65.17,65.17,0,0,1,6.09-10.22c2.23-3.08,3.64-2.43,5.48.88,4.52,8.09,3.2,16,0,24a47.33,47.33,0,0,0-2.78,9.09c2.29-1.37,4.62-2.7,6.87-4.16a2.17,2.17,0,0,0,.8-1.56c.15-4.8,2.93-8.24,6.38-10.88,5.29-4.07,10.93-7.7,16.5-11.38,6.85-4.52,14.14.35,15.89,7.26.41,1.62-1.18,3.74-1.92,5.83,6.81,3.52,7.66,9.43,5.61,16.3-.53,1.75-.35,2.9,1.27,4.1a8.63,8.63,0,0,1,3.61,7.55c-.27,4.68-.9,9.34-1.35,14-.19,2-.31,4.09-.47,6.22a91.24,91.24,0,0,1,9.38-1.72c4.47-.37,6.8-3.74,9.18-5.67-.41-4.43-.65-8.34-1.16-12.21-.36-2.66-1.36-5.24-1.59-7.9a49.85,49.85,0,0,1,.23-8.63c.16-1.86,1.38-2.33,3.14-1.6a18.75,18.75,0,0,0,3.31,1A9.94,9.94,0,0,1,126,106.3c.63,1,1.13,2,1.85,3.27.83-1.54,1.48-2.88,2.27-4.14,1.54-2.47,3.38-4.41,6.69-4.31.81,0,1.66-.89,2.46-1.41,1.59-1,2.81-.58,2.81,1.21a48.85,48.85,0,0,1-.82,7.2c-.95,6.41-2,12.8-2.85,19.23a4,4,0,0,0,1.43,3.2c3.58,2.56,7.36,4.85,11.48,7.49-.72-3.54-1.43-6.65-2-9.79-1.41-7.91-.09-10.09,7.46-12.42-.72-5,2.16-8.7,4.81-12.47.41-.58,1-1.31,1.58-1.44,3.16-.67,3-3.06,2.93-5.39-.21-5.6,3-8.88,7.59-11.13a4.68,4.68,0,0,1,2.89-.28c8.53,1.89,15.1,6.83,20.15,13.72,1.3,1.78,1.34,4.44,2.14,6.62,1.86,5.09,3.89,10.12,5.73,15.22.79,2.18,1.27,4.47,2,7,1.5.46,2.56.16,2.67-2,.32-6.66,1.1-13.25-.35-20a97.51,97.51,0,0,1-1.6-14.81c-.3-5.06,1.9-9.29,5.25-13,.67-.73,1.35-1.45,2-2.23,1.77-2.25,3.34-2.4,4.45.23A30.89,30.89,0,0,1,221.08,85c.65,6.74.83,13.44,4.8,19.46,1.87,2.85,2.87,6.4,3.72,9.77,1.36,5.41,1.87,11.06,3.48,16.38,1.34,4.44,3.76,8.54,5.69,12.79,1.2,2.63,2.75,5.17,3.52,7.92,1.21,4.3,2.59,8.74,2.64,13.14.1,8.06,1.62,15.81,3.47,23.54,1.18,4.91,2.61,9.76,3.92,14.64a1.42,1.42,0,0,1-.35,1.45,34.94,34.94,0,0,1-1.54-3.43c-3.88-11.81-6.69-23.83-6.51-36.34.09-6.2-2.27-11.61-4.72-17.06-3.3-7.31-7.66-14.18-9.1-22.24-.45-2.49-1-5-1.33-7.47a31.2,31.2,0,0,0-4.72-14c-3.9-6-3.42-12.92-4.08-19.61a14.42,14.42,0,0,0-1-4.71c-1.24-2.66-3.63-3-5.56-.8a19,19,0,0,0-4.68,16.33c1.72,11.17,3,22.33,1.57,33.72C209.77,132.92,211.16,137.61,211.62,141.73ZM167,101.3l5.7,1.07-.28-.86a65.16,65.16,0,0,0,6.6,2.37c3.53.89,6.32,2.7,7.92,6,2.2,4.51,4.09,9.17,6.38,13.62a12.18,12.18,0,0,0,3.66,3.91c.88.65,2.27.62,4,1-3.83-6.16-3.74-6.69,1.18-10.36l-2.24-6.34c-.87-2.46-1.67-5-2.64-7.37s-1.57-5.11-3.2-6.91A37,37,0,0,0,179.48,87c-5-1.86-11.11,1.44-12,6.76A74.56,74.56,0,0,0,167,101.3Zm28.78,36.56c-.3-1-.43-1.55-.61-2-3.18-8.62-6.22-17.3-9.7-25.81a8.32,8.32,0,0,0-4.71-4.13A99.29,99.29,0,0,0,167,102.79c-1.35-.23-3.62.09-4.21,1a53.72,53.72,0,0,0-4.85,9.53c-.66,1.65.3,2.72,2.4,2.9,3.86.32,7.7,1,11.54,1.56s6.47,2.85,8.3,6.51c2.56,5.11,5.73,9.91,8.7,15C191.67,136.14,192.73,135.91,195.74,137.86Zm-79-8.67,1,.05c3.68-4.77,9-8.38,9.33-15.42.21-4.2-3-10-7.06-11-2.94-.73-4.69.41-4.68,3.4,0,5.86.21,11.72.47,17.57A40.5,40.5,0,0,0,116.76,129.19ZM54.25,99.62,72.09,80.41l-.53-.61c-5.17,4-10.48,7.85-15.44,12.11C54.35,93.43,52.8,95.77,54.25,99.62Z"/><path class="cls-7" d="M213.76,144.34c-3-3.27-2.75-8-2.93-12.73-5.78-.8-12.66,3.14-16.43-4.45l-.52.51a13.42,13.42,0,0,0,.67,2c2.51,4.69,4.35,9.53,4.57,14.93.18,4.28-1,5.41-4.85,4.28.31,2,1.32,4.26.83,6.18-.75,3-3.75,1.1-5.94,1.52.34,2.39,2.2,3.41,4,4.36,3.33,1.77,6.8,3.3,10.09,5.14,3.75,2.09,7.68,4.06,11,6.74,4.63,3.77,6.51,9.25,7.77,14.87a1.86,1.86,0,0,1-.1.8c0,.15-.2.26-.09.13-1.8-3.94-3-8.51-5.69-12s-6.63-5.94-10.41-8.26c-4.06-2.48-8.69-4-12.8-6.45-1.93-1.13-3.24-3.25-4.8-5-.24-.25-.27-.7-.53-.91-3.11-2.5-6.23-5-9.54-7.58a18.93,18.93,0,0,1-13.47,8.75c2.39-1.26,5-2.26,7.1-3.85s3.88-3.81,5.77-5.73L170,138.64l-9,2.88-.25-.66,7.87-2.83-.14-.71-10.76-1.72.11-.62c3.79.29,7.58.54,11.36.9.37,0,.66.72,1,1.09Q177.59,145,185,153a5,5,0,0,0,2,1.06c-1.39-2.38-2.49-4.79.11-6.82,1-.77,2.52-.88,4.17-1.41-.44-.79-1.16-2.16-1.95-3.49-3.35-5.63-6.61-11.3-10.15-16.81a7.54,7.54,0,0,0-4.15-3.22,139.85,139.85,0,0,0-17.25-2.66c-4.64-.37-7.75,2.79-7.23,7.23a100.47,100.47,0,0,0,3,14.31c.39,1.45,2,2.58,3.43,4.3-6.39-4.31-12.24-8.25-17.87-12L129,144.15c5.61,5.22,11.59,10.56,17.29,16.17,4,4,8.42,7.83,11.35,12.51,7.5,12,17.39,21.5,29.1,29.43,1.59,1.08,3.08,2.32,4.59,3.5.19.15.25.42.59,1a8.86,8.86,0,0,1-1.73-.64C177,197.1,165,187,156.53,173.21c-3-4.84-7.81-8.6-11.86-12.79-2.09-2.16-4.29-4.22-6.49-6.28-3.44-3.24-6.91-6.45-10.44-9.73-3,2.15-5.51,4.09-8.15,5.9-5.59,3.83-11.31,7.49-16.82,11.43-3,2.12-5.6,4.7-8.44,7-6,4.91-11.76,10.27-18.24,14.54-8.26,5.45-14.31,12.76-20.39,20.17l-2.61,3.19-.64-.47c1.21-1.74,2.32-3.54,3.63-5.2,6-7.62,12.5-14.67,21-19.85a89.82,89.82,0,0,0,13.8-10.89c4.66-4.28,9.23-8.45,14.75-11.81,7.08-4.31,13.57-9.55,20.31-14.39.67-.48,1.3-1,2-1.44,6.9-4.06,10-10,10-17.84,0-2.94.84-5.87,1.29-8.83-5.43-1.88-5.58-2.54-2.42-10.93l-.47-.67c-1.43,1-3.11,1.87-4.24,3.16-3.4,3.9-3.83,8.89-4.9,13.65a8.83,8.83,0,0,1-2.07,3.85q-6,6.42-12.2,12.59a8,8,0,0,1-3.66,2.06c-4.13.91-8.32,1.54-12.53,2.28v7.2l-.54.12a10.27,10.27,0,0,1-.61-2.82c.35-6.3.82-12.59,1.22-18.88a69.07,69.07,0,0,0,.3-7c-.12-3.18-1.83-5.57-4.64-7.52a29.08,29.08,0,0,0-1.77,17.24c-1.84-3.23-2.15-7.91-1-12.49s2.4-9.11,3.21-13.73c.65-3.69-1.08-6.64-4.18-8.86-1.65-1.18-2.7-.94-3.85.72-3.94,5.63-6.76,11.63-7,18.57a16.45,16.45,0,0,1-.28,1.64c-1.1-3.73-.31-9.67,2-13.8,2.1-3.71,4.52-7.25,6.86-10.84s2.38-4.67.15-7.84-6.14-5-9-4.27a5.46,5.46,0,0,0-2.34,1.35,135.3,135.3,0,0,0-9.74,10c-6.55,8-14.81,13.76-23.87,18.72a138.64,138.64,0,0,0-13.79,9c-1.63,1.17-2.72,3.05-4.06,4.6l-.67-.52c1.9-2.19,3.54-4.67,5.76-6.49a76.68,76.68,0,0,1,9-5.9,5.83,5.83,0,0,0,2.9-3.62c1.09-3.72,2.66-7.31,4.1-10.92a27.67,27.67,0,0,0,1.56-13.89A7.16,7.16,0,0,0,45,78.31a21,21,0,0,1-.36,2.08c-1.89,6.75-1.19,6.94-9,5.46-.62-.12-1.23-.33-1.79-.49-.23.11-.49.15-.54.28-2.64,6.65-6.82,12.35-11.2,18-1.19,1.52-1.44,3.77-2,5.72-1.26,4.7-2.19,9.48-3.7,14.1a61.53,61.53,0,0,1-4.49,9.9,42.51,42.51,0,0,0-5.11,23,167,167,0,0,1-4.56,48.73,2.05,2.05,0,0,1-1.12,1.43,16.33,16.33,0,0,1,0-2.8c1.16-6.59,2.92-13.12,3.46-19.75a245.18,245.18,0,0,0,.75-27.9c-.33-10.28,3.18-19.27,7.62-28.25,2.27-4.6,3.66-9.61,5.42-14.44a3.55,3.55,0,0,0,.35-1.85c-1-4.77,1.58-8.27,4.42-11.48,4.27-4.8,6.92-10.4,9.66-16A63.58,63.58,0,0,1,39.14,73.8c2.29-3.08,3.73-2.43,5.62.87,4.63,8.1,3.28,16,0,24a46.64,46.64,0,0,0-2.85,9.1c2.35-1.37,4.73-2.71,7-4.16a2.19,2.19,0,0,0,.82-1.56c.15-4.81,3-8.24,6.53-10.89,5.43-4.06,11.2-7.69,16.91-11.38,7-4.52,14.49.35,16.28,7.27.42,1.62-1.21,3.74-2,5.83,7,3.51,7.85,9.43,5.75,16.29-.54,1.76-.36,2.91,1.3,4.11a8.54,8.54,0,0,1,3.7,7.55c-.28,4.68-.92,9.34-1.38,14-.2,2-.32,4.08-.49,6.22,3.46-.64,6.51-1.48,9.62-1.73,4.57-.36,7-3.73,9.4-5.66-.41-4.44-.66-8.34-1.19-12.21-.36-2.66-1.39-5.24-1.62-7.9a47.91,47.91,0,0,1,.23-8.63c.17-1.86,1.42-2.33,3.22-1.6a18.73,18.73,0,0,0,3.39,1,10.15,10.15,0,0,1,6.57,4.63c.65,1,1.17,2,1.9,3.27.85-1.54,1.52-2.88,2.32-4.15,1.58-2.47,3.47-4.41,6.86-4.3.83,0,1.7-.89,2.53-1.42,1.62-1,2.87-.57,2.87,1.22a47.58,47.58,0,0,1-.84,7.2c-1,6.41-2.09,12.8-2.92,19.23a4.05,4.05,0,0,0,1.46,3.2c3.67,2.56,7.55,4.84,11.77,7.49-.74-3.54-1.47-6.65-2-9.79-1.45-7.92-.1-10.1,7.64-12.42-.74-5,2.22-8.71,4.93-12.47.42-.58,1-1.31,1.62-1.44,3.23-.68,3.1-3.06,3-5.39-.22-5.6,3.06-8.88,7.77-11.14a5,5,0,0,1,3-.28c8.73,1.9,15.47,6.83,20.64,13.73,1.33,1.77,1.38,4.43,2.2,6.62,1.9,5.09,4,10.12,5.87,15.21.8,2.18,1.29,4.47,2,7,1.54.46,2.63.16,2.74-2,.33-6.65,1.13-13.25-.36-19.94a93.88,93.88,0,0,1-1.64-14.81c-.31-5.06,1.94-9.29,5.38-13,.68-.73,1.38-1.45,2-2.23,1.81-2.25,3.42-2.4,4.56.22a30.41,30.41,0,0,1,2.16,9.09c.66,6.75.85,13.44,4.91,19.47,1.92,2.85,2.95,6.4,3.81,9.76,1.4,5.42,1.92,11.07,3.57,16.39,1.38,4.43,3.85,8.54,5.84,12.79,1.23,2.63,2.81,5.17,3.6,7.92,1.23,4.3,2.65,8.74,2.71,13.13.1,8.06,1.65,15.81,3.55,23.55,1.21,4.91,2.68,9.76,4,14.63a1.41,1.41,0,0,1-.37,1.46,35.36,35.36,0,0,1-1.57-3.44c-4-11.8-6.85-23.82-6.67-36.34.1-6.2-2.32-11.61-4.84-17.05-3.38-7.31-7.84-14.18-9.32-22.25-.46-2.48-1.08-4.95-1.36-7.46a30.87,30.87,0,0,0-4.83-14c-4-6-3.51-12.92-4.19-19.61a14.29,14.29,0,0,0-1-4.71c-1.27-2.65-3.73-3-5.7-.79a18.64,18.64,0,0,0-4.79,16.32c1.76,11.17,3.08,22.33,1.6,33.73C211.87,135.53,213.3,140.22,213.76,144.34ZM168,103.9l5.84,1.08c-.22-.64-.33-1-.29-.87a69.11,69.11,0,0,0,6.76,2.38c3.63.89,6.48,2.69,8.12,6,2.26,4.5,4.19,9.17,6.54,13.62a12.3,12.3,0,0,0,3.74,3.9c.91.66,2.33.62,4.14,1-3.92-6.16-3.83-6.7,1.22-10.36l-2.3-6.35c-.9-2.46-1.71-5-2.7-7.37s-1.62-5.1-3.28-6.91a38,38,0,0,0-15-10.44c-5.12-1.86-11.38,1.43-12.3,6.76A71.57,71.57,0,0,0,168,103.9Zm29.49,36.57c-.31-1-.44-1.55-.63-2-3.26-8.62-6.37-17.31-9.93-25.81a8.52,8.52,0,0,0-4.83-4.14,102.39,102.39,0,0,0-14-3.08c-1.4-.23-3.71.09-4.32,1a53.61,53.61,0,0,0-5,9.53c-.68,1.66.31,2.73,2.46,2.9,4,.33,7.89,1,11.82,1.57s6.63,2.85,8.5,6.51c2.62,5.11,5.87,9.91,8.92,15C193.33,138.74,194.41,138.52,197.5,140.47Zm-80.92-8.68,1,.06c3.77-4.77,9.2-8.39,9.56-15.42.21-4.2-3-10-7.23-11-3-.74-4.81.4-4.79,3.4,0,5.86.2,11.72.47,17.57A38.65,38.65,0,0,0,116.58,131.79Zm-64-29.57L70.81,83l-.54-.61c-5.3,4-10.74,7.85-15.82,12.11C52.64,96,51.05,98.37,52.53,102.22Z"/><path class="cls-7" d="M212.61,144.24c-3-3.27-2.75-8-2.94-12.73-5.77-.79-12.65,3.15-16.42-4.45l-.52.52a11.93,11.93,0,0,0,.67,2c2.51,4.7,4.34,9.53,4.57,14.94.17,4.28-1,5.4-4.85,4.28.31,2,1.31,4.25.83,6.18-.75,3-3.76,1.1-5.95,1.52.35,2.38,2.2,3.4,4,4.36,3.33,1.77,6.8,3.29,10.09,5.13,3.75,2.1,7.68,4.06,11,6.74,4.63,3.78,6.51,9.25,7.77,14.88a1.6,1.6,0,0,1-.1.8c0,.14-.19.26-.09.13-1.79-3.95-3-8.51-5.69-11.95s-6.63-5.94-10.41-8.26c-4.05-2.48-8.68-4.06-12.8-6.46-1.92-1.12-3.23-3.25-4.8-4.94-.23-.25-.27-.71-.53-.92-3.1-2.49-6.23-5-9.53-7.58a18.94,18.94,0,0,1-13.47,8.75c2.38-1.25,5-2.25,7.1-3.84s3.87-3.81,5.77-5.74l-7.44-9-9,2.87-.25-.65,7.86-2.83-.14-.72-10.76-1.71.11-.62c3.79.28,7.59.54,11.37.89.36,0,.65.73,1,1.1,4.94,5.36,9.87,10.73,14.85,16.06a4.78,4.78,0,0,0,2,1.05c-1.39-2.37-2.49-4.79.1-6.81,1-.77,2.52-.88,4.17-1.41-.44-.79-1.15-2.17-1.94-3.5-3.35-5.62-6.62-11.3-10.16-16.8a7.59,7.59,0,0,0-4.14-3.23,141.77,141.77,0,0,0-17.25-2.66c-4.64-.37-7.75,2.8-7.23,7.24a102.14,102.14,0,0,0,3,14.31c.39,1.45,2,2.58,3.44,4.29l-17.87-12-10.09,10.67c5.61,5.22,11.6,10.56,17.3,16.16,4,4,8.41,7.84,11.34,12.52,7.5,12,17.4,21.5,29.1,29.42,1.6,1.09,3.08,2.32,4.6,3.51.18.14.25.42.59,1a9.74,9.74,0,0,1-1.74-.64c-13.2-9.06-25.22-19.14-33.7-32.95-3-4.83-7.81-8.59-11.85-12.79-2.09-2.16-4.3-4.21-6.49-6.28-3.44-3.24-6.92-6.45-10.45-9.73-3,2.15-5.5,4.1-8.15,5.91-5.59,3.83-11.31,7.49-16.82,11.42-3,2.12-5.59,4.71-8.43,7-6,4.91-11.77,10.27-18.25,14.54-8.26,5.45-14.3,12.76-20.38,20.16l-2.61,3.2-.64-.47c1.2-1.74,2.32-3.54,3.63-5.2C61,193.27,67.43,186.22,76,181a89.67,89.67,0,0,0,13.79-10.88c4.66-4.28,9.23-8.46,14.75-11.81,7.08-4.31,13.57-9.55,20.31-14.4.67-.48,1.31-1,2-1.44,6.89-4.05,10-10,10-17.84,0-2.93.83-5.87,1.29-8.82-5.44-1.88-5.59-2.54-2.43-10.94l-.46-.67c-1.43,1-3.11,1.88-4.24,3.17-3.4,3.9-3.84,8.88-4.91,13.64A8.61,8.61,0,0,1,124,124.9c-4,4.28-8,8.48-12.19,12.58a7.94,7.94,0,0,1-3.66,2.07c-4.13.91-8.33,1.54-12.54,2.28V149l-.54.13a11.06,11.06,0,0,1-.61-2.82c.35-6.3.82-12.59,1.23-18.88a69.17,69.17,0,0,0,.29-7c-.12-3.18-1.83-5.57-4.63-7.52a28.91,28.91,0,0,0-1.77,17.24c-1.85-3.23-2.16-7.91-1-12.49s2.4-9.11,3.21-13.73c.64-3.69-1.08-6.64-4.19-8.86-1.65-1.18-2.69-.94-3.85.71-3.93,5.64-6.75,11.64-7,18.58a16.45,16.45,0,0,1-.28,1.64c-1.1-3.73-.31-9.68,2-13.81,2.11-3.71,4.53-7.25,6.86-10.83s2.39-4.68.16-7.84-6.14-5-9-4.27a5.39,5.39,0,0,0-2.35,1.35,137,137,0,0,0-9.73,10c-6.56,8-14.82,13.77-23.87,18.73a138,138,0,0,0-13.79,9c-1.63,1.17-2.73,3-4.07,4.61l-.66-.52c1.89-2.19,3.54-4.67,5.75-6.5a78.78,78.78,0,0,1,9-5.89,5.87,5.87,0,0,0,2.91-3.62c1.09-3.72,2.65-7.31,4.1-10.93a27.75,27.75,0,0,0,1.56-13.88,7.29,7.29,0,0,0-1.4-3.42,20.75,20.75,0,0,1-.37,2.09c-1.88,6.75-1.19,6.93-9,5.46-.63-.12-1.23-.34-1.8-.5-.23.12-.49.16-.54.28-2.64,6.65-6.82,12.36-11.2,18-1.18,1.52-1.44,3.77-2,5.73-1.26,4.69-2.2,9.48-3.71,14.09a62.87,62.87,0,0,1-4.48,9.91,42.49,42.49,0,0,0-5.12,23A167.3,167.3,0,0,1,1.18,205a2.09,2.09,0,0,1-1.12,1.42,16.35,16.35,0,0,1,0-2.8c1.16-6.58,2.91-13.12,3.46-19.75A247.39,247.39,0,0,0,4.29,156C4,145.71,7.47,136.72,11.9,127.75c2.27-4.6,3.67-9.61,5.43-14.44a3.78,3.78,0,0,0,.35-1.86c-1.05-4.76,1.57-8.27,4.42-11.47,4.26-4.8,6.92-10.41,9.65-16.06A64,64,0,0,1,38,73.71c2.28-3.08,3.73-2.43,5.62.87,4.62,8.09,3.27,16,0,24a47.32,47.32,0,0,0-2.85,9.1c2.36-1.38,4.74-2.71,7-4.16a2.21,2.21,0,0,0,.83-1.57c.15-4.8,3-8.23,6.53-10.88,5.42-4.07,11.2-7.7,16.91-11.38,7-4.52,14.48.35,16.27,7.27.42,1.61-1.2,3.73-2,5.83,7,3.51,7.85,9.43,5.74,16.29-.54,1.75-.35,2.91,1.31,4.11a8.52,8.52,0,0,1,3.69,7.55c-.28,4.68-.92,9.34-1.38,14-.2,2-.32,4.08-.48,6.22a95.79,95.79,0,0,1,9.61-1.73c4.58-.37,7-3.74,9.41-5.67-.42-4.43-.67-8.34-1.19-12.2-.37-2.66-1.4-5.25-1.63-7.91a48.74,48.74,0,0,1,.23-8.62c.17-1.87,1.42-2.34,3.22-1.6a18.73,18.73,0,0,0,3.39,1,10.19,10.19,0,0,1,6.58,4.62c.64,1,1.16,2,1.89,3.27.86-1.53,1.52-2.88,2.33-4.14,1.57-2.47,3.47-4.41,6.85-4.31.83,0,1.71-.89,2.53-1.41,1.62-1,2.87-.58,2.88,1.21a47.88,47.88,0,0,1-.85,7.21c-1,6.4-2.08,12.8-2.92,19.22a4,4,0,0,0,1.47,3.2c3.67,2.56,7.54,4.85,11.76,7.5-.74-3.54-1.46-6.66-2-9.8-1.44-7.91-.09-10.09,7.64-12.42-.73-5,2.22-8.7,4.94-12.47.41-.57,1-1.31,1.61-1.44,3.24-.67,3.1-3.05,3-5.39-.22-5.6,3.05-8.88,7.77-11.13a5,5,0,0,1,3-.28c8.73,1.89,15.46,6.83,20.64,13.73,1.33,1.77,1.37,4.43,2.19,6.62,1.91,5.09,4,10.11,5.87,15.21.81,2.18,1.3,4.47,2,7,1.54.46,2.62.17,2.73-2,.33-6.65,1.13-13.25-.35-19.94a94,94,0,0,1-1.65-14.81c-.3-5.07,1.95-9.29,5.39-13,.68-.73,1.38-1.45,2-2.22,1.81-2.25,3.42-2.4,4.56.22a30.41,30.41,0,0,1,2.16,9.09c.67,6.74.86,13.44,4.92,19.47,1.92,2.85,2.94,6.39,3.81,9.76,1.39,5.42,1.92,11.06,3.57,16.39,1.37,4.43,3.85,8.54,5.83,12.79,1.23,2.63,2.81,5.16,3.6,7.91,1.24,4.31,2.66,8.74,2.71,13.14.1,8.06,1.65,15.81,3.56,23.55,1.2,4.9,2.67,9.75,4,14.63a1.38,1.38,0,0,1-.36,1.45,35.2,35.2,0,0,1-1.57-3.43c-4-11.8-6.86-23.82-6.67-36.34.09-6.2-2.33-11.61-4.84-17.06-3.38-7.3-7.85-14.17-9.33-22.24-.45-2.49-1.07-5-1.36-7.46a30.87,30.87,0,0,0-4.83-14c-4-6-3.5-12.92-4.18-19.61a14.76,14.76,0,0,0-1-4.71c-1.28-2.66-3.73-3-5.71-.8a18.71,18.71,0,0,0-4.79,16.33c1.76,11.17,3.09,22.33,1.6,33.73C210.72,135.43,212.14,140.13,212.61,144.24Zm-45.76-40.43,5.84,1.07c-.21-.64-.33-1-.28-.86a69.89,69.89,0,0,0,6.76,2.38c3.62.89,6.47,2.69,8.11,6,2.26,4.5,4.2,9.16,6.55,13.62a12.29,12.29,0,0,0,3.74,3.9c.9.65,2.33.62,4.14,1-3.93-6.16-3.83-6.7,1.21-10.36l-2.3-6.35c-.89-2.46-1.71-4.95-2.7-7.37s-1.61-5.11-3.28-6.91a38,38,0,0,0-15-10.45c-5.12-1.85-11.38,1.44-12.3,6.76A71.74,71.74,0,0,0,166.85,103.81Zm29.49,36.56c-.31-1-.43-1.54-.62-2-3.27-8.63-6.38-17.31-9.94-25.82a8.52,8.52,0,0,0-4.82-4.13,104.4,104.4,0,0,0-14.05-3.09c-1.39-.23-3.71.09-4.32,1a52.59,52.59,0,0,0-5,9.53c-.69,1.66.3,2.73,2.45,2.9,4,.33,7.89,1,11.82,1.57s6.63,2.84,8.51,6.5c2.62,5.11,5.87,9.92,8.92,15C192.17,138.65,193.26,138.42,196.34,140.37Zm-80.92-8.67,1,.06c3.76-4.78,9.19-8.39,9.55-15.43.22-4.19-3-10-7.23-11-3-.73-4.8.41-4.79,3.41,0,5.85.21,11.71.47,17.57A40.76,40.76,0,0,0,115.42,131.7Zm-64-29.57c6.41-6.74,12.34-13,18.28-19.21l-.55-.6c-5.3,4-10.74,7.85-15.81,12.1C51.48,96,49.9,98.28,51.38,102.13Z"/><path class="cls-3" d="M198.87,123.37s3.1-4.66,4.4-4.15,5.63,13.95,5.63,13.95l-2.79,2.1S200.94,131.91,198.87,123.37Z"/><path class="cls-3" d="M186.14,149.2c-1-4.1,3.1-4.66,4.4-4.14S196.17,159,196.17,159l-1.74,1.3-1-.2s-.58.43-1.35-.51C190.26,157.39,187.08,153.13,186.14,149.2Z"/><path class="cls-3" d="M190.06,141.89c-1-4.1,3.11-4.66,4.4-4.14s5.63,13.95,5.63,13.95l-1.73,1.3-1.3.64s-.28-.41-1.06-1.35C194.18,150.08,191,145.82,190.06,141.89Z"/><path class="cls-3" d="M112.51,118.44l2.25-21.73-1.81-1s-2.85,17.55-1.29,20.68S112.51,118.44,112.51,118.44Z"/><path class="cls-3" d="M222.73,92s-1.26-14.4-3.76-16.09-2.5-2.47-2.5-2.47L220.09,75s4.66,10.87,3.88,16.31C223.77,92.69,222.73,92,222.73,92Z"/><path class="cls-8" d="M138.35,115.2s-4.27-.8-4.18-3c.4-8.89,7.91-17,7.91-17s1.09,16.73-3.64,19.94"/><path class="cls-8" d="M32.91,84s5.77,1.8,8,0,6.6-16.81,5-18.36S32.31,76.76,32.91,84Z"/><polygon class="cls-8" points="188.78 9.5 160.57 50.65 194.73 36.93 163.93 63.07 197.83 45.99 175.32 67.47 239.14 38.48 190.84 57.89 209.41 38.48 184.89 48.84 205.08 32.01 172.99 42.37 188.78 9.5"/><path class="cls-3" d="M105.92,22.19c.06-1,.11-2.07.17-3.11-4-1.23-8-2.47-12.45-3.86l2.92-14L93.44,0C91.28,4.27,90,9.48,86.69,12.54c-3.14,2.91-8.37,3.56-13.85,5.66V3l-4-2.25c2.46,15.84-9.62,19.6-19.1,25.52l1.67,2,11-2.58,1.72,2.12L53.32,40.3l6.83,20.35c6.43-9.22,1-27.48,19.88-21.2-.36,6.68-.71,13.48-1.07,20.28l4.5.59,5.21-19.74,12-1.28c0-.79,0-1.57-.05-2.36L89,32c1.16-3.26,2.25-6.32,3-8.43ZM69.24,32.65c-.1-11.61,7.69-9.45,14.57-9.59C84.3,35.23,76.34,32.79,69.24,32.65Z"/><path class="cls-6" d="M83.81,23.06c.49,12.17-7.47,9.73-14.57,9.59C69.14,21,76.93,23.2,83.81,23.06Z"/><path class="cls-8" d="M123.75,82.58c4-5.79,3-13.54-.77-17-4.14-3.7-11.24-3.43-15.59.58-5.38,5-5.3,13.69-.34,22.26-1.34-1.06-3.08-1.87-4-3.23-3.7-5.66-3.68-11.71-.59-17.54s8.42-7.36,14.45-6.88c9,.72,15.32,12.12,11.37,20.24-1.63,3.34-3.83,3.84-7.68,3-3,.72-7.21,3-8.73,1.83-2.48-1.94-3.86-6-4.5-9.4s1.9-5.63,5.18-6.69c4.3-1.4,6.85,0,8.41,4.75C121.76,76.89,122.57,79.17,123.75,82.58Z"/><ellipse class="cls-5" cx="114.89" cy="78.47" rx="3.23" ry="4.27"/></g></g></svg>