<svg xmlns="http://www.w3.org/2000/svg" viewBox="0 0 840.89 1031.96"><defs><style>.cls-1{isolation:isolate;}.cls-2{fill:#f5755f;}.cls-3{fill:#b286b0;}.cls-4{fill:#c7c7c7;}.cls-12,.cls-4,.cls-6,.cls-7{mix-blend-mode:multiply;}.cls-11,.cls-5,.cls-9{fill:none;stroke-linecap:round;stroke-linejoin:round;mix-blend-mode:screen;}.cls-5{stroke:#262626;}.cls-11,.cls-5{stroke-width:2.21px;}.cls-6{fill:#e3e3e3;}.cls-7{fill:#cfcfcf;}.cls-8{fill:#fff;}.cls-9{stroke:#4d4d4d;stroke-width:4.41px;}.cls-10{fill:#4c96e0;}.cls-11{stroke:#292929;}.cls-12{fill:#ebebeb;}</style></defs><g class="cls-1"><g id="Layer_2" data-name="Layer 2"><g id="Layer_1-2" data-name="Layer 1"><path class="cls-2" d="M195.84,1020.3a31.69,31.69,0,0,1-29.72-42.64L247,758.06A31.67,31.67,0,0,1,306.48,780L225.56,999.57A31.68,31.68,0,0,1,195.84,1020.3Z"/><path class="cls-2" d="M645.05,1020.3a31.69,31.69,0,0,1-29.72-20.73L534.41,780a31.67,31.67,0,1,1,59.44-21.9l80.92,219.6a31.69,31.69,0,0,1-29.72,42.64Z"/><path class="cls-3" d="M195.84,1020.3a31.69,31.69,0,0,1-29.72-42.64L247,758.06A31.67,31.67,0,0,1,306.48,780L225.56,999.57A31.68,31.68,0,0,1,195.84,1020.3Z"/><path class="cls-3" d="M645.05,1020.3a31.69,31.69,0,0,1-29.72-20.73L534.41,780a31.67,31.67,0,1,1,59.44-21.9l80.92,219.6a31.69,31.69,0,0,1-29.72,42.64Z"/><path class="cls-4" d="M287.71,739.29A31.68,31.68,0,0,0,247,758.06L209.4,860.2a440,440,0,0,0,57.85,26.24L306.48,780A31.68,31.68,0,0,0,287.71,739.29Z"/><path class="cls-4" d="M593.85,758.06A31.67,31.67,0,1,0,534.41,780l39.24,106.48a439.84,439.84,0,0,0,57.84-26.24Z"/><circle class="cls-2" cx="420.45" cy="471.33" r="420.45"/><circle class="cls-3" cx="420.45" cy="471.33" r="420.45"/><path class="cls-5" d="M15.05,463.38C15.05,239.49,196.55,58,420.45,58"/><path class="cls-6" d="M794.81,279.76A418.71,418.71,0,0,1,836.2,461.88c0,232.21-188.24,420.45-420.45,420.45-163.2,0-304.69-93-374.36-228.88,67.87,141,212.09,238.32,379.06,238.32,232.2,0,420.44-188.24,420.44-420.44A418.63,418.63,0,0,0,794.81,279.76Z"/><circle class="cls-7" cx="420.45" cy="471.33" r="361.53"/><circle class="cls-3" cx="420.45" cy="471.33" r="57.02" transform="translate(-130.94 779.38) rotate(-77.46)"/><circle class="cls-8" cx="420.45" cy="471.33" r="41.45" transform="translate(-130.55 780.09) rotate(-77.53)"/><circle class="cls-8" cx="623.92" cy="133.54" r="13.79" transform="translate(-8.47 48.77) rotate(-4.45)"/><path class="cls-7" d="M637.63,132.22a13.77,13.77,0,0,1-27.44.19,13.78,13.78,0,1,0,27.44-.19Z"/><circle class="cls-8" cx="743.38" cy="246.05" r="13.79" transform="translate(445.91 970.39) rotate(-85.99)"/><path class="cls-7" d="M757.1,244.73a13.78,13.78,0,0,1-27.45.19,13.78,13.78,0,1,0,27.45-.19Z"/><path class="cls-8" d="M804.2,383.87a13.78,13.78,0,1,1-11,16.11A13.79,13.79,0,0,1,804.2,383.87Z"/><path class="cls-7" d="M820.47,396.1a13.61,13.61,0,0,1-2,6A13.77,13.77,0,0,1,793,396.29a13.78,13.78,0,1,0,27.44-.19Z"/><circle class="cls-8" cx="803.09" cy="561.48" r="13.79" transform="translate(-69.9 116.39) rotate(-7.94)"/><path class="cls-7" d="M816.8,560.17a13.77,13.77,0,0,1-27.44.18,13.78,13.78,0,1,0,27.44-.18Z"/><circle class="cls-8" cx="733.01" cy="709.86" r="13.79" transform="translate(-233.44 1037.25) rotate(-62.79)"/><path class="cls-7" d="M746.72,708.55a13.77,13.77,0,0,1-27.44.19,13.78,13.78,0,1,0,27.44-.19Z"/><path class="cls-8" d="M620.72,810.29A13.79,13.79,0,1,1,602,804.82,13.77,13.77,0,0,1,620.72,810.29Z"/><path class="cls-7" d="M622.34,815.6a13.77,13.77,0,0,1-27.44.19,13.78,13.78,0,1,0,27.44-.19Z"/><circle class="cls-8" cx="451.47" cy="864.12" r="13.79" transform="matrix(1, -0.02, 0.02, 1, -16.26, 8.69)"/><path class="cls-7" d="M465.18,862.8a13.77,13.77,0,0,1-27.44.19,13.78,13.78,0,1,0,27.44-.19Z"/><circle class="cls-8" cx="288.69" cy="843.32" r="13.79"/><path class="cls-7" d="M302.4,842a13.77,13.77,0,0,1-27.44.19A13.78,13.78,0,1,0,302.4,842Z"/><circle class="cls-8" cx="148.44" cy="758.11" r="13.79" transform="translate(-611.45 897.17) rotate(-89.29)"/><path class="cls-7" d="M162.15,756.8a13.63,13.63,0,0,1-1.94,6,13.78,13.78,0,0,1-25.5-5.84,13.78,13.78,0,1,0,27.44-.19Z"/><circle class="cls-8" cx="54.98" cy="623.23" r="13.79"/><path class="cls-7" d="M68.69,621.91a13.61,13.61,0,0,1-2,6,13.77,13.77,0,0,1-25.49-5.84,13.78,13.78,0,1,0,27.44-.19Z"/><circle class="cls-8" cx="24.46" cy="461.99" r="13.79" transform="translate(-29.32 2.49) rotate(-3.64)"/><path class="cls-7" d="M38.17,460.67a13.65,13.65,0,0,1-2,6,13.77,13.77,0,0,1-25.49-5.85,13.78,13.78,0,1,0,27.44-.19Z"/><circle class="cls-8" cx="62.16" cy="302.28" r="13.79" transform="matrix(0.98, -0.22, 0.22, 0.98, -65.07, 21.12)"/><path class="cls-7" d="M75.87,301a13.61,13.61,0,0,1-2,6,13.77,13.77,0,0,1-25.49-5.84A13.78,13.78,0,1,0,75.87,301Z"/><path class="cls-8" d="M151.11,180.7a13.79,13.79,0,1,1,19.44,1.46A13.79,13.79,0,0,1,151.11,180.7Z"/><path class="cls-7" d="M175.27,170.39a13.77,13.77,0,0,1-27.44.19,13.78,13.78,0,1,0,27.44-.19Z"/><circle class="cls-8" cx="305.48" cy="92.85" r="13.79" transform="translate(159.99 377.06) rotate(-79.8)"/><path class="cls-7" d="M319.19,91.54a13.78,13.78,0,0,1-27.45.19,13.78,13.78,0,1,0,27.45-.19Z"/><path class="cls-8" d="M455.34,77.61A13.79,13.79,0,1,1,467.27,93,13.78,13.78,0,0,1,455.34,77.61Z"/><path class="cls-7" d="M482.73,78a13.77,13.77,0,0,1-27.44.19A13.78,13.78,0,1,0,482.73,78Z"/><path class="cls-3" d="M154.64,973.9H686.25A31.75,31.75,0,0,1,718,1005.65V1032a0,0,0,0,1,0,0H122.89a0,0,0,0,1,0,0v-26.31A31.75,31.75,0,0,1,154.64,973.9Z"/><path class="cls-9" d="M139.16,1010.77a24,24,0,0,1,23.92-23.93H310.46"/><path class="cls-6" d="M683,973.9H671.7a35,35,0,0,1,35,35V1032H718v-23.05A35,35,0,0,0,683,973.9Z"/><path class="cls-10" d="M414,118.91,369.13,12.79a8.46,8.46,0,0,1,7.68-11.74l87.06-1a8.45,8.45,0,0,1,8,11.55L429.6,118.72A8.45,8.45,0,0,1,414,118.91Z"/><path class="cls-11" d="M397.31,56.94,378.48,12.31a1.21,1.21,0,0,1,1.09-1.67l40.89-.51"/><path class="cls-12" d="M470.16,2.7c-.08.27-.16.54-.27.81L428.32,114a8.45,8.45,0,0,1-15.65.19L368.59,8.09a8.39,8.39,0,0,0,.54,4.7L414,118.91a8.45,8.45,0,0,0,15.65-.19L471.84,11.55A8.42,8.42,0,0,0,470.16,2.7Z"/></g></g></g></svg>