<svg id="Layer_1" data-name="Layer 1" xmlns="http://www.w3.org/2000/svg" viewBox="0 0 171.57 189.96"><defs><style>.cls-1{fill:none;stroke:#7dbba2;stroke-miterlimit:10;stroke-width:6.6px;}.cls-2{fill:#7dbba2;}</style></defs><path class="cls-1" d="M119.1,126.14C104.89,138.4,71.28,132.8,56.81,111c-12.28-18.48-5.88-41.22,6.64-52.57,3-2.68,9.11-8.25,18.4-8.46,20.81-.45,50.26,18.82,51.79,43.32C133.92,97.78,128.07,118.39,119.1,126.14Z"/><path class="cls-1" d="M117.57,115c-5.21,19.59-33.75,34.91-55.11,24.15C44.34,130,38.62,105.79,43,88.05c1-4.21,3.16-12.92,10.22-18.71,15.82-13,47.56-13.56,60.22,7.47C115.7,80.64,120.85,102.64,117.57,115Z"/><path class="cls-2" d="M79.65,61.91c18.25-8.79,48.45,2.9,54.21,26.1,4.88,19.68-9.79,39.78-26.07,48C103.94,138,96,142,87,140.44,66.79,136.88,45.69,113.17,53.4,89.9,54.8,85.66,68.13,67.45,79.65,61.91Z"/></svg>