<svg xmlns="http://www.w3.org/2000/svg" viewBox="0 0 595.42 606.67"><defs><style>.cls-1{fill:#b286b0;}.cls-2{fill:#ffceca;}.cls-3{fill:#f2c22a;}.cls-4{fill:#7dc7ae;}.cls-12,.cls-13,.cls-14,.cls-15,.cls-16,.cls-18,.cls-19,.cls-20,.cls-5,.cls-8,.cls-9{fill:none;stroke-miterlimit:10;}.cls-12,.cls-16,.cls-5{stroke:#7dc7ae;}.cls-5{stroke-width:1.54px;}.cls-6{fill:#fff;}.cls-7{fill:#f9b3af;}.cls-8,.cls-9{stroke:#f9b3af;}.cls-8{stroke-width:3.58px;}.cls-9{stroke-width:2.39px;}.cls-10{fill:#a682ae;}.cls-11{fill:#69acc7;}.cls-12,.cls-14{stroke-width:1.92px;}.cls-13,.cls-18,.cls-19{stroke:#a682ae;}.cls-13{stroke-width:1.72px;}.cls-14,.cls-15{stroke:#69acc7;}.cls-15{stroke-width:1.5px;}.cls-16{stroke-width:1.1px;}.cls-17{fill:#ffb23c;}.cls-18{stroke-width:2.28px;}.cls-19{stroke-width:1.66px;}.cls-20{stroke:#fff;stroke-width:1.83px;}</style></defs><g id="Layer_2" data-name="Layer 2"><g id="Layer_1-2" data-name="Layer 1"><polygon class="cls-1" points="76.47 50.65 433.26 0 364.64 309.66 0 355.34 76.47 50.65"/><polygon class="cls-2" points="0 355.34 165.55 606.67 523.36 556.27 364.64 309.66 0 355.34"/><polygon class="cls-3" points="433.26 0 595.42 252.33 523.36 556.27 364.64 309.66 433.26 0"/><path class="cls-4" d="M197.21,563.27c32.28-22,122.14-64.74,168.7-77.68,40.22-11.18,30.83,4.64.68,25.19A375.87,375.87,0,0,1,320,538.05c-54.83,27.46-137,59.24-148.84,53.67C169,590.71,177,577.05,197.21,563.27Z"/><path class="cls-5" d="M395.16,482.94c-3.68-10.45-74.58,13.57-135.46,43.57-64.76,31.9-105.09,64.09-86.52,66.83,14.39,2.13,62.38-13.59,114.46-38.71C344.81,527.05,398.45,492.27,395.16,482.94Z"/><path class="cls-5" d="M196.92,560.36c32.18-22.94,122-65.75,168.67-77.58,40.32-10.23,31.1,7,1,28.41a336.59,336.59,0,0,1-46.51,28c-54.82,27.72-137.1,58.69-149,51.71C168.9,589.63,176.81,574.7,196.92,560.36Z"/><path class="cls-5" d="M321.43,498.69c54.8-21.27,96.24-22.88,63.28,4.07C357,525.4,288.58,558.45,240.43,576.9c-11.27,4.31-34.46,13.2-49.26,15.67-32.82,5.46-31.37-12.87,25.46-45.08C227.13,541.54,287.46,511.87,321.43,498.69Z"/><path class="cls-6" d="M290.06,526.05l-24,11.21c-4.93,2.31-9.38.13-9.89-4.82L254,511.65c-.51-4.93,3.08-10.87,8-13.2L285.9,487.1c5-2.36,9.47-.24,10,4.72l2.25,20.93C298.69,517.73,295.05,523.72,290.06,526.05Z"/><path class="cls-7" d="M280.3,520.72c-3.79.41-7.43,2.12-11.31,4.21,3.23-5.63,5.63-11.41,9.12-17.17-6.6-.43-15,2.71-22.21,3.67-.54,0-.86-.41-.6-.53,12.22-10.43,24.59-19.85,36.56-31-8.17.61-16.14,2.77-24.43,4.28-3.47.57-7.09,2.3-10.17,1.32,1.93-2.28,4.2-3.91,6.13-6.19,4.85-5.59,9.84-9.88,13.55-16-12.29,2.11-24.41,5.24-36.35,7,11.92-12.25,24.93-22.34,36.35-35.2-13.87,2.42-27.52,8.8-41.86,12.84-.79.11-2.12.22-1.4-.66,9.22-14.45,22.28-26,29.6-41.14-10.37,4.05-20.48,10.11-30.74,14.37a5.64,5.64,0,0,1,1.31-2.79c10-14.83,18.05-30.08,23.36-46.1l.78-2.15-4.57-1.06-64.35,98.79,13.25,99.94,68.94-33.7c3.16-3.7,6.37-7.31,9.18-11.33C280.67,521.64,280.3,520.72,280.3,520.72Z"/><path class="cls-7" d="M350.18,378.8l-79.07-18.13c-.26.73-.52,1.45-.78,2.15-5.33,16.07-13.43,31.36-23.44,46.24a5.55,5.55,0,0,0-1.32,2.8c10.31-4.29,20.47-10.39,30.89-14.46-7.34,15.22-20.46,26.78-29.72,41.27-.72.89.61.78,1.41.66,14.41-4.07,28.13-10.49,42.07-12.95-11.47,12.91-24.54,23.05-36.51,35.34,12-1.73,24.18-4.9,36.54-7-3.72,6.16-8.74,10.48-13.61,16.08-1.94,2.29-4.22,3.93-6.15,6.22,3.1,1,6.73-.77,10.22-1.35,8.34-1.52,16.35-3.71,24.56-4.33-12,11.21-24.46,20.68-36.73,31.14-.26.13,0,.52.6.54,7.26-1,15.69-4.15,22.33-3.72-3.51,5.77-5.91,11.57-9.15,17.22,3.89-2.11,7.56-3.83,11.37-4.24,0,0,.37.92.14,1.31-2.83,4-6.05,7.66-9.22,11.37l77.88-38.09Z"/><polygon class="cls-8" points="198.12 570.1 184.16 467.73 259.15 361.84 354.72 376.72 367.43 487.78 198.12 570.1"/><polygon class="cls-9" points="202.91 567.87 188.82 462.63 259.24 357.18 350.03 375.92 363.01 489.77 202.91 567.87"/><path class="cls-6" d="M342.68,413.55c3.39,7.14,6.49,14,9.82,20.63,2.94,5.88,5.9,11.77,10,16.65,1.09,1.31.51,2.68-.69,4.23a21,21,0,0,1-5.57,4.9c-1.77,1.11-2,2.16-1.7,3.51a260.23,260.23,0,0,1,4.08,27.38,36.11,36.11,0,0,1-.15,8.67,3.34,3.34,0,0,1-1.48,2.86c-1.13.59-1.72-.18-2.22-.84-2.68-3.55-4.13-8.06-5.56-12.52-2-6.16-4.28-12.09-6.38-18.14-.61-1.75-1.48-2.21-3.52-1-1.69,1-3.46,1.69-5.19,2.49-3.93,1.82-4,1.84-4.4,6.11-.73,8.34-1.31,16.63-2.05,25a55.91,55.91,0,0,1-1.88,11.45c-.34,1.14-.66,2.44-1.93,2.89s-1.5-.58-1.84-1.37a23.82,23.82,0,0,1-1.84-6.86c-1-9.69-2.05-19.36-2.49-29.28-.07-1.53-.38-2.13-1.94-1.64a8,8,0,0,1-2.5.26c-3,0-3.44-.9-2.45-4.5,4.28-15.64,6.39-30.93,8.64-46.23.18-1.24,0-2.23-1-2.38-1.15-.17-2,1.11-2.61,2.14-2.79,4.45-4.64,9.16-6.82,13.77a91.3,91.3,0,0,1-5.5,10.67c-.73,1.15-1.55,2.42-2.82,2.41-1.09,0-1.27-1.07-1.4-2.11-.91-7.45,1.43-15.35,4.87-23.33,5.1-11.81,12.71-21.48,23.86-27.05,11.56-5.78,20.73-4.07,28.13,2a24.81,24.81,0,0,1,9.39,15.62c.23,1.33.52,2.9-.92,4.24s-2.67.52-3.73,0c-5.1-2.39-9-6.46-13.68-9.34A6.88,6.88,0,0,0,342.68,413.55Z"/><path class="cls-6" d="M198.7,554.1c-.95-17.85-1.45-34.59,0-52,.44-5.32,1.62-10.83,1.59-16a10.2,10.2,0,0,0-.19-2.25c-.44-1.94-1.64-1.9-3.1.17a53.15,53.15,0,0,0-4.38,8.21c-2.28,4.86-4.51,9.73-6.91,14.55-.85,1.71-1.91,4-3.76,4.16s-1.74-2.15-1.69-3.82c.27-10.4,3.71-20.79,10.18-30.87,12.42-19.34,32.49-26.19,45.51-14.44a26.48,26.48,0,0,1,8.09,13c.53,2,1.68,4.31-.5,6.45s-3.78.18-5.17-.78c-3.44-2.39-6.67-5.06-10-7.54a27.27,27.27,0,0,0-3.47-2.05,2,2,0,0,0-2.49.22,3.12,3.12,0,0,0-.89,3.1,28.31,28.31,0,0,0,1.57,6c5,11.64,7.93,24.7,10.33,38.1,1.89,10.53,3.8,21.11,4,32.55a24.23,24.23,0,0,1-.23,4.55c-.21,1.19-.05,2.77-1.52,3.59s-2-.47-2.51-1.3a33.2,33.2,0,0,1-3.74-8.68c-2.73-9-5.59-17.93-9.4-26.12a11.71,11.71,0,0,0-3.14-4.45c-1.59-1.25-2.68-.74-3.89,1.81a27,27,0,0,0-2,6.61A227.67,227.67,0,0,0,207.67,556a81.12,81.12,0,0,1-1.95,14.14c-.32,1.31-.49,3.11-2,3.68s-1.91-1.08-2.26-2.22C199.67,565.77,199.08,559.36,198.7,554.1Z"/><path class="cls-10" d="M264.77,536.7a300.44,300.44,0,0,1,.86-31.67,75.59,75.59,0,0,0,.14-11.92c-.16-2.22-1.08-3.26-3.09-3.49-5-.59-10-1-14.46-2.66a7.47,7.47,0,0,1-3.3-2,2,2,0,0,1-.27-2.58c.72-1.27,1.57-.8,2.24-.75,5.2.36,10.51.33,16.22-1.54,11.67-3.83,23-9.29,33.06-20.26.83-.9,1.84-2.64,2.87-2.14s.19,2.29-.31,3.53a46.24,46.24,0,0,1-14,18.79c-2,1.6-2.53,2.88-2.27,4.85.73,5.47,2.89,10,4.53,14.88,2.57,7.64,4.19,15.84,5.9,24a24.18,24.18,0,0,1,.18,7.39,3.09,3.09,0,0,1-1.3,2.57c-1,.62-1.6,0-2.05-.58a31.8,31.8,0,0,1-4.65-8.95,26.82,26.82,0,0,0-4.74-8.55c-2.25-2.49-4-1.63-5.68,2.55-2.33,5.8-2.39,11.31-3.4,16.94a40.93,40.93,0,0,1-1.75,7.53c-.35.92-.76,2-1.8,2.23-.88.23-1.2-.44-1.52-1.08C265.2,541.93,265.23,539.49,264.77,536.7Z"/><path class="cls-6" d="M201.35,445.77c-.76-7.66,4.66-16.79,12.21-20.54,7.76-3.85,14.6-.75,15.39,7S224,449.33,216.35,453,202.11,453.46,201.35,445.77Z"/><path class="cls-6" d="M317.85,375.69c7.93-3.88,14.73-.79,15.56,7.09s-4.81,17-12.69,20.85-14.82.63-15.62-7C304.26,388.64,309.74,379.66,317.85,375.69Z"/><path class="cls-10" d="M261.47,468.13c-.62-5.83,3.23-12.33,9-15.14s11-.53,11.55,5.26-3.59,12.52-9.25,15.27S262.07,473.8,261.47,468.13Z"/><path class="cls-11" d="M215.62,450.87c-4,1.95-7.83,1.41-9.88-.71a5.69,5.69,0,0,1-1.76-4.77c.45-6.2,6.39-15.65,12.69-17.85,1.24-.43,6.45-.34,8.31,1.7h0c1.27,1.39,1.6,4.09.91,7.39a23,23,0,0,1-6.44,11.56A15.9,15.9,0,0,1,215.62,450.87Zm0-21.56c-5.18,2.56-10,10.53-10.37,15.7a4.74,4.74,0,0,0,1.52,4c2.39,2.47,7.57,2.5,12.09-1.74a20.61,20.61,0,0,0,5.8-10.45c.6-2.85.34-5.24-.71-6.39h0c-1.58-1.74-6.41-1.83-7.32-1.52A9.87,9.87,0,0,0,215.61,429.31Z"/><path class="cls-11" d="M216.81,448a14.35,14.35,0,0,1-5.88,1.56c-1.08,0-3.33,0-4.71-1.6-1.69-2-2.2-5.75-1.3-9.51a16.1,16.1,0,0,1,4.91-8.29c1.11-1,6.87-4.05,10.09-4,2.52,0,4.73,1.77,5.77,4.6a12.17,12.17,0,0,1-.8,9.44A17.76,17.76,0,0,1,216.81,448ZM213,429.6a15.61,15.61,0,0,0-2.62,1.52,14,14,0,0,0-4.23,7.19c-.81,3.38-.37,6.71,1.14,8.49,1.14,1.37,3.12,1.34,4.07,1.32,4.15-.06,10-3.17,12.47-8.27a10.64,10.64,0,0,0,.66-8.26c-.92-2.5-2.84-4.06-5-4.07h0C217.75,427.51,215,428.59,213,429.6Z"/><path class="cls-11" d="M207,445.59c-1.59-4,1.78-12.26,7.24-15.2a7.26,7.26,0,0,1,10.46,3.38,7.4,7.4,0,0,1,.54,4.93c-1.28,5.27-7.24,12.07-12.42,11.64C211.84,450.26,208,448.1,207,445.59Z"/><path class="cls-12" d="M328.12,393.17c-3.28,4.84-12,7.62-16.24,4-3.61-3.07-2.61-9.52.24-13.9a12.25,12.25,0,0,1,4.42-4.4c5.27-2.72,13.29-1.61,14.36,4.31A21.29,21.29,0,0,1,328.12,393.17Z"/><path class="cls-12" d="M327.42,390.58c-.78,5.55-7.61,12.92-13.33,12.89-4.84,0-6.95-5.37-6.34-10.32a12.75,12.75,0,0,1,2.07-5.92c3.65-5.2,11.67-9.31,15.47-5.66C326,382.24,327.91,387.09,327.42,390.58Z"/><path class="cls-4" d="M314.89,381.7c4.38-4.47,12.37-5.34,14.48-.28,1.8,4.3-1.38,11.15-5.29,15.24a13.43,13.43,0,0,1-5.17,3.7c-5.22,1.61-11.2-1.68-9.89-8.43C309.26,390.7,312.13,384.51,314.89,381.7Z"/><path class="cls-13" d="M359.55,320.48c5.37,4.27,2.84,20.22-6.77,30.3-8.13,8.54-18,9.42-22.95,5.72a8,8,0,0,1-3.62-6.78c-.13-9.15,8.32-25.41,19-30.19C347.16,318.66,356.17,317.79,359.55,320.48Z"/><path class="cls-13" d="M350.83,318.24c8.58-1,15.26,9.16,10.48,20.5-4.05,9.62-14.71,16.19-22.45,17.18-1.84.24-5.63.72-8.13-1.46-5.6-4.89-5.74-18.86,3.42-28C335.82,324.83,345.43,318.86,350.83,318.24Z"/><path class="cls-13" d="M328.3,349.9c-3.75-6.65,1.41-22,11.51-28.39,8.6-5.47,17.38-2.33,21,3.53a11.74,11.74,0,0,1,1.9,8.56c-1.6,9.6-12.07,23-22.24,23.36C338.58,357,330.68,354.1,328.3,349.9Z"/><path class="cls-14" d="M313.38,331.44c-2.23,3.32-8.15,5.29-11.06,2.86-2.46-2.05-1.77-6.45.17-9.46a8.63,8.63,0,0,1,3-3c3.59-1.89,9.05-1.21,9.78,2.81A14.77,14.77,0,0,1,313.38,331.44Z"/><path class="cls-14" d="M312.91,329.69c-.54,3.77-5.19,8.85-9.08,8.89-3.3,0-4.74-3.58-4.32-7a8.69,8.69,0,0,1,1.41-4.05c2.49-3.57,8-6.44,10.55-4A10.54,10.54,0,0,1,312.91,329.69Z"/><path class="cls-14" d="M305.35,324c3-3.08,8.44-3.75,9.87-.32,1.22,2.91-.94,7.59-3.61,10.41a9.15,9.15,0,0,1-3.53,2.56c-3.55,1.15-7.63-1-6.74-5.63A22.73,22.73,0,0,1,305.35,324Z"/><path class="cls-12" d="M193.81,432.82c.25,2.79-3.29,7.88-7.12,9.23-3.25,1.15-5.4-.85-5.68-3.33a5.27,5.27,0,0,1,.56-3.27c1.71-3.32,6.51-7.16,9.56-6.35A5.64,5.64,0,0,1,193.81,432.82Z"/><path class="cls-12" d="M192.61,428.47c1.9,1.67,1.29,6.86-1.82,9.78-2.63,2.48-6,2.34-7.75.88a3.27,3.27,0,0,1-1.35-2.42c-.2-3.07,2.44-8.12,6-9.22C188.36,427.29,191.42,427.41,192.61,428.47Z"/><path class="cls-12" d="M182.07,434.51c.51-3.27,4.47-7.55,7.72-7.47,2.76.07,3.91,3.26,3.5,6.2a7.57,7.57,0,0,1-1.25,3.5c-2.15,3-6.77,5.36-8.88,3.13A9.44,9.44,0,0,1,182.07,434.51Z"/><path class="cls-15" d="M524.06,349.82c-15.8,3.19-37.53-32.48-38.39-72.27-.73-34,14-58,28.32-62.1,3.4-1,10.48-3,17.44,4.66C547.08,237.4,560,288,549.72,320.78,547.86,326.72,534.11,347.8,524.06,349.82Z"/><path class="cls-15" d="M542.35,335.47c-12.75,20.25-40.29,15-50.92-16.72-9-26.89-2.49-62.6,8.54-81.75,2.63-4.57,8.11-14.07,15.92-15.61,17.63-3.46,41.51,23.14,41.09,61.5C556.9,289.84,550.48,322.58,542.35,335.47Z"/><path class="cls-11" d="M539,340.44c-13.31,13.42-39.45-5-48-40.89-7.26-30.53,1-62,12.63-75.22,2.78-3.15,8.55-9.68,16.14-7.33,17.11,5.31,38.51,42.78,36,79.68C555.33,303.37,547.42,331.9,539,340.44Z"/><path class="cls-15" d="M499.37,234.72c12.52-21.22,40.65-17.3,51.69,15,9.36,27.4,2.46,63.71-8.84,82.75-2.65,4.48-8.14,13.73-15.92,15.07-17.3,3-40.51-23-40.57-60.2C485.72,280.52,491.54,248,499.37,234.72Z"/><path class="cls-16" d="M432.9,316c-13.67-30.56-10.08-91.82,11.9-112.47,19-17.81,43.89,1.69,56.92,29.52,3.09,6.6,9.49,20.28,10.19,38.21,1.55,40-17.72,88.9-43.7,83.11C463.51,353.33,441.54,335.31,432.9,316Z"/><path class="cls-16" d="M419.6,289.19c-2.18-35.74,22.51-81.05,50.29-78.21,23.91,2.45,40.1,39.5,42.28,72.52.51,7.79,1.58,23.91-4.07,38.4C495.56,354,461,375.39,439.08,349,435.11,344.26,421,311.63,419.6,289.19Z"/><path class="cls-16" d="M431,318.13c-13.66-30.53-10.09-91.73,11.86-112.34,18.93-17.78,43.82,1.72,56.84,29.53,3.09,6.59,9.49,20.26,10.18,38.17,1.56,39.92-17.67,88.79-43.62,83C461.53,355.43,439.59,337.42,431,318.13Z"/><path class="cls-4" d="M461.17,361.43c-22.07-1.31-47.11-49.31-43.11-95.71,3.44-39.84,26.88-63.36,47.14-63.85,4.83-.12,14.9-.37,23.49,10.78C508,237.74,519,300.87,500.35,335.86,497,342.17,475.23,362.26,461.17,361.43Z"/><path class="cls-6" d="M466,309.46l.52.79c3.84-1.73,8.14-1.15,11-7.54,1.72-3.82,2.17-11.72.29-15.76-1.35-2.91-2.76-3.15-3.9-.29-2.22,5.58-4.34,11.27-6.42,17C466.82,305.42,466.45,307.52,466,309.46Z"/><path class="cls-6" d="M507.52,325.35c.89,2.36,1.71,5,2.77,7.26a22.55,22.55,0,0,1,2.11,11.67c-.53,5.92-1.29,11.74-1.75,17.66a25.59,25.59,0,0,0,.52,6.44c.24,1.28,1,2.3,1.85,4,.27-8.68.53-9.12,4.72-8.8q.62-3.81,1.23-7.68c.48-3,1-5.93,1.43-9s1.12-6,.92-9a75,75,0,0,0-4.1-21.07c-2.09-5.58-6.82-7.09-9.41-2.7-1.2,2-2.15,4.47-3.25,6.8l2.78,5.34C507.47,325.61,507.55,325.19,507.52,325.35Z"/><path class="cls-6" d="M459.71,229.44l-.07-1c-4.38,0-8.77-.28-13.1.12-1.55.14-3.27,1.23-3.92,6Z"/><path class="cls-6" d="M495.08,330.12c2,3.23,3.92,6.75,5.83,10.22s2.5,7.59,2.1,12.41c-.55,6.73-.65,13.63-.95,20.59,2.76-.78,3.43-.19,4.36,3.92.22-1.19.36-1.77.45-2.36,1.57-10.48,3.26-20.93,4.64-31.58a17.18,17.18,0,0,0-1-7.49A142.47,142.47,0,0,0,504,322.48c-.67-1.25-2.06-2.66-2.74-2.26a31.14,31.14,0,0,0-6.41,5.34C493.85,326.62,494,328.36,495.08,330.12Z"/><path class="cls-6" d="M523,438.38c2.48-5.62,3.28-12.4,4-19.3,1-9.28,1.29-19,3.67-27.61.73-2.66,1.37-5.43,2.21-8a57,57,0,0,0,2.9-16.76c.18-8.66,3.23-14.84,5.53-21.7a24.23,24.23,0,0,0,1.35-5.22c.36-3.49-.87-5.63-2.84-5-4.22,1.28-7.22,5.26-9.17,11.94-3.47,11.87-7.15,23.35-12.44,32.92-2.06,3.71-3.11,9.14-4.47,13.31-.34-5.24,1.63-9.48,3.38-14-2.85-5-8.14-6.47-7.23-16.37l-.49.1A22.8,22.8,0,0,0,509,365c-.46,6.25-1.34,12.12-3.32,17.32-1.56,4.11-2.64,4.27-4.29.38-.59,2.06-.93,4.92-1.93,6.34-1.57,2.23-2.46-1.76-3.8-3-.74,2.46-.12,4.78.48,7,1.12,4.1,2.41,8.07,3.48,12.2A144,144,0,0,1,503,419.54c1.05,6.89,0,13.28-1.53,19.34a1.68,1.68,0,0,1-.36.66c-.08.1-.2.09-.1,0,.55-4.92,1.66-10,1.53-15.12a78.84,78.84,0,0,0-2.45-15.29c-1.23-5.28-3.13-10.16-4.43-15.41-.61-2.46-.5-5.4-.7-8.12,0-.41.13-.86.07-1.24-.72-4.61-1.47-9.21-2.25-14.08-3.4,2.07-7,1.8-10.62-1.81,1.77.59,3.54,1.57,5.3,1.66s3.55-.67,5.31-1.07c-.19-5-.38-9.65-.54-13.92l-6-3.95.12-.8,5.34,3.16c.07-.25.13-.51.2-.77l-5.17-9.54.3-.5c1.94,3.06,3.9,6.09,5.81,9.22a6,6,0,0,1,.12,1.76q.93,13,1.87,25.94a9.31,9.31,0,0,0,.67,2.45c.17-3.23.5-6.29,2.69-6.25.83,0,1.7,1,2.8,1.78.07-1.06.21-2.87.3-4.69.35-7.73.78-15.45,1-23.24a15.07,15.07,0,0,0-1-6.1c-2.64-5.32-5.39-10.55-8.36-15.27-2.37-3.77-5.28-3.08-6.7,1.48-1.54,4.95-2.76,10.28-3.87,15.61-.34,1.64.1,3.89.21,6.54-1.81-8.73-3.46-16.72-5.06-24.41L468,330.2c1,9,2.25,18.36,3.19,27.75.67,6.62,1.56,13.43,1.36,19.9a206.54,206.54,0,0,0,4.47,48.3c.37,1.78.66,3.6.95,5.42l34.22,47.13c.07-.79.16-1.57.29-2.32C514.87,462.75,518,449.68,523,438.38Z"/><path class="cls-6" d="M480.17,318.55a62.85,62.85,0,0,1,4.08-7.38c-2.23-5.79-2.05-6.52,2.89-12.16v-1c-1.17-.06-2.41-.51-3.52-.11-3.34,1.19-5.48,5.6-7.88,9.31a5,5,0,0,1-2.58,2.12q-5.66,1.68-11.33,2.9a3.22,3.22,0,0,1-2.74-.74c-2.56-2.16-5-4.64-7.58-7l-2.68,6.75-.33-.28a18.24,18.24,0,0,1,.72-3.09c2.54-5.65,5.14-11.23,7.72-16.87,1-2.1,2-4.16,2.81-6.44,1.13-3.11,1.11-6.63.34-10.53-3.44,3.6-5.82,8.67-7.43,15a26.23,26.23,0,0,1,4.12-12.59c2.32-3.54,4.73-6.91,6.91-10.72,1.76-3.06,1.94-7.15,1.1-11.55-.44-2.34-1.1-2.87-2.35-2.13a25.34,25.34,0,0,0-10.79,12.61c-.17.39-.39.69-.76,1.36.81-4.36,3.47-9.45,6.28-11.69,2.54-2,5.19-3.63,7.82-5.36s3.07-2.74,3.06-7.43c0-4.51-1.42-9.32-3.25-10.72a2.18,2.18,0,0,0-1.79-.41c-3,.75-6.12,1.23-9.06,2.53-6.54,2.91-13.13,2.41-19.83.58a49.63,49.63,0,0,0-10.7-1.36c-1.3-.06-2.57.93-3.86,1.45l-.16-1c1.81-.72,3.6-1.89,5.45-2a28.44,28.44,0,0,1,7,.87,2.58,2.58,0,0,0,2.89-1.35,92,92,0,0,1,6.27-7.51c2.65-3,4.57-7.26,6-12.26a14.76,14.76,0,0,0,.53-4.33c-.33.59-.63,1.23-1,1.75-3.55,5.16-3.25,5.84-6.89-1.25-.29-.57-.53-1.22-.78-1.79-.17,0-.32-.2-.39-.11-3.9,4.5-8.26,7-12.68,9.2-1.2.6-2.16,2.58-3.16,4.07-2.39,3.59-4.65,7.49-7.13,10.79a40.62,40.62,0,0,1-6,6.19c-4.67,4.06-8.33,10.06-11,18.08a192.4,192.4,0,0,1-19.66,42.11,1.48,1.48,0,0,1-.29.36L405,331.79a35.07,35.07,0,0,1,3.39-1.94c5.89-2.67,11.85-4.49,18.24-3.1a31.73,31.73,0,0,0,11.29-.07c4.05-.59,8-1.14,12.22-.24,5.39,1.15,10.83,1,16.27,1.41A11.19,11.19,0,0,1,468,328C473.26,329.25,477.21,325.94,480.17,318.55Z"/><path class="cls-17" d="M512.77,391.17c-.31-5.19,1.66-9.44,3.41-14-2.77-4.94-8-6.25-7-16.08l-.47.11a20.25,20.25,0,0,0-.42,2.35,62.73,62.73,0,0,1-3.38,17.24c-1.57,4.1-2.62,4.29-4.23.47-.59,2.06-.94,4.89-1.94,6.33-1.56,2.24-2.41-1.7-3.72-2.89-.74,2.46-.15,4.74.43,6.91,1.07,4,2.32,7.95,3.34,12a139.73,139.73,0,0,1,3.2,14.12c1,6.81-.13,13.18-1.63,19.22a1.86,1.86,0,0,1-.36.65c-.08.1-.2.1-.09.05.56-4.89,1.69-9.92,1.59-15a76.5,76.5,0,0,0-2.32-15.1c-1.18-5.21-3-10-4.26-15.19-.59-2.42-.46-5.34-.64-8,0-.41.13-.85.08-1.23-.68-4.55-1.39-9.1-2.13-13.91-3.36,2.12-6.93,1.93-10.44-1.57,1.73.54,3.48,1.48,5.2,1.54s3.51-.75,5.24-1.18q-.24-7.46-.45-13.79l-5.85-3.79.12-.8,5.24,3,.2-.77-5-9.36.29-.5c1.9,3,3.81,6,5.67,9a6.39,6.39,0,0,1,.11,1.75c.55,8.57,1.09,17.13,1.67,25.67a8.59,8.59,0,0,0,.65,2.42c.18-3.21.53-6.25,2.68-6.25.82,0,1.67,1,2.75,1.7.08-1.06.23-2.85.32-4.66.4-7.66.87-15.33,1.12-23.06a14.81,14.81,0,0,0-.95-6,167.47,167.47,0,0,0-8.13-15c-2.32-3.7-5.19-2.95-6.61,1.6-1.55,4.94-2.78,10.25-3.91,15.56-.35,1.63.08,3.86.17,6.48-1.73-8.61-3.31-16.5-4.83-24.1l-9.35,2.77c1,8.9,2.09,18.16,3,27.45.62,6.55,1.45,13.28,1.22,19.7a204,204,0,0,0,4.1,47.8c.43,2.12.73,4.31,1.08,6.48a9.58,9.58,0,0,1-.08,1.35,16.08,16.08,0,0,1-.67-1.82c-3.47-17.7-5.95-35.53-5.18-54.29.28-6.59-.84-13.53-1.37-20.32-.28-3.5-.66-7-1-10.48-.58-5.49-1.2-11-1.81-16.56-2.36-.11-4.42-.11-6.49-.31-4.36-.42-8.7-1.08-13-1.34-2.33-.15-4.65.39-7,.52-4.93.28-9.86,1.18-14.76.54-6.23-.8-12,1.68-17.74,4.21L405.83,334l-.16-.88c1.23-.75,2.45-1.62,3.71-2.22,5.83-2.78,11.71-4.71,18-3.46a31,31,0,0,0,11.12-.31c4-.67,7.92-1.3,12-.5,5.31,1,10.66.77,16,1.06a9.54,9.54,0,0,1,1.6.09c5.15,1.15,9.06-2.22,12-9.61a61.61,61.61,0,0,1,4.06-7.4c-2.16-5.69-2-6.43,2.92-12.12v-1c-1.16,0-2.37-.46-3.47,0-3.3,1.25-5.43,5.67-7.81,9.4a5.11,5.11,0,0,1-2.57,2.16q-5.56,1.79-11.17,3.12a3.15,3.15,0,0,1-2.69-.68c-2.51-2.09-4.94-4.5-7.42-6.8l-2.68,6.74-.33-.26a19.09,19.09,0,0,1,.73-3.08c2.54-5.66,5.14-11.24,7.71-16.89,1-2.11,2-4.17,2.81-6.45a19.56,19.56,0,0,0,.4-10.46c-3.41,3.65-5.79,8.73-7.42,15.08a27,27,0,0,1,4.14-12.58c2.31-3.55,4.7-6.95,6.88-10.77,1.74-3.07,2-7.13,1.15-11.48-.42-2.31-1.06-2.82-2.3-2.06a26.07,26.07,0,0,0-10.7,12.73c-.17.39-.39.7-.76,1.37.82-4.34,3.47-9.45,6.26-11.72,2.51-2.05,5.13-3.71,7.73-5.48s3-2.79,3.06-7.44c0-4.47-1.34-9.22-3.14-10.56a2,2,0,0,0-1.75-.37c-3,.8-6,1.34-8.94,2.7-6.46,3-12.95,2.66-19.54,1a48.28,48.28,0,0,0-10.53-1.13c-1.27,0-2.53,1-3.8,1.52l-.15-1c1.78-.74,3.55-1.95,5.37-2.12a26.83,26.83,0,0,1,6.86.72,2.64,2.64,0,0,0,2.86-1.41,94.48,94.48,0,0,1,6.22-7.58c2.62-3.05,4.54-7.3,6-12.28a15,15,0,0,0,.55-4.31c-.33.59-.62,1.24-1,1.76-3.52,5.19-3.23,5.86-6.77-1.1-.28-.56-.52-1.2-.76-1.75-.16-.06-.31-.2-.38-.11-3.87,4.54-8.18,7.08-12.55,9.39-1.18.63-2.14,2.6-3.13,4.11-2.38,3.6-4.63,7.52-7.1,10.85a41.4,41.4,0,0,1-5.93,6.26c-4.63,4.13-8.27,10.16-10.95,18.16A198.1,198.1,0,0,1,380.57,297a.92.92,0,0,1-1.07.53,21.69,21.69,0,0,1,1-2.56c2.91-5.28,6.11-10.1,8.73-15.88,3.68-8.1,7.16-16.63,10.33-25.56,3.53-9.93,8.59-16,14.14-21.36,2.85-2.78,5.41-6.58,8.1-9.95a3.87,3.87,0,0,0,.86-1.53c1.21-5.31,3.87-6.82,6.54-7.89,4-1.6,7.48-5.12,11-8.64a35,35,0,0,1,7.12-5.47c2.37-1.37,2.88.29,2.64,4.84-.61,11.14-4.29,17.8-9,23.21a40,40,0,0,0-4.88,6.7c1.75.35,3.49.77,5.24,1,.33.05.8-.41,1-.91,1.87-4.51,4.66-5.78,7.51-5.81a102.16,102.16,0,0,1,13.23,1.09c5.44.65,7.54,10.71,5.85,18.65-.4,1.86-2.06,2.73-3.26,4.2,2.35,8.36.56,14.64-3.15,19.68-.95,1.29-1.29,2.52-.86,4.85a17.06,17.06,0,0,1-.91,9.8c-1.91,4.23-4,8.18-6,12.25-.87,1.78-1.7,3.62-2.58,5.51a65,65,0,0,1,5.67,5.23c2.54,2.93,5.06,1.47,7.07,1.4,1.45-4.48,2.8-8.34,4-12.37.82-2.78,1.25-6,2.14-8.66a65.89,65.89,0,0,1,3.41-8c.81-1.66,1.65-1.21,2.32.78a26.15,26.15,0,0,0,1.43,3.35,19.53,19.53,0,0,1,1.71,9.12c0,1.37-.15,2.73-.25,4.46,1-.84,1.91-1.64,2.82-2.26,1.79-1.21,3.54-1.7,5.3.84.43.62,1.24.38,1.88.47,1.27.19,1.76,1.53,1.06,3.23a55.33,55.33,0,0,1-3.22,6.24c-3,5.36-6,10.6-8.91,16.05a7.83,7.83,0,0,0-.45,4.06c1,5,2.13,10,3.34,15.47,1-3.84,1.77-7.28,2.67-10.64,2.27-8.48,3.82-9.57,8.82-6.19,1.55-5.27,4.55-6.62,7.45-8.23.45-.25,1-.53,1.42-.2,2,1.7,2.85-.66,3.71-2.95,2.07-5.48,5.11-6.24,8.53-5a3.85,3.85,0,0,1,1.7,1.89c3.94,8.15,5.61,17.74,5.66,28,0,2.65-1,5.19-1.43,7.85-1,6.19-1.85,12.43-2.84,18.58-.43,2.63-1.06,5.13-1.67,8,.64,1.54,1.34,2.05,2.26.07,2.79-6,5.82-11.6,7.67-19a145.6,145.6,0,0,1,5-15.21c1.85-5,4.75-7.42,8.08-8.41a18.38,18.38,0,0,0,2-.66c1.89-.83,2.82.21,2.38,3.55a54,54,0,0,1-2.48,10.24c-2.34,6.89-4.91,13.36-5.13,22a60.88,60.88,0,0,1-1.83,12c-1.4,6.09-3.36,11.75-4.58,17.92-1,5.12-1.31,10.73-1.92,16.12-.38,3.32-.54,6.82-1.2,9.93-1,4.86-2,10-3.7,14.05a157.21,157.21,0,0,0-7.28,24c-1.27,5.32-2.37,10.77-3.54,16.15a1.23,1.23,0,0,1-.76,1c.16-1.41.25-2.88.5-4.23,2.46-13.57,5.61-26.58,10.58-37.89,2.48-5.62,3.31-12.36,4.11-19.22,1.07-9.22,1.39-18.86,3.79-27.45.74-2.66,1.38-5.42,2.23-8a58,58,0,0,0,3-16.68c.23-8.59,3.27-14.78,5.58-21.63a24.65,24.65,0,0,0,1.36-5.2c.37-3.47-.83-5.56-2.77-4.93-4.16,1.35-7.14,5.36-9.1,12-3.49,11.84-7.18,23.3-12.45,32.89C515.2,381.6,514.13,387,512.77,391.17Zm-8.61-71.1,2.7,5.25c.14-.76.21-1.18.18-1,.87,2.33,1.66,4.91,2.69,7.15a22.18,22.18,0,0,1,2,11.52c-.56,5.88-1.35,11.67-1.83,17.55a25.39,25.39,0,0,0,.47,6.37c.22,1.26,1,2.26,1.8,4,.31-8.61.57-9.05,4.7-8.83.42-2.52.84-5.07,1.26-7.63.49-3,1-5.91,1.46-8.92s1.14-6,1-8.92a73.63,73.63,0,0,0-3.9-20.81c-2-5.48-6.67-6.88-9.25-2.48C506.21,315.29,505.25,317.75,504.16,320.07Zm1.47,55.72c.24-1.19.37-1.76.46-2.35,1.62-10.42,3.35-20.82,4.77-31.41a16.93,16.93,0,0,0-1-7.41,134.4,134.4,0,0,0-6.29-13.09c-.65-1.23-2-2.6-2.69-2.18a31.86,31.86,0,0,0-6.33,5.42c-1,1.08-.89,2.8.18,4.52,2,3.16,3.81,6.61,5.67,10s2.42,7.47,2,12.26c-.59,6.69-.73,13.52-1.07,20.44C504.09,371.16,504.75,371.73,505.63,375.79Zm-39.41-66.37.51.78c3.78-1.81,8-1.32,10.89-7.72,1.72-3.82,2.21-11.66.38-15.64-1.31-2.85-2.69-3.06-3.83-.19-2.22,5.58-4.35,11.26-6.43,17C467.1,305.4,466.72,307.48,466.22,309.42Zm-22.51-73.78,16.86-5.45-.06-1c-4.31.08-8.63-.09-12.91.39C446.08,229.78,444.38,230.89,443.71,235.64Z"/><path class="cls-17" d="M512.92,395.18c-.34-5.24,1.62-9.48,3.37-14-2.84-5-8.13-6.47-7.22-16.36l-.49.1a22.8,22.8,0,0,0-.41,2.36c-.46,6.24-1.34,12.11-3.32,17.3-1.56,4.11-2.63,4.27-4.28.38-.6,2.06-.93,4.91-1.93,6.34-1.57,2.22-2.46-1.77-3.8-3-.74,2.46-.12,4.78.48,7,1.12,4.09,2.41,8.07,3.48,12.19a144.42,144.42,0,0,1,3.33,14.31c1.05,6.88-.05,13.28-1.53,19.33a1.68,1.68,0,0,1-.36.66c-.07.1-.2.09-.09.05.54-4.92,1.65-10,1.51-15.11a77.85,77.85,0,0,0-2.44-15.28c-1.24-5.28-3.13-10.15-4.43-15.41-.61-2.45-.5-5.39-.7-8.11,0-.41.13-.85.07-1.24-.72-4.6-1.47-9.2-2.25-14.06-3.4,2.06-7,1.79-10.61-1.83,1.76.6,3.54,1.58,5.29,1.67s3.55-.67,5.31-1.06c-.19-5-.38-9.65-.54-13.91l-6-4,.11-.8,5.34,3.17.2-.78-5.17-9.53.3-.51c1.94,3.06,3.9,6.1,5.81,9.23a6,6,0,0,1,.12,1.76Q493,369,494,382a9.21,9.21,0,0,0,.67,2.45c.17-3.22.5-6.28,2.68-6.23.84,0,1.71,1,2.81,1.77.06-1.06.21-2.86.29-4.69.36-7.71.78-15.43,1-23.21a15,15,0,0,0-1-6.1,173.28,173.28,0,0,0-8.35-15.26c-2.38-3.78-5.28-3.09-6.7,1.47-1.54,5-2.75,10.26-3.86,15.59-.35,1.64.1,3.89.21,6.54-1.81-8.72-3.46-16.71-5.06-24.4l-9.47,2.58c1,9,2.24,18.35,3.19,27.74.66,6.61,1.55,13.42,1.35,19.89a206.2,206.2,0,0,0,4.48,48.26c.45,2.16.77,4.37,1.14,6.56a9.7,9.7,0,0,1-.08,1.36,13.79,13.79,0,0,1-.68-1.85c-3.64-17.92-6.27-35.94-5.61-54.84.23-6.64-.94-13.66-1.53-20.51-.31-3.54-.72-7.06-1.12-10.59-.62-5.54-1.28-11.08-1.93-16.73-2.4-.16-4.5-.21-6.6-.46-4.42-.51-8.84-1.28-13.24-1.64-2.37-.2-4.72.29-7.08.37-5,.17-10,1-15,.22-6.33-.95-12.14,1.42-18,3.84-.84.34-1.67.7-2.5,1.05l-.17-.9c1.25-.72,2.48-1.57,3.76-2.15,5.89-2.67,11.84-4.49,18.23-3.08a31.67,31.67,0,0,0,11.28-.07c4.05-.58,8-1.14,12.21-.24,5.39,1.16,10.82,1,16.26,1.43a9.83,9.83,0,0,1,1.62.13c5.24,1.27,9.18-2,12.15-9.42a60.48,60.48,0,0,1,4.07-7.37c-2.22-5.78-2.05-6.52,2.89-12.15v-1c-1.17-.06-2.41-.51-3.52-.11-3.34,1.19-5.47,5.59-7.87,9.3a5,5,0,0,1-2.58,2.11c-3.77,1.13-7.54,2.08-11.33,2.9a3.27,3.27,0,0,1-2.73-.74c-2.56-2.17-5-4.65-7.57-7L448,313.5l-.34-.27a18.21,18.21,0,0,1,.73-3.09c2.53-5.64,5.14-11.21,7.71-16.85,1-2.1,2-4.16,2.81-6.44,1.13-3.1,1.11-6.62.34-10.52-3.44,3.6-5.82,8.67-7.43,15A26.34,26.34,0,0,1,456,278.77c2.31-3.53,4.72-6.9,6.91-10.7,1.75-3.05,1.93-7.14,1.1-11.54-.45-2.34-1.11-2.87-2.36-2.13A25.37,25.37,0,0,0,450.84,267a15.27,15.27,0,0,1-.76,1.36c.81-4.35,3.46-9.44,6.28-11.67,2.54-2,5.18-3.63,7.81-5.35s3.07-2.75,3.06-7.43c0-4.5-1.42-9.32-3.25-10.71a2.18,2.18,0,0,0-1.79-.42c-3,.75-6.11,1.23-9.05,2.53-6.54,2.9-13.13,2.4-19.82.57a48.94,48.94,0,0,0-10.69-1.37c-1.3-.07-2.57.93-3.85,1.44l-.17-1c1.81-.71,3.6-1.88,5.45-2a27.9,27.9,0,0,1,7,.88,2.59,2.59,0,0,0,2.89-1.36,95.39,95.39,0,0,1,6.26-7.49c2.65-3,4.57-7.26,6-12.25a14.41,14.41,0,0,0,.52-4.33c-.32.59-.62,1.24-1,1.75-3.55,5.15-3.24,5.84-6.88-1.25-.29-.57-.54-1.22-.78-1.79-.17,0-.32-.2-.4-.12-3.89,4.5-8.24,7-12.67,9.19-1.19.61-2.15,2.58-3.15,4.07-2.39,3.58-4.64,7.48-7.13,10.78a40.48,40.48,0,0,1-6,6.18c-4.67,4.05-8.32,10.05-11,18.05a191.82,191.82,0,0,1-19.64,42.07.91.91,0,0,1-1.08.51,22.57,22.57,0,0,1,1-2.57c2.92-5.24,6.13-10,8.75-15.8,3.68-8.08,7.16-16.6,10.33-25.52,3.51-9.93,8.6-15.9,14.2-21.22,2.88-2.73,5.45-6.5,8.15-9.84a3.77,3.77,0,0,0,.87-1.52c1.19-5.33,3.88-6.79,6.58-7.8,4.06-1.53,7.56-5,11.13-8.47a34.36,34.36,0,0,1,7.19-5.36c2.39-1.32,2.93.36,2.71,4.94-.55,11.21-4.24,17.85-9,23.19a39,39,0,0,0-4.91,6.64c1.77.4,3.54.85,5.32,1.14.34.05.81-.39,1-.9,1.88-4.5,4.69-5.72,7.59-5.69a108.06,108.06,0,0,1,13.43,1.39c5.53.78,7.72,11,6.06,18.93-.39,1.86-2.08,2.7-3.29,4.15,2.44,8.48.67,14.78-3.06,19.77-1,1.28-1.29,2.51-.85,4.87a16.9,16.9,0,0,1-.86,9.86c-1.91,4.22-4,8.15-6,12.21-.87,1.77-1.7,3.61-2.58,5.49a66.94,66.94,0,0,1,5.79,5.4c2.59,3,5.14,1.59,7.18,1.57,1.45-4.48,2.79-8.34,4-12.38.81-2.78,1.24-6,2.12-8.68a65.73,65.73,0,0,1,3.41-8c.81-1.65,1.66-1.18,2.36.85a28.36,28.36,0,0,0,1.47,3.39,20,20,0,0,1,1.8,9.24c0,1.38-.14,2.75-.23,4.49,1.06-.83,1.93-1.61,2.85-2.21,1.81-1.19,3.58-1.64,5.38,1,.44.63,1.27.41,1.92.52,1.28.21,1.79,1.57,1.1,3.28a54.92,54.92,0,0,1-3.24,6.21c-3,5.34-6,10.55-8.94,16a7.79,7.79,0,0,0-.43,4.08c1,5.1,2.23,10.09,3.5,15.67.95-3.85,1.75-7.3,2.64-10.67,2.24-8.5,3.81-9.56,8.91-6,1.54-5.28,4.57-6.58,7.51-8.13.45-.24,1.05-.51,1.44-.17,2,1.76,2.89-.6,3.75-2.89,2.07-5.48,5.15-6.17,8.62-4.82a4,4,0,0,1,1.74,1.94c4.06,8.3,5.81,18,5.93,28.4,0,2.67-1,5.22-1.4,7.89-1,6.21-1.8,12.48-2.77,18.66-.41,2.64-1,5.15-1.63,8,.66,1.57,1.37,2.1,2.29.12,2.8-6,5.83-11.56,7.66-19a142,142,0,0,1,5-15.22c1.85-5,4.78-7.37,8.15-8.3a17.77,17.77,0,0,0,2-.62c1.91-.79,2.87.27,2.44,3.63a52.63,52.63,0,0,1-2.45,10.27c-2.33,6.89-4.9,13.36-5.06,22.08a60.49,60.49,0,0,1-1.78,12c-1.39,6.1-3.33,11.77-4.53,18-1,5.14-1.26,10.79-1.85,16.21-.37,3.34-.5,6.86-1.15,10-1,4.87-2,10-3.67,14.08a156.2,156.2,0,0,0-7.24,24.08c-1.24,5.34-2.33,10.81-3.48,16.2a1.18,1.18,0,0,1-.76,1c.15-1.42.23-2.89.47-4.25,2.42-13.62,5.52-26.68,10.5-38,2.48-5.61,3.28-12.38,4-19.28,1-9.27,1.29-19,3.66-27.59.74-2.66,1.38-5.43,2.21-8a56.94,56.94,0,0,0,2.9-16.75c.18-8.65,3.22-14.83,5.52-21.68a24.14,24.14,0,0,0,1.35-5.21c.36-3.49-.87-5.63-2.84-5-4.22,1.27-7.21,5.25-9.16,11.93-3.46,11.85-7.14,23.33-12.43,32.88C515.33,385.59,514.27,391,512.92,395.18Zm-9.2-71.86,2.77,5.35c.14-.76.21-1.19.18-1,.89,2.37,1.72,5,2.77,7.27a22.37,22.37,0,0,1,2.11,11.65c-.53,5.92-1.29,11.73-1.75,17.65a26.44,26.44,0,0,0,.52,6.43c.24,1.28,1,2.31,1.86,4.05.26-8.68.52-9.11,4.71-8.8.41-2.53.82-5.1,1.24-7.66.47-3,1-5.94,1.41-9s1.13-6,.93-9a74.48,74.48,0,0,0-4.11-21.06c-2.08-5.58-6.81-7.09-9.4-2.71C505.77,318.55,504.81,321,503.72,323.32Zm1.86,56.2c.23-1.2.36-1.77.45-2.36,1.57-10.47,3.26-20.92,4.63-31.56a17.14,17.14,0,0,0-1-7.48,139.8,139.8,0,0,0-6.47-13.34c-.67-1.25-2.06-2.66-2.74-2.26a30.72,30.72,0,0,0-6.4,5.33c-1,1.06-.88,2.8.22,4.55,2,3.23,3.91,6.75,5.82,10.22s2.5,7.58,2.11,12.41c-.56,6.72-.65,13.61-.95,20.57C504,374.82,504.65,375.41,505.58,379.52Zm-40.44-67.78.52.79c3.83-1.73,8.13-1.15,11-7.53,1.72-3.81,2.16-11.7.28-15.75-1.35-2.91-2.75-3.15-3.89-.29-2.22,5.58-4.34,11.26-6.42,17C466,307.7,465.63,309.8,465.14,311.74Zm-23.32-74.85,17.07-5.12-.07-1c-4.37,0-8.76-.29-13.09.11C444.18,231,442.46,232.12,441.82,236.89Z"/><path class="cls-17" d="M512.33,394.24c-.35-5.24,1.62-9.48,3.37-14-2.84-5-8.13-6.47-7.23-16.37l-.48.1a23,23,0,0,0-.41,2.37c-.46,6.24-1.34,12.11-3.32,17.3-1.56,4.1-2.63,4.27-4.28.38-.59,2.06-.93,4.91-1.93,6.34-1.57,2.22-2.46-1.77-3.8-3-.73,2.46-.12,4.78.48,7,1.12,4.09,2.41,8.07,3.48,12.19a144.42,144.42,0,0,1,3.33,14.31c1,6.88,0,13.28-1.52,19.33a2,2,0,0,1-.36.66c-.08.1-.21.09-.1.05.54-4.92,1.65-10,1.52-15.11a78.62,78.62,0,0,0-2.45-15.28c-1.23-5.28-3.13-10.15-4.43-15.41-.61-2.45-.5-5.39-.7-8.11,0-.41.13-.85.07-1.24-.72-4.6-1.47-9.2-2.25-14.06-3.4,2.06-7,1.79-10.61-1.82,1.77.59,3.54,1.57,5.29,1.67s3.55-.68,5.31-1.07c-.19-5-.38-9.65-.54-13.91l-6-4,.11-.8,5.34,3.17.2-.78-5.16-9.53.29-.51c1.95,3.06,3.9,6.1,5.81,9.23a6,6,0,0,1,.12,1.76q.93,13,1.87,25.91a8.89,8.89,0,0,0,.68,2.45c.16-3.22.49-6.28,2.67-6.24.84,0,1.71,1,2.81,1.78.06-1.06.21-2.87.29-4.69.36-7.72.78-15.44,1-23.22a15,15,0,0,0-1-6.09,173.28,173.28,0,0,0-8.35-15.26c-2.38-3.78-5.28-3.09-6.7,1.47-1.54,5-2.75,10.27-3.86,15.6-.34,1.63.1,3.89.21,6.53-1.81-8.72-3.46-16.71-5.06-24.39l-9.47,2.58c1.05,9,2.25,18.34,3.19,27.73.67,6.62,1.56,13.42,1.36,19.89a205.75,205.75,0,0,0,4.48,48.27c.44,2.15.77,4.37,1.13,6.56a7.82,7.82,0,0,1-.07,1.36,13.79,13.79,0,0,1-.68-1.85c-3.64-17.92-6.27-35.95-5.62-54.84.24-6.64-.94-13.66-1.53-20.51-.3-3.54-.71-7.07-1.11-10.6-.63-5.54-1.28-11.08-1.94-16.72-2.4-.16-4.49-.21-6.59-.46-4.42-.52-8.84-1.28-13.24-1.64-2.37-.2-4.72.3-7.07.37-5,.17-10,1-15,.23-6.32-.95-12.13,1.42-18,3.84-.84.34-1.67.7-2.5,1l-.17-.89a43.25,43.25,0,0,1,3.76-2.16c5.88-2.67,11.84-4.49,18.22-3.09a31.67,31.67,0,0,0,11.28-.07c4.05-.58,8-1.14,12.21-.24,5.38,1.16,10.81,1,16.25,1.43a9.94,9.94,0,0,1,1.63.12c5.24,1.27,9.18-2,12.14-9.42a61.24,61.24,0,0,1,4.07-7.37c-2.22-5.78-2.05-6.52,2.89-12.15v-1c-1.18-.06-2.41-.51-3.52-.11-3.34,1.19-5.47,5.59-7.87,9.3a5,5,0,0,1-2.58,2.12q-5.64,1.68-11.32,2.89a3.23,3.23,0,0,1-2.74-.74c-2.55-2.16-5-4.64-7.56-7l-2.68,6.73-.34-.27a18.21,18.21,0,0,1,.73-3.09c2.53-5.65,5.13-11.22,7.71-16.85,1-2.11,2-4.16,2.8-6.44,1.13-3.1,1.11-6.62.34-10.53-3.44,3.61-5.82,8.67-7.43,15a26.34,26.34,0,0,1,4.12-12.58c2.32-3.53,4.73-6.9,6.91-10.71,1.75-3.05,1.93-7.13,1.1-11.54-.45-2.33-1.11-2.87-2.36-2.13a25.33,25.33,0,0,0-10.77,12.6c-.17.39-.39.69-.77,1.36.81-4.35,3.47-9.45,6.28-11.68,2.54-2,5.19-3.62,7.81-5.35s3.07-2.74,3.06-7.42c0-4.51-1.42-9.32-3.25-10.72a2.18,2.18,0,0,0-1.79-.41c-3,.74-6.11,1.22-9.05,2.53-6.54,2.9-13.12,2.4-19.81.57a50.19,50.19,0,0,0-10.69-1.37c-1.3-.06-2.57.94-3.85,1.45l-.16-1c1.8-.71,3.59-1.89,5.44-2a27.88,27.88,0,0,1,7,.87,2.61,2.61,0,0,0,2.89-1.35,89.72,89.72,0,0,1,6.26-7.5c2.64-3,4.56-7.26,6-12.25a14.76,14.76,0,0,0,.53-4.33c-.33.59-.63,1.23-1,1.75-3.55,5.15-3.24,5.84-6.88-1.25-.29-.57-.54-1.22-.78-1.79-.17,0-.32-.2-.39-.12-3.89,4.5-8.25,7-12.67,9.2-1.19.6-2.15,2.57-3.15,4.07-2.39,3.58-4.64,7.47-7.13,10.77a40,40,0,0,1-6,6.18c-4.67,4.06-8.32,10.06-11,18.07a192.72,192.72,0,0,1-19.64,42.07.91.91,0,0,1-1.08.51,20.84,20.84,0,0,1,1-2.57c2.91-5.24,6.12-10,8.74-15.8,3.68-8.08,7.16-16.6,10.32-25.53,3.51-9.92,8.61-15.9,14.2-21.22,2.88-2.73,5.45-6.5,8.15-9.85a3.71,3.71,0,0,0,.87-1.52c1.19-5.32,3.88-6.78,6.58-7.8,4-1.53,7.56-5,11.13-8.47a34.05,34.05,0,0,1,7.18-5.36c2.39-1.33,2.93.36,2.71,4.94-.55,11.21-4.24,17.85-9,23.19a39,39,0,0,0-4.9,6.64c1.77.4,3.54.85,5.31,1.14.35,0,.82-.4,1-.9,1.87-4.5,4.68-5.72,7.58-5.69a104.38,104.38,0,0,1,13.43,1.39c5.52.77,7.72,11,6.06,18.92-.39,1.86-2.08,2.71-3.28,4.16,2.43,8.48.66,14.77-3.07,19.77-.95,1.28-1.29,2.5-.85,4.86a16.89,16.89,0,0,1-.85,9.86c-1.91,4.23-4,8.15-6,12.22-.87,1.77-1.7,3.6-2.59,5.49a67,67,0,0,1,5.8,5.4c2.59,3,5.14,1.59,7.17,1.56,1.45-4.48,2.8-8.34,4-12.38.81-2.78,1.23-6,2.12-8.67a63.7,63.7,0,0,1,3.4-8c.81-1.65,1.66-1.18,2.36.85a29.24,29.24,0,0,0,1.47,3.4,19.93,19.93,0,0,1,1.8,9.23c0,1.38-.14,2.75-.23,4.49,1.05-.82,1.93-1.61,2.85-2.21,1.8-1.19,3.58-1.64,5.38,1,.44.63,1.27.41,1.92.52,1.28.21,1.78,1.57,1.1,3.27a53.27,53.27,0,0,1-3.24,6.21c-3,5.35-6,10.56-8.94,16a7.9,7.9,0,0,0-.43,4.08c1,5.1,2.23,10.09,3.5,15.67,1-3.85,1.75-7.3,2.64-10.67,2.24-8.5,3.81-9.56,8.91-6,1.53-5.28,4.57-6.58,7.51-8.13.45-.24,1.05-.51,1.44-.17,2,1.75,2.88-.61,3.74-2.89,2.07-5.49,5.15-6.18,8.62-4.83a4,4,0,0,1,1.74,1.94c4.06,8.3,5.81,18,5.94,28.4,0,2.67-1,5.22-1.41,7.89-1,6.21-1.79,12.49-2.76,18.67-.41,2.64-1,5.14-1.64,8,.66,1.57,1.37,2.1,2.3.13,2.79-6,5.83-11.57,7.65-19a142,142,0,0,1,5-15.22c1.84-5,4.77-7.38,8.15-8.31a14.86,14.86,0,0,0,2-.62c1.91-.79,2.86.28,2.44,3.63a52.56,52.56,0,0,1-2.45,10.28c-2.33,6.88-4.9,13.36-5.06,22.08a59.77,59.77,0,0,1-1.78,12c-1.38,6.1-3.33,11.77-4.53,18-1,5.14-1.26,10.79-1.85,16.21-.36,3.34-.49,6.86-1.14,10-1,4.88-2,10-3.67,14.08a155.23,155.23,0,0,0-7.23,24.09c-1.25,5.34-2.33,10.8-3.49,16.2a1.16,1.16,0,0,1-.76,1c.16-1.42.24-2.89.48-4.26,2.41-13.62,5.51-26.67,10.49-38,2.48-5.61,3.28-12.39,4-19.29,1-9.27,1.29-19,3.67-27.59.73-2.66,1.37-5.43,2.2-8a56.67,56.67,0,0,0,2.9-16.75c.18-8.65,3.22-14.83,5.52-21.68a24.23,24.23,0,0,0,1.35-5.22c.36-3.49-.88-5.62-2.84-5-4.22,1.27-7.21,5.25-9.16,11.93-3.46,11.85-7.13,23.33-12.42,32.88C514.73,384.65,513.68,390.07,512.33,394.24Zm-9.2-71.86,2.77,5.34c.13-.76.21-1.18.18-1,.89,2.36,1.71,5,2.77,7.26A22.47,22.47,0,0,1,511,345.61c-.53,5.92-1.29,11.74-1.75,17.66a26,26,0,0,0,.52,6.43c.24,1.28,1,2.3,1.85,4,.27-8.67.53-9.11,4.72-8.79.4-2.54.82-5.1,1.23-7.67.48-3,1-5.94,1.42-9s1.12-6,.92-9a74.9,74.9,0,0,0-4.1-21.06c-2.09-5.58-6.82-7.09-9.41-2.7C505.17,317.6,504.22,320.06,503.13,322.38ZM505,378.57c.23-1.19.37-1.76.46-2.36,1.57-10.47,3.25-20.91,4.63-31.56a17.3,17.3,0,0,0-1-7.48,142,142,0,0,0-6.47-13.33c-.67-1.26-2.07-2.67-2.75-2.27a30.48,30.48,0,0,0-6.39,5.34c-1,1.06-.89,2.79.21,4.55,2,3.23,3.92,6.75,5.83,10.21s2.5,7.59,2.1,12.41c-.55,6.73-.64,13.61-.94,20.58C503.39,373.87,504.06,374.47,505,378.57Zm-40.43-67.76.52.79c3.83-1.74,8.13-1.16,11-7.54,1.72-3.81,2.16-11.7.28-15.75-1.35-2.91-2.75-3.14-3.89-.28-2.21,5.57-4.34,11.25-6.41,17C465.42,306.77,465.05,308.87,464.55,310.81ZM441.23,236l17.07-5.12-.07-1c-4.37,0-8.76-.28-13.09.11C443.6,230.1,441.87,231.19,441.23,236Z"/><path class="cls-11" d="M513,364.57s3.52-2.06,4-.61-2.38,17.23-2.38,17.23l-2.34-.12A41.38,41.38,0,0,1,513,364.57Z"/><path class="cls-11" d="M496,379.21c1-4.53,3.48-2,4-.58s-2.33,17.08-2.33,17.08l-1.44-.08-.46-.92s-.48,0-.54-1.48C495.12,389.85,495,383.55,496,379.21Z"/><path class="cls-11" d="M501,375.33c1-4.55,3.49-2,4-.6s-2.34,17.13-2.34,17.13l-1.45-.08-.95-.37s0-.59-.05-2C500.05,386,500,379.67,501,375.33Z"/><path class="cls-11" d="M468,296.16l9.5-19-.59-2.32s-8.23,14.62-8.58,18.72S468,296.16,468,296.16Z"/><path class="cls-11" d="M538.51,352.79s5.08-14.63,4.37-18.12-.4-4.24-.4-4.24l1.39,4.2s-1.78,13.85-4.39,18.42C538.8,354.24,538.51,352.79,538.51,352.79Z"/><path class="cls-10" d="M483.21,312.09s-2-3.9-1.13-5.87A19.3,19.3,0,0,1,493,295.85s-5.86,16.7-9.66,16.25"/><path class="cls-10" d="M438.06,205.09s2.44,5.94,4.3,5.8,9.88-11.48,9.63-14.13S440.45,197.62,438.06,205.09Z"/><polygon class="cls-10" points="552.94 247.6 520.59 266.73 545.11 278.94 517.52 281.25 543.17 290.06 522.07 293.97 569.38 313.88 534.49 296.34 552.69 291.47 534.82 283.13 552.9 281.92 530.79 267.95 552.94 247.6"/><path class="cls-11" d="M501.61,198.28l1.32-2.94c-1.73-4.19-3.45-8.37-5.37-13,2.35-3.86,4.74-7.81,7.15-11.76-.42-1.17-.83-2.35-1.25-3.53-2.89,2.66-5.66,6.89-8.69,7.48-2.88.57-6-2.64-9.86-4.61l5.93-15.07c-.44-1.72-.87-3.45-1.31-5.17-4.83,17.59-12.94,12.43-20.43,11.33,0,1.07.09,2.15.14,3.23l7,5.5c0,1.12.08,2.24.13,3.36l-10.72,4.3c-1.37,8.42-2.48,15.25-4.06,24.93,7-4.29,11.1-26.18,19-6.14l-8.41,19,2.23,3.88q5.24-7.73,10.48-15.44l7.09,7.58c.29-.78.59-1.57.89-2.35-1.4-4.23-2.8-8.46-4.45-13.48l4.95-6.09Zm-24.29-16.76c4.44-11.55,7.89-3.67,11.74,1.28C484.59,195.15,481.16,186.88,477.32,181.52Z"/><path class="cls-6" d="M489.06,182.8c-4.47,12.35-7.9,4.08-11.74-1.28C481.76,170,485.21,177.85,489.06,182.8Z"/><path class="cls-10" d="M487.83,270.25c4.4-2.63,6.92-10.79,6.15-16.9-.83-6.64-4.82-11.63-8.76-10.95-4.86.85-8.17,9.32-8.75,21.2a34.57,34.57,0,0,1-.92-6c.15-8.16,2.49-14,6.42-17.35s7.46-.92,10.58,4c4.67,7.36,3.68,23-1.65,27.93-2.18,2-3.57.86-5.36-2.74-1.92-1.52-5.09-2.43-5.46-4.68-.61-3.69.2-8.61,1.16-12.35s3.21-4,5.41-2.64c2.9,1.82,3.73,5.1,2.76,10.79C488.94,263.31,488.5,266.1,487.83,270.25Z"/><path class="cls-4" d="M486.35,262.15c-.91,2.27-2.44,3-3.41,1.72s-1-4.22-.12-6.49,2.44-3,3.41-1.73S487.26,259.88,486.35,262.15Z"/><path class="cls-18" d="M198.1,183.58c-2.88,29-47.9,61.74-87.87,56.89-33.23-4-51.36-32.63-50.78-57.64.14-6,.43-18.49,10-29.64,22.06-25.55,77.67-43.11,108-20.35C183,137,200,165,198.1,183.58Z"/><path class="cls-18" d="M190.13,148.23c16.46,26.09,0,75-36.71,88.78-30.2,11.34-63-5.43-77.82-27.13-3.54-5.16-10.88-15.87-9.86-29.51,2.33-31.1,36.41-70.41,75.09-65.32C148,116,179.68,131.66,190.13,148.23Z"/><path class="cls-10" d="M70.44,163.66c9.88-28.79,56-53.83,88.38-39.19,27.76,12.54,32.87,48.54,23,74.72-2.31,6.11-7.06,18.66-19,27.06-26.14,18.44-73.59,19.62-90-8.95C69.8,212.06,64.33,181.44,70.44,163.66Z"/><path class="cls-6" d="M212.64,195.09l-10.52.22c-8.28.18-14.47-6-13.79-13.8l.86-9.91c.68-7.89,8.09-14.6,16.49-14.88l10.69-.36c8.5-.28,14.82,6.06,14,14l-1,10C228.55,188.34,221,194.91,212.64,195.09Z"/><path class="cls-6" d="M130.46,256.8l-9.78,0c-7.7,0-13.62-5.88-13.2-13.14l.54-9.23c.43-7.35,7.14-13.48,14.94-13.59l9.93-.13c7.89-.11,13.93,5.92,13.39,13.36l-.68,9.35C145.07,250.79,138.24,256.78,130.46,256.8Z"/><path class="cls-11" d="M254.89,215.44c-1.54,13.65-3,27.16-4.59,40.54-.66,5.7-.73,5.74-7.07,5.81-5.18.06-10.34-.14-15.5.06-4,.17-5.45-1.1-4.94-4.87q1.59-11.9,2.47-23.94c.75-10.22-6.14-17.71-16.3-18.15-11.43-.49-21,7.4-22.26,18.44q-1.33,11.89-2,23.65c-.22,3.62-1.62,5.07-5.64,4.9-5.38-.23-10.79-.17-16.17,0-3.51.11-5.07-1-4.63-4.43s.55-6.77.82-10.17c1.8-23,3.79-46.46,5.35-70.3.34-5.09,2.4-8.05,6.93-11,12.86-8.38,25.67-17.25,38.54-26.37,3.82-2.7,6.38-2.76,9.7-.39q18.23,13,37,25.59c3.11,2.09,3.64,4.67,3.21,8.2C258,187.29,256.48,201.44,254.89,215.44Zm-45-24.3c9.25-.28,17-7.28,17.66-16.12.67-8.43-6-15-14.92-14.69s-17.1,8-17.62,16.39S201.07,191.41,209.88,191.14Z"/><path class="cls-4" d="M125.14,261.85c-7.53,0-15-.08-22.49,0-3.22.05-4.88-.64-4.63-4.19.86-12.34,1.49-24.81,2.09-37.39.14-2.8,1.25-4,4.22-4q23.78-.28,48.06-.72c3.06-.06,4.05,1.19,3.82,4q-1.59,19.21-2.87,38.07c-.2,3-1.44,4.26-4.75,4.22-7.85-.12-15.67,0-23.45,0Zm-1.59-14.79c.4-6.38.32-6.45-6.75-6.35-6.57.09-6.57.09-7,6.41-.42,6.55-.42,6.55,6.44,6.53S123.13,253.62,123.55,247.06Zm19,.39c.54-6.9.54-6.9-6.07-6.88-7.22,0-7.37.14-7.82,6.26-.49,6.75-.49,6.75,6.14,6.76C142.1,253.6,142.1,253.6,142.58,247.45Zm1.24-17.5c.62-7.39.62-7.39-5.75-7.41-7.52,0-7.69.1-8.16,6.15-.55,7-.55,7,6.08,7C143.34,235.66,143.34,235.66,143.82,230Zm-19.11-.89c.39-6.24.32-6.32-5.66-6.27-7.8.07-7.8.07-8.17,6.55s-.38,6.56,6.58,6.5S124.29,235.78,124.71,229.06Z"/><path class="cls-4" d="M284.88,261.79c-8.31,0-16.58-.09-24.82.06-3.73.06-5.15-1-4.7-4.56q2.44-19.14,4.47-38.66c.37-3.61,2.12-4.83,5.9-4.87q25.59-.22,51.75-.73c3.66-.07,5,1.07,4.49,4.44q-3,20.22-5.5,40c-.42,3.32-2.19,4.35-5.69,4.31C302.12,261.71,293.47,261.78,284.88,261.79Zm1.71-34.16c.88-6.89.74-7-7-6.94-7.49.09-7.49.09-8.32,6.6-.9,7.17-.9,7.17,6.46,7.13C285.72,234.37,285.72,234.37,286.59,227.63Zm21.18-.27c.94-7,.84-7.06-7-7-7.56.11-7.58.12-8.48,7.32-.82,6.54-.82,6.54,6.58,6.51C306.85,234.22,306.85,234.22,307.77,227.36Zm-38.7,18.76c-.87,7-.87,7,6.3,7,8,0,8,0,8.82-6.42.93-7.08.84-7.19-6.41-7.19C270,239.55,269.88,239.61,269.07,246.12Zm36.22,0c.88-6.72.77-6.82-7.22-6.73-7.31.08-7.31.08-8.15,6.78-.88,6.92-.88,6.92,6.73,6.9S304.39,253.06,305.29,246.13Z"/><path class="cls-17" d="M202.11,273.32,100.17,273c-1.85,0-3.7,0-5.54-.08-2.18-.06-3.32-1.07-3.29-3.21s1.26-3.19,3.48-3.25c1.24,0,2.47,0,3.71,0q103.22.09,216.06.26c2.87,0,7.61-1.5,6.91,3.35-.73,5.16-5.29,3.58-8.38,3.58Q256.33,273.58,202.11,273.32Z"/><path class="cls-17" d="M251,98.23c-1.14,10.69-1.55,11.08-12.85,10.67-4.66-.17-9.25-.71-13.87-1-3.15-.21-4.73,1.17-5.21,4.39-.68,4.53-.29,7.94,3.86,10.65,15.71,10.27,31.1,21,46.64,31.62a19.19,19.19,0,0,1,3,2.37c1.33,1.38,1.37,3.13,0,4.84a4.35,4.35,0,0,1-5.2,1.42,35,35,0,0,1-6.27-3.47q-18.9-13-37.63-26c-7.86-5.44-8-5.23-16.81.88-14.92,10.37-29.78,20.33-44.34,30.24-.76.52-1.56,1-2.29,1.53-2,1.52-4,1.53-5.29-.09-1.51-1.84-1-4,1.1-5.66s4-3.13,6.07-4.57c15.38-10.54,31-21.35,47-32,4.61-3.05,6.73-6.29,6.85-11.34.16-6.25,1.2-12.62,1.65-19,.27-3.85,2.44-5.39,6.09-5.76,4.1-.41,7.9.52,11.81,1,3.72.4,7.44,1,11.3.21,4.14-.82,5.82.2,4.87,4.32A39.13,39.13,0,0,0,251,98.23Z"/><path class="cls-17" d="M125.19,210.94c-8.72.14-17.4.39-26,.4-4.81,0-5.18-.88-2.29-4.84,3.87-5.31,7.92-10.56,11.81-15.95a7,7,0,0,1,5.92-3.29c12.65-.24,25.4-.53,38.27-.94,3.8-.12,5.59,1.07,5.1,5-.56,4.36-.67,8.72-1.05,13.06-.51,5.8-.68,6-6.6,6.16C141.9,210.72,133.53,210.81,125.19,210.94Z"/><path class="cls-17" d="M294.93,208.1c-9.44.16-18.81.21-28.16.52-3.79.13-5.46-.89-4.87-4.61.81-5.11,1.34-10.25,1.79-15.4.3-3.41,1.61-5.14,5.77-5.19,13.9-.16,28-.56,42.12-1,3.51-.1,5.68,1.15,7.21,3.75,3.17,5.43,6.64,10.68,9.83,16.08,2.15,3.63,1.35,5-3.58,5.16-10.12.4-20.13.41-30.1.57Z"/><path class="cls-17" d="M213.57,173.09c-.1,2.19-.41,4.76-3.24,6.5-1.77,1.09-3.24,2.68-5.39,3.07-.14-2.55,2.48-2.8,4-3.85,2.92-2.08,3.31-4.74,3.6-7.58a14.3,14.3,0,0,1,.7-2.47c1.24.56.41,1.72.52,2.61A10.65,10.65,0,0,1,213.57,173.09Z"/><path class="cls-6" d="M318,170.37c-19.9,12.67-54.84,7.74-63.8-13.7-7.66-18.34,6.39-42,23.94-54.47,4.2-3,13-9.22,23.58-9.9,24-1.55,51.32,17.77,44.24,43.73C344.63,140.71,330.71,162.24,318,170.37Z"/><path class="cls-10" d="M298.73,115.4a8.35,8.35,0,0,0-1.58.22,173.76,173.76,0,0,0-17.62,6.75c-1.42.65-1.73,1.31-1.26,2.59,1,2.78,1.89,5.62,2.69,8.48.36,1.25.92,1.44,2.33.86a48.19,48.19,0,0,1,10.69-3,10.86,10.86,0,0,1,5.16.32c.62.2,1.52.33,1.29,1.19s-1.08,1-1.81,1c-4.12.19-8,1.72-11.8,3.38-4.19,1.82-4.13,1.82-3.22,5.61,1.25,5.24,2.52,10.47,3.57,15.74.45,2.23-.46,3.26-2.66,3.84-2.59.67-4.35-.09-4.75-2.18a241.76,241.76,0,0,0-6.57-26.43c-.27-.89-.57-1.77-.81-2.67-.37-1.37-.69-2.51-2.88-2.2a3.2,3.2,0,0,1-3.52-2.25c-.5-1.41.74-2.41,1.68-3.44a11.57,11.57,0,0,0,2-2.46,3.43,3.43,0,0,1,1.87-1.5c8.16-3.38,16.35-6.9,24.86-9.5a10.16,10.16,0,0,1,3.57-.64c2,.13,3.73,1.78,3.38,3.26S300.66,115.44,298.73,115.4Z"/><path class="cls-10" d="M329.33,121.57a4.63,4.63,0,0,1,3.4.86,2.21,2.21,0,0,1,1,2.49c-.38,1.2-1.53,1.25-2.53,1.49a72.62,72.62,0,0,0-17.2,6.27,4.12,4.12,0,0,1-4.6-.1c-2.13-1.49-1.84-3.07.86-4.41a78.65,78.65,0,0,1,17.81-6.39C328.62,121.66,329.16,121.6,329.33,121.57Z"/><path class="cls-19" d="M340.2,107.54c9.66,15.73-5.72,49.77-33,62.45-22.62,10.52-44.86,2.31-53.75-10.93-2.11-3.14-6.49-9.66-4.57-18.91,4.34-21,32-50,59-50.07C312.9,90.07,334.08,97.57,340.2,107.54Z"/><path class="cls-19" d="M321.55,93c20.29,6.78,29.35,37.71,11.67,58.77-14.67,17.47-42,21.09-59.59,15.32-4.15-1.36-12.75-4.17-17.15-11.62-9.89-16.74-3.13-48.87,22.36-60.56C283.55,92.71,308.82,88.7,321.55,93Z"/><path class="cls-19" d="M253.44,142.71c-5-19,14.56-49.11,41-53.64,22.84-3.92,41.1,12.88,45.75,30.49,1.09,4.15,3.36,12.72-.86,21.85C330,161.59,299.18,180.55,276.55,171,272.44,169.24,256.55,154.59,253.44,142.71Z"/><polyline class="cls-20" points="126.75 177.1 138.49 178.74 136.32 164.22"/><polyline class="cls-20" points="81.8 135.01 98.58 160.28 110.95 153.22 120.37 171.49 125.72 166.83 137.65 178.11 125.54 162.48 120.53 168.64 110.61 154.89 101.61 158.72 80.97 126.43"/></g></g></svg>