<svg xmlns="http://www.w3.org/2000/svg" viewBox="0 0 595.42 853.28"><defs><style>.cls-1{font-size:34.51px;font-family:Lato-Bold, Lato;font-weight:700;}.cls-1,.cls-15{fill:#8fb38e;}.cls-2{letter-spacing:-0.03em;}.cls-3{letter-spacing:-0.01em;}.cls-4{letter-spacing:-0.01em;}.cls-5{letter-spacing:0em;}.cls-6{letter-spacing:0em;}.cls-7{letter-spacing:0em;}.cls-8{letter-spacing:-0.02em;}.cls-9{letter-spacing:-0.02em;}.cls-10{letter-spacing:-0.02em;}.cls-11{letter-spacing:0em;}.cls-12{fill:#ffceca;}.cls-13{fill:#f2c22a;}.cls-14{fill:#b286b0;}.cls-15{font-size:55.02px;font-family:AbrilFatface-Regular, Abril Fatface;}.cls-16{letter-spacing:-0.05em;}.cls-17{letter-spacing:-0.01em;}.cls-18{fill:#7dc7ae;}.cls-19,.cls-22,.cls-23,.cls-26,.cls-27,.cls-28,.cls-29,.cls-30,.cls-32,.cls-33,.cls-34{fill:none;stroke-miterlimit:10;}.cls-19,.cls-26,.cls-30{stroke:#7dc7ae;}.cls-19{stroke-width:1.54px;}.cls-20{fill:#fff;}.cls-21{fill:#f9b3af;}.cls-22,.cls-23{stroke:#f9b3af;}.cls-22{stroke-width:3.58px;}.cls-23{stroke-width:2.39px;}.cls-24{fill:#a682ae;}.cls-25{fill:#69acc7;}.cls-26,.cls-28{stroke-width:1.92px;}.cls-27,.cls-32,.cls-33{stroke:#a682ae;}.cls-27{stroke-width:1.72px;}.cls-28,.cls-29{stroke:#69acc7;}.cls-29{stroke-width:1.5px;}.cls-30{stroke-width:1.1px;}.cls-31{fill:#ffb23c;}.cls-32{stroke-width:2.28px;}.cls-33{stroke-width:1.66px;}.cls-34{stroke:#fff;stroke-width:1.83px;}</style></defs><g id="Layer_2" data-name="Layer 2"><g id="Layer_1-2" data-name="Layer 1"><text class="cls-1" transform="translate(38.03 29.73)"><tspan class="cls-2">R</tspan><tspan class="cls-3" x="21.04" y="0">o</tspan><tspan x="40.52" y="0">t</tspan><tspan class="cls-4" x="53.36" y="0">a</tspan><tspan class="cls-5" x="70.63" y="0">t</tspan><tspan x="83.33" y="0">e the cube </tspan><tspan class="cls-6" x="251.77" y="0">t</tspan><tspan class="cls-7" x="264.47" y="0">o see</tspan><tspan class="cls-8" x="344.71" y="0"> </tspan><tspan class="cls-9" x="352.23" y="0">y</tspan><tspan x="369.89" y="0">ou</tspan><tspan class="cls-10" x="409.18" y="0">r</tspan><tspan x="421.33" y="0" xml:space="preserve"> o</tspan><tspan class="cls-4" x="449.54" y="0">p</tspan><tspan class="cls-11" x="468.9" y="0">tions </tspan></text><polygon class="cls-12" points="76.47 180.35 433.26 129.7 364.64 439.36 0 485.04 76.47 180.35"/><polygon class="cls-13" points="0 485.04 165.55 736.37 523.36 685.98 364.64 439.36 0 485.04"/><polygon class="cls-14" points="433.26 129.7 595.42 382.03 523.36 685.98 364.64 439.36 433.26 129.7"/><text class="cls-15" transform="translate(233.06 837.27)"><tspan class="cls-16">F</tspan><tspan x="29.55" y="0">ami</tspan><tspan class="cls-17" x="126.05" y="0">l</tspan><tspan x="142.61" y="0">y</tspan></text><path class="cls-18" d="M95.12,397.52c44.41-13.91,162.36-32,220.68-31.28,50.37.64,34.59,15.05-6.88,28a463.44,463.44,0,0,1-62.72,15C173.8,421.89,68.13,430.44,56,420.5,53.82,418.69,67.36,406.21,95.12,397.52Z"/><path class="cls-19" d="M350.77,372.74c-1.12-12.7-91.24-9.07-171.48,4.38C94,391.43,37.05,413.93,57.9,422.94c16.17,7,77,5.11,145.47-5.8C278.53,405.16,351.77,384.09,350.77,372.74Z"/><path class="cls-19" d="M95.67,394.22c44.56-14.92,162.5-33.17,220.61-31.19,50.2,1.72,34.18,17.78-7.43,31.67-9.79,3.27-30,10-62.84,15.87-72.46,12.89-178,20.53-189.83,9C54,417.46,67.81,403.55,95.67,394.22Z"/><path class="cls-19" d="M259.86,366.35c70.47-5.79,119.37,5.78,72.67,24.88-39.23,16-129.22,30.42-191.07,35.24-14.48,1.13-44.27,3.45-62.31,1.4-40-4.54-32.72-24.29,43.45-41.49C136.67,383.2,216.17,369.93,259.86,366.35Z"/><path class="cls-20" d="M214.9,386.4,183.46,391c-6.46.95-11-2.88-10.08-8.5l3.81-23.63c.9-5.59,6.9-11,13.34-12l31.35-4.82c6.52-1,11.13,2.78,10.25,8.42l-3.74,23.81C227.5,380,221.43,385.44,214.9,386.4Z"/><path class="cls-21" d="M205.12,377.38c-4.55-.77-9.33-.06-14.49,1,5.48-5.16,10-10.77,15.86-16-7.57-2.61-18.32-1.84-27.05-3.11-.63-.19-.87-.73-.54-.78,17.44-7.56,34.76-14,52.14-22.42-9.72-2-19.69-2.14-29.83-3.15-4.23-.49-9,.25-12.29-1.82,3-1.89,6.1-3,9.05-4.85,7.36-4.6,14.49-7.73,20.7-13.3-15-1.63-30.12-2.09-44.58-4,17.65-9.66,35.92-16.6,53.16-27.1-16.94-1.79-34.81.84-52.79.67-1-.13-2.54-.43-1.44-1.18,15.17-12.95,33.92-21.44,47.09-35.81-13.34,1.11-27,4.54-40.28,5.93a6.22,6.22,0,0,1,2.39-2.65c16.15-13.14,30.22-27.35,41.3-43.3l1.57-2.12-5-2.64L114.86,288.89,99.94,403.34l90.77-14.93c4.82-3.06,9.66-6,14.17-9.54C205.27,378.52,205.12,377.38,205.12,377.38Z"/><path class="cls-21" d="M329.9,243.43,243.06,198l-1.56,2.13c-11.11,16-25.23,30.24-41.45,43.42a6.19,6.19,0,0,0-2.39,2.66c13.34-1.41,27.07-4.86,40.48-6-13.2,14.41-32,22.93-47.27,35.93-1.11.75.48,1.05,1.45,1.18,18.07.15,36-2.5,53.08-.72-17.32,10.54-35.67,17.5-53.4,27.19,14.54,2,29.74,2.4,44.83,4-6.23,5.59-13.4,8.73-20.79,13.35-3,1.9-6.12,3-9.08,4.87,3.32,2.06,8.1,1.32,12.35,1.8,10.2,1,20.22,1.18,30,3.14-17.46,8.49-34.87,14.92-52.38,22.51-.34.05-.1.59.54.78,8.78,1.26,19.58.48,27.21,3.09-5.86,5.24-10.43,10.86-15.93,16,5.19-1.07,10-1.79,14.57-1,0,0,.16,1.14-.23,1.49-4.53,3.54-9.4,6.51-14.23,9.57l102.55-16.9Z"/><polygon class="cls-22" points="94.11 405.35 108.94 287.98 228.74 195.4 335.84 242.6 316.91 369.15 94.11 405.35"/><polygon class="cls-23" points="100.38 404.43 115.93 283.86 230.26 190.28 330.61 240.2 311.13 369.91 100.38 404.43"/><path class="cls-20" d="M310.58,279.32c1.78,9,3.33,17.5,5.19,25.92,1.64,7.42,3.32,14.87,6.62,21.58.88,1.79-.21,3.12-2.09,4.44a24.89,24.89,0,0,1-8,3.61c-2.41.65-3,1.74-3.05,3.33a283.38,283.38,0,0,1-3.57,31.5,38.53,38.53,0,0,1-2.82,9.51c-.45,1.05-1,2.37-2.58,2.67s-2-.75-2.35-1.64c-2.05-4.78-2.36-10.22-2.69-15.6-.44-7.43-1.31-14.71-1.93-22.06-.18-2.12-1.05-2.91-3.8-2.25-2.28.54-4.55.75-6.82,1.07-5.14.74-5.25.73-7,5.32-3.4,8.95-6.59,17.92-10,26.88a59.55,59.55,0,0,1-5.68,12c-.74,1.14-1.51,2.48-3.14,2.56-1.45.08-1.56-1.12-1.72-2.1a25.61,25.61,0,0,1-.06-8.16c1.75-11,3.49-22,6-33.08.39-1.71.21-2.47-1.77-2.43a10.48,10.48,0,0,1-3-.52c-3.54-1-3.74-2.11-1.49-5.75C264.6,320.28,271.71,304.09,279,288c.59-1.31.7-2.45-.41-2.94-1.29-.56-2.64.59-3.71,1.52-4.6,4-8.2,8.6-12.15,13a103.28,103.28,0,0,1-9.66,10c-1.21,1-2.55,2.16-4,1.74-1.28-.36-1.17-1.59-1-2.77,1.21-8.51,6.34-16.47,12.79-24.16,9.55-11.37,21.38-19.58,36.1-22.13,15.25-2.64,25.45,2.19,32.25,11.24,4.28,5.69,7,12.21,6.22,20.24-.14,1.55-.28,3.37-2.37,4.38s-3.27-.28-4.36-1.17c-5.23-4.29-8.5-10-13.13-14.71A8.74,8.74,0,0,0,310.58,279.32Z"/><path class="cls-20" d="M99.64,387.89c4.33-20,8.84-38.61,15.83-57.35,2.13-5.73,5.18-11.43,6.72-17.16a11.07,11.07,0,0,0,.46-2.54c.07-2.28-1.34-2.62-3.67-.81a59.11,59.11,0,0,0-7.61,7.65c-4.15,4.61-8.23,9.27-12.5,13.8-1.51,1.61-3.45,3.83-5.66,3.38s-1.37-2.93-.81-4.75c3.48-11.39,10.66-21.73,21.29-30.76C134.07,282,159.6,281,171.23,298.1a30.08,30.08,0,0,1,5.5,16.94c0,2.32.64,5.3-2.56,7s-4.46-1-5.79-2.53c-3.29-3.75-6.25-7.73-9.42-11.55a35.34,35.34,0,0,0-3.44-3.37,2.47,2.47,0,0,0-3-.56,3.43,3.43,0,0,0-2,3.13,31.6,31.6,0,0,0,0,7.08c2.33,14.45,1.76,29.79.49,45.33-1,12.22-2,24.5-5.27,37.17a26.1,26.1,0,0,1-1.66,4.94c-.6,1.25-.89,3-2.86,3.46s-2.15-1.14-2.53-2.24A36.68,36.68,0,0,1,137,392.09c-.44-10.83-1.07-21.57-3-31.83a13.4,13.4,0,0,0-2.32-5.91c-1.47-1.89-2.9-1.68-5.09.74a29.42,29.42,0,0,0-4.33,6.64c-5.26,10.3-9,20.69-12.68,31.09a86.71,86.71,0,0,1-6.58,15c-.77,1.35-1.51,3.27-3.48,3.41-2.12.16-1.9-1.81-2-3.17C97.24,401.07,98.5,393.82,99.64,387.89Z"/><path class="cls-24" d="M182.11,390a327.74,327.74,0,0,1,10.64-34.65,82.31,82.31,0,0,0,3.79-13.09c.48-2.5-.26-3.94-2.54-4.85-5.62-2.24-11.37-4.31-16.09-7.59a9.09,9.09,0,0,1-3.25-3.24,2.22,2.22,0,0,1,.47-2.93c1.23-1.17,2.08-.38,2.85-.11,6,2.07,12.16,3.75,19.4,3.53,14.8-.46,29.72-2.82,44.79-11.68,1.24-.73,3-2.33,4-1.44s-.46,2.59-1.42,3.79a53.32,53.32,0,0,1-22.12,16.2c-2.79,1.13-3.83,2.36-4.13,4.61-.81,6.27.33,12,.76,17.87.68,9.25.08,18.81-.4,28.38a26.37,26.37,0,0,1-2,8.21,3.49,3.49,0,0,1-2.31,2.41c-1.4.36-1.85-.55-2.22-1.3-1.67-3.46-2.23-7.39-2.7-11.36s-1.16-7.68-2.94-11c-1.87-3.47-4.18-3.08-7.41,1-4.48,5.64-6.22,11.69-9.12,17.57a43.88,43.88,0,0,1-4.34,7.74c-.69.91-1.48,1.92-2.78,1.88-1.1,0-1.27-.88-1.44-1.67C181,395.9,181.81,393.22,182.11,390Z"/><path class="cls-20" d="M135.69,269.31c1.44-8.7,10.55-17,20.52-18.71,10.23-1.74,17.28,3.87,15.85,12.66s-10.94,17.29-21.06,18.9C141,283.74,134.25,278,135.69,269.31Z"/><path class="cls-20" d="M293.09,229.59c10.44-1.72,17.44,3.87,16,12.83s-10.79,17.2-21.16,18.9-17.5-4.09-16.11-12.8C273.28,239.48,282.42,231.34,293.09,229.59Z"/><path class="cls-24" d="M199.11,313.34c1-6.63,7.53-12.56,15.11-13.8s13,2.95,11.9,9.52c-1.05,6.41-8,12.65-15.45,13.85S198.1,319.78,199.11,313.34Z"/><path class="cls-25" d="M150.82,279.53c-5.24.86-9.58-1-11.33-4a6.35,6.35,0,0,1-.6-5.83c2.41-6.69,12.21-15.19,20.24-15.58,1.58-.08,7.64,1.69,9.2,4.54h0c1.06,1.95.63,5-1.19,8.44a25.78,25.78,0,0,1-11,10.67A19.26,19.26,0,0,1,150.82,279.53Zm6.53-23.77c-6.82,1.14-14.87,8.39-16.88,14a5.25,5.25,0,0,0,.57,4.87c2,3.5,8.08,5.2,14.65,2a23.33,23.33,0,0,0,9.95-9.65c1.57-2.95,2-5.67,1.12-7.27h0c-1.33-2.43-6.93-4.1-8.09-4A10.27,10.27,0,0,0,157.35,255.76Z"/><path class="cls-25" d="M153.08,276.72a18,18,0,0,1-7.34-.17c-1.27-.33-3.9-1-5-3.27-1.37-2.77-.83-7,1.37-10.91a18.36,18.36,0,0,1,8.25-7.57c1.6-.72,9.26-2.24,13-1.19a7.65,7.65,0,0,1,5.34,6.93,13.15,13.15,0,0,1-3.8,10.15A20.93,20.93,0,0,1,153.08,276.72Zm1.13-21.49a19.73,19.73,0,0,0-3.52.84,15.75,15.75,0,0,0-7.13,6.56c-2,3.46-2.47,7.28-1.26,9.73.93,1.87,3.24,2.47,4.36,2.77A18.89,18.89,0,0,0,163.74,270a11.53,11.53,0,0,0,3.28-8.89c-.31-3.05-2.07-5.39-4.61-6.1h0C160.4,254.46,156.9,254.78,154.21,255.23Z"/><path class="cls-25" d="M142.31,270.91c-.65-4.9,5.8-12.93,13.07-14.42,6.17-1.26,10.47,2.72,11.19,7.1a8,8,0,0,1-.87,5.6c-3.1,5.4-12.12,11-18,8.84C146.59,277.64,142.72,274,142.31,270.91Z"/><path class="cls-26" d="M299.76,252.17c-5.29,4.27-16.29,4.53-20.17-.84-3.28-4.56-.15-11.35,4.51-15.26a14.4,14.4,0,0,1,6.5-3.43c7-1.29,16,2.51,15.46,9.38C306,243.28,303.11,249.47,299.76,252.17Z"/><path class="cls-26" d="M299.73,249.09c-2.59,5.86-12.82,11.79-19.48,9.91-5.64-1.6-6.49-8.15-4.27-13.42a14,14,0,0,1,4.22-5.86c5.84-4.56,16.46-6.5,19.79-1.25C300.59,239.43,301.37,245.39,299.73,249.09Z"/><path class="cls-18" d="M287.8,235.25c6.48-3.51,16.08-1.89,17,4.37.78,5.32-5,11.85-10.82,15.09-1.38.77-4.23,2.36-7.17,2.41-6.58.1-12.57-5.46-9-12.48C278.49,243.36,283.72,237.47,287.8,235.25Z"/><path class="cls-27" d="M358.59,182.15c5,6.44-2.83,23.21-17.12,31.23-12.09,6.79-24,4.57-28.55-1.09a9.12,9.12,0,0,1-2.17-8.64c2.63-10.14,17.45-25.34,31.37-27.16C344.67,176.15,355.46,178.1,358.59,182.15Z"/><path class="cls-27" d="M349.08,176.87c10.32,1.68,15.05,15,6,26-7.65,9.3-22.1,13.11-31.45,11.71-2.21-.33-6.79-1-9.05-4.24-5-7.19-1-22.64,12.5-29.73C329.56,179.3,342.59,175.81,349.08,176.87Z"/><path class="cls-27" d="M313.15,204.52c-2.37-8.54,8.32-23.77,22.07-27.59,11.71-3.26,21,3,23.41,10.65a12.91,12.91,0,0,1-.38,10c-4.8,10.06-21.09,21.42-33.09,18.58C323,215.7,314.64,209.92,313.15,204.52Z"/><path class="cls-28" d="M301.33,179.36c-3.62,2.94-11.13,3.21-13.79-.41-2.25-3.06-.11-7.69,3.08-10.38a9.9,9.9,0,0,1,4.45-2.37c4.76-.94,10.94,1.57,10.56,6.23A16.08,16.08,0,0,1,301.33,179.36Z"/><path class="cls-28" d="M301.31,177.27c-1.77,4-8.75,8.09-13.31,6.87-3.86-1-4.45-5.47-2.93-9a9.56,9.56,0,0,1,2.88-4c4-3.14,11.26-4.54,13.53-1A11.41,11.41,0,0,1,301.31,177.27Z"/><path class="cls-28" d="M294.21,168.57c4.43-2.43,11-1.41,11.63,2.83.54,3.6-3.42,8.07-7.39,10.32a11.27,11.27,0,0,1-4.9,1.69c-4.5.12-8.6-3.6-6.16-8.39A25.64,25.64,0,0,1,294.21,168.57Z"/><path class="cls-26" d="M130.83,252.6c-.56,3.16-6.24,7.63-11.13,7.88-4.14.22-6-2.68-5.62-5.5a5.77,5.77,0,0,1,1.65-3.43c3-3.1,9.79-5.79,13.1-3.91C129.44,248,131.18,250.61,130.83,252.6Z"/><path class="cls-26" d="M130.76,247.41c1.7,2.46-.59,8-5.11,10.21-3.83,1.88-7.73.63-9.32-1.53a3.72,3.72,0,0,1-.84-3.11c.7-3.44,5.31-8.16,9.83-8.22C126.14,244.74,129.68,245.87,130.76,247.41Z"/><path class="cls-26" d="M116.6,250.68c1.59-3.44,7.52-6.89,11.29-5.75,3.21,1,3.58,4.86,2.21,8a8.6,8.6,0,0,1-2.53,3.45c-3.44,2.67-9.54,3.73-11.33.59A10.35,10.35,0,0,1,116.6,250.68Z"/><path class="cls-29" d="M337.56,573.84c-8.63,18.22-56,25.47-92,8.69-30.72-14.34-41.28-40.68-34.59-57.7,1.6-4.06,4.91-12.49,16.78-16.47,26.7-9,80.93-.23,102.61,25.29C334.32,538.27,343.06,562.25,337.56,573.84Z"/><path class="cls-29" d="M338.09,548c8.72,22.56-15.94,49.49-51.76,46.72C255.92,592.38,229,569.55,220,549.31c-2.15-4.83-6.61-14.87-2.32-23.85,9.71-20.29,50.63-33.86,84.37-16.36C308.14,512.27,332.54,533.64,338.09,548Z"/><path class="cls-25" d="M340,553.83C342.3,573.94,307,593.54,269,586.66c-32.35-5.85-54.34-28.6-57.6-46.86-.77-4.35-2.39-13.39,5.2-20.41,17.12-15.84,65.89-21.94,96.84-2.9C319,520,338.6,541,340,553.83Z"/><path class="cls-29" d="M217.5,548.94c-9.74-22.74,14.12-50.91,50.79-48.29,31.11,2.22,58.34,25.69,67,46.16,2.05,4.82,6.28,14.77,1.83,23.63-9.9,19.72-49.79,32.85-82.85,16.38C248.26,583.81,223.6,563.15,217.5,548.94Z"/><path class="cls-30" d="M241.46,655.73c-37,1-88.8-30.08-91.19-62.63-2.06-28.07,33.32-45.91,67.47-47.4,8.09-.35,24.88-1.08,41.3,6.15,36.59,16.11,66,58.35,42.07,83.4C296.77,639.78,264.85,655.13,241.46,655.73Z"/><path class="cls-30" d="M208,658c-33.31-13.57-55.62-60-33-88.22,19.51-24.34,64.12-25.08,95-12.73,7.29,2.91,22.37,8.94,31.14,21.39,19.44,27.61,13.3,73.88-25.95,85.44C268.13,665.94,228.92,666.47,208,658Z"/><path class="cls-30" d="M241.93,658.74c-37,1-88.72-30-91.1-62.53-2.05-28,33.3-45.83,67.42-47.31,8.09-.36,24.86-1.08,41.26,6.13,36.56,16.09,66,58.25,42,83.26C297.2,642.81,265.31,658.14,241.93,658.74Z"/><path class="cls-18" d="M302.26,645.87c-17.15,22.87-77.92,28.17-116.2,3.3-32.86-21.36-36.73-56.74-22.48-78.5,3.4-5.19,10.47-16,26.6-20.18,36.29-9.42,100.3,6.94,117.8,42.35C311.14,599.23,313.2,631.28,302.26,645.87Z"/><path class="cls-20" d="M259.61,617.68l1.08-.2c1.24-4.85,4.88-9.17,1.29-15.06-2.14-3.53-8.82-7.51-13.78-7.31-3.56.14-4.79,1.53-3.07,4,3.34,4.84,6.84,9.63,10.42,14.38A46.76,46.76,0,0,0,259.61,617.68Z"/><path class="cls-20" d="M303.85,580.55c2.74.11,5.66.39,8.46.28a19.63,19.63,0,0,1,11.87,2.95c4.88,3.19,9.49,6.59,14.41,9.71a21.24,21.24,0,0,0,6.09,2.3c1.31.32,2.79-.06,4.94-.17-7.52-4.14-7.71-4.61-4.39-8.93L339.31,582c-2.3-1.84-4.54-3.72-6.92-5.5s-4.54-3.88-7.3-5a66,66,0,0,0-21.68-5c-6.46-.26-11.24,4.1-9.22,8.8a62.77,62.77,0,0,0,3.68,6.47l6.76-.57Z"/><path class="cls-20" d="M184.06,588.76l-.92-.37c-3.18,4.66-6.6,9.2-9.4,14-1,1.71-1.28,4,2.49,6.83Z"/><path class="cls-20" d="M299.06,595.89c4.34-.72,8.83-1.16,13.3-1.65a18.44,18.44,0,0,1,12.54,3.28c5.57,3.58,11.62,6.74,17.59,10.16,1.3-3.28,2.31-3.73,6.63-2.89-.89-.77-1.3-1.17-1.77-1.53-8.15-6.33-16.21-12.77-24.66-19a14.62,14.62,0,0,0-7.39-2.24,152.89,152.89,0,0,0-16.54,1c-1.59.15-3.86,1-4,1.91a32.5,32.5,0,0,0,.09,9.18C295.07,595.65,296.71,596.28,299.06,595.89Z"/><path class="cls-20" d="M415.37,614.35c-3.19-5.13-8.62-9-14.19-12.88-7.49-5.22-15.92-9.81-21.85-16.17-1.83-2-3.83-3.88-5.49-5.9a41.43,41.43,0,0,0-12.77-10.54c-7.55-4-10.83-10-15.25-15.52a17.73,17.73,0,0,0-3.65-3.75c-2.84-1.94-5.63-1.57-6.53.78-1.93,5.06-.57,10,3.94,15.06,8,9,15.55,18,20.2,27.85,1.8,3.84,5.86,7.37,8.58,10.67-4.9-2-7.24-6-10-9.83-6.53.79-11.64,5.77-19.77.41l-.26.56a16.37,16.37,0,0,0,1.8,1.49c5.21,3.27,9.78,6.82,13,11.23,2.51,3.48,1.88,4.7-2.77,4.73,1.4,1.54,3.69,3.17,4.22,4.87.84,2.66-3.34,1.83-5.41,2.71,1.65,1.88,4.15,2.25,6.54,2.59,4.45.63,8.92,1,13.35,1.73a128.9,128.9,0,0,1,15.13,2.81c6.87,2,11.76,6,16.06,10.23a1.39,1.39,0,0,1,.32.67c0,.13-.07.26,0,.13-4-2.77-7.65-6.2-12.31-8.34s-10.13-3.22-15.34-4.19c-5.59-1-11.29-1.19-16.9-2.14-2.62-.45-5.15-1.87-7.71-2.87-.38-.15-.67-.51-1.05-.62-4.61-1.28-9.23-2.53-14.12-3.87-.64,4.54-3.51,8.28-9.31,10.49,1.8-1.62,4-3.07,5.32-4.89s2-4.08,2.9-6.13l-12.75-5.6-7.84,4.59-.63-.48,6.69-4.27-.55-.56-12.21,1.25c-.08-.18-.16-.35-.23-.53,4.12-.71,8.24-1.44,12.4-2.08.4-.07,1.09.43,1.65.65,8.13,3.19,16.24,6.39,24.37,9.54a8.4,8.4,0,0,0,2.67.37c-2.75-1.6-5.22-3.32-3.6-5.62.62-.88,2.16-1.35,3.61-2.2-.9-.54-2.4-1.5-3.95-2.4-6.6-3.81-13.15-7.69-19.91-11.37a12.87,12.87,0,0,0-6.14-1.64c-6.64.44-13.27,1-19.61,2.09-5.07.85-6.57,4.25-3.55,7.79a122.57,122.57,0,0,0,11.05,11c1.21,1.09,3.53,1.62,6,2.68l-25.34-5.47c-1.58,3.89-3.13,7.71-4.57,11.23,8.74,2.89,17.92,5.77,26.94,9,6.36,2.23,13,4.31,18.65,7.39,14.3,7.89,29.71,13.16,46.11,16.71,1.84.4,3.67.91,5.49,1.4l66.64-15.44a18.23,18.23,0,0,1-1.85-1.34C431.13,633.79,421.79,624.68,415.37,614.35Z"/><path class="cls-20" d="M278,606.6c-1.66-2.42-2.42-5.05-3.59-7.61-6.76-.21-7.29-.72-8.7-8.48l-.87-.44c-.91,1.23-2.2,2.34-2.65,3.7-1.37,4.08,1,8.31,2.55,12.51a5.38,5.38,0,0,1,0,3.69q-2.61,6.76-5.64,13.34a5.6,5.6,0,0,1-2.65,2.59c-3.77,1.75-7.77,3.29-11.71,4.93l4,5.85-.49.23a13.78,13.78,0,0,1-2.22-2.14c-3.18-5.21-6.24-10.46-9.37-15.71a67.89,67.89,0,0,0-3.69-5.85c-1.93-2.58-5.07-4.13-9.1-5,.71,5.26,3.48,10.05,8,14.59a19.45,19.45,0,0,1-8.18-10c-1.46-4-2.71-8.1-4.5-12.12-1.44-3.22-4.94-5.23-9.46-6.3-2.39-.56-3.34-.1-3.6,1.56A23.5,23.5,0,0,0,209.51,613c.22.35.33.73.65,1.42-3.28-2.8-5.87-7.89-5.81-11.88.05-3.59.54-7.13.9-10.69s-.21-4.48-4.37-6.56c-4-2-9.31-2.63-11.87-1.3a3.67,3.67,0,0,0-1.67,1.71c-1.53,3.56-3.34,7.06-4.31,10.76-2.17,8.25-7.39,15-13.87,21.35a84.44,84.44,0,0,0-9,10.77c-1,1.35-1,3.15-1.52,4.74l-1-.26c.68-2.25.93-4.67,2.15-6.7a49.25,49.25,0,0,1,5.82-7,3.36,3.36,0,0,0,.9-3.67,82.88,82.88,0,0,1-2.12-10c-.76-4.17-3.13-8.09-6.5-11.87a11,11,0,0,0-3.46-2.49,18.45,18.45,0,0,1,.84,1.82c2,6.06,2.84,6-6.1,6.76-.72.06-1.47,0-2.15,0-.17.15-.41.25-.39.36,1.17,6.15.2,11.88-1,17.58-.33,1.53.73,3.44,1.33,5.16,1.44,4.14,3.27,8.27,4.4,12.38a38.83,38.83,0,0,1,1.16,9.11c.21,6.78,2.89,13.33,8.06,19.74a146.59,146.59,0,0,1,23.12,39.61,1.29,1.29,0,0,1,.11.47l51.38-11.9A44.59,44.59,0,0,1,236,688c1.9-7.45,4.6-14.6,10.48-20.77a52.83,52.83,0,0,0,8.11-12c2.42-4.57,4.82-9,8.65-13.1,4.93-5.22,8.74-11.07,13.05-16.67a17,17,0,0,1,1.3-1.67C282.47,618.7,282.39,613,278,606.6Z"/><path class="cls-31" d="M366.07,604.22c-4.83-2-7.17-6-9.94-9.84-6.38.75-11.31,5.69-19.35.31l-.25.56a17.12,17.12,0,0,0,1.78,1.49c5.15,3.28,9.68,6.84,12.85,11.25,2.51,3.49,1.91,4.7-2.64,4.71,1.39,1.54,3.65,3.18,4.21,4.87.86,2.66-3.26,1.81-5.27,2.68,1.65,1.88,4.1,2.26,6.45,2.61,4.36.65,8.74,1.07,13.09,1.79a122.86,122.86,0,0,1,14.85,2.88c6.76,2,11.6,6,15.87,10.26a1.54,1.54,0,0,1,.33.68c0,.12-.07.25,0,.12-3.93-2.77-7.58-6.21-12.17-8.37s-10-3.26-15.08-4.25c-5.49-1.06-11.07-1.23-16.58-2.21-2.57-.46-5.07-1.89-7.59-2.9-.38-.15-.66-.51-1-.62-4.53-1.3-9.07-2.57-13.88-3.93-.56,4.52-3.31,8.23-9,10.41,1.74-1.6,3.84-3,5.14-4.85s1.88-4.06,2.76-6.09L318,610.13l-7.61,4.54-.62-.48,6.48-4.23-.54-.55-11.94,1.19-.24-.54c4-.69,8.05-1.4,12.12-2,.4-.06,1.07.44,1.63.67q12,4.83,24,9.63a8.43,8.43,0,0,0,2.62.38c-2.71-1.62-5.16-3.34-3.6-5.63.59-.87,2.1-1.33,3.5-2.17-.88-.54-2.36-1.5-3.9-2.41-6.51-3.83-13-7.73-19.65-11.43a12.71,12.71,0,0,0-6-1.67,191,191,0,0,0-19.17,2c-5,.82-6.38,4.2-3.37,7.74a127.09,127.09,0,0,0,11,11.07c1.2,1.09,3.48,1.63,5.88,2.7l-24.89-5.58c-1.5,3.87-3,7.67-4.32,11.17,8.6,2.92,17.63,5.85,26.51,9,6.26,2.26,12.83,4.36,18.37,7.47,14.12,7.92,29.28,13.25,45.39,16.87,2.19.49,4.36,1.14,6.53,1.74a6.55,6.55,0,0,1,1.14.68,14,14,0,0,1-2.1-.1C357,656,339.34,650.76,323.25,641.6c-5.66-3.22-12.62-5.12-19-7.56-3.32-1.26-6.69-2.41-10.06-3.57-5.29-1.82-10.59-3.6-16-5.44-1.8,2.46-3.31,4.66-5,6.77-3.53,4.44-7.27,8.77-10.65,13.26-1.81,2.42-3,5.12-4.59,7.65-3.33,5.37-6.11,11-10.22,15.94-5.23,6.26-7.2,13.47-9.14,20.73-.27,1-.54,2.08-.82,3.12l-.9-.22c.24-1.65.35-3.33.73-4.94,1.76-7.42,4.3-14.54,10-20.66a51.21,51.21,0,0,0,7.78-12c2.31-4.54,4.59-9,8.29-13,4.76-5.18,8.4-11,12.55-16.55a15.24,15.24,0,0,1,1.24-1.66c4.76-5,4.6-10.62.19-17.06-1.65-2.42-2.43-5-3.62-7.61-6.62-.24-7.14-.75-8.64-8.49l-.86-.45c-.87,1.22-2.12,2.32-2.55,3.67-1.27,4.07,1.1,8.3,2.68,12.49a5.42,5.42,0,0,1,.06,3.68q-2.44,6.72-5.34,13.27a5.28,5.28,0,0,1-2.55,2.56c-3.67,1.73-7.57,3.25-11.41,4.86l4,5.85-.47.23a13.61,13.61,0,0,1-2.2-2.14c-3.19-5.21-6.26-10.46-9.41-15.71a65.4,65.4,0,0,0-3.69-5.84c-1.93-2.59-5-4.15-9-5.08.76,5.25,3.55,10,8,14.59a19.91,19.91,0,0,1-8.16-10c-1.48-4-2.76-8.09-4.58-12.1-1.45-3.22-4.9-5.25-9.34-6.33-2.36-.58-3.29-.12-3.51,1.53a24,24,0,0,0,3.54,17,12.06,12.06,0,0,1,.66,1.42c-3.25-2.81-5.86-7.9-5.86-11.87,0-3.58.43-7.11.74-10.65s-.27-4.48-4.37-6.57-9.16-2.66-11.65-1.35a3.52,3.52,0,0,0-1.61,1.7c-1.46,3.54-3.18,7-4.08,10.7-2,8.21-7,15-13.29,21.21a82.68,82.68,0,0,0-8.63,10.7c-1,1.34-1,3.13-1.41,4.72l-1-.27c.63-2.23.85-4.65,2-6.66a47.34,47.34,0,0,1,5.61-7,3.35,3.35,0,0,0,.82-3.66,86.61,86.61,0,0,1-2.21-10c-.81-4.16-3.18-8.08-6.54-11.87a10.93,10.93,0,0,0-3.42-2.49,16.37,16.37,0,0,1,.85,1.81c2,6.06,2.86,6-5.88,6.72-.7,0-1.45,0-2.11,0-.16.15-.4.25-.38.36,1.23,6.13.36,11.84-.76,17.52-.3,1.53.76,3.43,1.38,5.16,1.47,4.13,3.32,8.25,4.48,12.36a39.32,39.32,0,0,1,1.26,9.09c.31,6.76,3,13.3,8.18,19.71a151,151,0,0,1,23.21,39.61,1.15,1.15,0,0,1-.31,1.37,16.06,16.06,0,0,1-1.55-2.2c-2.58-5.43-4.54-11-7.77-16.33a240.3,240.3,0,0,0-15.19-22.35c-6.25-8.15-7.94-16.22-8.71-24.52-.4-4.27-1.91-8.67-3-13a3.12,3.12,0,0,0-.73-1.6c-3.84-3.64-3.25-7.14-2.26-10.45,1.48-5,.88-10.24.32-15.57a38.26,38.26,0,0,1,.31-10c.5-3.13,2.35-2.94,6.21-.65,9.44,5.59,12.69,12.47,14.08,19.86a34.37,34.37,0,0,0,2.41,8.17c1.58-1.7,3.21-3.37,4.69-5.12a1.38,1.38,0,0,0-.07-1.48c-2.64-4-1.76-7.52.28-10.57,3.14-4.69,6.89-9.11,10.57-13.58,4.52-5.5,15-3.26,20.79,2.07,1.36,1.24.93,3.41,1.36,5.33,9.12,1.22,13.41,5.91,15.19,12.1.45,1.58,1.3,2.48,3.67,3.07a12.81,12.81,0,0,1,8.05,5.32c2.37,3.91,4.35,7.89,6.52,11.82.95,1.71,2,3.41,3,5.19a92.32,92.32,0,0,1,8.76-3.71c4.43-1.4,5-4.72,6.36-6.89-2.92-3.54-5.36-6.69-8.08-9.75-1.88-2.1-4.39-4-6.13-6.12a48.71,48.71,0,0,1-4.66-7.2c-.89-1.59.12-2.28,2.38-2.11a28,28,0,0,0,4,0,17.2,17.2,0,0,1,9.34,2.24c1.2.63,2.31,1.37,3.78,2.25,0-1.48-.07-2.76,0-4,.21-2.43,1.05-4.51,4.58-5.25.86-.19,1.24-1.16,1.79-1.8a2.13,2.13,0,0,1,3.63.31,43.41,43.41,0,0,1,3.2,6.2c2.6,5.55,5,11.11,7.78,16.61a5.91,5.91,0,0,0,3.28,2.28c5.17,1.22,10.39,2.16,16.16,3.32-2.72-2.73-5.18-5.12-7.51-7.57-5.89-6.18-5.73-8.31.9-12.12-3.56-4-2.58-7.78-1.9-11.59.1-.58.29-1.34.85-1.6,2.95-1.36,1.48-3.32.07-5.25-3.36-4.64-1.83-8.21,1.77-11.27a5.4,5.4,0,0,1,2.91-1c10.09-.57,19.82,1.92,29,6.45,2.36,1.16,3.88,3.38,5.93,5,4.78,3.79,9.69,7.48,14.43,11.27,2,1.62,3.78,3.41,5.88,5.32,1.84,0,2.8-.5,1.71-2.37-3.29-5.63-6.08-11.34-11.3-16.59a106.77,106.77,0,0,1-9.88-12.06A12.08,12.08,0,0,1,332,550.44a23.46,23.46,0,0,0,.85-2.39c.64-2.37,2.23-2.91,4.88-1a39.15,39.15,0,0,1,7.29,7.19c4.42,5.55,8.3,11.16,15.82,15.24a44.35,44.35,0,0,1,9.29,7.27c4.39,4.19,8,8.79,12.58,12.82,3.82,3.36,8.58,6.17,12.91,9.21,2.68,1.89,5.67,3.6,8,5.69,3.56,3.25,7.39,6.57,9.78,10.18,4.36,6.6,10.05,12.57,16.06,18.43,3.81,3.71,7.85,7.3,11.77,10.94a1.07,1.07,0,0,1,.37,1.26c-1.13-.8-2.37-1.54-3.39-2.41-10.25-8.64-19.53-17.77-25.95-28.09-3.2-5.12-8.57-9-14.08-12.9-7.41-5.24-15.73-9.87-21.62-16.23-1.82-2-3.8-3.88-5.46-5.91a42.1,42.1,0,0,0-12.65-10.56c-7.45-4.06-10.75-10-15.15-15.54a17.92,17.92,0,0,0-3.63-3.76c-2.81-1.94-5.54-1.6-6.39.75-1.82,5-.41,10,4.08,15,8,9,15.48,18,20.17,27.86C359.34,597.38,363.36,600.93,366.07,604.22Zm-69.34-22.45,6.61-.53-.77-.65c2.69.11,5.55.41,8.29.32a19.21,19.21,0,0,1,11.67,3c4.82,3.21,9.38,6.62,14.25,9.75a20.76,20.76,0,0,0,6,2.33c1.29.32,2.74-.06,4.83-.15-7.41-4.16-7.61-4.63-4.42-8.92l-5.86-4.74c-2.28-1.84-4.5-3.72-6.86-5.51s-4.5-3.89-7.22-5a64.4,64.4,0,0,0-21.3-5.09c-6.33-.3-10.94,4-8.9,8.73A65.83,65.83,0,0,0,296.73,581.77ZM347.25,605c-.89-.78-1.3-1.17-1.76-1.53-8.07-6.35-16.05-12.81-24.42-19a14.24,14.24,0,0,0-7.26-2.27,146.26,146.26,0,0,0-16.18.87c-1.56.15-3.77,1-3.89,1.88a33.2,33.2,0,0,0,.22,9.16c.23,1.54,1.84,2.18,4.14,1.81,4.24-.7,8.63-1.12,13-1.59s8.38.75,12.33,3.33c5.5,3.6,11.47,6.78,17.36,10.21C342,604.56,343,604.11,347.25,605Zm-87.48,12.41,1.05-.19c1.15-4.83,4.65-9.12,1.06-15-2.15-3.52-8.75-7.52-13.6-7.35-3.49.13-4.67,1.51-3,4,3.35,4.84,6.84,9.63,10.41,14.38A46.56,46.56,0,0,0,259.77,617.38ZM178,608.53c2.58-7.12,5-13.72,7.39-20.35l-.91-.37c-3,4.63-6.34,9.14-9,13.9C174.48,603.4,174.24,605.71,178,608.53Z"/><path class="cls-31" d="M369.74,605.84c-4.89-2-7.23-5.94-10-9.81-6.52.78-11.63,5.76-19.76.41l-.26.55a16.18,16.18,0,0,0,1.8,1.49c5.21,3.27,9.77,6.81,13,11.22,2.51,3.48,1.88,4.7-2.77,4.72,1.4,1.55,3.68,3.17,4.22,4.87.84,2.66-3.35,1.83-5.41,2.71,1.65,1.87,4.15,2.25,6.54,2.59,4.45.63,8.91,1,13.34,1.72a131.25,131.25,0,0,1,15.12,2.82c6.87,1.94,11.75,5.94,16.05,10.21a1.43,1.43,0,0,1,.32.67c0,.13-.07.26,0,.13-4-2.77-7.64-6.19-12.31-8.33s-10.12-3.22-15.33-4.19c-5.58-1-11.28-1.18-16.89-2.13-2.62-.45-5.14-1.87-7.7-2.87-.38-.15-.67-.51-1.05-.62-4.61-1.28-9.23-2.53-14.11-3.86-.64,4.53-3.51,8.26-9.31,10.47,1.8-1.61,4-3.06,5.31-4.88s2-4.08,2.91-6.13L320.63,612l-7.84,4.59-.63-.48,6.69-4.27-.55-.55-12.21,1.25-.23-.54c4.13-.7,8.24-1.43,12.4-2.07.4-.07,1.09.43,1.65.65q12.18,4.78,24.35,9.53a8.12,8.12,0,0,0,2.67.37c-2.75-1.6-5.22-3.31-3.6-5.62.62-.88,2.17-1.35,3.61-2.19-.89-.54-2.39-1.5-3.95-2.39-6.59-3.81-13.13-7.7-19.89-11.37a13,13,0,0,0-6.14-1.64c-6.63.44-13.26,1-19.6,2.1-5.07.84-6.56,4.24-3.55,7.77a123.67,123.67,0,0,0,11,11c1.21,1.09,3.53,1.62,6,2.68l-25.32-5.47-4.58,11.22c8.73,2.89,17.91,5.77,26.92,8.94,6.36,2.23,13,4.31,18.64,7.39,14.3,7.88,29.69,13.14,46.08,16.69,2.24.49,4.44,1.12,6.64,1.71a6.74,6.74,0,0,1,1.16.68,14.87,14.87,0,0,1-2.14-.09c-18.54-4.1-36.45-9.31-52.73-18.4-5.73-3.2-12.81-5.08-19.32-7.49-3.36-1.25-6.79-2.38-10.21-3.53-5.37-1.8-10.76-3.56-16.25-5.37-1.88,2.48-3.45,4.68-5.18,6.8-3.67,4.48-7.56,8.83-11.07,13.35-1.89,2.43-3.16,5.15-4.8,7.69-3.48,5.4-6.39,11.06-10.66,16-5.43,6.31-7.54,13.54-9.63,20.82-.3,1-.59,2.09-.88,3.13l-.92-.22c.26-1.65.4-3.33.81-5,1.91-7.45,4.61-14.58,10.49-20.75A52.88,52.88,0,0,0,256,657c2.42-4.56,4.82-9,8.65-13.08,4.94-5.22,8.74-11.06,13.05-16.65a17.16,17.16,0,0,1,1.3-1.68c4.93-5,4.85-10.66.45-17.1-1.66-2.41-2.41-5-3.59-7.6-6.75-.21-7.28-.72-8.69-8.47l-.87-.44c-.91,1.22-2.2,2.34-2.65,3.69-1.37,4.08,1,8.31,2.55,12.5a5.38,5.38,0,0,1,0,3.69q-2.61,6.75-5.64,13.33a5.58,5.58,0,0,1-2.65,2.58c-3.77,1.75-7.77,3.29-11.71,4.93l4,5.84-.49.23a13.37,13.37,0,0,1-2.22-2.14c-3.17-5.2-6.23-10.45-9.36-15.69a63.87,63.87,0,0,0-3.68-5.84c-1.93-2.59-5.07-4.13-9.09-5,.7,5.26,3.47,10,7.95,14.57a19.34,19.34,0,0,1-8.18-10c-1.46-4-2.7-8.09-4.5-12.1-1.43-3.22-4.92-5.23-9.44-6.3-2.4-.56-3.35-.1-3.6,1.56A23.46,23.46,0,0,0,211,614.88a11.23,11.23,0,0,1,.65,1.41c-3.27-2.79-5.86-7.88-5.8-11.86.06-3.59.54-7.13.91-10.68s-.21-4.48-4.37-6.56c-4-2-9.3-2.63-11.86-1.3a3.77,3.77,0,0,0-1.67,1.71c-1.53,3.56-3.34,7-4.32,10.75-2.16,8.24-7.38,15-13.86,21.32a86.09,86.09,0,0,0-9,10.77c-1,1.34-1,3.14-1.51,4.73l-1-.26c.68-2.24.94-4.66,2.15-6.69a48.07,48.07,0,0,1,5.83-7,3.37,3.37,0,0,0,.89-3.67,84.22,84.22,0,0,1-2.11-10c-.76-4.16-3.13-8.09-6.49-11.86A11,11,0,0,0,156,593.2a18.45,18.45,0,0,1,.84,1.82c2,6.06,2.83,6-6.09,6.76-.72.05-1.48,0-2.16,0-.17.16-.41.26-.39.37,1.17,6.14.19,11.86-1,17.55-.33,1.54.72,3.44,1.32,5.17,1.44,4.13,3.27,8.25,4.4,12.36a39.26,39.26,0,0,1,1.15,9.1c.21,6.77,2.88,13.32,8,19.72a146.57,146.57,0,0,1,23.1,39.57,1.16,1.16,0,0,1-.33,1.38,15.33,15.33,0,0,1-1.56-2.2c-2.54-5.43-4.46-11-7.68-16.32a234.54,234.54,0,0,0-15.17-22.32c-6.26-8.15-7.86-16.22-8.53-24.53-.34-4.28-1.82-8.68-2.82-13a3,3,0,0,0-.73-1.59c-3.86-3.63-3.21-7.14-2.15-10.47,1.59-5,1.05-10.26.56-15.6a37.64,37.64,0,0,1,.46-10c.56-3.13,2.44-2.95,6.34-.68,9.55,5.56,12.77,12.43,14.08,19.84a33.62,33.62,0,0,0,2.34,8.17c1.63-1.71,3.32-3.39,4.86-5.15a1.37,1.37,0,0,0-.05-1.49c-2.64-4-1.68-7.52.44-10.59,3.27-4.71,7.17-9.17,11-13.66,4.69-5.54,15.32-3.34,21.19,2,1.37,1.24.89,3.41,1.31,5.33,9.29,1.18,13.59,5.86,15.32,12.05.44,1.58,1.29,2.49,3.7,3.06,3.63.87,6.59,2.75,8.13,5.3,2.36,3.9,4.33,7.88,6.49,11.8.94,1.72,2,3.41,3,5.19,3.22-1.37,5.91-2.8,9-3.76,4.55-1.42,5.14-4.76,6.6-6.94-2.93-3.53-5.38-6.67-8.11-9.72-1.88-2.1-4.42-4-6.16-6.11a47.26,47.26,0,0,1-4.65-7.19c-.88-1.59.16-2.29,2.46-2.13a29.13,29.13,0,0,0,4.08-.06,17.63,17.63,0,0,1,9.5,2.2c1.21.63,2.34,1.36,3.82,2.23,0-1.48,0-2.76.1-4,.26-2.44,1.15-4.53,4.76-5.29.88-.19,1.28-1.17,1.85-1.81a2.19,2.19,0,0,1,3.71.29,42.12,42.12,0,0,1,3.16,6.2c2.57,5.55,5,11.11,7.7,16.61a5.87,5.87,0,0,0,3.31,2.27C291.73,616,297,617,302.92,618.1c-2.74-2.73-5.22-5.11-7.56-7.55-5.91-6.17-5.72-8.31,1.1-12.16-3.57-4-2.52-7.79-1.77-11.6.12-.59.32-1.35.9-1.61,3-1.38,1.55-3.34.15-5.27-3.37-4.63-1.75-8.21,2-11.31a5.69,5.69,0,0,1,3-1c10.31-.62,20.19,1.83,29.5,6.32,2.39,1.15,3.91,3.37,6,5,4.81,3.78,9.77,7.45,14.56,11.23,2,1.61,3.81,3.4,5.92,5.3,1.88,0,2.86-.52,1.78-2.38-3.28-5.63-6-11.34-11.29-16.57a106.79,106.79,0,0,1-9.91-12,11.84,11.84,0,0,1-1.45-12.36c.32-.79.66-1.58.9-2.4.68-2.38,2.32-2.92,5-1a38.47,38.47,0,0,1,7.34,7.17c4.42,5.54,8.3,11.14,15.92,15.19a44,44,0,0,1,9.38,7.24c4.41,4.18,8,8.77,12.65,12.79,3.85,3.35,8.67,6.14,13,9.17,2.7,1.88,5.73,3.58,8,5.66,3.6,3.25,7.45,6.56,9.84,10.16,4.36,6.6,10.07,12.56,16.13,18.4,3.83,3.7,7.9,7.28,11.84,10.91a1,1,0,0,1,.37,1.26c-1.15-.79-2.4-1.53-3.43-2.4-10.34-8.61-19.67-17.72-26.08-28-3.19-5.12-8.62-9-14.18-12.87-7.49-5.21-15.91-9.81-21.83-16.15-1.83-2-3.82-3.88-5.49-5.9a41.5,41.5,0,0,0-12.76-10.53c-7.54-4-10.82-10-15.23-15.5a17.54,17.54,0,0,0-3.66-3.75c-2.83-1.94-5.62-1.57-6.52.78-1.93,5-.58,10,3.94,15,8,8.95,15.53,18,20.17,27.83C363,599,367,602.55,369.74,605.84ZM299.3,583.69l6.75-.57-.78-.65c2.74.1,5.66.39,8.46.28a19.63,19.63,0,0,1,11.87,2.94c4.87,3.19,9.48,6.58,14.4,9.7a21.19,21.19,0,0,0,6.08,2.31c1.31.31,2.79-.07,4.93-.18-7.5-4.13-7.7-4.6-4.38-8.92l-5.91-4.72c-2.3-1.83-4.54-3.71-6.92-5.49s-4.53-3.87-7.3-5a66.29,66.29,0,0,0-21.66-5c-6.46-.26-11.23,4.1-9.22,8.8A66.87,66.87,0,0,0,299.3,583.69Zm51.22,23c-.9-.78-1.31-1.17-1.77-1.53-8.15-6.33-16.2-12.76-24.65-18.95a14.55,14.55,0,0,0-7.38-2.24,155.3,155.3,0,0,0-16.53.95c-1.59.16-3.86,1-4,1.91a32.06,32.06,0,0,0,.09,9.17c.21,1.55,1.84,2.19,4.19,1.8,4.34-.72,8.83-1.17,13.29-1.66a18.49,18.49,0,0,1,12.54,3.28c5.57,3.58,11.61,6.74,17.58,10.15C345.19,606.3,346.2,605.84,350.52,606.69Zm-89.47,12.87,1.07-.2c1.25-4.84,4.88-9.16,1.3-15.05-2.14-3.52-8.82-7.5-13.77-7.3-3.56.14-4.79,1.53-3.08,4,3.34,4.83,6.84,9.62,10.42,14.36A44.18,44.18,0,0,0,261.05,619.56ZM177.7,611.1c2.75-7.15,5.29-13.78,7.84-20.43l-.92-.37c-3.18,4.65-6.61,9.19-9.4,14C174.22,606,173.94,608.29,177.7,611.1Z"/><path class="cls-31" d="M368.47,606.05c-4.89-2-7.23-5.94-10-9.81-6.52.78-11.63,5.76-19.76.41l-.26.56a16.1,16.1,0,0,0,1.8,1.48c5.21,3.27,9.78,6.81,12.95,11.22,2.51,3.48,1.88,4.7-2.77,4.72,1.4,1.55,3.69,3.17,4.23,4.87.84,2.66-3.35,1.83-5.41,2.71,1.65,1.87,4.15,2.25,6.54,2.59,4.44.63,8.9,1,13.34,1.72a128.56,128.56,0,0,1,15.11,2.81c6.87,1.95,11.76,5.95,16.06,10.22a1.35,1.35,0,0,1,.32.67c0,.13-.07.26,0,.12-4-2.76-7.64-6.18-12.31-8.32s-10.12-3.22-15.33-4.19c-5.58-1-11.28-1.18-16.89-2.14-2.62-.44-5.14-1.86-7.7-2.86-.38-.15-.67-.51-1.05-.62-4.61-1.28-9.23-2.53-14.11-3.87-.64,4.53-3.51,8.27-9.31,10.48,1.8-1.61,4-3.07,5.31-4.89s2-4.07,2.91-6.12l-12.75-5.6-7.83,4.59-.63-.48,6.68-4.27-.54-.55-12.21,1.25-.23-.54c4.12-.7,8.24-1.43,12.4-2.08.4-.06,1.08.44,1.65.66q12.18,4.79,24.35,9.53a8.4,8.4,0,0,0,2.67.37c-2.75-1.6-5.22-3.31-3.6-5.62.62-.88,2.16-1.35,3.61-2.19-.9-.54-2.39-1.5-3.95-2.4-6.59-3.8-13.14-7.69-19.89-11.36a13,13,0,0,0-6.14-1.64c-6.64.44-13.26,1-19.6,2.1-5.07.84-6.57,4.24-3.55,7.77a123.67,123.67,0,0,0,11,11c1.21,1.09,3.53,1.62,6,2.68l-25.32-5.47c-1.59,3.89-3.14,7.7-4.57,11.22,8.73,2.88,17.9,5.77,26.92,8.94,6.35,2.23,13,4.3,18.64,7.39,14.3,7.87,29.69,13.14,46.08,16.69,2.24.48,4.44,1.12,6.64,1.7a6.74,6.74,0,0,1,1.16.68,13.53,13.53,0,0,1-2.14-.09c-18.54-4.09-36.45-9.3-52.74-18.4-5.72-3.2-12.8-5.07-19.31-7.49-3.36-1.25-6.79-2.38-10.21-3.52-5.37-1.8-10.76-3.56-16.25-5.37-1.88,2.47-3.45,4.68-5.18,6.8-3.67,4.47-7.55,8.83-11.06,13.35-1.89,2.43-3.16,5.14-4.8,7.69-3.48,5.39-6.39,11.06-10.66,16-5.43,6.3-7.54,13.53-9.62,20.81-.3,1-.59,2.09-.88,3.13l-.92-.22c.27-1.65.4-3.33.81-4.95,1.91-7.45,4.61-14.58,10.48-20.75a52.55,52.55,0,0,0,8.11-12c2.42-4.56,4.81-9,8.64-13.08,4.94-5.21,8.74-11,13.05-16.65a18.6,18.6,0,0,1,1.29-1.67c4.93-5,4.85-10.67.45-17.1-1.66-2.41-2.42-5.05-3.59-7.6-6.75-.21-7.28-.72-8.7-8.47l-.86-.44c-.91,1.22-2.2,2.34-2.66,3.69-1.36,4.08,1,8.31,2.56,12.5a5.32,5.32,0,0,1,0,3.69q-2.6,6.75-5.64,13.32a5.47,5.47,0,0,1-2.64,2.58c-3.77,1.76-7.77,3.3-11.71,4.93l4,5.84-.49.24a13.29,13.29,0,0,1-2.21-2.14c-3.18-5.21-6.24-10.45-9.37-15.69a63.87,63.87,0,0,0-3.68-5.84c-1.94-2.59-5.07-4.13-9.1-5,.7,5.25,3.48,10,8,14.57a19.34,19.34,0,0,1-8.18-10c-1.46-4-2.71-8.09-4.5-12.1-1.44-3.22-4.93-5.23-9.45-6.3-2.4-.56-3.35-.1-3.6,1.56a23.48,23.48,0,0,0,3.37,17.05,11.52,11.52,0,0,1,.65,1.42c-3.27-2.79-5.86-7.88-5.8-11.87.05-3.58.54-7.12.9-10.67s-.21-4.48-4.37-6.56c-4-2-9.3-2.62-11.86-1.3a3.77,3.77,0,0,0-1.67,1.71c-1.53,3.56-3.34,7.05-4.31,10.75-2.16,8.24-7.38,15-13.86,21.32a85.91,85.91,0,0,0-9,10.76c-1,1.35-1,3.15-1.51,4.74l-1-.27c.68-2.24.93-4.66,2.15-6.68a48.64,48.64,0,0,1,5.82-7,3.37,3.37,0,0,0,.9-3.68,81.92,81.92,0,0,1-2.12-10c-.76-4.15-3.13-8.08-6.5-11.85a10.85,10.85,0,0,0-3.45-2.49,18.45,18.45,0,0,1,.84,1.82c2,6.06,2.83,6-6.1,6.76-.71,0-1.47,0-2.15,0-.17.16-.41.26-.39.37,1.17,6.14.2,11.86-1,17.55-.32,1.54.73,3.44,1.33,5.16,1.44,4.14,3.27,8.26,4.4,12.37a38.08,38.08,0,0,1,1.15,9.1c.22,6.77,2.89,13.31,8.06,19.71A146.62,146.62,0,0,1,184,705.85a1.13,1.13,0,0,1-.33,1.37,15.25,15.25,0,0,1-1.56-2.19c-2.54-5.43-4.47-11-7.68-16.32a236.56,236.56,0,0,0-15.18-22.32c-6.26-8.14-7.87-16.21-8.54-24.53-.34-4.27-1.82-8.68-2.83-13a3,3,0,0,0-.72-1.6c-3.86-3.63-3.21-7.13-2.15-10.46,1.58-5,1-10.26.55-15.6a38.08,38.08,0,0,1,.45-10c.56-3.13,2.44-2.95,6.35-.68,9.55,5.56,12.77,12.43,14.08,19.84a33.62,33.62,0,0,0,2.34,8.17c1.63-1.71,3.32-3.39,4.86-5.15a1.37,1.37,0,0,0-.05-1.49c-2.64-4-1.69-7.52.44-10.59,3.27-4.71,7.16-9.17,11-13.66,4.69-5.53,15.32-3.34,21.19,2,1.37,1.24.89,3.41,1.31,5.33,9.29,1.18,13.59,5.86,15.32,12,.44,1.58,1.29,2.48,3.7,3.06,3.63.87,6.6,2.75,8.14,5.29,2.36,3.91,4.33,7.88,6.49,11.81.94,1.71,2,3.41,3,5.19,3.22-1.37,5.91-2.8,9-3.76,4.55-1.42,5.14-4.76,6.59-6.94-2.92-3.53-5.38-6.67-8.11-9.72-1.88-2.1-4.41-4-6.16-6.11a47.26,47.26,0,0,1-4.65-7.19c-.88-1.59.16-2.29,2.46-2.13a29.17,29.17,0,0,0,4.08,0,17.53,17.53,0,0,1,9.5,2.19c1.21.63,2.34,1.36,3.82,2.23,0-1.48,0-2.76.1-4,.26-2.44,1.14-4.53,4.75-5.29.89-.19,1.29-1.17,1.86-1.81a2.18,2.18,0,0,1,3.7.29,42.19,42.19,0,0,1,3.17,6.2c2.57,5.55,5,11.11,7.7,16.61a5.87,5.87,0,0,0,3.31,2.27c5.26,1.19,10.57,2.11,16.45,3.24-2.74-2.72-5.22-5.1-7.56-7.54-5.92-6.17-5.72-8.31,1.1-12.16-3.57-4-2.53-7.78-1.77-11.6.11-.59.31-1.34.89-1.61,3-1.38,1.55-3.33.15-5.26-3.37-4.64-1.75-8.22,2-11.31a5.54,5.54,0,0,1,3-1c10.31-.63,20.2,1.82,29.51,6.31,2.39,1.16,3.91,3.37,6,5,4.82,3.78,9.78,7.46,14.56,11.23,2,1.62,3.82,3.4,5.93,5.3,1.87,0,2.86-.52,1.77-2.38-3.27-5.63-6-11.34-11.29-16.57A105,105,0,0,1,336,564.67a11.84,11.84,0,0,1-1.46-12.35,24.18,24.18,0,0,0,.9-2.41c.69-2.38,2.32-2.92,5-1a38.53,38.53,0,0,1,7.35,7.17c4.42,5.54,8.3,11.15,15.92,15.2a43.68,43.68,0,0,1,9.38,7.23c4.42,4.18,8,8.77,12.66,12.8,3.84,3.34,8.67,6.13,13,9.16,2.71,1.88,5.74,3.58,8,5.66,3.6,3.25,7.45,6.56,9.84,10.16,4.36,6.59,10.08,12.55,16.13,18.4,3.84,3.7,7.9,7.27,11.85,10.9a1.05,1.05,0,0,1,.37,1.27c-1.15-.8-2.4-1.54-3.43-2.4-10.34-8.62-19.68-17.72-26.09-28-3.19-5.13-8.62-9-14.19-12.87-7.48-5.21-15.9-9.8-21.83-16.15-1.83-2-3.82-3.87-5.48-5.9A41.38,41.38,0,0,0,361.19,571c-7.54-4-10.82-10-15.24-15.51a17.48,17.48,0,0,0-3.65-3.75c-2.83-1.93-5.62-1.57-6.52.79-1.93,5.05-.58,10,3.94,15,8,8.94,15.54,17.95,20.18,27.82C361.71,599.23,365.76,602.76,368.47,606.05ZM298,583.9l6.75-.57-.78-.65c2.74.11,5.66.39,8.46.28a19.7,19.7,0,0,1,11.87,2.94c4.87,3.19,9.48,6.59,14.4,9.7a20.9,20.9,0,0,0,6.08,2.31c1.31.31,2.79-.07,4.93-.18-7.5-4.13-7.7-4.6-4.38-8.92l-5.92-4.71c-2.29-1.84-4.53-3.71-6.92-5.49s-4.53-3.88-7.29-5a66.11,66.11,0,0,0-21.67-5c-6.46-.26-11.23,4.1-9.21,8.8A63.72,63.72,0,0,0,298,583.9Zm51.22,23c-.89-.78-1.3-1.17-1.77-1.53-8.15-6.33-16.2-12.76-24.65-19a14.55,14.55,0,0,0-7.38-2.24,155.3,155.3,0,0,0-16.53,1c-1.59.16-3.86,1-4,1.91a32.42,32.42,0,0,0,.09,9.17c.21,1.55,1.84,2.19,4.2,1.8,4.33-.72,8.83-1.17,13.29-1.66a18.51,18.51,0,0,1,12.54,3.28c5.56,3.58,11.61,6.74,17.57,10.15C343.92,606.51,344.94,606.05,349.25,606.9Zm-89.46,12.87,1.08-.2c1.24-4.84,4.87-9.16,1.29-15.05-2.14-3.52-8.82-7.5-13.77-7.3-3.56.14-4.79,1.53-3.08,4,3.35,4.83,6.85,9.62,10.42,14.36A46.76,46.76,0,0,0,259.79,619.77Zm-83.34-8.47,7.83-20.42-.92-.37c-3.18,4.65-6.6,9.19-9.39,14C173,606.19,172.69,608.5,176.45,611.3Z"/><path class="cls-25" d="M342.62,592.17s.72-4.66,2.37-4.55,13.57,10.19,13.57,10.19l-1.8,2.43A31.86,31.86,0,0,1,342.62,592.17Z"/><path class="cls-25" d="M343.33,616.69c-3.26-3.12.72-4.59,2.36-4.49s13.48,10.07,13.48,10.07l-1.11,1.49-1.16.08s-.38.5-1.7-.08C352.1,622.4,346.46,619.68,343.33,616.69Z"/><path class="cls-25" d="M343.47,609.71c-3.27-3.14.72-4.62,2.36-4.51s13.51,10.1,13.51,10.1l-1.12,1.5-1,.85s-.52-.27-1.84-.86C352.25,615.43,346.6,612.71,343.47,609.71Z"/><path class="cls-25" d="M249.29,609.6l-10-18.54-2.48-.41s7,15.25,10.39,17.44S249.29,609.6,249.29,609.6Z"/><path class="cls-25" d="M350.67,559.8s-9.3-11.91-12.91-12.71-4.05-1.45-4.05-1.45l4.74.39s11,8.05,13.16,12.85C352.17,560.13,350.67,559.8,350.67,559.8Z"/><path class="cls-24" d="M274.46,600.5s-4.92.4-6-1.41c-4.59-7.47-1.32-16.16-1.32-16.16s10.58,13.66,7.42,17.5"/><path class="cls-24" d="M146.76,601s7,0,8.26-2-3-15.61-5.56-16.52S141.87,595.09,146.76,601Z"/><polygon class="cls-24" points="267.78 497.7 261.3 540.6 289.91 519.96 271.97 550.32 298.38 526.96 286.55 551.14 338.52 509.68 297.66 538.98 306.53 517.47 286.17 532.76 298.21 513 269.78 530.3 267.78 497.7"/><path class="cls-25" d="M186.79,530.36l-1.66-2.7-15.47-.09c-1.72-4.21-3.48-8.51-5.24-12.83l-4-.24c.26,4.25,2,9.08.34,12.56-1.58,3.32-6.71,5.23-11.24,8.44l-9.08-13-5.53-.91c12.1,13,1.64,19.28-4.77,26.75l3,1.3,10-5,3.07,1.36c-1.5,5.06-3,10.12-4,13.3,6.48,5.2,11.74,9.41,19.18,15.39,1.29-9.38-15.19-23.43,8.32-22.92l10.81,17.4,5.06-.65-6.11-18,11.87-4.17-1.44-2-15.19-1.26c-.7-3.08-1.36-6-1.81-8ZM154.3,548.75c-7-9.87,2.46-10,9.65-11.92C171.67,547.07,161.85,547,154.3,548.75Z"/><path class="cls-20" d="M164,536.83c7.72,10.24-2.1,10.21-9.65,11.92C147.28,538.88,156.76,538.72,164,536.83Z"/><path class="cls-24" d="M240.67,577c.86-5.85-4.56-12.15-10.54-14-6.49-2.07-13.82,0-16.06,4.45-2.78,5.54,2.34,12.82,12.46,18.72-2-.54-4.29-.78-6-1.69-7.13-3.79-10.6-8.86-10.74-14.54s4.59-8.34,11.22-9.47c9.92-1.69,23.11,6.32,23.6,14.16.2,3.21-1.83,4.18-6.33,4.49-2.73,1.36-5.85,4.33-8.11,3.72-3.71-1-7.5-4-10.12-6.72s-1.24-5.21,1.58-6.93c3.72-2.27,7.23-1.7,11.59,1.86C235.32,572.73,237.48,574.44,240.67,577Z"/><path class="cls-18" d="M232.41,575c1.35,2,.93,3.95-.95,4.4s-4.49-.79-5.84-2.76-.94-4,.94-4.4S231.06,573,232.41,575Z"/><path class="cls-32" d="M473.44,395.18c-9.47,34.42-40.35,43-58.32,7.86-14.94-29.22-15.74-78.43-8.49-109.52,1.74-7.45,5.36-23,13.12-30.06,17.78-16.18,49.55,2.09,57.86,52.8C479.13,325.52,479.52,373.06,473.44,395.18Z"/><path class="cls-32" d="M479.44,344.83c.68,44.83-20.92,94.49-42.48,85.21C419.2,422.4,408,377.47,406.9,339.33c-.27-9.07-.84-27.9,3.46-44.36,9.79-37.49,37.21-62.27,54.49-27.76C468,273.57,479,316.37,479.44,344.83Z"/><path class="cls-24" d="M417.28,277.34c12.8-29.11,42.05-27.2,53.64,14.81,9.93,36,2.36,85-9.71,110.84-2.82,6-8.61,18.39-16.71,20.32-17.77,4.25-41-28.72-41-76.65C403.49,337.87,409.38,295.31,417.28,277.34Z"/><path class="cls-20" d="M477.26,420.23l-5.15-7.36c-4.05-5.79-5.31-18.09-2.82-27.41l3.18-11.86c2.53-9.44,8-12.53,12.12-6.78l5.26,7.32c4.19,5.82,5.48,18.4,2.86,27.88l-3.29,11.91C486.83,423.29,481.36,426.09,477.26,420.23Z"/><path class="cls-20" d="M420.35,438.3l-4.74-7.08c-3.72-5.57-4.94-17.3-2.71-26.14l2.83-11.24c2.25-8.95,7.2-11.8,11-6.27l4.84,7c3.84,5.6,5.08,17.59,2.75,26.57l-2.93,11.29C429.08,441.34,424.11,443.93,420.35,438.3Z"/><path class="cls-25" d="M492,476.58q-6.83,24.1-13.51,47.74c-1.91,6.71-1.95,6.7-5,2.19-2.53-3.69-5-7.69-7.52-11.18-2-2.72-2.32-5.34-1-9.73q4.09-13.83,7.87-28.38c3.21-12.34,2-26.77-2.83-34.7-5.38-8.92-12.22-5.95-15.89,7.06q-4,14-7.58,28.33c-1.11,4.39-2.19,5.21-4.09,2.07-2.53-4.19-5.17-8.05-7.81-11.76-1.73-2.42-2.17-5-1-8.94s2.16-8.13,3.23-12.22c7.29-27.71,14.78-55.8,22.18-84.7,1.58-6.18,3.4-8.41,6.42-8.84,8.55-1.23,17.21-3.1,26-5.23,2.6-.64,3.85,1.15,4.79,6.54q5.19,29.67,10.74,59.1a25.23,25.23,0,0,1-.73,12.67C501.35,443.35,496.68,460.08,492,476.58Zm-15-63.33c4.56,6.37,10.23,3.15,13-7.49,2.67-10.13,1.27-23.29-3.13-29.34s-10.48-2.39-13.08,7.86S472.69,407.19,477,413.25Z"/><path class="cls-18" d="M416.37,440.8c-3.64-5.47-7.24-11-10.89-16.27-1.57-2.28-2.18-4.35-1.07-8.64,3.86-14.93,7.64-30.18,11.43-45.59.85-3.44,1.72-4.16,3.17-2.05q11.57,16.92,23.43,34c1.49,2.15,1.63,4.45.72,7.86q-6.12,23.06-12,45.88c-.94,3.67-1.89,4.33-3.47,1.87-3.76-5.85-7.57-11.43-11.33-17.07ZM419.72,421c2-7.75,1.95-7.89-1.49-12.9-3.2-4.66-3.2-4.66-5.16,3-2,8-2,8,1.3,12.91S417.69,429,419.72,421Zm9.09,14.32c2.18-8.3,2.18-8.3-1-13.08-3.49-5.22-3.6-5.18-5.52,2.21-2.12,8.14-2.12,8.14,1.08,13C426.86,442.73,426.86,442.73,428.81,435.33Zm5.47-21.15c2.36-8.87,2.36-8.87-.71-13.52-3.63-5.5-3.75-5.46-5.66,1.82-2.22,8.44-2.22,8.44,1,13.23C432.46,421,432.46,421,434.28,414.18Zm-9-15c1.93-7.59,1.92-7.73-1-12-3.79-5.58-3.79-5.58-5.78,2.32s-2,8,1.37,13S423.22,407.34,425.29,399.17Z"/><path class="cls-18" d="M493.59,556.76c-4-6-8-12.15-12-18-1.82-2.63-2.2-5-1-9.17q6.53-22.33,12.93-45.47c1.19-4.27,2.37-4.55,4.21-1.84q12.43,18.3,25.22,36.67c1.78,2.57,2.11,5,.93,8.85q-7.07,23.32-13.81,46.46c-1.13,3.87-2.27,3.89-3.95,1.29C502,569.18,497.75,563,493.59,556.76ZM503.94,515c2.34-8,2.32-8.31-1.43-13.79s-3.65-5.33-5.86,2.27c-2.44,8.38-2.44,8.38,1.13,13.67C501.64,522.82,501.64,522.82,503.94,515Zm10.31,15c2.39-8.08,2.37-8.29-1.45-13.84-3.68-5.36-3.69-5.35-6.13,3.06-2.22,7.65-2.22,7.65,1.36,13C511.89,538,511.89,538,514.25,530Zm-23.93-4.47C488,533.72,488,533.72,491.4,539c3.84,5.83,3.84,5.83,6.05-1.69,2.43-8.24,2.41-8.45-1.09-13.71C492.58,517.9,492.52,517.92,490.32,525.53Zm17.51,26.32c2.29-7.83,2.27-8-1.62-13.72-3.56-5.2-3.56-5.2-5.83,2.62-2.35,8.08-2.35,8.08,1.33,13.59S505.46,559.94,507.83,551.85Z"/><path class="cls-31" d="M450.37,511.17l-49.18-74.46c-.89-1.35-1.78-2.72-2.65-4.13-1-1.66-1.31-3.75-.7-6.44s1.5-3.09,2.59-1.56c.61.86,1.2,1.75,1.8,2.65q49.88,75.11,104.36,157.28c1.39,2.09,4.1,3.64,2.41,9.24-1.79,6-3.56.67-5.05-1.58Q476.52,550.88,450.37,511.17Z"/><path class="cls-31" d="M522.76,326c-3.53,12.63-3.83,12.83-9.18,4.1-2.21-3.6-4.27-7.6-6.42-11.33-1.47-2.55-2.62-2-3.75,1.75a30.72,30.72,0,0,0-1.1,16.23c4.73,24.35,9.18,49.06,13.73,73.71.32,1.7.64,3.42.81,5.2.26,2.7-.21,4.94-1.34,6.1s-2.27.2-2.91-2a90,90,0,0,1-2.06-8.93Q505,380.77,499.6,350.71c-2.28-12.56-2.42-12.42-8.36-11.1-10.11,2.24-20.06,4-29.86,5.9a11.83,11.83,0,0,0-1.54.27c-1.37.47-2.34-.95-2.53-3.95-.21-3.42.63-5.71,2.11-6.34a22.38,22.38,0,0,1,4.21-1.35c10.37-2.1,20.91-4.42,31.64-6.17,3.08-.5,5-3.05,6.47-9.32,1.82-7.76,4.1-15,6.08-22.7,1.21-4.66,2.68-5,4.55-2.84,2.1,2.46,3.67,6.39,5.44,9.77,1.69,3.21,3.33,6.64,5.41,8.48s2.75,4.48,1.15,9C523.75,322.08,523.29,324.11,522.76,326Z"/><path class="cls-31" d="M430.57,376.69c-4.25-6.15-8.51-12.15-12.67-18.39-2.34-3.5-2.26-4.88.23-7.77,3.35-3.88,6.77-7.55,10.16-11.51,1.32-1.55,2.47-1.73,3.77.14q9.27,13.35,18.76,26.62c1.87,2.62,2.41,5.41,1.08,10-1.48,5.09-2.75,10.5-4.14,15.69-1.87,6.95-2,7.08-4.91,3C438.72,388.55,434.64,382.57,430.57,376.69Z"/><path class="cls-31" d="M513.41,496.4c-4.61-6.65-9.15-13.39-13.76-19.79-1.86-2.6-2.39-5.1-1.07-9.35,1.82-5.85,3.51-11.94,5.16-18.11,1.09-4.09,2.21-5.3,4.23-2.34,6.77,9.88,13.67,19.59,20.63,29.36,1.73,2.43,2.43,5.58,2.44,10,0,9.14.24,18.28.28,27.4,0,6.13-.74,7.23-3.17,3.9-5-6.84-9.85-14.11-14.71-21.14Z"/><path class="cls-31" d="M483.84,393.18c-.66,2.69-1.53,5.71-3.38,5.85-1.16.08-2.31,1-3.46,0,.64-3.32,2-1.73,3-2,2-.5,2.92-3.57,3.85-6.94a22.7,22.7,0,0,1,1-2.6c.44,1.61-.28,2.47-.48,3.66C484.3,391.68,484.12,392.15,483.84,393.18Z"/><path class="cls-20" d="M535.05,465.57c-13.15,1.51-28.66-30.07-27-63.6,1.4-28.68,14.79-48.3,26.75-51.25,2.86-.71,8.83-2.19,14.15,4.65,12.05,15.5,19.86,59.68,9.2,87.24C556.21,447.58,543.48,464.6,535.05,465.57Z"/><path class="cls-24" d="M541.07,382.35c-.27-.3-.53-.73-.82-.88a45.13,45.13,0,0,0-10.4-4.29c-.87-.21-1.2.4-1.33,2.35-.28,4.24-.65,8.45-1.06,12.64-.18,1.84,0,2.49.89,2.78a16.4,16.4,0,0,1,6,4,10.65,10.65,0,0,1,2.41,4.16,3.4,3.4,0,0,1,.29,2.44c-.32.84-.8.46-1.16,0a11.39,11.39,0,0,0-6.65-4.31c-2.53-.75-2.5-.7-3.11,4.73-.86,7.52-1.7,15-2.66,22.44-.41,3.12-1.14,3.77-2.36,2.9-1.44-1-2.08-3.27-1.69-6.2q2.51-18.74,4.19-38.08c.12-1.31.22-2.63.35-3.94.21-2,.36-3.67-.78-4.88-.85-.9-1.24-3.11-1.07-5.38a3.47,3.47,0,0,1,1.77-3.12,5.59,5.59,0,0,0,1.66-1.64,1,1,0,0,1,1.32-.53c4.89,1.68,9.83,3.19,14.67,6.1a4.69,4.69,0,0,1,1.9,1.77,9.9,9.9,0,0,1,.72,6.58C543.57,383.55,542,383.79,541.07,382.35Z"/><path class="cls-24" d="M554.15,412.35a7.25,7.25,0,0,1,1.4,3.55,7.49,7.49,0,0,1-.21,3.87c-.51,1.24-1.09.46-1.63,0-3.27-2.53-6.61-4.25-10.06-4.59-1.11-.11-1.82-1.31-2.2-3.46-.62-3.44,0-5.22,1.65-4.94a21.9,21.9,0,0,1,10.38,4.89A6.28,6.28,0,0,1,554.15,412.35Z"/><path class="cls-33" d="M563.31,402.56c.29,26.84-16.63,58.56-33.34,54.74-13.87-3.17-22.33-29.67-22.94-52.81-.14-5.49-.44-16.89,3.06-27.16,7.95-23.27,29.4-39.79,42.48-20.21C555,360.72,563.13,385.56,563.31,402.56Z"/><path class="cls-33" d="M558.36,370.64c7.92,23.29,3.67,68.84-10.74,82.54-12,11.36-26.16-3.91-33.07-24a81.81,81.81,0,0,1-5-27.09c-.12-28.28,12.11-63.87,27.68-60.09C540.06,342.72,553.39,356,558.36,370.64Z"/><path class="cls-33" d="M511.57,383.87c2.89-27.53,20.73-51.32,34.78-37.8,12.13,11.66,16.28,46.08,13.62,71.65-.63,6-1.92,18.47-6.5,26.91-10.13,18.66-30.33,20.15-38.6-8.36C513.37,431.1,509.77,401.1,511.57,383.87Z"/><polyline class="cls-34" points="440.76 335.18 445.98 345.77 448.97 325.89"/><polyline class="cls-34" points="430.76 249.49 431.83 293.51 439.77 293.61 439.24 323.47 443.12 321.49 445.74 344.37 444.25 315.87 440.11 320 439.14 295.46 433.72 293.75 432.74 238.06"/></g></g></svg>