<svg xmlns="http://www.w3.org/2000/svg" viewBox="0 0 595.42 606.67"><defs><style>.cls-1{fill:#f2c22a;}.cls-2{fill:#ffceca;}.cls-3{fill:#b286b0;}.cls-4{fill:#7dc7ae;}.cls-12,.cls-13,.cls-14,.cls-15,.cls-16,.cls-18,.cls-19,.cls-20,.cls-5,.cls-8,.cls-9{fill:none;stroke-miterlimit:10;}.cls-12,.cls-16,.cls-5{stroke:#7dc7ae;}.cls-5{stroke-width:1.54px;}.cls-6{fill:#fff;}.cls-7{fill:#f9b3af;}.cls-8,.cls-9{stroke:#f9b3af;}.cls-8{stroke-width:3.58px;}.cls-9{stroke-width:2.39px;}.cls-10{fill:#a682ae;}.cls-11{fill:#69acc7;}.cls-12,.cls-14{stroke-width:1.92px;}.cls-13,.cls-18,.cls-19{stroke:#a682ae;}.cls-13{stroke-width:1.72px;}.cls-14,.cls-15{stroke:#69acc7;}.cls-15{stroke-width:1.5px;}.cls-16{stroke-width:1.1px;}.cls-17{fill:#ffb23c;}.cls-18{stroke-width:2.28px;}.cls-19{stroke-width:1.66px;}.cls-20{stroke:#fff;stroke-width:1.83px;}</style></defs><g id="Layer_2" data-name="Layer 2"><g id="Layer_1-2" data-name="Layer 1"><polygon class="cls-1" points="76.47 50.65 433.26 0 364.64 309.66 0 355.34 76.47 50.65"/><polygon class="cls-2" points="0 355.34 165.55 606.67 523.36 556.27 364.64 309.66 0 355.34"/><polygon class="cls-3" points="433.26 0 595.42 252.33 523.36 556.27 364.64 309.66 433.26 0"/><path class="cls-4" d="M197.21,563.27c32.28-22,122.14-64.74,168.7-77.68,40.22-11.18,30.83,4.64.68,25.19A375.87,375.87,0,0,1,320,538.05c-54.83,27.46-137,59.24-148.84,53.67C169,590.71,177,577.05,197.21,563.27Z"/><path class="cls-5" d="M395.16,482.94c-3.68-10.45-74.58,13.57-135.46,43.57-64.76,31.9-105.09,64.09-86.52,66.83,14.39,2.13,62.38-13.59,114.46-38.71C344.81,527.05,398.45,492.27,395.16,482.94Z"/><path class="cls-5" d="M196.92,560.36c32.18-22.94,122-65.75,168.67-77.58,40.32-10.23,31.1,7,1,28.41a336.59,336.59,0,0,1-46.51,28c-54.82,27.72-137.1,58.69-149,51.71C168.9,589.63,176.81,574.7,196.92,560.36Z"/><path class="cls-5" d="M321.43,498.69c54.8-21.27,96.24-22.88,63.28,4.07C357,525.4,288.58,558.45,240.43,576.9c-11.27,4.31-34.46,13.2-49.26,15.67-32.82,5.46-31.37-12.87,25.46-45.08C227.13,541.54,287.46,511.87,321.43,498.69Z"/><path class="cls-6" d="M290.06,526.05l-24,11.21c-4.93,2.31-9.38.13-9.89-4.82L254,511.65c-.51-4.93,3.08-10.87,8-13.2L285.9,487.1c5-2.36,9.47-.24,10,4.72l2.25,20.93C298.69,517.73,295.05,523.72,290.06,526.05Z"/><path class="cls-7" d="M280.3,520.72c-3.79.41-7.43,2.12-11.31,4.21,3.23-5.63,5.63-11.41,9.12-17.17-6.6-.43-15,2.71-22.21,3.67-.54,0-.86-.41-.6-.53,12.22-10.43,24.59-19.85,36.56-31-8.17.61-16.14,2.77-24.43,4.28-3.47.57-7.09,2.3-10.17,1.32,1.93-2.28,4.2-3.91,6.13-6.19,4.85-5.59,9.84-9.88,13.55-16-12.29,2.11-24.41,5.24-36.35,7,11.92-12.25,24.93-22.34,36.35-35.2-13.87,2.42-27.52,8.8-41.86,12.84-.79.11-2.12.22-1.4-.66,9.22-14.45,22.28-26,29.6-41.14-10.37,4.05-20.48,10.11-30.74,14.37a5.64,5.64,0,0,1,1.31-2.79c10-14.83,18.05-30.08,23.36-46.1l.78-2.15-4.57-1.06-64.35,98.79,13.25,99.94,68.94-33.7c3.16-3.7,6.37-7.31,9.18-11.33C280.67,521.64,280.3,520.72,280.3,520.72Z"/><path class="cls-7" d="M350.18,378.8l-79.07-18.13c-.26.73-.52,1.45-.78,2.15-5.33,16.07-13.43,31.36-23.44,46.24a5.55,5.55,0,0,0-1.32,2.8c10.31-4.29,20.47-10.39,30.89-14.46-7.34,15.22-20.46,26.78-29.72,41.27-.72.89.61.78,1.41.66,14.41-4.07,28.13-10.49,42.07-12.95-11.47,12.91-24.54,23.05-36.51,35.34,12-1.73,24.18-4.9,36.54-7-3.72,6.16-8.74,10.48-13.61,16.08-1.94,2.29-4.22,3.93-6.15,6.22,3.1,1,6.73-.77,10.22-1.35,8.34-1.52,16.35-3.71,24.56-4.33-12,11.21-24.46,20.68-36.73,31.14-.26.13,0,.52.6.54,7.26-1,15.69-4.15,22.33-3.72-3.51,5.77-5.91,11.57-9.15,17.22,3.89-2.11,7.56-3.83,11.37-4.24,0,0,.37.92.14,1.31-2.83,4-6.05,7.66-9.22,11.37l77.88-38.09Z"/><polygon class="cls-8" points="198.12 570.1 184.16 467.73 259.15 361.84 354.72 376.72 367.43 487.78 198.12 570.1"/><polygon class="cls-9" points="202.91 567.87 188.82 462.63 259.24 357.18 350.03 375.92 363.01 489.77 202.91 567.87"/><path class="cls-6" d="M342.68,413.55c3.39,7.14,6.49,14,9.82,20.63,2.94,5.88,5.9,11.77,10,16.65,1.09,1.31.51,2.68-.69,4.23a21,21,0,0,1-5.57,4.9c-1.77,1.11-2,2.16-1.7,3.51a260.23,260.23,0,0,1,4.08,27.38,36.11,36.11,0,0,1-.15,8.67,3.34,3.34,0,0,1-1.48,2.86c-1.13.59-1.72-.18-2.22-.84-2.68-3.55-4.13-8.06-5.56-12.52-2-6.16-4.28-12.09-6.38-18.14-.61-1.75-1.48-2.21-3.52-1-1.69,1-3.46,1.69-5.19,2.49-3.93,1.82-4,1.84-4.4,6.11-.73,8.34-1.31,16.63-2.05,25a55.91,55.91,0,0,1-1.88,11.45c-.34,1.14-.66,2.44-1.93,2.89s-1.5-.58-1.84-1.37a23.82,23.82,0,0,1-1.84-6.86c-1-9.69-2.05-19.36-2.49-29.28-.07-1.53-.38-2.13-1.94-1.64a8,8,0,0,1-2.5.26c-3,0-3.44-.9-2.45-4.5,4.28-15.64,6.39-30.93,8.64-46.23.18-1.24,0-2.23-1-2.38-1.15-.17-2,1.11-2.61,2.14-2.79,4.45-4.64,9.16-6.82,13.77a91.3,91.3,0,0,1-5.5,10.67c-.73,1.15-1.55,2.42-2.82,2.41-1.09,0-1.27-1.07-1.4-2.11-.91-7.45,1.43-15.35,4.87-23.33,5.1-11.81,12.71-21.48,23.86-27.05,11.56-5.78,20.73-4.07,28.13,2a24.81,24.81,0,0,1,9.39,15.62c.23,1.33.52,2.9-.92,4.24s-2.67.52-3.73,0c-5.1-2.39-9-6.46-13.68-9.34A6.88,6.88,0,0,0,342.68,413.55Z"/><path class="cls-6" d="M198.7,554.1c-.95-17.85-1.45-34.59,0-52,.44-5.32,1.62-10.83,1.59-16a10.2,10.2,0,0,0-.19-2.25c-.44-1.94-1.64-1.9-3.1.17a53.15,53.15,0,0,0-4.38,8.21c-2.28,4.86-4.51,9.73-6.91,14.55-.85,1.71-1.91,4-3.76,4.16s-1.74-2.15-1.69-3.82c.27-10.4,3.71-20.79,10.18-30.87,12.42-19.34,32.49-26.19,45.51-14.44a26.48,26.48,0,0,1,8.09,13c.53,2,1.68,4.31-.5,6.45s-3.78.18-5.17-.78c-3.44-2.39-6.67-5.06-10-7.54a27.27,27.27,0,0,0-3.47-2.05,2,2,0,0,0-2.49.22,3.12,3.12,0,0,0-.89,3.1,28.31,28.31,0,0,0,1.57,6c5,11.64,7.93,24.7,10.33,38.1,1.89,10.53,3.8,21.11,4,32.55a24.23,24.23,0,0,1-.23,4.55c-.21,1.19-.05,2.77-1.52,3.59s-2-.47-2.51-1.3a33.2,33.2,0,0,1-3.74-8.68c-2.73-9-5.59-17.93-9.4-26.12a11.71,11.71,0,0,0-3.14-4.45c-1.59-1.25-2.68-.74-3.89,1.81a27,27,0,0,0-2,6.61A227.67,227.67,0,0,0,207.67,556a81.12,81.12,0,0,1-1.95,14.14c-.32,1.31-.49,3.11-2,3.68s-1.91-1.08-2.26-2.22C199.67,565.77,199.08,559.36,198.7,554.1Z"/><path class="cls-10" d="M264.77,536.7a300.44,300.44,0,0,1,.86-31.67,75.59,75.59,0,0,0,.14-11.92c-.16-2.22-1.08-3.26-3.09-3.49-5-.59-10-1-14.46-2.66a7.47,7.47,0,0,1-3.3-2,2,2,0,0,1-.27-2.58c.72-1.27,1.57-.8,2.24-.75,5.2.36,10.51.33,16.22-1.54,11.67-3.83,23-9.29,33.06-20.26.83-.9,1.84-2.64,2.87-2.14s.19,2.29-.31,3.53a46.24,46.24,0,0,1-14,18.79c-2,1.6-2.53,2.88-2.27,4.85.73,5.47,2.89,10,4.53,14.88,2.57,7.64,4.19,15.84,5.9,24a24.18,24.18,0,0,1,.18,7.39,3.09,3.09,0,0,1-1.3,2.57c-1,.62-1.6,0-2.05-.58a31.8,31.8,0,0,1-4.65-8.95,26.82,26.82,0,0,0-4.74-8.55c-2.25-2.49-4-1.63-5.68,2.55-2.33,5.8-2.39,11.31-3.4,16.94a40.93,40.93,0,0,1-1.75,7.53c-.35.92-.76,2-1.8,2.23-.88.23-1.2-.44-1.52-1.08C265.2,541.93,265.23,539.49,264.77,536.7Z"/><path class="cls-6" d="M201.35,445.77c-.76-7.66,4.66-16.79,12.21-20.54,7.76-3.85,14.6-.75,15.39,7S224,449.33,216.35,453,202.11,453.46,201.35,445.77Z"/><path class="cls-6" d="M317.85,375.69c7.93-3.88,14.73-.79,15.56,7.09s-4.81,17-12.69,20.85-14.82.63-15.62-7C304.26,388.64,309.74,379.66,317.85,375.69Z"/><path class="cls-10" d="M261.47,468.13c-.62-5.83,3.23-12.33,9-15.14s11-.53,11.55,5.26-3.59,12.52-9.25,15.27S262.07,473.8,261.47,468.13Z"/><path class="cls-11" d="M215.62,450.87c-4,1.95-7.83,1.41-9.88-.71a5.69,5.69,0,0,1-1.76-4.77c.45-6.2,6.39-15.65,12.69-17.85,1.24-.43,6.45-.34,8.31,1.7h0c1.27,1.39,1.6,4.09.91,7.39a23,23,0,0,1-6.44,11.56A15.9,15.9,0,0,1,215.62,450.87Zm0-21.56c-5.18,2.56-10,10.53-10.37,15.7a4.74,4.74,0,0,0,1.52,4c2.39,2.47,7.57,2.5,12.09-1.74a20.61,20.61,0,0,0,5.8-10.45c.6-2.85.34-5.24-.71-6.39h0c-1.58-1.74-6.41-1.83-7.32-1.52A9.87,9.87,0,0,0,215.61,429.31Z"/><path class="cls-11" d="M216.81,448a14.35,14.35,0,0,1-5.88,1.56c-1.08,0-3.33,0-4.71-1.6-1.69-2-2.2-5.75-1.3-9.51a16.1,16.1,0,0,1,4.91-8.29c1.11-1,6.87-4.05,10.09-4,2.52,0,4.73,1.77,5.77,4.6a12.17,12.17,0,0,1-.8,9.44A17.76,17.76,0,0,1,216.81,448ZM213,429.6a15.61,15.61,0,0,0-2.62,1.52,14,14,0,0,0-4.23,7.19c-.81,3.38-.37,6.71,1.14,8.49,1.14,1.37,3.12,1.34,4.07,1.32,4.15-.06,10-3.17,12.47-8.27a10.64,10.64,0,0,0,.66-8.26c-.92-2.5-2.84-4.06-5-4.07h0C217.75,427.51,215,428.59,213,429.6Z"/><path class="cls-11" d="M207,445.59c-1.59-4,1.78-12.26,7.24-15.2a7.26,7.26,0,0,1,10.46,3.38,7.4,7.4,0,0,1,.54,4.93c-1.28,5.27-7.24,12.07-12.42,11.64C211.84,450.26,208,448.1,207,445.59Z"/><path class="cls-12" d="M328.12,393.17c-3.28,4.84-12,7.62-16.24,4-3.61-3.07-2.61-9.52.24-13.9a12.25,12.25,0,0,1,4.42-4.4c5.27-2.72,13.29-1.61,14.36,4.31A21.29,21.29,0,0,1,328.12,393.17Z"/><path class="cls-12" d="M327.42,390.58c-.78,5.55-7.61,12.92-13.33,12.89-4.84,0-6.95-5.37-6.34-10.32a12.75,12.75,0,0,1,2.07-5.92c3.65-5.2,11.67-9.31,15.47-5.66C326,382.24,327.91,387.09,327.42,390.58Z"/><path class="cls-4" d="M314.89,381.7c4.38-4.47,12.37-5.34,14.48-.28,1.8,4.3-1.38,11.15-5.29,15.24a13.43,13.43,0,0,1-5.17,3.7c-5.22,1.61-11.2-1.68-9.89-8.43C309.26,390.7,312.13,384.51,314.89,381.7Z"/><path class="cls-13" d="M359.55,320.48c5.37,4.27,2.84,20.22-6.77,30.3-8.13,8.54-18,9.42-22.95,5.72a8,8,0,0,1-3.62-6.78c-.13-9.15,8.32-25.41,19-30.19C347.16,318.66,356.17,317.79,359.55,320.48Z"/><path class="cls-13" d="M350.83,318.24c8.58-1,15.26,9.16,10.48,20.5-4.05,9.62-14.71,16.19-22.45,17.18-1.84.24-5.63.72-8.13-1.46-5.6-4.89-5.74-18.86,3.42-28C335.82,324.83,345.43,318.86,350.83,318.24Z"/><path class="cls-13" d="M328.3,349.9c-3.75-6.65,1.41-22,11.51-28.39,8.6-5.47,17.38-2.33,21,3.53a11.74,11.74,0,0,1,1.9,8.56c-1.6,9.6-12.07,23-22.24,23.36C338.58,357,330.68,354.1,328.3,349.9Z"/><path class="cls-14" d="M313.38,331.44c-2.23,3.32-8.15,5.29-11.06,2.86-2.46-2.05-1.77-6.45.17-9.46a8.63,8.63,0,0,1,3-3c3.59-1.89,9.05-1.21,9.78,2.81A14.77,14.77,0,0,1,313.38,331.44Z"/><path class="cls-14" d="M312.91,329.69c-.54,3.77-5.19,8.85-9.08,8.89-3.3,0-4.74-3.58-4.32-7a8.69,8.69,0,0,1,1.41-4.05c2.49-3.57,8-6.44,10.55-4A10.54,10.54,0,0,1,312.91,329.69Z"/><path class="cls-14" d="M305.35,324c3-3.08,8.44-3.75,9.87-.32,1.22,2.91-.94,7.59-3.61,10.41a9.15,9.15,0,0,1-3.53,2.56c-3.55,1.15-7.63-1-6.74-5.63A22.73,22.73,0,0,1,305.35,324Z"/><path class="cls-12" d="M193.81,432.82c.25,2.79-3.29,7.88-7.12,9.23-3.25,1.15-5.4-.85-5.68-3.33a5.27,5.27,0,0,1,.56-3.27c1.71-3.32,6.51-7.16,9.56-6.35A5.64,5.64,0,0,1,193.81,432.82Z"/><path class="cls-12" d="M192.61,428.47c1.9,1.67,1.29,6.86-1.82,9.78-2.63,2.48-6,2.34-7.75.88a3.27,3.27,0,0,1-1.35-2.42c-.2-3.07,2.44-8.12,6-9.22C188.36,427.29,191.42,427.41,192.61,428.47Z"/><path class="cls-12" d="M182.07,434.51c.51-3.27,4.47-7.55,7.72-7.47,2.76.07,3.91,3.26,3.5,6.2a7.57,7.57,0,0,1-1.25,3.5c-2.15,3-6.77,5.36-8.88,3.13A9.44,9.44,0,0,1,182.07,434.51Z"/><path class="cls-15" d="M285.77,182.53c-14.71,14.18-57.9.9-81.62-31.06-20.28-27.33-18.59-57.77-6-71.62,3-3.3,9.23-10.16,20.92-9,26.3,2.69,68.82,34.62,76.9,69C297.41,146.16,295.13,173.5,285.77,182.53Z"/><path class="cls-15" d="M296.67,157.37C295,183.29,263.1,199.14,233.81,181c-24.87-15.4-38.53-49.44-38-73.22.13-5.66.4-17.46,7.69-24.44,16.45-15.76,56.69-11.47,78.26,20.25C285.7,109.34,297.77,140.85,296.67,157.37Z"/><path class="cls-11" d="M296,163.93c-6.21,20.73-44.14,24.79-73.64,1.66-25.1-19.69-34.58-51.52-30-70.86,1.1-4.61,3.39-14.2,12.68-17.83,20.94-8.2,64.83,6.81,83.4,38.85C291.83,121.56,299.92,150.73,296,163.93Z"/><path class="cls-15" d="M193.9,106.35c.92-26.55,32.58-44,62.67-25.59,25.51,15.57,39.14,50.37,38.24,74.24-.21,5.62-.64,17.22-8,24-16.38,15.12-55.57,10.85-77-19.57C205.9,153.87,193.32,122.94,193.9,106.35Z"/><path class="cls-16" d="M171,221.64c-31.83-15-63.23-67.81-52.08-100.83C128.54,92.33,165.8,90,195.4,103.27c7,3.14,21.57,9.65,32.59,23.83,24.55,31.59,32.47,85.79,2,100.09C224.45,229.77,191.12,231.12,171,221.64Z"/><path class="cls-16" d="M141.72,209.42c-22.8-27.67-23-82.87,7.72-100.9,26.42-15.52,64.6,3,85.83,28.4,5,6,15.38,18.42,17.78,34.44,5.33,35.51-18.6,78.34-56.61,72.8C189.54,243.16,156,226.79,141.72,209.42Z"/><path class="cls-16" d="M170.2,224.8c-31.81-15-63.19-67.73-52.06-100.7,9.6-28.43,46.83-30.71,76.4-17.47,7,3.14,21.55,9.64,32.56,23.8,24.54,31.55,32.46,85.67,2,99.93C223.58,232.94,190.29,234.28,170.2,224.8Z"/><path class="cls-4" d="M226.64,238.12c-23.82,15.1-77.57-5.85-100-46.79-19.26-35.15-8.23-71.59,12.67-86.84,5-3.64,15.38-11.22,30.77-8.39,34.63,6.37,82.36,50,82.89,92.36C253.06,196.1,241.83,228.49,226.64,238.12Z"/><path class="cls-6" d="M201.83,192.06l1,.26c3-4.23,7.85-6.91,7.19-14.25-.39-4.39-4.45-11.18-8.74-13.12-3.08-1.39-4.69-.56-4.24,2.62.88,6.2,1.92,12.41,3,18.62A54.94,54.94,0,0,0,201.83,192.06Z"/><path class="cls-6" d="M254.42,174.6c2.29,1.29,4.65,2.82,7.07,3.92a18.3,18.3,0,0,1,8.9,8c2.84,5.24,5.39,10.56,8.31,15.75a20.4,20.4,0,0,0,4.23,4.89c1,.87,2.4,1.13,4.26,2-4.7-7.3-4.68-7.85-.11-10.67L284,191.26c-1.21-2.79-2.35-5.6-3.65-8.38s-2.28-5.76-4.19-8a60.83,60.83,0,0,0-16.38-14.25c-5.38-3-11.2-.81-11.4,4.68-.08,2.53.32,5.24.51,7.95l6,2.35C254.53,174.85,254.36,174.45,254.42,174.6Z"/><path class="cls-6" d="M149.38,131.09l-.63-.75c-4.59,3.2-9.34,6.19-13.65,9.69-1.53,1.25-2.71,3.41-.65,7.79Z"/><path class="cls-6" d="M244.15,187.62c4,1.16,8,2.66,12,4.1s7,4.38,9.33,8.63c3.28,5.92,7.13,11.63,10.82,17.56,2.43-2.66,3.47-2.67,6.8,0-.45-1.15-.64-1.71-.89-2.27-4.36-9.73-8.59-19.53-13.26-29.27a13.88,13.88,0,0,0-5.37-5.38,129.08,129.08,0,0,0-14.43-6.18c-1.42-.54-3.68-.67-4.16.16a38.33,38.33,0,0,0-3.64,9.06C240.86,185.66,242,187,244.15,187.62Z"/><path class="cls-6" d="M335.45,255.85c-.64-6.41-3.68-12.56-6.84-18.77-4.25-8.36-9.55-16.51-12-25.3-.76-2.72-1.68-5.46-2.27-8.17a46.15,46.15,0,0,0-6.58-15.86c-4.78-7.22-5.14-14.51-6.67-21.82a20.51,20.51,0,0,0-1.58-5.26c-1.63-3.12-4.15-4-5.87-2-3.68,4.13-4.53,9.59-2.74,16.5,3.19,12.25,5.93,24.36,5.88,36.07,0,4.55,2,9.77,3,14.18-3.36-4-3.74-9-4.52-14-5.86-2-12.22.66-16.95-8.11l-.45.44a17.36,17.36,0,0,0,.93,2.24c3.1,5.45,5.54,10.91,6.46,16.61.72,4.51-.31,5.44-4.27,3.46.56,2.12,1.85,4.71,1.62,6.61-.36,3-3.58.36-5.7.33.65,2.56,2.62,4,4.51,5.37,3.52,2.54,7.15,4.85,10.64,7.44a117.35,117.35,0,0,1,11.7,9.28c5.05,4.88,7.58,10.92,9.51,17a1.8,1.8,0,0,1,0,.8c0,.14-.17.22-.08.11-2.25-4.43-4-9.38-7.08-13.5s-7.3-7.53-11.33-10.72c-4.33-3.43-9.11-6-13.49-9.38-2-1.57-3.61-4.05-5.38-6.14-.27-.31-.36-.79-.65-1.06-3.39-3.25-6.81-6.47-10.42-9.88-2.38,4.18-6.33,6.62-12.15,6.29,2.18-.81,4.6-1.31,6.49-2.51s3.33-3.17,4.95-4.78l-8.56-11L247,211.42l-.34-.74,7.4-1.32-.24-.78-10.88-4,0-.63c3.79,1.08,7.58,2.14,11.37,3.3.37.11.75.89,1.14,1.35q8.41,10,16.83,19.87a7.49,7.49,0,0,0,2.11,1.52c-1.68-2.77-3.08-5.51-.77-7.08.88-.6,2.38-.4,4-.61-.54-.91-1.43-2.5-2.38-4.05-4.06-6.59-8.05-13.23-12.3-19.76a12.27,12.27,0,0,0-4.55-4.26,168.9,168.9,0,0,0-17.51-6.38c-4.65-1.35-7.3,1.35-6.16,6.13a140.58,140.58,0,0,0,4.91,15.62c.58,1.59,2.34,3.11,4,5.2l-19.3-16.29-8.42,9.07c6.25,6.6,12.87,13.39,19.25,20.39,4.5,4.94,9.33,9.86,12.84,15.31a163,163,0,0,0,32.4,36.27c1.4,1.19,2.75,2.47,4.1,3.74l62.83,13.53c-.37-.7-.73-1.41-1-2.12C341,281.74,336.72,268.76,335.45,255.85Z"/><path class="cls-6" d="M221.92,189.08c-.43-3.09,0-6,0-9-5.65-3.11-5.89-3.83-3.95-12.07l-.56-.81c-1.27.81-2.82,1.35-3.75,2.49-2.81,3.43-2.52,8.6-2.9,13.4a6.31,6.31,0,0,1-1.49,3.63c-3.29,3.68-6.7,7.24-10.19,10.68a5,5,0,0,1-3.28,1.41c-3.92.1-7.94-.11-12-.2l1.06,7.49-.51,0a14.79,14.79,0,0,1-1-3.06c-.59-6.49-1.07-13-1.61-19.48-.2-2.43-.32-4.85-.76-7.33-.59-3.38-2.63-6.25-5.68-8.88-1.54,5.48-1.12,11.38.85,17.77a22.68,22.68,0,0,1-2.91-13.34c.39-4.59,1-9.12,1.08-13.85.08-3.78-2.07-7.26-5.48-10.26-1.8-1.59-2.8-1.54-3.68,0a28.53,28.53,0,0,0-4,18.24,16.29,16.29,0,0,1,0,1.67c-1.65-4.16-1.79-10.28-.13-14.18,1.5-3.5,3.34-6.77,5.1-10.11s1.64-4.5-1.06-8.34c-2.59-3.69-6.84-6.59-9.56-6.39a3.35,3.35,0,0,0-2.1,1c-2.75,2.84-5.7,5.49-8,8.71-5.18,7.18-12.36,11.61-20.42,15a80,80,0,0,0-12,6.72c-1.39.9-2.15,2.65-3.2,4l-.73-.68c1.48-1.91,2.68-4.18,4.53-5.65a44.83,44.83,0,0,1,7.79-4.39,3.71,3.71,0,0,0,2.25-3.24,104.26,104.26,0,0,1,2.24-10.74c1-4.42.62-9.3-.71-14.46a11.88,11.88,0,0,0-1.93-3.94c0,.72.05,1.47,0,2.16-.76,6.82,0,7.15-7.92,4-.63-.26-1.26-.61-1.84-.89-.21.07-.45.06-.48.19-1.49,6.54-4.64,11.75-8,16.83-.91,1.37-.78,3.69-1,5.65-.45,4.69-.57,9.53-1.27,14.06a46.92,46.92,0,0,1-2.71,9.45c-2.56,6.76-2.94,14.35-1.14,22.87a177.3,177.3,0,0,1,3.61,48.89,1.51,1.51,0,0,1-.11.52L150.86,255A47.09,47.09,0,0,1,153.3,251c4.63-6.51,9.81-12.37,17.3-15.91a51.17,51.17,0,0,0,11.77-8.34c3.9-3.45,7.75-6.82,12.64-9.15,6.3-3,11.9-7.11,17.83-10.76a15.41,15.41,0,0,1,1.78-1.09C220.83,202.9,223.06,197.3,221.92,189.08Z"/><path class="cls-17" d="M297.68,224.66c-3.29-4-3.68-8.94-4.45-13.95-5.73-2-11.92.73-16.56-8l-.44.43a18.11,18.11,0,0,0,.91,2.24c3,5.44,5.45,10.89,6.36,16.59.72,4.51-.28,5.44-4.15,3.48.55,2.12,1.82,4.7,1.6,6.61-.35,3-3.5.38-5.56.37.64,2.55,2.57,4,4.42,5.34,3.44,2.52,7,4.81,10.4,7.39a113.44,113.44,0,0,1,11.44,9.23c4.94,4.85,7.43,10.88,9.33,16.92a1.8,1.8,0,0,1,0,.8c0,.14-.16.23-.07.12-2.22-4.42-3.93-9.37-7-13.47s-7.14-7.5-11.08-10.67c-4.23-3.41-8.9-6-13.18-9.32-2-1.56-3.54-4-5.27-6.11-.27-.31-.36-.79-.64-1.06-3.32-3.23-6.66-6.44-10.19-9.84-2.31,4.2-6.15,6.66-11.83,6.37,2.12-.82,4.48-1.34,6.32-2.55s3.24-3.19,4.81-4.81l-8.38-11-8.3,1.18-.34-.74,7.22-1.36-.23-.78-10.63-4,0-.63c3.7,1.06,7.4,2.1,11.11,3.24.35.11.73.89,1.11,1.35q8.23,9.91,16.48,19.8a7.23,7.23,0,0,0,2.07,1.5c-1.65-2.76-3-5.5-.79-7.08.86-.61,2.33-.41,3.86-.63-.53-.91-1.4-2.49-2.34-4-4-6.58-7.89-13.2-12.06-19.71a11.91,11.91,0,0,0-4.46-4.24,162.13,162.13,0,0,0-17.08-6.29c-4.55-1.33-7.12,1.39-6,6.16a144.89,144.89,0,0,0,4.84,15.6c.58,1.6,2.3,3.11,3.9,5.19L224,198.14l-8.19,9.12c6.12,6.57,12.6,13.34,18.85,20.31,4.4,4.91,9.13,9.81,12.57,15.25A161.39,161.39,0,0,0,279,279c1.66,1.43,3.24,3,4.84,4.52a7.12,7.12,0,0,1,.7,1.16,11.88,11.88,0,0,1-1.74-1C269,271.68,256.15,258.9,246.19,243c-3.5-5.6-8.65-10.47-13.1-15.63-2.3-2.67-4.7-5.25-7.09-7.84-3.76-4.06-7.54-8.11-11.39-12.24-2.53,1.65-4.7,3.16-7,4.51-4.8,2.85-9.73,5.49-14.41,8.45-2.52,1.6-4.64,3.74-7,5.55-5,3.84-9.64,8.19-15.13,11.26-7,3.91-11.56,10.14-16.14,16.44l-2,2.72-.68-.61c.87-1.52,1.64-3.12,2.62-4.54,4.49-6.54,9.53-12.44,16.83-16a50.37,50.37,0,0,0,11.45-8.41c3.79-3.47,7.53-6.86,12.3-9.22,6.14-3,11.59-7.18,17.36-10.87a15.3,15.3,0,0,1,1.73-1.09c6-2.85,8.2-8.46,7.06-16.69-.42-3.09,0-6,0-9-5.52-3.08-5.76-3.81-3.9-12.06l-.54-.81c-1.24.82-2.75,1.37-3.65,2.51-2.73,3.44-2.43,8.62-2.78,13.43a6.46,6.46,0,0,1-1.44,3.64q-4.8,5.55-9.9,10.74a4.79,4.79,0,0,1-3.21,1.42c-3.82.12-7.74-.06-11.65-.13l1.06,7.49-.5,0a15.8,15.8,0,0,1-1-3.06c-.59-6.49-1.08-13-1.63-19.48-.2-2.43-.33-4.86-.76-7.34-.6-3.37-2.6-6.23-5.58-8.85-1.48,5.49-1.05,11.39.89,17.78a23.18,23.18,0,0,1-2.88-13.34c.37-4.59.92-9.13,1-13.86.07-3.79-2-7.27-5.37-10.25-1.77-1.58-2.74-1.53-3.6,0a29.22,29.22,0,0,0-3.89,18.28,15.65,15.65,0,0,1,0,1.67c-1.63-4.15-1.79-10.28-.17-14.19,1.45-3.52,3.24-6.8,4.93-10.15s1.59-4.51-1.05-8.34c-2.54-3.67-6.7-6.56-9.35-6.34a3.25,3.25,0,0,0-2.05,1c-2.67,2.86-5.54,5.53-7.79,8.77-5,7.21-12,11.67-19.87,15.13a78,78,0,0,0-11.66,6.79c-1.36.91-2.1,2.67-3.11,4l-.72-.68c1.44-1.92,2.6-4.2,4.41-5.68a43.74,43.74,0,0,1,7.58-4.43,3.74,3.74,0,0,0,2.18-3.25,106.67,106.67,0,0,1,2.16-10.76c1-4.43.57-9.32-.75-14.48a11.73,11.73,0,0,0-1.9-3.93c0,.72.06,1.47,0,2.16-.71,6.83,0,7.16-7.71,4.06-.62-.25-1.23-.6-1.8-.88-.2.08-.44.07-.47.19-1.43,6.56-4.48,11.79-7.73,16.89-.88,1.38-.75,3.7-.92,5.66-.43,4.7-.52,9.55-1.2,14.09a47.83,47.83,0,0,1-2.61,9.47c-2.47,6.78-2.82,14.38-1,22.9a182.39,182.39,0,0,1,3.68,48.93,1.27,1.27,0,0,1-.82,1.21,19.42,19.42,0,0,1-.43-2.83c0-6.44.59-12.74,0-19.39-.8-9.33-2-18.87-3.86-28.51-2-10.71-.18-19.36,2.53-27.86,1.39-4.36,1.89-9.35,2.76-14.08a3.74,3.74,0,0,0,0-1.88c-1.79-5.24.13-8.42,2.31-11.25,3.27-4.25,4.89-9.69,6.57-15.16a44.77,44.77,0,0,1,4.31-9.7c1.69-2.85,3.18-1.87,5.53,2,5.76,9.56,5.73,17.72,3.92,25.59a43,43,0,0,0-1.26,9.06c2-1,4.09-1.93,6.06-3a1.63,1.63,0,0,0,.54-1.49,10.14,10.14,0,0,1,4.52-10.26,167.21,167.21,0,0,1,14.46-8.8c6.07-3.46,14,3.24,16.82,11,.65,1.81-.59,3.74-1,5.82,7.26,5.13,9,11.58,8,18.43-.25,1.75.1,3,1.88,4.6a13.64,13.64,0,0,1,4.68,8.7c.43,4.86.5,9.62.76,14.42.11,2.09.3,4.21.46,6.4a79.87,79.87,0,0,1,8.94.13c4.33.54,6.13-2.5,8.19-4-1-4.74-1.85-8.89-2.92-13.06-.74-2.88-2.11-5.81-2.72-8.66a58.4,58.4,0,0,1-1.05-9.08c-.11-2,1-2.19,2.87-1.05a23.51,23.51,0,0,0,3.42,1.68,15.94,15.94,0,0,1,7,6.22c.76,1.14,1.41,2.35,2.3,3.84.61-1.45,1.06-2.74,1.66-3.92,1.17-2.3,2.72-4,6-3.19.8.19,1.52-.6,2.24-1,1.43-.77,2.71,0,3,1.87a50.72,50.72,0,0,1,.2,7.47c0,6.58-.21,13.09-.11,19.68A6.36,6.36,0,0,0,225,198c3.9,3.43,8,6.6,12.38,10.23-1.2-3.86-2.33-7.27-3.32-10.68-2.49-8.61-1.49-10.64,5.68-11.53-1.41-5.45.95-8.76,3.07-12.21.33-.52.79-1.19,1.37-1.2,3.06-.07,2.6-2.63,2.19-5.13-1-6,1.77-8.86,6.07-10.32a4.36,4.36,0,0,1,2.86.3c8.8,3.78,16,10.42,22,18.82,1.53,2.16,1.92,5,3,7.48,2.52,5.79,5.19,11.54,7.68,17.3,1.07,2.47,1.84,5,2.85,7.76,1.55.8,2.57.71,2.4-1.59-.51-6.95-.57-13.77-2.87-21.17A126,126,0,0,1,286.91,170a14.44,14.44,0,0,1,3.63-12.81c.58-.65,1.18-1.28,1.7-2,1.49-2.06,3.06-1.9,4.52,1.16a44.64,44.64,0,0,1,3.29,10.21c1.5,7.35,2.52,14.54,7.26,21.79a48.54,48.54,0,0,1,4.95,11.14c2,6,3.23,12.08,5.49,18,1.88,4.94,4.79,9.76,7.24,14.62a88.43,88.43,0,0,1,4.45,9c1.72,4.74,3.62,9.65,4.19,14.22,1,8.36,3.44,16.68,6.18,25,1.73,5.29,3.71,10.56,5.56,15.82a1.28,1.28,0,0,1-.19,1.41c-.64-1.28-1.39-2.54-1.91-3.83-5.2-12.92-9.38-25.88-10.67-38.79-.63-6.42-3.63-12.55-6.73-18.75-4.17-8.34-9.36-16.47-11.79-25.26-.75-2.71-1.66-5.45-2.24-8.16A46.75,46.75,0,0,0,305.37,187c-4.68-7.2-5.07-14.5-6.58-21.8a20.46,20.46,0,0,0-1.56-5.26c-1.6-3.11-4.05-3.95-5.72-2-3.58,4.16-4.39,9.62-2.62,16.52,3.15,12.25,5.86,24.35,5.85,36.07C294.74,215,296.72,220.26,297.68,224.66Zm-49.79-51.92,5.83,2.32-.4-1c2.24,1.27,4.55,2.8,6.91,3.88a18,18,0,0,1,8.7,8c2.8,5.23,5.29,10.54,8.16,15.72a20.37,20.37,0,0,0,4.14,4.87c1,.87,2.35,1.12,4.17,1.93-4.62-7.28-4.59-7.83-.15-10.67l-3.06-7.18c-1.19-2.79-2.31-5.6-3.59-8.37s-2.25-5.76-4.11-8a59.88,59.88,0,0,0-16-14.17c-5.26-3-10.93-.75-11.1,4.74C247.29,167.32,247.69,170,247.89,172.74Zm33.5,44.55c-.43-1.14-.62-1.7-.86-2.26-4.29-9.72-8.45-19.5-13-29.22a13.67,13.67,0,0,0-5.25-5.36,127.12,127.12,0,0,0-14.09-6.11c-1.39-.53-3.6-.65-4.07.18a39.35,39.35,0,0,0-3.51,9.09c-.43,1.62.67,2.94,2.78,3.56,3.88,1.14,7.78,2.62,11.68,4s6.81,4.35,9.12,8.59c3.22,5.9,7,11.6,10.62,17.51C277.12,214.64,278.15,214.62,281.39,217.29Zm-79.3-25.46,1,.26c2.93-4.25,7.64-7,7-14.31-.39-4.38-4.38-11.16-8.57-13.08-3-1.38-4.58-.53-4.13,2.65.89,6.19,1.92,12.41,3,18.62A57.74,57.74,0,0,0,202.09,191.83ZM136.21,147.9l14.5-16.82-.61-.76c-4.47,3.24-9.09,6.26-13.28,9.78C135.32,141.36,134.18,143.52,136.21,147.9Z"/><path class="cls-17" d="M300.14,227.84c-3.36-4-3.73-9-4.51-14-5.86-2-12.22.65-16.95-8.11l-.45.43a16.79,16.79,0,0,0,.93,2.24c3.1,5.45,5.54,10.9,6.45,16.6.73,4.51-.3,5.43-4.26,3.45.56,2.12,1.85,4.71,1.61,6.61-.36,3-3.58.35-5.69.33.65,2.55,2.61,4,4.51,5.36,3.52,2.54,7.15,4.84,10.63,7.44a117.25,117.25,0,0,1,11.7,9.27c5.05,4.87,7.57,10.91,9.5,17a1.62,1.62,0,0,1,0,.79c0,.14-.16.23-.07.12-2.25-4.43-4-9.38-7.08-13.49s-7.29-7.52-11.32-10.72c-4.32-3.42-9.11-6-13.48-9.37-2-1.57-3.62-4.05-5.38-6.13-.27-.32-.36-.8-.65-1.07-3.39-3.24-6.8-6.46-10.41-9.87-2.38,4.18-6.33,6.61-12.15,6.28,2.18-.8,4.6-1.3,6.49-2.51s3.33-3.15,4.95-4.76l-8.56-11-8.51,1.14-.34-.74,7.4-1.32-.23-.78-10.88-4,0-.62c3.79,1.08,7.58,2.13,11.37,3.29.37.11.75.9,1.14,1.36q8.41,9.94,16.82,19.85a7.21,7.21,0,0,0,2.12,1.51c-1.69-2.76-3.09-5.5-.78-7.07.88-.6,2.38-.39,3.95-.6-.54-.92-1.43-2.5-2.38-4-4.06-6.58-8-13.22-12.29-19.74a12.27,12.27,0,0,0-4.55-4.26,169.58,169.58,0,0,0-17.5-6.38c-4.65-1.35-7.29,1.35-6.16,6.12A141.65,141.65,0,0,0,240,212c.59,1.6,2.34,3.12,4,5.2L224.73,201,216.3,210c6.25,6.6,12.87,13.38,19.25,20.38,4.49,4.93,9.33,9.85,12.83,15.29a163.05,163.05,0,0,0,32.38,36.25c1.7,1.44,3.31,3,4.95,4.54a6.71,6.71,0,0,1,.71,1.17,11.94,11.94,0,0,1-1.78-1c-14.09-12-27.19-24.84-37.34-40.79-3.56-5.61-8.82-10.5-13.37-15.68-2.35-2.68-4.8-5.27-7.24-7.86-3.83-4.08-7.7-8.14-11.63-12.28-2.6,1.63-4.82,3.12-7.15,4.46-4.93,2.81-10,5.42-14.8,8.35-2.59,1.58-4.77,3.7-7.19,5.5-5.14,3.8-9.9,8.11-15.54,11.15-7.16,3.86-11.88,10.06-16.6,16.32-.68.89-1.35,1.8-2,2.69l-.69-.61c.89-1.51,1.69-3.1,2.7-4.51,4.63-6.5,9.81-12.36,17.3-15.89a51.37,51.37,0,0,0,11.76-8.33c3.9-3.44,7.74-6.81,12.64-9.13,6.3-3,11.89-7.11,17.82-10.75a16.94,16.94,0,0,1,1.78-1.09c6.21-2.8,8.43-8.39,7.3-16.61-.43-3.09,0-6,0-9-5.65-3.11-5.89-3.84-4-12.07l-.56-.8c-1.27.81-2.82,1.34-3.75,2.48-2.81,3.42-2.52,8.59-2.9,13.39a6.35,6.35,0,0,1-1.48,3.63q-4.95,5.51-10.19,10.66a5,5,0,0,1-3.29,1.4c-3.91.1-7.93-.11-11.94-.2l1.06,7.48-.51,0a15.2,15.2,0,0,1-1-3.06c-.59-6.48-1.06-13-1.6-19.45-.2-2.43-.32-4.85-.76-7.33-.6-3.37-2.64-6.24-5.69-8.87-1.53,5.47-1.11,11.37.86,17.75a22.55,22.55,0,0,1-2.91-13.32c.39-4.59,1-9.11,1.08-13.83.08-3.78-2.07-7.27-5.47-10.26-1.81-1.59-2.8-1.54-3.69,0a28.47,28.47,0,0,0-4,18.22c0,.44,0,.85,0,1.67-1.65-4.16-1.79-10.27-.12-14.17,1.5-3.5,3.34-6.76,5.09-10.1s1.64-4.49-1-8.32-6.84-6.59-9.55-6.39a3.37,3.37,0,0,0-2.11,1c-2.74,2.84-5.69,5.49-8,8.71-5.17,7.17-12.35,11.58-20.4,15a79.41,79.41,0,0,0-12,6.71c-1.4.9-2.16,2.65-3.2,4l-.73-.69c1.48-1.9,2.67-4.17,4.53-5.64a45.06,45.06,0,0,1,7.78-4.38,3.71,3.71,0,0,0,2.25-3.23,103.54,103.54,0,0,1,2.25-10.73c1-4.41.61-9.29-.72-14.45a11.38,11.38,0,0,0-1.93-3.93,19.21,19.21,0,0,1,0,2.15c-.75,6.81,0,7.15-7.91,4-.63-.25-1.26-.61-1.84-.89-.21.08-.45.07-.48.19-1.49,6.54-4.64,11.74-8,16.81-.9,1.37-.78,3.69-1,5.65-.45,4.68-.56,9.52-1.27,14.05a47,47,0,0,1-2.71,9.44c-2.55,6.74-2.94,14.33-1.14,22.84a177.36,177.36,0,0,1,3.6,48.85,1.27,1.27,0,0,1-.84,1.21,18.51,18.51,0,0,1-.43-2.83c0-6.43.65-12.71.09-19.36A281.58,281.58,0,0,0,98,197c-2-10.7-.11-19.32,2.69-27.78,1.44-4.35,2-9.32,2.88-14a3.63,3.63,0,0,0,0-1.88c-1.81-5.23.17-8.4,2.41-11.21,3.37-4.22,5-9.64,6.79-15.1a44.45,44.45,0,0,1,4.44-9.65c1.74-2.84,3.27-1.85,5.67,2.06,5.86,9.58,5.8,17.72,3.92,25.56a41.43,41.43,0,0,0-1.32,9c2.08-1,4.19-1.9,6.21-3a1.58,1.58,0,0,0,.56-1.48,10,10,0,0,1,4.67-10.22,170.24,170.24,0,0,1,14.85-8.7C158,127.23,166.13,134,169,141.71c.66,1.81-.62,3.73-1.05,5.81,7.42,5.15,9.18,11.61,8.14,18.44-.27,1.74.09,3,1.9,4.6a13.53,13.53,0,0,1,4.77,8.7c.42,4.86.48,9.61.73,14.4.1,2.09.29,4.2.44,6.39a81.2,81.2,0,0,1,9.17.18c4.43.56,6.28-2.46,8.4-4-1.05-4.73-1.86-8.88-3-13.05-.74-2.87-2.14-5.8-2.75-8.66a55.92,55.92,0,0,1-1-9.07c-.11-1.94,1.06-2.18,2.95-1a24.38,24.38,0,0,0,3.49,1.7,16.26,16.26,0,0,1,7.17,6.25c.78,1.14,1.44,2.35,2.35,3.84.62-1.44,1.09-2.73,1.71-3.9,1.2-2.29,2.8-4,6.17-3.15.83.19,1.57-.6,2.31-1,1.46-.77,2.77,0,3,1.88a51.81,51.81,0,0,1,.18,7.45c-.07,6.57-.26,13.07-.18,19.65a6.18,6.18,0,0,0,1.89,3.65c4,3.44,8.12,6.64,12.65,10.28-1.22-3.86-2.36-7.27-3.36-10.67-2.53-8.61-1.5-10.63,5.85-11.48-1.42-5.45,1-8.74,3.2-12.17.33-.53.81-1.18,1.41-1.19,3.13,0,2.67-2.61,2.26-5.11-1-6,1.84-8.83,6.25-10.27a4.57,4.57,0,0,1,2.93.31c9,3.83,16.42,10.49,22.5,18.91,1.57,2.17,2,5,3.06,7.49,2.56,5.79,5.29,11.54,7.82,17.31,1.08,2.47,1.86,5,2.89,7.77,1.59.8,2.63.72,2.47-1.58-.51-7-.54-13.75-2.88-21.15a123.93,123.93,0,0,1-3.54-16.11,14.14,14.14,0,0,1,3.77-12.77c.59-.65,1.21-1.27,1.74-2,1.54-2,3.15-1.87,4.63,1.19a43.43,43.43,0,0,1,3.33,10.2c1.52,7.35,2.54,14.54,7.38,21.8a48.24,48.24,0,0,1,5,11.15c2.06,6,3.27,12.08,5.57,18,1.91,4.95,4.87,9.77,7.36,14.64,1.54,3,3.42,6,4.54,9,1.73,4.74,3.67,9.65,4.24,14.22,1,8.36,3.47,16.68,6.25,25,1.75,5.28,3.76,10.56,5.64,15.82a1.23,1.23,0,0,1-.2,1.4c-.65-1.27-1.41-2.54-1.94-3.83-5.29-12.93-9.53-25.89-10.8-38.79-.63-6.41-3.68-12.55-6.84-18.76-4.24-8.34-9.54-16.48-12-25.27-.76-2.72-1.68-5.46-2.28-8.16a45.8,45.8,0,0,0-6.57-15.85c-4.78-7.21-5.14-14.5-6.67-21.8a20,20,0,0,0-1.58-5.25c-1.62-3.12-4.14-4-5.86-2-3.68,4.13-4.53,9.58-2.74,16.48,3.18,12.24,5.92,24.33,5.87,36C297.16,218.22,299.17,223.44,300.14,227.84Zm-50.85-52.11,6,2.34-.4-1c2.28,1.28,4.65,2.82,7.06,3.92a18.26,18.26,0,0,1,8.89,8c2.85,5.23,5.39,10.55,8.31,15.74a20.55,20.55,0,0,0,4.23,4.88c1,.88,2.4,1.14,4.26,2-4.7-7.3-4.68-7.85-.11-10.66-1-2.37-2.07-4.78-3.12-7.18-1.21-2.8-2.34-5.6-3.65-8.38s-2.28-5.76-4.18-8a60.75,60.75,0,0,0-16.38-14.23c-5.38-3-11.2-.82-11.39,4.67A78.79,78.79,0,0,0,249.29,175.73Zm34.19,44.66c-.45-1.15-.64-1.71-.89-2.26-4.36-9.73-8.59-19.52-13.25-29.25A13.88,13.88,0,0,0,264,183.5a133.62,133.62,0,0,0-14.42-6.18c-1.42-.53-3.68-.67-4.17.16a38.57,38.57,0,0,0-3.63,9.06c-.45,1.6.68,2.93,2.84,3.57,4,1.16,8,2.65,12,4.09s7,4.38,9.33,8.62c3.27,5.92,7.13,11.63,10.81,17.55C279.11,217.71,280.15,217.7,283.48,220.39Zm-81.19-25.87,1,.27c3-4.23,7.85-6.91,7.2-14.24-.39-4.38-4.46-11.17-8.74-13.11-3.08-1.39-4.69-.56-4.24,2.62.88,6.19,1.92,12.4,3,18.6A52,52,0,0,0,202.29,194.52Zm-67.35-44.21,14.92-16.7-.63-.76c-4.59,3.2-9.33,6.19-13.64,9.68C134.06,143.78,132.88,145.93,134.94,150.31Z"/><path class="cls-17" d="M299,227.5c-3.36-4-3.74-8.95-4.52-13.95-5.86-2-12.21.65-16.94-8.11l-.45.43a18.17,18.17,0,0,0,.92,2.24c3.11,5.45,5.55,10.9,6.46,16.6.73,4.51-.3,5.43-4.26,3.45.56,2.12,1.85,4.71,1.62,6.61-.36,3-3.58.35-5.69.33.64,2.55,2.61,4,4.5,5.36,3.52,2.54,7.15,4.84,10.64,7.44A117.13,117.13,0,0,1,303,257.17c5.05,4.87,7.58,10.91,9.5,16.95a1.66,1.66,0,0,1,0,.8c0,.14-.16.23-.07.12-2.25-4.43-4-9.38-7.08-13.49S298,254,294,250.83c-4.32-3.42-9.1-6-13.48-9.37-2-1.57-3.61-4.05-5.38-6.13-.26-.32-.36-.79-.64-1.06-3.39-3.25-6.81-6.47-10.42-9.88-2.37,4.18-6.32,6.62-12.14,6.29,2.18-.81,4.6-1.31,6.49-2.51s3.33-3.16,4.94-4.77c-3.08-4-5.93-7.62-8.55-11l-8.51,1.13-.34-.74,7.4-1.32-.24-.78-10.88-4,0-.63c3.79,1.08,7.57,2.13,11.37,3.29.36.12.74.9,1.13,1.36q8.42,9.95,16.82,19.85a7.55,7.55,0,0,0,2.12,1.52c-1.68-2.76-3.09-5.51-.78-7.08.88-.59,2.38-.39,3.95-.6-.54-.92-1.42-2.5-2.38-4-4.06-6.58-8-13.22-12.29-19.74a12.11,12.11,0,0,0-4.56-4.25A164.09,164.09,0,0,0,240.14,190c-4.65-1.35-7.29,1.34-6.16,6.11a141.88,141.88,0,0,0,4.91,15.61c.58,1.59,2.34,3.11,4,5.19-6.9-5.82-13.22-11.14-19.29-16.27l-8.43,9.06c6.26,6.59,12.87,13.38,19.25,20.37,4.49,4.93,9.33,9.85,12.84,15.29a162.34,162.34,0,0,0,32.38,36.25c1.7,1.44,3.31,3,4.95,4.54a7.72,7.72,0,0,1,.7,1.17,13.08,13.08,0,0,1-1.78-1c-14.08-12-27.18-24.85-37.33-40.8-3.57-5.61-8.83-10.5-13.38-15.68-2.35-2.67-4.8-5.26-7.24-7.86-3.83-4.08-7.7-8.13-11.62-12.28-2.6,1.63-4.83,3.12-7.16,4.46-4.92,2.82-10,5.43-14.79,8.36-2.59,1.57-4.77,3.7-7.19,5.49-5.13,3.81-9.9,8.12-15.53,11.16-7.16,3.85-11.88,10.05-16.6,16.31l-2,2.7-.69-.61c.89-1.51,1.69-3.11,2.69-4.52,4.63-6.5,9.81-12.35,17.3-15.89a51,51,0,0,0,11.75-8.32c3.9-3.44,7.74-6.81,12.64-9.14,6.29-3,11.89-7.1,17.81-10.75a16.86,16.86,0,0,1,1.78-1.08c6.21-2.8,8.43-8.4,7.29-16.62-.42-3.08,0-6,0-9-5.64-3.11-5.89-3.84-4-12.06l-.56-.81c-1.27.81-2.82,1.35-3.75,2.48-2.81,3.43-2.52,8.6-2.89,13.39a6.31,6.31,0,0,1-1.49,3.63q-4.93,5.52-10.18,10.67a5.05,5.05,0,0,1-3.28,1.4c-3.92.09-7.94-.11-11.94-.2l1.06,7.48-.51,0a14.79,14.79,0,0,1-1-3.06c-.59-6.48-1.07-12.95-1.61-19.46-.2-2.43-.32-4.85-.76-7.32-.6-3.38-2.64-6.24-5.69-8.87-1.53,5.47-1.11,11.36.86,17.75a22.72,22.72,0,0,1-2.91-13.33c.39-4.58,1-9.11,1.08-13.83.08-3.78-2.07-7.26-5.48-10.25-1.8-1.59-2.8-1.55-3.68,0a28.48,28.48,0,0,0-4,18.22,16.28,16.28,0,0,1,0,1.67c-1.65-4.15-1.8-10.27-.13-14.16,1.5-3.5,3.34-6.77,5.09-10.1s1.64-4.5-1.06-8.33-6.84-6.59-9.55-6.39a3.35,3.35,0,0,0-2.1,1c-2.75,2.84-5.69,5.49-8,8.7-5.17,7.17-12.35,11.59-20.4,15a80.74,80.74,0,0,0-12,6.72c-1.4.9-2.15,2.65-3.2,4l-.73-.68c1.48-1.91,2.68-4.18,4.53-5.64a45.78,45.78,0,0,1,7.78-4.39,3.69,3.69,0,0,0,2.25-3.22,100.45,100.45,0,0,1,2.24-10.73c1-4.42.61-9.29-.72-14.46a11.55,11.55,0,0,0-1.93-3.93,19.19,19.19,0,0,1,0,2.15c-.75,6.82,0,7.16-7.91,4-.63-.25-1.26-.61-1.84-.89-.21.07-.45.07-.48.19-1.49,6.53-4.63,11.74-8,16.81-.9,1.37-.78,3.69-1,5.64-.44,4.69-.56,9.53-1.27,14.05a46.62,46.62,0,0,1-2.7,9.44c-2.55,6.75-2.93,14.33-1.13,22.85a177.34,177.34,0,0,1,3.61,48.84,1.29,1.29,0,0,1-.84,1.21,19.56,19.56,0,0,1-.44-2.82c0-6.44.65-12.71.09-19.36a281.58,281.58,0,0,0-3.86-28.47c-2-10.7-.12-19.32,2.68-27.78,1.44-4.35,2-9.32,2.87-14a3.63,3.63,0,0,0,0-1.88c-1.81-5.24.17-8.4,2.41-11.22,3.36-4.22,5-9.63,6.78-15.09a44.93,44.93,0,0,1,4.44-9.65c1.74-2.84,3.27-1.85,5.67,2.06,5.86,9.58,5.81,17.72,3.92,25.56a41.35,41.35,0,0,0-1.31,9c2.07-1,4.19-1.9,6.21-3a1.6,1.6,0,0,0,.55-1.48A10,10,0,0,1,135.77,139a169,169,0,0,1,14.84-8.7c6.23-3.42,14.37,3.31,17.2,11.05.66,1.81-.62,3.74-1.05,5.81,7.42,5.16,9.18,11.61,8.14,18.44-.27,1.74.09,3,1.9,4.6a13.55,13.55,0,0,1,4.77,8.71c.42,4.86.48,9.61.73,14.4.11,2.09.29,4.2.45,6.39a81,81,0,0,1,9.16.18c4.43.56,6.28-2.47,8.4-4-1.05-4.73-1.86-8.88-2.95-13-.75-2.88-2.14-5.81-2.76-8.66a57.19,57.19,0,0,1-1-9.07c-.11-1.94,1.06-2.18,2.95-1a25.57,25.57,0,0,0,3.49,1.71,16.32,16.32,0,0,1,7.18,6.24c.77,1.15,1.44,2.35,2.34,3.85.63-1.45,1.09-2.74,1.71-3.91,1.2-2.29,2.8-4,6.18-3.15.82.2,1.56-.59,2.3-1,1.46-.77,2.77,0,3,1.88a52,52,0,0,1,.18,7.46c-.06,6.56-.26,13.06-.18,19.64a6.35,6.35,0,0,0,1.89,3.66c4,3.43,8.13,6.63,12.65,10.27-1.21-3.85-2.36-7.26-3.36-10.67-2.53-8.61-1.49-10.63,5.85-11.48-1.42-5.45,1-8.74,3.19-12.17.34-.52.81-1.18,1.41-1.19,3.13,0,2.67-2.61,2.26-5.11-1-6,1.84-8.83,6.25-10.27a4.57,4.57,0,0,1,2.93.31c9,3.83,16.42,10.49,22.5,18.91,1.57,2.17,2,5,3.06,7.49,2.57,5.79,5.29,11.54,7.82,17.31,1.09,2.47,1.87,5,2.89,7.77,1.59.8,2.64.72,2.47-1.58-.5-6.94-.54-13.75-2.88-21.15a122.31,122.31,0,0,1-3.54-16.11,14.14,14.14,0,0,1,3.76-12.77,25.14,25.14,0,0,0,1.74-2c1.54-2.05,3.15-1.87,4.63,1.19a43.93,43.93,0,0,1,3.34,10.2c1.51,7.35,2.54,14.54,7.37,21.8a47.41,47.41,0,0,1,5,11.15c2.06,6,3.28,12.08,5.58,18,1.91,4.95,4.87,9.77,7.37,14.63,1.54,3,3.42,6,4.53,9,1.74,4.73,3.68,9.65,4.24,14.22,1,8.35,3.48,16.67,6.26,25,1.76,5.28,3.76,10.55,5.65,15.82a1.25,1.25,0,0,1-.2,1.4c-.66-1.28-1.42-2.54-1.95-3.83-5.29-12.93-9.53-25.89-10.8-38.79-.64-6.41-3.68-12.55-6.84-18.76-4.25-8.34-9.54-16.49-12-25.27-.76-2.72-1.68-5.46-2.28-8.16A45.64,45.64,0,0,0,307,189.91c-4.77-7.21-5.14-14.5-6.66-21.8a20,20,0,0,0-1.59-5.25c-1.62-3.12-4.14-4-5.86-2-3.68,4.13-4.53,9.58-2.73,16.48,3.18,12.24,5.92,24.33,5.88,36C296,217.88,298,223.1,299,227.5Zm-50.85-52.11,6,2.35-.4-1c2.29,1.29,4.65,2.82,7.07,3.92a18.35,18.35,0,0,1,8.89,8c2.84,5.23,5.38,10.56,8.3,15.74a20.4,20.4,0,0,0,4.24,4.88c1,.88,2.39,1.14,4.25,2-4.7-7.3-4.67-7.85-.11-10.66l-3.11-7.18c-1.21-2.79-2.35-5.6-3.66-8.38s-2.28-5.76-4.18-8A60.93,60.93,0,0,0,259,162.78c-5.38-3-11.19-.81-11.38,4.67A78.61,78.61,0,0,0,248.13,175.39Zm34.19,44.66c-.45-1.14-.64-1.71-.89-2.26-4.36-9.73-8.59-19.52-13.26-29.25a13.77,13.77,0,0,0-5.36-5.37A130.55,130.55,0,0,0,248.39,177c-1.42-.54-3.69-.67-4.17.15a38.92,38.92,0,0,0-3.63,9.06c-.45,1.61.68,2.94,2.84,3.57,4,1.16,8,2.66,11.95,4.1s7,4.37,9.32,8.62c3.28,5.91,7.14,11.62,10.82,17.54C278,217.37,279,217.36,282.32,220.05Zm-81.18-25.87,1,.27c3-4.23,7.85-6.9,7.19-14.24-.39-4.38-4.45-11.17-8.74-13.11-3.08-1.39-4.69-.55-4.23,2.62.88,6.19,1.92,12.4,3,18.61A52.42,52.42,0,0,0,201.14,194.18ZM133.79,150l14.92-16.71-.63-.76c-4.59,3.2-9.33,6.19-13.64,9.69C132.91,143.45,131.73,145.6,133.79,150Z"/><path class="cls-11" d="M282.64,202.72s2.51-4.27,3.87-3.45,7.39,15.86,7.39,15.86l-2.51,1.62S285.8,212.13,282.64,202.72Z"/><path class="cls-11" d="M273.33,227.13c-1.51-4.48,2.47-4.21,3.82-3.4s7.37,15.7,7.37,15.7l-1.55,1-1-.42s-.52.32-1.41-.82C278.46,236.51,274.77,231.42,273.33,227.13Z"/><path class="cls-11" d="M276.27,220.32c-1.51-4.49,2.48-4.22,3.83-3.41s7.38,15.74,7.38,15.74l-1.56,1-1.2.39s-.33-.49-1.22-1.63C281.41,229.73,277.71,224.62,276.27,220.32Z"/><path class="cls-11" d="M196.34,179.66l-1-22.52-2-1.47s-.22,18,1.77,21.62S196.34,179.66,196.34,179.66Z"/><path class="cls-11" d="M302.59,174.37s-3.08-15.71-5.83-18.05-2.84-3.18-2.84-3.18l3.86,2.43s6.07,12.64,6,18.3C303.73,175.34,302.59,174.37,302.59,174.37Z"/><path class="cls-10" d="M221.39,181.56s-4.34-1.72-4.55-4c-.88-9.33,5.42-16.46,5.42-16.46s3.45,18-.79,20.39"/><path class="cls-10" d="M112.77,127s6,3.08,7.82,1.61,3.75-16.65,2-18.63S111,119.15,112.77,127Z"/><polygon class="cls-10" points="257.32 77.64 234.46 117.01 267.11 109.05 239.59 131.16 271.47 119.57 251.64 138.24 312.55 119.87 265.99 131.08 282.23 113.75 258.75 120.02 276.98 105.78 245.83 110.54 257.32 77.64"/><path class="cls-11" d="M175.33,74.86c-.1-1.12-.21-2.25-.31-3.37l-13.1-6.74c.24-4.89.49-9.87.74-14.87l-3.33-2c-1.51,4.29-2,9.79-4.8,12.5s-7.82,2.24-13,3.45l-2.45-16.69-4.33-3.28c5,17.95-6.41,19.67-14.87,24.25l2,2.55L132.4,70l2.06,2.67c-3.32,4.33-6.64,8.65-8.74,11.37,3.4,7.9,6.16,14.31,10.06,23.39,4.89-8.66-3.42-29.57,16.35-19,.71,7.19,1.42,14.48,2.13,21.75l4.56,1.55c.7-6.77,1.4-13.57,2.1-20.33l11.76,1c-.14-.86-.27-1.72-.41-2.58l-12.39-7.78c.65-3.33,1.27-6.45,1.69-8.62ZM140.3,79c-2-12.72,6.15-8.8,13-7.56C155.73,84.78,147.4,80.52,140.3,79Z"/><path class="cls-6" d="M153.31,71.39c2.42,13.39-5.91,9.13-13,7.56C138.33,66.23,146.45,70.15,153.31,71.39Z"/><path class="cls-10" d="M202.21,143.91c3.1-5.39,1-13.91-3.26-18.35-4.68-4.84-11.72-6-15.45-2.55-4.59,4.25-3.19,13.62,3,23.78-1.49-1.41-3.33-2.62-4.41-4.26-4.52-6.79-5.42-13.27-3.24-18.91s7.27-6.22,13.36-4.48c9.11,2.61,17.07,16.17,14.31,24.08-1.13,3.24-3.25,3.32-7.19,1.69-2.88.16-6.72,1.74-8.4.17-2.75-2.58-4.73-7.21-5.87-11s1.05-5.65,4.14-6.13c4.08-.63,6.83,1.44,9.09,6.82C199.4,137.41,200.54,140,202.21,143.91Z"/><path class="cls-4" d="M196,138.36c.34,2.52-.81,4.27-2.59,3.91s-3.49-2.71-3.84-5.23.8-4.28,2.58-3.92S195.67,135.83,196,138.36Z"/><path class="cls-18" d="M473.44,265.48c-9.47,34.42-40.35,43-58.32,7.86-14.94-29.22-15.74-78.43-8.49-109.52,1.74-7.46,5.36-23,13.12-30.06,17.78-16.18,49.55,2.08,57.86,52.79C479.13,195.82,479.52,243.36,473.44,265.48Z"/><path class="cls-18" d="M479.44,215.13c.68,44.83-20.92,94.49-42.48,85.21C419.2,292.7,408,247.77,406.9,209.63c-.27-9.07-.84-27.91,3.46-44.36,9.79-37.49,37.21-62.28,54.49-27.76C468,143.87,479,186.66,479.44,215.13Z"/><path class="cls-10" d="M417.28,147.64c12.8-29.11,42.05-27.2,53.64,14.81,9.93,36,2.36,85-9.71,110.84-2.82,6-8.61,18.39-16.71,20.32-17.77,4.25-41-28.72-41-76.65C403.49,208.16,409.38,165.61,417.28,147.64Z"/><path class="cls-6" d="M477.26,290.53l-5.15-7.36c-4.05-5.79-5.31-18.09-2.82-27.41l3.18-11.86c2.53-9.45,8-12.53,12.12-6.78l5.26,7.31c4.19,5.82,5.48,18.41,2.86,27.89l-3.29,11.91C486.83,293.59,481.36,296.39,477.26,290.53Z"/><path class="cls-6" d="M420.35,308.6l-4.74-7.08c-3.72-5.57-4.94-17.3-2.71-26.14l2.83-11.24c2.25-8.95,7.2-11.8,11-6.27l4.84,7c3.84,5.6,5.08,17.59,2.75,26.57l-2.93,11.29C429.08,311.64,424.11,314.23,420.35,308.6Z"/><path class="cls-11" d="M492,346.87Q485.18,371,478.5,394.62c-1.91,6.71-1.95,6.7-5,2.19-2.53-3.7-5-7.69-7.52-11.18-2-2.72-2.32-5.34-1-9.73q4.09-13.83,7.87-28.38c3.21-12.34,2-26.77-2.83-34.7-5.38-8.93-12.22-5.95-15.89,7.06q-4,14-7.58,28.33c-1.11,4.39-2.19,5.21-4.09,2.07-2.53-4.2-5.17-8-7.81-11.76-1.73-2.42-2.17-5-1-8.94s2.16-8.13,3.23-12.22c7.29-27.71,14.78-55.8,22.18-84.7,1.58-6.18,3.4-8.41,6.42-8.85,8.55-1.22,17.21-3.1,26-5.23,2.6-.63,3.85,1.15,4.79,6.55q5.19,29.67,10.74,59.1a25.23,25.23,0,0,1-.73,12.67C501.35,313.65,496.68,330.38,492,346.87Zm-15-63.32c4.56,6.37,10.23,3.15,13-7.49,2.67-10.13,1.27-23.29-3.13-29.34s-10.48-2.39-13.08,7.86C471.29,264.68,472.69,277.49,477,283.55Z"/><path class="cls-4" d="M416.37,311.1c-3.64-5.47-7.24-11-10.89-16.27-1.57-2.28-2.18-4.36-1.07-8.64,3.86-14.93,7.64-30.18,11.43-45.59.85-3.44,1.72-4.16,3.17-2q11.57,16.92,23.43,34c1.49,2.15,1.63,4.45.72,7.86q-6.12,23.05-12,45.88c-.94,3.67-1.89,4.33-3.47,1.87-3.76-5.85-7.57-11.43-11.33-17.07Zm3.35-19.8c2-7.74,1.95-7.88-1.49-12.9-3.2-4.65-3.2-4.65-5.16,3-2,8-2,8,1.3,12.91S417.69,299.27,419.72,291.3Zm9.09,14.33c2.18-8.3,2.18-8.3-1-13.08-3.49-5.22-3.6-5.18-5.52,2.21-2.12,8.14-2.12,8.14,1.08,13C426.86,313,426.86,313,428.81,305.63Zm5.47-21.15c2.36-8.87,2.36-8.87-.71-13.52-3.63-5.5-3.75-5.46-5.66,1.81-2.22,8.44-2.22,8.44,1,13.24C432.46,291.32,432.46,291.32,434.28,284.48Zm-9-15c1.93-7.59,1.92-7.73-1-12-3.79-5.58-3.79-5.58-5.78,2.32s-2,8,1.37,13S423.22,277.63,425.29,269.47Z"/><path class="cls-4" d="M493.59,427.06c-4-6-8-12.15-12-17.95-1.82-2.63-2.2-5.05-1-9.17q6.53-22.33,12.93-45.47c1.19-4.27,2.37-4.55,4.21-1.84q12.43,18.3,25.22,36.67c1.78,2.57,2.11,5,.93,8.85q-7.07,23.33-13.81,46.46c-1.13,3.87-2.27,3.89-3.95,1.29C502,439.48,497.75,433.29,493.59,427.06Zm10.35-41.81c2.34-8,2.32-8.31-1.43-13.79-3.65-5.33-3.65-5.33-5.86,2.27-2.44,8.38-2.44,8.38,1.13,13.67C501.64,393.12,501.64,393.12,503.94,385.25Zm10.31,15.05c2.39-8.08,2.37-8.29-1.45-13.84-3.68-5.36-3.69-5.35-6.13,3.06-2.22,7.64-2.22,7.64,1.36,13C511.89,408.28,511.89,408.28,514.25,400.3Zm-23.93-4.47C488,404,488,404,491.4,409.27c3.84,5.83,3.84,5.83,6.05-1.69,2.43-8.24,2.41-8.45-1.09-13.71C492.58,388.2,492.52,388.22,490.32,395.83Zm17.51,26.32c2.29-7.83,2.27-8-1.62-13.72-3.56-5.21-3.56-5.21-5.83,2.62-2.35,8.08-2.35,8.08,1.33,13.58S505.46,430.23,507.83,422.15Z"/><path class="cls-17" d="M450.37,381.47,401.19,307c-.89-1.35-1.78-2.72-2.65-4.13-1-1.67-1.31-3.75-.7-6.44s1.5-3.09,2.59-1.56c.61.85,1.2,1.75,1.8,2.65q49.88,75.11,104.36,157.28c1.39,2.09,4.1,3.63,2.41,9.24-1.79,6-3.56.66-5.05-1.58Q476.52,421.17,450.37,381.47Z"/><path class="cls-17" d="M522.76,196.31c-3.53,12.63-3.83,12.83-9.18,4.1-2.21-3.6-4.27-7.61-6.42-11.33-1.47-2.55-2.62-2-3.75,1.75a30.72,30.72,0,0,0-1.1,16.23c4.73,24.35,9.18,49.06,13.73,73.71.32,1.7.64,3.42.81,5.2.26,2.7-.21,4.94-1.34,6.1s-2.27.2-2.91-2a90,90,0,0,1-2.06-8.93Q505,251.07,499.6,221c-2.28-12.56-2.42-12.42-8.36-11.1-10.11,2.24-20.06,4-29.86,5.9a11.83,11.83,0,0,0-1.54.27c-1.37.47-2.34-1-2.53-4-.21-3.42.63-5.72,2.11-6.34a22.38,22.38,0,0,1,4.21-1.35c10.37-2.11,20.91-4.42,31.64-6.17,3.08-.51,5-3.05,6.47-9.32,1.82-7.76,4.1-15,6.08-22.7,1.21-4.66,2.68-5,4.55-2.84,2.1,2.46,3.67,6.39,5.44,9.77,1.69,3.21,3.33,6.64,5.41,8.48s2.75,4.48,1.15,9C523.75,192.38,523.29,194.41,522.76,196.31Z"/><path class="cls-17" d="M430.57,247c-4.25-6.15-8.51-12.15-12.67-18.39-2.34-3.5-2.26-4.88.23-7.77,3.35-3.88,6.77-7.55,10.16-11.51,1.32-1.55,2.47-1.73,3.77.14q9.27,13.35,18.76,26.62c1.87,2.62,2.41,5.41,1.08,10-1.48,5.09-2.75,10.5-4.14,15.69-1.87,6.94-2,7.08-4.91,3C438.72,258.85,434.64,252.87,430.57,247Z"/><path class="cls-17" d="M513.41,366.7c-4.61-6.65-9.15-13.4-13.76-19.8-1.86-2.59-2.39-5.09-1.07-9.34,1.82-5.85,3.51-11.94,5.16-18.11,1.09-4.09,2.21-5.3,4.23-2.34,6.77,9.88,13.67,19.59,20.63,29.36,1.73,2.43,2.43,5.58,2.44,10,0,9.14.24,18.28.28,27.39,0,6.14-.74,7.24-3.17,3.91-5-6.84-9.85-14.11-14.71-21.14Z"/><path class="cls-17" d="M483.84,263.48c-.66,2.69-1.53,5.71-3.38,5.85-1.16.08-2.31,1-3.46-.05.64-3.32,2-1.73,3-2,2-.5,2.92-3.57,3.85-6.94a22.7,22.7,0,0,1,1-2.6c.44,1.61-.28,2.47-.48,3.66C484.3,262,484.12,262.45,483.84,263.48Z"/><path class="cls-6" d="M535.05,335.87c-13.15,1.51-28.66-30.07-27-63.6,1.4-28.68,14.79-48.3,26.75-51.26,2.86-.7,8.83-2.18,14.15,4.66,12.05,15.5,19.86,59.68,9.2,87.24C556.21,317.87,543.48,334.9,535.05,335.87Z"/><path class="cls-10" d="M541.07,252.65c-.27-.3-.53-.73-.82-.88a45.13,45.13,0,0,0-10.4-4.29c-.87-.21-1.2.4-1.33,2.35-.28,4.24-.65,8.45-1.06,12.64-.18,1.84,0,2.49.89,2.78a16.4,16.4,0,0,1,6,4,10.65,10.65,0,0,1,2.41,4.16,3.4,3.4,0,0,1,.29,2.44c-.32.84-.8.45-1.16,0a11.39,11.39,0,0,0-6.65-4.31c-2.53-.75-2.5-.7-3.11,4.73-.86,7.52-1.7,15-2.66,22.43-.41,3.13-1.14,3.78-2.36,2.91-1.44-1-2.08-3.27-1.69-6.2q2.51-18.74,4.19-38.08c.12-1.31.22-2.64.35-3.94.21-2,.36-3.67-.78-4.88-.85-.9-1.24-3.11-1.07-5.39a3.5,3.5,0,0,1,1.77-3.12,5.43,5.43,0,0,0,1.66-1.63,1,1,0,0,1,1.32-.53c4.89,1.68,9.83,3.18,14.67,6.1a4.69,4.69,0,0,1,1.9,1.77,9.9,9.9,0,0,1,.72,6.58C543.57,253.85,542,254.09,541.07,252.65Z"/><path class="cls-10" d="M554.15,282.65a7.25,7.25,0,0,1,1.4,3.55,7.49,7.49,0,0,1-.21,3.87c-.51,1.24-1.09.46-1.63,0-3.27-2.53-6.61-4.25-10.06-4.59-1.11-.11-1.82-1.31-2.2-3.46-.62-3.44,0-5.22,1.65-4.94A21.9,21.9,0,0,1,553.48,282,6.28,6.28,0,0,1,554.15,282.65Z"/><path class="cls-19" d="M563.31,272.86c.29,26.84-16.63,58.56-33.34,54.74-13.87-3.17-22.33-29.68-22.94-52.81-.14-5.49-.44-16.89,3.06-27.16,7.95-23.27,29.4-39.8,42.48-20.22C555,231,563.13,255.86,563.31,272.86Z"/><path class="cls-19" d="M558.36,240.94c7.92,23.29,3.67,68.84-10.74,82.54-12,11.36-26.16-3.91-33.07-24a81.81,81.81,0,0,1-5-27.09c-.12-28.28,12.11-63.87,27.68-60.09C540.06,213,553.39,226.33,558.36,240.94Z"/><path class="cls-19" d="M511.57,254.16c2.89-27.52,20.73-51.31,34.78-37.79C558.48,228,562.63,262.45,560,288c-.63,6-1.92,18.47-6.5,26.91-10.13,18.66-30.33,20.15-38.6-8.36C513.37,301.39,509.77,271.4,511.57,254.16Z"/><polyline class="cls-20" points="440.76 205.48 445.98 216.07 448.97 196.19"/><polyline class="cls-20" points="430.76 119.79 431.83 163.81 439.77 163.91 439.24 193.77 443.12 191.78 445.74 214.67 444.25 186.17 440.11 190.3 439.14 165.76 433.72 164.05 432.74 108.36"/></g></g></svg>