<svg xmlns="http://www.w3.org/2000/svg" viewBox="0 0 595.42 723.58"><defs><style>.cls-1{fill:#ffceca;}.cls-2{fill:#f2c22a;}.cls-3{fill:#b286b0;}.cls-4{font-size:55.02px;fill:#8fb38e;font-family:AbrilFatface-Regular, Abril Fatface;}.cls-5{letter-spacing:-0.05em;}.cls-6{letter-spacing:-0.01em;}.cls-7{fill:#7dc7ae;}.cls-11,.cls-12,.cls-15,.cls-16,.cls-17,.cls-18,.cls-19,.cls-21,.cls-22,.cls-23,.cls-8{fill:none;stroke-miterlimit:10;}.cls-15,.cls-19,.cls-8{stroke:#7dc7ae;}.cls-8{stroke-width:1.54px;}.cls-9{fill:#fff;}.cls-10{fill:#f9b3af;}.cls-11,.cls-12{stroke:#f9b3af;}.cls-11{stroke-width:3.58px;}.cls-12{stroke-width:2.39px;}.cls-13{fill:#a682ae;}.cls-14{fill:#69acc7;}.cls-15,.cls-17{stroke-width:1.92px;}.cls-16,.cls-21,.cls-22{stroke:#a682ae;}.cls-16{stroke-width:1.72px;}.cls-17,.cls-18{stroke:#69acc7;}.cls-18{stroke-width:1.5px;}.cls-19{stroke-width:1.1px;}.cls-20{fill:#ffb23c;}.cls-21{stroke-width:2.28px;}.cls-22{stroke-width:1.66px;}.cls-23{stroke:#fff;stroke-width:1.83px;}</style></defs><g id="Layer_2" data-name="Layer 2"><g id="Layer_1-2" data-name="Layer 1"><polygon class="cls-1" points="76.47 50.65 433.26 0 364.64 309.66 0 355.34 76.47 50.65"/><polygon class="cls-2" points="0 355.34 165.55 606.67 523.36 556.27 364.64 309.66 0 355.34"/><polygon class="cls-3" points="433.26 0 595.42 252.33 523.36 556.27 364.64 309.66 433.26 0"/><text class="cls-4" transform="translate(233.06 707.57)"><tspan class="cls-5">F</tspan><tspan x="29.55" y="0">ami</tspan><tspan class="cls-6" x="126.05" y="0">l</tspan><tspan x="142.61" y="0">y</tspan></text><path class="cls-7" d="M95.12,267.82c44.41-13.91,162.36-32,220.68-31.28,50.37.64,34.59,15.05-6.88,28a461.3,461.3,0,0,1-62.72,15.05C173.8,292.18,68.13,300.74,56,290.79,53.82,289,67.36,276.51,95.12,267.82Z"/><path class="cls-8" d="M350.77,243c-1.12-12.7-91.24-9.07-171.48,4.38C94,261.73,37.05,284.23,57.9,293.24c16.17,7,77,5.11,145.47-5.8C278.53,275.45,351.77,254.39,350.77,243Z"/><path class="cls-8" d="M95.67,264.52c44.56-14.93,162.5-33.17,220.61-31.19,50.2,1.72,34.18,17.78-7.43,31.67-9.79,3.27-30,10-62.84,15.87-72.46,12.89-178,20.53-189.83,9C54,287.76,67.81,273.85,95.67,264.52Z"/><path class="cls-8" d="M259.86,236.65c70.47-5.79,119.37,5.78,72.67,24.87-39.23,16-129.22,30.43-191.07,35.25-14.48,1.13-44.27,3.45-62.31,1.4-40-4.54-32.72-24.29,43.45-41.49C136.67,253.5,216.17,240.23,259.86,236.65Z"/><path class="cls-9" d="M214.9,256.7l-31.44,4.64c-6.46,1-11-2.88-10.08-8.5l3.81-23.63c.9-5.6,6.9-11,13.34-12l31.35-4.82c6.52-1,11.13,2.78,10.25,8.42l-3.74,23.81C227.5,250.31,221.43,255.74,214.9,256.7Z"/><path class="cls-10" d="M205.12,247.68c-4.55-.77-9.33-.06-14.49,1,5.48-5.16,10-10.77,15.86-16-7.57-2.61-18.32-1.84-27.05-3.11-.63-.19-.87-.73-.54-.78,17.44-7.56,34.76-14,52.14-22.42-9.72-2-19.69-2.14-29.83-3.15-4.23-.49-9,.25-12.29-1.82,3-1.89,6.1-3,9.05-4.85,7.36-4.6,14.49-7.73,20.7-13.3-15-1.63-30.12-2.09-44.58-4,17.65-9.66,35.92-16.6,53.16-27.1-16.94-1.8-34.81.84-52.79.67-1-.13-2.54-.43-1.44-1.18,15.17-13,33.92-21.44,47.09-35.81-13.34,1.11-27,4.54-40.28,5.93a6.22,6.22,0,0,1,2.39-2.65c16.15-13.14,30.22-27.35,41.3-43.3l1.57-2.12-5-2.64L114.86,159.18,99.94,273.64l90.77-14.93c4.82-3.06,9.66-6,14.17-9.54C205.27,248.82,205.12,247.68,205.12,247.68Z"/><path class="cls-10" d="M329.9,113.73,243.06,68.26l-1.56,2.13c-11.11,16-25.23,30.24-41.45,43.42a6.22,6.22,0,0,0-2.39,2.65c13.34-1.4,27.07-4.85,40.48-6-13.2,14.41-32,22.93-47.27,35.93-1.11.74.48,1.05,1.45,1.17,18.07.16,36-2.5,53.08-.71-17.32,10.54-35.67,17.5-53.4,27.19,14.54,2,29.74,2.4,44.83,4-6.23,5.59-13.4,8.73-20.79,13.35-3,1.9-6.12,3-9.08,4.87,3.32,2.06,8.1,1.32,12.35,1.8,10.2,1,20.22,1.18,30,3.14-17.46,8.48-34.87,14.92-52.38,22.5-.34.06-.1.6.54.79,8.78,1.26,19.58.48,27.21,3.09-5.86,5.24-10.43,10.86-15.93,16,5.19-1.07,10-1.79,14.57-1,0,0,.16,1.14-.23,1.49-4.53,3.54-9.4,6.5-14.23,9.57l102.55-16.9Z"/><polygon class="cls-11" points="94.11 275.65 108.94 158.28 228.74 65.7 335.84 112.9 316.91 239.45 94.11 275.65"/><polygon class="cls-12" points="100.38 274.72 115.93 154.16 230.26 60.58 330.61 110.5 311.13 240.21 100.38 274.72"/><path class="cls-9" d="M310.58,149.62c1.78,9,3.33,17.5,5.19,25.92,1.64,7.42,3.32,14.87,6.62,21.58.88,1.79-.21,3.12-2.09,4.44a25.1,25.1,0,0,1-8,3.61c-2.41.65-3,1.74-3.05,3.32A283.29,283.29,0,0,1,305.69,240a38.53,38.53,0,0,1-2.82,9.51c-.45,1.05-1,2.37-2.58,2.67s-2-.75-2.35-1.64c-2.05-4.78-2.36-10.22-2.69-15.6-.44-7.43-1.31-14.71-1.93-22.06-.18-2.12-1.05-2.91-3.8-2.25-2.28.54-4.55.75-6.82,1.07-5.14.74-5.25.73-7,5.32-3.4,8.95-6.59,17.92-10,26.88a59.55,59.55,0,0,1-5.68,12c-.74,1.14-1.51,2.47-3.14,2.56-1.45.07-1.56-1.12-1.72-2.1a25.61,25.61,0,0,1-.06-8.16c1.75-11,3.49-22,6-33.08.39-1.71.21-2.48-1.77-2.43a10.15,10.15,0,0,1-3-.53c-3.54-1-3.74-2.1-1.49-5.74,9.76-15.86,16.87-32.05,24.15-48.19.59-1.31.7-2.46-.41-2.94-1.29-.56-2.64.59-3.71,1.52-4.6,4-8.2,8.6-12.15,13a103.28,103.28,0,0,1-9.66,10c-1.21,1-2.55,2.16-4,1.74-1.28-.36-1.17-1.59-1-2.77,1.21-8.51,6.34-16.47,12.79-24.16,9.55-11.37,21.38-19.58,36.1-22.13,15.25-2.65,25.45,2.19,32.25,11.24,4.28,5.69,7,12.21,6.22,20.24-.14,1.55-.28,3.36-2.37,4.38s-3.27-.29-4.36-1.18c-5.23-4.28-8.5-10-13.13-14.7A8.74,8.74,0,0,0,310.58,149.62Z"/><path class="cls-9" d="M99.64,258.19c4.33-20,8.84-38.61,15.83-57.35,2.13-5.73,5.18-11.43,6.72-17.16a11.26,11.26,0,0,0,.46-2.54c.07-2.28-1.34-2.63-3.67-.81a59.68,59.68,0,0,0-7.61,7.64c-4.15,4.62-8.23,9.28-12.5,13.81-1.51,1.61-3.45,3.83-5.66,3.38s-1.37-2.93-.81-4.76c3.48-11.38,10.66-21.72,21.29-30.75,20.38-17.33,45.91-18.4,57.54-1.25a30.05,30.05,0,0,1,5.5,16.94c0,2.32.64,5.3-2.56,6.95s-4.46-1-5.79-2.52c-3.29-3.75-6.25-7.73-9.42-11.55a35.34,35.34,0,0,0-3.44-3.37,2.46,2.46,0,0,0-3-.56,3.43,3.43,0,0,0-2,3.13,31.6,31.6,0,0,0,0,7.08c2.33,14.45,1.76,29.79.49,45.33-1,12.22-2,24.5-5.27,37.16a26,26,0,0,1-1.66,4.95c-.6,1.25-.89,3-2.86,3.46s-2.15-1.14-2.53-2.24A36.68,36.68,0,0,1,137,262.39c-.44-10.83-1.07-21.57-3-31.83a13.49,13.49,0,0,0-2.32-5.92c-1.47-1.89-2.9-1.67-5.09.74a29.7,29.7,0,0,0-4.33,6.65c-5.26,10.3-9,20.69-12.68,31.09a86.71,86.71,0,0,1-6.58,15c-.77,1.35-1.51,3.27-3.48,3.41-2.12.16-1.9-1.81-2-3.17C97.24,271.37,98.5,264.12,99.64,258.19Z"/><path class="cls-13" d="M182.11,260.29a327.59,327.59,0,0,1,10.64-34.64,82.12,82.12,0,0,0,3.79-13.1c.48-2.49-.26-3.93-2.54-4.84-5.62-2.24-11.37-4.31-16.09-7.59a9.25,9.25,0,0,1-3.25-3.24,2.24,2.24,0,0,1,.47-2.94c1.23-1.16,2.08-.37,2.85-.1,6,2.07,12.16,3.75,19.4,3.53,14.8-.46,29.72-2.82,44.79-11.69,1.24-.72,3-2.32,4-1.43s-.46,2.59-1.42,3.79a53.32,53.32,0,0,1-22.12,16.2c-2.79,1.12-3.83,2.35-4.13,4.61-.81,6.27.33,12,.76,17.87.68,9.24.08,18.81-.4,28.38a26.24,26.24,0,0,1-2,8.2,3.48,3.48,0,0,1-2.31,2.42c-1.4.35-1.85-.55-2.22-1.3-1.67-3.46-2.23-7.4-2.7-11.36s-1.16-7.68-2.94-11c-1.87-3.47-4.18-3.08-7.41,1-4.48,5.65-6.22,11.7-9.12,17.58a43.88,43.88,0,0,1-4.34,7.74c-.69.91-1.48,1.92-2.78,1.88-1.1,0-1.27-.88-1.44-1.67C181,266.2,181.81,263.52,182.11,260.29Z"/><path class="cls-9" d="M135.69,139.61c1.44-8.7,10.55-17,20.52-18.71,10.23-1.75,17.28,3.87,15.85,12.66s-10.94,17.29-21.06,18.9C141,154,134.25,148.33,135.69,139.61Z"/><path class="cls-9" d="M293.09,99.89c10.44-1.72,17.44,3.87,16,12.83s-10.79,17.2-21.16,18.9-17.5-4.09-16.11-12.8C273.28,109.78,282.42,101.64,293.09,99.89Z"/><path class="cls-13" d="M199.11,183.64c1-6.64,7.53-12.56,15.11-13.8s13,2.95,11.9,9.52c-1.05,6.41-8,12.65-15.45,13.85S198.1,190.07,199.11,183.64Z"/><path class="cls-14" d="M150.82,149.83c-5.24.86-9.58-1-11.33-4a6.35,6.35,0,0,1-.6-5.83c2.41-6.69,12.21-15.19,20.24-15.59,1.58-.07,7.64,1.7,9.2,4.55h0c1.06,1.95.63,5-1.19,8.44a25.78,25.78,0,0,1-11,10.67A19.26,19.26,0,0,1,150.82,149.83Zm6.53-23.78c-6.82,1.15-14.87,8.4-16.88,14a5.25,5.25,0,0,0,.57,4.87c2,3.5,8.08,5.2,14.65,2a23.33,23.33,0,0,0,9.95-9.65c1.57-2.95,2-5.67,1.12-7.28h0c-1.33-2.42-6.93-4.09-8.09-4A12.34,12.34,0,0,0,157.35,126.05Z"/><path class="cls-14" d="M153.08,147a18,18,0,0,1-7.34-.17c-1.27-.33-3.9-1-5-3.28-1.37-2.77-.83-7,1.37-10.9a18.36,18.36,0,0,1,8.25-7.57c1.6-.72,9.26-2.24,13-1.19,2.95.82,5,3.48,5.34,6.93A13.15,13.15,0,0,1,164.9,141,20.93,20.93,0,0,1,153.08,147Zm1.13-21.49a20,20,0,0,0-3.52.83,15.83,15.83,0,0,0-7.13,6.57c-2,3.46-2.47,7.27-1.26,9.73.93,1.87,3.24,2.47,4.36,2.76a18.88,18.88,0,0,0,17.08-5.1,11.53,11.53,0,0,0,3.28-8.89c-.31-3.05-2.07-5.39-4.61-6.1h0C160.4,124.76,156.9,125.08,154.21,125.53Z"/><path class="cls-14" d="M142.31,141.21c-.65-4.9,5.8-12.93,13.07-14.42,6.17-1.26,10.47,2.72,11.19,7.1a8,8,0,0,1-.87,5.6c-3.1,5.4-12.12,11-18,8.84C146.59,147.94,142.72,144.31,142.31,141.21Z"/><path class="cls-15" d="M299.76,122.46c-5.29,4.28-16.29,4.54-20.17-.84-3.28-4.55-.15-11.34,4.51-15.25a14.4,14.4,0,0,1,6.5-3.43c7-1.3,16,2.51,15.46,9.38C306,113.58,303.11,119.76,299.76,122.46Z"/><path class="cls-15" d="M299.73,119.39c-2.59,5.86-12.82,11.79-19.48,9.9-5.64-1.59-6.49-8.14-4.27-13.41A14,14,0,0,1,280.2,110c5.84-4.56,16.46-6.5,19.79-1.25C300.59,109.73,301.37,115.69,299.73,119.39Z"/><path class="cls-7" d="M287.8,105.55c6.48-3.51,16.08-1.9,17,4.36.78,5.32-5,11.86-10.82,15.1-1.38.77-4.23,2.36-7.17,2.41-6.58.1-12.57-5.46-9-12.48C278.49,113.66,283.72,107.77,287.8,105.55Z"/><path class="cls-16" d="M358.59,52.45c5,6.44-2.83,23.21-17.12,31.23-12.09,6.79-24,4.57-28.55-1.1a9.11,9.11,0,0,1-2.17-8.64c2.63-10.13,17.45-25.33,31.37-27.15C344.67,46.45,355.46,48.4,358.59,52.45Z"/><path class="cls-16" d="M349.08,47.17c10.32,1.68,15.05,15,6,26-7.65,9.3-22.1,13.1-31.45,11.71-2.21-.34-6.79-1-9.05-4.24-5-7.19-1-22.64,12.5-29.73C329.56,49.6,342.59,46.11,349.08,47.17Z"/><path class="cls-16" d="M313.15,74.82c-2.37-8.54,8.32-23.77,22.07-27.59,11.71-3.26,21,3,23.41,10.65a12.91,12.91,0,0,1-.38,10.05c-4.8,10.06-21.09,21.41-33.09,18.58C323,86,314.64,80.22,313.15,74.82Z"/><path class="cls-17" d="M301.33,49.65c-3.62,2.94-11.13,3.21-13.79-.4-2.25-3.06-.11-7.69,3.08-10.38a10,10,0,0,1,4.45-2.38c4.76-.93,10.94,1.58,10.56,6.24A16,16,0,0,1,301.33,49.65Z"/><path class="cls-17" d="M301.31,47.57c-1.77,4-8.75,8.09-13.31,6.87-3.86-1-4.45-5.47-2.93-9a9.56,9.56,0,0,1,2.88-4c4-3.15,11.26-4.54,13.53-1A11.41,11.41,0,0,1,301.31,47.57Z"/><path class="cls-17" d="M294.21,38.87c4.43-2.43,11-1.41,11.63,2.83.54,3.6-3.42,8.07-7.39,10.32a11.27,11.27,0,0,1-4.9,1.69c-4.5.12-8.6-3.6-6.16-8.39A25.64,25.64,0,0,1,294.21,38.87Z"/><path class="cls-15" d="M130.83,122.9c-.56,3.15-6.24,7.63-11.13,7.88-4.14.22-6-2.68-5.62-5.5a5.77,5.77,0,0,1,1.65-3.43c3-3.1,9.79-5.79,13.1-3.91C129.44,118.28,131.18,120.91,130.83,122.9Z"/><path class="cls-15" d="M130.76,117.71c1.7,2.45-.59,8-5.11,10.2-3.83,1.89-7.73.64-9.32-1.52a3.72,3.72,0,0,1-.84-3.11c.7-3.44,5.31-8.16,9.83-8.23C126.14,115,129.68,116.17,130.76,117.71Z"/><path class="cls-15" d="M116.6,121c1.59-3.44,7.52-6.89,11.29-5.75,3.21,1,3.58,4.86,2.21,8a8.6,8.6,0,0,1-2.53,3.45c-3.44,2.66-9.54,3.73-11.33.59A10.35,10.35,0,0,1,116.6,121Z"/><path class="cls-18" d="M337.56,444.14c-8.63,18.22-56,25.47-92,8.69-30.72-14.34-41.28-40.68-34.59-57.7,1.6-4.06,4.91-12.49,16.78-16.47,26.7-9,80.93-.23,102.61,25.29C334.32,408.57,343.06,432.55,337.56,444.14Z"/><path class="cls-18" d="M338.09,418.31c8.72,22.56-15.94,49.49-51.76,46.72C255.92,462.68,229,439.85,220,419.61c-2.15-4.83-6.61-14.87-2.32-23.85,9.71-20.29,50.63-33.86,84.37-16.36C308.14,382.57,332.54,403.94,338.09,418.31Z"/><path class="cls-14" d="M340,424.13C342.3,444.24,307,463.84,269,457c-32.35-5.85-54.34-28.6-57.6-46.86-.77-4.35-2.39-13.39,5.2-20.41,17.12-15.84,65.89-21.94,96.84-2.9C319,390.25,338.6,411.34,340,424.13Z"/><path class="cls-18" d="M217.5,419.24c-9.74-22.74,14.12-50.91,50.79-48.29,31.11,2.22,58.34,25.69,67,46.16,2.05,4.82,6.28,14.77,1.83,23.63-9.9,19.72-49.79,32.85-82.85,16.38C248.26,454.11,223.6,433.45,217.5,419.24Z"/><path class="cls-19" d="M241.46,526c-37,1-88.8-30.08-91.19-62.63-2.06-28.07,33.32-45.91,67.47-47.4,8.09-.35,24.88-1.08,41.3,6.15,36.59,16.11,66,58.35,42.07,83.4C296.77,510.07,264.85,525.43,241.46,526Z"/><path class="cls-19" d="M208,528.26c-33.31-13.57-55.62-59.95-33-88.22,19.51-24.34,64.12-25.09,95-12.73,7.29,2.91,22.37,8.94,31.14,21.39,19.44,27.61,13.3,73.88-25.95,85.44C268.13,536.24,228.92,536.77,208,528.26Z"/><path class="cls-19" d="M241.93,529c-37,1-88.72-30-91.1-62.53-2.05-28,33.3-45.83,67.42-47.32,8.09-.35,24.86-1.07,41.26,6.14,36.56,16.08,66,58.25,42,83.26C297.2,513.11,265.31,528.44,241.93,529Z"/><path class="cls-7" d="M302.26,516.17c-17.15,22.87-77.92,28.17-116.2,3.29-32.86-21.35-36.73-56.73-22.48-78.49,3.4-5.19,10.47-16,26.6-20.19,36.29-9.41,100.3,7,117.8,42.36C311.14,469.52,313.2,501.58,302.26,516.17Z"/><path class="cls-9" d="M259.61,488l1.08-.2c1.24-4.85,4.88-9.17,1.29-15.07-2.14-3.52-8.82-7.5-13.78-7.31-3.56.15-4.79,1.54-3.07,4,3.34,4.84,6.84,9.63,10.42,14.38A48.14,48.14,0,0,0,259.61,488Z"/><path class="cls-9" d="M303.85,450.85c2.74.1,5.66.39,8.46.28a19.7,19.7,0,0,1,11.87,2.94c4.88,3.2,9.49,6.6,14.41,9.71a21,21,0,0,0,6.09,2.31c1.31.32,2.79-.07,4.94-.17-7.52-4.14-7.71-4.61-4.39-8.93l-5.92-4.72c-2.3-1.84-4.54-3.72-6.92-5.5s-4.54-3.88-7.3-5a66,66,0,0,0-21.68-5c-6.46-.27-11.24,4.1-9.22,8.8a63.84,63.84,0,0,0,3.68,6.47l6.76-.57Z"/><path class="cls-9" d="M184.06,459.06l-.92-.37c-3.18,4.66-6.6,9.2-9.4,14-1,1.71-1.28,4,2.49,6.83Z"/><path class="cls-9" d="M299.06,466.19c4.34-.72,8.83-1.16,13.3-1.65a18.44,18.44,0,0,1,12.54,3.28c5.57,3.58,11.62,6.74,17.59,10.16,1.3-3.28,2.31-3.73,6.63-2.89-.89-.77-1.3-1.17-1.77-1.53-8.15-6.33-16.21-12.77-24.66-19a14.62,14.62,0,0,0-7.39-2.24,152.89,152.89,0,0,0-16.54,1c-1.59.15-3.86,1-4,1.91a32.5,32.5,0,0,0,.09,9.18C295.07,465.94,296.71,466.58,299.06,466.19Z"/><path class="cls-9" d="M415.37,484.65c-3.19-5.13-8.62-9-14.19-12.88-7.49-5.22-15.92-9.82-21.85-16.17-1.83-2-3.83-3.88-5.49-5.9a41.43,41.43,0,0,0-12.77-10.54c-7.55-4-10.83-10-15.25-15.52a17.73,17.73,0,0,0-3.65-3.75c-2.84-1.94-5.63-1.58-6.53.78-1.93,5.05-.57,10,3.94,15.06,8,8.95,15.55,18,20.2,27.85,1.8,3.84,5.86,7.37,8.58,10.67-4.9-2-7.24-5.95-10-9.83-6.53.79-11.64,5.77-19.77.41-.09.19-.18.37-.26.56a16.37,16.37,0,0,0,1.8,1.49c5.21,3.27,9.78,6.81,13,11.22,2.51,3.49,1.88,4.71-2.77,4.74,1.4,1.54,3.69,3.17,4.22,4.87.84,2.66-3.34,1.83-5.41,2.71,1.65,1.88,4.15,2.25,6.54,2.59,4.45.63,8.92,1,13.35,1.73a128.9,128.9,0,0,1,15.13,2.81c6.87,1.95,11.76,6,16.06,10.23a1.35,1.35,0,0,1,.32.67c0,.13-.07.26,0,.13-4-2.77-7.65-6.2-12.31-8.34s-10.13-3.22-15.34-4.19c-5.59-1-11.29-1.19-16.9-2.14-2.62-.45-5.15-1.87-7.71-2.87-.38-.15-.67-.51-1.05-.62-4.61-1.28-9.23-2.53-14.12-3.87-.64,4.54-3.51,8.28-9.31,10.49,1.8-1.62,4-3.07,5.32-4.89s2-4.08,2.9-6.13l-12.75-5.61-7.84,4.6-.63-.48,6.69-4.28-.55-.55L304.68,481c-.08-.18-.16-.36-.23-.54,4.12-.7,8.24-1.43,12.4-2.08.4-.06,1.09.44,1.65.66,8.13,3.19,16.24,6.39,24.37,9.54a8.4,8.4,0,0,0,2.67.37c-2.75-1.61-5.22-3.32-3.6-5.62.62-.88,2.16-1.36,3.61-2.2-.9-.54-2.4-1.5-3.95-2.4-6.6-3.81-13.15-7.69-19.91-11.37a13,13,0,0,0-6.14-1.65c-6.64.45-13.27,1-19.61,2.1-5.07.85-6.57,4.25-3.55,7.79a123.89,123.89,0,0,0,11.05,11.05c1.21,1.09,3.53,1.62,6,2.68l-25.34-5.47L279.49,495c8.74,2.88,17.92,5.77,26.94,8.94,6.36,2.24,13,4.32,18.65,7.4,14.3,7.89,29.71,13.16,46.11,16.71,1.84.4,3.67.9,5.49,1.4l66.64-15.44a19.91,19.91,0,0,1-1.85-1.34C431.13,504.09,421.79,495,415.37,484.65Z"/><path class="cls-9" d="M278,476.9c-1.66-2.42-2.42-5-3.59-7.61-6.76-.21-7.29-.72-8.7-8.48l-.87-.44c-.91,1.23-2.2,2.34-2.65,3.69-1.37,4.09,1,8.32,2.55,12.52a5.38,5.38,0,0,1,0,3.69q-2.61,6.76-5.64,13.34a5.54,5.54,0,0,1-2.65,2.58c-3.77,1.76-7.77,3.3-11.71,4.94l4,5.85-.49.23a13.78,13.78,0,0,1-2.22-2.14c-3.18-5.21-6.24-10.46-9.37-15.71a67.89,67.89,0,0,0-3.69-5.85c-1.93-2.58-5.07-4.13-9.1-5,.71,5.26,3.48,10,8,14.59a19.45,19.45,0,0,1-8.18-10c-1.46-4-2.71-8.1-4.5-12.12-1.44-3.22-4.94-5.23-9.46-6.3-2.39-.57-3.34-.1-3.6,1.56a23.5,23.5,0,0,0,3.38,17.07,14.42,14.42,0,0,1,.65,1.42c-3.28-2.8-5.87-7.89-5.81-11.88.05-3.59.54-7.13.9-10.69s-.21-4.48-4.37-6.56c-4-2-9.31-2.63-11.87-1.3a3.67,3.67,0,0,0-1.67,1.71c-1.53,3.56-3.34,7.06-4.31,10.76-2.17,8.25-7.39,15-13.87,21.35a84.44,84.44,0,0,0-9,10.77c-1,1.35-1,3.15-1.52,4.74l-1-.27c.68-2.24.93-4.66,2.15-6.69a49.25,49.25,0,0,1,5.82-7,3.37,3.37,0,0,0,.9-3.68,82.07,82.07,0,0,1-2.12-10c-.76-4.16-3.13-8.08-6.5-11.86a10.71,10.71,0,0,0-3.46-2.49,18.45,18.45,0,0,1,.84,1.82c2,6.06,2.84,6-6.1,6.76-.72.06-1.47,0-2.15,0-.17.15-.41.25-.39.36,1.17,6.15.2,11.88-1,17.58-.33,1.53.73,3.44,1.33,5.16,1.44,4.14,3.27,8.27,4.4,12.38a38.76,38.76,0,0,1,1.16,9.11c.21,6.78,2.89,13.33,8.06,19.74a146.44,146.44,0,0,1,23.12,39.61,1.29,1.29,0,0,1,.11.47l51.38-11.9a44.59,44.59,0,0,1,.74-4.46c1.9-7.45,4.6-14.6,10.48-20.78a52.55,52.55,0,0,0,8.11-12c2.42-4.57,4.82-9.05,8.65-13.1,4.93-5.22,8.74-11.07,13.05-16.67a15.93,15.93,0,0,1,1.3-1.67C282.47,489,282.39,483.34,278,476.9Z"/><path class="cls-20" d="M366.07,474.52c-4.83-2-7.17-6-9.94-9.84-6.38.75-11.31,5.69-19.35.31l-.25.56a17.12,17.12,0,0,0,1.78,1.49c5.15,3.28,9.68,6.84,12.85,11.25,2.51,3.49,1.91,4.7-2.64,4.7,1.39,1.55,3.65,3.18,4.21,4.88.86,2.66-3.26,1.81-5.27,2.68,1.65,1.87,4.1,2.26,6.45,2.61,4.36.65,8.74,1.07,13.09,1.78a124.85,124.85,0,0,1,14.85,2.89c6.76,2,11.6,6,15.87,10.26a1.54,1.54,0,0,1,.33.68c0,.12-.07.25,0,.12-3.93-2.78-7.58-6.21-12.17-8.37s-10-3.26-15.08-4.25c-5.49-1.06-11.07-1.24-16.58-2.21-2.57-.46-5.07-1.89-7.59-2.9-.38-.15-.66-.51-1-.62-4.53-1.3-9.07-2.57-13.88-3.93-.56,4.52-3.31,8.23-9,10.41,1.74-1.6,3.84-3,5.14-4.85s1.88-4.06,2.76-6.09L318,480.43,310.43,485l-.62-.48,6.48-4.23-.54-.55-11.94,1.18-.24-.53c4-.69,8.05-1.4,12.12-2,.4-.06,1.07.44,1.63.66q12,4.85,24,9.63a8.12,8.12,0,0,0,2.62.39c-2.71-1.62-5.16-3.34-3.6-5.63.59-.87,2.1-1.34,3.5-2.17-.88-.55-2.36-1.5-3.9-2.41-6.51-3.83-13-7.73-19.65-11.44a12.81,12.81,0,0,0-6-1.66c-6.5.41-13,1-19.17,2-5,.83-6.38,4.21-3.37,7.75a127.09,127.09,0,0,0,11,11.07c1.2,1.09,3.48,1.63,5.88,2.69l-24.89-5.57c-1.5,3.87-3,7.67-4.32,11.17,8.6,2.92,17.63,5.84,26.51,9.05,6.26,2.26,12.83,4.36,18.37,7.47,14.12,7.92,29.28,13.25,45.39,16.87,2.19.49,4.36,1.14,6.53,1.74a6.55,6.55,0,0,1,1.14.68,14,14,0,0,1-2.1-.1c-18.22-4.18-35.84-9.46-51.93-18.62-5.66-3.22-12.62-5.12-19-7.56-3.32-1.27-6.69-2.41-10.06-3.57-5.29-1.82-10.59-3.61-16-5.44-1.8,2.46-3.31,4.66-5,6.77-3.53,4.44-7.27,8.77-10.65,13.26-1.81,2.42-3,5.12-4.59,7.65-3.33,5.37-6.11,11-10.22,15.94-5.23,6.26-7.2,13.47-9.14,20.73-.27,1-.54,2.08-.82,3.12l-.9-.22c.24-1.65.35-3.33.73-4.94,1.76-7.43,4.3-14.54,10-20.67a50.94,50.94,0,0,0,7.78-12c2.31-4.54,4.59-9,8.29-13,4.76-5.18,8.4-11,12.55-16.55a16.39,16.39,0,0,1,1.24-1.67c4.76-5,4.6-10.62.19-17-1.65-2.42-2.43-5.06-3.62-7.61-6.62-.24-7.14-.75-8.64-8.49l-.86-.45c-.87,1.22-2.12,2.32-2.55,3.67-1.27,4.07,1.1,8.3,2.68,12.49a5.42,5.42,0,0,1,.06,3.68q-2.44,6.72-5.34,13.27a5.28,5.28,0,0,1-2.55,2.56c-3.67,1.73-7.57,3.25-11.41,4.86l4,5.85-.47.23a13.61,13.61,0,0,1-2.2-2.14c-3.19-5.21-6.26-10.46-9.41-15.71a65.54,65.54,0,0,0-3.69-5.85c-1.93-2.58-5-4.14-9-5.07.76,5.25,3.55,10,8,14.59a19.89,19.89,0,0,1-8.16-10c-1.48-4-2.76-8.08-4.58-12.1-1.45-3.21-4.9-5.24-9.34-6.32-2.36-.58-3.29-.12-3.51,1.53a24,24,0,0,0,3.54,17,12.06,12.06,0,0,1,.66,1.42c-3.25-2.81-5.86-7.9-5.86-11.87,0-3.58.43-7.11.74-10.65s-.27-4.48-4.37-6.57-9.16-2.67-11.65-1.35a3.52,3.52,0,0,0-1.61,1.7c-1.46,3.54-3.18,7-4.08,10.7-2,8.21-7,15-13.29,21.21a82.68,82.68,0,0,0-8.63,10.7c-1,1.34-1,3.13-1.41,4.72l-1-.27c.63-2.23.85-4.65,2-6.66a46.82,46.82,0,0,1,5.61-7,3.36,3.36,0,0,0,.82-3.67,86.45,86.45,0,0,1-2.21-10c-.81-4.16-3.18-8.08-6.54-11.87a10.94,10.94,0,0,0-3.42-2.5,17.41,17.41,0,0,1,.85,1.82c2,6.06,2.86,6-5.88,6.71-.7.06-1.45,0-2.11,0-.16.15-.4.25-.38.36,1.23,6.13.36,11.84-.76,17.52-.3,1.53.76,3.43,1.38,5.15,1.47,4.14,3.32,8.26,4.48,12.37a39.32,39.32,0,0,1,1.26,9.09c.31,6.76,3,13.3,8.18,19.71a151,151,0,0,1,23.21,39.61,1.15,1.15,0,0,1-.31,1.37,16.06,16.06,0,0,1-1.55-2.2c-2.58-5.43-4.54-11-7.77-16.33a240.3,240.3,0,0,0-15.19-22.35c-6.25-8.15-7.94-16.22-8.71-24.52-.4-4.27-1.91-8.67-3-13a3.12,3.12,0,0,0-.73-1.6c-3.84-3.64-3.25-7.14-2.26-10.45,1.48-5,.88-10.24.32-15.57a38.26,38.26,0,0,1,.31-10c.5-3.13,2.35-2.94,6.21-.65,9.44,5.59,12.69,12.47,14.08,19.86a34.51,34.51,0,0,0,2.41,8.17c1.58-1.7,3.21-3.37,4.69-5.12a1.38,1.38,0,0,0-.07-1.48c-2.64-4-1.76-7.52.28-10.57,3.14-4.69,6.89-9.11,10.57-13.58,4.52-5.5,15-3.26,20.79,2.07,1.36,1.24.93,3.4,1.36,5.33,9.12,1.22,13.41,5.91,15.19,12.09.45,1.59,1.3,2.49,3.67,3.08a12.81,12.81,0,0,1,8.05,5.32c2.37,3.91,4.35,7.89,6.52,11.82.95,1.71,2,3.41,3,5.19a92.32,92.32,0,0,1,8.76-3.71c4.43-1.4,5-4.73,6.36-6.89-2.92-3.54-5.36-6.69-8.08-9.75-1.88-2.1-4.39-4-6.13-6.12a48.71,48.71,0,0,1-4.66-7.2c-.89-1.59.12-2.28,2.38-2.11a28,28,0,0,0,4,0,17.27,17.27,0,0,1,9.34,2.23c1.2.64,2.31,1.38,3.78,2.26,0-1.49-.07-2.76,0-4,.21-2.43,1.05-4.51,4.58-5.25.86-.19,1.24-1.16,1.79-1.8a2.13,2.13,0,0,1,3.63.31,43.41,43.41,0,0,1,3.2,6.2c2.6,5.55,5,11.11,7.78,16.61a6,6,0,0,0,3.28,2.28c5.17,1.22,10.39,2.16,16.16,3.32-2.72-2.73-5.18-5.12-7.51-7.57-5.89-6.18-5.73-8.31.9-12.12-3.56-4-2.58-7.78-1.9-11.59.1-.58.29-1.34.85-1.6,2.95-1.36,1.48-3.32.07-5.25-3.36-4.64-1.83-8.21,1.77-11.28a5.39,5.39,0,0,1,2.91-1c10.09-.57,19.82,1.92,29,6.45,2.36,1.16,3.88,3.38,5.93,5,4.78,3.79,9.69,7.48,14.43,11.27,2,1.62,3.78,3.41,5.88,5.32,1.84,0,2.8-.5,1.71-2.37-3.29-5.63-6.08-11.34-11.3-16.59a106.77,106.77,0,0,1-9.88-12.06A12.08,12.08,0,0,1,332,420.74a23.46,23.46,0,0,0,.85-2.39c.64-2.38,2.23-2.91,4.88-1a39.15,39.15,0,0,1,7.29,7.19c4.42,5.55,8.3,11.16,15.82,15.24a44.64,44.64,0,0,1,9.29,7.26c4.39,4.2,8,8.79,12.58,12.83,3.82,3.36,8.58,6.17,12.91,9.21,2.68,1.89,5.67,3.6,8,5.69,3.56,3.25,7.39,6.57,9.78,10.18,4.36,6.6,10.05,12.57,16.06,18.43,3.81,3.71,7.85,7.3,11.77,10.94a1.07,1.07,0,0,1,.37,1.26c-1.13-.8-2.37-1.54-3.39-2.41-10.25-8.64-19.53-17.77-25.95-28.09-3.2-5.13-8.57-9-14.08-12.91-7.41-5.23-15.73-9.86-21.62-16.22-1.82-2-3.8-3.88-5.46-5.91a42.1,42.1,0,0,0-12.65-10.56c-7.45-4.07-10.75-10-15.15-15.54a17.92,17.92,0,0,0-3.63-3.76c-2.81-2-5.54-1.6-6.39.75-1.82,5-.41,10,4.08,15,8,9,15.48,18,20.17,27.86C359.34,467.68,363.36,471.23,366.07,474.52Zm-69.34-22.45,6.61-.53c-.57-.49-.89-.75-.77-.66,2.69.12,5.55.42,8.29.33a19.21,19.21,0,0,1,11.67,3c4.82,3.21,9.38,6.61,14.25,9.75a20.76,20.76,0,0,0,6,2.33c1.29.32,2.74-.06,4.83-.15-7.41-4.16-7.61-4.64-4.42-8.92l-5.86-4.74c-2.28-1.84-4.5-3.72-6.86-5.51s-4.5-3.89-7.22-5a64.4,64.4,0,0,0-21.3-5.09c-6.33-.3-10.94,4-8.9,8.73A65.83,65.83,0,0,0,296.73,452.07Zm50.52,23.2c-.89-.78-1.3-1.17-1.76-1.53-8.07-6.35-16.05-12.81-24.42-19a14.24,14.24,0,0,0-7.26-2.27,146.26,146.26,0,0,0-16.18.87c-1.56.15-3.77,1-3.89,1.88a33.2,33.2,0,0,0,.22,9.16c.23,1.54,1.84,2.18,4.14,1.8,4.24-.69,8.63-1.11,13-1.58s8.38.75,12.33,3.33c5.5,3.6,11.47,6.78,17.36,10.21C342,474.86,343,474.41,347.25,475.27Zm-87.48,12.41,1.05-.19c1.15-4.83,4.65-9.12,1.06-15-2.15-3.52-8.75-7.53-13.6-7.35-3.49.12-4.67,1.5-3,4,3.35,4.84,6.84,9.63,10.41,14.38A46.56,46.56,0,0,0,259.77,487.68ZM178,478.83c2.58-7.12,5-13.72,7.39-20.35l-.91-.37c-3,4.62-6.34,9.14-9,13.89C174.48,473.7,174.24,476,178,478.83Z"/><path class="cls-20" d="M369.74,476.14c-4.89-2-7.23-5.94-10-9.81-6.52.78-11.63,5.76-19.76.41l-.26.55a16.18,16.18,0,0,0,1.8,1.49c5.21,3.27,9.77,6.81,13,11.22,2.51,3.48,1.88,4.7-2.77,4.72,1.4,1.55,3.68,3.17,4.22,4.87.84,2.66-3.35,1.83-5.41,2.71,1.65,1.87,4.15,2.25,6.54,2.59,4.45.63,8.91,1,13.34,1.72a127.1,127.1,0,0,1,15.12,2.82c6.87,1.94,11.75,5.94,16.05,10.21a1.43,1.43,0,0,1,.32.67c0,.13-.07.26,0,.13-4-2.77-7.64-6.19-12.31-8.33s-10.12-3.22-15.33-4.19c-5.58-1-11.28-1.18-16.89-2.13-2.62-.45-5.14-1.87-7.7-2.87-.38-.15-.67-.51-1.05-.62-4.61-1.28-9.23-2.53-14.11-3.86-.64,4.53-3.51,8.26-9.31,10.47,1.8-1.61,4-3.06,5.31-4.88s2-4.08,2.91-6.13l-12.74-5.6-7.84,4.59-.63-.48,6.69-4.27-.55-.55-12.21,1.25-.23-.54c4.13-.7,8.24-1.43,12.4-2.08.4-.06,1.09.44,1.65.66q12.18,4.78,24.35,9.53a8.4,8.4,0,0,0,2.67.37c-2.75-1.6-5.22-3.31-3.6-5.62.62-.88,2.17-1.35,3.61-2.19-.89-.54-2.39-1.5-3.95-2.4-6.59-3.8-13.13-7.69-19.89-11.36a13,13,0,0,0-6.14-1.64c-6.63.44-13.26,1-19.6,2.09-5.07.85-6.56,4.25-3.55,7.78a123.67,123.67,0,0,0,11,11c1.21,1.09,3.53,1.62,6,2.68l-25.32-5.47-4.58,11.22c8.73,2.89,17.91,5.77,26.92,8.94,6.36,2.23,13,4.31,18.64,7.39,14.3,7.88,29.69,13.14,46.08,16.69,2.24.49,4.44,1.12,6.64,1.71a6.74,6.74,0,0,1,1.16.68,14.87,14.87,0,0,1-2.14-.09c-18.54-4.1-36.45-9.31-52.73-18.41-5.73-3.19-12.81-5.07-19.32-7.48-3.36-1.25-6.79-2.39-10.21-3.53-5.37-1.8-10.76-3.56-16.25-5.37-1.88,2.48-3.45,4.68-5.18,6.8-3.67,4.48-7.56,8.83-11.07,13.35-1.89,2.43-3.16,5.15-4.8,7.69-3.48,5.4-6.39,11.06-10.66,16-5.43,6.31-7.54,13.54-9.63,20.82-.3,1-.59,2.09-.88,3.13l-.92-.22c.26-1.65.4-3.33.81-4.95,1.91-7.45,4.61-14.59,10.49-20.76a52.82,52.82,0,0,0,8.11-12c2.42-4.56,4.82-9,8.65-13.08,4.94-5.22,8.74-11.06,13.05-16.66a18.32,18.32,0,0,1,1.3-1.67c4.93-5,4.85-10.67.45-17.1-1.66-2.41-2.41-5.05-3.59-7.6-6.75-.21-7.28-.72-8.69-8.47l-.87-.44c-.91,1.22-2.2,2.33-2.65,3.69-1.37,4.08,1,8.31,2.55,12.5a5.38,5.38,0,0,1,0,3.69q-2.61,6.75-5.64,13.33a5.58,5.58,0,0,1-2.65,2.58c-3.77,1.75-7.77,3.29-11.71,4.92l4,5.85-.49.23a13.37,13.37,0,0,1-2.22-2.14c-3.17-5.21-6.23-10.45-9.36-15.69a63.87,63.87,0,0,0-3.68-5.84c-1.93-2.59-5.07-4.13-9.09-5,.7,5.25,3.47,10,7.95,14.57a19.34,19.34,0,0,1-8.18-10c-1.46-4-2.7-8.09-4.5-12.1-1.43-3.22-4.92-5.23-9.44-6.3-2.4-.56-3.35-.1-3.6,1.56A23.42,23.42,0,0,0,211,485.17a11.52,11.52,0,0,1,.65,1.42c-3.27-2.79-5.86-7.88-5.8-11.87.06-3.58.54-7.12.91-10.67s-.21-4.49-4.37-6.56c-4-2-9.3-2.63-11.86-1.3a3.67,3.67,0,0,0-1.67,1.71c-1.53,3.56-3.34,7.05-4.32,10.75-2.16,8.24-7.38,15-13.86,21.32a86.73,86.73,0,0,0-9,10.76c-1,1.35-1,3.15-1.51,4.74l-1-.26c.68-2.24.94-4.66,2.15-6.69a48.07,48.07,0,0,1,5.83-7,3.38,3.38,0,0,0,.89-3.68,83.8,83.8,0,0,1-2.11-10c-.76-4.15-3.13-8.08-6.49-11.85A11,11,0,0,0,156,463.5a18.45,18.45,0,0,1,.84,1.82c2,6.06,2.83,6-6.09,6.76-.72.05-1.48,0-2.16,0-.17.15-.41.25-.39.37,1.17,6.14.19,11.86-1,17.55-.33,1.54.72,3.44,1.32,5.16,1.44,4.14,3.27,8.26,4.4,12.37a39.26,39.26,0,0,1,1.15,9.1c.21,6.77,2.88,13.32,8,19.72A146.57,146.57,0,0,1,185.17,576a1.16,1.16,0,0,1-.33,1.38,15.33,15.33,0,0,1-1.56-2.2c-2.54-5.43-4.46-11-7.68-16.32a233.28,233.28,0,0,0-15.17-22.32c-6.26-8.15-7.86-16.22-8.53-24.53-.34-4.28-1.82-8.68-2.82-13a3,3,0,0,0-.73-1.59c-3.86-3.63-3.21-7.14-2.15-10.47,1.59-5,1.05-10.26.56-15.6a37.64,37.64,0,0,1,.46-10c.56-3.13,2.44-3,6.34-.68,9.55,5.56,12.77,12.43,14.08,19.84a33.62,33.62,0,0,0,2.34,8.17c1.63-1.71,3.32-3.39,4.86-5.15a1.37,1.37,0,0,0-.05-1.49c-2.64-4-1.68-7.52.44-10.59,3.27-4.71,7.17-9.17,11-13.66,4.69-5.54,15.32-3.35,21.19,2,1.37,1.24.89,3.41,1.31,5.33,9.29,1.18,13.59,5.86,15.32,12,.44,1.58,1.29,2.48,3.7,3.06,3.63.87,6.59,2.75,8.13,5.3,2.36,3.9,4.33,7.88,6.49,11.8.94,1.72,2,3.41,3,5.19,3.22-1.37,5.91-2.8,9-3.76,4.55-1.42,5.14-4.76,6.6-6.94-2.93-3.53-5.38-6.67-8.11-9.72-1.88-2.1-4.42-4-6.16-6.11a47.76,47.76,0,0,1-4.65-7.19c-.88-1.59.16-2.29,2.46-2.13a29.13,29.13,0,0,0,4.08-.06,17.71,17.71,0,0,1,9.5,2.19c1.21.64,2.34,1.37,3.82,2.24,0-1.48,0-2.76.1-4,.26-2.44,1.15-4.53,4.76-5.29.88-.19,1.28-1.17,1.85-1.81a2.19,2.19,0,0,1,3.71.29,42.12,42.12,0,0,1,3.16,6.2c2.57,5.55,5,11.11,7.7,16.61a5.87,5.87,0,0,0,3.31,2.27c5.26,1.19,10.57,2.11,16.45,3.25-2.74-2.73-5.22-5.11-7.56-7.55-5.91-6.17-5.72-8.31,1.1-12.16-3.57-4-2.52-7.79-1.77-11.6.12-.59.32-1.35.9-1.61,3-1.38,1.55-3.34.15-5.27-3.37-4.63-1.75-8.22,2-11.31a5.69,5.69,0,0,1,3-1c10.31-.62,20.19,1.83,29.5,6.32,2.39,1.15,3.91,3.37,6,5,4.81,3.78,9.77,7.45,14.56,11.23,2,1.61,3.81,3.4,5.92,5.3,1.88,0,2.86-.52,1.78-2.38-3.28-5.63-6-11.34-11.29-16.58a105.81,105.81,0,0,1-9.91-12,11.84,11.84,0,0,1-1.45-12.36c.32-.79.66-1.58.9-2.4.68-2.39,2.32-2.93,5-1a38.77,38.77,0,0,1,7.34,7.17c4.42,5.54,8.3,11.15,15.92,15.2a44,44,0,0,1,9.38,7.24c4.41,4.18,8,8.77,12.65,12.79,3.85,3.35,8.67,6.14,13,9.17,2.7,1.88,5.73,3.58,8,5.66,3.6,3.25,7.45,6.56,9.84,10.16C422.26,493,428,499,434,504.8c3.83,3.7,7.9,7.28,11.84,10.91a1,1,0,0,1,.37,1.26c-1.15-.79-2.4-1.53-3.43-2.4-10.34-8.61-19.67-17.72-26.08-28-3.19-5.13-8.62-9-14.18-12.87-7.49-5.21-15.91-9.81-21.83-16.16-1.83-2-3.82-3.87-5.49-5.89a41.5,41.5,0,0,0-12.76-10.53c-7.54-4-10.82-10-15.23-15.5a17.31,17.31,0,0,0-3.66-3.75c-2.83-1.94-5.62-1.57-6.52.78-1.93,5.05-.58,10,3.94,15,8,8.95,15.53,18,20.17,27.83C363,469.32,367,472.85,369.74,476.14ZM299.3,454l6.75-.57-.78-.65c2.74.1,5.66.39,8.46.28A19.63,19.63,0,0,1,325.6,456c4.87,3.19,9.48,6.58,14.4,9.7a20.89,20.89,0,0,0,6.08,2.3c1.31.32,2.79-.06,4.93-.17-7.5-4.13-7.7-4.61-4.38-8.92l-5.91-4.72c-2.3-1.83-4.54-3.71-6.92-5.49s-4.53-3.87-7.3-5a66,66,0,0,0-21.66-5c-6.46-.26-11.23,4.09-9.22,8.79A65.82,65.82,0,0,0,299.3,454Zm51.22,23c-.9-.78-1.31-1.17-1.77-1.53-8.15-6.33-16.2-12.76-24.65-19a14.64,14.64,0,0,0-7.38-2.23,155.3,155.3,0,0,0-16.53,1c-1.59.16-3.86,1-4,1.91a32.06,32.06,0,0,0,.09,9.17c.21,1.55,1.84,2.19,4.19,1.8,4.34-.72,8.83-1.17,13.29-1.66a18.49,18.49,0,0,1,12.54,3.28c5.57,3.58,11.61,6.74,17.58,10.15C345.19,476.6,346.2,476.14,350.52,477Zm-89.47,12.87,1.07-.2c1.25-4.84,4.88-9.16,1.3-15.05-2.14-3.52-8.82-7.5-13.77-7.3-3.56.14-4.79,1.53-3.08,4,3.34,4.83,6.84,9.62,10.42,14.36A45.41,45.41,0,0,0,261.05,489.86ZM177.7,481.4c2.75-7.15,5.29-13.78,7.84-20.43l-.92-.37c-3.18,4.65-6.61,9.19-9.4,14C174.22,476.28,173.94,478.59,177.7,481.4Z"/><path class="cls-20" d="M368.47,476.35c-4.89-2-7.23-5.94-10-9.81-6.52.78-11.63,5.76-19.76.41l-.26.55a16.18,16.18,0,0,0,1.8,1.49c5.21,3.27,9.78,6.81,12.95,11.22,2.51,3.48,1.88,4.69-2.77,4.72,1.4,1.55,3.69,3.17,4.23,4.87.84,2.66-3.35,1.83-5.41,2.71,1.65,1.87,4.15,2.25,6.54,2.59,4.44.63,8.9,1,13.34,1.72a128.56,128.56,0,0,1,15.11,2.81c6.87,1.95,11.76,5.95,16.06,10.21a1.42,1.42,0,0,1,.32.68c0,.12-.07.25,0,.12-4-2.76-7.64-6.18-12.31-8.32s-10.12-3.22-15.33-4.19c-5.58-1-11.28-1.19-16.89-2.14-2.62-.44-5.14-1.86-7.7-2.86-.38-.15-.67-.52-1.05-.62-4.61-1.28-9.23-2.53-14.11-3.87-.64,4.53-3.51,8.27-9.31,10.48,1.8-1.62,4-3.07,5.31-4.89s2-4.07,2.91-6.12l-12.75-5.6-7.83,4.59-.63-.48,6.68-4.27-.54-.55-12.21,1.25-.23-.54c4.12-.7,8.24-1.43,12.4-2.08.4-.06,1.08.44,1.65.66q12.18,4.79,24.35,9.53a8.4,8.4,0,0,0,2.67.37c-2.75-1.61-5.22-3.32-3.6-5.62.62-.88,2.16-1.35,3.61-2.19-.9-.55-2.39-1.5-3.95-2.4-6.59-3.81-13.14-7.69-19.89-11.36a13,13,0,0,0-6.14-1.64c-6.64.44-13.26,1-19.6,2.09-5.07.85-6.57,4.25-3.55,7.78a125,125,0,0,0,11,11c1.21,1.09,3.53,1.62,6,2.68l-25.32-5.47c-1.59,3.89-3.14,7.7-4.57,11.22,8.73,2.88,17.9,5.77,26.92,8.93,6.35,2.24,13,4.31,18.64,7.4,14.3,7.87,29.69,13.14,46.08,16.69,2.24.48,4.44,1.12,6.64,1.7a6.74,6.74,0,0,1,1.16.68,13.53,13.53,0,0,1-2.14-.09c-18.54-4.09-36.45-9.3-52.74-18.4-5.72-3.2-12.8-5.07-19.31-7.49-3.36-1.25-6.79-2.38-10.21-3.52-5.37-1.8-10.76-3.56-16.25-5.38-1.88,2.48-3.45,4.69-5.18,6.81-3.67,4.47-7.55,8.83-11.06,13.35-1.89,2.43-3.16,5.14-4.8,7.69-3.48,5.39-6.39,11.06-10.66,16-5.43,6.31-7.54,13.54-9.62,20.82-.3,1-.59,2.09-.88,3.13l-.92-.22c.27-1.65.4-3.33.81-5,1.91-7.45,4.61-14.58,10.48-20.75a52.55,52.55,0,0,0,8.11-12c2.42-4.56,4.81-9,8.64-13.08,4.94-5.21,8.74-11,13.05-16.65a17.28,17.28,0,0,1,1.29-1.67c4.93-5,4.85-10.67.45-17.1-1.66-2.41-2.42-5.05-3.59-7.6-6.75-.21-7.28-.72-8.7-8.47l-.86-.44c-.91,1.22-2.2,2.34-2.66,3.69-1.36,4.08,1,8.31,2.56,12.5a5.32,5.32,0,0,1,0,3.69q-2.6,6.75-5.64,13.32a5.47,5.47,0,0,1-2.64,2.58c-3.77,1.76-7.77,3.3-11.71,4.93l4,5.84-.49.24a13.29,13.29,0,0,1-2.21-2.14c-3.18-5.21-6.24-10.45-9.37-15.69a65.41,65.41,0,0,0-3.68-5.85c-1.94-2.58-5.07-4.12-9.1-5,.7,5.25,3.48,10,8,14.57a19.38,19.38,0,0,1-8.18-10c-1.46-4-2.71-8.09-4.5-12.1-1.44-3.22-4.93-5.23-9.45-6.3-2.4-.56-3.35-.1-3.6,1.56a23.48,23.48,0,0,0,3.37,17.05,10.84,10.84,0,0,1,.65,1.42c-3.27-2.79-5.86-7.88-5.8-11.87.05-3.58.54-7.12.9-10.67s-.21-4.48-4.37-6.56c-4-2-9.3-2.63-11.86-1.3a3.77,3.77,0,0,0-1.67,1.71c-1.53,3.56-3.34,7.05-4.31,10.75-2.16,8.24-7.38,15-13.86,21.32a85.91,85.91,0,0,0-9,10.76c-1,1.35-1,3.15-1.51,4.73l-1-.26c.68-2.24.93-4.66,2.15-6.68a48.64,48.64,0,0,1,5.82-7,3.37,3.37,0,0,0,.9-3.68,81.92,81.92,0,0,1-2.12-10c-.76-4.15-3.13-8.08-6.5-11.85a10.85,10.85,0,0,0-3.45-2.49,18.45,18.45,0,0,1,.84,1.82c2,6.06,2.83,6-6.1,6.76-.71,0-1.47,0-2.15,0-.17.15-.41.25-.39.37,1.17,6.13.2,11.86-1,17.55-.32,1.53.73,3.44,1.33,5.16,1.44,4.13,3.27,8.26,4.4,12.37a38.08,38.08,0,0,1,1.15,9.1c.22,6.77,2.89,13.31,8.06,19.71A146.62,146.62,0,0,1,184,576.15a1.13,1.13,0,0,1-.33,1.37,15.25,15.25,0,0,1-1.56-2.19c-2.54-5.43-4.47-11-7.68-16.33a236.44,236.44,0,0,0-15.18-22.31c-6.26-8.14-7.87-16.21-8.54-24.53-.34-4.27-1.82-8.68-2.83-13a3,3,0,0,0-.72-1.6c-3.86-3.63-3.21-7.13-2.15-10.46,1.58-5,1-10.26.55-15.6a38.06,38.06,0,0,1,.45-10c.56-3.13,2.44-2.95,6.35-.68,9.55,5.56,12.77,12.43,14.08,19.84a33.75,33.75,0,0,0,2.34,8.17c1.63-1.71,3.32-3.39,4.86-5.15a1.37,1.37,0,0,0-.05-1.49c-2.64-4-1.69-7.52.44-10.59,3.27-4.71,7.16-9.17,11-13.66,4.69-5.53,15.32-3.34,21.19,2,1.37,1.24.89,3.41,1.31,5.33,9.29,1.18,13.59,5.86,15.32,12.05.44,1.58,1.29,2.48,3.7,3.06,3.63.87,6.6,2.75,8.14,5.29,2.36,3.91,4.33,7.88,6.49,11.81.94,1.71,2,3.41,3,5.19,3.22-1.37,5.91-2.8,9-3.76,4.55-1.42,5.14-4.76,6.59-6.94-2.92-3.53-5.38-6.67-8.11-9.72-1.88-2.1-4.41-4-6.16-6.11a47.76,47.76,0,0,1-4.65-7.19c-.88-1.59.16-2.29,2.46-2.13a29.16,29.16,0,0,0,4.08-.06,17.71,17.71,0,0,1,9.5,2.19c1.21.64,2.34,1.37,3.82,2.24,0-1.48,0-2.76.1-4,.26-2.44,1.14-4.53,4.75-5.29.89-.19,1.29-1.17,1.86-1.81a2.18,2.18,0,0,1,3.7.29,42.19,42.19,0,0,1,3.17,6.2c2.57,5.55,5,11.11,7.7,16.6a5.89,5.89,0,0,0,3.31,2.28c5.26,1.19,10.57,2.11,16.45,3.24-2.74-2.72-5.22-5.1-7.56-7.54-5.92-6.17-5.72-8.31,1.1-12.16-3.57-4-2.53-7.79-1.77-11.6.11-.59.31-1.35.89-1.61,3-1.38,1.55-3.33.15-5.26-3.37-4.64-1.75-8.22,2-11.31a5.54,5.54,0,0,1,3-1c10.31-.63,20.2,1.82,29.51,6.31,2.39,1.16,3.91,3.37,6,5,4.82,3.78,9.78,7.46,14.56,11.23,2,1.62,3.82,3.4,5.93,5.3,1.87,0,2.86-.52,1.77-2.38-3.27-5.63-6-11.34-11.29-16.57A105.91,105.91,0,0,1,336,435a11.84,11.84,0,0,1-1.46-12.35,24.18,24.18,0,0,0,.9-2.41c.69-2.38,2.32-2.92,5-1a38.53,38.53,0,0,1,7.35,7.17c4.42,5.54,8.3,11.15,15.92,15.19a44,44,0,0,1,9.38,7.24c4.42,4.18,8,8.77,12.66,12.79,3.84,3.35,8.67,6.14,13,9.17,2.71,1.88,5.74,3.58,8,5.66,3.6,3.25,7.45,6.56,9.84,10.16,4.36,6.59,10.08,12.55,16.13,18.39,3.84,3.7,7.9,7.28,11.85,10.91a1.05,1.05,0,0,1,.37,1.27c-1.15-.8-2.4-1.54-3.43-2.4-10.34-8.62-19.68-17.72-26.09-28-3.19-5.13-8.62-9-14.19-12.87-7.48-5.21-15.9-9.81-21.83-16.15-1.83-2-3.82-3.88-5.48-5.9a41.55,41.55,0,0,0-12.77-10.53c-7.54-4-10.82-10-15.24-15.5a17.48,17.48,0,0,0-3.65-3.75c-2.83-1.93-5.62-1.57-6.52.79-1.93,5-.58,10,3.94,15,8,8.94,15.54,17.95,20.18,27.82C361.71,469.53,365.76,473.06,368.47,476.35ZM298,454.2l6.75-.57L304,453c2.74.1,5.66.39,8.46.28a19.7,19.7,0,0,1,11.87,2.94c4.87,3.19,9.48,6.59,14.4,9.7a21.19,21.19,0,0,0,6.08,2.31c1.31.31,2.79-.07,4.93-.18-7.5-4.13-7.7-4.6-4.38-8.92l-5.92-4.71c-2.29-1.84-4.53-3.71-6.92-5.49s-4.53-3.88-7.29-5a66.11,66.11,0,0,0-21.67-5c-6.46-.26-11.23,4.1-9.21,8.8A63.72,63.72,0,0,0,298,454.2Zm51.22,23c-.89-.78-1.3-1.17-1.77-1.53-8.15-6.33-16.2-12.76-24.65-18.95a14.55,14.55,0,0,0-7.38-2.24,155.3,155.3,0,0,0-16.53.95c-1.59.16-3.86,1-4,1.91a32.42,32.42,0,0,0,.09,9.17c.21,1.55,1.84,2.19,4.2,1.8,4.33-.72,8.83-1.17,13.29-1.66a18.51,18.51,0,0,1,12.54,3.28c5.56,3.58,11.61,6.74,17.57,10.15C343.92,476.81,344.94,476.35,349.25,477.2Zm-89.46,12.87,1.08-.2c1.24-4.84,4.87-9.16,1.29-15.05-2.14-3.52-8.82-7.5-13.77-7.3-3.56.14-4.79,1.53-3.08,4,3.35,4.83,6.85,9.62,10.42,14.36A48.14,48.14,0,0,0,259.79,490.07Zm-83.34-8.47,7.83-20.42-.92-.37c-3.18,4.65-6.6,9.19-9.39,14C173,476.49,172.69,478.8,176.45,481.6Z"/><path class="cls-14" d="M342.62,462.47s.72-4.66,2.37-4.55,13.57,10.19,13.57,10.19l-1.8,2.43A31.86,31.86,0,0,1,342.62,462.47Z"/><path class="cls-14" d="M343.33,487c-3.26-3.12.72-4.6,2.36-4.49s13.48,10.06,13.48,10.06l-1.11,1.5-1.16.08s-.38.49-1.7-.09C352.1,492.7,346.46,490,343.33,487Z"/><path class="cls-14" d="M343.47,480c-3.27-3.14.72-4.62,2.36-4.51s13.51,10.1,13.51,10.1l-1.12,1.5-1,.85s-.52-.27-1.84-.86C352.25,485.73,346.6,483,343.47,480Z"/><path class="cls-14" d="M249.29,479.9l-10-18.55-2.48-.4s7,15.25,10.39,17.44S249.29,479.9,249.29,479.9Z"/><path class="cls-14" d="M350.67,430.1s-9.3-11.91-12.91-12.71-4.05-1.46-4.05-1.46l4.74.4s11,8.05,13.16,12.85C352.17,430.43,350.67,430.1,350.67,430.1Z"/><path class="cls-13" d="M274.46,470.8s-4.92.4-6-1.41c-4.59-7.47-1.32-16.16-1.32-16.16s10.58,13.65,7.42,17.5"/><path class="cls-13" d="M146.76,471.25s7,.05,8.26-2-3-15.61-5.56-16.52S141.87,465.39,146.76,471.25Z"/><polygon class="cls-13" points="267.78 368 261.3 410.9 289.91 390.26 271.97 420.62 298.38 397.26 286.55 421.44 338.52 379.98 297.66 409.28 306.53 387.77 286.17 403.06 298.21 383.3 269.78 400.6 267.78 368"/><path class="cls-14" d="M186.79,400.66c-.55-.9-1.11-1.8-1.66-2.71l-15.47-.08L164.42,385l-4-.24c.26,4.25,2,9.08.34,12.56-1.58,3.32-6.71,5.23-11.24,8.44l-9.08-13-5.53-.91c12.1,13,1.64,19.28-4.77,26.75l3,1.3,10-5,3.07,1.36-4,13.3c6.48,5.2,11.74,9.41,19.18,15.39,1.29-9.38-15.19-23.43,8.32-22.93l10.81,17.4,5.06-.64c-2-6-4.08-12-6.11-18l11.87-4.16-1.44-2-15.19-1.26c-.7-3.08-1.36-6-1.81-8ZM154.3,419.05c-7-9.87,2.46-10,9.65-11.92C171.67,417.37,161.85,417.34,154.3,419.05Z"/><path class="cls-9" d="M164,407.13c7.72,10.24-2.1,10.21-9.65,11.92C147.28,409.18,156.76,409,164,407.13Z"/><path class="cls-13" d="M240.67,447.3c.86-5.86-4.56-12.15-10.54-14.06-6.49-2.06-13.82,0-16.06,4.46-2.78,5.54,2.34,12.82,12.46,18.72-2-.54-4.29-.78-6-1.69-7.13-3.79-10.6-8.86-10.74-14.54s4.59-8.34,11.22-9.47c9.92-1.69,23.11,6.32,23.6,14.16.2,3.21-1.83,4.18-6.33,4.49-2.73,1.36-5.85,4.33-8.11,3.72-3.71-1-7.5-4-10.12-6.72s-1.24-5.21,1.58-6.93c3.72-2.27,7.23-1.7,11.59,1.86C235.32,443,237.48,444.74,240.67,447.3Z"/><path class="cls-7" d="M232.41,445.27c1.35,2,.93,4-.95,4.4s-4.49-.79-5.84-2.76-.94-4,.94-4.4S231.06,443.29,232.41,445.27Z"/><path class="cls-21" d="M473.44,265.48c-9.47,34.42-40.35,43-58.32,7.86-14.94-29.22-15.74-78.43-8.49-109.52,1.74-7.46,5.36-23,13.12-30.06,17.78-16.18,49.55,2.08,57.86,52.79C479.13,195.82,479.52,243.36,473.44,265.48Z"/><path class="cls-21" d="M479.44,215.13c.68,44.83-20.92,94.49-42.48,85.21C419.2,292.7,408,247.77,406.9,209.63c-.27-9.07-.84-27.91,3.46-44.36,9.79-37.49,37.21-62.28,54.49-27.76C468,143.87,479,186.66,479.44,215.13Z"/><path class="cls-13" d="M417.28,147.64c12.8-29.11,42.05-27.2,53.64,14.81,9.93,36,2.36,85-9.71,110.84-2.82,6-8.61,18.39-16.71,20.32-17.77,4.25-41-28.72-41-76.65C403.49,208.16,409.38,165.61,417.28,147.64Z"/><path class="cls-9" d="M477.26,290.53l-5.15-7.36c-4.05-5.79-5.31-18.09-2.82-27.41l3.18-11.86c2.53-9.45,8-12.53,12.12-6.78l5.26,7.31c4.19,5.82,5.48,18.41,2.86,27.89l-3.29,11.91C486.83,293.59,481.36,296.39,477.26,290.53Z"/><path class="cls-9" d="M420.35,308.6l-4.74-7.08c-3.72-5.57-4.94-17.3-2.71-26.14l2.83-11.24c2.25-8.95,7.2-11.8,11-6.27l4.84,7c3.84,5.6,5.08,17.59,2.75,26.57l-2.93,11.29C429.08,311.64,424.11,314.23,420.35,308.6Z"/><path class="cls-14" d="M492,346.87Q485.18,371,478.5,394.62c-1.91,6.71-1.95,6.7-5,2.19-2.53-3.7-5-7.69-7.52-11.18-2-2.72-2.32-5.34-1-9.73q4.09-13.83,7.87-28.38c3.21-12.34,2-26.77-2.83-34.7-5.38-8.93-12.22-5.95-15.89,7.06q-4,14-7.58,28.33c-1.11,4.39-2.19,5.21-4.09,2.07-2.53-4.2-5.17-8-7.81-11.76-1.73-2.42-2.17-5-1-8.94s2.16-8.13,3.23-12.22c7.29-27.71,14.78-55.8,22.18-84.7,1.58-6.18,3.4-8.41,6.42-8.85,8.55-1.22,17.21-3.1,26-5.23,2.6-.63,3.85,1.15,4.79,6.55q5.19,29.67,10.74,59.1a25.23,25.23,0,0,1-.73,12.67C501.35,313.65,496.68,330.38,492,346.87Zm-15-63.32c4.56,6.37,10.23,3.15,13-7.49,2.67-10.13,1.27-23.29-3.13-29.34s-10.48-2.39-13.08,7.86C471.29,264.68,472.69,277.49,477,283.55Z"/><path class="cls-7" d="M416.37,311.1c-3.64-5.47-7.24-11-10.89-16.27-1.57-2.28-2.18-4.36-1.07-8.64,3.86-14.93,7.64-30.18,11.43-45.59.85-3.44,1.72-4.16,3.17-2q11.57,16.92,23.43,34c1.49,2.15,1.63,4.45.72,7.86q-6.12,23.05-12,45.88c-.94,3.67-1.89,4.33-3.47,1.87-3.76-5.85-7.57-11.43-11.33-17.07Zm3.35-19.8c2-7.74,1.95-7.88-1.49-12.9-3.2-4.65-3.2-4.65-5.16,3-2,8-2,8,1.3,12.91S417.69,299.27,419.72,291.3Zm9.09,14.33c2.18-8.3,2.18-8.3-1-13.08-3.49-5.22-3.6-5.18-5.52,2.21-2.12,8.14-2.12,8.14,1.08,13C426.86,313,426.86,313,428.81,305.63Zm5.47-21.15c2.36-8.87,2.36-8.87-.71-13.52-3.63-5.5-3.75-5.46-5.66,1.81-2.22,8.44-2.22,8.44,1,13.24C432.46,291.32,432.46,291.32,434.28,284.48Zm-9-15c1.93-7.59,1.92-7.73-1-12-3.79-5.58-3.79-5.58-5.78,2.32s-2,8,1.37,13S423.22,277.63,425.29,269.47Z"/><path class="cls-7" d="M493.59,427.06c-4-6-8-12.15-12-17.95-1.82-2.63-2.2-5.05-1-9.17q6.53-22.33,12.93-45.47c1.19-4.27,2.37-4.55,4.21-1.84q12.43,18.3,25.22,36.67c1.78,2.57,2.11,5,.93,8.85q-7.07,23.33-13.81,46.46c-1.13,3.87-2.27,3.89-3.95,1.29C502,439.48,497.75,433.29,493.59,427.06Zm10.35-41.81c2.34-8,2.32-8.31-1.43-13.79-3.65-5.33-3.65-5.33-5.86,2.27-2.44,8.38-2.44,8.38,1.13,13.67C501.64,393.12,501.64,393.12,503.94,385.25Zm10.31,15.05c2.39-8.08,2.37-8.29-1.45-13.84-3.68-5.36-3.69-5.35-6.13,3.06-2.22,7.64-2.22,7.64,1.36,13C511.89,408.28,511.89,408.28,514.25,400.3Zm-23.93-4.47C488,404,488,404,491.4,409.27c3.84,5.83,3.84,5.83,6.05-1.69,2.43-8.24,2.41-8.45-1.09-13.71C492.58,388.2,492.52,388.22,490.32,395.83Zm17.51,26.32c2.29-7.83,2.27-8-1.62-13.72-3.56-5.21-3.56-5.21-5.83,2.62-2.35,8.08-2.35,8.08,1.33,13.58S505.46,430.23,507.83,422.15Z"/><path class="cls-20" d="M450.37,381.47,401.19,307c-.89-1.35-1.78-2.72-2.65-4.13-1-1.67-1.31-3.75-.7-6.44s1.5-3.09,2.59-1.56c.61.85,1.2,1.75,1.8,2.65q49.88,75.11,104.36,157.28c1.39,2.09,4.1,3.63,2.41,9.24-1.79,6-3.56.66-5.05-1.58Q476.52,421.17,450.37,381.47Z"/><path class="cls-20" d="M522.76,196.31c-3.53,12.63-3.83,12.83-9.18,4.1-2.21-3.6-4.27-7.61-6.42-11.33-1.47-2.55-2.62-2-3.75,1.75a30.72,30.72,0,0,0-1.1,16.23c4.73,24.35,9.18,49.06,13.73,73.71.32,1.7.64,3.42.81,5.2.26,2.7-.21,4.94-1.34,6.1s-2.27.2-2.91-2a90,90,0,0,1-2.06-8.93Q505,251.07,499.6,221c-2.28-12.56-2.42-12.42-8.36-11.1-10.11,2.24-20.06,4-29.86,5.9a11.83,11.83,0,0,0-1.54.27c-1.37.47-2.34-1-2.53-4-.21-3.42.63-5.72,2.11-6.34a22.38,22.38,0,0,1,4.21-1.35c10.37-2.11,20.91-4.42,31.64-6.17,3.08-.51,5-3.05,6.47-9.32,1.82-7.76,4.1-15,6.08-22.7,1.21-4.66,2.68-5,4.55-2.84,2.1,2.46,3.67,6.39,5.44,9.77,1.69,3.21,3.33,6.64,5.41,8.48s2.75,4.48,1.15,9C523.75,192.38,523.29,194.41,522.76,196.31Z"/><path class="cls-20" d="M430.57,247c-4.25-6.15-8.51-12.15-12.67-18.39-2.34-3.5-2.26-4.88.23-7.77,3.35-3.88,6.77-7.55,10.16-11.51,1.32-1.55,2.47-1.73,3.77.14q9.27,13.35,18.76,26.62c1.87,2.62,2.41,5.41,1.08,10-1.48,5.09-2.75,10.5-4.14,15.69-1.87,6.94-2,7.08-4.91,3C438.72,258.85,434.64,252.87,430.57,247Z"/><path class="cls-20" d="M513.41,366.7c-4.61-6.65-9.15-13.4-13.76-19.8-1.86-2.59-2.39-5.09-1.07-9.34,1.82-5.85,3.51-11.94,5.16-18.11,1.09-4.09,2.21-5.3,4.23-2.34,6.77,9.88,13.67,19.59,20.63,29.36,1.73,2.43,2.43,5.58,2.44,10,0,9.14.24,18.28.28,27.39,0,6.14-.74,7.24-3.17,3.91-5-6.84-9.85-14.11-14.71-21.14Z"/><path class="cls-20" d="M483.84,263.48c-.66,2.69-1.53,5.71-3.38,5.85-1.16.08-2.31,1-3.46-.05.64-3.32,2-1.73,3-2,2-.5,2.92-3.57,3.85-6.94a22.7,22.7,0,0,1,1-2.6c.44,1.61-.28,2.47-.48,3.66C484.3,262,484.12,262.45,483.84,263.48Z"/><path class="cls-9" d="M535.05,335.87c-13.15,1.51-28.66-30.07-27-63.6,1.4-28.68,14.79-48.3,26.75-51.26,2.86-.7,8.83-2.18,14.15,4.66,12.05,15.5,19.86,59.68,9.2,87.24C556.21,317.87,543.48,334.9,535.05,335.87Z"/><path class="cls-13" d="M541.07,252.65c-.27-.3-.53-.73-.82-.88a45.13,45.13,0,0,0-10.4-4.29c-.87-.21-1.2.4-1.33,2.35-.28,4.24-.65,8.45-1.06,12.64-.18,1.84,0,2.49.89,2.78a16.4,16.4,0,0,1,6,4,10.65,10.65,0,0,1,2.41,4.16,3.4,3.4,0,0,1,.29,2.44c-.32.84-.8.45-1.16,0a11.39,11.39,0,0,0-6.65-4.31c-2.53-.75-2.5-.7-3.11,4.73-.86,7.52-1.7,15-2.66,22.43-.41,3.13-1.14,3.78-2.36,2.91-1.44-1-2.08-3.27-1.69-6.2q2.51-18.74,4.19-38.08c.12-1.31.22-2.64.35-3.94.21-2,.36-3.67-.78-4.88-.85-.9-1.24-3.11-1.07-5.39a3.5,3.5,0,0,1,1.77-3.12,5.43,5.43,0,0,0,1.66-1.63,1,1,0,0,1,1.32-.53c4.89,1.68,9.83,3.18,14.67,6.1a4.69,4.69,0,0,1,1.9,1.77,9.9,9.9,0,0,1,.72,6.58C543.57,253.85,542,254.09,541.07,252.65Z"/><path class="cls-13" d="M554.15,282.65a7.25,7.25,0,0,1,1.4,3.55,7.49,7.49,0,0,1-.21,3.87c-.51,1.24-1.09.46-1.63,0-3.27-2.53-6.61-4.25-10.06-4.59-1.11-.11-1.82-1.31-2.2-3.46-.62-3.44,0-5.22,1.65-4.94A21.9,21.9,0,0,1,553.48,282,6.28,6.28,0,0,1,554.15,282.65Z"/><path class="cls-22" d="M563.31,272.86c.29,26.84-16.63,58.56-33.34,54.74-13.87-3.17-22.33-29.68-22.94-52.81-.14-5.49-.44-16.89,3.06-27.16,7.95-23.27,29.4-39.8,42.48-20.22C555,231,563.13,255.86,563.31,272.86Z"/><path class="cls-22" d="M558.36,240.94c7.92,23.29,3.67,68.84-10.74,82.54-12,11.36-26.16-3.91-33.07-24a81.81,81.81,0,0,1-5-27.09c-.12-28.28,12.11-63.87,27.68-60.09C540.06,213,553.39,226.33,558.36,240.94Z"/><path class="cls-22" d="M511.57,254.16c2.89-27.52,20.73-51.31,34.78-37.79C558.48,228,562.63,262.45,560,288c-.63,6-1.92,18.47-6.5,26.91-10.13,18.66-30.33,20.15-38.6-8.36C513.37,301.39,509.77,271.4,511.57,254.16Z"/><polyline class="cls-23" points="440.76 205.48 445.98 216.07 448.97 196.19"/><polyline class="cls-23" points="430.76 119.79 431.83 163.81 439.77 163.91 439.24 193.77 443.12 191.78 445.74 214.67 444.25 186.17 440.11 190.3 439.14 165.76 433.72 164.05 432.74 108.36"/></g></g></svg>