<svg id="Layer_1" data-name="Layer 1" xmlns="http://www.w3.org/2000/svg" viewBox="0 0 277.79 307.55"><defs><style>.cls-1{fill:#faac45;}</style></defs><path class="cls-1" d="M116.1,65.54A80,80,0,0,0,80.46,77,80.26,80.26,0,0,0,65.94,88.86a90.79,90.79,0,0,0-12.11,15.31,82.25,82.25,0,0,0-8.51,18,101.7,101.7,0,0,0-4.38,20,131.51,131.51,0,0,0,1.69,42.59,104.47,104.47,0,0,0,6.13,19.67,84.21,84.21,0,0,0,9.69,17,66.72,66.72,0,0,0,13,13.22,68,68,0,0,0,15.89,9,81.23,81.23,0,0,0,17.63,4.9,113.15,113.15,0,0,0,18.82,1.46,129.46,129.46,0,0,0,18.74-1.48A171.16,171.16,0,0,0,161,244.65a148.18,148.18,0,0,0,17.68-5.86,121.42,121.42,0,0,0,16.9-8.32,102.08,102.08,0,0,0,14.9-10.83,77.42,77.42,0,0,0,12.59-13.9,70.12,70.12,0,0,0,5-8.45A72,72,0,0,0,232,188a67.54,67.54,0,0,0,3.44-20.22,77,77,0,0,0-.55-10.3A87.93,87.93,0,0,0,233,147.15,106.07,106.07,0,0,0,226.22,128a116.82,116.82,0,0,0-9.74-17.08,99,99,0,0,0-12.17-14.68,88,88,0,0,0-14.86-11.91,86.05,86.05,0,0,0-16.83-8.19,84.19,84.19,0,0,0-13-3.57c-.93-.38-1.86-.75-2.79-1.1a20.88,20.88,0,0,0-3.74-1.83,25.19,25.19,0,0,0-4.54-1.22c-.89-.16-1.78-.28-2.67-.35a104.92,104.92,0,0,0-11.09-2,90.72,90.72,0,0,0-11.63-.76q-3.53,0-7.05.29Zm7,5.19c1.59,0,3.19.06,4.78.16a85.52,85.52,0,0,0-9.52,3.7l-7.69,3.55c-1.65.76-3.23,1.7-4.83,2.59-2.29,1.27-4.6,2.49-6.83,3.87A140,140,0,0,0,69.88,109,112,112,0,0,0,58,124.42a91.83,91.83,0,0,0-8.71,17.7,94.29,94.29,0,0,0-5,20.59A129.09,129.09,0,0,1,45,143.65a101,101,0,0,1,5.06-22,82.3,82.3,0,0,1,8.49-16.52A89.36,89.36,0,0,1,73.09,88.65a77.1,77.1,0,0,1,7.47-5.73,70.91,70.91,0,0,1,8.5-4.84,79.26,79.26,0,0,1,21.36-6.45,87.09,87.09,0,0,1,12.7-.9Zm9.57,1.76q1.49-.43,3-.78l.5.07.87.14-1.54.23c-1.54.25-3.07.54-4.6.87l1.77-.53Zm13.54,4.16a63.86,63.86,0,0,1,10.14.78l.66.1q3.1,1.26,6.14,2.7a104.08,104.08,0,0,1,41.49,35.66,102,102,0,0,1,10.67,20.47,92.74,92.74,0,0,1,4.78,20.15A76.38,76.38,0,0,1,207.56,208a75.36,75.36,0,0,1-12.17,13.75l.06-.05a85.62,85.62,0,0,1-18.57,12.11,108,108,0,0,1-29.69,9,119.4,119.4,0,0,1-18.2,1.43,123.49,123.49,0,0,1-17.9-1.39A91.84,91.84,0,0,1,86,235.36l0,0c-1.91-2.05-3.78-4.15-5.66-6.23-1.19-1.31-2.34-2.64-3.45-4s-2.14-2.88-3.16-4.37l.1.14-.13-.18-.18-.26.12.17a85.43,85.43,0,0,1-4.41-7.4,71.78,71.78,0,0,1-3.47-7.86c-1.57-4.3-3-8.68-4.12-13.14a111.7,111.7,0,0,1-2.68-14.24,93.75,93.75,0,0,1,0-20.44,101.8,101.8,0,0,1,5.38-22.2,94.35,94.35,0,0,1,9.91-19.47,82.24,82.24,0,0,1,6.27-8,91.07,91.07,0,0,1,7.23-7.21A89.31,89.31,0,0,1,98.51,92.5a120,120,0,0,1,12-6.69,95.46,95.46,0,0,1,26-8.4,73.44,73.44,0,0,1,9.71-.76Zm-9.76.77-.32,0,.32,0Zm26.86,2.89.21.1-.21-.1Zm45.24,133.35a80.41,80.41,0,0,0,9.87-16.93,81.43,81.43,0,0,0,5.69-19.61,79.91,79.91,0,0,0,.54-21.18,93.73,93.73,0,0,0-4.47-20.41,98.47,98.47,0,0,0-8.58-18.24,110.42,110.42,0,0,0-11.56-15.93,108.74,108.74,0,0,0-13.14-12.64A85.3,85.3,0,0,1,198,96.85a98.69,98.69,0,0,1,15.9,18.2A114,114,0,0,1,226,138.55a91.08,91.08,0,0,1,4.9,19.95,80.36,80.36,0,0,1,.51,8.06,61.62,61.62,0,0,1-1.72,15.32,64.29,64.29,0,0,1-2.13,7,67.41,67.41,0,0,1-7.09,13.81,74.8,74.8,0,0,1-12,13.46q-3.47,3-7.15,5.68a78,78,0,0,0,7.25-8.21ZM72.94,88.78,72.7,89l.24-.21ZM187,95.89l.32.28-.32-.28Zm-128.15,8.8-.17.25.17-.25ZM69,115.53a96.82,96.82,0,0,0-6.39,12.21,103.39,103.39,0,0,0-6.34,19.6,96.66,96.66,0,0,0-2.18,21.08,101.31,101.31,0,0,0,2.51,21,122.88,122.88,0,0,0,4.12,14.2c.81,2.33,1.68,4.64,2.64,6.9a61.86,61.86,0,0,0,3.35,6.66c1.2,2.08,2.51,4.06,3.86,6a57.43,57.43,0,0,0,4.19,5.42c-1.73-1.27-3.4-2.62-5-4a72.65,72.65,0,0,1-11.45-13,64,64,0,0,1-6.61-12.79,71.46,71.46,0,0,1-2.17-7.22A67.35,67.35,0,0,1,48.16,184a92.05,92.05,0,0,1,.05-20.59,95.49,95.49,0,0,1,5.1-21.2,91.56,91.56,0,0,1,9.7-18.8c1.88-2.74,3.88-5.37,6-7.91Zm5.18.44-.21.31.21-.31ZM215.34,136.4l.19.49c-.07-.16-.13-.33-.19-.49ZM45,143.77c0,.15,0,.3-.05.45,0-.15,0-.3.05-.45Zm175.16,13.06,0,.23,0-.23Zm10.79,1.94s0,.11,0,.16,0-.11,0-.16ZM48.27,162.89c0,.12,0,.23,0,.35,0-.12,0-.23,0-.35ZM231.05,174.2c0,.12,0,.25,0,.37,0-.12,0-.25,0-.37ZM58.94,178l0,.28c0-.1,0-.19,0-.28Zm-10.78,6.07c0,.11,0,.22,0,.33,0-.11,0-.22,0-.33Zm17.39,20.73c0,.1.07.19.1.28,0-.09-.07-.18-.1-.28Zm142.22,2.9-.19.27.19-.27Zm-138,16.9.24.21-.24-.21Zm40.91,18.19.17,0-.17,0Zm36.47,0h0ZM73.67,220.66l0,0-.09-.13.06.09Z"/></svg>