<svg id="Layer_1" data-name="Layer 1" xmlns="http://www.w3.org/2000/svg" viewBox="0 0 146 46"><defs><style>.cls-1{fill:#ffbf64;}</style></defs><path class="cls-1" d="M12,21.69c4.88-1.65,9.84-3.06,14.84-4.3s10.08-2.21,15.17-3a225.47,225.47,0,0,1,30.81-2.72q7.74-.11,15.47.26c5.15.28,10.3.69,15.41,1.33s10.22,1.43,15.28,2.43,10.07,2.22,15,3.63q-7.49-1.92-15.1-3.24c-5.06-.91-10.16-1.64-15.27-2.19s-10.24-1-15.38-1.2S78,12.36,72.83,12.46s-10.28.32-15.4.75S47.2,14.24,42.11,15,32,16.66,26.94,17.78,16.92,20.17,12,21.69Z"/><path class="cls-1" d="M12,23.5c4.88-1.65,9.84-3.07,14.84-4.3S36.92,17,42,16.16a225.47,225.47,0,0,1,30.81-2.72q7.74-.11,15.47.26c5.15.28,10.3.69,15.41,1.33s10.22,1.43,15.28,2.42,10.07,2.23,15,3.64q-7.49-1.92-15.1-3.24c-5.06-.91-10.16-1.64-15.27-2.19s-10.24-1-15.38-1.2-10.28-.29-15.42-.2-10.28.32-15.4.76-10.23,1-15.32,1.77S32,18.47,26.94,19.59,16.92,22,12,23.5Z"/></svg>