<svg id="Layer_1" data-name="Layer 1" xmlns="http://www.w3.org/2000/svg" viewBox="0 0 296 301"><defs><style>.cls-1{fill:none;stroke:#ffbf64;stroke-miterlimit:10;}</style></defs><path class="cls-1" d="M91.06,232.44C50.47,211.59,34.62,132.51,72.62,81.81,104.87,38.8,163,33.39,200,51.29c8.76,4.24,26.93,13,35.36,33.37,18.89,45.58-.45,127.23-55.86,151.68C169.41,240.79,116.67,245.61,91.06,232.44Z"/><path class="cls-1" d="M196.6,57.16c43,21.31,65.07,94.71,30.06,139.19C197,234.09,138,235.93,98.9,217.52c-9.26-4.36-28.46-13.4-38.58-32.51C37.64,142.18,51.29,68.3,106,48.84,116,45.3,169.47,43.71,196.6,57.16Z"/><path class="cls-1" d="M171.84,245.26c-43.45,13.95-110.57-30.75-119.55-93.48C44.67,98.57,82,53.63,120.79,40.13c9.2-3.2,28.26-9.83,48.6-1.41C215,57.59,259,129,237.14,185.47,233.15,195.76,199.26,236.45,171.84,245.26Z"/><path class="cls-1" d="M122.53,46.68c45.47-15.33,113,21,119.68,77.17,5.68,47.69-34.7,90.68-75.37,105.31-9.64,3.47-29.6,10.65-50.28,4.29-46.32-14.24-88.9-76.14-64-128.6C57.15,95.28,93.83,56.35,122.53,46.68Z"/><path class="cls-1" d="M171.84,245.26c-43.45,13.95-110.57-30.75-119.55-93.48C44.67,98.57,82,53.63,120.79,40.13c9.2-3.2,28.26-9.83,48.6-1.41C215,57.59,259,129,237.14,185.47,233.15,195.76,199.26,236.45,171.84,245.26Z"/><path class="cls-1" d="M122.53,46.68c45.47-15.33,113,21,119.68,77.17,5.68,47.69-34.7,90.68-75.37,105.31-9.64,3.47-29.6,10.65-50.28,4.29-46.32-14.24-88.9-76.14-64-128.6C57.15,95.28,93.83,56.35,122.53,46.68Z"/></svg>