<svg id="Layer_1" data-name="Layer 1" xmlns="http://www.w3.org/2000/svg" viewBox="0 0 369 355">
    <defs>
        <style>
            .cls-1 {
                fill: none;
                stroke: #a5add1;
                stroke-miterlimit: 10;
                stroke-width: 5.17px;
            }

            .cls-2 {
                fill: #a5add1;
            }
        </style>
    </defs>
    <path class="cls-1"
        d="M117.15,274.37c-47.53-28.57-61.78-127.09-13-186.83C145.5,36.85,215.72,34.31,259.12,59c10.28,5.85,31.58,18,40.48,43.61,19.94,57.47-8.27,156.66-76.36,182.84C210.83,290.2,147.15,292.39,117.15,274.37Z" />
    <path class="cls-1"
        d="M184.13,288.83C121.24,291.92,49,221.94,60.65,148.59c9.9-62.24,76.25-102.05,132.83-106,13.4-.93,41.18-2.86,65,12.56,53.38,34.57,85,127.94,34.73,185.24C284.05,250.87,223.81,286.89,184.13,288.83Z" />
    <path class="cls-2"
        d="M65.92,180.66C51,121.83,103.35,40.15,174.88,37.09c60.68-2.6,111,52.45,125.44,105.16,3.43,12.49,10.55,38.36.52,63.83-22.48,57.07-104.67,104.85-168.39,68.36C120.83,267.78,75.32,217.78,65.92,180.66Z" />
</svg>