<svg id="Layer_1" data-name="Layer 1" xmlns="http://www.w3.org/2000/svg" viewBox="0 0 293 328"><defs><style>.cls-1{fill:none;stroke:#cae5dd;stroke-miterlimit:10;stroke-width:2px;}</style></defs><path class="cls-1" d="M92.06,252.44c-40.59-20.85-56.44-99.93-18.44-150.63C105.87,58.8,164,53.39,201,71.29c8.76,4.24,26.93,13,35.36,33.37,18.89,45.58-.45,127.23-55.86,151.68C170.41,260.79,117.67,265.61,92.06,252.44Z"/><path class="cls-1" d="M197.6,77.16c43,21.31,65.07,94.71,30.06,139.19C198,254.09,139,255.93,99.9,237.52c-9.26-4.36-28.46-13.4-38.58-32.51C38.64,162.18,52.29,88.3,107,68.84,117,65.3,170.47,63.71,197.6,77.16Z"/><path class="cls-1" d="M172.84,265.26c-43.45,13.95-110.57-30.75-119.55-93.48C45.67,118.57,83,73.63,121.79,60.13c9.2-3.2,28.26-9.83,48.6-1.41C216,77.59,260,149,238.14,205.47,234.15,215.76,200.26,256.45,172.84,265.26Z"/><path class="cls-1" d="M123.53,66.68c45.47-15.33,113,21,119.68,77.17,5.68,47.69-34.7,90.68-75.37,105.31-9.64,3.47-29.6,10.65-50.28,4.29-46.32-14.24-88.9-76.14-64-128.6C58.15,115.28,94.83,76.35,123.53,66.68Z"/><path class="cls-1" d="M172.84,265.26c-43.45,13.95-110.57-30.75-119.55-93.48C45.67,118.57,83,73.63,121.79,60.13c9.2-3.2,28.26-9.83,48.6-1.41C216,77.59,260,149,238.14,205.47,234.15,215.76,200.26,256.45,172.84,265.26Z"/><path class="cls-1" d="M123.53,66.68c45.47-15.33,113,21,119.68,77.17,5.68,47.69-34.7,90.68-75.37,105.31-9.64,3.47-29.6,10.65-50.28,4.29-46.32-14.24-88.9-76.14-64-128.6C58.15,115.28,94.83,76.35,123.53,66.68Z"/></svg>