<svg width="149" height="42" viewBox="0 0 149 42" fill="none" xmlns="http://www.w3.org/2000/svg">
<g clip-path="url(#clip0)">
<path d="M64.5097 0.307588C50.3347 -0.194737 35.6292 -0.529621 22.574 2.7355C13.7919 4.94015 3.35959 9.23782 0.589417 15.7122C-2.74069 23.582 8.60524 30.0006 18.4777 33.0146C32.3285 37.2285 47.4172 39.6564 62.0342 40.9402C76.946 42.2518 91.9168 42.3355 106.563 41.3588C117.762 40.6332 129.786 39.6006 138.951 35.3588C146.112 32.0657 151.711 25.5634 147.615 19.1727C143.224 12.3076 128.489 9.60061 119.235 7.61922C89.6476 1.25643 58.2031 2.12154 31.4444 9.85178C29.9709 10.2704 31.0319 11.9448 32.5348 11.5262C52.3386 5.80526 74.6179 3.85177 97.0151 5.97271C107.978 6.97736 118.911 8.95875 129.373 11.9169C134.854 13.4518 141.102 15.1541 144.403 18.7541C148.411 23.1634 145.699 28.4936 141.279 31.675C134.56 36.5029 123.656 38.0936 113.96 39.0146C102.496 40.075 90.7969 40.5215 79.0384 40.1867C66.3074 39.8518 53.4585 38.6518 40.8748 36.4192C29.3226 34.382 12.1416 31.5913 5.12779 23.9727C-4.0963 13.9541 13.9688 6.25178 25.1968 3.62852C37.5447 0.698286 51.2777 0.7541 64.5687 0.642472C64.8928 0.642472 64.8044 0.335495 64.5097 0.307588Z" fill="#F8C543"/>
</g>
<defs>
<clipPath id="clip0">
<rect width="149" height="42" fill="white"/>
</clipPath>
</defs>
</svg>
