<svg xmlns="http://www.w3.org/2000/svg" viewBox="0 0 696.93 696.93"><defs><style>.cls-1{fill:#8fb38e;}.cls-2{fill:#fff;}.cls-3{fill:#b286b0;}</style></defs><g id="Layer_2" data-name="Layer 2"><g id="Layer_1-2" data-name="Layer 1"><path class="cls-1" d="M34.76,197l313.71,151.5-114.7-329A347.29,347.29,0,0,0,34.76,197Z"/><path class="cls-2" d="M19.52,463.16l329-114.69L34.76,197A347.24,347.24,0,0,0,19.52,463.16Z"/><path class="cls-1" d="M197,662.17l151.5-313.7-329,114.69A347.23,347.23,0,0,0,197,662.17Z"/><path class="cls-1" d="M463.16,677.42,348.47,348.47,197,662.17A347.29,347.29,0,0,0,463.16,677.42Z"/><path class="cls-1" d="M662.17,500l-313.7-151.5L463.16,677.42A347.23,347.23,0,0,0,662.17,500Z"/><path class="cls-2" d="M677.42,233.77,348.47,348.47,662.17,500A347.31,347.31,0,0,0,677.42,233.77Z"/><path class="cls-1" d="M500,34.76,348.47,348.47l328.95-114.7A347.29,347.29,0,0,0,500,34.76Z"/><path class="cls-1" d="M233.77,19.52l114.7,329L500,34.76A347.27,347.27,0,0,0,233.77,19.52Z"/><circle class="cls-3" cx="348.47" cy="348.47" r="57.02" transform="translate(-13.83 682.53) rotate(-87.68)"/><circle class="cls-2" cx="348.47" cy="348.47" r="41.45" transform="translate(-13.4 682.99) rotate(-87.75)"/></g></g></svg>