<svg xmlns="http://www.w3.org/2000/svg" viewBox="0 0 1452.48 576.56"><defs><style>.cls-1{font-size:46.05px;}.cls-1,.cls-4,.cls-8{fill:#8fb38e;font-family:AbrilFatface-Regular, Abril Fatface;}.cls-2{letter-spacing:-0.06em;}.cls-3{letter-spacing:-0.01em;}.cls-4{font-size:33.25px;}.cls-5{letter-spacing:-0.02em;}.cls-6{letter-spacing:-0.01em;}.cls-7{letter-spacing:-0.01em;}.cls-8{font-size:20.59px;}.cls-9{letter-spacing:-0.01em;}.cls-10{letter-spacing:-0.01em;}.cls-11{letter-spacing:0em;}.cls-12{letter-spacing:0em;}.cls-13{letter-spacing:-0.01em;}.cls-14,.cls-16,.cls-22,.cls-23,.cls-24,.cls-25,.cls-26,.cls-27,.cls-28,.cls-29,.cls-30,.cls-31,.cls-32,.cls-33,.cls-34{fill:none;stroke-miterlimit:10;}.cls-14,.cls-22,.cls-28,.cls-31{stroke:#69acc7;}.cls-14{stroke-width:1.55px;}.cls-15{fill:#69acc7;}.cls-16,.cls-23,.cls-26,.cls-29{stroke:#7dc7ae;}.cls-16{stroke-width:1.14px;}.cls-17{fill:#7dc7ae;}.cls-18{fill:#fff;}.cls-19{fill:#ffb23c;}.cls-20{fill:#a682ae;}.cls-21{fill:#a5add1;}.cls-22{stroke-width:0.89px;}.cls-23{stroke-width:2.09px;}.cls-24,.cls-25{stroke:#ffb23c;}.cls-24{stroke-width:4.43px;}.cls-25{stroke-width:4.36px;}.cls-26,.cls-28{stroke-width:2.62px;}.cls-27,.cls-30,.cls-32,.cls-33{stroke:#a682ae;}.cls-27{stroke-width:2.33px;}.cls-29,.cls-30,.cls-31{stroke-width:1.29px;}.cls-32{stroke-width:1.91px;}.cls-33{stroke-width:1.39px;}.cls-34{stroke:#fff;stroke-width:1.54px;}</style></defs><g id="Layer_2" data-name="Layer 2"><g id="Layer_1-2" data-name="Layer 1"><text class="cls-1" transform="translate(675.89 563.16)"><tspan class="cls-2">F</tspan><tspan x="24.73" y="0">ami</tspan><tspan class="cls-3" x="105.51" y="0">l</tspan><tspan x="119.37" y="0">y</tspan></text><text class="cls-4" transform="translate(1012.91 503.25)"><tspan class="cls-5">F</tspan><tspan x="19.02" y="0">rien</tspan><tspan class="cls-6" x="83.64" y="0">d</tspan><tspan x="102.86" y="0">s</tspan></text><text class="cls-4" transform="translate(265.82 503.25)"><tspan class="cls-6">R</tspan><tspan x="23.47" y="0">el</tspan><tspan class="cls-7" x="51.13" y="0">a</tspan><tspan x="68.88" y="0">tionships</tspan></text><text class="cls-8" transform="translate(1324.43 450.44)"><tspan xml:space="preserve"> s</tspan><tspan class="cls-9" x="12.64" y="0">c</tspan><tspan x="22.38" y="0">hool</tspan></text><text class="cls-8" transform="translate(24.05 430.49)"><tspan class="cls-10">s</tspan><tspan x="8.77" y="0">ur</tspan><tspan class="cls-11" x="31.42" y="0">r</tspan><tspan class="cls-12" x="41.51" y="0">oundin</tspan><tspan class="cls-13" x="109.16" y="0">g</tspan><tspan x="119.7" y="0">s</tspan></text><path class="cls-14" d="M1164.59,246.52c-16.88,16.7-59.77,12.53-79.91-13.7-17.08-22.25-11-51.5,3.86-66.89,3.51-3.65,10.78-11.21,22.48-12.26,26.21-2.37,65,19.4,69.08,50.18C1180.84,209.46,1175.24,236,1164.59,246.52Z"/><path class="cls-14" d="M1178.76,220.25c-4.89,25.17-39.57,47-67.45,35.23-23.66-9.95-33-40.06-29-62.81.93-5.4,2.87-16.57,11.28-24.5,18.85-17.76,58.84-21.2,76.63,4.24C1173.43,177.05,1181.84,204.37,1178.76,220.25Z"/><path class="cls-15" d="M1177.25,226.64c-8.85,21.14-48.33,32.71-75.72,16.2-23.23-14-28.47-42.63-21-61.85,1.78-4.55,5.46-14,15.43-19.12,22.34-11.52,64.64-5.72,79.44,20.66C1178.13,187.34,1182.84,213.31,1177.25,226.64Z"/><path class="cls-14" d="M1080.49,191.69c4.67-25.19,39.17-47.27,67.14-35.81,23.72,9.72,33.28,39.71,29.52,62.48-.89,5.39-2.73,16.57-11.07,24.57-18.7,17.91-58.66,21.71-76.64-3.53C1086.16,234.79,1077.54,207.58,1080.49,191.69Z"/><path class="cls-16" d="M1039.53,308.6c-31.53-8.27-56.31-54.06-39.13-88.46,14.57-29.19,53.52-38.52,82.07-31.66,6.76,1.63,20.78,5,30.14,16.33,21,25.37,22.05,76.39-11.68,96.86C1094.77,305.4,1059.43,313.81,1039.53,308.6Z"/><path class="cls-16" d="M1010.26,302.58c-19.8-22.78-11-76.85,24-100.24,29.64-19.84,66.23-9.66,84.54,10.4,4.34,4.76,13.33,14.61,13.71,29.53.84,33.45-30,80.92-69.36,83.51C1055.93,326.25,1022.75,317,1010.26,302.58Z"/><path class="cls-16" d="M1038.17,311.94c-31.52-8.27-56.3-54.06-39.13-88.46,14.57-29.19,53.53-38.52,82.07-31.65,6.76,1.62,20.78,5,30.14,16.32,21,25.37,22,76.39-11.68,96.86C1093.42,308.74,1058.07,317.15,1038.17,311.94Z"/><path class="cls-17" d="M1095.9,313.26c-27.37,20.27-81.46,10.72-98.8-25.55-14.71-30.78,2.91-68.5,27.18-87.25,5.75-4.44,17.67-13.64,33.15-13.91,34.68-.6,77.68,31.62,72.69,72.32C1129.21,266.29,1113.17,300.47,1095.9,313.26Z"/><path class="cls-18" d="M1076.46,272.81l1,.06c3.77-4.77,9.2-8.39,9.56-15.42.21-4.2-3-10-7.23-11-3-.74-4.81.4-4.79,3.4,0,5.86.2,11.72.47,17.57A38.65,38.65,0,0,0,1076.46,272.81Z"/><path class="cls-18" d="M1133.44,245.13a69.11,69.11,0,0,0,6.76,2.38c3.63.89,6.48,2.69,8.12,6,2.26,4.51,4.19,9.17,6.54,13.62a12.22,12.22,0,0,0,3.75,3.9c.9.66,2.32.62,4.13,1-3.92-6.16-3.83-6.7,1.22-10.36l-2.3-6.34c-.9-2.47-1.71-5-2.7-7.38s-1.62-5.1-3.28-6.91a38,38,0,0,0-15-10.44c-5.13-1.86-11.39,1.43-12.31,6.76a71.57,71.57,0,0,0-.52,7.56l5.84,1.08C1133.52,245.36,1133.4,245,1133.44,245.13Z"/><path class="cls-18" d="M1030.69,224l-.54-.61c-5.3,4-10.74,7.85-15.82,12.11-1.81,1.52-3.4,3.85-1.92,7.7Z"/><path class="cls-18" d="M1121.12,259.84c4,.32,7.89,1,11.82,1.56s6.63,2.85,8.5,6.51c2.62,5.11,5.87,9.91,8.92,15,2.85-3.11,3.93-3.33,7-1.38-.31-1-.44-1.55-.62-2-3.27-8.62-6.38-17.31-9.94-25.81a8.52,8.52,0,0,0-4.83-4.14,102.39,102.39,0,0,0-14-3.08c-1.4-.23-3.71.09-4.32,1a53.61,53.61,0,0,0-5,9.53C1118,258.59,1119,259.66,1121.12,259.84Z"/><path class="cls-18" d="M1206.74,307.92c.1-6.2-2.32-11.61-4.84-17.05-3.38-7.31-7.84-14.18-9.32-22.24-.46-2.49-1.08-5-1.36-7.47a30.79,30.79,0,0,0-4.83-14c-4-6-3.51-12.93-4.19-19.61a14.29,14.29,0,0,0-1-4.72c-1.27-2.65-3.72-3-5.7-.79a18.64,18.64,0,0,0-4.79,16.32c1.76,11.17,3.08,22.33,1.6,33.73-.58,4.45.85,9.14,1.31,13.26-3-3.27-2.75-8-2.93-12.73-5.77-.8-12.66,3.14-16.43-4.45l-.52.51a12.07,12.07,0,0,0,.68,2c2.5,4.69,4.34,9.53,4.56,14.93.18,4.29-1,5.41-4.85,4.28.31,2,1.32,4.26.84,6.18-.76,3-3.76,1.1-6,1.52.34,2.39,2.2,3.41,4,4.36,3.33,1.77,6.8,3.3,10.09,5.14,3.75,2.09,7.68,4.06,11,6.74,4.63,3.77,6.51,9.25,7.77,14.87a1.86,1.86,0,0,1-.1.8c0,.15-.2.26-.09.13-1.8-3.94-3-8.51-5.69-11.95s-6.63-5.93-10.41-8.26c-4.06-2.48-8.69-4.05-12.8-6.45-1.93-1.13-3.24-3.25-4.8-5-.24-.25-.27-.7-.53-.91-3.1-2.5-6.23-5-9.53-7.58a19,19,0,0,1-13.48,8.75c2.39-1.26,5-2.26,7.1-3.85s3.88-3.81,5.77-5.73l-7.43-9-9,2.88-.25-.66,7.87-2.83c0-.23-.1-.47-.14-.71l-10.76-1.72c0-.2.07-.41.11-.62,3.79.29,7.58.54,11.36.9.37,0,.66.72,1,1.09q7.41,8,14.85,16.07a5.16,5.16,0,0,0,2,1.05c-1.39-2.38-2.49-4.79.11-6.82,1-.77,2.52-.88,4.17-1.41-.44-.79-1.16-2.16-2-3.49-3.35-5.63-6.61-11.3-10.15-16.81a7.54,7.54,0,0,0-4.15-3.22,139.85,139.85,0,0,0-17.25-2.66c-4.64-.37-7.75,2.79-7.23,7.23a100.47,100.47,0,0,0,3,14.31c.39,1.45,2,2.58,3.43,4.3-6.39-4.31-12.24-8.25-17.87-12l-10.08,10.66c5.61,5.22,11.59,10.56,17.29,16.17,4,4,8.42,7.83,11.35,12.51,7.5,12,17.39,21.5,29.1,29.43,1.32.89,2.56,1.89,3.81,2.88h63.76a15.12,15.12,0,0,1-.82-1.9C1209.43,332.46,1206.56,320.44,1206.74,307.92Z"/><path class="cls-18" d="M1097.85,265.78c0-2.94.84-5.87,1.29-8.83-5.43-1.88-5.58-2.54-2.42-10.93l-.47-.67c-1.43,1-3.11,1.87-4.24,3.16-3.4,3.9-3.83,8.89-4.9,13.65A8.83,8.83,0,0,1,1085,266q-6,6.42-12.2,12.59a8,8,0,0,1-3.66,2.06c-4.13.91-8.32,1.54-12.53,2.28v7.2l-.54.12a10.27,10.27,0,0,1-.61-2.82c.35-6.29.82-12.59,1.22-18.88a69.07,69.07,0,0,0,.3-7c-.12-3.18-1.83-5.57-4.64-7.52a29.08,29.08,0,0,0-1.77,17.24c-1.84-3.22-2.15-7.91-1-12.49s2.4-9.11,3.21-13.73c.65-3.69-1.08-6.64-4.18-8.86-1.65-1.18-2.7-.94-3.85.72-3.94,5.63-6.76,11.63-7,18.57a14.36,14.36,0,0,1-.28,1.65c-1.09-3.74-.31-9.68,2-13.81,2.1-3.71,4.52-7.25,6.86-10.84s2.38-4.67.15-7.84-6.14-5-9-4.27a5.46,5.46,0,0,0-2.34,1.35,133.18,133.18,0,0,0-9.73,10c-6.56,8-14.82,13.76-23.88,18.72a138.64,138.64,0,0,0-13.79,9.05c-1.63,1.17-2.72,3-4.06,4.6l-.67-.52c1.9-2.19,3.54-4.67,5.76-6.49a78,78,0,0,1,9-5.9,5.83,5.83,0,0,0,2.9-3.62c1.1-3.72,2.66-7.31,4.1-10.92a27.65,27.65,0,0,0,1.56-13.88,7.15,7.15,0,0,0-1.4-3.42,21,21,0,0,1-.36,2.08c-1.89,6.75-1.19,6.94-9,5.46-.62-.12-1.23-.33-1.79-.49-.23.11-.49.15-.54.28-2.64,6.65-6.82,12.35-11.2,18-1.19,1.52-1.44,3.77-2,5.72-1.25,4.7-2.19,9.48-3.7,14.1a61.53,61.53,0,0,1-4.49,9.9,42.51,42.51,0,0,0-5.11,23,166.9,166.9,0,0,1-4.56,48.73,1.92,1.92,0,0,1-.2.55h50.68c1.07-1.57,2.1-3.18,3.27-4.68,6-7.62,12.5-14.67,21-19.85a89.82,89.82,0,0,0,13.8-10.89c4.66-4.28,9.23-8.45,14.75-11.81,7.08-4.31,13.57-9.55,20.31-14.39.67-.48,1.3-1,2-1.44C1094.78,279.56,1097.89,273.6,1097.85,265.78Z"/><path class="cls-19" d="M1171.62,285.08c-2.9-3.27-2.69-8-2.87-12.73-5.63-.79-12.35,3.14-16-4.45l-.51.51a13,13,0,0,0,.66,2,35,35,0,0,1,4.46,14.93c.17,4.29-1,5.41-4.74,4.29.31,2,1.29,4.25.82,6.17-.74,3-3.67,1.1-5.81,1.52.34,2.39,2.15,3.41,3.9,4.36,3.25,1.77,6.63,3.3,9.84,5.14,3.67,2.1,7.5,4.06,10.71,6.74,4.52,3.77,6.36,9.25,7.59,14.88a1.82,1.82,0,0,1-.1.79c0,.15-.19.26-.09.13-1.75-3.94-2.92-8.51-5.56-11.94s-6.47-5.94-10.16-8.26c-4-2.49-8.47-4.06-12.49-6.46-1.88-1.12-3.15-3.25-4.68-4.94-.23-.26-.27-.71-.52-.92-3-2.5-6.08-5-9.3-7.58a18.49,18.49,0,0,1-13.16,8.75c2.33-1.26,4.86-2.26,6.93-3.84s3.79-3.82,5.64-5.74l-7.26-9.05-8.78,2.88-.24-.66,7.68-2.82-.15-.72-10.49-1.71.1-.62c3.7.28,7.4.53,11.1.89.35,0,.64.72,1,1.09q7.23,8.06,14.49,16.07a4.85,4.85,0,0,0,2,1.05c-1.36-2.38-2.43-4.79.1-6.81,1-.78,2.46-.89,4.07-1.42-.43-.79-1.13-2.16-1.9-3.49-3.27-5.62-6.45-11.3-9.91-16.8a7.39,7.39,0,0,0-4.05-3.23,133.29,133.29,0,0,0-16.83-2.66c-4.53-.37-7.57,2.8-7.06,7.23a104.56,104.56,0,0,0,2.9,14.31c.38,1.45,2,2.58,3.36,4.3l-17.45-12-9.84,10.67c5.48,5.22,11.32,10.55,16.88,16.16,3.93,4,8.21,7.83,11.07,12.52,7.33,12,17,21.5,28.41,29.42,1.55,1.08,3,2.32,4.49,3.51.17.14.24.42.57,1a8.39,8.39,0,0,1-1.69-.63c-12.89-9.06-24.63-19.14-32.9-32.95-2.9-4.84-7.62-8.6-11.57-12.79-2-2.16-4.19-4.22-6.33-6.28-3.36-3.24-6.75-6.45-10.2-9.73-2.88,2.15-5.37,4.09-8,5.91-5.46,3.83-11,7.48-16.42,11.42-2.9,2.12-5.46,4.71-8.23,7-5.89,4.92-11.49,10.27-17.81,14.55-8.06,5.44-14,12.76-19.9,20.16-.85,1.06-1.69,2.13-2.54,3.2l-.63-.48c1.18-1.73,2.27-3.54,3.55-5.2,5.87-7.61,12.2-14.67,20.54-19.85A87.6,87.6,0,0,0,1051.73,311c4.54-4.27,9-8.45,14.39-11.81,6.91-4.3,13.24-9.55,19.83-14.39.65-.48,1.27-1,2-1.44,6.73-4,9.77-10,9.73-17.84,0-2.93.82-5.87,1.26-8.82-5.3-1.89-5.45-2.55-2.37-10.94l-.45-.67c-1.39,1-3,1.87-4.14,3.17-3.32,3.89-3.74,8.88-4.78,13.64a8.89,8.89,0,0,1-2,3.85q-5.82,6.43-11.91,12.59a7.72,7.72,0,0,1-3.57,2.06c-4,.91-8.13,1.54-12.24,2.29v7.19l-.52.13a11.1,11.1,0,0,1-.6-2.83c.34-6.29.8-12.58,1.2-18.88.14-2.34.37-4.69.29-7-.12-3.18-1.79-5.57-4.53-7.53a29.65,29.65,0,0,0-1.73,17.25c-1.8-3.23-2.1-7.92-1-12.5s2.34-9.1,3.13-13.72c.63-3.7-1.05-6.65-4.08-8.87-1.61-1.17-2.63-.93-3.76.72-3.84,5.63-6.59,11.63-6.85,18.58a13.72,13.72,0,0,1-.27,1.64c-1.07-3.74-.3-9.68,2-13.81,2.06-3.71,4.42-7.25,6.7-10.83s2.33-4.68.15-7.85-6-5-8.78-4.26a5.17,5.17,0,0,0-2.29,1.34,135.87,135.87,0,0,0-9.5,10c-6.4,8-14.46,13.76-23.3,18.73a134,134,0,0,0-13.46,9c-1.59,1.17-2.66,3.05-4,4.6l-.65-.52c1.85-2.19,3.46-4.67,5.62-6.49a75.37,75.37,0,0,1,8.76-5.9,5.83,5.83,0,0,0,2.83-3.61c1.07-3.72,2.59-7.32,4-10.93a28.31,28.31,0,0,0,1.52-13.88,7.32,7.32,0,0,0-1.36-3.42,20.06,20.06,0,0,1-.36,2.08c-1.84,6.75-1.16,6.94-8.76,5.47-.61-.12-1.2-.34-1.75-.5-.23.11-.48.16-.53.28-2.57,6.65-6.65,12.36-10.93,18-1.15,1.52-1.4,3.77-1.91,5.72-1.23,4.7-2.15,9.49-3.62,14.1a63.29,63.29,0,0,1-4.38,9.91,43.31,43.31,0,0,0-5,23,171.1,171.1,0,0,1-4.45,48.73,2.06,2.06,0,0,1-1.09,1.42,16.35,16.35,0,0,1,0-2.8c1.13-6.59,2.84-13.12,3.37-19.75a252.24,252.24,0,0,0,.74-27.9c-.33-10.28,3.1-19.27,7.43-28.24,2.21-4.6,3.58-9.61,5.3-14.45a3.73,3.73,0,0,0,.34-1.85c-1-4.77,1.53-8.27,4.31-11.48,4.16-4.8,6.75-10.4,9.42-16.05a65.17,65.17,0,0,1,6.09-10.22c2.23-3.08,3.64-2.43,5.48.87,4.52,8.1,3.2,16,0,24a47.33,47.33,0,0,0-2.78,9.09c2.3-1.37,4.62-2.71,6.87-4.16a2.17,2.17,0,0,0,.8-1.56c.15-4.8,2.93-8.24,6.38-10.88,5.29-4.07,10.93-7.7,16.5-11.38,6.85-4.53,14.14.35,15.89,7.26.41,1.62-1.18,3.74-1.92,5.83,6.81,3.52,7.66,9.43,5.61,16.29-.53,1.76-.35,2.91,1.27,4.11a8.61,8.61,0,0,1,3.61,7.55c-.27,4.68-.9,9.34-1.35,14-.19,2-.31,4.09-.47,6.22a91.24,91.24,0,0,1,9.38-1.72c4.47-.37,6.8-3.74,9.18-5.67-.41-4.43-.65-8.34-1.16-12.21-.36-2.66-1.36-5.24-1.59-7.9a49.85,49.85,0,0,1,.23-8.63c.16-1.86,1.38-2.33,3.14-1.6a18.75,18.75,0,0,0,3.31,1,9.94,9.94,0,0,1,6.42,4.62c.63,1,1.13,2,1.85,3.27.83-1.54,1.48-2.88,2.27-4.14,1.54-2.47,3.38-4.41,6.69-4.31.81,0,1.66-.89,2.46-1.42,1.59-1,2.81-.57,2.81,1.22a47.54,47.54,0,0,1-.82,7.2c-1,6.41-2,12.8-2.85,19.23a4.07,4.07,0,0,0,1.43,3.2c3.58,2.56,7.36,4.85,11.48,7.49-.72-3.54-1.43-6.65-2-9.79-1.41-7.91-.09-10.1,7.46-12.42-.72-5,2.16-8.7,4.81-12.47.41-.58,1-1.31,1.58-1.44,3.16-.67,3-3.06,2.93-5.39-.21-5.6,3-8.88,7.59-11.13a4.63,4.63,0,0,1,2.9-.28c8.52,1.89,15.09,6.82,20.14,13.72,1.3,1.78,1.34,4.44,2.14,6.62,1.86,5.09,3.89,10.12,5.73,15.22.79,2.18,1.27,4.47,2,7,1.5.46,2.56.16,2.67-2,.32-6.66,1.1-13.26-.35-19.95a97.51,97.51,0,0,1-1.6-14.81c-.3-5.06,1.9-9.29,5.25-13,.67-.73,1.35-1.45,2-2.23,1.77-2.25,3.34-2.4,4.45.23a30.81,30.81,0,0,1,2.11,9.09c.65,6.74.83,13.44,4.8,19.46,1.87,2.85,2.87,6.4,3.72,9.77,1.36,5.41,1.87,11.06,3.48,16.38,1.34,4.43,3.76,8.54,5.69,12.79,1.2,2.63,2.75,5.17,3.52,7.92,1.21,4.3,2.59,8.74,2.64,13.14.1,8.06,1.62,15.81,3.47,23.54,1.18,4.91,2.61,9.76,3.92,14.64a1.4,1.4,0,0,1-.35,1.45,34.94,34.94,0,0,1-1.54-3.43c-3.88-11.81-6.69-23.83-6.51-36.35.09-6.19-2.26-11.61-4.72-17.05-3.3-7.31-7.66-14.18-9.1-22.24-.45-2.49-1-5-1.33-7.47a31.2,31.2,0,0,0-4.72-14c-3.9-6-3.42-12.93-4.08-19.61a14.42,14.42,0,0,0-1-4.71c-1.24-2.66-3.63-3-5.56-.8a19,19,0,0,0-4.68,16.33c1.72,11.16,3,22.32,1.57,33.72C1169.77,276.27,1171.16,281,1171.62,285.08ZM1127,244.65l5.7,1.07-.28-.86a65.16,65.16,0,0,0,6.6,2.37c3.53.89,6.32,2.7,7.92,6,2.2,4.51,4.09,9.17,6.38,13.62a12.18,12.18,0,0,0,3.66,3.91c.88.65,2.27.61,4,1-3.83-6.16-3.74-6.7,1.18-10.36l-2.24-6.34c-.87-2.46-1.67-5-2.64-7.37s-1.57-5.11-3.2-6.92a37.09,37.09,0,0,0-14.6-10.44c-5-1.86-11.11,1.44-12,6.76A74.36,74.36,0,0,0,1127,244.65Zm28.78,36.56c-.3-1-.42-1.55-.61-2-3.18-8.62-6.22-17.31-9.7-25.81a8.32,8.32,0,0,0-4.71-4.13,99.29,99.29,0,0,0-13.71-3.09c-1.35-.23-3.62.09-4.21,1a53.72,53.72,0,0,0-4.85,9.53c-.66,1.65.3,2.72,2.4,2.9,3.86.32,7.7,1,11.54,1.56s6.47,2.85,8.3,6.51c2.56,5.11,5.73,9.91,8.7,15C1151.67,279.49,1152.73,279.26,1155.74,281.21Zm-79-8.67,1,0c3.68-4.77,9-8.38,9.33-15.42.21-4.2-3-10-7.06-11-2.94-.73-4.69.4-4.68,3.4,0,5.86.21,11.72.47,17.57A40.5,40.5,0,0,0,1076.76,272.54ZM1014.25,243l17.84-19.21-.53-.61c-5.17,4-10.48,7.85-15.44,12.11C1014.35,236.78,1012.8,239.11,1014.25,243Z"/><path class="cls-19" d="M1173.76,287.69c-3-3.27-2.75-8-2.93-12.73-5.77-.8-12.66,3.14-16.43-4.45l-.52.51a12.39,12.39,0,0,0,.68,2c2.5,4.69,4.34,9.53,4.56,14.93.18,4.28-1,5.41-4.85,4.28.31,2,1.32,4.26.84,6.18-.76,3-3.76,1.1-5.95,1.52.34,2.39,2.2,3.41,4,4.36,3.33,1.77,6.8,3.3,10.09,5.14,3.75,2.09,7.68,4.06,11,6.73,4.63,3.78,6.51,9.26,7.77,14.88a1.86,1.86,0,0,1-.1.8c0,.14-.19.26-.09.13-1.8-3.94-3-8.51-5.69-12s-6.63-5.94-10.41-8.26c-4.06-2.48-8.69-4.05-12.8-6.45-1.93-1.13-3.24-3.25-4.8-4.95-.24-.25-.27-.71-.53-.91-3.1-2.5-6.23-5-9.53-7.58a19,19,0,0,1-13.48,8.75c2.39-1.26,5-2.26,7.1-3.85s3.88-3.81,5.77-5.73L1130,282l-9,2.88-.25-.66,7.87-2.83-.14-.71L1117.71,279l.11-.62c3.79.29,7.58.54,11.36.9.37,0,.66.72,1,1.09q7.41,8,14.85,16.06a5,5,0,0,0,2,1.06c-1.39-2.38-2.49-4.79.11-6.82,1-.77,2.52-.88,4.17-1.41-.44-.79-1.16-2.16-2-3.49-3.35-5.63-6.61-11.3-10.15-16.81a7.54,7.54,0,0,0-4.15-3.22,139.85,139.85,0,0,0-17.25-2.66c-4.64-.37-7.75,2.79-7.22,7.23a99.08,99.08,0,0,0,3,14.31c.39,1.45,2,2.58,3.43,4.3-6.39-4.31-12.24-8.25-17.87-12L1089,287.5c5.61,5.22,11.59,10.56,17.29,16.17,4,3.95,8.42,7.83,11.35,12.51,7.5,12,17.4,21.5,29.1,29.43,1.59,1.08,3.08,2.32,4.6,3.5.18.15.25.42.59,1a9,9,0,0,1-1.74-.64c-13.2-9.05-25.23-19.14-33.7-32.94-3-4.84-7.81-8.6-11.86-12.79-2.09-2.17-4.29-4.22-6.49-6.28-3.44-3.25-6.91-6.45-10.44-9.73-3,2.15-5.51,4.09-8.15,5.9-5.59,3.83-11.31,7.49-16.82,11.43-3,2.12-5.6,4.7-8.44,7-6,4.91-11.76,10.27-18.24,14.54-8.26,5.45-14.31,12.76-20.39,20.17l-2.61,3.19-.64-.47c1.21-1.74,2.32-3.54,3.63-5.2,6-7.62,12.5-14.67,21.05-19.85a89.82,89.82,0,0,0,13.8-10.89c4.66-4.28,9.23-8.45,14.75-11.81,7.08-4.31,13.57-9.55,20.31-14.39.67-.48,1.3-1,2-1.45,6.9-4.05,10-10,10-17.84,0-2.93.84-5.86,1.29-8.82-5.43-1.88-5.58-2.54-2.42-10.93l-.47-.67c-1.43,1-3.11,1.87-4.24,3.16-3.4,3.9-3.83,8.89-4.9,13.64a8.81,8.81,0,0,1-2.07,3.86q-6,6.42-12.2,12.59a7.91,7.91,0,0,1-3.66,2.06c-4.13.91-8.32,1.54-12.53,2.28v7.2l-.54.12a10.27,10.27,0,0,1-.61-2.82c.35-6.3.82-12.59,1.22-18.88a69.07,69.07,0,0,0,.3-7c-.12-3.18-1.83-5.57-4.63-7.52a29,29,0,0,0-1.78,17.24c-1.84-3.23-2.15-7.91-1-12.49s2.4-9.11,3.21-13.73c.65-3.69-1.08-6.64-4.18-8.86-1.65-1.18-2.7-.94-3.85.72-3.94,5.63-6.76,11.63-7,18.57a13.93,13.93,0,0,1-.28,1.64c-1.09-3.73-.31-9.67,2-13.8,2.1-3.71,4.52-7.25,6.86-10.84s2.39-4.67.15-7.84-6.14-5-9-4.27a5.46,5.46,0,0,0-2.34,1.35,133.18,133.18,0,0,0-9.73,10c-6.56,8-14.82,13.76-23.88,18.72a138.64,138.64,0,0,0-13.79,9.05c-1.63,1.17-2.72,3.05-4.06,4.6l-.67-.52c1.9-2.19,3.54-4.67,5.76-6.49a76.68,76.68,0,0,1,9-5.9,5.83,5.83,0,0,0,2.9-3.62c1.1-3.72,2.66-7.31,4.1-10.92a27.67,27.67,0,0,0,1.56-13.89,7.16,7.16,0,0,0-1.4-3.41,21,21,0,0,1-.36,2.08c-1.89,6.75-1.19,6.93-9,5.46-.63-.12-1.24-.34-1.8-.49-.23.11-.49.15-.54.28-2.64,6.65-6.82,12.35-11.2,18-1.19,1.52-1.44,3.77-2,5.72-1.25,4.69-2.19,9.48-3.7,14.09A62.06,62.06,0,0,1,972,276.7a42.42,42.42,0,0,0-5.12,23,167,167,0,0,1-4.56,48.73,2.05,2.05,0,0,1-1.12,1.43,16.33,16.33,0,0,1,0-2.8c1.16-6.59,2.92-13.12,3.46-19.76a245,245,0,0,0,.75-27.89c-.33-10.28,3.18-19.27,7.62-28.25,2.27-4.6,3.66-9.61,5.43-14.44a3.66,3.66,0,0,0,.34-1.86c-1.05-4.76,1.58-8.26,4.42-11.47,4.27-4.8,6.92-10.4,9.66-16a62.92,62.92,0,0,1,6.24-10.22c2.28-3.08,3.72-2.43,5.61.87,4.63,8.09,3.28,16,0,24a46.64,46.64,0,0,0-2.85,9.1c2.35-1.38,4.73-2.71,7-4.16a2.19,2.19,0,0,0,.82-1.56c.15-4.81,3-8.24,6.53-10.89,5.43-4.06,11.2-7.69,16.92-11.38,7-4.52,14.48.35,16.27,7.27.42,1.62-1.21,3.74-2,5.83,7,3.51,7.85,9.43,5.75,16.29-.54,1.76-.36,2.91,1.3,4.11a8.54,8.54,0,0,1,3.7,7.55c-.28,4.68-.92,9.34-1.38,14-.2,2-.32,4.08-.49,6.22,3.46-.64,6.51-1.48,9.62-1.73,4.58-.36,7-3.73,9.4-5.66-.41-4.44-.66-8.34-1.19-12.21-.36-2.66-1.39-5.25-1.62-7.9a47.89,47.89,0,0,1,.23-8.63c.17-1.86,1.42-2.33,3.22-1.6a18.73,18.73,0,0,0,3.39.95,10.19,10.19,0,0,1,6.58,4.63c.64,1,1.16,2,1.89,3.27.85-1.54,1.52-2.89,2.32-4.15,1.58-2.47,3.47-4.41,6.86-4.3.83,0,1.7-.89,2.53-1.42,1.62-1,2.87-.57,2.87,1.22a47.58,47.58,0,0,1-.84,7.2c-1,6.41-2.09,12.8-2.92,19.23a4.05,4.05,0,0,0,1.46,3.2c3.68,2.56,7.55,4.84,11.77,7.49-.74-3.54-1.47-6.65-2-9.79-1.45-7.92-.09-10.1,7.64-12.42-.74-5,2.22-8.71,4.93-12.47.42-.58,1-1.31,1.62-1.44,3.23-.68,3.1-3.06,3-5.4-.22-5.59,3.06-8.87,7.77-11.13a5,5,0,0,1,3-.28c8.74,1.89,15.47,6.83,20.64,13.73,1.33,1.77,1.38,4.43,2.2,6.62,1.9,5.09,4,10.12,5.87,15.21.8,2.18,1.29,4.47,2,7,1.54.46,2.63.16,2.74-2.05.33-6.65,1.13-13.25-.36-19.94a95.07,95.07,0,0,1-1.64-14.81c-.31-5.06,1.94-9.29,5.38-13,.68-.73,1.38-1.45,2-2.22,1.81-2.25,3.42-2.4,4.56.22a30.41,30.41,0,0,1,2.16,9.09c.66,6.74.85,13.44,4.91,19.47,1.92,2.85,3,6.4,3.81,9.76,1.4,5.42,1.92,11.07,3.57,16.39,1.38,4.43,3.85,8.54,5.84,12.79,1.23,2.63,2.81,5.17,3.6,7.92,1.23,4.3,2.65,8.74,2.71,13.13.1,8.06,1.65,15.81,3.55,23.55,1.21,4.91,2.68,9.76,4,14.63a1.41,1.41,0,0,1-.37,1.46,35.36,35.36,0,0,1-1.57-3.44c-4-11.8-6.85-23.82-6.67-36.34.1-6.2-2.32-11.61-4.84-17.06-3.38-7.3-7.84-14.17-9.32-22.24-.46-2.48-1.08-4.95-1.36-7.46a30.87,30.87,0,0,0-4.83-14c-4-6-3.51-12.92-4.19-19.61a14.29,14.29,0,0,0-1-4.71c-1.27-2.65-3.72-3-5.7-.8a18.69,18.69,0,0,0-4.79,16.33c1.76,11.17,3.08,22.33,1.6,33.73C1171.87,278.88,1173.3,283.57,1173.76,287.69ZM1128,247.25l5.84,1.08c-.21-.64-.33-1-.29-.87a69.11,69.11,0,0,0,6.76,2.38c3.63.89,6.48,2.69,8.12,6,2.26,4.5,4.19,9.16,6.54,13.62a12.22,12.22,0,0,0,3.75,3.9c.9.66,2.32.62,4.13,1-3.92-6.16-3.83-6.7,1.22-10.36l-2.3-6.35c-.9-2.46-1.71-4.95-2.7-7.37s-1.62-5.1-3.28-6.91a38.15,38.15,0,0,0-15-10.45c-5.13-1.85-11.39,1.44-12.31,6.77A71.57,71.57,0,0,0,1128,247.25Zm29.49,36.57c-.31-1-.44-1.55-.62-2-3.27-8.62-6.38-17.31-9.94-25.81a8.52,8.52,0,0,0-4.83-4.14,102.39,102.39,0,0,0-14-3.08c-1.4-.24-3.71.09-4.32,1a53.61,53.61,0,0,0-5,9.53c-.68,1.66.31,2.73,2.46,2.9,4,.33,7.89,1,11.82,1.57s6.63,2.85,8.5,6.51c2.62,5.11,5.87,9.91,8.92,15C1153.33,282.09,1154.41,281.86,1157.5,283.82Zm-80.92-8.68,1,.06c3.77-4.77,9.2-8.39,9.56-15.42.21-4.2-3.05-10-7.23-11-3-.74-4.81.4-4.79,3.4,0,5.86.2,11.72.47,17.57A38.65,38.65,0,0,0,1076.58,275.14Zm-64-29.57,18.28-19.2-.54-.61c-5.3,4-10.74,7.85-15.82,12.11C1012.64,239.39,1011.05,241.72,1012.53,245.57Z"/><path class="cls-19" d="M1172.61,287.59c-3-3.27-2.75-8-2.94-12.73-5.77-.79-12.65,3.14-16.42-4.45l-.52.52a11.93,11.93,0,0,0,.67,2c2.51,4.7,4.34,9.53,4.57,14.94.17,4.28-1,5.4-4.85,4.28.31,2,1.31,4.25.83,6.18-.75,3-3.76,1.1-6,1.52.35,2.38,2.2,3.4,4,4.36,3.33,1.77,6.81,3.29,10.09,5.13,3.76,2.1,7.68,4.06,11,6.74,4.63,3.78,6.51,9.25,7.77,14.88a1.71,1.71,0,0,1-.09.8c0,.14-.2.25-.1.12-1.79-3.94-3-8.5-5.69-11.94s-6.63-5.94-10.41-8.26c-4-2.48-8.68-4.06-12.8-6.46-1.92-1.12-3.23-3.25-4.8-4.94-.23-.26-.27-.71-.53-.92-3.1-2.49-6.23-5-9.53-7.58a18.94,18.94,0,0,1-13.47,8.75c2.38-1.25,5-2.25,7.1-3.84s3.87-3.81,5.77-5.74l-7.44-9-9,2.87-.25-.65,7.86-2.83-.14-.72-10.76-1.71.11-.62c3.79.28,7.59.54,11.37.89.36,0,.65.73,1,1.1,4.94,5.36,9.87,10.73,14.85,16.06a4.9,4.9,0,0,0,2,1c-1.39-2.37-2.49-4.79.1-6.81,1-.77,2.52-.88,4.17-1.41-.44-.8-1.15-2.17-1.94-3.5-3.35-5.62-6.61-11.3-10.16-16.8a7.59,7.59,0,0,0-4.14-3.23,139.85,139.85,0,0,0-17.25-2.66c-4.64-.37-7.75,2.8-7.23,7.23a102,102,0,0,0,3,14.32c.39,1.44,2,2.58,3.44,4.29l-17.87-12-10.09,10.67c5.62,5.22,11.6,10.56,17.3,16.16,4,4,8.41,7.84,11.34,12.52,7.5,12,17.4,21.5,29.1,29.42,1.6,1.08,3.08,2.32,4.6,3.51.18.14.25.42.59,1a9.74,9.74,0,0,1-1.74-.64c-13.2-9.06-25.22-19.14-33.7-33-3-4.83-7.8-8.59-11.85-12.79-2.09-2.16-4.3-4.21-6.49-6.28-3.44-3.24-6.92-6.45-10.44-9.73-3,2.15-5.51,4.1-8.16,5.91-5.59,3.83-11.31,7.49-16.82,11.42-3,2.12-5.59,4.71-8.43,7-6,4.91-11.77,10.27-18.25,14.54-8.26,5.45-14.3,12.76-20.38,20.16l-2.61,3.2-.64-.47c1.2-1.74,2.32-3.54,3.63-5.2,6-7.62,12.5-14.67,21.05-19.86a89.13,89.13,0,0,0,13.79-10.89c4.66-4.27,9.23-8.45,14.75-11.8,7.08-4.31,13.57-9.56,20.31-14.4.68-.48,1.31-1,2-1.44,6.89-4.05,10-10,10-17.84,0-2.93.83-5.87,1.29-8.82-5.44-1.88-5.59-2.54-2.43-10.94l-.46-.67a24.66,24.66,0,0,0-4.24,3.17c-3.4,3.9-3.83,8.88-4.9,13.64a8.73,8.73,0,0,1-2.08,3.86c-4,4.28-8,8.48-12.19,12.58a8,8,0,0,1-3.66,2.07c-4.13.91-8.33,1.54-12.54,2.28v7.19l-.54.13a11.15,11.15,0,0,1-.61-2.82c.35-6.3.82-12.59,1.23-18.88a69.17,69.17,0,0,0,.29-7c-.12-3.18-1.83-5.57-4.63-7.52a28.91,28.91,0,0,0-1.77,17.24c-1.85-3.23-2.16-7.91-1-12.49s2.4-9.11,3.21-13.73c.65-3.69-1.08-6.64-4.19-8.86-1.65-1.18-2.69-.94-3.85.71-3.93,5.64-6.75,11.64-7,18.58a16.45,16.45,0,0,1-.28,1.64c-1.1-3.73-.31-9.68,2-13.81,2.11-3.71,4.53-7.25,6.86-10.83s2.39-4.68.16-7.84-6.14-5-9-4.27a5.39,5.39,0,0,0-2.35,1.35,137,137,0,0,0-9.73,10c-6.56,8-14.82,13.77-23.87,18.73a138,138,0,0,0-13.79,9c-1.63,1.17-2.73,3.05-4.07,4.61l-.66-.52c1.89-2.19,3.54-4.67,5.75-6.5a78.78,78.78,0,0,1,9-5.89,5.87,5.87,0,0,0,2.91-3.62c1.09-3.72,2.65-7.31,4.1-10.93a27.76,27.76,0,0,0,1.56-13.88,7.29,7.29,0,0,0-1.4-3.42,20.75,20.75,0,0,1-.37,2.09c-1.88,6.75-1.19,6.93-9,5.46-.63-.12-1.23-.34-1.8-.5-.23.12-.49.16-.54.28-2.64,6.65-6.82,12.36-11.2,18-1.18,1.52-1.44,3.77-2,5.73-1.26,4.69-2.2,9.48-3.71,14.09a62.87,62.87,0,0,1-4.48,9.91,42.49,42.49,0,0,0-5.12,23,167.3,167.3,0,0,1-4.55,48.73,2.11,2.11,0,0,1-1.12,1.42,16.35,16.35,0,0,1,0-2.8c1.16-6.58,2.91-13.12,3.46-19.75a247.39,247.39,0,0,0,.75-27.9c-.34-10.28,3.18-19.27,7.61-28.24,2.27-4.6,3.67-9.61,5.43-14.44a3.67,3.67,0,0,0,.35-1.86c-1-4.77,1.57-8.27,4.42-11.47,4.26-4.8,6.92-10.41,9.65-16.06A64.72,64.72,0,0,1,998,217.06c2.28-3.08,3.73-2.43,5.62.87,4.62,8.09,3.27,16,0,24a47.32,47.32,0,0,0-2.85,9.1c2.36-1.38,4.74-2.71,7-4.17a2.17,2.17,0,0,0,.83-1.56c.15-4.8,3-8.23,6.53-10.88,5.42-4.07,11.2-7.7,16.91-11.38,7-4.52,14.49.35,16.27,7.27.42,1.61-1.2,3.73-2,5.83,7,3.51,7.85,9.43,5.74,16.29-.54,1.75-.35,2.91,1.31,4.11a8.49,8.49,0,0,1,3.69,7.55c-.27,4.68-.92,9.34-1.38,14-.2,2-.32,4.08-.48,6.22a95.79,95.79,0,0,1,9.61-1.73c4.58-.37,7-3.74,9.41-5.67-.42-4.43-.67-8.34-1.19-12.21-.37-2.65-1.4-5.24-1.63-7.9a48.74,48.74,0,0,1,.23-8.62c.17-1.87,1.42-2.34,3.22-1.6a18.73,18.73,0,0,0,3.39.95,10.19,10.19,0,0,1,6.58,4.62c.64,1,1.16,2,1.89,3.27.86-1.53,1.52-2.88,2.33-4.14,1.58-2.47,3.47-4.41,6.86-4.31.82,0,1.7-.89,2.52-1.41,1.62-1,2.88-.58,2.88,1.21a47.88,47.88,0,0,1-.85,7.21c-1,6.4-2.08,12.8-2.92,19.22a4,4,0,0,0,1.47,3.2c3.67,2.56,7.54,4.85,11.76,7.5-.74-3.54-1.46-6.66-2-9.8-1.45-7.91-.1-10.09,7.63-12.42-.73-5,2.22-8.7,4.94-12.47.42-.57,1-1.31,1.61-1.44,3.24-.67,3.1-3.06,3-5.39-.22-5.6,3.06-8.88,7.77-11.13a4.93,4.93,0,0,1,3-.28c8.73,1.89,15.46,6.83,20.64,13.72,1.33,1.78,1.37,4.44,2.19,6.63,1.91,5.08,4,10.11,5.87,15.21.81,2.18,1.3,4.47,2,7,1.54.46,2.62.17,2.73-2,.33-6.66,1.13-13.25-.35-20a95,95,0,0,1-1.65-14.8c-.3-5.07,2-9.29,5.39-13,.68-.73,1.38-1.45,2-2.22,1.81-2.25,3.42-2.4,4.56.22a30.73,30.73,0,0,1,2.17,9.09c.66,6.74.85,13.44,4.91,19.47,1.92,2.84,2.94,6.39,3.81,9.76,1.39,5.41,1.92,11.06,3.57,16.39,1.38,4.43,3.85,8.53,5.83,12.79,1.23,2.63,2.81,5.16,3.6,7.91,1.24,4.3,2.66,8.74,2.71,13.14.1,8.06,1.66,15.81,3.56,23.55,1.2,4.9,2.67,9.75,4,14.63a1.41,1.41,0,0,1-.37,1.45,35.2,35.2,0,0,1-1.57-3.43c-4-11.81-6.86-23.83-6.67-36.34.09-6.2-2.33-11.61-4.84-17.06-3.38-7.3-7.85-14.18-9.33-22.24-.45-2.49-1.07-5-1.36-7.46a30.75,30.75,0,0,0-4.83-14c-4-6-3.5-12.92-4.18-19.61a14.49,14.49,0,0,0-1-4.71c-1.28-2.66-3.73-3-5.71-.8a18.71,18.71,0,0,0-4.79,16.33c1.76,11.17,3.09,22.33,1.61,33.73C1170.72,278.78,1172.14,283.48,1172.61,287.59Zm-45.76-40.43,5.84,1.07c-.21-.64-.33-1-.28-.86a69.89,69.89,0,0,0,6.76,2.38c3.62.89,6.47,2.69,8.11,6,2.26,4.5,4.2,9.16,6.55,13.62a12.29,12.29,0,0,0,3.74,3.9c.9.65,2.33.62,4.14,1-3.92-6.16-3.83-6.7,1.21-10.37l-2.3-6.34c-.89-2.46-1.71-4.95-2.7-7.37s-1.61-5.11-3.28-6.91a38,38,0,0,0-15-10.45c-5.12-1.85-11.38,1.44-12.3,6.76A71.74,71.74,0,0,0,1126.85,247.16Zm29.5,36.56c-.32-1-.44-1.54-.63-2-3.27-8.63-6.38-17.31-9.94-25.82a8.52,8.52,0,0,0-4.82-4.13,104.4,104.4,0,0,0-14-3.09c-1.39-.23-3.71.09-4.32,1a52.26,52.26,0,0,0-5,9.53c-.68,1.66.31,2.72,2.45,2.9,4,.33,7.89,1,11.82,1.57s6.63,2.84,8.51,6.5c2.62,5.11,5.87,9.91,8.92,15C1152.17,282,1153.26,281.77,1156.35,283.72Zm-80.92-8.67,1,.06c3.76-4.78,9.19-8.39,9.55-15.43.22-4.19-3-10-7.23-11-3-.73-4.8.41-4.79,3.4,0,5.86.21,11.72.48,17.57A37.62,37.62,0,0,0,1075.43,275.05Zm-64.05-29.57c6.41-6.74,12.34-13,18.28-19.21l-.55-.6c-5.3,4-10.74,7.85-15.81,12.1C1011.48,239.3,1009.9,241.63,1011.38,245.48Z"/><path class="cls-15" d="M1158.87,266.71s3.1-4.65,4.4-4.14,5.63,13.95,5.63,13.95l-2.79,2.1S1160.94,275.25,1158.87,266.71Z"/><path class="cls-15" d="M1146.14,292.55c-1-4.1,3.1-4.66,4.4-4.14s5.63,13.95,5.63,13.95l-1.74,1.3-1-.2s-.58.43-1.35-.51C1150.26,300.74,1147.08,296.48,1146.14,292.55Z"/><path class="cls-15" d="M1150.06,285.24c-1-4.1,3.11-4.66,4.4-4.14s5.63,13.95,5.63,13.95l-1.73,1.3-1.3.64s-.28-.41-1.06-1.35C1154.18,293.43,1151,289.17,1150.06,285.24Z"/><path class="cls-15" d="M1072.51,261.79l2.25-21.73-1.81-1s-2.85,17.56-1.29,20.69S1072.51,261.79,1072.51,261.79Z"/><path class="cls-15" d="M1182.73,235.33s-1.26-14.41-3.76-16.09-2.5-2.47-2.5-2.47l3.62,1.55s4.66,10.87,3.88,16.31C1183.77,236,1182.73,235.33,1182.73,235.33Z"/><path class="cls-20" d="M1098.35,258.55s-4.27-.8-4.17-3c.39-8.89,7.9-17.05,7.9-17.05s1.09,16.73-3.64,19.94"/><path class="cls-20" d="M992.91,227.37s5.78,1.8,8,0,6.6-16.81,5-18.36S992.31,220.11,992.91,227.37Z"/><polygon class="cls-20" points="1148.78 152.85 1120.57 194 1154.73 180.28 1123.93 206.42 1157.83 189.34 1135.32 210.82 1199.14 181.83 1150.85 201.24 1169.41 181.83 1144.89 192.19 1165.08 175.36 1132.99 185.72 1148.78 152.85"/><path class="cls-15" d="M1065.92,165.54c.06-1,.11-2.07.17-3.11l-12.45-3.86,2.92-14-3.12-1.22c-2.16,4.27-3.45,9.48-6.75,12.54-3.14,2.91-8.37,3.56-13.85,5.66V146.39l-3.95-2.25c2.46,15.84-9.62,19.6-19.1,25.52l1.67,2,11-2.58,1.72,2.12-10.83,12.43,6.83,20.35c6.43-9.23,1-27.48,19.88-21.2-.36,6.68-.71,13.48-1.07,20.28l4.5.59,5.21-19.74,12-1.28c0-.79,0-1.57-.05-2.36l-11.62-5c1.16-3.26,2.25-6.32,3-8.43ZM1029.24,176c-.1-11.61,7.69-9.45,14.57-9.59C1044.3,178.58,1036.34,176.14,1029.24,176Z"/><path class="cls-18" d="M1043.81,166.41c.49,12.17-7.47,9.73-14.57,9.59C1029.14,164.39,1036.93,166.55,1043.81,166.41Z"/><path class="cls-20" d="M1083.75,225.93c4-5.79,3-13.54-.77-17-4.14-3.7-11.24-3.43-15.59.58-5.38,5-5.3,13.69-.34,22.26-1.34-1.06-3.08-1.87-4-3.23-3.7-5.66-3.68-11.71-.59-17.54s8.42-7.36,14.45-6.88c9,.72,15.32,12.11,11.37,20.24-1.63,3.34-3.83,3.84-7.68,3.05-3,.72-7.21,3-8.73,1.82-2.48-1.93-3.86-6-4.5-9.39s1.91-5.63,5.18-6.69c4.3-1.4,6.85,0,8.41,4.75C1081.76,220.24,1082.57,222.52,1083.75,225.93Z"/><ellipse class="cls-17" cx="1074.89" cy="221.82" rx="3.23" ry="4.27"/><path class="cls-17" d="M302.42,214c-.9-2.68-2.68-5.07-3.88-7.75-2.08-6-2.08-12.51-5.06-17.87,6.55.29,11.62,4.76,17.88,5.66-.26-9.77-2.07-19.32-3.14-28.84-10.68,1.05-21.67,9-29.33,19.14a157.88,157.88,0,0,1,23.53,34.13A22.26,22.26,0,0,0,302.42,214Z"/><path class="cls-17" d="M349.67,185a88,88,0,0,0-10.57-8.43c-1.66,7.41-3,14.81-4.51,22.21A66,66,0,0,0,349.67,185Z"/><path class="cls-17" d="M350.68,198.76c1.31-2.86,4.21-4.36,6.11-6.69q-2.15-2.31-4.53-4.64C351.44,191.19,350.5,194.92,350.68,198.76Z"/><path class="cls-17" d="M446,270c-.59-.59-.89-1.49-1.49-2.08a87.2,87.2,0,0,1-18.77-15.5c1.49,6.86,3.88,13.41,3,20.56-1.78-2.38-4.47-3.87-6.55-6,3.13,8.1,5.12,16.65,7.57,25.06,9.23-7.19,17-13.14,20.17-15.38a82.83,82.83,0,0,0,9.25-7.57c-4.24-1.85-8.46-3.67-12.86-5.09C446.62,266.1,446,267.89,446,270Z"/><g id="heart"><path class="cls-21" d="M387.33,259.25c-8-2.39-16.68-2.39-25-2.09,3.28-8,9.54-13.7,16.09-18.77-6.55-.6-12.81.6-19.36-.3,3.33-7.64,6.53-15.41,9.35-23.31-.8.85-1.15,1.25-1.15,1.25a161.77,161.77,0,0,0-13.72-16.81c-1.9,2.33-4.8,3.83-6.1,6.7-.19-3.85.75-7.58,1.58-11.34-.85-.82-1.71-1.64-2.6-2.45a66.48,66.48,0,0,1-15.07,13.79c1.53-7.41,2.85-14.81,4.5-22.22-5.47-3.65-11.21-6.3-16.81-6.91a22.93,22.93,0,0,0-4.83,0c1.07,9.52,2.88,19.07,3.13,28.84-6.25-.9-11.32-5.37-17.87-5.66,3,5.36,3,11.91,5.06,17.87,1.19,2.68,3,5.07,3.88,7.75a23,23,0,0,1,0,4.47,157.88,157.88,0,0,0-23.53-34.13,55,55,0,0,0-8,14.51C262,252.25,364.55,328,364.55,328l2.11-1.67a37,37,0,0,0-4.36-7.47c-3.27-4.17,4.47-7.44,8.64-10.13.3-.29,2.09-1.19.9-1.49-5.07-.89-9.83-.29-14.9-.29,5.66-6.26,11.62-12.22,15.79-19.67-6.55-1.49-13.7.3-20.26-1.49C365.88,280.1,377.5,270,387.33,259.25Z"/><path class="cls-20" d="M465.91,193.34c-15.54-12.22-44-22.21-65.94-2.59-12.31,11-18.29,17.13-20.57,19.56-2.82,7.9-6,15.67-9.35,23.31,6.55.9,12.81-.29,19.37.3-6.56,5.07-12.82,10.73-16.09,18.77,8.34-.3,17-.3,25,2.09-9.83,10.72-21.45,20.85-34.85,26.51,6.55,1.79,13.7,0,20.26,1.49-4.18,7.45-10.13,13.41-15.8,19.67,5.07,0,9.84-.6,14.9.3,1.19.29-.59,1.19-.89,1.49-4.17,2.68-11.92,5.95-8.64,10.13a36.68,36.68,0,0,1,4.36,7.46c7-5.56,30-23.8,47.6-37.52-2.45-8.41-4.44-17-7.57-25.06,2.09,2.08,4.77,3.57,6.55,6,.9-7.16-1.48-13.71-3-20.56a86.68,86.68,0,0,0,18.77,15.49c.59.6.89,1.49,1.49,2.09,0-2.09.59-3.88.29-6a136.26,136.26,0,0,1,12.86,5.08C478.38,238.86,482.93,206.72,465.91,193.34Z"/></g><g id="band2"><path class="cls-19" d="M461.83,231.94a6.18,6.18,0,0,1-1.53-.2,24.31,24.31,0,0,1-3.29-1.08l-47.2-19.06q-.58-.24-1.2-.45c-1.27-.44-5.06-2.46-5.77-5.84-.52-2.47.66-5.06,3.52-7.72,3.36-3.13,10.52-2.73,21.26,1.18a185.86,185.86,0,0,1,21.69,10l.45.24c1.42.74,7.57,4.07,9.09,5.11h0c10.64,7.24,9.2,12.83,8.5,14.37A6,6,0,0,1,461.83,231.94Zm-48.74-35.57c-2.57,0-4.7.55-6.13,1.88-2.6,2.42-3.69,4.74-3.24,6.87.62,3,4,4.79,5.18,5.19.43.14.84.3,1.24.46l47.2,19.06a24.13,24.13,0,0,0,3.18,1,5.22,5.22,0,0,0,6-2.74c.62-1.38,1.87-6.42-8.19-13.27h0c-1.42-1-7.24-4.14-9-5.06l-.45-.24C442,206,423.76,196.37,413.09,196.37Z"/><path class="cls-19" d="M460.16,233.7a11.21,11.21,0,0,1-4.78-1.13c-.39-.21-.77-.4-1.14-.58l-46-21.76a25.36,25.36,0,0,1-3-1.69,6.12,6.12,0,0,1-2.4-7.38c.66-1.55,3.8-6.4,16.33-3.5h0c1.79.42,8.42,2.68,9.92,3.21l.48.18a184.11,184.11,0,0,1,22.07,9.15c10.16,5.24,15.3,10.23,15.28,14.83,0,3.9-1.12,6.53-3.29,7.82A6.63,6.63,0,0,1,460.16,233.7ZM412,197.64c-6.17,0-8,2.8-8.42,3.87a5.22,5.22,0,0,0,2.07,6.29,24.1,24.1,0,0,0,2.92,1.62l46,21.77,1.18.59c1.07.57,4.71,1.86,7.33.3C465,231,466,228.59,466,225c0-10-27.66-19.9-36.76-23.14l-.48-.17c-1.87-.67-8.16-2.8-9.82-3.19A30.59,30.59,0,0,0,412,197.64Z"/><path class="cls-19" d="M464.71,234.19a6.64,6.64,0,0,1-1.58-.2,29.12,29.12,0,0,1-3.45-1.08L409.8,213.69c-.4-.16-.83-.31-1.26-.45-1.41-.47-5.63-2.63-6.5-6.23-.58-2.38.4-4.9,2.91-7.46,3.12-3.19,10.43-2.8,21.74,1.14a211.57,211.57,0,0,1,23,10.09l.49.24c1.51.75,8.1,4.12,9.74,5.16h0c11.86,7.51,10.59,13.22,9.92,14.79A5.5,5.5,0,0,1,464.71,234.19ZM411.6,198.28c-2.77,0-4.78.63-6,1.89-2.28,2.33-3.19,4.56-2.68,6.63.78,3.27,4.86,5.24,5.91,5.59.45.15.89.3,1.3.47L460,232.07a28,28,0,0,0,3.34,1.06,4.83,4.83,0,0,0,5.72-2.51c1.24-2.9-.63-8-9.58-13.69h0c-1.53-1-7.78-4.17-9.66-5.11l-.48-.24a212.33,212.33,0,0,0-22.94-10Q417.07,198.29,411.6,198.28Z"/><path class="cls-19" d="M428.9,201.45l-7.48,14.88,17.24,7.46,7.1-14.09Zm-1.62,13.9a1.09,1.09,0,1,1,1-1.18A1.1,1.1,0,0,1,427.28,215.35Zm2.45-4.19a1.09,1.09,0,1,1,1-1.18A1.09,1.09,0,0,1,429.73,211.16Zm1-5.16a1.09,1.09,0,1,1,1.17,1A1.09,1.09,0,0,1,430.7,206Zm1.64,11.78a1.09,1.09,0,1,1,1-1.18A1.1,1.1,0,0,1,432.34,217.78Zm2.44-4.19a1.09,1.09,0,1,1,1-1.18A1.1,1.1,0,0,1,434.78,213.59Zm2,6.27a1.09,1.09,0,1,1,1-1.17A1.09,1.09,0,0,1,436.81,219.86Zm.12-10.43a1.09,1.09,0,1,1,1-1.18A1.1,1.1,0,0,1,436.93,209.43Zm2.32,6.25a1.09,1.09,0,1,1,1-1.18A1.1,1.1,0,0,1,439.25,215.68Zm2.15-4.17a1.09,1.09,0,1,1,1-1.18A1.09,1.09,0,0,1,441.4,211.51Z"/><path class="cls-19" d="M426.73,243.32c-2.18,0-4.5-1-6.93-3-3.67-3-3.62-9.8.13-20.29a167.37,167.37,0,0,1,9.86-21.27l.24-.45c.74-1.39,4.09-7.46,5.15-9,6.27-9,12.38-10.43,16-8.81a5.49,5.49,0,0,1,3.27,6.25,22.76,22.76,0,0,1-1,3.2L435,236.07c-.15.37-.29.76-.43,1.16-.4,1.19-2.34,4.8-5.86,5.82A7.1,7.1,0,0,1,426.73,243.32Zm21.62-62.44c-3.3,0-7.76,2.35-12.42,9h0c-1,1.41-4.17,7.15-5.09,8.88l-.24.45c-4.48,8.41-18.13,34-10.23,40.42,2.92,2.38,5.63,3.22,8,2.53,3.15-.91,4.89-4.17,5.26-5.23.14-.42.29-.83.44-1.21l18.47-46.07a22.23,22.23,0,0,0,1-3.07,4.58,4.58,0,0,0-2.75-5.2A6,6,0,0,0,448.35,180.88Z"/><path class="cls-19" d="M425.87,243.74a7,7,0,0,1-2.65-.52c-2-.84-6.37-4-4.06-15h0c.36-1.73,2.5-8.18,3-9.64l.16-.47c3.13-9,12.66-36.36,24.39-37.09,4.57-.29,7.61.71,9,2.95,1.73,2.71.49,6.3-.14,7.46-.21.38-.4.75-.57,1.12l-21.52,45.14a23.53,23.53,0,0,1-1.69,3A7.22,7.22,0,0,1,425.87,243.74Zm-5.81-15.36c-2.18,10.38,1.73,13.24,3.52,14a6.4,6.4,0,0,0,7.5-2.21,24.57,24.57,0,0,0,1.63-2.88l21.51-45.15c.18-.38.38-.77.59-1.16.52-.95,1.67-4.2.18-6.53-1.23-1.94-4-2.79-8.21-2.53-11.13.69-20.5,27.63-23.58,36.48l-.17.47c-.63,1.82-2.64,7.92-3,9.52Z"/><path class="cls-19" d="M428.42,244a10.89,10.89,0,0,1-6.39-2.47c-3.71-2.74-3.68-9.71.07-20.74A188.78,188.78,0,0,1,432,198.24l.24-.47c.74-1.48,4.1-8,5.16-9.6h0c6.43-9.91,12.64-11.79,16.31-10.24a5.19,5.19,0,0,1,3.08,6,24.53,24.53,0,0,1-1,3.35l-18.49,48.62c-.15.39-.3.8-.43,1.22-.43,1.31-2.47,5.32-6.21,6.52A7,7,0,0,1,428.42,244Zm22.77-65.65c-3.38,0-8.08,2.67-13,10.3h0c-1,1.53-4.19,7.67-5.11,9.52l-.24.47A190.14,190.14,0,0,0,423,221.09c-3.6,10.61-3.74,17.24-.39,19.71,2.81,2.08,5.43,2.75,7.78,2,3.37-1.08,5.23-4.73,5.62-5.93.14-.43.29-.86.44-1.27L454.9,187a24.69,24.69,0,0,0,1-3.23,4.3,4.3,0,0,0-2.54-5A5.49,5.49,0,0,0,451.19,178.36Z"/><path class="cls-19" d="M422.77,218.69l16.82,6,7.3-16.86L431,202.13Zm15.42.52a1.11,1.11,0,0,1-1,1.19,1.16,1.16,0,0,1-1.35-.86,1.11,1.11,0,0,1,1-1.19A1.15,1.15,0,0,1,438.19,219.21Zm-4.75-2a1.11,1.11,0,0,1-1,1.19,1.16,1.16,0,0,1-1.35-.86,1.11,1.11,0,0,1,1-1.19A1.15,1.15,0,0,1,433.44,217.2Zm-5.75-.54a1.16,1.16,0,0,1-1.35-.86,1.11,1.11,0,0,1,1-1.19,1.15,1.15,0,0,1,1.35.86A1.11,1.11,0,0,1,427.69,216.66Zm12.91-2.41a1.11,1.11,0,0,1-1,1.18,1.15,1.15,0,0,1-1.36-.86,1.11,1.11,0,0,1,1-1.18A1.16,1.16,0,0,1,440.6,214.25Zm-4.76-2a1.11,1.11,0,0,1-1,1.19,1.17,1.17,0,0,1-1.36-.86,1.11,1.11,0,0,1,1-1.19A1.14,1.14,0,0,1,435.84,212.24Zm6.81-2.38a1.1,1.1,0,0,1-1,1.19,1.16,1.16,0,0,1-1.36-.86,1.11,1.11,0,0,1,1-1.19A1.15,1.15,0,0,1,442.65,209.86Zm-11.51.65a1.12,1.12,0,0,1-1,1.19,1.17,1.17,0,0,1-1.36-.86,1.11,1.11,0,0,1,1-1.19A1.16,1.16,0,0,1,431.14,210.51Zm6.76-2.65a1.1,1.1,0,0,1-1,1.18,1.15,1.15,0,0,1-1.35-.86,1.1,1.1,0,0,1,1-1.18A1.14,1.14,0,0,1,437.9,207.86Zm-4.71-1.73a1.1,1.1,0,0,1-1,1.18,1.16,1.16,0,0,1-1.36-.86,1.1,1.1,0,0,1,1-1.18A1.14,1.14,0,0,1,433.19,206.13Z"/></g><g id="band1"><path class="cls-19" d="M277.45,316.18c-.24-.16-.48-.34-.72-.53-2.17-1.81-3.1-4.79-2.74-8.85.41-4.71,6.08-8.5,16.87-11.28A168.19,168.19,0,0,1,314,291.76l.5-.05c1.56-.17,8.47-.81,10.32-.78h0c10.94.16,15.58,4.4,16.27,8.31a5.47,5.47,0,0,1-3.34,6.2,22.75,22.75,0,0,1-3.22,1L286,317c-.39.08-.8.18-1.2.29A10.27,10.27,0,0,1,277.45,316.18Zm47.37-24.33c-1.73,0-8.27.56-10.22.77l-.5.05c-9.48,1-38.32,4.06-39.2,14.21-.33,3.74.49,6.46,2.42,8.07,2.52,2.09,6.19,1.71,7.27,1.41.42-.11.84-.22,1.26-.31l48.49-10.55a20.94,20.94,0,0,0,3.09-.91,4.57,4.57,0,0,0,2.77-5.19c-.63-3.55-5-7.4-15.38-7.55Z"/><path class="cls-19" d="M276.76,315.83a7.21,7.21,0,0,1-3.22-4.59c-.43-2.12-.29-7.51,10.15-11.79,1.64-.67,8.17-2.51,9.67-2.91l.48-.13c9.2-2.45,37.2-9.92,44.39-.62,2.8,3.63,3.68,6.71,2.63,9.15-1.28,2.95-4.95,3.93-6.26,4.06-.44,0-.85.09-1.25.15l-49.44,7.51a23.44,23.44,0,0,1-3.43.28A6.84,6.84,0,0,1,276.76,315.83Zm58.68-21.32c-9.12-5.81-33.05.57-41.37,2.78l-.47.13c-1.87.5-8,2.26-9.56,2.88-9.81,4-10,8.86-9.61,10.76a6.41,6.41,0,0,0,6.05,5,21.65,21.65,0,0,0,3.29-.26l49.44-7.51c.42-.06.85-.12,1.3-.16,1.08-.11,4.41-1,5.51-3.52.91-2.11.06-4.87-2.52-8.22A7.77,7.77,0,0,0,335.44,294.51Z"/><path class="cls-19" d="M277.91,318l-.59-.41c-2.19-1.72-3.22-4.52-3.06-8.32.18-4.6,6-8.5,17.21-11.58a189,189,0,0,1,24.21-4.46l.53-.07c1.64-.22,8.9-1.08,10.84-1.12,11.81-.23,16.85,3.86,17.63,7.76a5.19,5.19,0,0,1-3.26,5.93,22.83,22.83,0,0,1-3.34,1l-50.62,12-1.26.33C285,319.46,281,320,277.91,318Zm62.56-22.32c-2.64-1.68-7-2.85-13.4-2.72h0c-1.82,0-8.69.83-10.74,1.1l-.53.07a189.47,189.47,0,0,0-24.09,4.44c-10.81,3-16.37,6.58-16.54,10.74-.14,3.49.77,6,2.72,7.55,2.78,2.18,6.85,1.67,8.06,1.32.44-.12.87-.24,1.3-.34l50.62-12a22.41,22.41,0,0,0,3.22-1,4.3,4.3,0,0,0,2.69-4.9A6.82,6.82,0,0,0,340.47,295.72Z"/><path class="cls-19" d="M293.59,297.11l4.48,17.29,18-3.42-4.22-16.39Zm8.22,13.06a1.12,1.12,0,0,1-1.57-.2,1.15,1.15,0,0,1,0-1.6,1.11,1.11,0,0,1,1.56.19A1.16,1.16,0,0,1,301.81,310.17Zm-1-5.07a1.11,1.11,0,0,1-1.57-.19,1.16,1.16,0,0,1-.05-1.6,1.12,1.12,0,0,1,1.57.19A1.15,1.15,0,0,1,300.81,305.1ZM298,300a1.17,1.17,0,0,1,0-1.6,1.12,1.12,0,0,1,1.57.19,1.16,1.16,0,0,1,.05,1.61A1.11,1.11,0,0,1,298,300Zm9.24,9.33a1.11,1.11,0,0,1-1.57-.19,1.16,1.16,0,0,1-.05-1.6,1.11,1.11,0,0,1,1.57.19A1.16,1.16,0,0,1,307.27,309.37Zm-1-5.06a1.1,1.1,0,0,1-1.56-.19,1.15,1.15,0,0,1-.05-1.6,1.11,1.11,0,0,1,1.57.19A1.15,1.15,0,0,1,306.26,304.31Zm5.79,4.31a1.12,1.12,0,0,1-1.57-.19,1.17,1.17,0,0,1,0-1.61,1.1,1.1,0,0,1,1.56.2A1.15,1.15,0,0,1,312.05,308.62Zm-7-9.18a1.11,1.11,0,0,1-1.57-.19,1.15,1.15,0,0,1-.05-1.6,1.11,1.11,0,0,1,1.57.19A1.17,1.17,0,0,1,305.06,299.44Zm6,4.12a1.12,1.12,0,0,1-1.57-.19,1.17,1.17,0,0,1-.05-1.61A1.12,1.12,0,0,1,311,302,1.17,1.17,0,0,1,311.05,303.56Zm-1.21-4.87a1.12,1.12,0,0,1-1.57-.19,1.17,1.17,0,0,1,0-1.61,1.11,1.11,0,0,1,1.57.2A1.15,1.15,0,0,1,309.84,298.69Z"/></g><g id="band3"><path class="cls-19" d="M283.84,219.94q-.21-.13-.42-.3c-1.25-1-1.78-2.76-1.58-5.11.24-2.71,3.51-4.9,9.73-6.5a97.36,97.36,0,0,1,13.35-2.17l.29,0c.91-.1,4.89-.46,6-.45h0c6.31.1,9,2.54,9.38,4.79a3.15,3.15,0,0,1-1.92,3.58,12.5,12.5,0,0,1-1.86.55l-28,6.09c-.22.05-.46.1-.69.17A6,6,0,0,1,283.84,219.94Zm27.32-14c-1,0-4.77.32-5.89.44l-.29,0c-5.47.58-22.1,2.35-22.61,8.2-.19,2.16.28,3.73,1.39,4.65a5.16,5.16,0,0,0,4.2.82q.36-.11.72-.18l28-6.08a13.37,13.37,0,0,0,1.79-.53,2.63,2.63,0,0,0,1.59-3c-.36-2.05-2.88-4.27-8.87-4.36Z"/><path class="cls-19" d="M283.44,219.74a4.14,4.14,0,0,1-1.86-2.65c-.24-1.22-.16-4.32,5.86-6.79.94-.39,4.71-1.45,5.58-1.68l.27-.08c5.31-1.41,21.46-5.72,25.6-.35,1.62,2.09,2.13,3.86,1.52,5.27-.73,1.71-2.85,2.27-3.61,2.34l-.72.09-28.51,4.33a13.43,13.43,0,0,1-2,.16A3.92,3.92,0,0,1,283.44,219.74Zm33.85-12.3c-5.26-3.35-19.06.33-23.86,1.61l-.28.08c-1.07.28-4.63,1.3-5.51,1.65-5.66,2.33-5.76,5.12-5.54,6.21a3.67,3.67,0,0,0,3.48,2.86,12.39,12.39,0,0,0,1.91-.15L316,215.37q.36-.06.75-.09a4.18,4.18,0,0,0,3.18-2c.52-1.22,0-2.81-1.45-4.74A4.54,4.54,0,0,0,317.29,207.44Z"/><path class="cls-19" d="M284.1,221l-.33-.24c-1.27-1-1.86-2.6-1.77-4.8.1-2.65,3.44-4.9,9.92-6.68a108.28,108.28,0,0,1,14-2.57l.3,0c.95-.13,5.14-.62,6.26-.64,6.81-.14,9.72,2.22,10.17,4.47a3,3,0,0,1-1.88,3.42,14.47,14.47,0,0,1-1.93.6l-29.2,6.9c-.23.05-.48.12-.72.19A6.61,6.61,0,0,1,284.1,221Zm36.09-12.88c-1.52-1-4-1.64-7.73-1.57h0c-1,0-5,.49-6.2.64l-.3,0a109.89,109.89,0,0,0-13.9,2.56c-6.23,1.71-9.44,3.8-9.54,6.19-.08,2,.45,3.48,1.57,4.36a5.75,5.75,0,0,0,4.65.76c.25-.07.51-.14.75-.19l29.2-6.9a12.9,12.9,0,0,0,1.85-.58,2.47,2.47,0,0,0,1.56-2.82A4,4,0,0,0,320.19,208.14Z"/><path class="cls-19" d="M293.15,209l2.58,10,10.41-2-2.43-9.44Zm4.74,7.53a.64.64,0,0,1-.9-.11.67.67,0,0,1,0-.93.65.65,0,0,1,.9.11A.67.67,0,0,1,297.89,216.48Zm-.58-2.92a.65.65,0,0,1-.9-.11.67.67,0,0,1,0-.93.64.64,0,0,1,.9.11A.67.67,0,0,1,297.31,213.56Zm-1.6-2.92a.67.67,0,0,1,0-.93.66.66,0,0,1,.91.11.67.67,0,0,1,0,.93A.65.65,0,0,1,295.71,210.64ZM301,216a.66.66,0,0,1-.91-.11.67.67,0,0,1,0-.93.65.65,0,0,1,.9.11A.67.67,0,0,1,301,216Zm-.58-2.92a.64.64,0,0,1-.9-.11.67.67,0,0,1,0-.93.64.64,0,0,1,.9.12A.66.66,0,0,1,300.46,213.1Zm3.34,2.48a.64.64,0,0,1-.91-.11.67.67,0,0,1,0-.92.64.64,0,0,1,.91.11A.67.67,0,0,1,303.8,215.58Zm-4-5.29a.63.63,0,0,1-.9-.11.66.66,0,0,1,0-.92.63.63,0,0,1,.9.11A.66.66,0,0,1,299.76,210.29Zm3.46,2.38a.65.65,0,0,1-.91-.12.66.66,0,0,1,0-.92.63.63,0,0,1,.9.11A.67.67,0,0,1,303.22,212.67Zm-.7-2.81a.64.64,0,0,1-.9-.11.67.67,0,0,1,0-.93.64.64,0,0,1,.9.11A.67.67,0,0,1,302.52,209.86Z"/></g><polyline class="cls-22" points="383.26 170.6 382.36 183.4 400.25 176.03"/><polyline class="cls-22" points="379.81 167.46 382.36 183.4 398.3 175.05"/><path class="cls-22" d="M381.43,184S427.5,127.3,441,125.62"/><path class="cls-22" d="M383.6,183.1s46.33-58.54,53.88-58"/><path class="cls-22" d="M381.41,181.53s50.61-52.86,52.53-57"/><path class="cls-22" d="M418.82,141.85s5.26-1.32,9.59,1.71"/><path class="cls-22" d="M420.09,131.09c2.73,2-.87,10.33-.87,10.33s1.31-9.2-.41-10.32"/><path class="cls-22" d="M418.71,141.88a15.51,15.51,0,0,1,9.07,2.75"/><path class="cls-22" d="M423.75,136.23s5.26-1.32,9.6,1.71"/><path class="cls-22" d="M425,125.47c2.73,2-.87,10.33-.87,10.33s1.31-9.2-.41-10.32"/><path class="cls-22" d="M423.64,136.26a15.53,15.53,0,0,1,9.07,2.74"/><path class="cls-22" d="M429.3,130.85s5.26-1.32,9.6,1.71"/><path class="cls-22" d="M429.19,130.87a15.49,15.49,0,0,1,9.07,2.75"/><path class="cls-22" d="M427.38,142.45c-3-3.1-7.45-1.19-7.45-1.19s6.34.52,8.13,2.45"/><path class="cls-22" d="M436.94,133.76c-1.75-3.93-6.59-3.67-6.59-3.67s5.78,2.67,6.8,5.09"/><polyline class="cls-22" points="398.53 178.97 381.73 184.09 381.93 165.46"/><polyline class="cls-22" points="389.69 325.5 401.72 329.93 387.67 343.22"/><polyline class="cls-22" points="388.24 321.06 401.72 329.93 387.57 341.04"/><path class="cls-22" d="M402.62,329.32S332,348.06,325,359.65"/><path class="cls-22" d="M400.94,330.94s-72.39,18.21-75,25.32"/><path class="cls-22" d="M400.41,328.31s-69,24.44-73.54,24.48"/><path class="cls-22" d="M348.88,346.12s-3.37,4.26-2.39,9.46"/><path class="cls-22" d="M338.54,342.86c.67,3.3,9.77,3.45,9.77,3.45s-8.92-2.58-9.23-4.61"/><path class="cls-22" d="M348.94,346a15.47,15.47,0,0,0-1.21,9.39"/><path class="cls-22" d="M341.72,348.31s-3.36,4.26-2.38,9.46"/><path class="cls-22" d="M331.39,345.05c.67,3.3,9.77,3.45,9.77,3.45s-8.92-2.58-9.23-4.61"/><path class="cls-22" d="M341.79,348.23a15.53,15.53,0,0,0-1.22,9.39"/><path class="cls-22" d="M334.54,351.16s-3.37,4.26-2.38,9.46"/><path class="cls-22" d="M324.2,347.9c.67,3.3,9.77,3.45,9.77,3.45s-8.92-2.58-9.23-4.61"/><path class="cls-22" d="M334.61,351.07a15.42,15.42,0,0,0-1.22,9.4"/><path class="cls-22" d="M345.9,354.18c-1.6-4,2-7.29,2-7.29s-2.12,6-1.1,8.43"/><path class="cls-22" d="M334.05,359.33c-2.86-3.21-.63-7.52-.63-7.52s.06,6.36,1.84,8.29"/><polyline class="cls-22" points="391.05 342.86 402.61 329.64 385.55 322.18"/><path class="cls-17" d="M568.89,367.52c67.79-13.33,248.47-14.19,337.69,2.57,75.71,14.23,55.33,35.47-4.05,47.68-14.07,2.9-43.22,8.89-92.1,10.68-109.54,4-276.36-7.94-298.88-29.36C507.44,395.18,526.12,375.93,568.89,367.52Z"/><path class="cls-23" d="M960.6,390.65c-4.46-22.65-140.51-40-262.4-37.44C565.35,356,478.54,381.9,515.31,404.07c28.27,17,125.61,29.48,230.7,27.45C859,429.34,964.58,410.83,960.6,390.65Z"/><path class="cls-23" d="M568.89,361.62c67.79-15.1,248.47-16.08,337.69,2.92,75.71,16.13,55.33,40.2-4.05,54-14.07,3.28-43.22,10.08-92.1,12.1-109.54,4.55-276.36-9-298.88-33.28C507.44,393,526.12,371.15,568.89,361.62Z"/><path class="cls-23" d="M821.23,355.48c106,8.38,181.56,41.39,116.15,63-55.51,18.32-190.34,21.1-286.44,13.92-22.77-1.7-69.94-5.22-99.67-13.67-66.61-18.94-60.21-53.35,59-64.09C632,352.67,754.34,350.19,821.23,355.48Z"/><rect class="cls-18" x="690.23" y="301.52" width="84.23" height="77.95" rx="11.12"/><path class="cls-19" d="M738.89,360.64c-7.33-2.62-14.65-2.62-22.5-2.1,7.33-7.85,13.08-16.74,20.93-24.59-12.56-6.8-29.3-8.37-43.42-13.08-1-.52-1.57-1.56-1-1.56,25.64-8.9,51.27-15.7,76.38-26.16-15.69-6.28-31.39-9.42-47.61-14.13-6.8-2.09-14.12-2.09-19.88-6.8,4.19-2.62,8.9-3.66,13.08-6.28,10.47-6.28,20.93-9.94,29.3-18.31-24.07-7.32-48.13-12.55-71.67-20.4,25.63-12.56,52.84-19.88,77.42-34-27.2-8.37-54.93-8.89-83.7-14.65-1.57-.52-4.19-1.56-2.62-2.61,20.93-19.36,48.66-29.3,65.92-51.79-20.92-2.1-41.85,0-62.78-1.57a6.84,6.84,0,0,1,3.14-4.19c22.5-19.36,41.33-41.33,54.93-67.49.65-1.13,1.3-2.28,2-3.44l-8.66-6.56L571.43,172.3l6.85,207.17,140.77-2.81c6.79-4.23,13.65-8.26,19.84-13.41C739.41,362.73,738.89,360.64,738.89,360.64Z"/><path class="cls-19" d="M900,154,753.92,43.29,752,46.74C738.37,72.9,719.53,94.87,697,114.23a6.81,6.81,0,0,0-3.14,4.18c20.92,1.57,41.85-.52,62.78,1.57-17.27,22.5-45,32.44-65.92,51.79-1.57,1,1,2.1,2.61,2.62,28.78,5.75,56.5,6.28,83.71,14.65-24.59,14.12-51.79,21.45-77.43,34,23.54,7.85,47.61,13.08,71.67,20.41-8.37,8.37-18.83,12-29.29,18.31-4.19,2.61-8.9,3.66-13.08,6.28,5.75,4.7,13.08,4.7,19.88,6.8,16.22,4.7,31.91,7.84,47.61,14.12-25.12,10.47-50.75,17.27-76.39,26.16-.52,0,0,1.05,1.05,1.57,14.13,4.71,30.87,6.28,43.42,13.08-7.84,7.85-13.6,16.74-20.92,24.59,7.84-.53,15.17-.53,22.49,2.09,0,0,.53,2.09,0,2.62-6.18,5.15-13,9.18-19.84,13.41L900,369.41Z"/><polygon class="cls-24" points="569.38 381.56 561.49 168.78 730.51 33.84 908.92 154.27 908.92 375.53 569.38 381.56"/><polygon class="cls-25" points="579.27 381.56 571.81 163.24 731.64 24.79 900.36 148.35 900.36 375.37 579.27 381.56"/><path class="cls-18" d="M878.72,213.23c4.81,16.7,9.14,32.48,13.92,48.13,4.2,13.76,8.44,27.56,15,40.45,1.75,3.44.39,5.5-2.16,7.35a25.1,25.1,0,0,1-11.32,4.25c-3.52.5-4.15,2.29-3.88,5.1,1.74,18.32,1.86,36.69,1.8,55.06A65.21,65.21,0,0,1,890,389.68c-.44,1.74-1,3.93-3.31,4.06s-3.14-1.83-3.93-3.51c-4.22-9-6-18.74-7.68-28.38-2.39-13.35-5.4-26.55-8-39.84-.77-3.84-2.29-5.49-6.34-5.07a91.27,91.27,0,0,1-10.2.07c-7.72-.09-7.89-.14-9.49,7.62-3.1,15.1-5.9,30.26-9,45.36-1.41,6.79-2.86,13.6-5.88,19.93-.88,1.84-1.73,4-4.22,3.75-2.21-.25-2.67-2.4-3.15-4.2a55.91,55.91,0,0,1-2-14.56c.07-19.23.13-38.45,1.35-57.64.19-3-.27-4.4-3.32-4.87a17.67,17.67,0,0,1-4.76-1.76c-5.72-2.75-6.29-4.82-3.69-10.77,11.32-25.87,18.46-53.09,25.87-80.22.6-2.2.49-4.25-1.35-5.46-2.12-1.39-3.93.31-5.37,1.68-6.18,5.93-10.65,13.23-15.73,20-4,5.31-7.71,10.8-12.61,15.34-1.63,1.51-3.44,3.19-5.84,2-2.08-1-2.21-3.23-2.23-5.33-.19-15.1,5.88-28.09,14.06-40.19,12.11-17.89,28.51-29.32,50.66-29.57,22.87-.26,39.61,11.51,52.07,29.83,7.81,11.49,13.4,24,14.06,38.17.13,2.73.33,5.94-2.61,7.17s-5-1.43-6.88-3.34c-8.94-9.18-15.24-20.41-23.4-30.21C884.92,217.36,882.85,215,878.72,213.23Z"/><path class="cls-18" d="M573.62,351.12c1.6-35.51,3.87-68.55,10.13-101.17,1.91-10,5.33-19.64,6.28-29.82a22.54,22.54,0,0,0,.07-4.57c-.51-4.23-2.89-5.29-6.19-2.61-4.14,3.34-7.16,7.71-10.32,11.93-5.5,7.35-10.89,14.78-16.61,22-2,2.55-4.59,6.1-8.32,4.61s-3.06-5.85-2.65-9.08a81.12,81.12,0,0,1,26.36-50.89c28.49-26.08,69.52-20.26,92.69,15,6.58,10,11.41,20.84,13.18,32.81.63,4.26,2.39,9.9-2.28,12s-7.38-3.16-9.9-6.32c-6.24-7.85-12-16.05-18.1-24-2-2.56-4.21-4.89-6.41-7.25-1.3-1.4-2.89-2.67-4.93-1.91-2.36.86-2.52,3.28-2.37,5.19a70.67,70.67,0,0,0,1.9,13.07c7.54,27.31,10.64,55.31,12.68,83.4,1.59,22,3.21,44.1,1.28,66.22a41.83,41.83,0,0,1-1.36,8.52c-.63,2.1-.63,5.27-3.66,5.52s-3.72-2.64-4.62-4.74a89.83,89.83,0,0,1-5.59-20c-3.55-19.85-7.39-39.63-13.25-59a37,37,0,0,0-5.3-11.5c-2.88-3.89-5.13-3.9-8-.08a36.71,36.71,0,0,0-5.21,11c-5.72,17.44-9,35.42-12.12,53.45-1.49,8.69-3.36,17.32-6.6,25.55-.89,2.24-1.57,5.55-4.7,5.29-3.38-.28-3.57-3.82-4-6.32C573.29,374.59,573.37,361.65,573.62,351.12Z"/><path class="cls-20" d="M705.91,377.23a543.56,543.56,0,0,1,8-59.81,139.49,139.49,0,0,0,2.67-22.74c.13-4.4-1.41-7.23-5.24-9.53-9.45-5.68-19.1-11.09-27.44-18.44a24.92,24.92,0,0,1-6-6.87c-.88-1.66-1.56-3.59,0-5.24s3.22-.08,4.52.63c10,5.51,20.27,10.36,31.68,12,23.22,3.38,46,3.32,67.42-8.47,1.75-1,4-3.37,5.88-1.46s-.09,4.55-1.3,6.47c-7.25,11.54-17.68,19.13-30.58,23.11-4.08,1.26-5.42,3.19-5.32,7.21.28,11.13,3.47,21.75,5.61,32.53,3.34,16.86,4.75,33.93,6.35,51A45.75,45.75,0,0,1,761,391.81c-.35,1.59-.92,3.47-3,3.73s-3-1.47-3.77-2.91c-3.46-6.66-5.31-13.87-7-21.13-1.67-7.1-3.72-14.13-7.31-20.52-3.8-6.77-7.33-6.7-11.38-.23-5.63,9-6.85,19.43-9.92,29.27-1.36,4.37-2.51,8.81-4.87,12.79-.85,1.45-1.84,3.07-3.91,2.66-1.72-.35-2.21-1.92-2.68-3.4C705.71,387.6,706.25,383,705.91,377.23Z"/><path class="cls-18" d="M600.08,142.17a28.61,28.61,0,0,1,57.21,0,28.78,28.78,0,0,1-28.95,28.63A28.45,28.45,0,0,1,600.08,142.17Z"/><path class="cls-18" d="M840.08,117.54c15.76.08,27.88,12.44,27.78,28.33a28.16,28.16,0,0,1-56.31-.19C811.63,129.57,823.9,117.46,840.08,117.54Z"/><path class="cls-20" d="M713.36,242.67c0-11.84,8.74-20.79,20.4-20.83a20.7,20.7,0,0,1,21.1,20.83A21,21,0,0,1,734,263.48,20.8,20.8,0,0,1,713.36,242.67Z"/><path class="cls-15" d="M627.34,165.89A23.11,23.11,0,0,1,607.93,155c-1.13-1.91-3.49-5.87-2.55-11.06,2.12-11.75,15.76-24.57,28.66-22.78,2.53.35,12.79,5.57,16.05,11.37h0c2.22,4,2.33,9.54.31,15.33-2.64,7.55-8.25,13.69-15,16.43A21.24,21.24,0,0,1,627.34,165.89Zm4.25-42.27c-10.75,0-21.87,11-23.63,20.79-.77,4.24,1.18,7.51,2.22,9.26,4.25,7.16,14.48,12.18,24.25,8.21,6.05-2.46,11.1-8,13.5-14.87,1.75-5,1.7-9.94-.12-13.19h0c-2.78-4.94-12.27-9.8-14.13-10.06A16.18,16.18,0,0,0,631.59,123.62Z"/><path class="cls-15" d="M630.26,161.37a28.32,28.32,0,0,1-11.93-2.59c-2.14-1-6.6-3.1-9-7.65-3-5.59-3.24-13.42-.7-19.94A19.19,19.19,0,0,1,620,119.64c2.38-.85,14.38-1.28,20.74,1.87,5,2.46,9,8,10.44,14.58s.23,13-3.45,17.71C643.58,159.07,636.91,161.37,630.26,161.37Zm-3.89-39.72a23,23,0,0,0-5.5.45,16.71,16.71,0,0,0-9.81,10c-2.27,5.84-2,12.82.58,17.77,2,3.77,5.92,5.62,7.8,6.51,8.21,3.86,20.27,3.34,26.24-4.24,3.18-4.05,4.26-9.7,3-15.51s-4.78-10.7-9-12.82h0C636.18,122.16,630.59,121.65,626.37,121.65Z"/><path class="cls-15" d="M611.26,147.21c-2.37-9.35,6-22.35,17.33-22.83,9.65-.42,17.65,8.34,19.95,16.72.55,2,1.68,6.11.08,10.16-3.57,9.08-16.65,16.68-26.78,10.87C620,161.07,612.75,153.12,611.26,147.21Z"/><path class="cls-26" d="M855.74,160.8c-7.17,6.19-24.13,3.36-31.44-7.63-6.19-9.32-3-20.8,3.36-26.53,1.49-1.35,4.6-4.17,9.28-4.27,10.5-.23,25.37,9.5,26.14,21.86C863.22,146.49,860.27,156.89,855.74,160.8Z"/><path class="cls-26" d="M855,155.18c-2.63,9.89-17,17.62-27.81,12.19-9.15-4.61-12-16.84-9.85-25.8.52-2.12,1.59-6.51,5.16-9.44,8-6.56,24-6.84,30.39,3.77C854,137.83,856.63,148.94,855,155.18Z"/><path class="cls-17" d="M833.22,126.29c9.21-4.44,24.45,1.46,27.35,13.17,2.47,9.93-4.93,20.08-13.15,24.24-1.95,1-6,3-10.52,2.22-10.18-1.79-20.82-13.76-16.93-25.5C820.68,138.28,827.4,129.08,833.22,126.29Z"/><path class="cls-27" d="M929.9,51.31c9,13.34.93,41.43-19.07,51.6-17,8.63-35.72.91-44.15-10.88-2-2.8-6.13-8.59-5.38-16.53,1.68-17.78,21-41,42.07-39.84C907.2,35.87,924.19,42.9,929.9,51.31Z"/><path class="cls-27" d="M914.14,38.6C930.32,45,940.54,70.83,929.25,88c-9.58,14.54-30.82,17-45.51,11.55-3.48-1.29-10.69-4-14.93-10.56-9.51-14.79-6.83-41.89,12.35-50.6C884.66,36.78,903.93,34.57,914.14,38.6Z"/><path class="cls-27" d="M865.21,77.86c-5.68-16.43,7.29-41,27.63-43.61,17.26-2.21,32.94,12.29,38.35,27,1.28,3.48,3.94,10.7,1.69,18.21-5,16.83-27.35,32.46-46.41,23.58C883,101.4,868.79,88.23,865.21,77.86Z"/><path class="cls-28" d="M840.91,27.74c-4.93,4.26-16.6,2.31-21.63-5.25-4.26-6.41-2-14.3,2.31-18.24A9.72,9.72,0,0,1,828,1.31c7.22-.16,17.45,6.53,18,15C846.05,17.9,844,25.05,840.91,27.74Z"/><path class="cls-28" d="M840.38,23.88c-1.81,6.8-11.72,12.12-19.13,8.38C815,29.09,813,20.68,814.47,14.52c.36-1.46,1.1-4.49,3.55-6.5,5.5-4.51,16.51-4.7,20.91,2.6C839.73,12,841.52,19.58,840.38,23.88Z"/><path class="cls-28" d="M827.22,5.44c6.33-3.05,16.82,1,18.81,9.06,1.7,6.84-3.39,13.81-9,16.68-1.34.67-4.12,2.08-7.24,1.53-7-1.24-14.32-9.47-11.65-17.55C818.59,13.69,823.22,7.37,827.22,5.44Z"/><path class="cls-26" d="M587.62,109.33c0,5.74-8.12,12.33-16,11.27a12.66,12.66,0,0,1-10.74-12.14,8.58,8.58,0,0,1,1.76-5.93c4.1-4.88,14.47-7.76,20.41-3.17C584.09,100.2,587.65,105.7,587.62,109.33Z"/><path class="cls-26" d="M586.09,99.55c3.45,5.15,1.22,14.8-5.57,17.54-5.75,2.33-12.48-1.25-15.68-5.83a10.25,10.25,0,0,1-2.24-6.12c.2-6.26,6.48-13.67,13.87-12.33C577.81,93.05,583.91,96.3,586.09,99.55Z"/><path class="cls-26" d="M563.79,101.16c1.66-6,10.45-10.55,16.94-7.19,5.51,2.84,7.17,10.27,5.78,15.68a10.29,10.29,0,0,1-3.2,5.68c-4.88,3.91-14.59,4-18.38-2.49C564.24,111.66,562.74,104.92,563.79,101.16Z"/><path class="cls-15" d="M125.47,200.56s9.61-11.15,15.07-9.27,2.12-11.75,10.85-13.19,19,6.45,29.05,14.17,12.12-4.89,23.52-1,6.38,17.54,14.27,15.63,22.6,17.11,0,14.18-35.3,4.38-46.18-.92-30.27-1.08-40.7.26S101,220.27,105,211.39,125.47,200.56,125.47,200.56Z"/><path class="cls-21" d="M139.45,216s-11.37-21-40.13-18.37-25.34,23.69-39,21.71-32.87,0-37,13.16S.7,238.43,0,249.62s21.23,19.08,46.57,9.21,37.66,7.67,73.28,4.49,40-7.12,61.1-5.15,20.58-11.89,11-21.1S143.56,228.73,139.45,216Z"/><path class="cls-15" d="M71.64,277.35l-.59,5.17h2.84a9.33,9.33,0,0,1,.41-4.13L71.51,278a10.07,10.07,0,0,1-.29,3.86,1.42,1.42,0,0,0,2.74.75,12.16,12.16,0,0,0,.39-4.61,1.43,1.43,0,0,0-2.79-.38,11.38,11.38,0,0,0-.51,4.88,1.42,1.42,0,0,0,2.84,0l.59-5.17a1.42,1.42,0,0,0-2.84,0Z"/><path class="cls-15" d="M37.4,273v4.1a1.42,1.42,0,0,0,2.84,0V274.7a1.42,1.42,0,0,0-2.84,0v4.1a1.42,1.42,0,0,0,2.84,0v-4.1a1.42,1.42,0,0,0-2.84,0v2.35a1.42,1.42,0,0,0,2.84,0V273a1.42,1.42,0,0,0-2.84,0Z"/><path class="cls-15" d="M44.18,296.34l.17,5.64c0,1.56,2.41,2,2.79.38a16.58,16.58,0,0,0,.38-5.53c-.19-1.8-3-1.82-2.84,0a14.16,14.16,0,0,1-.28,4.77l2.79.38L47,296.34c-.05-1.82-2.89-1.83-2.84,0Z"/><path class="cls-15" d="M86.58,290.09a13.16,13.16,0,0,0-.36,5.65A1.42,1.42,0,1,0,89,295a9.67,9.67,0,0,1,.36-4.14c.52-1.75-2.22-2.5-2.74-.75Z"/><path class="cls-15" d="M99.78,277.82v3.9a1.42,1.42,0,0,0,2.84,0v-3.9a1.42,1.42,0,0,0-2.84,0Z"/><path class="cls-15" d="M109.53,298.29v3.9a1.42,1.42,0,0,0,2.84,0v-3.9a1.42,1.42,0,0,0-2.84,0Z"/><path class="cls-15" d="M55.32,284.3l-.58,5.16h2.84a9.29,9.29,0,0,1,.4-4.12L55.19,285a10.06,10.06,0,0,1-.28,3.86,1.42,1.42,0,0,0,2.74.75A12.17,12.17,0,0,0,58,285a1.43,1.43,0,0,0-2.79-.38,11.18,11.18,0,0,0-.5,4.87,1.42,1.42,0,0,0,2.84,0l.58-5.16a1.42,1.42,0,0,0-1.42-1.42,1.45,1.45,0,0,0-1.42,1.42Z"/><path class="cls-15" d="M160.18,297l.58-5.17h-2.84a9.29,9.29,0,0,1-.4,4.12l2.79.38a10,10,0,0,1,.28-3.86,1.42,1.42,0,0,0-2.74-.76,12.21,12.21,0,0,0-.38,4.62,1.43,1.43,0,0,0,2.79.38,11.22,11.22,0,0,0,.5-4.88,1.42,1.42,0,0,0-2.84,0l-.58,5.17a1.43,1.43,0,0,0,1.42,1.42,1.45,1.45,0,0,0,1.42-1.42Z"/><path class="cls-15" d="M145.23,284.24a12.85,12.85,0,0,0,.36-5.65,1.43,1.43,0,0,0-1.74-1,1.47,1.47,0,0,0-1,1.75,9.66,9.66,0,0,1-.36,4.14,1.42,1.42,0,0,0,2.74.76Z"/><path class="cls-15" d="M132,296.5v-3.9a1.42,1.42,0,0,0-2.84,0v3.9a1.42,1.42,0,0,0,2.84,0Z"/><path class="cls-15" d="M122.29,276v-3.89a1.42,1.42,0,0,0-2.84,0V276a1.42,1.42,0,0,0,2.84,0Z"/><polyline class="cls-19" points="151.72 244.61 172.82 244.61 158.45 266.23 168.7 266.23 148.62 293.92 156.38 272.1 146.04 271.06 151.72 246.37"/><polyline class="cls-19" points="61.68 295.46 69.02 295.46 64.02 311.61 67.58 311.61 60.6 332.29 63.3 315.99 59.71 315.22 61.68 296.77"/><path class="cls-29" d="M79.33,215.8c-.08,10.58-14.94,22.72-29.54,20.75C37.41,234.89,30.17,223.73,30,214.21c0-2.25-.11-6.92,3.25-10.93,7.54-9,26.64-14.28,37.57-5.82C72.84,199,79.39,209.13,79.33,215.8Z"/><path class="cls-29" d="M75.57,203.06c6.35,9.48,2.23,27.25-10.25,32.3-10.6,4.28-23-2.31-28.89-10.74-1.39-2-4.29-6.13-4.12-11.27.38-11.53,11.93-25.17,25.54-22.71C60.33,191.08,71.55,197.08,75.57,203.06Z"/><path class="cls-29" d="M34.5,206c3.07-11,19.24-19.42,31.19-13.24,10.14,5.24,13.2,18.92,10.64,28.87-.6,2.36-1.86,7.24-5.88,10.46-9,7.21-26.87,7.33-33.85-4.57C35.33,225.35,32.57,213,34.5,206Z"/><path class="cls-30" d="M29,183.38c2.34,4.15-.75,12.23-6.9,14.72a10.51,10.51,0,0,1-12.74-4.3,7.13,7.13,0,0,1-1.17-5c.94-5.19,7.22-11.55,13.39-10.69C22.7,178.26,27.53,180.75,29,183.38Z"/><path class="cls-30" d="M24.68,178.21c4.61,2.28,7,10.15,3.22,14.92-3.19,4.05-9.5,4.24-13.7,2.27a8.52,8.52,0,0,1-4.13-3.49c-2.44-4.59-1-12.51,4.9-14.59C16,176.93,21.77,176.76,24.68,178.21Z"/><path class="cls-20" d="M10.45,190.29c-1.17-4.61,2.93-11,8.53-11.25,4.75-.2,8.69,4.11,9.83,8.24a8,8,0,0,1,0,5c-1.76,4.47-8.2,8.21-13.19,5.35C14.75,197.11,11.18,193.19,10.45,190.29Z"/><path class="cls-30" d="M216.16,250.58c5,7.36.52,22.86-10.52,28.48-9.36,4.76-19.71.5-24.36-6-1.1-1.54-3.38-4.74-3-9.12.93-9.81,11.61-22.61,23.21-22C203.64,242.06,213,245.94,216.16,250.58Z"/><path class="cls-30" d="M207.47,243.57c8.93,3.52,14.57,17.78,8.34,27.24-5.29,8-17,9.39-25.12,6.37-1.92-.71-5.9-2.19-8.24-5.83-5.24-8.15-3.76-23.11,6.82-27.91C191.2,242.56,201.83,241.34,207.47,243.57Z"/><path class="cls-30" d="M180.47,265.23c-3.13-9.07,4-22.63,15.25-24.07,9.52-1.21,18.17,6.79,21.16,14.9.7,1.92,2.17,5.9.93,10-2.78,9.29-15.09,17.91-25.61,13C190.28,278.22,182.44,271,180.47,265.23Z"/><path class="cls-31" d="M45.51,171.73c-2.43,2.1-8.18,1.14-10.65-2.58a7.08,7.08,0,0,1,1.13-9,4.78,4.78,0,0,1,3.15-1.44c3.55-.08,8.59,3.21,8.85,7.4C48,166.88,47,170.41,45.51,171.73Z"/><path class="cls-31" d="M45.24,169.83c-.89,3.35-5.76,6-9.42,4.13-3.09-1.56-4.07-5.71-3.33-8.74a5.69,5.69,0,0,1,1.75-3.2c2.7-2.22,8.13-2.32,10.29,1.28A12.94,12.94,0,0,1,45.24,169.83Z"/><path class="cls-31" d="M38.76,160.75c3.12-1.5,8.28.5,9.27,4.46.83,3.37-1.68,6.8-4.46,8.21a5.69,5.69,0,0,1-3.56.75c-3.45-.6-7-4.66-5.74-8.63A12.84,12.84,0,0,1,38.76,160.75Z"/><path class="cls-29" d="M213.26,195.94c-3.53,3.05-11.88,1.65-15.48-3.76a10.29,10.29,0,0,1,1.65-13.06A7,7,0,0,1,204,177c5.17-.11,12.49,4.68,12.87,10.76C216.94,188.89,215.49,194,213.26,195.94Z"/><path class="cls-29" d="M212.88,193.17c-1.29,4.87-8.39,8.68-13.69,6-4.51-2.27-5.93-8.3-4.85-12.71a8.29,8.29,0,0,1,2.54-4.65c3.93-3.23,11.82-3.36,15,1.86C212.41,184.63,213.7,190.1,212.88,193.17Z"/><path class="cls-17" d="M203.46,180c4.53-2.18,12,.72,13.47,6.48,1.21,4.89-2.43,9.89-6.48,11.94a8.33,8.33,0,0,1-5.18,1.09c-5-.88-10.25-6.77-8.34-12.56C197.28,185.88,200.6,181.36,203.46,180Z"/><path class="cls-30" d="M195.24,171.28c-2.43,2.1-8.17,1.14-10.64-2.58a7.08,7.08,0,0,1,1.13-9,4.78,4.78,0,0,1,3.15-1.44c3.55-.08,8.59,3.21,8.85,7.4C197.78,166.43,196.78,170,195.24,171.28Z"/><path class="cls-30" d="M195,169.38c-.89,3.35-5.77,6-9.42,4.12-3.1-1.55-4.07-5.7-3.33-8.73a5.72,5.72,0,0,1,1.74-3.2c2.71-2.22,8.13-2.32,10.3,1.28A12.94,12.94,0,0,1,195,169.38Z"/><path class="cls-30" d="M188.5,160.3c3.12-1.5,8.28.5,9.26,4.46.84,3.36-1.67,6.8-4.45,8.21a5.69,5.69,0,0,1-3.56.75c-3.45-.6-7.05-4.66-5.74-8.63A12.84,12.84,0,0,1,188.5,160.3Z"/><path class="cls-32" d="M1344.65,248.1c-.21,24.71-34.94,53.1-69.05,48.5-28.95-3.9-45.88-30-46.23-52.22-.09-5.27-.26-16.19,7.61-25.55,17.62-21,62.26-33.39,87.82-13.62C1329.46,208.81,1344.78,232.5,1344.65,248.1Z"/><path class="cls-32" d="M1335.84,218.31c14.86,22.17,5.23,63.7-24,75.49-24.77,10-53.73-5.39-67.52-25.09-3.26-4.66-10-14.33-9.64-26.36.89-26.94,27.9-58.82,59.7-53.09C1300.21,190.31,1326.46,204.32,1335.84,218.31Z"/><path class="cls-20" d="M1238.16,227.9c7.3-24.35,44.29-43.49,71.24-30.22,22.87,11.26,29.39,41.35,23.26,63.4-1.45,5.23-4.46,16.05-13.68,23.28-20.66,16.21-61.26,17-76.75-9C1239.41,270.58,1233.55,243.27,1238.16,227.9Z"/><rect class="cls-18" x="1336.7" y="225.78" width="32.34" height="32.34" rx="12"/><rect class="cls-18" x="1273.4" y="279.15" width="32.34" height="32.34" rx="12"/><path class="cls-15" d="M1391.85,276.06c0,11.65,0,23.29,0,34.93,0,5-.07,5-5.08,5.09-4.12.05-8.25-.13-12.36.06-3.21.14-4.46-1-4.37-4.32q.3-10.47,0-20.95c-.24-8.83-6.3-15.35-14.42-15.86-9.2-.58-16.37,6.15-16.59,15.8q-.24,10.47,0,20.95c.08,3.23-1,4.54-4.3,4.38-4.46-.21-9-.16-13.42,0-2.93.09-4.31-.93-4.16-4s0-6.09,0-9.13c0-20.42.14-40.84-.1-61.26,0-4.32,1.44-6.77,4.9-9.15,9.74-6.68,19.28-13.68,28.72-20.78,2.77-2.09,4.76-2.05,7.51,0q15.09,11.21,30.5,22c2.55,1.79,3.18,3.92,3.16,6.82C1391.79,252.42,1391.86,264.24,1391.85,276.06Zm-37.29-21.33a12.61,12.61,0,0,0,12.64-13.18A12.81,12.81,0,0,0,1354.41,229a13.07,13.07,0,0,0-12.72,13.27A12.77,12.77,0,0,0,1354.56,254.73Z"/><path class="cls-17" d="M1289.49,316.09c-6.45,0-12.91-.08-19.36,0-2.8.05-4.27-.59-4.23-3.86.16-11.29.12-22.58,0-33.88,0-2.5.88-3.57,3.41-3.56q20.18.07,40.34,0c2.52,0,3.42,1.1,3.41,3.59q-.12,16.95,0,33.88c0,2.74-.93,3.86-3.72,3.82-6.63-.11-13.27,0-19.9,0Zm-2.18-13.45c0-5.76-.07-5.82-6.09-5.78-5.61,0-5.61,0-5.63,5.77,0,6,0,6,5.87,6S1287.32,308.59,1287.31,302.64Zm16.14.44c0-6.18,0-6.18-5.52-6.21-6.1,0-6.22.07-6.25,5.59,0,6.1,0,6.1,5.59,6.13C1303.41,308.63,1303.41,308.63,1303.45,303.08Zm0-15.63c.08-6.55.08-6.55-5.24-6.64-6.31-.11-6.45,0-6.51,5.38-.06,6.26-.06,6.26,5.53,6.29C1303.37,292.53,1303.37,292.53,1303.43,287.45Zm-16.11-1c0-5.56-.08-5.63-5.13-5.65-6.62,0-6.62,0-6.61,5.77s0,5.89,6,5.89S1287.33,292.48,1287.32,286.47Z"/><path class="cls-17" d="M1419.39,316.1c-6.45,0-12.9-.08-19.34,0-2.93.06-4.15-.91-4.11-4q.19-16.65,0-33.31c0-3.06,1.21-4.07,4.13-4.05q19.62.14,39.23,0c2.72,0,3.83.95,3.81,3.75q-.14,16.94,0,33.86c0,2.85-1.21,3.74-3.88,3.7C1432.65,316,1426,316.1,1419.39,316.1Zm-2-29.34c0-5.83-.1-5.94-6-5.95s-5.75,0-5.79,5.52c0,6.12,0,6.12,5.64,6.14C1417.38,292.49,1417.38,292.49,1417.4,286.76Zm16.07,0c0-5.84-.08-5.93-6-5.92-5.73,0-5.74,0-5.73,6.1,0,5.54,0,5.54,5.65,5.58C1433.46,292.52,1433.46,292.52,1433.47,286.72Zm-27.83,15.76c0,6.06,0,6.06,5.55,6.11,6.17.05,6.17.05,6.2-5.52,0-6.07,0-6.17-5.62-6.21C1405.72,296.82,1405.66,296.87,1405.64,302.48Zm27.85.16c0-5.72-.11-5.81-6.17-5.78-5.58,0-5.58,0-5.57,5.76,0,6,0,6,5.84,6S1433.5,308.59,1433.49,302.64Z"/><path class="cls-19" d="M1354.59,326.4h-86.07c-1.62,0-3.23,0-4.84-.06a2.76,2.76,0,0,1-3-3c-.07-2.06,1-3,2.9-3,1.07,0,2.15,0,3.23,0q87.95,0,175.91,0c2.18,0,5.61-1.29,5.61,2.89,0,4.47-3.65,3.11-6,3.12Q1398.44,326.46,1354.59,326.4Z"/><path class="cls-19" d="M1379,180.1c0,8.39-.28,8.68-8.87,7.93-3.56-.31-7.1-.91-10.65-1.33-2.44-.28-3.54.76-3.68,3.32-.19,3.61.36,6.36,3.77,8.7,12.84,8.82,25.45,18,38.14,27a18.12,18.12,0,0,1,2.51,2,3,3,0,0,1,.43,3.94,2.88,2.88,0,0,1-3.81,1,32,32,0,0,1-5.07-3q-15.49-11.12-31-22.31c-6.48-4.68-6.59-4.51-13,.16-11,8-22.12,15.87-33.19,23.79-.59.41-1.21.78-1.76,1.23-1.52,1.23-3.13,1.19-4.3-.21-1.34-1.6-1-3.38.55-4.76s3-2.53,4.63-3.67c11.66-8.33,23.27-16.75,35.07-24.88,3.36-2.3,4.76-4.84,4.49-8.89-.34-5,0-10-.11-15-.07-3,1.47-4.16,4.22-4.29,3.09-.15,6,.74,9,1.24s5.7,1.09,8.54.65c3-.47,4.38.4,4,3.58A31.59,31.59,0,0,0,1379,180.1Z"/><path class="cls-19" d="M1286.74,270.4c-7.34,0-14.68.09-22,0-4.13-.07-4.48-.86-2.19-4.34,3-4.62,6.24-9.16,9.28-13.8a5.24,5.24,0,0,1,4.81-2.75c10.56.06,21.12.08,31.68,0,3.11,0,4.64,1,4.48,4.37-.18,3.75,0,7.52,0,11.28,0,5-.18,5.22-5.06,5.26C1300.7,270.46,1293.72,270.41,1286.74,270.4Z"/><path class="cls-19" d="M1421.87,270.4c-7.15,0-14.3-.08-21.44.05-2.91.05-4.29-.84-4.16-4,.17-4.28.12-8.57,0-12.86-.07-2.83.78-4.24,4-4.19,10.54.14,21.08.1,31.63,0a6.24,6.24,0,0,1,5.72,3.21c2.9,4.51,6,8.88,8.92,13.37,2,3,1.51,4.12-2.12,4.21-7.5.2-15,.06-22.51.06Z"/><path class="cls-19" d="M1356.11,239.61c.09,1.83,0,4-2.07,5.38-1.31.88-2.36,2.18-4,2.47-.3-2.16,1.76-2.31,2.85-3.16,2.15-1.68,2.25-3.9,2.27-6.27a11.22,11.22,0,0,1,.37-2c1,.5.45,1.45.6,2.19A9,9,0,0,1,1356.11,239.61Z"/><path class="cls-18" d="M1435.38,239.79c-13.57,9.9-40.46,5.12-49.14-12.72-7.37-15.14,1.32-33.63,13.35-42.8,2.85-2.17,8.76-6.67,16.45-6.77,17.24-.24,38.66,15.66,36.25,35.63C1451.85,216.77,1443.94,233.53,1435.38,239.79Z"/><path class="cls-20" d="M1416,195.39a5.25,5.25,0,0,0-1.14.11,104.28,104.28,0,0,0-12.44,4.72c-1,.47-1.17,1-.71,2,1,2.24,1.9,4.53,2.76,6.84.37,1,.81,1.18,1.81.76a30.28,30.28,0,0,1,7.67-2,7.83,7.83,0,0,1,3.84.42c.48.18,1.16.31,1.07,1s-.71.75-1.25.75a21.09,21.09,0,0,0-8.44,2.33c-3,1.33-2.91,1.33-1.9,4.4,1.41,4.25,2.83,8.5,4.11,12.8.53,1.81-.06,2.64-1.65,3-1.89.48-3.28-.18-3.77-1.9q-3.12-10.94-7.27-21.51c-.29-.72-.58-1.43-.84-2.16-.4-1.11-.74-2-2.36-1.85a2.86,2.86,0,0,1-2.83-1.91c-.49-1.15.35-1.91,1-2.69a7.48,7.48,0,0,0,1.3-1.89,2.15,2.15,0,0,1,1.27-1.13,169.7,169.7,0,0,1,17.58-6.59,6.59,6.59,0,0,1,2.56-.38c1.5.18,2.89,1.53,2.78,2.68S1417.42,195.49,1416,195.39Z"/><path class="cls-20" d="M1438.89,201.27a3.57,3.57,0,0,1,2.54.79,2.11,2.11,0,0,1,1,2c-.15.93-1,.93-1.68,1.08a42.62,42.62,0,0,0-11.9,4.39,2.88,2.88,0,0,1-3.38-.21c-1.71-1.25-1.64-2.5.21-3.47A46,46,0,0,1,1438,201.4C1438.38,201.32,1438.77,201.29,1438.89,201.27Z"/><path class="cls-33" d="M1445.32,190.74c8.5,12.54.87,38.94-17.92,48.49-16,8.11-33.56.86-41.48-10.23-1.88-2.62-5.77-8.07-5.06-15.52,1.58-16.71,19.76-38.51,39.53-37.44C1424,176.23,1440,182.84,1445.32,190.74Z"/><path class="cls-33" d="M1430.51,178.8c15.21,6,24.81,30.28,14.2,46.39-9,13.67-29,16-42.76,10.86-3.27-1.22-10-3.73-14-9.93-8.93-13.89-6.41-39.37,11.61-47.54C1402.81,177.08,1420.91,175,1430.51,178.8Z"/><path class="cls-33" d="M1384.53,215.69c-5.33-15.44,6.85-38.54,26-41,16.22-2.08,31,11.55,36,25.36,1.21,3.27,3.7,10.05,1.59,17.11-4.73,15.81-25.7,30.5-43.62,22.15C1401.24,237.81,1387.89,225.43,1384.53,215.69Z"/><polyline class="cls-34" points="1286.23 240.97 1296.04 242.65 1293.44 230.19"/><polyline class="cls-34" points="1246.71 203.72 1261.88 225.78 1271.9 220.12 1280.64 235.99 1284.83 232.14 1295.31 242.09 1284.46 228.42 1280.63 233.55 1271.69 221.53 1264.35 224.54 1245.67 196.44"/></g></g></svg>