<svg xmlns="http://www.w3.org/2000/svg" xmlns:xlink="http://www.w3.org/1999/xlink" viewBox="0 0 818.3 801.45"><defs><style>.cls-1{fill:none;}.cls-2{opacity:0.22;}.cls-3{fill:#2d2d2d;}.cls-4{fill:#8fb38e;}.cls-5{fill:#b286b0;}.cls-6{clip-path:url(#clip-path);}.cls-7{fill:#936393;}</style><clipPath id="clip-path"><circle class="cls-1" cx="118.85" cy="148.98" r="45.96" transform="translate(-49.92 237.51) rotate(-79.1)"/></clipPath></defs><g id="Layer_2" data-name="Layer 2"><g id="Layer_1-2" data-name="Layer 1"><g class="cls-2"><path class="cls-3" d="M782.17,795.45H0V28.6H782.17ZM57.78,738H724.39V86H57.78Z"/><rect class="cls-3" x="511.02" y="598.34" width="49.53" height="85.79"/><polygon class="cls-3" points="661.02 288.26 386.55 288.26 386.55 33.57 446.55 33.57 446.55 228.26 601.02 228.26 601.02 159.57 541.15 159.57 541.15 99.57 661.02 99.57 661.02 288.26"/><polygon class="cls-3" points="538.72 684.51 208.47 684.51 208.47 624.51 478.72 624.51 478.72 527.23 202.98 527.23 202.98 304.6 22.6 304.6 22.6 244.6 262.98 244.6 262.98 467.23 538.72 467.23 538.72 684.51"/></g><path class="cls-4" d="M818.3,801.45H6.13V0H818.3Zm-752.17-60H758.3V60H66.13Z"/><polygon class="cls-4" points="559.91 648.77 229.66 648.77 229.66 588.77 499.92 588.77 499.92 491.49 224.17 491.49 224.17 268.85 43.79 268.85 43.79 208.85 284.17 208.85 284.17 431.49 559.91 431.49 559.91 648.77"/><polygon class="cls-4" points="698.81 289.28 424.34 289.28 424.34 34.6 484.34 34.6 484.34 229.28 638.81 229.28 638.81 160.6 578.94 160.6 578.94 100.6 698.81 100.6 698.81 289.28"/><circle class="cls-5" cx="118.85" cy="148.98" r="45.96" transform="translate(-49.92 237.51) rotate(-79.1)"/><g class="cls-6"><path class="cls-7" d="M158.6,119.53c-6.42.24-.08,33.38-21.79,52.77C116.25,190.65,86.59,182.36,85.74,189c-.75,6,22.48,18.82,45.62,14.3,2.15-.42,24.49-5.17,35.07-25.88C179.65,151.51,165,119.29,158.6,119.53Z"/></g></g></g></svg>