<svg xmlns="http://www.w3.org/2000/svg" xmlns:xlink="http://www.w3.org/1999/xlink" viewBox="0 0 1154.9 1007.22"><defs><style>.cls-1,.cls-8{fill:none;}.cls-2{opacity:0.22;}.cls-3{fill:#2d2d2d;}.cls-4{fill:#8fb38e;}.cls-5{fill:#b286b0;}.cls-6{clip-path:url(#clip-path);}.cls-7{fill:#936393;}.cls-8{stroke:#936393;stroke-miterlimit:10;stroke-width:2px;}.cls-22,.cls-9{font-size:21.56px;font-family:Lato-Bold, Lato;font-weight:700;}.cls-22,.cls-23,.cls-9{fill:#fff;}.cls-10{letter-spacing:-0.01em;}.cls-11{letter-spacing:-0.01em;}.cls-12{letter-spacing:-0.02em;}.cls-13{letter-spacing:-0.02em;}.cls-14{letter-spacing:-0.02em;}.cls-15{letter-spacing:-0.01em;}.cls-16{letter-spacing:0em;}.cls-17{letter-spacing:-0.03em;}.cls-18{letter-spacing:-0.02em;}.cls-19{letter-spacing:-0.01em;}.cls-20{letter-spacing:0em;}.cls-21{letter-spacing:-0.02em;}.cls-22{letter-spacing:-0.11em;}.cls-24{letter-spacing:-0.02em;}</style><clipPath id="clip-path"><circle class="cls-1" cx="360.95" cy="265.34" r="45.96" transform="translate(32.14 569.6) rotate(-79.1)"/></clipPath></defs><g id="Layer_2" data-name="Layer 2"><g id="Layer_1-2" data-name="Layer 1"><g class="cls-2"><path class="cls-3" d="M1024.27,911.81H242.1V145h782.17ZM299.88,854.4h666.6v-652H299.88Z"/><rect class="cls-3" x="753.12" y="714.7" width="49.53" height="85.79"/><polygon class="cls-3" points="903.12 404.62 628.65 404.62 628.65 149.94 688.65 149.94 688.65 344.62 843.12 344.62 843.12 275.94 783.25 275.94 783.25 215.94 903.12 215.94 903.12 404.62"/><polygon class="cls-3" points="780.82 800.87 450.57 800.87 450.57 740.87 720.82 740.87 720.82 643.59 445.08 643.59 445.08 420.96 264.69 420.96 264.69 360.96 505.08 360.96 505.08 583.59 780.82 583.59 780.82 800.87"/></g><path class="cls-4" d="M1060.4,917.81H248.23V116.36H1060.4Zm-752.17-60H1000.4V176.36H308.23Z"/><polygon class="cls-4" points="802.01 765.13 471.76 765.13 471.76 705.13 742.01 705.13 742.01 607.85 466.27 607.85 466.27 385.21 285.88 385.21 285.88 325.21 526.27 325.21 526.27 547.85 802.01 547.85 802.01 765.13"/><polygon class="cls-4" points="940.91 405.64 666.44 405.64 666.44 150.96 726.44 150.96 726.44 345.64 880.91 345.64 880.91 276.96 821.03 276.96 821.03 216.96 940.91 216.96 940.91 405.64"/><circle class="cls-5" cx="360.95" cy="265.34" r="45.96" transform="translate(32.14 569.6) rotate(-79.1)"/><g class="cls-6"><path class="cls-7" d="M400.69,235.89c-6.42.24-.08,33.38-21.78,52.77-20.56,18.35-50.23,10.06-51.07,16.68-.75,6,22.47,18.82,45.62,14.3,2.14-.42,24.49-5.17,35.06-25.88C421.75,267.87,407.06,235.65,400.69,235.89Z"/></g><path class="cls-8" d="M1121,776.49c35.81,41.41,43,100,18.39,147.06-22,41.92-66,68.55-114.39,69.45"/><polygon class="cls-7" points="1030.99 977.39 1013.32 992.48 1030.41 1007.22 1030.99 977.39"/><path class="cls-5" d="M68.91,18.4,218,.64C255.31-2,311.22,2.42,337.86,37c29.28,39.94,8,146.45-24,175.75-9.47,8.67-23.87,13.83-40.51,16.81-.71,15.05,2.32,34.31,19.85,44,0,0-57.33-1.91-79.1-40.31-23.72-.3-46.47-1.83-62.67-1.83-53.27,0-122.5-5.33-143.8-66.58C-13.64,108.93,10.33,34.38,68.91,18.4Z"/><text class="cls-9" transform="matrix(1, 0.02, -0.02, 1, 75.06, 80.89)"><tspan class="cls-10">D</tspan><tspan x="16.26" y="0">oes this a</tspan><tspan class="cls-11" x="106.2" y="0">r</tspan><tspan x="113.93" y="0">ea in</tspan><tspan class="cls-12" x="159.26" y="0"> </tspan><tspan class="cls-13" x="163.96" y="0">y</tspan><tspan x="174.99" y="0">ou</tspan><tspan class="cls-14" x="199.54" y="0">r</tspan><tspan x="-11.58" y="25.88">li</tspan><tspan class="cls-15" x="-0.74" y="25.88">f</tspan><tspan class="cls-16" x="6.69" y="25.88">e ma</tspan><tspan class="cls-17" x="52.45" y="25.88">k</tspan><tspan x="63.42" y="25.88">e</tspan><tspan class="cls-18" x="74.93" y="25.88"> </tspan><tspan class="cls-13" x="79.63" y="25.88">y</tspan><tspan x="90.66" y="25.88">ou sad </tspan><tspan class="cls-19" x="158.35" y="25.88">o</tspan><tspan class="cls-20" x="170.46" y="25.88">ft</tspan><tspan x="185.63" y="25.87">e</tspan><tspan class="cls-21" x="197.15" y="25.88">n</tspan><tspan x="208.79" y="25.88">?</tspan></text><text class="cls-22" transform="translate(91.15 164.9)">Y<tspan class="cls-16" x="11.54" y="0">es</tspan></text><path class="cls-23" d="M109.45,120a38.85,38.85,0,0,0-5.06.47,13.11,13.11,0,0,0-2.5-.14,22.76,22.76,0,0,0-3.58.45c-1.18.24-2.36.54-3.52.87a56.4,56.4,0,0,0-6.85,2.44,41.26,41.26,0,0,0-6.28,3.37,34.76,34.76,0,0,0-2.86,2.13c-.94.78-1.83,1.62-2.7,2.49-.42.43-.84.87-1.25,1.31-1.32,1-2.62,2-3.85,3.1-.71.63-1.39,1.31-2,2s-1.28,1.4-1.88,2.13A26.61,26.61,0,0,0,65.36,143,19.3,19.3,0,0,0,64,145.56c-.42.9-.8,1.82-1.15,2.75s-.66,1.91-1,2.85a.6.6,0,0,0,.26.66.53.53,0,0,0,.75-.21l1-2.22c.33-.77.68-1.53,1-2.29s.73-1.49,1.15-2.2a19.71,19.71,0,0,1,1.3-2c.65-.88,1.36-1.71,2.09-2.52a37.11,37.11,0,0,0-1.92,3.43,26.35,26.35,0,0,0-2.31,7,24.26,24.26,0,0,0-.16,7.48,29.71,29.71,0,0,0,2,7.25,47.17,47.17,0,0,0,3.34,6.62,44.42,44.42,0,0,0,4.26,6,32.73,32.73,0,0,0,11.31,8.43,39.78,39.78,0,0,0,14,3.4,41,41,0,0,0,7.27-.21,39.94,39.94,0,0,0,7.16-1.48,36.56,36.56,0,0,0,6.6-2.76,36,36,0,0,0,5.82-3.92,31,31,0,0,0,8.54-11.45,41.13,41.13,0,0,0,3.15-14.76,49.9,49.9,0,0,0-.33-7.73,42.4,42.4,0,0,0-1.59-7.5c-.37-1.19-.8-2.37-1.25-3.53a32.25,32.25,0,0,0-1.55-3.44,24.75,24.75,0,0,0-4.32-5.76,27.06,27.06,0,0,0-2.75-2.39,23.25,23.25,0,0,0-3-1.94,25.33,25.33,0,0,0-6.81-2.49,30.84,30.84,0,0,0-6.43-.65Zm-7.41.82h.41l-.41.08a66.85,66.85,0,0,0-13.88,4.72c-2.21,1-4.39,2.08-6.51,3.28-1,.59-2.07,1.21-3.08,1.86l-.77.51c.58-.55,1.18-1.07,1.79-1.58a33.82,33.82,0,0,1,4.18-2.89,42.33,42.33,0,0,1,4.45-2.27h0l0,0h0c.91-.4,1.84-.78,2.77-1.12s1.94-.67,2.92-1a38.79,38.79,0,0,1,5.89-1.4h0a20.56,20.56,0,0,1,2.22-.19Zm12.46,1.28a27.17,27.17,0,0,1,3.34.71,24.87,24.87,0,0,1,3.23,1.16,23.58,23.58,0,0,1,5.13,3.15,26.56,26.56,0,0,1,4.46,4.65,24,24,0,0,1,1.78,2.86,34.41,34.41,0,0,1,1.47,3.21,47.74,47.74,0,0,1,1.72,5.1,41.71,41.71,0,0,1,1.13,5.64,47.79,47.79,0,0,1,0,11.89,37.38,37.38,0,0,1-2.27,8.91l.05-.12a31.4,31.4,0,0,1-3.79,6.86,29.76,29.76,0,0,1-2.35,2.78,28.19,28.19,0,0,1-2.73,2.51l.08-.06a36.18,36.18,0,0,1-3.69,2.61,35,35,0,0,1-4,2.11l.09,0a37.57,37.57,0,0,1-4.79,1.74,39.26,39.26,0,0,1-5.15,1.08,40.87,40.87,0,0,1-11.34,0h0a38.77,38.77,0,0,1-10.3-2.9,33.6,33.6,0,0,1-7.31-4.44h0l-.08-.06,0,0a32.9,32.9,0,0,1-3.23-3,38.77,38.77,0,0,1-2.82-3.44,48,48,0,0,1-3.09-4.85,46.91,46.91,0,0,1-2.5-5.14l0,.05a30.17,30.17,0,0,1-2-7.24v0a23.69,23.69,0,0,1,0-5.91v0a26.42,26.42,0,0,1,1.57-5.94l0,0,0-.08h0a35.82,35.82,0,0,1,4.33-7.59l.42-.55c.41-.37.83-.73,1.25-1.08,1.15-.92,2.32-1.8,3.5-2.67s2.53-1.77,3.84-2.57a74.24,74.24,0,0,1,8.26-4.28l-.2.09a81,81,0,0,1,8-3.13,49.81,49.81,0,0,1,8.24-1.94c.86-.12,1.71-.21,2.56-.27l.56.22-.06,0,.12.06a.23.23,0,0,0,.31-.09.22.22,0,0,0,0-.22,32.23,32.23,0,0,1,6,.25Zm-.21,0,.13,0-.13,0Zm-9.16.08h0Zm21.1,5,.11.09-.11-.09Zm7.61,10.53,0,.07,0-.07Zm-62.21.59,0,0,0,0Zm-4.31,4.58-.06.08.06-.08Zm-.09.12,0,0,0,0Zm29.54,45.9h0Zm-17.51-7.32h0l0,0,0,0Zm-13.6-23.69v0Zm0-6v0Zm1.59-6,0,0,0-.05Zm21-21.41,0,0,0,0Z"/><text class="cls-9" transform="translate(214.1 164.9)"><tspan class="cls-24">N</tspan><tspan x="16.28" y="0">o</tspan></text></g></g></svg>