<svg xmlns="http://www.w3.org/2000/svg" viewBox="0 0 818.3 801.45"><defs><style>.cls-1{opacity:0.22;}.cls-2{fill:#2d2d2d;}.cls-3{fill:#8fb38e;}</style></defs><g id="Layer_2" data-name="Layer 2"><g id="Layer_1-2" data-name="Layer 1"><g class="cls-1"><path class="cls-2" d="M782.17,795.45H0V28.6H782.17ZM57.78,738H724.39V86H57.78Z"/><rect class="cls-2" x="511.02" y="598.34" width="49.53" height="85.79"/><polygon class="cls-2" points="661.02 288.26 386.55 288.26 386.55 33.57 446.55 33.57 446.55 228.26 601.02 228.26 601.02 159.57 541.15 159.57 541.15 99.57 661.02 99.57 661.02 288.26"/><polygon class="cls-2" points="538.72 684.51 208.47 684.51 208.47 624.51 478.72 624.51 478.72 527.23 202.98 527.23 202.98 304.6 22.6 304.6 22.6 244.6 262.98 244.6 262.98 467.23 538.72 467.23 538.72 684.51"/></g><path class="cls-3" d="M818.3,801.45H6.13V0H818.3Zm-752.17-60H758.3V60H66.13Z"/><polygon class="cls-3" points="559.91 648.77 229.66 648.77 229.66 588.77 499.92 588.77 499.92 491.49 224.17 491.49 224.17 268.85 43.79 268.85 43.79 208.85 284.17 208.85 284.17 431.49 559.91 431.49 559.91 648.77"/><polygon class="cls-3" points="698.81 289.28 424.34 289.28 424.34 34.6 484.34 34.6 484.34 229.28 638.81 229.28 638.81 160.6 578.94 160.6 578.94 100.6 698.81 100.6 698.81 289.28"/></g></g></svg>