<svg xmlns="http://www.w3.org/2000/svg" xmlns:xlink="http://www.w3.org/1999/xlink" viewBox="0 0 801.45 818.3"><defs><style>.cls-1{fill:none;}.cls-2{opacity:0.22;}.cls-3{fill:#2d2d2d;}.cls-4{fill:#8fb38e;}.cls-5{fill:#b286b0;}.cls-6{clip-path:url(#clip-path);}.cls-7{fill:#936393;}</style><clipPath id="clip-path"><circle class="cls-1" cx="654.34" cy="366.26" r="45.96" transform="translate(170.95 939.53) rotate(-79.1)"/></clipPath></defs><g id="Layer_2" data-name="Layer 2"><g id="Layer_1-2" data-name="Layer 1"><g class="cls-2"><path class="cls-3" d="M6,782.17V0H772.85V782.17ZM63.41,57.78V724.39h652V57.78Z"/><rect class="cls-3" x="135.45" y="492.89" width="49.53" height="85.79" transform="translate(696 375.57) rotate(90)"/><polygon class="cls-3" points="513.19 661.02 513.19 386.55 767.87 386.55 767.87 446.55 573.19 446.55 573.19 601.02 641.87 601.02 641.87 541.15 701.87 541.15 701.87 661.02 513.19 661.02"/><polygon class="cls-3" points="116.94 538.72 116.94 208.47 176.94 208.47 176.94 478.72 274.21 478.72 274.21 202.98 496.85 202.98 496.85 22.6 556.85 22.6 556.85 262.98 334.21 262.98 334.21 538.72 116.94 538.72"/></g><path class="cls-4" d="M0,818.3V6.13H801.45V818.3ZM60,66.13V758.3H741.45V66.13Z"/><polygon class="cls-4" points="152.68 559.91 152.68 229.66 212.68 229.66 212.68 499.92 309.96 499.92 309.96 224.17 532.6 224.17 532.6 43.79 592.6 43.79 592.6 284.17 369.96 284.17 369.96 559.91 152.68 559.91"/><polygon class="cls-4" points="512.17 698.81 512.17 424.34 766.85 424.34 766.85 484.34 572.17 484.34 572.17 638.81 640.85 638.81 640.85 578.94 700.85 578.94 700.85 698.81 512.17 698.81"/><circle class="cls-5" cx="654.34" cy="366.26" r="45.96" transform="translate(170.95 939.53) rotate(-79.1)"/><g class="cls-6"><path class="cls-7" d="M694.09,336.81c-6.42.24-.08,33.38-21.79,52.76-20.55,18.36-50.22,10.07-51.06,16.69-.76,5.95,22.47,18.82,45.61,14.29,2.15-.42,24.49-5.16,35.07-25.87C715.14,368.79,700.45,336.57,694.09,336.81Z"/></g></g></g></svg>