<svg xmlns="http://www.w3.org/2000/svg" xmlns:xlink="http://www.w3.org/1999/xlink" viewBox="0 0 801.45 818.3"><defs><style>.cls-1{fill:none;}.cls-2{opacity:0.22;}.cls-3{fill:#2d2d2d;}.cls-4{fill:#8fb38e;}.cls-5{fill:#b286b0;}.cls-6{clip-path:url(#clip-path);}.cls-7{fill:#936393;}</style><clipPath id="clip-path"><circle class="cls-1" cx="690.38" cy="694.74" r="45.96" transform="translate(-122.37 1241.28) rotate(-79.1)"/></clipPath></defs><g id="Layer_2" data-name="Layer 2"><g id="Layer_1-2" data-name="Layer 1"><g class="cls-2"><path class="cls-3" d="M795.45,36.13V818.3H28.6V36.13ZM738,760.51V93.91H86v666.6Z"/><rect class="cls-3" x="616.47" y="239.62" width="49.53" height="85.79" transform="translate(358.72 923.75) rotate(-90)"/><polygon class="cls-3" points="288.26 157.28 288.26 431.75 33.58 431.75 33.58 371.75 228.26 371.75 228.26 217.28 159.57 217.28 159.57 277.15 99.58 277.15 99.58 157.28 288.26 157.28"/><polygon class="cls-3" points="684.51 279.57 684.51 609.83 624.51 609.83 624.51 339.57 527.23 339.57 527.23 615.32 304.6 615.32 304.6 795.7 244.6 795.7 244.6 555.32 467.23 555.32 467.23 279.57 684.51 279.57"/></g><path class="cls-4" d="M801.45,0V812.17H0V0Zm-60,752.17V60H60V752.17Z"/><polygon class="cls-4" points="648.77 258.38 648.77 588.64 588.77 588.64 588.77 318.38 491.49 318.38 491.49 594.13 268.85 594.13 268.85 774.51 208.85 774.51 208.85 534.13 431.49 534.13 431.49 258.38 648.77 258.38"/><polygon class="cls-4" points="289.28 119.49 289.28 393.96 34.6 393.96 34.6 333.96 229.28 333.96 229.28 179.49 160.6 179.49 160.6 239.36 100.6 239.36 100.6 119.49 289.28 119.49"/><circle class="cls-5" cx="690.38" cy="694.74" r="45.96" transform="translate(-122.37 1241.28) rotate(-79.1)"/><g class="cls-6"><path class="cls-7" d="M730.13,665.29c-6.42.24-.08,33.38-21.79,52.76-20.55,18.36-50.22,10.07-51.06,16.69-.76,6,22.47,18.82,45.61,14.29,2.15-.42,24.49-5.16,35.07-25.87C751.19,697.27,736.49,665.05,730.13,665.29Z"/></g></g></g></svg>