<svg width="315" height="157" viewBox="0 0 315 157" fill="none" xmlns="http://www.w3.org/2000/svg">
<path d="M206.257 14.5918C188.727 8.91877 168.233 11.3853 150.455 14.0985C126.258 18.045 102.307 25.198 80.3319 36.2975C62.3073 45.4237 43.295 58.4964 35.1468 77.7356C26.9987 96.9747 34.4061 119.42 50.4554 132.246C71.6899 149.019 102.801 150.992 128.974 151.486C162.801 152.472 195.887 149.019 228.48 139.399C246.504 134.22 264.035 126.82 280.331 117.694C294.158 110.047 310.455 99.9345 314.405 83.4086C317.615 69.3493 307.245 56.7699 297.368 48.1369C283.294 35.5575 265.517 27.1712 247.739 21.0049C214.406 9.1654 174.653 5.46558 139.838 11.8786C116.381 16.3184 93.4183 25.6913 72.4307 36.5441C45.5172 50.6035 -13.2481 87.3551 17.1222 123.86C25.2703 133.726 37.616 139.893 49.2209 144.826C67.7393 152.719 87.9862 155.925 107.739 156.172C145.764 156.912 182.06 145.319 216.628 130.52C242.554 119.42 270.208 107.334 289.961 86.6152C305.763 70.0893 312.183 45.1771 296.381 26.4313C281.072 8.42543 252.677 3.73898 230.455 1.27243C203.048 -1.68743 175.393 0.779145 148.48 5.9589C113.171 12.8653 78.3566 25.6913 48.4801 46.1637C35.1468 55.2899 23.0481 66.1428 13.1716 78.7222C7.98641 85.1352 3.29507 92.2882 1.07286 100.428C-7.81601 132.986 40.8258 139.646 62.3073 141.866C102.801 146.059 144.529 142.853 184.776 136.933C200.085 134.713 215.146 131.013 230.208 127.067C251.689 121.394 278.603 113.501 290.702 93.0282C303.541 71.3225 286.01 44.6838 268.726 31.3644C246.751 14.5918 216.875 10.3987 189.961 9.41206C173.418 8.6721 156.628 9.65871 140.085 11.1386C137.616 11.3853 137.616 15.0851 140.085 14.8385C168.233 12.6186 196.628 11.3853 224.529 17.0584C253.171 22.7315 282.554 38.2707 290.455 68.6093C298.109 97.9613 265.27 112.514 242.801 119.914C226.257 125.34 209.22 129.533 192.183 132.493C165.023 136.933 -21.1493 158.392 7.49259 95.4947C12.4308 84.3952 21.3197 75.269 29.7148 66.8827C43.048 54.0567 58.8505 43.6971 75.1467 35.3109C108.48 18.045 146.011 8.6721 183.295 5.21893C218.85 1.76576 317.121 3.98566 301.072 62.6896C293.418 91.055 259.344 107.334 235.146 118.927C202.307 134.466 168.233 147.786 131.69 151.732C95.8874 155.679 50.2085 150.746 22.8012 124.353C6.25802 108.321 14.1592 88.5884 27.7394 73.7891C44.7764 55.5366 67.9863 42.7105 90.7022 32.5976C113.912 21.9915 138.11 14.8385 163.788 13.6052C206.504 11.632 251.196 20.2649 286.998 44.6838C302.06 54.7966 319.097 72.0625 308.479 91.055C303.294 100.181 293.665 106.348 285.023 111.527C276.628 116.707 267.739 121.147 258.85 125.093C223.541 140.633 184.776 148.279 146.258 148.279C118.11 148.279 86.9985 148.279 61.5665 134.713C39.5913 123.12 29.4678 96.9747 41.5666 74.7757C52.4307 54.55 75.6405 42.2172 95.8874 33.8309C115.147 25.6913 135.64 20.5115 156.381 17.305C172.183 15.0851 190.455 13.1119 206.011 18.2917C207.492 18.785 208.48 15.3318 206.257 14.5918Z" fill="#FFB33D"/>
</svg>
