<svg width="105" height="53" viewBox="0 0 105 53" fill="none" xmlns="http://www.w3.org/2000/svg">
<path d="M68.7525 47.2045C62.9089 49.0956 56.0776 48.2734 50.1517 47.369C42.0859 46.0535 34.1024 43.6692 26.7773 39.9693C20.7691 36.9272 14.4317 32.5697 11.7156 26.1566C8.99957 19.7436 11.4687 12.2617 16.8185 7.98637C23.8966 2.39551 34.267 1.73775 42.9912 1.57331C54.2669 1.24444 65.2957 2.39549 76.1599 5.60201C82.1681 7.3286 88.0117 9.79517 93.4438 12.8372C98.0528 15.386 103.485 18.757 104.802 24.2656C105.872 28.9521 102.415 33.1452 99.1228 36.0228C94.4314 40.216 88.5055 43.0114 82.5796 45.0669C71.4685 49.0133 58.2175 50.2466 46.6126 48.1089C38.7937 46.629 31.1394 43.5047 24.1436 39.8871C15.1724 35.2007 -4.41603 22.9501 5.7074 10.7818C8.42344 7.49305 12.5387 5.43759 16.407 3.79322C22.5798 1.16223 29.3287 0.0933876 35.9131 0.0111694C48.5879 -0.235489 60.6867 3.62877 72.2093 8.56188C80.8512 12.2617 90.0693 16.2904 96.6536 23.1968C101.921 28.7054 104.061 37.0095 98.7936 43.2581C93.6907 49.26 84.2257 50.8222 76.8183 51.6443C67.6825 52.631 58.4645 51.8088 49.4933 50.0822C37.7238 47.7801 26.1189 43.5047 16.16 36.6806C11.7156 33.6385 7.6827 30.0209 4.39053 25.8277C2.66214 23.6901 1.09836 21.3057 0.357618 18.5925C-2.60534 7.7397 13.6086 5.51979 20.7691 4.77983C34.267 3.38211 48.1764 4.45095 61.592 6.42419C66.6949 7.16416 71.7154 8.39744 76.736 9.71293C83.8965 11.604 92.8677 14.235 96.9006 21.0591C101.18 28.2943 95.3368 37.1739 89.5755 41.6137C82.2504 47.2045 72.2916 48.6023 63.3204 48.9311C57.806 49.1778 52.2093 48.8489 46.6949 48.3556C45.8719 48.2734 45.8719 47.0401 46.6949 47.1223C56.0776 47.8623 65.5426 48.2734 74.843 46.3824C84.3903 44.4913 94.1845 39.3116 96.8183 29.1987C99.3697 19.4147 88.4232 14.5638 80.9335 12.0973C75.4191 10.2885 69.7401 8.89076 64.0611 7.90414C55.0077 6.42421 -7.04977 -0.728794 2.49753 20.2369C4.14362 23.9367 7.10657 26.9788 9.90492 29.7742C14.3493 34.0496 19.6168 37.5028 25.0489 40.2982C36.16 46.0535 48.6702 49.1778 61.0982 50.3288C72.95 51.4799 105.707 50.7399 100.357 31.1719C97.8059 21.7168 86.4479 16.2904 78.3821 12.4262C67.4356 7.2464 56.0776 2.80658 43.8966 1.49109C31.9625 0.175594 16.7362 1.81997 7.6004 10.6173C2.08601 15.9615 4.71975 22.539 9.24648 27.4721C14.9255 33.5563 22.6621 37.8316 30.2341 41.2026C37.9707 44.738 46.0365 47.1223 54.5962 47.5334C68.8348 48.1912 83.7319 45.3135 95.666 37.1739C100.687 33.8029 106.366 28.0476 102.826 21.7168C101.098 18.6747 97.8882 16.6193 95.0076 14.8927C92.2092 13.1661 89.2463 11.6862 86.2833 10.3707C74.5138 5.19093 61.592 2.64217 48.7525 2.64217C39.3699 2.64217 28.9995 2.64217 20.5222 7.16418C13.1971 11.0284 9.82261 19.7436 13.8555 27.1432C17.4769 33.8852 25.2135 37.9961 31.9625 40.7915C38.3822 43.5047 45.2135 45.2313 52.127 46.3001C57.3945 47.0401 63.485 47.6978 68.6702 45.9713C69.164 45.8068 69.4932 46.9579 68.7525 47.2045Z" fill="#A583AE"/>
</svg>
