<svg width="105" height="53" viewBox="0 0 105 53" fill="none" xmlns="http://www.w3.org/2000/svg">
<path d="M68.7525 47.2047C62.9089 49.0957 56.0776 48.2735 50.1517 47.3691C42.0859 46.0536 34.1024 43.6693 26.7773 39.9694C20.7691 36.9274 14.4317 32.5698 11.7156 26.1567C8.99957 19.7437 11.4687 12.2618 16.8185 7.98649C23.8966 2.39563 34.267 1.73787 42.9912 1.57344C54.2669 1.24456 65.2957 2.39561 76.1599 5.60213C82.1681 7.32872 88.0117 9.79529 93.4438 12.8374C98.0528 15.3861 103.485 18.7571 104.802 24.2657C105.872 28.9522 102.415 33.1453 99.1228 36.023C94.4314 40.2161 88.5055 43.0115 82.5796 45.067C71.4685 49.0135 58.2175 50.2467 46.6126 48.1091C38.7937 46.6291 31.1394 43.5048 24.1436 39.8872C15.1724 35.2008 -4.41603 22.9502 5.7074 10.7819C8.42344 7.49317 12.5387 5.43771 16.407 3.79334C22.5798 1.16235 29.3287 0.0935097 35.9131 0.0112915C48.5879 -0.235367 60.6867 3.62889 72.2093 8.562C80.8512 12.2618 90.0693 16.2905 96.6536 23.1969C101.921 28.7055 104.061 37.0096 98.7936 43.2582C93.6907 49.2601 84.2257 50.8223 76.8183 51.6445C67.6825 52.6311 58.4645 51.8089 49.4933 50.0823C37.7238 47.7802 26.1189 43.5048 16.16 36.6807C11.7156 33.6386 7.6827 30.021 4.39053 25.8279C2.66214 23.6902 1.09836 21.3059 0.357618 18.5927C-2.60534 7.73983 13.6086 5.51991 20.7691 4.77995C34.267 3.38224 48.1764 4.45108 61.592 6.42432C66.6949 7.16428 71.7154 8.39756 76.736 9.71305C83.8965 11.6041 92.8677 14.2351 96.9006 21.0592C101.18 28.2944 95.3368 37.174 89.5755 41.6138C82.2504 47.2047 72.2916 48.6024 63.3204 48.9312C57.806 49.1779 52.2093 48.849 46.6949 48.3557C45.8719 48.2735 45.8719 47.0402 46.6949 47.1224C56.0776 47.8624 65.5426 48.2735 74.843 46.3825C84.3903 44.4914 94.1845 39.3117 96.8183 29.1988C99.3697 19.4148 88.4232 14.564 80.9335 12.0974C75.4191 10.2886 69.7401 8.89088 64.0611 7.90426C55.0077 6.42433 -7.04977 -0.728672 2.49753 20.237C4.14362 23.9369 7.10657 26.9789 9.90492 29.7744C14.3493 34.0497 19.6168 37.5029 25.0489 40.2983C36.16 46.0536 48.6702 49.1779 61.0982 50.329C72.95 51.48 105.707 50.74 100.357 31.1721C97.8059 21.7169 86.4479 16.2905 78.3821 12.4263C67.4356 7.24652 56.0776 2.80671 43.8966 1.49121C31.9625 0.175716 16.7362 1.82009 7.6004 10.6175C2.08601 15.9617 4.71975 22.5391 9.24648 27.4722C14.9255 33.5564 22.6621 37.8318 30.2341 41.2027C37.9707 44.7381 46.0365 47.1224 54.5962 47.5335C68.8348 48.1913 83.7319 45.3136 95.666 37.174C100.687 33.8031 106.366 28.0478 102.826 21.7169C101.098 18.6749 97.8882 16.6194 95.0076 14.8928C92.2092 13.1662 89.2463 11.6863 86.2833 10.3708C74.5138 5.19106 61.592 2.64229 48.7525 2.64229C39.3699 2.64229 28.9995 2.64229 20.5222 7.1643C13.1971 11.0286 9.82261 19.7437 13.8555 27.1434C17.4769 33.8853 25.2135 37.9962 31.9625 40.7916C38.3822 43.5048 45.2135 45.2314 52.127 46.3003C57.3945 47.0402 63.485 47.698 68.6702 45.9714C69.164 45.8069 69.4932 46.958 68.7525 47.2047Z" fill="#7DC7AE"/>
</svg>
