<svg width="23" height="31" viewBox="0 0 23 31" fill="none" xmlns="http://www.w3.org/2000/svg">
<g clip-path="url(#clip0)">
<path opacity="0.4" d="M13.4167 0H9.58333C7.04168 0 4.60412 1.02064 2.80689 2.8374C1.00967 4.65416 0 7.11822 0 9.6875L0 21.3125C0 23.8818 1.00967 26.3458 2.80689 28.1626C4.60412 29.9794 7.04168 31 9.58333 31H13.4167C14.6752 31 15.9213 30.7494 17.084 30.2626C18.2468 29.7757 19.3032 29.0622 20.1931 28.1626C21.083 27.263 21.7889 26.1951 22.2705 25.0197C22.7521 23.8444 23 22.5847 23 21.3125V9.6875C23 8.41532 22.7521 7.1556 22.2705 5.98025C21.7889 4.80491 21.083 3.73697 20.1931 2.8374C19.3032 1.93784 18.2468 1.22426 17.084 0.737417C15.9213 0.250575 14.6752 0 13.4167 0V0ZM13.4167 9.6875C13.4167 10.2014 13.2147 10.6942 12.8553 11.0575C12.4958 11.4209 12.0083 11.625 11.5 11.625C10.9917 11.625 10.5042 11.4209 10.1447 11.0575C9.78527 10.6942 9.58333 10.2014 9.58333 9.6875V7.75C9.58333 7.23614 9.78527 6.74333 10.1447 6.37998C10.5042 6.01663 10.9917 5.8125 11.5 5.8125C12.0083 5.8125 12.4958 6.01663 12.8553 6.37998C13.2147 6.74333 13.4167 7.23614 13.4167 7.75V9.6875Z" fill="#92B48D"/>
<path d="M13.4168 9.6875C13.4168 10.2014 13.2149 10.6942 12.8555 11.0575C12.496 11.4209 12.0085 11.625 11.5002 11.625C10.9918 11.625 10.5043 11.4209 10.1449 11.0575C9.78543 10.6942 9.5835 10.2014 9.5835 9.6875V7.75C9.5835 7.23614 9.78543 6.74333 10.1449 6.37998C10.5043 6.01663 10.9918 5.8125 11.5002 5.8125C12.0085 5.8125 12.496 6.01663 12.8555 6.37998C13.2149 6.74333 13.4168 7.23614 13.4168 7.75V9.6875Z" fill="#92B48D"/>
</g>
<defs>
<clipPath id="clip0">
<rect width="23" height="31" fill="white"/>
</clipPath>
</defs>
</svg>
