<svg width="19" height="21" viewBox="0 0 19 21" fill="none" xmlns="http://www.w3.org/2000/svg">
<path opacity="0.4" d="M8.53942 11.7116L0.299014 3.73817C0.204253 3.64706 0.129051 3.53874 0.0777343 3.41943C0.026418 3.30012 0 3.17217 0 3.04295C0 2.91373 0.026418 2.78578 0.0777343 2.66647C0.129051 2.54716 0.204253 2.43884 0.299014 2.34774L1.26174 1.41668C1.45299 1.23339 1.71135 1.13055 1.9806 1.13055C2.24985 1.13055 2.50821 1.23339 2.69946 1.41668L9.2604 7.73309L15.8213 1.41668C15.9155 1.32504 16.0275 1.25231 16.1509 1.20268C16.2743 1.15305 16.4066 1.1275 16.5402 1.1275C16.6738 1.1275 16.8061 1.15305 16.9295 1.20268C17.0529 1.25231 17.1649 1.32504 17.2591 1.41668L18.2218 2.34774C18.3165 2.43884 18.3917 2.54716 18.4431 2.66647C18.4944 2.78578 18.5208 2.91373 18.5208 3.04295C18.5208 3.17217 18.4944 3.30012 18.4431 3.41943C18.3917 3.53874 18.3165 3.64706 18.2218 3.73817L9.98138 11.7116C9.7893 11.895 9.53028 11.9978 9.2604 11.9978C8.99052 11.9978 8.73149 11.895 8.53942 11.7116Z" fill="black"/>
<path d="M8.53942 19.5866L0.299014 11.6132C0.204253 11.5221 0.129051 11.4137 0.0777343 11.2944C0.026418 11.1751 0 11.0472 0 10.918C0 10.7887 0.026418 10.6608 0.0777343 10.5415C0.129051 10.4222 0.204253 10.3138 0.299014 10.2227L1.26174 9.29168C1.35594 9.20004 1.46794 9.12731 1.59131 9.07768C1.71468 9.02805 1.84698 9.0025 1.9806 9.0025C2.11422 9.0025 2.24651 9.02805 2.36988 9.07768C2.49325 9.12731 2.60526 9.20004 2.69946 9.29168L9.2604 15.6081L15.8213 9.29168C16.0126 9.10839 16.2709 9.00555 16.5402 9.00555C16.8095 9.00555 17.0678 9.10839 17.2591 9.29168L18.2218 10.2227C18.3165 10.3138 18.3917 10.4222 18.4431 10.5415C18.4944 10.6608 18.5208 10.7887 18.5208 10.918C18.5208 11.0472 18.4944 11.1751 18.4431 11.2944C18.3917 11.4137 18.3165 11.5221 18.2218 11.6132L9.98138 19.5866C9.7893 19.77 9.53028 19.8728 9.2604 19.8728C8.99052 19.8728 8.73149 19.77 8.53942 19.5866Z" fill="black"/>
</svg>
