<svg xmlns="http://www.w3.org/2000/svg" viewBox="0 0 76.6 70.08"><defs><style>.cls-1{fill:#b286b0;}</style></defs><g id="Layer_2" data-name="Layer 2"><g id="Layer_1-2" data-name="Layer 1"><path class="cls-1" d="M47.66,0A39.17,39.17,0,0,0,42.6.48,13.11,13.11,0,0,0,40.1.34a22.76,22.76,0,0,0-3.58.45c-1.18.24-2.35.53-3.52.87A54.62,54.62,0,0,0,26.16,4.1a41.36,41.36,0,0,0-6.29,3.37A32.62,32.62,0,0,0,17,9.6c-.94.78-1.83,1.62-2.69,2.49-.43.43-.85.87-1.26,1.31-1.32,1-2.62,2-3.85,3.1-.71.63-1.38,1.3-2,2s-1.28,1.4-1.88,2.13A26.61,26.61,0,0,0,3.57,23a19.3,19.3,0,0,0-1.39,2.57c-.42.9-.79,1.82-1.15,2.75s-.66,1.9-1,2.85a.59.59,0,0,0,.25.66.54.54,0,0,0,.43.06A.58.58,0,0,0,1,31.63c.31-.74.62-1.48.94-2.22s.68-1.53,1-2.29.73-1.49,1.14-2.2.84-1.34,1.3-2a31.5,31.5,0,0,1,2.1-2.52,33.73,33.73,0,0,0-1.93,3.42,26.91,26.91,0,0,0-2.31,7A24.55,24.55,0,0,0,3,34.6a22.48,22.48,0,0,0,.22,3.75,29.81,29.81,0,0,0,2,7.25,47.17,47.17,0,0,0,3.34,6.62,45.74,45.74,0,0,0,4.26,6,32.77,32.77,0,0,0,11.32,8.43A39.94,39.94,0,0,0,38,70a41.19,41.19,0,0,0,7.28-.21,39.83,39.83,0,0,0,7.15-1.48,37,37,0,0,0,6.6-2.76,35,35,0,0,0,5.82-3.93,30.83,30.83,0,0,0,8.54-11.44,41.13,41.13,0,0,0,3.15-14.76,48.69,48.69,0,0,0-.33-7.73,42.4,42.4,0,0,0-1.59-7.5c-.37-1.2-.8-2.37-1.25-3.53a31.34,31.34,0,0,0-1.55-3.45,24.69,24.69,0,0,0-4.32-5.75,25.87,25.87,0,0,0-2.75-2.39,23.25,23.25,0,0,0-3-1.94A25,25,0,0,0,55,.65,30.81,30.81,0,0,0,48.55,0ZM40.25.82h.41L40.25.9A67,67,0,0,0,26.37,5.62C24.16,6.6,22,7.7,19.86,8.89c-1,.59-2.07,1.22-3.08,1.87l-.77.51c.58-.55,1.18-1.08,1.8-1.58A33,33,0,0,1,22,6.8a42.33,42.33,0,0,1,4.45-2.27h0l0,0h0c.92-.4,1.84-.78,2.78-1.12s1.94-.67,2.91-1A38.79,38.79,0,0,1,38.05,1h0c.74-.1,1.48-.17,2.22-.2ZM52.71,2.11A26.05,26.05,0,0,1,59.29,4a24.91,24.91,0,0,1,5.13,3.15,27.36,27.36,0,0,1,4.46,4.66,26.05,26.05,0,0,1,1.77,2.85,34.59,34.59,0,0,1,1.47,3.22A50.14,50.14,0,0,1,73.85,23,43.28,43.28,0,0,1,75,28.59a47.71,47.71,0,0,1,0,11.88,37.32,37.32,0,0,1-2.26,8.92l0-.12A31.4,31.4,0,0,1,69,56.13a32.76,32.76,0,0,1-2.34,2.78,29.53,29.53,0,0,1-2.74,2.51l.08-.06A36.18,36.18,0,0,1,60.28,64a35.76,35.76,0,0,1-4,2.11l.09,0a36.57,36.57,0,0,1-9.94,2.82,42,42,0,0,1-5.6.41,40.8,40.8,0,0,1-5.74-.39h0A39.15,39.15,0,0,1,24.78,66a33.3,33.3,0,0,1-7.3-4.44h0l-.08-.06.05,0a34.15,34.15,0,0,1-3.23-3,38.77,38.77,0,0,1-2.82-3.44A51,51,0,0,1,8.3,50.22a45.1,45.1,0,0,1-2.49-5.14l0,.05a30.17,30.17,0,0,1-1.95-7.24v0a23.69,23.69,0,0,1,0-5.91v-.06h0A25.79,25.79,0,0,1,5.45,26l0,0,0-.09h0A36.26,36.26,0,0,1,9.8,18.32l.42-.56c.41-.36.83-.72,1.26-1.07,1.14-.92,2.31-1.81,3.49-2.67s2.53-1.77,3.84-2.57a71,71,0,0,1,8.26-4.28l-.2.08a86.24,86.24,0,0,1,8-3.13,50.68,50.68,0,0,1,8.25-1.93c.85-.12,1.7-.21,2.56-.28l.55.22-.06,0,.12.05a.23.23,0,0,0,.32-.08.24.24,0,0,0,0-.22,32.23,32.23,0,0,1,6.05.25Zm-.21,0,.13,0-.13,0Zm-9.16.08h0Zm21.11,5,.11.09-.11-.09Zm7.6,10.53,0,.07,0-.07Zm-62.21.59,0,0,0,0ZM5.53,22.85l-.06.08.06-.08ZM5.45,23l0,.05,0-.05ZM35,68.87h0ZM17.47,61.55h0l0,0,0,0ZM3.87,37.86v0Zm0-6v0Zm1.59-6,0,.05s0,0,0-.05Zm21-21.4,0,0,0,0Z"/></g></g></svg>