<svg xmlns="http://www.w3.org/2000/svg" viewBox="0 0 209.81 386.83"><defs><style>.cls-1{fill:#8fb38e;}.cls-2{fill:#7dc7ae;}.cls-3{fill:#a5add1;}.cls-4{fill:#a682ae;}.cls-5{fill:#ffb23c;}.cls-6{fill:none;stroke:#69acc7;stroke-miterlimit:10;stroke-width:0.89px;}</style></defs><g id="Layer_2" data-name="Layer 2"><g id="Layer_1-2" data-name="Layer 1"><path class="cls-1" d="M10.9,367.14H9.14v11.14H11.3v.63H.5v-.63H2.66v-22H.5v-.63h10a28.76,28.76,0,0,1,6.13.45,6.43,6.43,0,0,1,2.55,1.08,5,5,0,0,1,1.59,4.12c0,1.89-.46,3.23-1.39,4a7.35,7.35,0,0,1-4.26,1.45v.1a5.86,5.86,0,0,1,3.76,1.59A6.38,6.38,0,0,1,20,372.6v1.76a9.72,9.72,0,0,0,.18,2.33.77.77,0,0,0,.78.59,1.08,1.08,0,0,0,.95-.54,7.42,7.42,0,0,0,.65-2.32l.57.07a7.15,7.15,0,0,1-1.28,3.79c-.61.64-1.83,1-3.65,1A5,5,0,0,1,14.31,378c-.76-.86-1.14-2.46-1.14-4.81v-2.43a5.8,5.8,0,0,0-.49-2.72A1.85,1.85,0,0,0,10.9,367.14ZM9.14,356.27v10.24h1.07A3.37,3.37,0,0,0,13,365.35a6.26,6.26,0,0,0,.91-3.79v-1c0-1.75-.29-2.9-.88-3.47a4,4,0,0,0-2.81-.85Z" transform="translate(-0.5)"/><path class="cls-1" d="M26.11,377A8.49,8.49,0,0,1,24,370.88a7.56,7.56,0,0,1,2.41-6,9,9,0,0,1,6.13-2.09q7.55,0,7.25,7.58H30.39v1.29a11.3,11.3,0,0,0,.83,4.92,3,3,0,0,0,2.89,1.66q3.86,0,5-4.12l.6.1a6.87,6.87,0,0,1-2.28,3.73,7.76,7.76,0,0,1-4.93,1.32Q28.26,379.24,26.11,377Zm4.31-7.37h3.42V368a14.11,14.11,0,0,0-.31-3.67,1.24,1.24,0,0,0-1.27-1,1.48,1.48,0,0,0-1.39,1,10.15,10.15,0,0,0-.45,3.61Z" transform="translate(-0.5)"/><path class="cls-1" d="M40.82,354H49v24.33h1.86v.6H41v-.6h1.83V354.58h-2Z" transform="translate(-0.5)"/><path class="cls-1" d="M59.44,371.1h1v-2.56a16.67,16.67,0,0,0-.35-4.24,1.35,1.35,0,0,0-1.35-1.08,1.93,1.93,0,0,0-1.08.32,1,1,0,0,0-.48.86,3.2,3.2,0,0,0,.2,1.12h.83a4.84,4.84,0,0,1,.26,1.67,2.16,2.16,0,0,1-.83,1.7,3.06,3.06,0,0,1-2.09.71c-1.91,0-2.86-.92-2.86-2.76,0-2.72,2.31-4.08,7-4.08,2.64,0,4.46.44,5.47,1.34s1.51,2.55,1.51,4.94v6.75c0,1.15.32,1.73,1,1.73s1.2-1.14,1.33-3.43l.5,0c-.09,1.95-.45,3.29-1.1,4a4,4,0,0,1-3.15,1.09c-2.66,0-4.19-.81-4.59-2.45a3.58,3.58,0,0,1-1.3,1.86,4.42,4.42,0,0,1-2.53.59c-3.28,0-4.92-1.33-4.92-4A3.26,3.26,0,0,1,53.67,372,14.25,14.25,0,0,1,59.44,371.1Zm-1.15,6.32a.7.7,0,0,0,.7.5c.35,0,.67-.29,1-.85a5.09,5.09,0,0,0,.45-2.35v-3.09h-.24c-1.37,0-2.06,1-2.06,3v.53A8.42,8.42,0,0,0,58.29,377.42Z" transform="translate(-0.5)"/><path class="cls-1" d="M70.88,374.16V363.69H69.05v-.6h1.83V358.8l6.18-1.53v5.82h4.32v.6H77.06v11.2a6.12,6.12,0,0,0,.32,2.29,1.28,1.28,0,0,0,1.31.74,2.18,2.18,0,0,0,1.75-1,6,6,0,0,0,1-2.73l.56.07a6.45,6.45,0,0,1-1.46,3.64,5.06,5.06,0,0,1-4,1.34,7,7,0,0,1-4.22-1.09C71.37,377.42,70.88,376.09,70.88,374.16Z" transform="translate(-0.5)"/><path class="cls-1" d="M82.18,363.09h8.15v15.22h1.86v.6H82.31v-.6h1.83V363.69h-2Zm5-2.3a3.14,3.14,0,0,1-2.51-.89,3.36,3.36,0,0,1-.75-2.23,3,3,0,0,1,.82-2.19,3.23,3.23,0,0,1,2.47-.87,3.67,3.67,0,0,1,2.53.78,2.84,2.84,0,0,1,.86,2.23,3.18,3.18,0,0,1-.83,2.31A3.42,3.42,0,0,1,87.2,360.79Z" transform="translate(-0.5)"/><path class="cls-1" d="M95.25,377.12a8.25,8.25,0,0,1-2.13-6.1,8,8,0,0,1,2.28-6.12,8.94,8.94,0,0,1,6.39-2.14q4.13,0,6.16,2t2,6q0,8.48-8.44,8.47C98.76,379.24,96.66,378.54,95.25,377.12Zm8.34-4.76v-2.82a22.87,22.87,0,0,0-.35-4.71c-.23-1-.77-1.48-1.61-1.48a1.65,1.65,0,0,0-1.18.42,2.55,2.55,0,0,0-.65,1.38,25.18,25.18,0,0,0-.3,4.55v2.6a22.91,22.91,0,0,0,.22,4.35,6.64,6.64,0,0,0,.45,1.2,1.42,1.42,0,0,0,1.43.8,1.69,1.69,0,0,0,1.69-1.5A22.89,22.89,0,0,0,103.59,372.36Z" transform="translate(-0.5)"/><path class="cls-1" d="M111,363.09h8v3.06a5.58,5.58,0,0,1,1.63-2.46,5.05,5.05,0,0,1,3.33-.93q5.15,0,5.15,5.55v10H131v.6h-9.41v-.6h1.37v-10.8a7.59,7.59,0,0,0-.27-2.58,1,1,0,0,0-1-.58c-.7,0-1.33.47-1.87,1.4a6.55,6.55,0,0,0-.82,3.39v9.17h1.43v.6H111v-.6h1.83V363.69H111Z" transform="translate(-0.5)"/><path class="cls-1" d="M132.15,379.24v-5.95h.4a7.94,7.94,0,0,0,2.32,4.06,5.69,5.69,0,0,0,3.66,1.16q3.39,0,3.39-2.16a1.5,1.5,0,0,0-.83-1.39,10.91,10.91,0,0,0-3.32-1.13,12.87,12.87,0,0,1-3.79-1.6,4.2,4.2,0,0,1-1.83-3.79,5.51,5.51,0,0,1,1.59-4.14,5.88,5.88,0,0,1,4.26-1.54,8.32,8.32,0,0,1,3.36.76,2.71,2.71,0,0,0,1,.27.78.78,0,0,0,.57-.24,3.83,3.83,0,0,0,.56-.86h.37v5.09h-.4c-1.13-2.88-2.88-4.33-5.25-4.33a4,4,0,0,0-2.33.55,1.66,1.66,0,0,0-.77,1.38,1.16,1.16,0,0,0,.24.78,5.1,5.1,0,0,0,.36.42,1.67,1.67,0,0,0,.43.28l.5.23c.14.06.34.13.62.22s.48.14.61.17a23.57,23.57,0,0,1,3.26,1,11.14,11.14,0,0,1,1.9,1,4.61,4.61,0,0,1,1.82,4.07,5.34,5.34,0,0,1-1.66,4.26,6.71,6.71,0,0,1-4.55,1.44,8.82,8.82,0,0,1-4-1A1.26,1.26,0,0,0,134,378c-.49,0-1,.41-1.43,1.22Z" transform="translate(-0.5)"/><path class="cls-1" d="M145.81,354h8v12.17a5.58,5.58,0,0,1,1.63-2.46,5.05,5.05,0,0,1,3.33-.93q5.15,0,5.15,5.55v10h1.86v.6h-9.41v-.6h1.37v-10.8a7.59,7.59,0,0,0-.27-2.58,1,1,0,0,0-1-.58,2.29,2.29,0,0,0-1.88,1.4,6.55,6.55,0,0,0-.82,3.39v9.17h1.43v.6h-9.44v-.6h1.83V354.58h-1.83Z" transform="translate(-0.5)"/><path class="cls-1" d="M166.16,363.09h8.14v15.22h1.86v.6h-9.87v-.6h1.83V363.69h-2Zm5-2.3a3.12,3.12,0,0,1-2.51-.89,3.36,3.36,0,0,1-.75-2.23,3.06,3.06,0,0,1,.81-2.19,3.24,3.24,0,0,1,2.48-.87,3.67,3.67,0,0,1,2.53.78,2.88,2.88,0,0,1,.86,2.23,3.22,3.22,0,0,1-.83,2.31A3.43,3.43,0,0,1,171.18,360.79Z" transform="translate(-0.5)"/><path class="cls-1" d="M184.77,363.09v2.62a4.63,4.63,0,0,1,4.59-2.95,5.25,5.25,0,0,1,4.44,2.06q1.57,2.06,1.58,6.25t-1.71,6.18a6.42,6.42,0,0,1-5.14,2,5.66,5.66,0,0,1-2.39-.39,3.13,3.13,0,0,1-1.3-1.23v8.61h4.29v.6h-12.3v-.6h1.83V363.69h-1.77v-.6Zm3.86,2.28c-.22-.79-.65-1.18-1.3-1.18a2.12,2.12,0,0,0-1.73,1.24,6.35,6.35,0,0,0-.76,3.34v6.09a4.79,4.79,0,0,0,.57,2.42,1.79,1.79,0,0,0,1.66,1c.73,0,1.23-.49,1.49-1.46a22,22,0,0,0,.4-5.12V370A20.51,20.51,0,0,0,188.63,365.37Z" transform="translate(-0.5)"/><path class="cls-1" d="M197.14,379.24v-5.95h.4a8,8,0,0,0,2.33,4.06,5.64,5.64,0,0,0,3.65,1.16c2.26,0,3.4-.72,3.4-2.16a1.49,1.49,0,0,0-.84-1.39,10.91,10.91,0,0,0-3.32-1.13,12.87,12.87,0,0,1-3.79-1.6,4.2,4.2,0,0,1-1.83-3.79,5.48,5.48,0,0,1,1.6-4.14,5.84,5.84,0,0,1,4.25-1.54,8.25,8.25,0,0,1,3.36.76,2.71,2.71,0,0,0,1,.27.78.78,0,0,0,.57-.24,3.83,3.83,0,0,0,.56-.86h.37v5.09h-.4c-1.13-2.88-2.88-4.33-5.25-4.33a4.06,4.06,0,0,0-2.33.55,1.65,1.65,0,0,0-.76,1.38,1.15,1.15,0,0,0,.23.78,4.84,4.84,0,0,0,.37.42,1.51,1.51,0,0,0,.43.28,4.91,4.91,0,0,0,.5.23,6,6,0,0,0,.61.22,6.41,6.41,0,0,0,.62.17,23.77,23.77,0,0,1,3.25,1,11.14,11.14,0,0,1,1.9,1,4.59,4.59,0,0,1,1.83,4.07,5.37,5.37,0,0,1-1.66,4.26,6.74,6.74,0,0,1-4.56,1.44,8.88,8.88,0,0,1-4-1A1.23,1.23,0,0,0,199,378c-.49,0-1,.41-1.43,1.22Z" transform="translate(-0.5)"/><path class="cls-2" d="M36.59,89.62c-.89-2.68-2.68-5.06-3.87-7.74-2.09-6-2.09-12.52-5.07-17.88,6.56.3,11.62,4.77,17.88,5.66-.26-9.77-2.07-19.32-3.13-28.84-10.68,1.06-21.67,9-29.34,19.14A157.18,157.18,0,0,1,36.59,94.09,22.26,22.26,0,0,0,36.59,89.62Z" transform="translate(-0.5)"/><path class="cls-2" d="M83.85,60.64a88.08,88.08,0,0,0-10.58-8.43c-1.65,7.41-3,14.81-4.5,22.22A66.53,66.53,0,0,0,83.85,60.64Z" transform="translate(-0.5)"/><path class="cls-2" d="M84.86,74.43c1.3-2.87,4.21-4.37,6.11-6.7-1.43-1.53-3-3.09-4.53-4.63C85.62,66.85,84.68,70.58,84.86,74.43Z" transform="translate(-0.5)"/><path class="cls-2" d="M180.2,145.64c-.6-.6-.89-1.49-1.49-2.09a86.68,86.68,0,0,1-18.77-15.49c1.49,6.85,3.87,13.4,3,20.55-1.79-2.38-4.47-3.87-6.56-6,3.14,8.09,5.13,16.65,7.58,25.06,9.23-7.2,17-13.15,20.17-15.39a81.81,81.81,0,0,0,9.24-7.57,136.07,136.07,0,0,0-12.85-5.08C180.8,141.76,180.2,143.55,180.2,145.64Z" transform="translate(-0.5)"/><g id="heart"><path class="cls-3" d="M121.51,134.91c-8.05-2.38-16.69-2.38-25-2.09,3.28-8,9.53-13.7,16.09-18.77-6.56-.59-12.81.6-19.37-.29,3.33-7.65,6.53-15.42,9.35-23.32-.8.85-1.14,1.25-1.14,1.25A163.38,163.38,0,0,0,87.69,74.88c-1.9,2.33-4.8,3.83-6.11,6.7-.18-3.85.76-7.58,1.58-11.33-.84-.83-1.71-1.65-2.59-2.46A66.3,66.3,0,0,1,65.49,81.58C67,74.17,68.34,66.77,70,59.37c-5.48-3.65-11.21-6.3-16.82-6.92a23.52,23.52,0,0,0-4.82,0c1.06,9.52,2.87,19.07,3.13,28.84-6.26-.89-11.32-5.36-17.88-5.66,3,5.36,3,11.92,5.07,17.88,1.19,2.68,3,5.06,3.87,7.74a22.26,22.26,0,0,1,0,4.47A157.18,157.18,0,0,0,19,71.58,54.69,54.69,0,0,0,11,86.1c-14.87,41.81,87.7,117.53,87.7,117.53l2.11-1.67a37,37,0,0,0-4.36-7.46c-3.28-4.17,4.47-7.45,8.64-10.13.3-.3,2.08-1.19.89-1.49-5.06-.9-9.83-.3-14.89-.3,5.66-6.26,11.62-12.22,15.79-19.66-6.56-1.49-13.71.29-20.26-1.49C100.05,155.77,111.67,145.64,121.51,134.91Z" transform="translate(-0.5)"/><path class="cls-4" d="M200.08,69c-15.53-12.21-44-22.21-65.94-2.59-12.31,11-18.29,17.14-20.57,19.56-2.81,7.9-6,15.67-9.34,23.32,6.55.89,12.81-.3,19.36.29-6.55,5.07-12.81,10.73-16.09,18.77,8.34-.29,17-.29,25,2.09C122.7,141.17,111.08,151.3,97.67,157c6.56,1.78,13.71,0,20.26,1.49-4.17,7.45-10.13,13.4-15.79,19.66,5.06,0,9.83-.6,14.9.3,1.19.3-.6,1.19-.9,1.49-4.17,2.68-11.91,6-8.64,10.13a37,37,0,0,1,4.36,7.46c7-5.56,30-23.79,47.61-37.52-2.45-8.41-4.44-17-7.57-25.06,2.08,2.08,4.76,3.57,6.55,6,.89-7.15-1.49-13.71-3-20.56a86.68,86.68,0,0,0,18.77,15.49c.6.6.89,1.49,1.49,2.09,0-2.09.6-3.87.3-6,4.39,1.41,8.62,3.24,12.85,5.08C212.55,114.52,217.11,82.39,200.08,69Z" transform="translate(-0.5)"/></g><g id="band2"><path class="cls-5" d="M196,107.6a6.24,6.24,0,0,1-1.54-.19,24.84,24.84,0,0,1-3.29-1.09L144,87.26l-1.2-.45c-1.27-.44-5.05-2.46-5.76-5.84-.52-2.46.66-5.06,3.51-7.71,3.37-3.14,10.52-2.74,21.26,1.17a187,187,0,0,1,21.7,10l.45.24c1.41.74,7.57,4.08,9.09,5.11h0c10.63,7.24,9.19,12.83,8.5,14.38A6,6,0,0,1,196,107.6ZM147.26,72c-2.57,0-4.69.55-6.12,1.88-2.61,2.43-3.7,4.74-3.25,6.87.63,3,4,4.79,5.19,5.19.42.15.84.3,1.24.46l47.2,19.07a26.06,26.06,0,0,0,3.17,1,5.21,5.21,0,0,0,6-2.74c.62-1.38,1.87-6.42-8.18-13.27h0c-1.42-1-7.25-4.14-9-5.06l-.45-.24C176.18,81.61,157.93,72,147.26,72Z" transform="translate(-0.5)"/><path class="cls-5" d="M194.34,109.37a11.24,11.24,0,0,1-4.79-1.14c-.38-.2-.77-.4-1.14-.57l-46-21.77a25.8,25.8,0,0,1-3-1.68,6.1,6.1,0,0,1-2.4-7.38c.66-1.56,3.79-6.41,16.32-3.51h0c1.79.42,8.42,2.68,9.93,3.22l.48.17a187.51,187.51,0,0,1,22.06,9.15c10.16,5.25,15.31,10.24,15.29,14.84,0,3.89-1.13,6.52-3.29,7.81A6.64,6.64,0,0,1,194.34,109.37ZM146.21,73.3c-6.18,0-8,2.81-8.42,3.88a5.2,5.2,0,0,0,2.07,6.28,24.1,24.1,0,0,0,2.92,1.62l46,21.77c.39.18.79.38,1.19.59,1.07.58,4.71,1.86,7.32.3,1.88-1.12,2.84-3.49,2.85-7,0-10-27.65-19.9-36.75-23.14l-.48-.17c-1.88-.67-8.16-2.8-9.83-3.19A31.17,31.17,0,0,0,146.21,73.3Z" transform="translate(-0.5)"/><path class="cls-5" d="M198.88,109.85a6.62,6.62,0,0,1-1.58-.19,29.65,29.65,0,0,1-3.44-1.09L144,89.35c-.41-.15-.83-.31-1.27-.45-1.41-.47-5.63-2.62-6.5-6.22-.58-2.39.4-4.9,2.92-7.47,3.11-3.18,10.43-2.8,21.74,1.14a212.17,212.17,0,0,1,23,10.1l.48.24c1.51.74,8.1,4.11,9.75,5.15h0c11.85,7.52,10.59,13.22,9.92,14.79A5.51,5.51,0,0,1,198.88,109.85ZM145.78,74c-2.77,0-4.78.63-6,1.89-2.29,2.33-3.19,4.56-2.69,6.63.79,3.26,4.87,5.23,5.92,5.58l1.3.47,49.88,19.21a27.41,27.41,0,0,0,3.34,1.06,4.83,4.83,0,0,0,5.72-2.51c1.23-2.89-.64-8-9.58-13.68h0c-1.54-1-7.78-4.18-9.67-5.11l-.48-.24a209.19,209.19,0,0,0-22.94-10Q151.24,73.94,145.78,74Z" transform="translate(-0.5)"/><path class="cls-5" d="M163.08,77.11,155.6,92l17.24,7.45,7.1-14.09ZM161.46,91a1.09,1.09,0,1,1,1-1.18A1.09,1.09,0,0,1,161.46,91Zm2.44-4.18a1.09,1.09,0,1,1,1-1.18A1.1,1.1,0,0,1,163.9,86.83Zm1-5.17a1.09,1.09,0,1,1,1.18,1A1.1,1.1,0,0,1,164.87,81.66Zm1.64,11.78a1.09,1.09,0,1,1,1-1.18A1.1,1.1,0,0,1,166.51,93.44ZM169,89.25a1.09,1.09,0,1,1,1-1.18A1.09,1.09,0,0,1,169,89.25Zm2,6.28a1.09,1.09,0,1,1,1-1.18A1.1,1.1,0,0,1,171,95.53Zm.13-10.44a1.09,1.09,0,1,1,1-1.18A1.09,1.09,0,0,1,171.11,85.09Zm2.32,6.25a1.09,1.09,0,1,1,1-1.18A1.1,1.1,0,0,1,173.43,91.34Zm2.14-4.16a1.09,1.09,0,1,1,1-1.18A1.09,1.09,0,0,1,175.57,87.18Z" transform="translate(-0.5)"/><path class="cls-5" d="M160.9,119c-2.18,0-4.5-1-6.93-3-3.66-3-3.62-9.81.13-20.3A167.85,167.85,0,0,1,164,74.45l.23-.44c.75-1.4,4.1-7.47,5.16-9,6.27-9,12.37-10.43,16-8.81a5.48,5.48,0,0,1,3.26,6.25,22.35,22.35,0,0,1-1,3.2l-18.46,46.07c-.15.37-.3.76-.43,1.16-.4,1.19-2.34,4.8-5.87,5.82A7,7,0,0,1,160.9,119Zm21.62-62.43c-3.29,0-7.76,2.34-12.42,9h0c-1,1.41-4.17,7.15-5.09,8.89l-.23.44c-4.49,8.41-18.13,34-10.23,40.43,2.92,2.37,5.62,3.22,8,2.52,3.15-.91,4.89-4.16,5.25-5.23.14-.42.29-.82.45-1.21l18.46-46.07a21.81,21.81,0,0,0,1-3.07,4.56,4.56,0,0,0-2.75-5.2A6,6,0,0,0,182.52,56.55Z" transform="translate(-0.5)"/><path class="cls-5" d="M160.05,119.4a6.88,6.88,0,0,1-2.65-.52c-2-.84-6.38-4-4.06-15h0c.36-1.73,2.5-8.18,3-9.64l.17-.46c3.13-9,12.65-36.37,24.38-37.1,4.58-.28,7.62.71,9.05,3,1.73,2.72.48,6.31-.15,7.46-.2.38-.39.76-.57,1.12l-21.51,45.14a23.72,23.72,0,0,1-1.7,3A7.23,7.23,0,0,1,160.05,119.4Zm-5.82-15.35c-2.17,10.38,1.74,13.24,3.52,14a6.39,6.39,0,0,0,7.5-2.21,23.78,23.78,0,0,0,1.63-2.88L188.39,67.8l.6-1.17c.52-.95,1.66-4.2.18-6.53-1.24-1.94-4-2.79-8.22-2.53-11.12.7-20.5,27.63-23.58,36.49l-.16.46c-.63,1.82-2.64,7.92-3,9.53Z" transform="translate(-0.5)"/><path class="cls-5" d="M162.59,119.68a10.91,10.91,0,0,1-6.39-2.48c-3.7-2.73-3.68-9.71.07-20.74a188.29,188.29,0,0,1,9.89-22.55l.23-.48c.75-1.48,4.11-8,5.17-9.6h0c6.43-9.9,12.64-11.78,16.31-10.24a5.21,5.21,0,0,1,3.08,6,24.6,24.6,0,0,1-1,3.35l-18.49,48.62c-.15.39-.29.81-.43,1.23-.42,1.31-2.47,5.32-6.2,6.52A7.26,7.26,0,0,1,162.59,119.68ZM185.36,54c-3.38,0-8.08,2.67-13,10.31h0c-1,1.52-4.18,7.66-5.11,9.51l-.24.48a188.88,188.88,0,0,0-9.83,22.44c-3.61,10.6-3.74,17.24-.39,19.71,2.81,2.07,5.43,2.74,7.78,2,3.37-1.09,5.23-4.74,5.61-5.94.14-.43.29-.86.45-1.27l18.49-48.61a24.23,24.23,0,0,0,1-3.23,4.31,4.31,0,0,0-2.55-5A5.6,5.6,0,0,0,185.36,54Z" transform="translate(-0.5)"/><path class="cls-5" d="M157,94.35l16.82,6,7.29-16.86-15.93-5.69Zm15.42.52a1.11,1.11,0,0,1-1,1.19A1.14,1.14,0,0,1,170,95.2,1.1,1.1,0,0,1,171,94,1.17,1.17,0,0,1,172.37,94.87Zm-4.75-2a1.11,1.11,0,0,1-1,1.19,1.16,1.16,0,0,1-1.36-.86,1.12,1.12,0,0,1,1-1.19A1.17,1.17,0,0,1,167.62,92.86Zm-5.75-.54a1.16,1.16,0,0,1-1.36-.86,1.12,1.12,0,0,1,1-1.19,1.17,1.17,0,0,1,1.36.86A1.11,1.11,0,0,1,161.87,92.32Zm12.9-2.41a1.11,1.11,0,0,1-1,1.19,1.16,1.16,0,0,1-1.35-.86,1.11,1.11,0,0,1,1-1.19A1.15,1.15,0,0,1,174.77,89.91Zm-4.75-2a1.11,1.11,0,0,1-1,1.19,1.15,1.15,0,0,1-1.35-.86,1.1,1.1,0,0,1,1-1.19A1.15,1.15,0,0,1,170,87.9Zm6.81-2.37a1.1,1.1,0,0,1-1,1.18,1.14,1.14,0,0,1-1.35-.85,1.1,1.1,0,0,1,1-1.19A1.15,1.15,0,0,1,176.83,85.53Zm-11.52.64a1.11,1.11,0,0,1-1,1.19,1.15,1.15,0,0,1-1.35-.86,1.11,1.11,0,0,1,1-1.19A1.16,1.16,0,0,1,165.31,86.17Zm6.77-2.65a1.12,1.12,0,0,1-1,1.19,1.15,1.15,0,0,1-1.35-.86,1.1,1.1,0,0,1,1-1.19A1.16,1.16,0,0,1,172.08,83.52Zm-4.71-1.73a1.11,1.11,0,0,1-1,1.19,1.15,1.15,0,0,1-1.35-.86,1.1,1.1,0,0,1,1-1.19A1.15,1.15,0,0,1,167.37,81.79Z" transform="translate(-0.5)"/></g><g id="band1"><path class="cls-5" d="M11.63,191.84a6.05,6.05,0,0,1-.72-.53c-2.18-1.81-3.1-4.79-2.75-8.85.41-4.7,6.09-8.5,16.88-11.28a167.85,167.85,0,0,1,23.14-3.76l.5,0c1.57-.17,8.48-.8,10.33-.78h0c10.94.17,15.57,4.4,16.27,8.31a5.49,5.49,0,0,1-3.34,6.21,24.28,24.28,0,0,1-3.23.95L20.22,192.61c-.4.08-.8.18-1.21.3A10.32,10.32,0,0,1,11.63,191.84ZM59,167.51c-1.72,0-8.26.56-10.21.77l-.5.05c-9.48,1-38.32,4.06-39.21,14.21-.32,3.74.49,6.46,2.42,8.07,2.52,2.1,6.19,1.71,7.28,1.41.42-.11.84-.22,1.25-.31l48.5-10.55a20.94,20.94,0,0,0,3.09-.91,4.58,4.58,0,0,0,2.77-5.19c-.63-3.55-5-7.4-15.39-7.55Z" transform="translate(-0.5)"/><path class="cls-5" d="M10.94,191.5a7.28,7.28,0,0,1-3.23-4.6c-.42-2.12-.28-7.5,10.16-11.79,1.63-.67,8.17-2.51,9.67-2.91l.47-.13c9.21-2.45,37.21-9.91,44.39-.61,2.8,3.62,3.69,6.7,2.63,9.14-1.27,3-5,3.93-6.25,4.06-.44,0-.85.1-1.25.16l-49.44,7.51a25,25,0,0,1-3.43.27A6.91,6.91,0,0,1,10.94,191.5Zm58.68-21.33c-9.12-5.81-33.05.57-41.37,2.79l-.48.12c-1.86.5-8,2.26-9.55,2.88-9.82,4-10,8.86-9.61,10.76a6.4,6.4,0,0,0,6,5,23.06,23.06,0,0,0,3.3-.27l49.44-7.51,1.3-.16c1.08-.1,4.41-1,5.5-3.51.92-2.12.07-4.88-2.51-8.22A8,8,0,0,0,69.62,170.17Z" transform="translate(-0.5)"/><path class="cls-5" d="M12.08,193.7c-.2-.13-.39-.26-.58-.41-2.19-1.72-3.22-4.51-3.07-8.32.19-4.6,6-8.49,17.21-11.58a189.1,189.1,0,0,1,24.22-4.46l.52-.07c1.65-.22,8.9-1.08,10.85-1.11,11.81-.23,16.84,3.86,17.62,7.76a5.21,5.21,0,0,1-3.25,5.93,25.7,25.7,0,0,1-3.35,1l-50.62,12-1.25.33C19.14,195.13,15.12,195.64,12.08,193.7Zm62.57-22.32c-2.65-1.68-7-2.84-13.4-2.72h0c-1.82,0-8.7.84-10.75,1.11l-.52.06a188.13,188.13,0,0,0-24.1,4.45c-10.8,3-16.37,6.57-16.54,10.73-.14,3.49.78,6,2.72,7.56,2.79,2.18,6.86,1.67,8.06,1.32.44-.13.88-.25,1.3-.35l50.62-12a23.74,23.74,0,0,0,3.22-1,4.31,4.31,0,0,0,2.7-4.9A6.91,6.91,0,0,0,74.65,171.38Z" transform="translate(-0.5)"/><path class="cls-5" d="M27.77,172.77l4.47,17.29,18-3.42-4.22-16.38ZM36,185.83a1.12,1.12,0,0,1-1.57-.19,1.16,1.16,0,0,1-.05-1.61,1.12,1.12,0,0,1,1.57.19A1.18,1.18,0,0,1,36,185.83Zm-1-5.06a1.1,1.1,0,0,1-1.56-.2,1.15,1.15,0,0,1-.05-1.6,1.12,1.12,0,0,1,1.57.19A1.17,1.17,0,0,1,35,180.77Zm-2.77-5.06a1.16,1.16,0,0,1-.05-1.61,1.11,1.11,0,0,1,1.57.2,1.15,1.15,0,0,1,0,1.6A1.11,1.11,0,0,1,32.21,175.71ZM41.44,185a1.11,1.11,0,0,1-1.56-.2,1.15,1.15,0,0,1-.05-1.6,1.11,1.11,0,0,1,1.56.19A1.16,1.16,0,0,1,41.44,185Zm-1-5.07a1.11,1.11,0,0,1-1.57-.19,1.15,1.15,0,0,1,0-1.6,1.11,1.11,0,0,1,1.56.19A1.15,1.15,0,0,1,40.44,180Zm5.78,4.31a1.11,1.11,0,0,1-1.56-.19,1.15,1.15,0,0,1,0-1.6,1.11,1.11,0,0,1,1.57.19A1.15,1.15,0,0,1,46.22,184.28Zm-7-9.17a1.11,1.11,0,0,1-1.57-.2,1.15,1.15,0,0,1,0-1.6,1.11,1.11,0,0,1,1.56.19A1.16,1.16,0,0,1,39.23,175.11Zm6,4.11a1.11,1.11,0,0,1-1.56-.19,1.16,1.16,0,0,1,0-1.61,1.11,1.11,0,0,1,1.56.2A1.15,1.15,0,0,1,45.22,179.22ZM44,174.35a1.1,1.1,0,0,1-1.56-.19,1.15,1.15,0,0,1-.05-1.6,1.1,1.1,0,0,1,1.56.19A1.15,1.15,0,0,1,44,174.35Z" transform="translate(-0.5)"/></g><g id="band3"><path class="cls-5" d="M18,95.61a3.25,3.25,0,0,1-.42-.31c-1.26-1-1.79-2.76-1.58-5.1.23-2.72,3.51-4.9,9.73-6.51A97.36,97.36,0,0,1,39.1,81.52l.29,0c.9-.1,4.89-.46,6-.45h0c6.31.09,9,2.53,9.39,4.79a3.17,3.17,0,0,1-1.93,3.58,13,13,0,0,1-1.86.54L23,96.05l-.69.17A5.9,5.9,0,0,1,18,95.61Zm27.31-14c-1,0-4.76.33-5.89.45l-.29,0c-5.46.58-22.1,2.34-22.61,8.19-.19,2.16.28,3.73,1.4,4.66a5.11,5.11,0,0,0,4.2.81l.72-.18,28-6.08a12.27,12.27,0,0,0,1.78-.53,2.64,2.64,0,0,0,1.6-3c-.36-2.05-2.89-4.27-8.88-4.36Z" transform="translate(-0.5)"/><path class="cls-5" d="M17.62,95.41a4.19,4.19,0,0,1-1.86-2.65c-.25-1.22-.17-4.33,5.86-6.8.94-.39,4.71-1.45,5.57-1.68l.28-.08c5.3-1.41,21.46-5.72,25.6-.35,1.61,2.09,2.13,3.87,1.52,5.27-.74,1.71-2.86,2.27-3.61,2.35q-.37,0-.72.09L21.74,95.89a14.81,14.81,0,0,1-2,.16A4.06,4.06,0,0,1,17.62,95.41Zm33.85-12.3c-5.27-3.35-19.07.33-23.87,1.6l-.27.08c-1.08.28-4.64,1.3-5.51,1.66-5.66,2.32-5.76,5.11-5.55,6.2a3.71,3.71,0,0,0,3.49,2.87,15.2,15.2,0,0,0,1.9-.15L50.18,91l.75-.09a4.13,4.13,0,0,0,3.17-2c.53-1.21,0-2.81-1.45-4.74A4.62,4.62,0,0,0,51.47,83.11Z" transform="translate(-0.5)"/><path class="cls-5" d="M18.28,96.68a2.62,2.62,0,0,1-.34-.24c-1.26-1-1.86-2.6-1.77-4.8.11-2.65,3.45-4.9,9.93-6.67a109.76,109.76,0,0,1,14-2.58l.3,0c1-.12,5.13-.62,6.26-.64,6.81-.13,9.71,2.23,10.16,4.48a3,3,0,0,1-1.88,3.42,15,15,0,0,1-1.93.6L23.79,97.1l-.73.19A6.53,6.53,0,0,1,18.28,96.68ZM54.36,83.81c-1.52-1-4-1.65-7.72-1.57h0c-1,0-5,.48-6.2.63l-.31,0a110.13,110.13,0,0,0-13.89,2.57C20,87.19,16.8,89.27,16.7,91.67c-.08,2,.44,3.48,1.57,4.36a5.81,5.81,0,0,0,4.64.76c.26-.08.51-.14.76-.2l29.19-6.9a14.44,14.44,0,0,0,1.86-.57,2.48,2.48,0,0,0,1.55-2.83A3.91,3.91,0,0,0,54.36,83.81Z" transform="translate(-0.5)"/><path class="cls-5" d="M27.32,84.61l2.58,10,10.42-2-2.44-9.45Zm4.74,7.53a.65.65,0,0,1-.9-.11.67.67,0,0,1,0-.93.66.66,0,0,1,.91.11A.67.67,0,0,1,32.06,92.14Zm-.57-2.92a.66.66,0,0,1-.91-.11.67.67,0,0,1,0-.93.64.64,0,0,1,.9.12A.66.66,0,0,1,31.49,89.22Zm-1.6-2.92a.66.66,0,0,1,0-.92.63.63,0,0,1,.9.11.66.66,0,0,1,0,.92A.63.63,0,0,1,29.89,86.3Zm5.32,5.38a.63.63,0,0,1-.9-.11.66.66,0,0,1,0-.92.63.63,0,0,1,.9.11A.66.66,0,0,1,35.21,91.68Zm-.58-2.92a.63.63,0,0,1-.9-.11.66.66,0,0,1,0-.92.64.64,0,0,1,.91.11A.66.66,0,0,1,34.63,88.76ZM38,91.25a.64.64,0,0,1-.9-.11.67.67,0,0,1,0-.93.64.64,0,0,1,.9.11A.67.67,0,0,1,38,91.25Zm-4-5.3a.64.64,0,0,1-.91-.11.66.66,0,0,1,0-.92.63.63,0,0,1,.9.11A.66.66,0,0,1,33.94,86Zm3.45,2.38a.65.65,0,0,1-.9-.11.67.67,0,0,1,0-.93.64.64,0,0,1,.9.11A.67.67,0,0,1,37.39,88.33Zm-.69-2.81a.66.66,0,0,1-.91-.11.67.67,0,0,1,0-.93.65.65,0,0,1,.91.12A.67.67,0,0,1,36.7,85.52Z" transform="translate(-0.5)"/></g><polyline class="cls-6" points="116.93 46.27 116.03 59.06 133.93 51.7"/><polyline class="cls-6" points="113.48 43.12 116.03 59.06 131.97 50.71"/><path class="cls-6" d="M115.6,59.62S161.67,3,175.13,1.28" transform="translate(-0.5)"/><path class="cls-6" d="M117.77,58.76S164.1.22,171.66.74" transform="translate(-0.5)"/><path class="cls-6" d="M115.59,57.19S166.2,4.33,168.11.19" transform="translate(-0.5)"/><path class="cls-6" d="M153,17.52s5.26-1.32,9.6,1.71" transform="translate(-0.5)"/><path class="cls-6" d="M154.26,6.75c2.73,2-.87,10.33-.87,10.33s1.31-9.2-.41-10.31" transform="translate(-0.5)"/><path class="cls-6" d="M152.88,17.54A15.49,15.49,0,0,1,162,20.29" transform="translate(-0.5)"/><path class="cls-6" d="M157.93,11.9s5.26-1.33,9.59,1.7" transform="translate(-0.5)"/><path class="cls-6" d="M159.19,1.13c2.74,2-.86,10.33-.86,10.33s1.31-9.2-.41-10.31" transform="translate(-0.5)"/><path class="cls-6" d="M157.82,11.92a15.51,15.51,0,0,1,9.07,2.75" transform="translate(-0.5)"/><path class="cls-6" d="M163.47,6.51s5.26-1.32,9.6,1.71" transform="translate(-0.5)"/><path class="cls-6" d="M163.36,6.54a15.51,15.51,0,0,1,9.07,2.74" transform="translate(-0.5)"/><path class="cls-6" d="M161.56,18.11c-3-3.1-7.45-1.19-7.45-1.19s6.34.53,8.13,2.45" transform="translate(-0.5)"/><path class="cls-6" d="M171.12,9.42c-1.75-3.93-6.6-3.66-6.6-3.66s5.78,2.66,6.81,5.08" transform="translate(-0.5)"/><polyline class="cls-6" points="132.2 54.64 115.41 59.75 115.61 41.13"/><polyline class="cls-6" points="123.36 201.16 135.4 205.59 121.34 218.89"/><polyline class="cls-6" points="121.91 196.72 135.4 205.59 121.25 216.7"/><path class="cls-6" d="M136.8,205s-70.59,18.75-77.64,30.33" transform="translate(-0.5)"/><path class="cls-6" d="M135.12,206.6s-72.4,18.22-75,25.32" transform="translate(-0.5)"/><path class="cls-6" d="M134.59,204s-69,24.45-73.55,24.49" transform="translate(-0.5)"/><path class="cls-6" d="M83.05,221.79s-3.36,4.25-2.38,9.45" transform="translate(-0.5)"/><path class="cls-6" d="M72.71,218.52c.67,3.3,9.78,3.45,9.78,3.45s-8.93-2.58-9.24-4.61" transform="translate(-0.5)"/><path class="cls-6" d="M83.12,221.7a15.55,15.55,0,0,0-1.22,9.4" transform="translate(-0.5)"/><path class="cls-6" d="M75.9,224s-3.36,4.25-2.38,9.45" transform="translate(-0.5)"/><path class="cls-6" d="M65.56,220.71c.67,3.3,9.78,3.46,9.78,3.46s-8.93-2.59-9.24-4.61" transform="translate(-0.5)"/><path class="cls-6" d="M76,223.89a15.48,15.48,0,0,0-1.22,9.4" transform="translate(-0.5)"/><path class="cls-6" d="M68.71,226.83s-3.36,4.25-2.38,9.45" transform="translate(-0.5)"/><path class="cls-6" d="M58.37,223.56c.67,3.3,9.78,3.45,9.78,3.45s-8.92-2.58-9.24-4.61" transform="translate(-0.5)"/><path class="cls-6" d="M68.78,226.74a15.53,15.53,0,0,0-1.22,9.39" transform="translate(-0.5)"/><path class="cls-6" d="M80.07,229.84c-1.59-4,2-7.28,2-7.28s-2.13,6-1.1,8.42" transform="translate(-0.5)"/><path class="cls-6" d="M68.23,235c-2.87-3.21-.64-7.52-.64-7.52s.06,6.37,1.85,8.29" transform="translate(-0.5)"/><polyline class="cls-6" points="124.73 218.52 136.29 205.31 119.22 197.84"/></g></g></svg>