<svg xmlns="http://www.w3.org/2000/svg" viewBox="0 0 202.72 236.36"><defs><style>.cls-1{fill:#7dc7ae;}.cls-2{fill:#a5add1;}.cls-3{fill:#a682ae;}.cls-4{fill:#ffb23c;}.cls-5{fill:none;stroke:#69acc7;stroke-miterlimit:10;stroke-width:0.89px;}</style></defs><g id="Layer_2" data-name="Layer 2"><g id="Layer_1-2" data-name="Layer 1"><path class="cls-1" d="M29,89.62c-.89-2.68-2.68-5.06-3.87-7.74C23,75.92,23,69.36,20.06,64c6.56.3,11.62,4.77,17.88,5.66-.26-9.77-2.07-19.32-3.13-28.84C24.12,41.88,13.13,49.86,5.47,60A157.88,157.88,0,0,1,29,94.09,22.26,22.26,0,0,0,29,89.62Z"/><path class="cls-1" d="M76.26,60.64a88.08,88.08,0,0,0-10.58-8.43c-1.65,7.41-3,14.81-4.5,22.22A66.74,66.74,0,0,0,76.26,60.64Z"/><path class="cls-1" d="M77.27,74.43c1.3-2.87,4.2-4.37,6.11-6.7-1.44-1.53-2.95-3.09-4.53-4.63C78,66.85,77.08,70.58,77.27,74.43Z"/><path class="cls-1" d="M172.61,145.64c-.6-.6-.9-1.49-1.49-2.09a86.68,86.68,0,0,1-18.77-15.49c1.49,6.85,3.87,13.4,3,20.55-1.79-2.38-4.47-3.87-6.56-6,3.14,8.09,5.13,16.65,7.58,25.06,9.22-7.2,17-13.15,20.16-15.39a81.93,81.93,0,0,0,9.25-7.57,136.07,136.07,0,0,0-12.85-5.08C173.2,141.76,172.61,143.55,172.61,145.64Z"/><g id="heart"><path class="cls-2" d="M113.91,134.91c-8-2.38-16.68-2.38-25-2.09,3.27-8,9.53-13.7,16.09-18.77-6.56-.59-12.82.6-19.37-.29,3.33-7.65,6.53-15.42,9.35-23.32-.8.85-1.14,1.25-1.14,1.25A163.38,163.38,0,0,0,80.1,74.88c-1.9,2.33-4.81,3.83-6.11,6.7-.18-3.85.76-7.58,1.58-11.33-.85-.83-1.71-1.65-2.59-2.46A66.3,66.3,0,0,1,57.9,81.58c1.53-7.41,2.85-14.81,4.51-22.21-5.48-3.65-11.21-6.3-16.82-6.92a23.53,23.53,0,0,0-4.82,0C41.83,62,43.64,71.51,43.9,81.28c-6.26-.89-11.32-5.36-17.88-5.66C29,81,29,87.54,31.09,93.5c1.19,2.68,3,5.06,3.87,7.74a22.26,22.26,0,0,1,0,4.47A157.88,157.88,0,0,0,11.43,71.58a55,55,0,0,0-8,14.52c-14.86,41.81,87.71,117.53,87.71,117.53L93.25,202a37,37,0,0,0-4.36-7.46c-3.28-4.17,4.47-7.45,8.64-10.13.29-.3,2.08-1.19.89-1.49-5.06-.9-9.83-.3-14.9-.3,5.66-6.26,11.62-12.22,15.79-19.66-6.55-1.49-13.7.29-20.26-1.49C92.46,155.77,104.08,145.64,113.91,134.91Z"/><path class="cls-3" d="M192.49,69c-15.54-12.21-44-22.21-65.94-2.59C114.24,77.44,108.26,83.55,106,86c-2.82,7.9-6,15.67-9.35,23.32,6.56.89,12.81-.3,19.37.29-6.56,5.07-12.81,10.73-16.09,18.77,8.34-.29,17-.29,25,2.09-9.83,10.73-21.45,20.86-34.86,26.52,6.55,1.78,13.7,0,20.26,1.49-4.17,7.45-10.13,13.4-15.79,19.66,5.06,0,9.83-.6,14.89.3,1.2.3-.59,1.19-.89,1.49-4.17,2.68-11.92,6-8.64,10.13a37,37,0,0,1,4.36,7.46c7-5.56,30-23.79,47.61-37.52-2.45-8.41-4.44-17-7.58-25.06,2.09,2.08,4.77,3.57,6.56,6,.89-7.15-1.49-13.71-3-20.56a86.68,86.68,0,0,0,18.77,15.49c.6.6.89,1.49,1.49,2.09,0-2.09.59-3.87.3-6,4.39,1.41,8.62,3.24,12.85,5.08C205,114.52,209.52,82.39,192.49,69Z"/></g><g id="band2"><path class="cls-4" d="M188.42,107.6a6.24,6.24,0,0,1-1.54-.19,24.84,24.84,0,0,1-3.29-1.09l-47.2-19.06-1.2-.45c-1.27-.44-5.05-2.46-5.77-5.84-.51-2.46.67-5.06,3.52-7.71,3.37-3.14,10.52-2.74,21.26,1.17a187,187,0,0,1,21.7,10l.45.24c1.41.74,7.57,4.08,9.09,5.11h0c10.63,7.24,9.19,12.83,8.49,14.38A6,6,0,0,1,188.42,107.6ZM139.67,72c-2.57,0-4.7.55-6.12,1.88-2.61,2.43-3.7,4.74-3.25,6.87.63,3,4,4.79,5.19,5.19.42.15.84.3,1.23.46l47.21,19.07a26.06,26.06,0,0,0,3.17,1,5.21,5.21,0,0,0,6-2.74c.62-1.38,1.87-6.42-8.19-13.27h0c-1.41-1-7.24-4.14-9-5.06l-.45-.24C168.59,81.61,150.34,72,139.67,72Z"/><path class="cls-4" d="M186.75,109.37a11.24,11.24,0,0,1-4.79-1.14c-.38-.2-.77-.4-1.14-.57l-46-21.77a25.8,25.8,0,0,1-3-1.68,6.11,6.11,0,0,1-2.41-7.38c.67-1.56,3.8-6.41,16.33-3.51h0c1.79.42,8.42,2.68,9.92,3.22l.48.17a186.82,186.82,0,0,1,22.07,9.15c10.16,5.25,15.3,10.24,15.28,14.84,0,3.89-1.12,6.52-3.28,7.81A6.67,6.67,0,0,1,186.75,109.37ZM138.62,73.3c-6.18,0-8,2.81-8.42,3.88a5.21,5.21,0,0,0,2.06,6.28,25.71,25.71,0,0,0,2.92,1.62l46,21.77c.39.18.79.38,1.18.59,1.07.58,4.71,1.86,7.33.3,1.88-1.12,2.83-3.49,2.85-7,0-10-27.65-19.9-36.76-23.14l-.48-.17c-1.87-.67-8.15-2.8-9.82-3.19A31.17,31.17,0,0,0,138.62,73.3Z"/><path class="cls-4" d="M191.29,109.85a6.62,6.62,0,0,1-1.58-.19,28.48,28.48,0,0,1-3.44-1.09L136.39,89.35c-.41-.15-.83-.31-1.27-.45-1.41-.47-5.63-2.62-6.5-6.22-.58-2.39.4-4.9,2.91-7.47,3.12-3.18,10.44-2.8,21.74,1.14a211.6,211.6,0,0,1,23,10.1l.48.24c1.51.74,8.1,4.11,9.74,5.15h0c11.86,7.52,10.6,13.22,9.93,14.79A5.51,5.51,0,0,1,191.29,109.85ZM138.19,74q-4.16,0-6,1.89c-2.28,2.33-3.18,4.56-2.68,6.63.79,3.26,4.87,5.23,5.91,5.58.45.15.89.31,1.31.47l49.88,19.21a27.27,27.27,0,0,0,3.33,1.06,4.83,4.83,0,0,0,5.73-2.51c1.23-2.89-.64-8-9.58-13.68h0c-1.54-1-7.79-4.18-9.67-5.11l-.48-.24A209.19,209.19,0,0,0,153,77.2Q143.65,73.94,138.19,74Z"/><path class="cls-4" d="M155.48,77.11,148,92l17.24,7.45,7.1-14.09ZM153.87,91a1.09,1.09,0,1,1,1-1.18A1.09,1.09,0,0,1,153.87,91Zm2.44-4.18a1.09,1.09,0,1,1,1-1.18A1.1,1.1,0,0,1,156.31,86.83Zm1-5.17a1.09,1.09,0,1,1,1.18,1A1.1,1.1,0,0,1,157.28,81.66Zm1.64,11.78a1.09,1.09,0,1,1,1-1.18A1.1,1.1,0,0,1,158.92,93.44Zm2.45-4.19a1.09,1.09,0,1,1,1-1.18A1.1,1.1,0,0,1,161.37,89.25Zm2,6.28a1.09,1.09,0,1,1,1-1.18A1.1,1.1,0,0,1,163.39,95.53Zm.12-10.44a1.09,1.09,0,1,1,1-1.18A1.1,1.1,0,0,1,163.51,85.09Zm2.33,6.25a1.09,1.09,0,1,1,1-1.18A1.09,1.09,0,0,1,165.84,91.34ZM168,87.18A1.09,1.09,0,1,1,169,86,1.1,1.1,0,0,1,168,87.18Z"/><path class="cls-4" d="M153.31,119c-2.18,0-4.5-1-6.93-3-3.66-3-3.62-9.81.13-20.3a166.45,166.45,0,0,1,9.87-21.27l.23-.44c.74-1.4,4.09-7.47,5.15-9,6.28-9,12.38-10.43,16-8.81A5.49,5.49,0,0,1,181,62.46a22.35,22.35,0,0,1-1,3.2l-18.47,46.07c-.14.37-.29.76-.42,1.16-.41,1.19-2.35,4.8-5.87,5.82A7,7,0,0,1,153.31,119Zm21.62-62.43c-3.3,0-7.76,2.34-12.42,9h0c-1,1.41-4.17,7.15-5.09,8.89l-.24.44c-4.48,8.41-18.13,34-10.22,40.43,2.92,2.37,5.62,3.22,8,2.52,3.15-.91,4.89-4.16,5.25-5.23.14-.42.29-.82.45-1.21l18.46-46.07a21.81,21.81,0,0,0,1-3.07,4.57,4.57,0,0,0-2.75-5.2A6,6,0,0,0,174.93,56.55Z"/><path class="cls-4" d="M152.45,119.4a7,7,0,0,1-2.65-.52c-2-.84-6.37-4-4.06-15h0c.37-1.73,2.5-8.18,3-9.64l.17-.46c3.13-9,12.65-36.37,24.38-37.1,4.57-.28,7.62.71,9,3,1.73,2.72.48,6.31-.15,7.46-.2.38-.4.76-.57,1.12l-21.51,45.14a23.72,23.72,0,0,1-1.7,3A7.24,7.24,0,0,1,152.45,119.4Zm-5.81-15.35c-2.17,10.38,1.74,13.24,3.52,14a6.39,6.39,0,0,0,7.5-2.21,23.78,23.78,0,0,0,1.63-2.88L180.8,67.8q.27-.57.6-1.17c.52-.95,1.66-4.2.18-6.53-1.24-1.94-4-2.79-8.22-2.53-11.12.7-20.5,27.63-23.58,36.49l-.16.46c-.64,1.82-2.64,7.92-3,9.53Z"/><path class="cls-4" d="M155,119.68a10.91,10.91,0,0,1-6.39-2.48c-3.7-2.73-3.68-9.71.07-20.74a190.15,190.15,0,0,1,9.88-22.55l.24-.48c.75-1.48,4.1-8,5.16-9.6h0c6.44-9.9,12.65-11.78,16.31-10.24a5.21,5.21,0,0,1,3.09,6,24.6,24.6,0,0,1-1,3.35l-18.49,48.62c-.15.39-.29.81-.43,1.23-.42,1.31-2.47,5.32-6.2,6.52A7.26,7.26,0,0,1,155,119.68ZM177.77,54c-3.38,0-8.08,2.67-13,10.31h0c-1,1.52-4.18,7.66-5.11,9.51l-.24.48a187.24,187.24,0,0,0-9.83,22.44c-3.61,10.6-3.74,17.24-.4,19.71,2.82,2.07,5.44,2.74,7.79,2,3.37-1.09,5.22-4.74,5.61-5.94.14-.43.29-.86.44-1.27l18.5-48.61a22.78,22.78,0,0,0,1-3.23,4.29,4.29,0,0,0-2.54-5A5.64,5.64,0,0,0,177.77,54Z"/><path class="cls-4" d="M149.36,94.35l16.82,6,7.29-16.86-15.93-5.69Zm15.42.52a1.11,1.11,0,0,1-1,1.19,1.16,1.16,0,0,1-1.36-.86,1.11,1.11,0,0,1,1-1.19A1.17,1.17,0,0,1,164.78,94.87Zm-4.76-2a1.1,1.1,0,0,1-1,1.19,1.16,1.16,0,0,1-1.36-.86,1.11,1.11,0,0,1,1-1.19A1.15,1.15,0,0,1,160,92.86Zm-5.74-.54a1.16,1.16,0,0,1-1.36-.86,1.12,1.12,0,0,1,1-1.19,1.15,1.15,0,0,1,1.35.86A1.1,1.1,0,0,1,154.28,92.32Zm12.9-2.41a1.11,1.11,0,0,1-1,1.19,1.15,1.15,0,0,1-1.35-.86,1.1,1.1,0,0,1,1-1.19A1.15,1.15,0,0,1,167.18,89.91Zm-4.75-2a1.11,1.11,0,0,1-1,1.19,1.15,1.15,0,0,1-1.35-.86,1.1,1.1,0,0,1,1-1.19A1.16,1.16,0,0,1,162.43,87.9Zm6.81-2.37a1.11,1.11,0,0,1-1,1.18,1.14,1.14,0,0,1-1.35-.85,1.1,1.1,0,0,1,1-1.19A1.16,1.16,0,0,1,169.24,85.53Zm-11.52.64a1.11,1.11,0,0,1-1,1.19,1.14,1.14,0,0,1-1.35-.86,1.1,1.1,0,0,1,1-1.19A1.16,1.16,0,0,1,157.72,86.17Zm6.77-2.65a1.12,1.12,0,0,1-1,1.19,1.17,1.17,0,0,1-1.36-.86,1.11,1.11,0,0,1,1-1.19A1.16,1.16,0,0,1,164.49,83.52Zm-4.71-1.73a1.12,1.12,0,0,1-1,1.19,1.17,1.17,0,0,1-1.36-.86,1.11,1.11,0,0,1,1-1.19A1.16,1.16,0,0,1,159.78,81.79Z"/></g><g id="band1"><path class="cls-4" d="M4,191.84a6.05,6.05,0,0,1-.72-.53c-2.18-1.81-3.1-4.79-2.75-8.85.41-4.7,6.09-8.5,16.87-11.28a168.19,168.19,0,0,1,23.15-3.76l.5,0c1.57-.17,8.47-.8,10.32-.78h0c11,.17,15.58,4.4,16.27,8.31a5.47,5.47,0,0,1-3.34,6.21,24.14,24.14,0,0,1-3.22.95l-48.5,10.55c-.39.08-.8.18-1.2.3A10.31,10.31,0,0,1,4,191.84ZM51.4,167.51c-1.72,0-8.26.56-10.21.77l-.5.05c-9.48,1-38.32,4.06-39.21,14.21-.33,3.74.49,6.46,2.42,8.07,2.52,2.1,6.19,1.71,7.28,1.41.42-.11.84-.22,1.25-.31l48.5-10.55a21.31,21.31,0,0,0,3.09-.91,4.56,4.56,0,0,0,2.76-5.19c-.62-3.55-5-7.4-15.38-7.55Z"/><path class="cls-4" d="M3.35,191.5a7.21,7.21,0,0,1-3.23-4.6c-.42-2.12-.28-7.5,10.16-11.79,1.63-.67,8.17-2.51,9.66-2.91l.48-.13c9.2-2.45,37.21-9.91,44.39-.61,2.8,3.62,3.69,6.7,2.63,9.14-1.28,3-4.95,3.93-6.26,4.06-.43,0-.84.1-1.24.16l-49.45,7.51a24.75,24.75,0,0,1-3.42.27A6.89,6.89,0,0,1,3.35,191.5ZM62,170.17c-9.13-5.81-33,.57-41.37,2.79l-.48.12c-1.86.5-8,2.26-9.56,2.88-9.81,4-10,8.86-9.6,10.76a6.4,6.4,0,0,0,6,5,23.06,23.06,0,0,0,3.3-.27l49.44-7.51,1.29-.16c1.08-.1,4.41-1,5.51-3.51.91-2.12.07-4.88-2.51-8.22A8,8,0,0,0,62,170.17Z"/><path class="cls-4" d="M4.49,193.7c-.2-.13-.39-.26-.58-.41C1.72,191.57.68,188.78.84,185c.19-4.6,6-8.49,17.21-11.58a189.1,189.1,0,0,1,24.22-4.46l.52-.07c1.65-.22,8.9-1.08,10.85-1.11,11.8-.23,16.84,3.86,17.62,7.76A5.2,5.2,0,0,1,68,181.44a25.08,25.08,0,0,1-3.34,1L14,194.43l-1.25.33C11.54,195.13,7.53,195.64,4.49,193.7Zm62.57-22.32c-2.65-1.68-7-2.84-13.4-2.72h0c-1.82,0-8.7.84-10.75,1.11l-.53.06a188.34,188.34,0,0,0-24.09,4.45c-10.8,3-16.37,6.57-16.54,10.73-.14,3.49.78,6,2.72,7.56,2.79,2.18,6.85,1.67,8.06,1.32.44-.13.88-.25,1.3-.35l50.62-12a23.74,23.74,0,0,0,3.22-1,4.31,4.31,0,0,0,2.69-4.9A6.86,6.86,0,0,0,67.06,171.38Z"/><path class="cls-4" d="M20.18,172.77l4.47,17.29,18.05-3.42-4.22-16.38Zm8.21,13.06a1.11,1.11,0,0,1-1.56-.19,1.16,1.16,0,0,1,0-1.61,1.12,1.12,0,0,1,1.57.19A1.17,1.17,0,0,1,28.39,185.83Zm-1-5.06a1.1,1.1,0,0,1-1.56-.2,1.15,1.15,0,0,1,0-1.6,1.11,1.11,0,0,1,1.56.19A1.16,1.16,0,0,1,27.39,180.77Zm-2.77-5.06a1.16,1.16,0,0,1-.05-1.61,1.1,1.1,0,0,1,1.56.2,1.15,1.15,0,0,1,.05,1.6A1.11,1.11,0,0,1,24.62,175.71ZM33.85,185a1.12,1.12,0,0,1-1.57-.2,1.15,1.15,0,0,1,0-1.6,1.11,1.11,0,0,1,1.56.19A1.16,1.16,0,0,1,33.85,185Zm-1-5.07a1.11,1.11,0,0,1-1.57-.19,1.16,1.16,0,0,1-.05-1.6,1.12,1.12,0,0,1,1.57.19A1.15,1.15,0,0,1,32.85,180Zm5.78,4.31a1.11,1.11,0,0,1-1.56-.19,1.15,1.15,0,0,1,0-1.6,1.1,1.1,0,0,1,1.56.19A1.15,1.15,0,0,1,38.63,184.28Zm-7-9.17a1.11,1.11,0,0,1-1.57-.2,1.17,1.17,0,0,1-.05-1.6,1.12,1.12,0,0,1,1.57.19A1.16,1.16,0,0,1,31.64,175.11Zm6,4.11a1.12,1.12,0,0,1-1.57-.19,1.17,1.17,0,0,1,0-1.61,1.11,1.11,0,0,1,1.56.2A1.15,1.15,0,0,1,37.63,179.22Zm-1.21-4.87a1.11,1.11,0,0,1-1.57-.19,1.15,1.15,0,0,1,0-1.6,1.1,1.1,0,0,1,1.56.19A1.15,1.15,0,0,1,36.42,174.35Z"/></g><g id="band3"><path class="cls-4" d="M10.42,95.61A4,4,0,0,1,10,95.3c-1.26-1-1.79-2.76-1.59-5.1.24-2.72,3.52-4.9,9.74-6.51a97.36,97.36,0,0,1,13.35-2.17l.29,0c.9-.1,4.88-.46,5.95-.45h0c6.31.09,9,2.53,9.39,4.79a3.18,3.18,0,0,1-1.93,3.58,13.38,13.38,0,0,1-1.86.54l-28,6.09-.7.17A5.91,5.91,0,0,1,10.42,95.61Zm27.32-14c-1,0-4.76.33-5.89.45l-.29,0C26.1,82.63,9.46,84.39,9,90.24c-.19,2.16.28,3.73,1.4,4.66a5.09,5.09,0,0,0,4.19.81l.73-.18,28-6.08A12.27,12.27,0,0,0,45,88.92a2.64,2.64,0,0,0,1.6-3c-.37-2.05-2.89-4.27-8.88-4.36Z"/><path class="cls-4" d="M10,95.41a4.19,4.19,0,0,1-1.86-2.65C7.92,91.54,8,88.43,14,86c.94-.39,4.72-1.45,5.58-1.68l.27-.08c5.31-1.41,21.46-5.72,25.61-.35,1.61,2.09,2.12,3.87,1.52,5.27-.74,1.71-2.86,2.27-3.61,2.35-.26,0-.49,0-.72.09L14.15,95.89a14.81,14.81,0,0,1-2,.16A4.06,4.06,0,0,1,10,95.41Zm33.84-12.3c-5.26-3.35-19.06.33-23.86,1.6l-.27.08c-1.08.28-4.64,1.3-5.52,1.66-5.66,2.32-5.76,5.11-5.54,6.2a3.71,3.71,0,0,0,3.49,2.87,15.5,15.5,0,0,0,1.9-.15L42.59,91l.74-.09a4.13,4.13,0,0,0,3.18-2c.53-1.21,0-2.81-1.45-4.74A4.5,4.5,0,0,0,43.87,83.11Z"/><path class="cls-4" d="M10.69,96.68a2.62,2.62,0,0,1-.34-.24c-1.26-1-1.86-2.6-1.77-4.8C8.69,89,12,86.74,18.51,85a110,110,0,0,1,14-2.58l.31,0c.95-.12,5.13-.62,6.25-.64,6.81-.13,9.72,2.23,10.17,4.48a3,3,0,0,1-1.88,3.42,15,15,0,0,1-1.93.6L16.19,97.1l-.72.19A6.53,6.53,0,0,1,10.69,96.68ZM46.77,83.81c-1.52-1-4-1.65-7.73-1.57h0c-1,0-5,.48-6.19.63l-.31,0a109.81,109.81,0,0,0-13.89,2.57c-6.24,1.71-9.45,3.79-9.54,6.19-.09,2,.44,3.48,1.56,4.36a5.84,5.84,0,0,0,4.65.76c.26-.08.51-.14.75-.2l29.2-6.9a14.44,14.44,0,0,0,1.86-.57,2.49,2.49,0,0,0,1.55-2.83A3.91,3.91,0,0,0,46.77,83.81Z"/><path class="cls-4" d="M19.73,84.61l2.58,10,10.41-2-2.43-9.45Zm4.74,7.53a.65.65,0,0,1-.9-.11.67.67,0,0,1,0-.93.66.66,0,0,1,.91.11A.68.68,0,0,1,24.47,92.14Zm-.58-2.92a.65.65,0,0,1-.9-.11.67.67,0,0,1,0-.93.65.65,0,0,1,.91.12A.66.66,0,0,1,23.89,89.22Zm-1.6-2.92a.66.66,0,0,1,0-.92.63.63,0,0,1,.9.11.66.66,0,0,1,0,.92A.64.64,0,0,1,22.29,86.3Zm5.33,5.38a.63.63,0,0,1-.9-.11.66.66,0,0,1,0-.92.63.63,0,0,1,.9.11A.66.66,0,0,1,27.62,91.68ZM27,88.76a.63.63,0,0,1-.9-.11.66.66,0,0,1,0-.92.63.63,0,0,1,.9.11A.66.66,0,0,1,27,88.76Zm3.34,2.49a.64.64,0,0,1-.9-.11.67.67,0,0,1,0-.93.65.65,0,0,1,.9.11A.67.67,0,0,1,30.38,91.25Zm-4-5.3a.63.63,0,0,1-.9-.11.66.66,0,0,1,0-.92.64.64,0,0,1,.91.11A.66.66,0,0,1,26.34,86Zm3.46,2.38a.64.64,0,0,1-.9-.11.67.67,0,0,1,0-.93.64.64,0,0,1,.9.11A.67.67,0,0,1,29.8,88.33Zm-.7-2.81a.65.65,0,0,1-.9-.11.67.67,0,0,1,0-.93.65.65,0,0,1,.91.12A.67.67,0,0,1,29.1,85.52Z"/></g><polyline class="cls-5" points="109.84 46.27 108.94 59.06 126.83 51.7"/><polyline class="cls-5" points="106.39 43.12 108.94 59.06 124.88 50.71"/><path class="cls-5" d="M108,59.62S154.08,3,167.54,1.28"/><path class="cls-5" d="M110.18,58.76S156.51.22,164.07.74"/><path class="cls-5" d="M108,57.19s50.61-52.86,52.52-57"/><path class="cls-5" d="M145.4,17.52s5.26-1.32,9.6,1.71"/><path class="cls-5" d="M146.67,6.75c2.73,2-.87,10.33-.87,10.33s1.31-9.2-.41-10.31"/><path class="cls-5" d="M145.29,17.54a15.49,15.49,0,0,1,9.07,2.75"/><path class="cls-5" d="M150.33,11.9s5.26-1.33,9.6,1.7"/><path class="cls-5" d="M151.6,1.13c2.73,2-.86,10.33-.86,10.33s1.3-9.2-.42-10.31"/><path class="cls-5" d="M150.23,11.92a15.51,15.51,0,0,1,9.07,2.75"/><path class="cls-5" d="M155.88,6.51s5.26-1.32,9.6,1.71"/><path class="cls-5" d="M155.77,6.54a15.53,15.53,0,0,1,9.07,2.74"/><path class="cls-5" d="M154,18.11c-3-3.1-7.46-1.19-7.46-1.19s6.35.53,8.14,2.45"/><path class="cls-5" d="M163.53,9.42c-1.75-3.93-6.6-3.66-6.6-3.66s5.78,2.66,6.8,5.08"/><polyline class="cls-5" points="125.11 54.64 108.31 59.75 108.51 41.13"/><polyline class="cls-5" points="116.27 201.16 128.31 205.59 114.25 218.89"/><polyline class="cls-5" points="114.82 196.72 128.31 205.59 114.15 216.7"/><path class="cls-5" d="M129.2,205s-70.58,18.75-77.63,30.33"/><path class="cls-5" d="M127.53,206.6s-72.4,18.22-75,25.32"/><path class="cls-5" d="M127,204s-69,24.45-73.54,24.49"/><path class="cls-5" d="M75.46,221.79s-3.36,4.25-2.38,9.45"/><path class="cls-5" d="M65.12,218.52c.67,3.3,9.78,3.45,9.78,3.45s-8.93-2.58-9.24-4.61"/><path class="cls-5" d="M75.53,221.7a15.47,15.47,0,0,0-1.22,9.4"/><path class="cls-5" d="M68.31,224s-3.37,4.25-2.38,9.45"/><path class="cls-5" d="M58,220.71c.67,3.3,9.77,3.46,9.77,3.46s-8.92-2.59-9.23-4.61"/><path class="cls-5" d="M68.38,223.89a15.4,15.4,0,0,0-1.22,9.4"/><path class="cls-5" d="M61.12,226.83s-3.36,4.25-2.38,9.45"/><path class="cls-5" d="M50.78,223.56c.67,3.3,9.78,3.45,9.78,3.45s-8.93-2.58-9.24-4.61"/><path class="cls-5" d="M61.19,226.74A15.45,15.45,0,0,0,60,236.13"/><path class="cls-5" d="M72.48,229.84c-1.6-4,2-7.28,2-7.28s-2.13,6-1.11,8.42"/><path class="cls-5" d="M60.64,235c-2.87-3.21-.64-7.52-.64-7.52s.06,6.37,1.85,8.29"/><polyline class="cls-5" points="117.64 218.52 129.19 205.31 112.13 197.84"/></g></g></svg>