<svg xmlns="http://www.w3.org/2000/svg" viewBox="0 0 136.83 121.46"><g id="Layer_2" data-name="Layer 2"><g id="Layer_1-2" data-name="Layer 1"><path d="M85.14,0a72.29,72.29,0,0,0-9,.82A23,23,0,0,0,71.63.59a41.75,41.75,0,0,0-6.4.78c-2.11.41-4.2.92-6.28,1.5A104,104,0,0,0,46.72,7.1,74.2,74.2,0,0,0,35.5,12.94a62.06,62.06,0,0,0-5.11,3.7C28.71,18,27.12,19.45,25.57,21c-.76.74-1.51,1.49-2.25,2.26-2.35,1.71-4.67,3.47-6.87,5.37-1.27,1.1-2.47,2.27-3.64,3.47s-2.28,2.42-3.36,3.7a42.34,42.34,0,0,0-3.07,4.12,35.88,35.88,0,0,0-2.49,4.45c-.74,1.56-1.42,3.16-2,4.77S.66,52.4.05,54A1,1,0,0,0,.5,55.18a1,1,0,0,0,.76.1.91.91,0,0,0,.59-.46C2.41,53.54,3,52.25,3.53,51s1.23-2.65,1.86-4,1.3-2.58,2-3.81a38,38,0,0,1,2.32-3.42,57.46,57.46,0,0,1,3.75-4.36,59.35,59.35,0,0,0-3.44,5.93A45.4,45.4,0,0,0,5.92,53.5,42.48,42.48,0,0,0,5.26,60a40.32,40.32,0,0,0,.4,6.5A49.78,49.78,0,0,0,9.17,79a81.09,81.09,0,0,0,6,11.48,77.77,77.77,0,0,0,7.61,10.32A58.42,58.42,0,0,0,43,115.44a72.69,72.69,0,0,0,25,5.89,75.28,75.28,0,0,0,13-.36,73.43,73.43,0,0,0,12.78-2.56,67.25,67.25,0,0,0,11.79-4.78,63.53,63.53,0,0,0,10.4-6.81A53.59,53.59,0,0,0,131.14,87a69.1,69.1,0,0,0,5.63-25.58A83.22,83.22,0,0,0,136.19,48a72,72,0,0,0-2.85-13c-.66-2.07-1.42-4.11-2.23-6.12a53.88,53.88,0,0,0-2.77-6,42.55,42.55,0,0,0-7.72-10,46.24,46.24,0,0,0-4.91-4.15,41.46,41.46,0,0,0-5.36-3.36A45.85,45.85,0,0,0,98.2,1.13,56.89,56.89,0,0,0,86.71,0L85.14,0ZM71.89,1.43h.73l-.72.14A120.87,120.87,0,0,0,47.11,9.74q-5.94,2.55-11.63,5.68c-1.87,1-3.71,2.09-5.51,3.23l-1.38.88c1.05-1,2.11-1.86,3.22-2.74a59.16,59.16,0,0,1,7.45-5,78.46,78.46,0,0,1,8-3.94l0,0,.08,0h0c1.64-.7,3.29-1.36,5-1.95s3.47-1.16,5.21-1.68A72.08,72.08,0,0,1,68,1.76h0a37.78,37.78,0,0,1,4-.34ZM94.16,3.65a53.41,53.41,0,0,1,6,1.23,45.42,45.42,0,0,1,5.78,2,43.58,43.58,0,0,1,9.16,5.46,46.83,46.83,0,0,1,8,8.07,43.2,43.2,0,0,1,3.17,4.94,60.29,60.29,0,0,1,2.62,5.58,85.44,85.44,0,0,1,3.09,8.83,71,71,0,0,1,2,9.78,81.16,81.16,0,0,1,0,20.6,63.87,63.87,0,0,1-4.05,15.45l.08-.21a54,54,0,0,1-6.77,11.89A53.38,53.38,0,0,1,119,102.1a52.84,52.84,0,0,1-4.88,4.35l.14-.11a64.26,64.26,0,0,1-6.6,4.53,62.87,62.87,0,0,1-7.18,3.65l.16-.07a68.27,68.27,0,0,1-8.55,3,70.47,70.47,0,0,1-9.2,1.89,77.67,77.67,0,0,1-10,.7,76.52,76.52,0,0,1-10.26-.66h0a71.4,71.4,0,0,1-18.41-5,60.75,60.75,0,0,1-13-7.69h0l-.14-.12.09.07a58.41,58.41,0,0,1-5.78-5.23,66.69,66.69,0,0,1-5-6A84.9,84.9,0,0,1,14.83,87a77.3,77.3,0,0,1-4.46-8.92,1,1,0,0,1,0,.1A51.63,51.63,0,0,1,6.92,65.66v-.07a39.47,39.47,0,0,1-.33-5.1,39.94,39.94,0,0,1,.34-5.13s0,0,0,.06l0-.13v0A43.46,43.46,0,0,1,9.73,45l0,0,.06-.14h0a61.15,61.15,0,0,1,7.74-13.15c.25-.33.49-.65.75-1,.73-.64,1.48-1.26,2.24-1.87,2-1.59,4.14-3.12,6.25-4.62s4.5-3.07,6.85-4.45a130.46,130.46,0,0,1,14.75-7.43l-.35.15A150.54,150.54,0,0,1,62.36,7.15,92.94,92.94,0,0,1,77.09,3.79c1.52-.2,3-.36,4.57-.47.33.12.66.24,1,.38l-.1,0a.72.72,0,0,1,.2.09.41.41,0,0,0,.57-.15.43.43,0,0,0,0-.38,60.23,60.23,0,0,1,10.82.43Zm-.38,0,.23,0-.23,0Zm-16.36.15-.13,0,.13,0Zm37.7,8.64.19.15-.19-.15ZM128.7,30.65l0,.11,0-.11Zm-111.12,1,0,.05,0-.05ZM9.88,39.6a1.71,1.71,0,0,1-.11.14,1.71,1.71,0,0,0,.11-.14Zm-.15.2-.07.08.07-.08Zm52.75,79.57h0ZM31.21,106.68h0l-.06-.05.05.05ZM6.92,65.62v0Zm0-10.33v.07s0-.06,0-.08ZM9.77,44.91l0,.09a.36.36,0,0,0,0-.09ZM47.27,7.82l-.05,0,.06,0Z" style="fill:#fff"/></g></g></svg>