<svg xmlns="http://www.w3.org/2000/svg" viewBox="0 0 931.95 635.69"><defs><style>.cls-1{fill:#8fb38e;}.cls-2{fill:#bd936c;}.cls-3{fill:#e92873;}.cls-4{fill:#eda520;}.cls-5{fill:#928e91;}.cls-6{fill:#4c3431;}</style></defs><g id="Layer_2" data-name="Layer 2"><g id="Layer_1-2" data-name="Layer 1"><path class="cls-1" d="M497.32,145.47q23.93-4.92,48.12-8.56T594,131.2a682.12,682.12,0,0,1,97.8-1.73c32.59,1.93,65.12,6.56,96.74,15.07a329.49,329.49,0,0,1,46.37,16.2,226.23,226.23,0,0,1,42.79,24.37,167.1,167.1,0,0,1,18.84,16,137.91,137.91,0,0,1,15.94,19.05,108.7,108.7,0,0,1,18.1,46.13c2.42,16.48,1.47,33.28-1.75,49.49a190,190,0,0,1-16.13,46.72,200,200,0,0,1-27.19,41.28,169.62,169.62,0,0,1-37.19,32.69,164.57,164.57,0,0,1-45.32,20,245.41,245.41,0,0,1-48.73,7.88,466.13,466.13,0,0,1-49.16.34c-16.34-.65-32.63-1.83-48.88-3.14-32.51-2.65-64.91-5.68-97.38-7.45a925.79,925.79,0,0,0-97.42-.71,708.9,708.9,0,0,0-96.68,11.3,667.16,667.16,0,0,0-94.07,25.07c-1.92.66-3.86,1.27-5.76,2l-5.71,2.13-11.42,4.25c-1.92.68-3.79,1.47-5.67,2.24l-5.64,2.3-11.29,4.61c-7.42,3.32-14.86,6.59-22.25,10-7.31,3.57-14.64,7.07-21.92,10.69-7.2,3.78-14.43,7.51-21.61,11.33l-21.23,12L117.34,564l-2.6,1.59-2.56,1.67-5.1,3.35-10.21,6.69-5.1,3.35c-1.69,1.13-3.34,2.33-5,3.49l-10,7c-3.32,2.35-6.67,4.67-10,7.05l-9.75,7.35-9.77,7.33c-1.62,1.23-3.28,2.42-4.87,3.69l-4.77,3.82L18.59,635.69l18.79-15.63,4.7-3.91c1.57-1.3,3.2-2.52,4.8-3.78l9.65-7.51,9.66-7.49c3.27-2.42,6.59-4.79,9.88-7.19L86,583c1.65-1.19,3.28-2.41,5-3.57L96,576l10.14-6.84,5.06-3.43,2.54-1.7,2.59-1.63,20.73-13,21.13-12.33c7.15-3.93,14.35-7.77,21.53-11.66,7.26-3.73,14.61-7.28,21.91-10.93,7.39-3.45,14.84-6.79,22.27-10.19l11.3-4.72,5.65-2.36c1.88-.78,3.76-1.59,5.67-2.3L258,490.57l5.72-2.18c1.91-.73,3.86-1.36,5.78-2a671.68,671.68,0,0,1,94.44-26q24-4.74,48.41-7.76c16.23-2,32.53-3.35,48.85-4.23a928,928,0,0,1,98,.3c32.61,1.65,65.1,4.7,97.54,7.29,16.22,1.28,32.44,2.42,48.65,3.06a467.83,467.83,0,0,0,48.55-.4A239.61,239.61,0,0,0,801.48,451a158.78,158.78,0,0,0,43.8-19.25,163.78,163.78,0,0,0,36-31.56,196.83,196.83,0,0,0,26.53-40.08,184.16,184.16,0,0,0,15.87-45.33c3.19-15.7,4.16-31.91,1.91-47.7a108,108,0,0,0-6-23,110.05,110.05,0,0,0-11.09-21.1,132.66,132.66,0,0,0-15.23-18.5,162.73,162.73,0,0,0-18.2-15.76,222,222,0,0,0-41.79-24.24,325.23,325.23,0,0,0-45.69-16.37c-31.25-8.7-63.54-13.53-96-15.77a679.45,679.45,0,0,0-97.5.44q-24.35,1.77-48.57,5T497.32,145.47Z"/><polygon class="cls-2" points="1.12 523.47 33.84 632.73 104.72 547.38 1.12 523.47"/><path class="cls-3" d="M227.39,57.37A51.67,51.67,0,0,0,188.55,1.69h0a56.44,56.44,0,0,0-64.34,29.92Z"/><rect class="cls-4" x="-135.02" y="242.92" width="494.78" height="108.09" transform="translate(-202.97 334.04) rotate(-75.98)"/><rect class="cls-5" x="100.1" y="44.64" width="146.1" height="17.82" transform="translate(18.13 -40.35) rotate(14.02)"/><rect class="cls-5" x="95.42" y="63.37" width="146.1" height="17.82" transform="translate(22.53 -38.66) rotate(14.02)"/><polygon class="cls-2" points="56.96 604.9 104.72 547.38 1.12 523.47 22.97 596.41 56.96 604.9"/><polygon class="cls-6" points="27.28 610.82 33.84 632.73 47.79 615.94 27.28 610.82"/></g></g></svg>