<svg xmlns="http://www.w3.org/2000/svg" viewBox="0 0 224.08 155.69"><defs><style>.cls-1,.cls-7,.cls-8{fill:none;stroke-miterlimit:10;}.cls-1,.cls-7{stroke:#a682ae;}.cls-1{stroke-width:1.91px;}.cls-2{fill:#a682ae;}.cls-3{fill:#fff;}.cls-4{fill:#69acc7;}.cls-5{fill:#7dc7ae;}.cls-6{fill:#ffb23c;}.cls-7{stroke-width:1.39px;}.cls-8{stroke:#fff;stroke-width:1.54px;}</style></defs><g id="Layer_2" data-name="Layer 2"><g id="Layer_1-2" data-name="Layer 1"><path class="cls-1" d="M116.25,77.26c-.2,24.71-34.94,53.1-69,48.5C18.26,121.87,1.32,95.78,1,73.54.89,68.27.72,57.35,8.58,48,26.2,27,70.85,14.61,96.41,34.37,101.07,38,116.39,61.66,116.25,77.26Z"/><path class="cls-1" d="M107.44,47.47c14.86,22.17,5.23,63.7-24,75.49C58.72,133,29.76,117.57,16,97.87c-3.27-4.66-10-14.33-9.64-26.35C7.22,44.57,34.23,12.69,66,18.43,71.82,19.47,98.07,33.48,107.44,47.47Z"/><path class="cls-2" d="M9.76,57.06C17.07,32.71,54.06,13.57,81,26.84c22.87,11.26,29.38,41.35,23.26,63.4-1.46,5.23-4.46,16.05-13.69,23.28-20.66,16.21-61.25,17-76.74-9C11,99.74,5.15,72.43,9.76,57.06Z"/><rect class="cls-3" x="108.31" y="54.94" width="32.34" height="32.34" rx="12"/><rect class="cls-3" x="45" y="108.31" width="32.34" height="32.34" rx="12"/><path class="cls-4" d="M163.46,105.22c0,11.65,0,23.29,0,34.93,0,5-.06,5-5.08,5.09-4.11,0-8.24-.13-12.35.06-3.22.14-4.47-1-4.37-4.32q.3-10.47,0-20.95c-.24-8.83-6.3-15.35-14.43-15.86-9.19-.58-16.37,6.15-16.59,15.8-.15,7-.15,14,0,20.95.08,3.23-1,4.54-4.3,4.38-4.47-.21-9-.16-13.43,0-2.93.09-4.31-.93-4.16-4s0-6.09,0-9.13c0-20.42.14-40.84-.1-61.26,0-4.32,1.43-6.77,4.9-9.15,9.74-6.68,19.27-13.68,28.72-20.78,2.77-2.09,4.75-2,7.5,0q15.1,11.2,30.5,22c2.56,1.79,3.19,3.92,3.16,6.82C163.4,81.58,163.46,93.4,163.46,105.22Zm-37.3-21.33A12.61,12.61,0,0,0,138.8,70.71,12.81,12.81,0,0,0,126,58.13,13.09,13.09,0,0,0,113.29,71.4,12.77,12.77,0,0,0,126.16,83.89Z"/><path class="cls-5" d="M61.1,145.25c-6.46,0-12.91-.07-19.36,0-2.8.05-4.27-.59-4.23-3.86.16-11.29.12-22.58,0-33.88,0-2.5.88-3.57,3.41-3.56q20.16.08,40.33,0c2.53,0,3.43,1.11,3.41,3.59q-.11,17,0,33.88c0,2.74-.94,3.86-3.73,3.82-6.63-.11-13.26,0-19.89,0ZM58.92,131.8c0-5.76-.07-5.82-6.09-5.78-5.61,0-5.61,0-5.63,5.77,0,6,0,6,5.87,6S58.93,137.75,58.92,131.8Zm16.13.44c0-6.18,0-6.18-5.51-6.21-6.1,0-6.22.07-6.26,5.59,0,6.1,0,6.1,5.6,6.13C75,137.79,75,137.79,75.05,132.24Zm0-15.63c.08-6.55.08-6.55-5.24-6.64-6.31-.11-6.45,0-6.51,5.38-.07,6.26-.07,6.26,5.52,6.29C75,121.69,75,121.69,75,116.61Zm-16.12-1c0-5.56-.07-5.63-5.12-5.65-6.62,0-6.62,0-6.61,5.77s0,5.89,6,5.89S58.94,121.64,58.92,115.63Z"/><path class="cls-5" d="M191,145.26c-6.45,0-12.9-.08-19.35,0-2.92.06-4.14-.91-4.11-4q.21-16.65,0-33.31c0-3.06,1.21-4.07,4.13-4q19.61.14,39.22,0c2.73,0,3.83,1,3.81,3.75q-.14,16.93,0,33.86c0,2.85-1.21,3.74-3.87,3.7C204.25,145.2,197.62,145.26,191,145.26Zm-2-29.34c0-5.83-.1-5.94-6-6s-5.75,0-5.78,5.52c0,6.12,0,6.12,5.64,6.14C189,121.65,189,121.65,189,115.92Zm16.08,0c0-5.85-.08-5.94-6-5.93-5.73,0-5.74,0-5.73,6.1,0,5.54,0,5.54,5.65,5.58C205.07,121.68,205.07,121.68,205.08,115.89Zm-27.84,15.75c0,6.06,0,6.06,5.56,6.11,6.16.05,6.16.05,6.2-5.52,0-6.07-.05-6.17-5.63-6.21C177.33,126,177.27,126,177.24,131.64Zm27.86.17c0-5.73-.11-5.82-6.18-5.79-5.57,0-5.57,0-5.57,5.76,0,6,0,6,5.84,6S205.11,137.75,205.1,131.81Z"/><path class="cls-6" d="M126.2,155.56H40.12c-1.61,0-3.22,0-4.84-.06a2.75,2.75,0,0,1-3-3c-.08-2,1-2.95,2.89-3,1.08,0,2.16,0,3.23,0q88,0,175.92,0c2.18,0,5.61-1.29,5.6,2.89,0,4.47-3.65,3.12-6,3.12Q170,155.62,126.2,155.56Z"/><path class="cls-6" d="M150.62,9.26c0,8.39-.28,8.68-8.86,7.93-3.57-.31-7.1-.91-10.66-1.33-2.43-.28-3.54.76-3.67,3.32-.19,3.61.36,6.36,3.76,8.7,12.85,8.82,25.46,18,38.15,27a18,18,0,0,1,2.5,2,3,3,0,0,1,.44,3.94,2.88,2.88,0,0,1-3.81,1,31.15,31.15,0,0,1-5.07-3q-15.51-11.11-31-22.31c-6.48-4.68-6.6-4.51-13,.16-11,8-22.12,15.87-33.19,23.79-.58.41-1.2.78-1.76,1.23C83,63,81.4,63,80.22,61.56c-1.34-1.6-1-3.38.55-4.76s3-2.52,4.64-3.67c11.66-8.33,23.26-16.75,35.07-24.88,3.35-2.3,4.75-4.84,4.48-8.89-.33-5,0-10-.11-15-.07-3,1.47-4.16,4.23-4.29,3.09-.15,6,.74,9,1.24,2.84.48,5.69,1.09,8.54.65,3-.47,4.38.4,4,3.58A31.58,31.58,0,0,0,150.62,9.26Z"/><path class="cls-6" d="M58.34,99.56c-7.33,0-14.67.09-22,0-4.12-.07-4.47-.86-2.18-4.33,3.05-4.63,6.24-9.17,9.27-13.81a5.25,5.25,0,0,1,4.82-2.75c10.56.06,21.12.08,31.68,0,3.11,0,4.64,1,4.48,4.37-.19,3.75,0,7.52-.05,11.28-.06,5-.19,5.22-5.07,5.26C72.31,99.62,65.32,99.57,58.34,99.56Z"/><path class="cls-6" d="M193.47,99.57c-7.14,0-14.29-.09-21.44,0-2.9,0-4.28-.83-4.16-4,.18-4.28.13-8.57,0-12.86-.08-2.83.78-4.24,4-4.19,10.54.14,21.08.1,31.62,0a6.25,6.25,0,0,1,5.73,3.21c2.89,4.51,6,8.88,8.92,13.37,2,3,1.51,4.12-2.13,4.21-7.49.2-15,.06-22.51.06Z"/><path class="cls-6" d="M127.72,68.77c.08,1.83,0,4-2.07,5.38-1.31.88-2.36,2.18-4,2.47-.3-2.15,1.76-2.31,2.84-3.16,2.15-1.68,2.26-3.9,2.27-6.27a12.16,12.16,0,0,1,.37-2c1,.5.45,1.45.6,2.19A8.71,8.71,0,0,1,127.72,68.77Z"/><path class="cls-3" d="M207,69c-13.57,9.9-40.47,5.12-49.15-12.72-7.36-15.14,1.33-33.63,13.36-42.8,2.85-2.17,8.76-6.67,16.45-6.77,17.24-.24,38.66,15.66,36.25,35.63C223.46,45.93,215.55,62.69,207,69Z"/><path class="cls-2" d="M187.6,24.55a6.12,6.12,0,0,0-1.14.11A104.13,104.13,0,0,0,174,29.38c-1,.47-1.18,1-.71,2,1,2.24,1.9,4.53,2.75,6.84.38,1,.82,1.18,1.82.76a30.17,30.17,0,0,1,7.67-2,7.83,7.83,0,0,1,3.84.42c.47.18,1.15.31,1.06,1s-.7.75-1.24.75a21.09,21.09,0,0,0-8.45,2.33c-3,1.33-2.91,1.34-1.89,4.4,1.41,4.25,2.83,8.5,4.1,12.8.54,1.82,0,2.64-1.64,3.05-1.89.48-3.28-.18-3.77-1.9q-3.12-10.94-7.28-21.51c-.28-.72-.58-1.43-.84-2.16-.39-1.11-.74-2-2.35-1.85a2.88,2.88,0,0,1-2.84-1.91c-.49-1.15.36-1.91,1-2.69a7.27,7.27,0,0,0,1.31-1.89,2.08,2.08,0,0,1,1.27-1.12,166.67,166.67,0,0,1,17.58-6.6,6.56,6.56,0,0,1,2.56-.38c1.5.18,2.89,1.53,2.77,2.68S189,24.65,187.6,24.55Z"/><path class="cls-2" d="M210.49,30.44a3.55,3.55,0,0,1,2.54.78,2.12,2.12,0,0,1,1,2c-.15.93-1,.93-1.68,1.08a42.39,42.39,0,0,0-11.9,4.39,2.9,2.9,0,0,1-3.39-.21c-1.7-1.25-1.64-2.5.22-3.47a46,46,0,0,1,12.35-4.43A7.3,7.3,0,0,1,210.49,30.44Z"/><path class="cls-7" d="M216.93,19.9c8.5,12.54.87,38.94-17.92,48.49-15.95,8.11-33.57.86-41.49-10.23-1.87-2.62-5.76-8.07-5.06-15.52C154,25.93,172.23,4.13,192,5.2,195.6,5.39,211.56,12,216.93,19.9Z"/><path class="cls-7" d="M202.11,8c15.21,6,24.82,30.28,14.21,46.39-9,13.67-29,16-42.77,10.86-3.27-1.22-10.05-3.73-14-9.93-8.93-13.89-6.42-39.37,11.61-47.54C174.41,6.25,192.52,4.17,202.11,8Z"/><path class="cls-7" d="M156.14,44.85c-5.34-15.44,6.85-38.54,26-41,16.22-2.08,31,11.55,36,25.36,1.2,3.27,3.7,10.05,1.59,17.11C215,62.15,194,76.84,176.11,68.49,172.84,67,159.5,54.59,156.14,44.85Z"/><polyline class="cls-8" points="57.84 70.13 67.64 71.81 65.05 59.35"/><polyline class="cls-8" points="18.32 32.88 33.49 54.94 43.5 49.28 52.24 65.15 56.44 61.3 66.91 71.25 56.07 57.58 52.24 62.71 43.3 50.69 35.96 53.7 17.28 25.6"/></g></g></svg>