<svg width="152" height="6" viewBox="0 0 152 6" fill="none" xmlns="http://www.w3.org/2000/svg">
<path d="M152 5.42324C151.265 5.26829 150.53 5.26829 149.746 5.19082C149.011 5.11334 148.276 5.03587 147.541 4.88092C145.875 4.57102 144.258 4.26112 142.592 4.02869C139.407 3.48637 136.271 3.02152 133.086 2.63415C130.146 2.32425 127.255 2.01435 124.315 1.78192C123.58 1.70445 122.796 1.70445 122.061 1.62697C119.17 1.47202 116.279 1.2396 113.338 1.16212C106.576 0.852224 99.7653 0.542324 93.0032 0.387374C86.3881 0.232425 79.724 0.0774749 73.109 0.0774749C69.8749 0.0774749 66.5919 0 63.3578 0C59.8298 0 56.3017 0 52.7737 0C45.5216 0 38.2205 0.0774749 30.9684 0.15495C24.6963 0.232425 18.3752 0.619799 12.1032 1.16212C8.08511 1.5495 4.01805 2.01435 0 2.55667C4.60606 3.25395 9.16312 3.79627 13.8182 4.18364C16.8072 4.41607 19.7963 4.57102 22.8343 4.72597C24.7943 4.80344 26.7053 4.80344 28.6654 4.80344C29.8414 4.80344 31.0664 4.72597 32.2424 4.72597C35.4275 4.64849 38.6125 4.49354 41.8465 4.41607C45.5216 4.33859 49.1476 4.18364 52.8227 4.10617C56.5957 4.02869 60.3688 3.95122 64.1418 3.87374C67.5229 3.79627 70.9039 3.79627 74.334 3.79627C77.666 3.79627 80.9491 3.79627 84.2811 3.79627C87.6131 3.79627 90.9452 3.87374 94.2772 3.95122C97.6583 4.02869 101.088 4.18364 104.469 4.26112C110.692 4.49354 116.867 4.88092 123.09 5.26829C126.52 5.50072 129.999 5.65567 133.429 5.73314C136.81 5.88809 140.24 5.96557 143.621 5.96557C144.993 5.96557 146.414 6.04304 147.786 5.96557C148.472 5.96557 149.109 5.88809 149.795 5.81062C150.383 5.73314 150.971 5.57819 151.559 5.50072C151.608 5.42324 151.804 5.42324 152 5.42324Z" fill="#FFB33D"/>
</svg>
