<svg id="Layer_1" data-name="Layer 1" xmlns="http://www.w3.org/2000/svg" xmlns:xlink="http://www.w3.org/1999/xlink" viewBox="0 0 1476.77 994.72"><defs><style>.cls-1,.cls-4{fill:none;}.cls-2{fill:#8aac89;}.cls-3{clip-path:url(#clip-path);}.cls-4{stroke:#fff;stroke-miterlimit:10;stroke-width:2px;}</style><clipPath id="clip-path"><path class="cls-1" d="M1455,870.53c-103.78,26.86-270.62,56.83-468.31,27.58C781.18,867.7,700.22,796.67,513.18,778.62,402.54,767.94,233.38,773.73,15,870.53V.4H1455Z"/></clipPath></defs><path class="cls-2" d="M1455,870.53c-103.78,26.86-270.62,56.83-468.31,27.58C781.18,867.7,700.22,796.67,513.18,778.62,402.54,767.94,233.38,773.73,15,870.53V.4H1455Z"/><g class="cls-3"><path class="cls-4" d="M-187.26,291.47c59.59,15.91,167.42,35.66,291.07,3.06s279.83-121.93,269.62-193C366.26,51.61,276.6,7.44,241.68,31c-28.26,19.1-28.17,87.66,3.06,122.56,44.53,49.73,145.06,22.94,205.28,6.12C623.45,111.31,682.11,22.64,836.06-67c67.44-39.26,174-90.87,324.77-122.55"/><path class="cls-4" d="M761.51,946.11c86.68-119.35,174-167.67,238.3-189.62,90.84-31,136.62-9.63,210-55.49,109.39-68.32,93-169,158.64-180.77,95.69-17.21,263.21,172.91,244.77,329.88-5.42,46.06-26.71,88.07-4.09,114.38,26.11,30.37,91.32,17.23,140.94,2"/></g></svg>