<svg xmlns="http://www.w3.org/2000/svg" viewBox="0 0 1258.22 424.39"><defs><style>.cls-1{fill:#bd936c;}.cls-2{fill:#4c3431;}.cls-3{fill:#f0a328;}.cls-4{fill:#020202;opacity:0.21;}.cls-5{fill:#e92974;}.cls-6{font-size:50.67px;}.cls-13,.cls-17,.cls-6{fill:#fff;font-family:AbrilFatface-Regular, Abril Fatface;}.cls-7{letter-spacing:-0.05em;}.cls-8{letter-spacing:-0.01em;}.cls-9{letter-spacing:0em;}.cls-10{fill:#928e91;}.cls-11{letter-spacing:-0.02em;}.cls-12{letter-spacing:-0.01em;}.cls-13{font-size:40.48px;}.cls-14{letter-spacing:-0.01em;}.cls-15{letter-spacing:-0.02em;}.cls-16{letter-spacing:0em;}.cls-17{font-size:29.04px;}.cls-18{letter-spacing:-0.01em;}.cls-19{letter-spacing:0em;}.cls-20{letter-spacing:0em;}.cls-21{letter-spacing:-0.01em;}</style></defs><g id="Layer_2" data-name="Layer 2"><g id="Layer_1-2" data-name="Layer 1"><polygon class="cls-1" points="1154.1 312.66 1258.22 179.11 1093.97 166.7 1154.1 312.66"/><polygon class="cls-1" points="1204.66 175.06 1093.97 166.7 1154.1 312.66 1223.61 223.51 1204.66 175.06"/><polygon class="cls-2" points="1237.34 205.9 1258.22 179.11 1225.9 176.67 1237.34 205.9"/><rect class="cls-3" x="685.69" y="151.53" width="314" height="162.89" transform="translate(-28.45 307.25) rotate(-20.33)"/><rect class="cls-3" x="822.79" y="212.04" width="314" height="162.89" transform="translate(-40.93 358.65) rotate(-20.33)"/><rect class="cls-3" x="500.93" y="124.89" width="341.47" height="162.89" transform="translate(-29.85 246.18) rotate(-20.33)"/><polygon class="cls-4" points="694.68 282.57 723.76 363.88 859.24 198.58 694.68 282.57"/><polygon class="cls-4" points="825.66 326.99 854.74 408.3 990.22 243.01 825.66 326.99"/><rect class="cls-5" x="11.62" y="95.78" width="341.47" height="162.89" rx="21.19" transform="translate(-50.21 74.39) rotate(-20.33)"/><rect class="cls-3" x="308.89" y="80.88" width="314" height="162.89" transform="translate(-27.37 171.96) rotate(-20.33)"/><text class="cls-6" transform="translate(452.43 209.11) rotate(-20.67)"><tspan class="cls-7">F</tspan><tspan x="27.21" y="0">ami</tspan><tspan class="cls-8" x="116.08" y="0">l</tspan><tspan class="cls-9" x="131.33" y="0">y</tspan></text><rect class="cls-3" x="124.14" y="54.24" width="341.47" height="162.89" transform="translate(-28.77 110.89) rotate(-20.33)"/><polygon class="cls-4" points="317.88 211.92 346.96 293.23 482.45 127.93 317.88 211.92"/><polygon class="cls-4" points="500.39 243.32 529.47 324.63 664.96 159.33 500.39 243.32"/><rect class="cls-10" x="4.64" y="184.81" width="242.95" height="25.53" transform="translate(-18.04 382.39) rotate(-109.5)"/><rect class="cls-10" x="34.38" y="175.53" width="242.95" height="25.53" transform="translate(30.37 398.06) rotate(-109.5)"/><text class="cls-6" transform="matrix(0.91, -0.41, 0.41, 0.91, 635.47, 257.13)"><tspan class="cls-11">F</tspan><tspan x="28.98" y="0">rien</tspan><tspan class="cls-12" x="127.48" y="0">d</tspan><tspan x="156.76" y="0">s</tspan></text><text class="cls-13" transform="matrix(0.94, -0.34, 0.34, 0.94, 186.89, 186.91)"><tspan class="cls-14">R</tspan><tspan x="28.58" y="0">el</tspan><tspan class="cls-15" x="62.25" y="0">a</tspan><tspan class="cls-16" x="83.86" y="0">tionships</tspan></text><text class="cls-17" transform="translate(939.33 350.87) rotate(-21.9)"><tspan class="cls-18">S</tspan><tspan class="cls-19" x="17.13" y="0">ur</tspan><tspan class="cls-20" x="49.08" y="0">r</tspan><tspan x="63.31" y="0">oundin</tspan><tspan class="cls-21" x="158.71" y="0">g</tspan><tspan class="cls-19" x="173.58" y="0">s</tspan></text><text class="cls-6" transform="translate(817.31 291.67) rotate(-20.67)"><tspan class="cls-7">F</tspan><tspan x="27.21" y="0">ami</tspan><tspan class="cls-8" x="116.08" y="0">l</tspan><tspan class="cls-9" x="131.33" y="0">y</tspan></text></g></g></svg>