<svg xmlns="http://www.w3.org/2000/svg" viewBox="0 0 1960.72 1450.38"><defs><style>.cls-1,.cls-14,.cls-2{fill:#8fb38e;}.cls-1{opacity:0.18;}.cls-2{font-size:46.05px;font-family:AbrilFatface-Regular, Abril Fatface;}.cls-3{letter-spacing:-0.06em;}.cls-4{letter-spacing:-0.01em;}.cls-5{letter-spacing:0em;}.cls-6{letter-spacing:0em;}.cls-7{letter-spacing:0em;}.cls-8{letter-spacing:-0.03em;}.cls-9{letter-spacing:-0.01em;}.cls-10{letter-spacing:0em;}.cls-11{fill:#f99370;}.cls-12{fill:#e57d61;}.cls-13{fill:#fff;}.cls-15,.cls-16{fill:#7c9e7a;}.cls-15{opacity:0.09;}.cls-17{fill:#fcb5a7;}.cls-18{fill:#b286b0;}.cls-19{fill:#9b6f9b;}.cls-20{fill:#835584;}</style></defs><g id="Layer_2" data-name="Layer 2"><g id="Layer_1-2" data-name="Layer 1"><path class="cls-1" d="M1939,38.68c-15-6-276.92-105.28-450.39,39.83C1357.34,188.35,1352,375.16,1350.77,421.66c-5.07,198.91,100.1,262.37,52.09,370.73-52.92,119.41-203.61,94.12-260.43,205.27-61.15,119.63-23.16,325.25,116.43,401.36,91,49.62,189.29,24.66,220.59,15.32h481.27Z"/><path class="cls-1" d="M21.69,60.13c15-6,276.91-105.28,450.38,39.83C603.37,209.8,608.76,396.61,610,443.11,615,642,509.85,705.48,557.86,813.83,610.77,933.24,761.47,908,818.29,1019.11c61.15,119.63,23.16,325.25-116.43,401.36-91,49.61-189.29,24.66-220.59,15.32H0Z"/><text class="cls-2" transform="translate(587.09 196.58)"><tspan class="cls-3">T</tspan><tspan class="cls-4" x="28.69" y="0">a</tspan><tspan x="53.51" y="0">p the sc</tspan><tspan class="cls-5" x="209.68" y="0">r</tspan><tspan class="cls-6" x="232.25" y="0">een to </tspan><tspan class="cls-7" x="367.87" y="0">r</tspan><tspan class="cls-8" x="390.44" y="0">ev</tspan><tspan x="436.4" y="0">eal the qu</tspan><tspan class="cls-9" x="641.8" y="0">es</tspan><tspan class="cls-10" x="684.63" y="0">tions</tspan></text><g id="_4" data-name="4"><path class="cls-11" d="M1159.84,934.54,910.55,953.72s32.49,64.39,125.73,110.21a166.33,166.33,0,0,1,58.89,48.32l20.48.62Z"/><path class="cls-12" d="M1069.92,953.72s-.72,21.39,6.21,51.4c0,0-22.39-25.45-165.58-51.4Z"/><path class="cls-11" d="M942.66,606.17l-5.1,63.3c-59-19.21-49.95-10.13-95.59-54-46.35-33.17-52.08-102.73-8-78.72l7.68,4.91Z"/><path class="cls-12" d="M861.69,554.52l-.27,78.86L842,615.52s-.34-73.81-.35-73.81Z"/><rect class="cls-13" x="873.48" y="427.03" width="285.04" height="451.45"/><path class="cls-14" d="M1135.42,353.45H897.9a42.76,42.76,0,0,0-42.78,42.74V911a42.72,42.72,0,0,0,42.78,42.74h237.52A42.76,42.76,0,0,0,1178.2,911V396.19A42.77,42.77,0,0,0,1135.42,353.45Zm24.42,526.69H873.48V427h286.36Z"/><path id="_10" data-name="10" class="cls-15" d="M892.72,740.1c28.66-10.64,13-68-19.24-83.69V868.22a31.65,31.65,0,0,0,6.27,2.25c29.92,4.49,26.32-40,5.39-62.12C913.14,811.88,913.67,763.84,892.72,740.1Z"/><path class="cls-16" d="M1178.2,839.45c-2.77,37,15.86,113.35-42.78,114.27H897.9a42.79,42.79,0,0,1-38.84-24.8S1060.43,957.11,1178.2,839.45Z"/><path class="cls-16" d="M1039.19,916.78c-.51,29.59-44.56,29.58-45.06,0C994.64,887.2,1038.69,887.2,1039.19,916.78Z"/><path class="cls-16" d="M979.38,392.88c0,7.35-11.21,7.35-11.24,0S979.35,385.53,979.38,392.88Z"/><path class="cls-16" d="M1063.06,396.53H993.44a2.09,2.09,0,0,1-2.09-2.08c.12-1.7-.64-5.27,2.09-5.22h69.62c2.67-.05,2,3.52,2.09,5.22A2.08,2.08,0,0,1,1063.06,396.53Z"/><path class="cls-16" d="M897.9,353.45c251.45,0,280.3,73.58,280.3,73.58V393.71c0-23.6-19.15-40.26-42.78-40.26Z"/><path class="cls-15" d="M1159.84,582.54v297.6h-79.48c51.69-84,65.67-71.6,67.11-181.43,0,0-13.6-21.61-19.29-40.17C1115.43,616.9,1143.61,582.13,1159.84,582.54Z"/><path class="cls-11" d="M867.35,874c-7.19-1.14-18.6-9.9-26.18-16.28h0c-16.41-13.42-33.07-30.94-19.86-50.27,4.07-5.81,8.5-9.07,14.57-10.57,15.42-3.93,36.63,11.26,45.72,26.31C895.22,846.27,890.48,879.42,867.35,874Z"/><path class="cls-17" d="M867.35,874c-7.19-1.14-18.6-9.9-26.18-16.28,0,0,1.4-11.71,17.89-23.44C859.06,834.26,890.89,853.79,867.35,874Z"/><path class="cls-12" d="M877,816.64c-11.79-13.34-30.18-25.22-45.14-18.43,14.33,11.57,32,30.3,49.74,25A48.34,48.34,0,0,0,877,816.64Z"/><path class="cls-14" d="M1178.2,615.71V911c-1,60.44-83.14,39.21-120.71,42.74,0,0-.36-29.81,22.5-73.58h79.85V586.22C1167.3,593.29,1172.87,606.42,1178.2,615.71Z"/><path class="cls-11" d="M870.37,812.83c-10.18-2.39-25.39-16.26-35.72-24.57-22.49-16.76-35.68-46.69-9.15-64.2,19.07-10.72,39.43,3.3,54,18.28C901.41,764,902.19,820.25,870.37,812.83Z"/><path class="cls-17" d="M870.37,812.83c-14.27-1-30.22-19.43-30.22-19.43s-2-16.49,18.44-29.8C858.59,763.6,900.35,790.74,870.37,812.83Z"/><path class="cls-12" d="M879.52,742.34c-14.59-15-34.95-29-54-18.28a149.73,149.73,0,0,0,12.6,11.53h0c14.2,11.41,33.15,28.54,48.58,16.57A55.59,55.59,0,0,0,879.52,742.34Z"/><path class="cls-11" d="M870.46,743.25c-8.9-1.17-23.11-12.26-32.35-20.07h0c-55.63-35.8-14.79-102.31,36.79-53.29C903.49,694,902,749.91,870.46,743.25Z"/><path class="cls-17" d="M870.46,743.24h0c-8.9-1.17-23.11-12.26-32.35-20.07,0,0-1-16.1,19-28.47C857.15,694.71,898.06,719.83,870.46,743.24Z"/><path class="cls-11" d="M1369,1106.56l34.51,127.73H1167c-16.1-28.09-34.3-57-49-86.53-5.79-11.85-11.73-23.92-16.15-36.57-9.33-36.82-26.14-145-31.94-157.47,4.41-101.38,93.38-116.69,86.44-259-45.15-56.91-9.79-151.72,24.22-97.4q9.6,17.07,18.15,34c48.43,96,71.9,189.72,74.49,293A175.14,175.14,0,0,0,1298,1010C1320,1030.83,1335.45,1085.1,1369,1106.56Z"/><path class="cls-18" d="M1583.42,1427.5H1079.66c.34-47.59,4.16-125.36,7.91-191.74q.27-4.76.54-9.44c3.64-63.35,7.07-114.07,7.07-114.07,73.39-12.16,150.83-45.19,202.44-101.82l.41-.45.33.07s31.93,35.9,77,94.08h0C1384.28,1115.63,1530,1319.92,1583.42,1427.5Z"/><path class="cls-17" d="M1171.49,585.54c-16,10.13-3.13,52.54,5.77,59.51,0,0,9.92-9.69,21.46-13.72C1198.72,631.33,1183.14,595.75,1171.49,585.54Z"/><path class="cls-19" d="M1375.37,1104.13h0c-101.15,118.41-287.26,122.19-287.26,122.19-41.66-73.65,7.07-114.07,7.07-114.07,73.39-12.16,150.83-45.19,202.44-101.82l.74-.38C1379.8,1021.32,1375.43,1103.18,1375.37,1104.13Z"/><circle class="cls-20" cx="1320.49" cy="1075.25" r="18.06"/></g><g id="_3" data-name="3"><path class="cls-11" d="M687.72,947.54c0,20.12-26.27,173.68-141.09,114.46C585,930,680.05,867.57,687.72,947.54Z"/><path class="cls-11" d="M730,1425.86s19.19-57.12,39.91-98.73C797,1272.76,889,1145.93,877.7,1033.45L615.08,969.69s-37.33,2.61-73,104.79c-59.94,171.76-64,266.87-124.13,351.38Z"/><path class="cls-11" d="M1034.56,1099.64c-3.17,11.07-15.14,25.59-36.79,42.73-76.36,60.46-112.25,111.37-231.41,187-80.34,51-151-74.92-64.91-115,60.57-27.13,110.44-76.88,169.31-85.73a365.7,365.7,0,0,0,56.92-13.72c26.9-27.78,42.36-34.81,61.59-38.59C1023.36,1069.65,1039.69,1081.78,1034.56,1099.64Z"/><path class="cls-17" d="M1034.56,1099.64c-2,11-22.38,32.43-42.54,47.32a102,102,0,0,0-24.12-26.71C1015.72,1082,1034.56,1099.64,1034.56,1099.64Z"/><path class="cls-18" d="M745.76,1427.5H381.49c20.51-29.08,57.05-63.85,76.33-76.75,78.1,38.9,187.08,56.76,278.31,57.62C736.13,1408.37,741.76,1415.21,745.76,1427.5Z"/><path class="cls-12" d="M687.72,947.54,662.07,999c-19.93-43.82,17-77.85,17-77.85C683.85,927,687.62,935.72,687.72,947.54Z"/><path class="cls-11" d="M739.37,1016.17c-16.51,31.45-75.76,27.43-77.3-17.15,2.4-92.44,70.08-98,93-69.88C766.16,942.66,742.36,1010.48,739.37,1016.17Z"/><path class="cls-12" d="M745,987.83a26.08,26.08,0,0,0-1.42,7.45v.39c.4,8-8.2,15.65-11.18,21.34-16.9-60.56,22.74-87.87,22.74-87.87C766.16,942.66,745.27,987.1,745,987.83Z"/><path class="cls-11" d="M829.06,999.75a124.93,124.93,0,0,1-13.8,34.67A104.22,104.22,0,0,1,799.5,1055a61.68,61.68,0,0,1-8.65,7.45c-49,43-91.66-18.4-41.59-107,24.62-43.58,65.54-30.16,80-.83A50,50,0,0,1,829.06,999.75Z"/><path class="cls-12" d="M829.06,999.75c-3.37,14.12-29.56,55.25-29.56,55.25-2.81-63.94,29.76-100.46,29.78-100.42A50,50,0,0,1,829.06,999.75Z"/><path class="cls-11" d="M989.9,878c-67,90.48-92.22,172.73-121.94,258.8-19.71,40.73-18.69,93.85-80.29,95-148.19-19.65,76.92-306.47,162.39-400C1017.5,765.94,1039.55,824.53,989.9,878Z"/><path class="cls-17" d="M979.33,851.14c-17.68-17.35-29.28-19.27-29.28-19.27l0,0c19.45-18.38,36.46-29.56,48.83-29.68C1016.68,818,979.33,851.14,979.33,851.14Z"/><path class="cls-12" d="M927.67,1115c-49.34,23.37-78.86,63.49-78.86,63.49,15.7-30.56,22-49.78,22-49.78A366.74,366.74,0,0,0,927.67,1115Z"/></g></g></g></svg>