<svg xmlns="http://www.w3.org/2000/svg" viewBox="0 0 1960.72 1450.38"><defs><style>.cls-1,.cls-2{fill:#8fb38e;}.cls-1{opacity:0.18;}.cls-3{fill:#f99370;}.cls-4{fill:#e57d61;}.cls-5{fill:#fff;}.cls-6,.cls-7{fill:#7c9e7a;}.cls-6{opacity:0.09;}.cls-8{fill:#fcb5a7;}.cls-9{fill:#b286b0;}.cls-10{fill:#9b6f9b;}.cls-11{fill:#835584;}</style></defs><g id="Layer_2" data-name="Layer 2"><g id="Layer_1-2" data-name="Layer 1"><path class="cls-1" d="M1939,38.68c-15-6-276.92-105.28-450.39,39.83C1357.34,188.35,1352,375.16,1350.77,421.66c-5.07,198.91,100.1,262.37,52.09,370.73-52.92,119.41-203.61,94.12-260.43,205.27-61.15,119.63-23.16,325.25,116.43,401.36,91,49.62,189.29,24.66,220.59,15.32h481.27Z"/><path class="cls-1" d="M21.69,60.13c15-6,276.91-105.28,450.38,39.83C603.37,209.8,608.76,396.61,610,443.11,615,642,509.85,705.48,557.86,813.83,610.77,933.24,761.47,908,818.29,1019.11c61.15,119.63,23.16,325.25-116.43,401.36-91,49.61-189.29,24.66-220.59,15.32H0Z"/><path class="cls-2" d="M616.38,164.34l.46,11.56H616a36,36,0,0,0-3.59-8.36,5.16,5.16,0,0,0-4.51-2.23h-.56v30.3h3.92v1H594.41v-1h3.91v-30.3h-.6a5.2,5.2,0,0,0-4.55,2.32,34.48,34.48,0,0,0-3.55,8.27h-.88l.46-11.56Z"/><path class="cls-2" d="M627.29,185.75h1.34v-3.54a22.82,22.82,0,0,0-.49-5.87,1.86,1.86,0,0,0-1.86-1.5,2.69,2.69,0,0,0-1.5.44,1.35,1.35,0,0,0-.67,1.19,4.75,4.75,0,0,0,.28,1.55h1.15a6.42,6.42,0,0,1,.37,2.32,3,3,0,0,1-1.15,2.35,4.31,4.31,0,0,1-2.9,1q-4,0-4-3.82,0-5.67,9.62-5.67c3.65,0,6.18.63,7.58,1.87s2.09,3.52,2.09,6.84v9.35c0,1.59.45,2.39,1.34,2.39,1,0,1.66-1.58,1.84-4.74l.69,0c-.12,2.71-.63,4.56-1.52,5.58s-2.35,1.52-4.37,1.52q-5.53,0-6.36-3.41a4.94,4.94,0,0,1-1.8,2.58,6.13,6.13,0,0,1-3.5.83q-6.81,0-6.81-5.58a4.52,4.52,0,0,1,2.6-4.49C621,186.16,623.7,185.75,627.29,185.75Zm-1.59,8.75a1,1,0,0,0,1,.69c.47,0,.92-.39,1.33-1.17a6.92,6.92,0,0,0,.63-3.25v-4.28h-.33q-2.85,0-2.85,4.19v.74A11.37,11.37,0,0,0,625.7,194.5Z"/><path class="cls-2" d="M652.07,174.65v3.64a6.4,6.4,0,0,1,6.35-4.1,7.32,7.32,0,0,1,6.15,2.86q2.19,2.85,2.19,8.66t-2.37,8.56c-1.58,1.85-4,2.77-7.12,2.77a7.62,7.62,0,0,1-3.31-.56,4.26,4.26,0,0,1-1.8-1.7v11.93h5.94v.83h-17v-.83h2.53V175.48h-2.44v-.83Zm5.34,3.16c-.31-1.09-.91-1.64-1.8-1.64a2.94,2.94,0,0,0-2.39,1.73,8.77,8.77,0,0,0-1.06,4.63V191a6.73,6.73,0,0,0,.78,3.36,2.5,2.5,0,0,0,2.31,1.38c1,0,1.7-.67,2.07-2a30.74,30.74,0,0,0,.55-7.09v-2.39A28.16,28.16,0,0,0,657.41,177.81Z"/><path class="cls-2" d="M678.73,190V175.48H676.2v-.83h2.53v-5.94l8.57-2.11v8.05h6v.83h-6V191a8.33,8.33,0,0,0,.44,3.18,1.75,1.75,0,0,0,1.81,1,3,3,0,0,0,2.42-1.38,8,8,0,0,0,1.36-3.77l.78.09a8.9,8.9,0,0,1-2,5c-1.11,1.25-2.93,1.87-5.48,1.87a9.64,9.64,0,0,1-5.85-1.52Q678.73,194,678.73,190Z"/><path class="cls-2" d="M694.58,162h11.09v16.85a7.7,7.7,0,0,1,2.26-3.41,7,7,0,0,1,4.61-1.29q7.13,0,7.13,7.69v13.87h2.58v.83h-13v-.83h1.89v-15a10.52,10.52,0,0,0-.37-3.57,1.35,1.35,0,0,0-1.34-.81c-1,0-1.85.65-2.6,1.94a9.19,9.19,0,0,0-1.13,4.7v12.71h2v.83H694.58v-.83h2.53V162.87h-2.53Z"/><path class="cls-2" d="M726.14,194q-3-3.06-3-8.52c0-3.63,1.12-6.42,3.34-8.35a12.48,12.48,0,0,1,8.5-2.91q10.46,0,10,10.5h-13v1.8a15.91,15.91,0,0,0,1.15,6.82,4.12,4.12,0,0,0,4,2.3q5.34,0,7-5.71l.83.14a9.51,9.51,0,0,1-3.16,5.15q-2.28,1.84-6.84,1.85Q729.11,197,726.14,194Zm6-10.2h4.74v-2.25a19,19,0,0,0-.44-5.09,1.72,1.72,0,0,0-1.75-1.36,2,2,0,0,0-1.93,1.45,13.91,13.91,0,0,0-.62,5Z"/><path class="cls-2" d="M756.05,197v-8.25h.56c.8,2.67,1.87,4.55,3.22,5.62A7.85,7.85,0,0,0,764.9,196c3.13,0,4.69-1,4.69-3a2.07,2.07,0,0,0-1.15-1.93,15.34,15.34,0,0,0-4.6-1.57,17.92,17.92,0,0,1-5.25-2.21,5.83,5.83,0,0,1-2.54-5.25,7.57,7.57,0,0,1,2.22-5.73,8.08,8.08,0,0,1,5.89-2.15,11.59,11.59,0,0,1,4.65,1.06,3.72,3.72,0,0,0,1.34.37,1.1,1.1,0,0,0,.78-.32,5,5,0,0,0,.78-1.2h.51v7.05h-.55q-2.35-6-7.28-6a5.58,5.58,0,0,0-3.22.76,2.28,2.28,0,0,0-1.06,1.91,1.67,1.67,0,0,0,.32,1.09,5.65,5.65,0,0,0,.51.57,2.38,2.38,0,0,0,.6.39,6.4,6.4,0,0,0,.69.32,8.16,8.16,0,0,0,.85.3,5.64,5.64,0,0,0,.85.23,36.82,36.82,0,0,1,4.51,1.36,15.47,15.47,0,0,1,2.63,1.41q2.53,1.74,2.53,5.64a7.39,7.39,0,0,1-2.3,5.89,9.28,9.28,0,0,1-6.31,2,12.22,12.22,0,0,1-5.53-1.34,1.85,1.85,0,0,0-.87-.37q-1,0-2,1.71Z"/><path class="cls-2" d="M787.88,175a3,3,0,0,0-2.9,2.21,21.65,21.65,0,0,0-.88,7.33V187q0,4.56,1,6.54a3.81,3.81,0,0,0,3.73,2,5.44,5.44,0,0,0,4.33-1.84,8.88,8.88,0,0,0,2.08-4.19l.82.09a9.27,9.27,0,0,1-3.22,5.71,10.75,10.75,0,0,1-6.59,1.8q-5.34,0-8.19-2.88t-2.86-8.43q0-5.55,3.25-8.54t9-3a10.46,10.46,0,0,1,6.26,1.59,4.8,4.8,0,0,1,2.17,4,5,5,0,0,1-1,3.5,3.74,3.74,0,0,1-2.86,1.1,4.3,4.3,0,0,1-2.92-1,3.59,3.59,0,0,1-1.1-2.86,5.94,5.94,0,0,1,.23-1.66h1.52a5.15,5.15,0,0,0,.32-1.66A2,2,0,0,0,787.88,175Z"/><path class="cls-2" d="M812.61,175.94c-1.14,0-2.14.74-3,2.21a10.28,10.28,0,0,0-1.28,5.26v12.34h3.26v.83H797.23v-.83h2.53V175.48h-2.53v-.83h11.1v4.43a6.2,6.2,0,0,1,2.3-3.62,6.33,6.33,0,0,1,3.87-1.27,5.05,5.05,0,0,1,3.52,1.23,4.41,4.41,0,0,1,1.36,3.45,5.14,5.14,0,0,1-1,3.43,3.83,3.83,0,0,1-3.1,1.2,3.54,3.54,0,0,1-3.09-1.38,4.28,4.28,0,0,1-.25-3.83h1.66C814.34,176.73,814,175.94,812.61,175.94Z"/><path class="cls-2" d="M823,194q-3-3.06-3-8.52c0-3.63,1.12-6.42,3.34-8.35a12.48,12.48,0,0,1,8.5-2.91q10.46,0,10,10.5h-13v1.8a15.76,15.76,0,0,0,1.15,6.82,4.12,4.12,0,0,0,4,2.3q5.34,0,7-5.71l.83.14a9.51,9.51,0,0,1-3.16,5.15Q836.46,197,831.9,197,826,197,823,194Zm6-10.2h4.74v-2.25a19.45,19.45,0,0,0-.44-5.09,1.72,1.72,0,0,0-1.75-1.36,2,2,0,0,0-1.93,1.45,13.91,13.91,0,0,0-.62,5Z"/><path class="cls-2" d="M846.76,194q-3-3.06-3-8.52c0-3.63,1.11-6.42,3.33-8.35a12.48,12.48,0,0,1,8.5-2.91q10.46,0,10,10.5h-13v1.8a15.74,15.74,0,0,0,1.16,6.82,4.1,4.1,0,0,0,4,2.3q5.34,0,7-5.71l.83.14a9.44,9.44,0,0,1-3.15,5.15q-2.28,1.84-6.84,1.85Q849.73,197,846.76,194Zm6-10.2h4.74v-2.25a19.58,19.58,0,0,0-.43-5.09,1.73,1.73,0,0,0-1.75-1.36,2,2,0,0,0-1.94,1.45,14.15,14.15,0,0,0-.62,5Z"/><path class="cls-2" d="M867.41,174.65h11.1v4.24a7.61,7.61,0,0,1,2.26-3.41,7,7,0,0,1,4.6-1.29q7.14,0,7.14,7.69v13.87h2.58v.83h-13v-.83h1.88v-15a10.88,10.88,0,0,0-.36-3.57,1.35,1.35,0,0,0-1.34-.81c-1,0-1.85.65-2.6,1.94a9.19,9.19,0,0,0-1.13,4.7v12.71h2v.83H867.41v-.83h2.53V175.48h-2.53Z"/><path class="cls-2" d="M906.28,190V175.48h-2.53v-.83h2.53v-5.94l8.57-2.11v8.05h6v.83h-6V191a8.58,8.58,0,0,0,.43,3.18,1.77,1.77,0,0,0,1.82,1,3,3,0,0,0,2.42-1.38,8.06,8.06,0,0,0,1.36-3.77l.78.09a8.9,8.9,0,0,1-2,5Q918,197,914.16,197a9.64,9.64,0,0,1-5.85-1.52Q906.29,194,906.28,190Z"/><path class="cls-2" d="M925.44,194.09q-3-2.94-3-8.45c0-3.67,1-6.5,3.15-8.47s5.06-3,8.87-3,6.65.92,8.52,2.74,2.81,4.62,2.81,8.36q0,11.75-11.7,11.75C930.3,197,927.4,196.05,925.44,194.09ZM937,187.5v-3.91a30.73,30.73,0,0,0-.49-6.52c-.32-1.36-1.06-2-2.23-2a2.3,2.3,0,0,0-1.64.58,3.51,3.51,0,0,0-.89,1.91,34.62,34.62,0,0,0-.42,6.31v3.59a32.57,32.57,0,0,0,.3,6,10.72,10.72,0,0,0,.62,1.66,2,2,0,0,0,2,1.11,2.35,2.35,0,0,0,2.35-2.07A31.54,31.54,0,0,0,937,187.5Z"/><path class="cls-2" d="M970.8,175.94c-1.14,0-2.13.74-3,2.21a10.28,10.28,0,0,0-1.29,5.26v12.34h3.27v.83H955.42v-.83H958V175.48h-2.53v-.83h11.1v4.43a6.25,6.25,0,0,1,2.3-3.62,6.35,6.35,0,0,1,3.87-1.27,5.05,5.05,0,0,1,3.52,1.23,4.37,4.37,0,0,1,1.36,3.45,5.2,5.2,0,0,1-1,3.43,3.86,3.86,0,0,1-3.11,1.2,3.54,3.54,0,0,1-3.09-1.38,4.28,4.28,0,0,1-.25-3.83h1.66C972.53,176.73,972.21,175.94,970.8,175.94Z"/><path class="cls-2" d="M981.19,194c-2-2-3-4.88-3-8.52s1.12-6.42,3.34-8.35a12.48,12.48,0,0,1,8.5-2.91q10.46,0,10,10.5h-13v1.8a15.91,15.91,0,0,0,1.15,6.82,4.12,4.12,0,0,0,4,2.3q5.34,0,7-5.71l.83.14a9.44,9.44,0,0,1-3.15,5.15Q994.66,197,990.1,197,984.16,197,981.19,194Zm6-10.2h4.74v-2.25a19.58,19.58,0,0,0-.43-5.09,1.73,1.73,0,0,0-1.75-1.36,2,2,0,0,0-1.94,1.45,14.15,14.15,0,0,0-.62,5Z"/><path class="cls-2" d="M1000.14,175.48v-.83h13.77v.83H1011l5.53,15.29,5-15.29h-3.08v-.83h6.22v.83h-2l-6.82,21.1h-5.25l-8.52-21.1Z"/><path class="cls-2" d="M1027.15,194q-3-3.06-3-8.52c0-3.63,1.11-6.42,3.33-8.35a12.48,12.48,0,0,1,8.5-2.91q10.46,0,10,10.5h-13v1.8a15.74,15.74,0,0,0,1.16,6.82,4.1,4.1,0,0,0,4,2.3q5.34,0,7-5.71l.83.14a9.44,9.44,0,0,1-3.15,5.15q-2.28,1.84-6.84,1.85Q1030.12,197,1027.15,194Zm6-10.2h4.74v-2.25a19.58,19.58,0,0,0-.43-5.09,1.73,1.73,0,0,0-1.75-1.36,2,2,0,0,0-1.94,1.45,14.15,14.15,0,0,0-.62,5Z"/><path class="cls-2" d="M1058.76,185.75h1.34v-3.54a22.36,22.36,0,0,0-.49-5.87,1.86,1.86,0,0,0-1.86-1.5,2.72,2.72,0,0,0-1.5.44,1.37,1.37,0,0,0-.67,1.19,4.75,4.75,0,0,0,.28,1.55H1057a6.42,6.42,0,0,1,.37,2.32,3,3,0,0,1-1.15,2.35,4.31,4.31,0,0,1-2.9,1q-4,0-4-3.82,0-5.67,9.62-5.67c3.66,0,6.18.63,7.58,1.87s2.09,3.52,2.09,6.84v9.35c0,1.59.45,2.39,1.34,2.39s1.66-1.58,1.84-4.74l.69,0c-.12,2.71-.63,4.56-1.52,5.58s-2.35,1.52-4.37,1.52q-5.54,0-6.36-3.41a5,5,0,0,1-1.79,2.58,6.17,6.17,0,0,1-3.5.83q-6.83,0-6.82-5.58a4.52,4.52,0,0,1,2.6-4.49Q1053.38,185.76,1058.76,185.75Zm-1.59,8.75a1,1,0,0,0,1,.69c.48,0,.92-.39,1.34-1.17a7.06,7.06,0,0,0,.62-3.25v-4.28h-.32q-2.87,0-2.86,4.19v.74A11.37,11.37,0,0,0,1057.17,194.5Z"/><path class="cls-2" d="M1072.81,162h11.28v33.71h2.58v.83H1073v-.83h2.54V162.87h-2.72Z"/><path class="cls-2" d="M1098.14,190V175.48h-2.54v-.83h2.54v-5.94l8.56-2.11v8.05h6v.83h-6V191a8.54,8.54,0,0,0,.44,3.18,1.76,1.76,0,0,0,1.82,1,3,3,0,0,0,2.42-1.38,8.06,8.06,0,0,0,1.36-3.77l.78.09a8.91,8.91,0,0,1-2,5Q1109.84,197,1106,197a9.64,9.64,0,0,1-5.85-1.52Q1098.13,194,1098.14,190Z"/><path class="cls-2" d="M1114,162h11.1v16.85a7.68,7.68,0,0,1,2.25-3.41,7,7,0,0,1,4.61-1.29q7.14,0,7.14,7.69v13.87h2.58v.83h-13v-.83h1.89v-15a10.52,10.52,0,0,0-.37-3.57,1.33,1.33,0,0,0-1.33-.81c-1,0-1.85.65-2.6,1.94a9.09,9.09,0,0,0-1.13,4.7v12.71h2v.83H1114v-.83h2.53V162.87H1114Z"/><path class="cls-2" d="M1145.55,194q-3-3.06-3-8.52c0-3.63,1.11-6.42,3.34-8.35a12.45,12.45,0,0,1,8.49-2.91q10.46,0,10,10.5h-13v1.8a15.76,15.76,0,0,0,1.15,6.82,4.1,4.1,0,0,0,4,2.3q5.34,0,7-5.71l.82.14a9.44,9.44,0,0,1-3.15,5.15Q1159,197,1154.46,197,1148.52,197,1145.55,194Zm6-10.2h4.75v-2.25a19.45,19.45,0,0,0-.44-5.09,1.72,1.72,0,0,0-1.75-1.36,2,2,0,0,0-1.94,1.45,14.15,14.15,0,0,0-.62,5Z"/><path class="cls-2" d="M1189.46,206.71V193.08a6.1,6.1,0,0,1-6,4q-8.61,0-8.61-11.47,0-5.85,2.37-8.61c1.58-1.84,4-2.77,7.12-2.77a5.61,5.61,0,0,1,5.39,2.91l.32-2.45h10.5v.83H1198v31.23h2.25v.83h-15.52v-.83Zm-5.25-13.29c.31,1.09.91,1.64,1.8,1.64a3,3,0,0,0,2.39-1.66,8.41,8.41,0,0,0,1.06-4.56v-8.57a6.53,6.53,0,0,0-.81-3.36,2.47,2.47,0,0,0-2.23-1.38c-1.07,0-1.79.68-2.14,2.05a32.38,32.38,0,0,0-.53,7.07V187A28.1,28.1,0,0,0,1184.21,193.42Z"/><path class="cls-2" d="M1228.42,196.58h-10.5l-.5-3.37a6.14,6.14,0,0,1-2.19,2.84,7.69,7.69,0,0,1-4.31,1q-7.14,0-7.14-7.69V175.48h-2.58v-.83h11.15v15.8a10.74,10.74,0,0,0,.39,3.64,1.54,1.54,0,0,0,1.57.87,2.55,2.55,0,0,0,2.09-1.42,7.23,7.23,0,0,0,.92-4v-14.1h-2.12v-.83h10.69v21.1h2.53Z"/><path class="cls-2" d="M1232.54,194q-3-3.06-3-8.52c0-3.63,1.12-6.42,3.34-8.35a12.48,12.48,0,0,1,8.5-2.91q10.46,0,10,10.5h-13v1.8a15.76,15.76,0,0,0,1.15,6.82,4.11,4.11,0,0,0,4,2.3q5.34,0,7-5.71l.83.14a9.51,9.51,0,0,1-3.16,5.15Q1246,197,1241.45,197,1235.51,197,1232.54,194Zm6-10.2h4.74v-2.25a19.45,19.45,0,0,0-.44-5.09,1.72,1.72,0,0,0-1.75-1.36,2,2,0,0,0-1.93,1.45,13.91,13.91,0,0,0-.62,5Z"/><path class="cls-2" d="M1253.7,197v-8.25h.56c.79,2.67,1.87,4.55,3.22,5.62a7.85,7.85,0,0,0,5.07,1.61c3.13,0,4.69-1,4.69-3a2.07,2.07,0,0,0-1.15-1.93,15.34,15.34,0,0,0-4.6-1.57,17.92,17.92,0,0,1-5.25-2.21,5.83,5.83,0,0,1-2.54-5.25,7.57,7.57,0,0,1,2.22-5.73,8.08,8.08,0,0,1,5.89-2.15,11.59,11.59,0,0,1,4.65,1.06,3.72,3.72,0,0,0,1.34.37,1.1,1.1,0,0,0,.78-.32,5,5,0,0,0,.78-1.2h.51v7.05h-.55q-2.35-6-7.28-6a5.58,5.58,0,0,0-3.22.76,2.28,2.28,0,0,0-1.06,1.91,1.67,1.67,0,0,0,.32,1.09,5.65,5.65,0,0,0,.51.57,2.49,2.49,0,0,0,.59.39,7.44,7.44,0,0,0,.7.32,8.16,8.16,0,0,0,.85.3,5.64,5.64,0,0,0,.85.23,36.82,36.82,0,0,1,4.51,1.36,15.47,15.47,0,0,1,2.63,1.41q2.54,1.74,2.53,5.64A7.39,7.39,0,0,1,1269,195a9.28,9.28,0,0,1-6.31,2,12.22,12.22,0,0,1-5.53-1.34,1.85,1.85,0,0,0-.87-.37q-1,0-2,1.71Z"/><path class="cls-2" d="M1274.47,190V175.48h-2.53v-.83h2.53v-5.94l8.57-2.11v8.05h6v.83h-6V191a8.54,8.54,0,0,0,.44,3.18,1.76,1.76,0,0,0,1.82,1,3,3,0,0,0,2.41-1.38,7.85,7.85,0,0,0,1.36-3.77l.79.09a9,9,0,0,1-2,5c-1.11,1.25-2.93,1.87-5.48,1.87a9.64,9.64,0,0,1-5.85-1.52Q1274.48,194,1274.47,190Z"/><path class="cls-2" d="M1290.13,174.65h11.29v21.1H1304v.83h-13.68v-.83h2.53V175.48h-2.72Zm7-3.17a4.3,4.3,0,0,1-3.48-1.25,4.65,4.65,0,0,1-1-3.08,4.27,4.27,0,0,1,1.13-3,4.5,4.5,0,0,1,3.43-1.2,5.06,5.06,0,0,1,3.5,1.08,3.94,3.94,0,0,1,1.2,3.09,4.42,4.42,0,0,1-1.15,3.2A4.79,4.79,0,0,1,1297.09,171.48Z"/><path class="cls-2" d="M1308.23,194.09c-2-2-3-4.78-3-8.45s1-6.5,3.16-8.47,5.06-3,8.86-3,6.65.92,8.52,2.74,2.81,4.62,2.81,8.36q0,11.75-11.7,11.75C1313.1,197,1310.2,196.05,1308.23,194.09Zm11.56-6.59v-3.91a31.59,31.59,0,0,0-.48-6.52c-.33-1.36-1.07-2-2.24-2a2.28,2.28,0,0,0-1.63.58,3.45,3.45,0,0,0-.9,1.91,34.81,34.81,0,0,0-.41,6.31v3.59a33,33,0,0,0,.29,6,9.71,9.71,0,0,0,.63,1.66,2,2,0,0,0,2,1.11,2.36,2.36,0,0,0,2.35-2.07A32.55,32.55,0,0,0,1319.79,187.5Z"/><path class="cls-2" d="M1330,174.65h11.1v4.24a7.7,7.7,0,0,1,2.26-3.41,7,7,0,0,1,4.6-1.29q7.14,0,7.14,7.69v13.87h2.58v.83h-13v-.83h1.89v-15a10.79,10.79,0,0,0-.37-3.57,1.35,1.35,0,0,0-1.34-.81c-1,0-1.85.65-2.6,1.94a9.19,9.19,0,0,0-1.13,4.7v12.71h2v.83H1330v-.83h2.54V175.48H1330Z"/><path class="cls-2" d="M1359.35,197v-8.25h.55c.8,2.67,1.87,4.55,3.23,5.62a7.84,7.84,0,0,0,5.06,1.61c3.13,0,4.7-1,4.7-3a2.09,2.09,0,0,0-1.15-1.93,15.51,15.51,0,0,0-4.61-1.57,17.92,17.92,0,0,1-5.25-2.21,5.82,5.82,0,0,1-2.53-5.25,7.6,7.6,0,0,1,2.21-5.73,8.11,8.11,0,0,1,5.9-2.15,11.59,11.59,0,0,1,4.65,1.06,3.68,3.68,0,0,0,1.33.37,1.1,1.1,0,0,0,.79-.32,5.35,5.35,0,0,0,.78-1.2h.5v7.05H1375q-2.34-6-7.27-6a5.62,5.62,0,0,0-3.23.76,2.28,2.28,0,0,0-1.06,1.91,1.72,1.72,0,0,0,.32,1.09q.33.39.51.57a2.38,2.38,0,0,0,.6.39c.28.14.51.25.69.32s.47.18.85.3a6,6,0,0,0,.85.23,37.11,37.11,0,0,1,4.52,1.36,15.38,15.38,0,0,1,2.62,1.41q2.54,1.74,2.54,5.64a7.37,7.37,0,0,1-2.31,5.89,9.25,9.25,0,0,1-6.31,2,12.21,12.21,0,0,1-5.52-1.34,1.83,1.83,0,0,0-.88-.37q-1,0-2,1.71Z"/><g id="_4" data-name="4"><path class="cls-3" d="M1159.84,934.54,910.55,953.72s32.49,64.39,125.73,110.21a166.33,166.33,0,0,1,58.89,48.32l20.48.62Z"/><path class="cls-4" d="M1069.92,953.72s-.72,21.39,6.21,51.4c0,0-22.39-25.45-165.58-51.4Z"/><path class="cls-3" d="M942.66,606.17l-5.1,63.3c-59-19.21-49.95-10.13-95.59-54-46.35-33.17-52.08-102.73-8-78.72l7.68,4.91Z"/><path class="cls-4" d="M861.69,554.52l-.27,78.86L842,615.52s-.34-73.81-.35-73.81Z"/><rect class="cls-5" x="873.48" y="427.03" width="285.04" height="451.45"/><path class="cls-2" d="M1135.42,353.45H897.9a42.76,42.76,0,0,0-42.78,42.74V911a42.72,42.72,0,0,0,42.78,42.74h237.52A42.76,42.76,0,0,0,1178.2,911V396.19A42.77,42.77,0,0,0,1135.42,353.45Zm24.42,526.69H873.48V427h286.36Z"/><path id="_10" data-name="10" class="cls-6" d="M892.72,740.1c28.66-10.64,13-68-19.24-83.69V868.22a31.65,31.65,0,0,0,6.27,2.25c29.92,4.49,26.32-40,5.39-62.12C913.14,811.88,913.67,763.84,892.72,740.1Z"/><path class="cls-7" d="M1178.2,839.45c-2.77,37,15.86,113.35-42.78,114.27H897.9a42.79,42.79,0,0,1-38.84-24.8S1060.43,957.11,1178.2,839.45Z"/><path class="cls-7" d="M1039.19,916.78c-.51,29.59-44.56,29.58-45.06,0C994.64,887.2,1038.69,887.2,1039.19,916.78Z"/><path class="cls-7" d="M979.38,392.88c0,7.35-11.21,7.35-11.24,0S979.35,385.53,979.38,392.88Z"/><path class="cls-7" d="M1063.06,396.53H993.44a2.09,2.09,0,0,1-2.09-2.08c.12-1.7-.64-5.27,2.09-5.22h69.62c2.67-.05,2,3.52,2.09,5.22A2.08,2.08,0,0,1,1063.06,396.53Z"/><path class="cls-7" d="M897.9,353.45c251.45,0,280.3,73.58,280.3,73.58V393.71c0-23.6-19.15-40.26-42.78-40.26Z"/><path class="cls-6" d="M1159.84,582.54v297.6h-79.48c51.69-84,65.67-71.6,67.11-181.43,0,0-13.6-21.61-19.29-40.17C1115.43,616.9,1143.61,582.13,1159.84,582.54Z"/><path class="cls-3" d="M867.35,874c-7.19-1.14-18.6-9.9-26.18-16.28h0c-16.41-13.42-33.07-30.94-19.86-50.27,4.07-5.81,8.5-9.07,14.57-10.57,15.42-3.93,36.63,11.26,45.72,26.31C895.22,846.27,890.48,879.42,867.35,874Z"/><path class="cls-8" d="M867.35,874c-7.19-1.14-18.6-9.9-26.18-16.28,0,0,1.4-11.71,17.89-23.44C859.06,834.26,890.89,853.79,867.35,874Z"/><path class="cls-4" d="M877,816.64c-11.79-13.34-30.18-25.22-45.14-18.43,14.33,11.57,32,30.3,49.74,25A48.34,48.34,0,0,0,877,816.64Z"/><path class="cls-2" d="M1178.2,615.71V911c-1,60.44-83.14,39.21-120.71,42.74,0,0-.36-29.81,22.5-73.58h79.85V586.22C1167.3,593.29,1172.87,606.42,1178.2,615.71Z"/><path class="cls-3" d="M870.37,812.83c-10.18-2.39-25.39-16.26-35.72-24.57-22.49-16.76-35.68-46.69-9.15-64.2,19.07-10.72,39.43,3.3,54,18.28C901.41,764,902.19,820.25,870.37,812.83Z"/><path class="cls-8" d="M870.37,812.83c-14.27-1-30.22-19.43-30.22-19.43s-2-16.49,18.44-29.8C858.59,763.6,900.35,790.74,870.37,812.83Z"/><path class="cls-4" d="M879.52,742.34c-14.59-15-34.95-29-54-18.28a149.73,149.73,0,0,0,12.6,11.53h0c14.2,11.41,33.15,28.54,48.58,16.57A55.59,55.59,0,0,0,879.52,742.34Z"/><path class="cls-3" d="M870.46,743.25c-8.9-1.17-23.11-12.26-32.35-20.07h0c-55.63-35.8-14.79-102.31,36.79-53.29C903.49,694,902,749.91,870.46,743.25Z"/><path class="cls-8" d="M870.46,743.24h0c-8.9-1.17-23.11-12.26-32.35-20.07,0,0-1-16.1,19-28.47C857.15,694.71,898.06,719.83,870.46,743.24Z"/><path class="cls-3" d="M1369,1106.56l34.51,127.73H1167c-16.1-28.09-34.3-57-49-86.53-5.79-11.85-11.73-23.92-16.15-36.57-9.33-36.82-26.14-145-31.94-157.47,4.41-101.38,93.38-116.69,86.44-259-45.15-56.91-9.79-151.72,24.22-97.4q9.6,17.07,18.15,34c48.43,96,71.9,189.72,74.49,293A175.14,175.14,0,0,0,1298,1010C1320,1030.83,1335.45,1085.1,1369,1106.56Z"/><path class="cls-9" d="M1583.42,1427.5H1079.66c.34-47.59,4.16-125.36,7.91-191.74q.27-4.76.54-9.44c3.64-63.35,7.07-114.07,7.07-114.07,73.39-12.16,150.83-45.19,202.44-101.82l.41-.45.33.07s31.93,35.9,77,94.08h0C1384.28,1115.63,1530,1319.92,1583.42,1427.5Z"/><path class="cls-8" d="M1171.49,585.54c-16,10.13-3.13,52.54,5.77,59.51,0,0,9.92-9.69,21.46-13.72C1198.72,631.33,1183.14,595.75,1171.49,585.54Z"/><path class="cls-10" d="M1375.37,1104.13h0c-101.15,118.41-287.26,122.19-287.26,122.19-41.66-73.65,7.07-114.07,7.07-114.07,73.39-12.16,150.83-45.19,202.44-101.82l.74-.38C1379.8,1021.32,1375.43,1103.18,1375.37,1104.13Z"/><circle class="cls-11" cx="1320.49" cy="1075.25" r="18.06"/></g><g id="_3" data-name="3"><path class="cls-3" d="M687.72,947.54c0,20.12-26.27,173.68-141.09,114.46C585,930,680.05,867.57,687.72,947.54Z"/><path class="cls-3" d="M730,1425.86s19.19-57.12,39.91-98.73C797,1272.76,889,1145.93,877.7,1033.45L615.08,969.69s-37.33,2.61-73,104.79c-59.94,171.76-64,266.87-124.13,351.38Z"/><path class="cls-3" d="M1034.56,1099.64c-3.17,11.07-15.14,25.59-36.79,42.73-76.36,60.46-112.25,111.37-231.41,187-80.34,51-151-74.92-64.91-115,60.57-27.13,110.44-76.88,169.31-85.73a365.7,365.7,0,0,0,56.92-13.72c26.9-27.78,42.36-34.81,61.59-38.59C1023.36,1069.65,1039.69,1081.78,1034.56,1099.64Z"/><path class="cls-8" d="M1034.56,1099.64c-2,11-22.38,32.43-42.54,47.32a102,102,0,0,0-24.12-26.71C1015.72,1082,1034.56,1099.64,1034.56,1099.64Z"/><path class="cls-9" d="M745.76,1427.5H381.49c20.51-29.08,57.05-63.85,76.33-76.75,78.1,38.9,187.08,56.76,278.31,57.62C736.13,1408.37,741.76,1415.21,745.76,1427.5Z"/><path class="cls-4" d="M687.72,947.54,662.07,999c-19.93-43.82,17-77.85,17-77.85C683.85,927,687.62,935.72,687.72,947.54Z"/><path class="cls-3" d="M739.37,1016.17c-16.51,31.45-75.76,27.43-77.3-17.15,2.4-92.44,70.08-98,93-69.88C766.16,942.66,742.36,1010.48,739.37,1016.17Z"/><path class="cls-4" d="M745,987.83a26.08,26.08,0,0,0-1.42,7.45v.39c.4,8-8.2,15.65-11.18,21.34-16.9-60.56,22.74-87.87,22.74-87.87C766.16,942.66,745.27,987.1,745,987.83Z"/><path class="cls-3" d="M829.06,999.75a124.93,124.93,0,0,1-13.8,34.67A104.22,104.22,0,0,1,799.5,1055a61.68,61.68,0,0,1-8.65,7.45c-49,43-91.66-18.4-41.59-107,24.62-43.58,65.54-30.16,80-.83A50,50,0,0,1,829.06,999.75Z"/><path class="cls-4" d="M829.06,999.75c-3.37,14.12-29.56,55.25-29.56,55.25-2.81-63.94,29.76-100.46,29.78-100.42A50,50,0,0,1,829.06,999.75Z"/><path class="cls-3" d="M989.9,878c-67,90.48-92.22,172.73-121.94,258.8-19.71,40.73-18.69,93.85-80.29,95-148.19-19.65,76.92-306.47,162.39-400C1017.5,765.94,1039.55,824.53,989.9,878Z"/><path class="cls-8" d="M979.33,851.14c-17.68-17.35-29.28-19.27-29.28-19.27l0,0c19.45-18.38,36.46-29.56,48.83-29.68C1016.68,818,979.33,851.14,979.33,851.14Z"/><path class="cls-4" d="M927.67,1115c-49.34,23.37-78.86,63.49-78.86,63.49,15.7-30.56,22-49.78,22-49.78A366.74,366.74,0,0,0,927.67,1115Z"/></g></g></g></svg>