<svg xmlns="http://www.w3.org/2000/svg" viewBox="0 0 230.27 174.67"><defs><style>.cls-1{fill:#69acc7;}.cls-2{fill:#a5add1;}.cls-3{fill:#ffb23c;}.cls-4,.cls-5,.cls-7{fill:none;stroke-miterlimit:10;stroke-width:1.29px;}.cls-4{stroke:#7dc7ae;}.cls-5{stroke:#a682ae;}.cls-6{fill:#a682ae;}.cls-7{stroke:#69acc7;}.cls-8{fill:#7dc7ae;}</style></defs><g id="Layer_2" data-name="Layer 2"><g id="Layer_1-2" data-name="Layer 1"><path class="cls-1" d="M125.47,42.94s9.61-11.15,15.07-9.27,2.12-11.75,10.85-13.19,19,6.45,29.05,14.17,12.12-4.89,23.52-1,6.38,17.54,14.27,15.63,22.6,17.11,0,14.18-35.3,4.37-46.18-.92-30.27-1.08-40.7.26S101,62.65,105,53.76,125.47,42.94,125.47,42.94Z"/><path class="cls-2" d="M139.45,58.39S128.08,37.39,99.32,40,74,63.71,60.28,61.73s-32.87,0-37,13.16S.7,80.81,0,92s21.23,19.08,46.57,9.21,37.66,7.67,73.28,4.49,40-7.12,61.1-5.15,20.58-11.89,11-21.1S143.56,71.11,139.45,58.39Z"/><path class="cls-1" d="M71.64,119.73l-.59,5.16h2.84a9.3,9.3,0,0,1,.41-4.12l-2.79-.37a10.07,10.07,0,0,1-.29,3.86A1.42,1.42,0,0,0,74,125a12.16,12.16,0,0,0,.39-4.61,1.43,1.43,0,0,0-2.79-.38,11.34,11.34,0,0,0-.51,4.87,1.42,1.42,0,0,0,2.84,0l.59-5.16a1.42,1.42,0,0,0-2.84,0Z"/><path class="cls-1" d="M37.4,115.33v4.1a1.42,1.42,0,0,0,2.84,0v-2.35a1.42,1.42,0,0,0-2.84,0v4.1a1.42,1.42,0,0,0,2.84,0v-4.1a1.42,1.42,0,0,0-2.84,0v2.35a1.42,1.42,0,0,0,2.84,0v-4.1a1.42,1.42,0,0,0-2.84,0Z"/><path class="cls-1" d="M44.18,138.72l.17,5.64c0,1.56,2.41,2,2.79.38a16.58,16.58,0,0,0,.38-5.53c-.19-1.8-3-1.82-2.84,0A14.16,14.16,0,0,1,44.4,144l2.79.38L47,138.72c-.05-1.82-2.89-1.83-2.84,0Z"/><path class="cls-1" d="M86.58,132.47a13.16,13.16,0,0,0-.36,5.65,1.44,1.44,0,0,0,1.75,1,1.45,1.45,0,0,0,1-1.75,9.67,9.67,0,0,1,.36-4.14,1.42,1.42,0,0,0-2.74-.75Z"/><path class="cls-1" d="M99.78,120.2v3.9a1.42,1.42,0,0,0,2.84,0v-3.9a1.42,1.42,0,0,0-2.84,0Z"/><path class="cls-1" d="M109.53,140.67v3.9a1.42,1.42,0,0,0,2.84,0v-3.9a1.42,1.42,0,0,0-2.84,0Z"/><path class="cls-1" d="M55.32,126.68l-.58,5.16h2.84a9.29,9.29,0,0,1,.4-4.12l-2.79-.38a10,10,0,0,1-.28,3.86,1.42,1.42,0,0,0,2.74.76,12.21,12.21,0,0,0,.38-4.62,1.43,1.43,0,0,0-2.79-.37,11.16,11.16,0,0,0-.5,4.87,1.42,1.42,0,0,0,2.84,0l.58-5.16a1.42,1.42,0,0,0-1.42-1.42,1.45,1.45,0,0,0-1.42,1.42Z"/><path class="cls-1" d="M160.18,139.36l.58-5.17h-2.84a9.29,9.29,0,0,1-.4,4.12l2.79.38a10,10,0,0,1,.28-3.86,1.42,1.42,0,0,0-2.74-.76,12.21,12.21,0,0,0-.38,4.62,1.43,1.43,0,0,0,2.79.38,11.22,11.22,0,0,0,.5-4.88,1.42,1.42,0,0,0-2.84,0l-.58,5.17a1.43,1.43,0,0,0,1.42,1.42,1.45,1.45,0,0,0,1.42-1.42Z"/><path class="cls-1" d="M145.23,126.62a12.85,12.85,0,0,0,.36-5.65,1.43,1.43,0,0,0-1.74-1,1.47,1.47,0,0,0-1,1.75,9.66,9.66,0,0,1-.36,4.14,1.42,1.42,0,0,0,2.74.76Z"/><path class="cls-1" d="M132,138.88V135a1.42,1.42,0,0,0-2.84,0v3.9a1.42,1.42,0,0,0,2.84,0Z"/><path class="cls-1" d="M122.29,118.41v-3.9a1.42,1.42,0,0,0-2.84,0v3.9a1.42,1.42,0,0,0,2.84,0Z"/><polyline class="cls-3" points="151.72 86.99 172.82 86.99 158.45 108.61 168.7 108.61 148.62 136.3 156.38 114.47 146.04 113.44 151.72 88.75"/><polyline class="cls-3" points="61.68 137.84 69.02 137.84 64.02 153.99 67.58 153.99 60.6 174.67 63.3 158.37 59.71 157.6 61.68 139.15"/><path class="cls-4" d="M79.33,58.18C79.25,68.76,64.39,80.9,49.79,78.93,37.41,77.27,30.17,66.11,30,56.59c0-2.25-.11-6.92,3.25-10.93,7.54-9,26.64-14.28,37.57-5.82C72.84,41.38,79.39,51.51,79.33,58.18Z"/><path class="cls-4" d="M75.57,45.44c6.35,9.48,2.23,27.25-10.25,32.3C54.72,82,42.33,75.43,36.43,67c-1.39-2-4.29-6.13-4.12-11.27C32.69,44.2,44.24,30.56,57.85,33,60.33,33.46,71.55,39.46,75.57,45.44Z"/><path class="cls-4" d="M34.5,48.39C37.57,37.4,53.74,29,65.69,35.15,75.83,40.39,78.89,54.07,76.33,64c-.6,2.36-1.86,7.24-5.88,10.46-9,7.21-26.87,7.33-33.85-4.58C35.33,67.73,32.57,55.33,34.5,48.39Z"/><path class="cls-5" d="M29,25.76c2.34,4.15-.75,12.23-6.9,14.72a10.51,10.51,0,0,1-12.74-4.3,7.13,7.13,0,0,1-1.17-5C9.13,26,15.41,19.62,21.58,20.48,22.7,20.64,27.53,23.13,29,25.76Z"/><path class="cls-5" d="M24.68,20.59c4.61,2.28,7,10.15,3.22,14.92-3.19,4.05-9.5,4.24-13.7,2.27a8.52,8.52,0,0,1-4.13-3.49c-2.44-4.59-1-12.51,4.9-14.6C16,19.31,21.77,19.14,24.68,20.59Z"/><path class="cls-6" d="M10.45,32.67c-1.17-4.61,2.93-11,8.53-11.25,4.75-.2,8.69,4.11,9.83,8.24a8,8,0,0,1,0,5c-1.76,4.47-8.2,8.21-13.19,5.35C14.75,39.49,11.18,35.57,10.45,32.67Z"/><path class="cls-5" d="M216.16,93c5,7.36.52,22.86-10.52,28.47-9.36,4.77-19.71.51-24.36-6-1.1-1.55-3.38-4.74-3-9.12.93-9.81,11.61-22.61,23.21-22C203.64,84.44,213,88.32,216.16,93Z"/><path class="cls-5" d="M207.47,86c8.93,3.52,14.57,17.78,8.34,27.24-5.29,8-17,9.39-25.12,6.37-1.92-.71-5.9-2.19-8.24-5.83-5.24-8.15-3.76-23.11,6.82-27.91C191.2,84.94,201.83,83.72,207.47,86Z"/><path class="cls-5" d="M180.47,107.61c-3.13-9.07,4-22.63,15.25-24.07,9.52-1.21,18.17,6.79,21.16,14.9.7,1.92,2.17,5.9.93,10-2.78,9.29-15.09,17.91-25.61,13C190.28,120.6,182.44,113.33,180.47,107.61Z"/><path class="cls-7" d="M45.51,14.11c-2.43,2.1-8.18,1.14-10.65-2.58a7.08,7.08,0,0,1,1.13-9A4.78,4.78,0,0,1,39.14,1.1C42.69,1,47.73,4.31,48,8.5,48,9.26,47,12.79,45.51,14.11Z"/><path class="cls-7" d="M45.24,12.21c-.89,3.35-5.76,6-9.42,4.13-3.09-1.56-4.07-5.71-3.33-8.74a5.69,5.69,0,0,1,1.75-3.2c2.7-2.22,8.13-2.32,10.29,1.28A12.94,12.94,0,0,1,45.24,12.21Z"/><path class="cls-7" d="M38.76,3.13c3.12-1.5,8.28.5,9.27,4.46.83,3.37-1.68,6.8-4.46,8.21a5.69,5.69,0,0,1-3.56.75c-3.45-.6-7-4.66-5.74-8.63A12.84,12.84,0,0,1,38.76,3.13Z"/><path class="cls-4" d="M213.26,38.32c-3.53,3-11.88,1.65-15.48-3.76a10.29,10.29,0,0,1,1.65-13.06A7,7,0,0,1,204,19.4c5.17-.11,12.49,4.67,12.87,10.76C216.94,31.27,215.49,36.39,213.26,38.32Z"/><path class="cls-4" d="M212.88,35.55c-1.29,4.87-8.39,8.68-13.69,6-4.51-2.26-5.93-8.29-4.85-12.7a8.29,8.29,0,0,1,2.54-4.65c3.93-3.23,11.82-3.36,15,1.86C212.41,27,213.7,32.48,212.88,35.55Z"/><path class="cls-8" d="M203.46,22.36c4.53-2.19,12,.72,13.47,6.48,1.21,4.89-2.43,9.89-6.48,11.94a8.33,8.33,0,0,1-5.18,1.09c-5-.88-10.25-6.77-8.34-12.56C197.28,28.26,200.6,23.73,203.46,22.36Z"/><path class="cls-5" d="M195.24,13.66c-2.43,2.1-8.17,1.14-10.64-2.58a7.08,7.08,0,0,1,1.13-9A4.78,4.78,0,0,1,188.88.65c3.55-.08,8.59,3.21,8.85,7.4C197.78,8.81,196.78,12.33,195.24,13.66Z"/><path class="cls-5" d="M195,11.76c-.89,3.34-5.77,6-9.42,4.12-3.1-1.56-4.07-5.7-3.33-8.73A5.72,5.72,0,0,1,184,4c2.71-2.22,8.13-2.32,10.3,1.28A12.94,12.94,0,0,1,195,11.76Z"/><path class="cls-5" d="M188.5,2.68c3.12-1.5,8.28.5,9.26,4.46.84,3.36-1.67,6.8-4.45,8.21a5.76,5.76,0,0,1-3.56.75c-3.45-.61-7.05-4.66-5.74-8.63A12.84,12.84,0,0,1,188.5,2.68Z"/></g></g></svg>