<svg id="Layer_1" data-name="Layer 1" xmlns="http://www.w3.org/2000/svg" viewBox="0 0 1041.7 1011.06"><defs><style>.cls-1,.cls-10,.cls-2,.cls-20,.cls-21,.cls-3,.cls-9{fill:none;stroke-miterlimit:10;}.cls-1,.cls-2,.cls-20,.cls-21,.cls-3{stroke:#7dc0a7;}.cls-1{stroke-width:4.98px;}.cls-2{stroke-width:4.8px;}.cls-3{stroke-width:4.7px;}.cls-4{fill:#7dc0a7;}.cls-5{fill:#fff;}.cls-6{fill:#5ea388;}.cls-7{opacity:0.14;}.cls-8{fill:#3e4794;}.cls-10,.cls-9{stroke:#a180a1;}.cls-9{stroke-width:4.04px;}.cls-10{stroke-width:3.82px;}.cls-11{fill:#a180a1;}.cls-12{fill:#263238;}.cls-13{fill:#ffbe9d;}.cls-14{fill:#eb996e;}.cls-15{fill:#455a64;}.cls-16{fill:#f5f5f5;}.cls-17{fill:#e0e0e0;}.cls-18{fill:#69a5c0;}.cls-19{fill:#fafafa;}.cls-20{stroke-width:3.88px;}.cls-21{stroke-width:4.01px;}.cls-22{fill:#b78876;}.cls-23{fill:#aa6550;}.cls-24{fill:#ffa545;}.cls-25{opacity:0.2;}</style></defs><path class="cls-1" d="M924.51,743.18v2.53a60.21,60.21,0,0,1-10.1,33.66c-9.69,14.45-25.47,23.85-43.28,23.85H170.58c-17.82,0-33.59-9.4-43.29-23.85a60.29,60.29,0,0,1-10.1-33.66v-2.53Z"/><path class="cls-2" d="M873.52,356V739.88A26.52,26.52,0,0,1,847.2,766.6H204.91a26.53,26.53,0,0,1-26.33-26.72V356a26.53,26.53,0,0,1,26.33-26.72H847.2A26.52,26.52,0,0,1,873.52,356Z"/><path class="cls-3" d="M862.42,344.86V728.78c0,14.76-11.32,26.72-25.27,26.72H220.51c-14,0-25.27-12-25.27-26.72V344.86c0-14.75,11.31-26.71,25.27-26.71H837.15C851.1,318.15,862.42,330.11,862.42,344.86Z"/><rect class="cls-4" x="187.14" y="341.01" width="667.42" height="413.84" rx="25.28"/><path class="cls-5" d="M824.91,385.1v303c0,8.91-7.71,16.14-17.23,16.14H234a17.68,17.68,0,0,1-12.82-5.36,15.48,15.48,0,0,1-4.42-10.78v-303c0-8.92,7.72-16.15,17.24-16.15H807.68a18,18,0,0,1,8.72,2.22A16,16,0,0,1,824.91,385.1Z"/><path class="cls-6" d="M916.9,740.45v2.3a52.36,52.36,0,0,1-52.37,52.38H177.18a52.36,52.36,0,0,1-52.38-52.38v-2.3Z"/><path class="cls-5" d="M526.7,767.79a7.57,7.57,0,1,1-7.57-7.57A7.57,7.57,0,0,1,526.7,767.79Z"/><path class="cls-5" d="M500,767.79a7.58,7.58,0,1,1-7.58-7.57A7.57,7.57,0,0,1,500,767.79Z"/><path class="cls-5" d="M553.44,767.79a7.57,7.57,0,1,1-7.57-7.57A7.57,7.57,0,0,1,553.44,767.79Z"/><g class="cls-7"><path class="cls-8" d="M824.91,386.19v19.08H216.79V386.19A17.27,17.27,0,0,1,234,369H807.68a17.27,17.27,0,0,1,17.23,17.24Z"/></g><path class="cls-5" d="M776,388a4.56,4.56,0,1,1-4.56-4.56A4.56,4.56,0,0,1,776,388Z"/><path class="cls-5" d="M790.74,388a4.56,4.56,0,1,1-4.56-4.56A4.56,4.56,0,0,1,790.74,388Z"/><path class="cls-5" d="M804.81,388a4.56,4.56,0,1,1-4.56-4.56A4.56,4.56,0,0,1,804.81,388Z"/><rect class="cls-5" x="276.03" y="383.22" width="472.43" height="9.65" rx="4.61"/><path class="cls-5" d="M245.61,388v4.47a.82.82,0,0,1-1.23.71L240.52,391l-3.87-2.24a.82.82,0,0,1,0-1.42l3.87-2.23,3.86-2.23a.82.82,0,0,1,1.23.71Z"/><path class="cls-5" d="M252.41,388v4.47a.82.82,0,0,0,1.23.71L257.5,391l3.87-2.24a.82.82,0,0,0,0-1.42l-3.87-2.23-3.86-2.23a.82.82,0,0,0-1.23.71Z"/><path class="cls-9" d="M491.52,443.31h-141c-17.17,0-31.08,14.49-31.08,32.35V528H289l30.43,31.68v35.56c0,17.87,13.91,32.35,31.08,32.35h141c17.17,0,31.08-14.48,31.08-32.35V475.66C522.6,457.8,508.69,443.31,491.52,443.31Z"/><path class="cls-10" d="M488.34,446.44H355.52c-16.16,0-29.27,13.74-29.27,30.7V526.8H297.6l28.65,30.07v33.75c0,17,13.11,30.71,29.27,30.71H488.34c16.16,0,29.26-13.75,29.26-30.71V477.14C517.6,460.18,504.5,446.44,488.34,446.44Z"/><path class="cls-11" d="M486.83,450.37H353.4A29.4,29.4,0,0,0,324,479.78v47.55H295.21L324,556.12v32.32a29.4,29.4,0,0,0,29.4,29.4H486.83a29.4,29.4,0,0,0,29.4-29.4V479.78A29.4,29.4,0,0,0,486.83,450.37Z"/><path class="cls-12" d="M432.32,455.4c-.84,2.18.61,4.57,2.23,6.25s3.6,3.29,4.11,5.57c.43,1.92-.28,3.92-.11,5.87s1.25,3.8,1.87,5.72c1.11,3.46.66,7.25-.33,10.75a19.94,19.94,0,0,1-4,7.92,10.58,10.58,0,0,1-7.83,3.75,3.07,3.07,0,0,1-2.31-.84,3.66,3.66,0,0,1-.67-2.05,200.21,200.21,0,0,1,0-45.25"/><path class="cls-12" d="M430.75,503.85c6.49-.28,12.49,5.94,12,12.42a13.84,13.84,0,0,1,9.94,15.49c-.43,2.19-1.4,4.28-1.54,6.51-.14,2.43.72,4.8,1.19,7.19a22.64,22.64,0,0,1-1.3,13c-1,2.47-2.93,5-5.61,5.1a5.51,5.51,0,0,1-4.51-2.64,14,14,0,0,1-1.81-5.1c-1.16-5.83-1.5-11.83-3.1-17.56s-4.71-11.37-9.9-14.29c-2.86-1.61-6.29-2.37-8.57-4.74a9.34,9.34,0,0,1-1.68-9.64,12.32,12.32,0,0,1,7.32-6.83"/><path class="cls-12" d="M385.78,460.75c-.08-2.78,2.49-4.92,5.07-5.94s5.46-1.4,7.76-2.95c2-1.37,3.41-3.51,5.14-5.26a17.09,17.09,0,0,1,28.74,7.84c1,3.95.32,8.63-2.8,11.25-3.61,3.05-9,2.38-13.61,1.43s-9.88-1.89-13.75.83c-2.33,1.65-3.67,4.31-5.09,6.79s-3.22,5-5.92,5.92-6.36-.68-6.46-3.53"/><path class="cls-13" d="M396.73,461.32a4.65,4.65,0,0,0-4.15,4.72h0l2.77,62.73c.12,7.4,10.95,11.57,18.88,11.38h0c8-.19,8.27-4.11,8.37-11.16.16-11.78.15-16.2.15-16.13s10.12-1.7,12.19-14.91c1-6.57.67-17.34.1-26.14-.52-7.92-5.79-17.63-13.68-16.77Z"/><path class="cls-12" d="M432.76,480.1a1.69,1.69,0,0,1-1.63,1.72,1.63,1.63,0,0,1-1.75-1.53,1.7,1.7,0,0,1,1.63-1.71A1.62,1.62,0,0,1,432.76,480.1Z"/><path class="cls-12" d="M432.72,477.42c-.21.22-1.5-.73-3.32-.72s-3.16.93-3.35.7.11-.5.69-.92a4.62,4.62,0,0,1,2.69-.83,4.49,4.49,0,0,1,2.64.84C432.63,476.92,432.82,477.32,432.72,477.42Z"/><path class="cls-12" d="M415.25,480.1a1.69,1.69,0,0,1-1.63,1.72,1.63,1.63,0,0,1-1.75-1.53,1.7,1.7,0,0,1,1.63-1.71A1.62,1.62,0,0,1,415.25,480.1Z"/><path class="cls-12" d="M414.8,477.8c-.21.22-1.49-.73-3.31-.72s-3.16.93-3.36.7.12-.5.7-.92a4.61,4.61,0,0,1,2.68-.83,4.47,4.47,0,0,1,2.64.84C414.71,477.3,414.91,477.7,414.8,477.8Z"/><path class="cls-12" d="M421.45,491.3a12.3,12.3,0,0,1,3-.54c.46-.05.9-.14,1-.46a2.4,2.4,0,0,0-.31-1.38c-.44-1.13-.9-2.31-1.39-3.54-1.92-5-3.31-9.19-3.11-9.26s1.93,3.95,3.85,9c.46,1.24.91,2.42,1.33,3.56a2.7,2.7,0,0,1,.24,1.82,1.15,1.15,0,0,1-.76.69,3.55,3.55,0,0,1-.79.11A12.22,12.22,0,0,1,421.45,491.3Z"/><path class="cls-14" d="M422.75,512.86a33.6,33.6,0,0,1-17.69-4.68s4.31,9.06,17.52,7.8Z"/><path class="cls-14" d="M420.69,495.69a3.29,3.29,0,0,0-2.95-1.21,3,3,0,0,0-2.07,1.11,1.91,1.91,0,0,0-.14,2.18,2.22,2.22,0,0,0,2.39.6,7,7,0,0,0,2.33-1.4,1.91,1.91,0,0,0,.52-.54.6.6,0,0,0,0-.68"/><path class="cls-12" d="M416.09,492.57c.29,0,.3,2,2,3.36s3.8,1.18,3.82,1.46c0,.12-.47.38-1.36.41a5,5,0,0,1-3.19-1.1,4.32,4.32,0,0,1-1.55-2.82C415.73,493.05,416,492.56,416.09,492.57Z"/><path class="cls-12" d="M415.62,474.61c-.18.49-2,.26-4.14.52s-3.87.85-4.15.41c-.13-.21.17-.68.87-1.16a7,7,0,0,1,3.07-1.09,6.9,6.9,0,0,1,3.24.38C415.3,474,415.69,474.37,415.62,474.61Z"/><path class="cls-12" d="M432,472.15c-.31.41-1.57,0-3.08,0s-2.79.28-3.08-.15c-.13-.21.07-.63.63-1a4.22,4.22,0,0,1,2.5-.68,4.31,4.31,0,0,1,2.47.82C432,471.52,432.18,471.94,432,472.15Z"/><path class="cls-12" d="M387.51,504.77a11.73,11.73,0,0,0,13.95-13c-.42-3.25-2.16-6.55-1-9.61,1.49-4.06,7.18-5.31,8.69-9.36.87-2.36.09-5.11,1.08-7.42s3.22-3.41,5.44-4.22,4.6-1.35,6.47-2.8,3-4.19,1.82-6.22a125.08,125.08,0,0,0-28.85,7c-2.16.8-4.42,1.77-5.7,3.69s-1.28,4.64-1.17,7.07c.56,11.86-1.25,23-.69,34.83"/><path class="cls-15" d="M384.36,501s-.08,0-.22-.07a3.07,3.07,0,0,1-.6-.29,4.45,4.45,0,0,1-1.65-1.95,6.52,6.52,0,0,1-.43-4,12.92,12.92,0,0,1,2.4-4.79,35.47,35.47,0,0,0,3.63-5.33,8.2,8.2,0,0,0,.87-3.41,10.89,10.89,0,0,0-.78-3.67,11.42,11.42,0,0,1-.78-4,8.94,8.94,0,0,1,4.3-7.22,10.26,10.26,0,0,1,4.35-1.24,18.08,18.08,0,0,0,4.35-.76,5.62,5.62,0,0,0,3.06-2.75,21.62,21.62,0,0,0,1.46-3.9,20.38,20.38,0,0,1,1.48-3.77,14.14,14.14,0,0,1,4.95-5.56A10.75,10.75,0,0,1,417,446.7a7.85,7.85,0,0,1,7.14,5.41,6.19,6.19,0,0,1,.31,2.54,3.59,3.59,0,0,1-.16.88s.06-.3.08-.88a6.55,6.55,0,0,0-.37-2.49,7.75,7.75,0,0,0-2.21-3.27A7.87,7.87,0,0,0,417,447a10.41,10.41,0,0,0-6.08,1.63,13.75,13.75,0,0,0-4.81,5.46,20.88,20.88,0,0,0-1.45,3.71,21.47,21.47,0,0,1-1.47,4,6.68,6.68,0,0,1-1.34,1.76,5.49,5.49,0,0,1-1.92,1.17,18.24,18.24,0,0,1-4.45.79,9.92,9.92,0,0,0-4.2,1.19,8.53,8.53,0,0,0-4.11,6.89,11.08,11.08,0,0,0,.74,3.87,11.4,11.4,0,0,1,.78,3.79,8.43,8.43,0,0,1-.92,3.53,33.73,33.73,0,0,1-3.7,5.36,12.66,12.66,0,0,0-2.4,4.68,6.38,6.38,0,0,0,.35,3.9,4.37,4.37,0,0,0,1.55,1.94A7.76,7.76,0,0,0,384.36,501Z"/><path class="cls-15" d="M422.74,443.47s.19,0,.51.15a5.25,5.25,0,0,1,1.25.76,6.4,6.4,0,0,1,1.3,8.74,5.56,5.56,0,0,1-1,1.09c-.27.22-.43.31-.45.29a14.91,14.91,0,0,0,1.19-1.53,6.43,6.43,0,0,0-1.25-8.38A15.64,15.64,0,0,0,422.74,443.47Z"/><path class="cls-15" d="M452,534.09a10.39,10.39,0,0,0,.38-1.4,6.46,6.46,0,0,0-.65-3.8,8.72,8.72,0,0,0-4.17-3.88,15.9,15.9,0,0,0-3.24-1.16c-1.17-.3-2.4-.55-3.64-1a8.15,8.15,0,0,1-3.33-1.82,5.5,5.5,0,0,1-1.57-3.17c-.21-1.11-.27-2.16-.52-3.1a6.21,6.21,0,0,0-1.2-2.38,6.79,6.79,0,0,0-3.2-2.17c-.89-.27-1.42-.27-1.41-.31s.13,0,.38,0a5.82,5.82,0,0,1,1.07.17,6.85,6.85,0,0,1,3.37,2.14,6.4,6.4,0,0,1,1.3,2.47c.27,1,.35,2,.56,3.12a5.23,5.23,0,0,0,1.48,3,7.94,7.94,0,0,0,3.19,1.72c1.21.39,2.44.64,3.61,1a16.24,16.24,0,0,1,3.31,1.21,8.92,8.92,0,0,1,4.26,4.08,6.47,6.47,0,0,1,.55,4,4.65,4.65,0,0,1-.34,1A1.31,1.31,0,0,1,452,534.09Z"/><path class="cls-12" d="M394.55,510.71c-6.68-1.79-12.46-8.35-14.81-14.86s-2.34-13.64-1.74-20.53c.43-5,1.31-10.29,4.63-14.05,5-5.68,10.42-8.57,18-8.34"/><path class="cls-16" d="M433.61,525.27l-6.24-1.57a3.54,3.54,0,0,0,1.24-4.35,5.73,5.73,0,0,0-4.77-3.53l-28.43-3.21A2.28,2.28,0,0,0,393,514c-1.26,3.21-1.3,5.84-.13,7.92h-.13L387.28,523,378,605l60.84-2.84Z"/><path class="cls-12" d="M424.66,524a5.63,5.63,0,0,1-1.14.22c-.74.12-1.82.26-3.15.38a73.44,73.44,0,0,1-10.45.23,74.5,74.5,0,0,1-10.37-1.26c-1.31-.26-2.37-.5-3.09-.69a8.09,8.09,0,0,1-1.12-.33,6.19,6.19,0,0,1,1.15.18c.73.15,1.79.34,3.11.57a86.5,86.5,0,0,0,20.75,1c1.33-.09,2.41-.18,3.15-.26A7.67,7.67,0,0,1,424.66,524Z"/><path class="cls-17" d="M397.16,537a43.9,43.9,0,0,1,4.58-6.86,21.83,21.83,0,0,1-2.13,3.54A21.23,21.23,0,0,1,397.16,537Z"/><path class="cls-17" d="M416.77,538.42a21.84,21.84,0,0,1-2.7-3,21.54,21.54,0,0,1-2.4-3.29,21.84,21.84,0,0,1,2.7,3A22.12,22.12,0,0,1,416.77,538.42Z"/><path class="cls-17" d="M407.66,548.84a44.25,44.25,0,0,1-1.45-8.22,23.28,23.28,0,0,1,.91,4.07A21.57,21.57,0,0,1,407.66,548.84Z"/><path class="cls-17" d="M422.63,549.48a31.5,31.5,0,0,1-3.45,3.68,34.25,34.25,0,0,1-3.73,3.4,31.5,31.5,0,0,1,3.45-3.68A35.36,35.36,0,0,1,422.63,549.48Z"/><path class="cls-17" d="M402.55,563.45a13.73,13.73,0,0,1-3.71-3,13.25,13.25,0,0,1-2.76-3.89c.1-.06,1.25,1.73,3,3.62S402.62,563.35,402.55,563.45Z"/><path class="cls-17" d="M409,574.23c0,.11-1.7.66-3.67,1.7s-3.41,2.16-3.49,2.07a11,11,0,0,1,3.31-2.41A10.55,10.55,0,0,1,409,574.23Z"/><path class="cls-17" d="M419.5,574.93a7.87,7.87,0,0,1-1.19-1.28c-.69-.83-1.61-2-2.56-3.34s-1.77-2.58-2.33-3.5a7.86,7.86,0,0,1-.82-1.54,7.89,7.89,0,0,1,1,1.39c.71,1,1.52,2.15,2.41,3.43s1.75,2.4,2.46,3.39A8.21,8.21,0,0,1,419.5,574.93Z"/><path class="cls-17" d="M420.54,584.12a21.11,21.11,0,0,1-4.49,1,20.82,20.82,0,0,1-4.59.45,36.92,36.92,0,0,1,4.53-.83A35.92,35.92,0,0,1,420.54,584.12Z"/><path class="cls-17" d="M403.56,522.86c-.05-.05.31-.45.61-1.24a6.54,6.54,0,0,0,.33-3.25,13.24,13.24,0,0,0-1-3.18,6.41,6.41,0,0,1-.5-1.32,4.69,4.69,0,0,1,.75,1.2,10.16,10.16,0,0,1,1.1,3.25,6,6,0,0,1-.45,3.4A2.55,2.55,0,0,1,403.56,522.86Z"/><path class="cls-17" d="M414.92,516.72a5,5,0,0,1,1.12,2.45,5.22,5.22,0,0,1,.09,2.69c-.12,0-.13-1.2-.46-2.6S414.82,516.78,414.92,516.72Z"/><path class="cls-13" d="M466.18,575.1l28.31-49.71,3.41-8.62s8.82-19,9.44-20.9c.71-2.23,2-2.42,2.76-2.1,1.25.49,1.65,2.36,1.1,4.29-.19.67-3.62,11.09-3.62,11.09a26.69,26.69,0,0,1,2.93-2.17c2.17-1.46,6.15-1.42,9.84-.1s4.6,2,4.16,3.46a2,2,0,0,1-1.18,1.17,3.89,3.89,0,0,1-2.73.06c-5.93-2-8.56.65-8.56.65l-.44,1.13s4.45-1.43,7,.59a3.66,3.66,0,0,1,.92,1.08,4.9,4.9,0,0,1,1.82,8.25,2,2,0,0,1-2.25.57,2.46,2.46,0,0,1-.85-1,4.46,4.46,0,0,0-.41-.56l-1.69,3s-4.16,6.5-5.65,9.53L491,586.74a13.75,13.75,0,0,1-17.93,8h0A13.75,13.75,0,0,1,466.18,575.1Z"/><path class="cls-13" d="M496.43,525.23a2.86,2.86,0,0,0,3.28-.58c.91-.78,1.52-1.84,2.36-2.68,2.52-2.52,6.74-2.76,9.14-5.39.33-.37.63-.93.34-1.33s-.83-.33-1.28-.24l-11.58,2.29"/><path class="cls-14" d="M498.69,517.3a5.31,5.31,0,0,1,1.23-.37c.79-.2,1.95-.47,3.39-.79l5.05-1.07,1.46-.3a2.33,2.33,0,0,1,1.77.06,1,1,0,0,1,.38,1,2.1,2.1,0,0,1-.45.85,8.5,8.5,0,0,1-1.31,1.16c-1.93,1.33-4,1.88-5.73,2.76a8.9,8.9,0,0,0-2.19,1.5c-.6.58-1.07,1.23-1.56,1.8a4.23,4.23,0,0,1-3.07,1.72,1.58,1.58,0,0,1-1.23-.44,4,4,0,0,0,1.22.18,4,4,0,0,0,2.71-1.77c.46-.56.9-1.24,1.53-1.89a9.25,9.25,0,0,1,2.31-1.65c1.74-.94,3.84-1.52,5.62-2.76a7,7,0,0,0,1.18-1c.33-.37.44-.81.21-.93s-.77-.07-1.26,0l-1.47.28-5.08.93c-1.45.26-2.62.45-3.43.57A4.56,4.56,0,0,1,498.69,517.3Z"/><path class="cls-14" d="M511.44,513.36a4.78,4.78,0,0,1,1.33-1.79,3.72,3.72,0,0,1,2.24-.74,9.56,9.56,0,0,1,3,.5,16.2,16.2,0,0,0,3,.69,5,5,0,0,0,2.54-.4,1.92,1.92,0,0,0,1.09-1.35,1.15,1.15,0,0,0,0-.64s0,.23-.15.6a1.83,1.83,0,0,1-1.05,1.12,4.9,4.9,0,0,1-2.37.27,16.73,16.73,0,0,1-2.95-.71,9.5,9.5,0,0,0-3.09-.48,3.89,3.89,0,0,0-2.41.9,3.43,3.43,0,0,0-1,1.41C511.42,513.12,511.41,513.35,511.44,513.36Z"/><path class="cls-14" d="M511.4,497.31a12.79,12.79,0,0,0-.69,2.07c-.44,1.43-1,3.13-1.55,5l-1.62,5a12,12,0,0,0-.62,2.09,10.22,10.22,0,0,0,.91-2c.49-1.25,1.12-3,1.74-5s1.12-3.76,1.43-5.07A9.18,9.18,0,0,0,511.4,497.31Z"/><path class="cls-14" d="M513,516.47a3.45,3.45,0,0,0,.68,0,2,2,0,0,1,1.63.43,1.07,1.07,0,0,1,.27,1,6.27,6.27,0,0,1-.53,1.32,2.46,2.46,0,0,0-.28,1.72,2.05,2.05,0,0,0,1.33,1.33,2.39,2.39,0,0,0,1.86-.18,2.93,2.93,0,0,0,1.23-1.21,9.38,9.38,0,0,0,.82-2.68,5.7,5.7,0,0,0,0-1.89,1.44,1.44,0,0,0-.26-.65,4.85,4.85,0,0,0,.09.67,6.65,6.65,0,0,1-.15,1.81,10.41,10.41,0,0,1-.87,2.55,2.33,2.33,0,0,1-2.6,1.17,1.66,1.66,0,0,1-1.06-1,2.08,2.08,0,0,1,.23-1.43A5.47,5.47,0,0,0,516,518a1.42,1.42,0,0,0-.4-1.32,2.12,2.12,0,0,0-1.87-.38A1.65,1.65,0,0,0,513,516.47Z"/><path class="cls-14" d="M517.93,521.72s-.15.19-.13.6a1.86,1.86,0,0,0,.86,1.46,2.53,2.53,0,0,0,2.52,0,4.14,4.14,0,0,0,1.9-2.42,5,5,0,0,0,0-3.07,4.83,4.83,0,0,0-1.39-2.1,4.42,4.42,0,0,0-1.44-.86c-.37-.14-.59-.16-.6-.13a7.29,7.29,0,0,1,1.83,1.22,4.63,4.63,0,0,1,1.18,4.81,3.83,3.83,0,0,1-1.67,2.2,2.27,2.27,0,0,1-2.17.06,1.81,1.81,0,0,1-.86-1.22C517.9,521.94,518,521.72,517.93,521.72Z"/><path class="cls-14" d="M508.5,526.39a1.88,1.88,0,0,0-1-.3,4.06,4.06,0,0,0-2.6.62l.32.21a12.5,12.5,0,0,0,.21-1.46,9.38,9.38,0,0,0-.75-5.05,23.79,23.79,0,0,1,.32,5c0,.5-.11,1-.19,1.42l-.09.49.41-.28a4.35,4.35,0,0,1,2.35-.7A7.7,7.7,0,0,0,508.5,526.39Z"/><path class="cls-14" d="M514.39,508.68c-.11,0,.05.9.84,1.58s1.68.74,1.68.63-.71-.35-1.39-.95S514.51,508.64,514.39,508.68Z"/><path class="cls-18" d="M426,616.35l29.6.29-5-21.48,1.67,4.05a20.4,20.4,0,0,0,18.87,12.66h0c9.36,0,15.84-7,19.8-15.45,9.26-19.83,18.18-51.77,18.18-51.77l-18.05-15.86C478,553.5,465.77,575,465.77,575s-3.55-10.78-6.29-20.39-2.72-14.67-6.93-19.47c-6.46-7.37-15.69-9.2-24.25-11.41L428,563.6l-2,52.75"/><path class="cls-18" d="M392.16,586.63l53.91,10.5,2.63,20.71H366a16.29,16.29,0,0,1-16.46-17.57c1.19-15.09,2.49-33.69,3.47-41.55a53.85,53.85,0,0,1,6.1-17.92c4.18-7.86,18.08-17.95,30.28-18.45l2.31,51.35"/><path class="cls-12" d="M381.9,585.13a3.14,3.14,0,0,1,0-.49c0-.37,0-.84,0-1.42,0-1.27,0-3,0-5.19,0-4.39-.08-10.44-.42-17.12-.17-3.35-.38-6.53-.62-9.41a38.41,38.41,0,0,0-1.08-7.59,10.9,10.9,0,0,0-2.38-4.51,15.09,15.09,0,0,0-1.42-1.24,5.65,5.65,0,0,1,1.53,1.14,10.62,10.62,0,0,1,2.53,4.53,37.33,37.33,0,0,1,1.18,7.64c.25,2.89.48,6.07.65,9.42.34,6.69.38,12.75.3,17.14,0,2.2-.09,4-.15,5.2l-.08,1.41A2.75,2.75,0,0,1,381.9,585.13Z"/><path class="cls-12" d="M445,598.59a8.48,8.48,0,0,0-2-1.59,13,13,0,0,0-2.76-1.1c-1.11-.31-2.42-.56-3.86-.86-5.76-1.17-13.71-2.81-22.53-4.45s-16.83-3-22.63-3.91l-6.88-1.1-1.86-.32a4.37,4.37,0,0,1-.65-.13,5.34,5.34,0,0,1,.66.06l1.88.24c1.62.21,4,.54,6.89,1,5.81.86,13.84,2.14,22.66,3.8s16.77,3.32,22.52,4.56c1.43.32,2.74.58,3.86.92a12,12,0,0,1,2.77,1.18,6.36,6.36,0,0,1,1.48,1.2,3.37,3.37,0,0,1,.32.38C445,598.54,445,598.59,445,598.59Z"/><path class="cls-12" d="M382.06,585.13c0,.07-1,.3-2.53.93a20.61,20.61,0,0,0-2.61,1.28,22.58,22.58,0,0,0-2.91,2,23.9,23.9,0,0,0-2.52,2.51,19.79,19.79,0,0,0-1.71,2.35c-.88,1.41-1.29,2.36-1.35,2.33a2.52,2.52,0,0,1,.23-.69,14.9,14.9,0,0,1,.88-1.78,17.66,17.66,0,0,1,1.68-2.44,21.92,21.92,0,0,1,2.54-2.58,21.62,21.62,0,0,1,3-2.06,19.06,19.06,0,0,1,2.69-1.23,14.49,14.49,0,0,1,1.91-.56A2.27,2.27,0,0,1,382.06,585.13Z"/><path class="cls-12" d="M451.68,598a2.71,2.71,0,0,1-.11-.51l-.25-1.48c-.2-1.29-.48-3.16-.79-5.47-.63-4.63-1.39-11-2-18.13s-1-13.53-1.24-18.19c-.1-2.33-.16-4.22-.19-5.53,0-.62,0-1.12,0-1.5a2.59,2.59,0,0,1,0-.52,1.81,1.81,0,0,1,.06.52l.1,1.5c.08,1.34.19,3.22.32,5.51.27,4.66.71,11.09,1.34,18.18s1.36,13.49,1.92,18.12c.28,2.28.51,4.15.67,5.49.07.61.13,1.11.17,1.49A2.89,2.89,0,0,1,451.68,598Z"/><path class="cls-12" d="M469.55,590s-.17-.16-.43-.49a13.27,13.27,0,0,1-1-1.48,19.68,19.68,0,0,1-2.65-11.32,13.91,13.91,0,0,1,.23-1.77,2.81,2.81,0,0,1,.17-.64c.07,0-.08.93-.13,2.42a22.82,22.82,0,0,0,.57,5.76,22.17,22.17,0,0,0,2.05,5.41C469.07,589.21,469.61,590,469.55,590Z"/><path class="cls-19" d="M381.68,557.39a.87.87,0,0,1-.28.05,5.9,5.9,0,0,1-.81.08,12.41,12.41,0,0,1-3-.23,21.66,21.66,0,0,1-4.25-1.33c-1.55-.64-3.19-1.47-4.91-2.32a36,36,0,0,0-5-2.08,16.83,16.83,0,0,0-4.29-.84,14,14,0,0,0-4,.45l.26-.12a6.33,6.33,0,0,1,.78-.26,10,10,0,0,1,3-.35,16.78,16.78,0,0,1,4.39.77,34.91,34.91,0,0,1,5,2.08c1.73.85,3.35,1.69,4.88,2.34a23.27,23.27,0,0,0,4.16,1.39A20.17,20.17,0,0,0,381.68,557.39Z"/><path class="cls-19" d="M390.91,555.56a25.74,25.74,0,0,1-4.39,1,25.09,25.09,0,0,1-4.46.56,26.36,26.36,0,0,1,4.39-.94A27,27,0,0,1,390.91,555.56Z"/><path class="cls-19" d="M381.35,571.6a7.23,7.23,0,0,1-1.09.46c-.71.28-1.74.65-3,1.07a78,78,0,0,1-10.32,2.55c-2,.36-4,.62-5.8.8a23.24,23.24,0,0,1-4.79.13,8.16,8.16,0,0,1-3.11-.89,4.13,4.13,0,0,1-.74-.48c-.16-.12-.24-.2-.23-.21s.36.24,1,.56a8.76,8.76,0,0,0,3.07.75,24.8,24.8,0,0,0,4.72-.22c1.79-.19,3.74-.46,5.78-.82a95.76,95.76,0,0,0,10.3-2.43c1.3-.39,2.35-.72,3.07-1A6.19,6.19,0,0,1,381.35,571.6Z"/><path class="cls-19" d="M390.7,575.53a22.69,22.69,0,0,1-4.07.26,20.79,20.79,0,0,1-4.07-.13,22.69,22.69,0,0,1,4.07-.26A20.79,20.79,0,0,1,390.7,575.53Z"/><path class="cls-19" d="M352.28,609.54s0-.14.07-.39l.3-1.12.23-.81c.09-.29.22-.6.34-.94a23.14,23.14,0,0,1,.93-2.25c.19-.41.4-.83.61-1.28s.49-.87.75-1.34a33,33,0,0,1,1.83-2.85A34.2,34.2,0,0,1,369,588.45c1.08-.53,2.08-1.06,3.08-1.43.5-.19,1-.4,1.43-.56l1.35-.42a20.48,20.48,0,0,1,2.36-.6c.35-.08.67-.16,1-.21l.83-.12,1.15-.14a1.51,1.51,0,0,1,.4,0,1.6,1.6,0,0,1-.39.1l-1.14.21-.82.15c-.3.06-.62.15-1,.24a22.92,22.92,0,0,0-2.33.65l-1.33.45c-.46.16-.92.37-1.41.57-1,.37-2,.91-3,1.44a34.91,34.91,0,0,0-11.51,10c-.67,1-1.34,1.88-1.84,2.8-.27.46-.55.89-.77,1.32l-.62,1.26a22.76,22.76,0,0,0-1,2.21c-.13.33-.27.63-.37.92l-.26.79-.37,1.1A1.68,1.68,0,0,1,352.28,609.54Z"/><path class="cls-19" d="M389.73,586.61a13.09,13.09,0,0,0-3.07,3.85,18.91,18.91,0,0,0-1.72,5.07,52.47,52.47,0,0,0-.71,6.57,46.9,46.9,0,0,1-.76,6.61,18.09,18.09,0,0,1-1.87,5.11,11.8,11.8,0,0,1-2.28,2.88,8,8,0,0,1-.78.61,1.48,1.48,0,0,1-.3.19,13.39,13.39,0,0,0,3.12-3.81,18.67,18.67,0,0,0,1.76-5.06,50.16,50.16,0,0,0,.73-6.56,48.17,48.17,0,0,1,.74-6.61,18.37,18.37,0,0,1,1.83-5.13,11.85,11.85,0,0,1,2.23-2.91,9,9,0,0,1,.78-.63A1.15,1.15,0,0,1,389.73,586.61Z"/><path class="cls-19" d="M402.47,618c-.11,0,0-6.44.27-14.37s.56-14.37.67-14.36,0,6.43-.28,14.37S402.58,618,402.47,618Z"/><path class="cls-19" d="M422.74,616.86a4,4,0,0,1-.34-.93,10.29,10.29,0,0,1-.3-1.12c-.1-.45-.23-.94-.31-1.51a27,27,0,0,1-.4-4,27.62,27.62,0,0,1,1.48-9.66,26.49,26.49,0,0,1,1.58-3.69c.24-.51.52-1,.75-1.34a10.84,10.84,0,0,1,.62-1,4.53,4.53,0,0,1,.6-.79c.06,0-.74,1.2-1.73,3.23a31.14,31.14,0,0,0-1.48,3.68,32.57,32.57,0,0,0-1.12,4.71,30.91,30.91,0,0,0-.34,4.84,29.22,29.22,0,0,0,.31,4C422.39,615.49,422.81,616.84,422.74,616.86Z"/><path class="cls-19" d="M388.32,534.33c0,.06-1.18-.46-3.12-1.08a35.33,35.33,0,0,0-15.69-1.39c-2,.28-3.24.59-3.26.52a4.28,4.28,0,0,1,.85-.28,22.1,22.1,0,0,1,2.37-.51,31.6,31.6,0,0,1,15.82,1.4,21.87,21.87,0,0,1,2.24.92A3.79,3.79,0,0,1,388.32,534.33Z"/><path class="cls-19" d="M447.3,565.72a19.11,19.11,0,0,1-2.77,0c-1.7-.07-4.06-.16-6.67-.22s-5-.09-6.67-.11a23.57,23.57,0,0,1-2.77-.09,2.65,2.65,0,0,1,.74-.1l2-.09c1.71-.05,4.08-.06,6.69,0s5,.2,6.68.34c.85.06,1.54.13,2,.19A2.91,2.91,0,0,1,447.3,565.72Z"/><path class="cls-19" d="M462.05,562.93c0,.07-.94.39-2.39,1.11a23.79,23.79,0,0,0-5.23,3.52,23.45,23.45,0,0,0-4.1,4.8c-.88,1.36-1.31,2.28-1.38,2.25a2.82,2.82,0,0,1,.25-.67,16.21,16.21,0,0,1,.89-1.73,21,21,0,0,1,9.45-8.42,15.38,15.38,0,0,1,1.82-.69A2.92,2.92,0,0,1,462.05,562.93Z"/><path class="cls-19" d="M454.78,539a10.9,10.9,0,0,0-3.8.53,26,26,0,0,0-3.83,1.7,31.53,31.53,0,0,1-4.73,2.13,19.38,19.38,0,0,1-9.36.61,18.57,18.57,0,0,1-2.76-.75,5.57,5.57,0,0,1-1-.42c0-.08,1.41.52,3.77.9a20.17,20.17,0,0,0,9.19-.71,33.4,33.4,0,0,0,4.69-2.08,24.57,24.57,0,0,1,3.91-1.65,8.75,8.75,0,0,1,2.84-.4,5.5,5.5,0,0,1,.77.07C454.69,539,454.78,539,454.78,539Z"/><path class="cls-19" d="M451.05,589.05a5.53,5.53,0,0,1-.87.4c-.28.12-.63.26-1.05.4s-.89.31-1.42.45a28.55,28.55,0,0,1-3.8.79,32.54,32.54,0,0,1-4.75.25,31.73,31.73,0,0,1-4.73-.54,26.15,26.15,0,0,1-3.75-1c-.53-.16-1-.37-1.39-.53s-.75-.32-1-.46a4.29,4.29,0,0,1-.84-.45c0-.07,1.26.52,3.35,1.18a30.5,30.5,0,0,0,3.72.93,34.44,34.44,0,0,0,4.68.5,33.32,33.32,0,0,0,4.69-.22,31.49,31.49,0,0,0,3.78-.7C449.76,589.49,451,589,451.05,589.05Z"/><path class="cls-19" d="M468.21,611.14s-.11-.07-.29-.24a9.85,9.85,0,0,1-.77-.75,17.57,17.57,0,0,1-2.36-3.17,25.75,25.75,0,0,1-3.33-12.5,50.45,50.45,0,0,1,1.69-12.89c.41-1.62.77-2.92,1-3.81.12-.41.23-.75.31-1s.12-.36.14-.35a1.71,1.71,0,0,1-.06.37c-.07.28-.15.62-.25,1-.22,1-.53,2.26-.9,3.83a54.35,54.35,0,0,0-1.57,12.82A26.46,26.46,0,0,0,465,606.85a19.69,19.69,0,0,0,2.23,3.2C467.87,610.75,468.23,611.12,468.21,611.14Z"/><path class="cls-19" d="M495.38,585.79a14.7,14.7,0,0,0-3.95-2.22,30.15,30.15,0,0,0-4.78-1.24A54.82,54.82,0,0,1,480.7,581a24.42,24.42,0,0,1-9.46-5.7,20.65,20.65,0,0,1-2.23-2.51,8.84,8.84,0,0,1-.53-.75c-.12-.17-.17-.26-.16-.27a8.2,8.2,0,0,1,.8.93,30.63,30.63,0,0,0,2.31,2.41,25.45,25.45,0,0,0,9.39,5.51,57,57,0,0,0,5.9,1.39,30.19,30.19,0,0,1,4.81,1.34,11.43,11.43,0,0,1,3,1.64,7.36,7.36,0,0,1,.69.6Q495.4,585.78,495.38,585.79Z"/><path class="cls-19" d="M503.92,560.87a5.74,5.74,0,0,1-.8-.69c-.24-.24-.54-.52-.91-.83s-.77-.69-1.26-1.05a33.87,33.87,0,0,0-3.47-2.45,35.37,35.37,0,0,0-4.61-2.4,37.17,37.17,0,0,0-4.91-1.68,35.71,35.71,0,0,0-4.17-.82c-.6-.1-1.15-.13-1.63-.18s-.89-.08-1.23-.09a5.24,5.24,0,0,1-1.05-.1,5.41,5.41,0,0,1,1.05-.05c.35,0,.76,0,1.25,0s1,.05,1.64.13a31.44,31.44,0,0,1,4.22.74,32.5,32.5,0,0,1,9.64,4.12,33,33,0,0,1,3.45,2.55c.47.38.87.77,1.22,1.1a12.09,12.09,0,0,1,.88.88A5,5,0,0,1,503.92,560.87Z"/><path class="cls-19" d="M438.59,526.59a5.37,5.37,0,0,1-1.42.69,26.54,26.54,0,0,1-3.62,1.12,27.85,27.85,0,0,1-3.75.6,5.7,5.7,0,0,1-1.57,0c0-.12,2.37-.32,5.23-1S438.54,526.48,438.59,526.59Z"/><path class="cls-13" d="M465.07,631.76a2.08,2.08,0,0,1-2.28,2.64h0a2.08,2.08,0,0,1-1.71-1.46l-.63-2.35.09,0a2.16,2.16,0,0,1-2.42,2.56h0c-1,0-1.83-1.43-2.1-2.18h0a4.07,4.07,0,0,1-3.8-1.82l-4.38-6.84-8.12-5.94,4.91-17.54,17.47,11.31c.69.53.79.76,1.88,1.77l11.28,10.37c-1.28.76-2.36.7-4.14,0s-9.56-6-9.56-6l3.51,15.42"/><path class="cls-14" d="M450.13,617.33a2,2,0,0,1,.52.31l.58.4a3.64,3.64,0,0,1,.72.63,3.41,3.41,0,0,1,.59,1c.14.39.28.8.43,1.23.29.87.61,1.81.95,2.8.67,2,1.25,3.81,1.65,5.13a12.29,12.29,0,0,1,.58,2.16,12.7,12.7,0,0,1-.84-2.07c-.47-1.3-1.09-3.1-1.76-5.09l-.92-2.82-.4-1.23a2.9,2.9,0,0,0-.5-.94,3.52,3.52,0,0,0-.64-.64l-.53-.45C450.27,617.51,450.11,617.36,450.13,617.33Z"/><path class="cls-14" d="M460.64,631a2.79,2.79,0,0,1-.25-.72c-.16-.56-.34-1.22-.56-2-.47-1.69-1.11-4-1.93-6.57a23.93,23.93,0,0,0-2.68-6.22,5.29,5.29,0,0,0-1.43-1.43c-.41-.26-.68-.33-.66-.37s.07,0,.19,0a2.62,2.62,0,0,1,.54.21,5,5,0,0,1,1.58,1.39,21.56,21.56,0,0,1,2.83,6.27c.82,2.56,1.42,4.91,1.82,6.62.2.85.35,1.55.45,2A3.21,3.21,0,0,1,460.64,631Z"/><path class="cls-14" d="M465.15,632a2.94,2.94,0,0,1-.31-.78l-.69-2.18c-.57-1.84-1.33-4.4-2.14-7.22L460,614.6a3.55,3.55,0,0,0-1.2-1.83,3.68,3.68,0,0,0-.72-.38s.08,0,.22,0a1.88,1.88,0,0,1,.59.25,3.47,3.47,0,0,1,1.37,1.85c.61,1.85,1.34,4.4,2.16,7.23s1.53,5.39,2,7.25c.23.87.42,1.61.58,2.22A4.55,4.55,0,0,1,465.15,632Z"/><path class="cls-20" d="M742.47,559.33H713.81V524.6c0-14.1-11-25.53-24.65-25.53H546.83c-13.62,0-24.66,11.43-24.66,25.53V646.39c0,14.1,11,25.53,24.66,25.53H689.16c13.61,0,24.65-11.43,24.65-25.53V589Z"/><path class="cls-21" d="M749.34,558.82H719v-34.9a25.89,25.89,0,0,0-26.14-25.64H541.88a25.9,25.9,0,0,0-26.15,25.64V646.28a25.9,25.9,0,0,0,26.15,25.64H692.81A25.89,25.89,0,0,0,719,646.28V588.62Z"/><rect class="cls-4" x="524.15" y="502.47" width="188.3" height="164.04" rx="32.04"/><polygon class="cls-4" points="712.4 559.65 740.6 559.65 711.76 588.5 712.4 559.65"/><path class="cls-22" d="M519.65,577.38,507.82,564c-3.19-3.2-4.29-4.74-3.65-5.3.85-.75.49-.5,7.13,4.48,0,0-9.42-7.19-6.15-7.24.57,0,2.17.93,3.88,2.05-2.33-2-3-3.31-2.53-4,.76-1.1,6.52,2.89,9.17,4.81-2.17-1.61-6.3-4.74-7-5.73-1-1.34,1-1.23,2.67-.67,1.84.63,12,5.83,15.05,7.18a2,2,0,0,0,2.81-1c1.11-4.67,4.47-7.71,5.77-8.11s2.27,1.25,1.36,2.44a17.88,17.88,0,0,0-2,4.43,11.37,11.37,0,0,0-.6,3.83c0,1.51.1,2.78.2,3.87l10.8,14.82-18.07,10.48Z"/><path class="cls-23" d="M515.4,565.22c-.12.17-2.22-1.27-4.69-3.23s-4.36-3.66-4.22-3.81,2.23,1.28,4.69,3.22S515.52,565.05,515.4,565.22Z"/><path class="cls-23" d="M517.7,562.86c-.12.17-2.44-1.24-5.19-3.15s-4.88-3.61-4.76-3.78,2.44,1.24,5.19,3.16S517.82,562.69,517.7,562.86Z"/><path class="cls-23" d="M519.37,560.35c-.11.18-2.34-1.12-5-2.9s-4.66-3.36-4.54-3.53,2.34,1.13,5,2.9S519.49,560.18,519.37,560.35Z"/><path class="cls-22" d="M534.91,567.16,578,621.77l-9.86,23s-11.81-2.62-15.4-7.6-33.07-59.76-33.07-59.76Z"/><path class="cls-12" d="M644.25,490.73c3.1,2.69,3.09,7.42,2.73,11.51s-.63,8.74,2.2,11.71c2.33,2.44,6.56,3.52,7.11,6.85a3.85,3.85,0,0,1-6.36,3.49c.91,2.63.28,5.93-2,7.52s-6.11.62-6.82-2.08a3.38,3.38,0,1,1-6.65,1.21"/><path class="cls-12" d="M599.87,518.3a4.07,4.07,0,1,1-7.51-3.14c.71-1.56,2.39-2.68,2.55-4.38.19-2.06-1.9-3.52-3.77-4.42s-4-2.06-4.24-4.12,1.58-3.54,3.07-4.87,2.95-3.38,2-5.15c-.47-.91-1.45-1.43-2.08-2.24-1.4-1.77-.67-4.6,1.11-6a8.2,8.2,0,0,1,6.48-1.18,62.61,62.61,0,0,1,6.48,2,27,27,0,0,0,21.54-2.82"/><path class="cls-22" d="M613.09,566.45A15,15,0,0,0,630.71,555l10.59-48.58a21.56,21.56,0,0,0-16.62-26.06l-1.11-.16a21.7,21.7,0,0,0-24.3,16.61c-2.36,10.26-4.83,21.62-5.58,27.2-1.54,11.54,9.72,15,9.72,15l-2,9.73a15,15,0,0,0,11.7,17.74Z"/><path class="cls-12" d="M601.34,504.38a1.67,1.67,0,0,0,1.35,1.89A1.59,1.59,0,0,0,604.6,505a1.66,1.66,0,0,0-1.34-1.89A1.6,1.6,0,0,0,601.34,504.38Z"/><path class="cls-12" d="M600.92,502.77c.17.24,1.55-.5,3.32-.23s2.94,1.34,3.17,1.15,0-.5-.55-1a4.61,4.61,0,0,0-2.5-1.19,4.38,4.38,0,0,0-2.68.46C601.07,502.3,600.83,502.66,600.92,502.77Z"/><path class="cls-12" d="M618.66,507.25a1.65,1.65,0,0,0,1.34,1.89,1.58,1.58,0,0,0,1.91-1.23,1.67,1.67,0,0,0-1.34-1.9A1.59,1.59,0,0,0,618.66,507.25Z"/><path class="cls-12" d="M618.28,505.65c.17.24,1.56-.5,3.33-.23s2.94,1.34,3.16,1.15,0-.5-.55-1a4.62,4.62,0,0,0-2.49-1.19,4.41,4.41,0,0,0-2.69.46C618.44,505.18,618.19,505.54,618.28,505.65Z"/><path class="cls-12" d="M609.93,517.84a11.93,11.93,0,0,0-2.8-.94c-.45-.11-.86-.26-.89-.58a2.32,2.32,0,0,1,.49-1.3l1.85-3.25c2.57-4.63,4.51-8.47,4.32-8.57s-2.43,3.57-5,8.2l-1.79,3.28a2.64,2.64,0,0,0-.5,1.74,1.16,1.16,0,0,0,.65.77,2.93,2.93,0,0,0,.75.22A11.59,11.59,0,0,0,609.93,517.84Z"/><path class="cls-12" d="M618.84,498.64c.1.51,1.91.54,3.95,1.09s3.64,1.37,4,1c.15-.19-.08-.69-.69-1.25a7.07,7.07,0,0,0-6-1.58C619.24,498.08,618.8,498.4,618.84,498.64Z"/><path class="cls-12" d="M602.32,497.74c.25.44,1.53.21,3,.4s2.67.67,3,.29c.16-.19,0-.62-.47-1.08a4.21,4.21,0,0,0-2.34-1,4.29,4.29,0,0,0-2.51.46C602.44,497.13,602.21,497.52,602.32,497.74Z"/><path class="cls-12" d="M630.64,491.9l.05.06a9.17,9.17,0,0,1,2.52,6.36c0,.08,0,.16,0,.23,0,3.36-.6,6.69-.6,10s.65,6.86,2.75,9.48c.86,1.08,2.54,2,3.52,1a2.89,2.89,0,0,0,.63-1.45c1.77-7.85,5-14.57,6.17-22.88a7,7,0,0,0-2.07-6.12c-1.55-1.5-3.48-3.1-5.55-2.47s-5.1,3.88-6.82,5.2"/><path class="cls-22" d="M636.65,511c.21-.06,8.27-1.18,6.86,6.66s-9,4.81-9,4.59S636.65,511,636.65,511Z"/><path class="cls-23" d="M637.47,519.72s.12.12.34.27a1.38,1.38,0,0,0,1,.2c.89-.15,1.82-1.34,2.11-2.75a4.56,4.56,0,0,0,0-2,1.63,1.63,0,0,0-.84-1.24.7.7,0,0,0-.87.23c-.15.2-.13.37-.17.38s-.15-.17,0-.48a.83.83,0,0,1,.39-.43,1.06,1.06,0,0,1,.79-.07,1.94,1.94,0,0,1,1.21,1.47,4.79,4.79,0,0,1,.09,2.27c-.34,1.58-1.41,2.91-2.6,3a1.48,1.48,0,0,1-1.22-.43C637.45,519.92,637.44,519.73,637.47,519.72Z"/><path class="cls-12" d="M638.14,487.42c2.4-2.87-2.25-8.17-6-10s-9.11-.65-13.17.07c-2.56.45-5.16,1.22-7.72.74a17.7,17.7,0,0,1-4.81-2,12.82,12.82,0,0,0-4.89-1.74,4.79,4.79,0,0,0-4.53,2c-.89,1.5-.28,3.82,1.4,4.31a3.91,3.91,0,1,0-2.08,7c-1-1-2.92.14-3,1.56s1.05,2.62,2.26,3.38c3.07,1.92,7,2,10.54,1.37s7-2,10.54-2.7,9.52-2.11,12.73-.43c2.36,1.25,3.66,4.5,5.16,4.05a4.87,4.87,0,0,0,3-3.18,14.51,14.51,0,0,0,.5-4.51"/><path class="cls-15" d="M653.5,523.84a1.12,1.12,0,0,0,.41-.18,2.33,2.33,0,0,0,.85-1,3.42,3.42,0,0,0,.26-2,4.13,4.13,0,0,0-1.41-2.3,10,10,0,0,0-2.83-1.65,18.93,18.93,0,0,1-3.31-1.6,6.72,6.72,0,0,1-2.4-3.11,11.07,11.07,0,0,1-.69-4.25c.08-3,.91-5.78,1.11-8.42a10.83,10.83,0,0,0-1.26-6.82,6.35,6.35,0,0,0-3.72-2.8,4.32,4.32,0,0,0-1.28-.12,2.37,2.37,0,0,0-.44.06,7,7,0,0,1,1.68.21,6.34,6.34,0,0,1,3.52,2.8,10.69,10.69,0,0,1,1.13,6.64c-.21,2.59-1,5.38-1.14,8.45a11.3,11.3,0,0,0,.73,4.39,7,7,0,0,0,2.56,3.28,18.93,18.93,0,0,0,3.38,1.59,10.17,10.17,0,0,1,2.77,1.56,3.92,3.92,0,0,1,1.38,2.13,3.29,3.29,0,0,1-.18,1.92A2.66,2.66,0,0,1,653.5,523.84Z"/><path class="cls-15" d="M598.21,480.69l-.34-.18a2.39,2.39,0,0,0-.44-.17,4,4,0,0,0-.64-.16,4.72,4.72,0,0,0-3.95,1.21h0a6.35,6.35,0,0,0-1.41,4.67,7.81,7.81,0,0,0,2.89,5.32,12,12,0,0,0,6.52,2.63,26.56,26.56,0,0,0,7.75-.48A35,35,0,0,0,620,489.13a36.13,36.13,0,0,1,4.71-2.45,12.77,12.77,0,0,1,4.49-.92,13.37,13.37,0,0,1,6.43,1.53,23.46,23.46,0,0,1,2.09,1.31,9.6,9.6,0,0,0-2-1.45,13.17,13.17,0,0,0-6.52-1.67,12.91,12.91,0,0,0-4.6.89,36.53,36.53,0,0,0-4.77,2.44,35.18,35.18,0,0,1-11.32,4.34,27,27,0,0,1-7.64.49,11.71,11.71,0,0,1-6.34-2.52,7.52,7.52,0,0,1-2.81-5.08,6.09,6.09,0,0,1,1.29-4.5h0a4.67,4.67,0,0,1,3.78-1.25A9.21,9.21,0,0,1,598.21,480.69Z"/><path class="cls-15" d="M602.58,474.16a4.41,4.41,0,0,0,.27,1.77,7.47,7.47,0,0,0,3.09,3.72,9.33,9.33,0,0,0,3.13,1.29,13.37,13.37,0,0,0,3.88.21,52.35,52.35,0,0,0,8.62-1.93c3-.78,6-1.18,8.62-.49a11.36,11.36,0,0,1,5.85,3.8,11.59,11.59,0,0,1,2.24,4.21c.3,1.1.34,1.74.39,1.73a3.19,3.19,0,0,0,0-.46,10.64,10.64,0,0,0-.22-1.31,11.33,11.33,0,0,0-2.17-4.35,11.46,11.46,0,0,0-6-4c-2.69-.74-5.79-.33-8.8.46a54.78,54.78,0,0,1-8.56,1.94,13.06,13.06,0,0,1-3.78-.16,9.27,9.27,0,0,1-3-1.21,7.44,7.44,0,0,1-3.09-3.54A9.44,9.44,0,0,1,602.58,474.16Z"/><path class="cls-23" d="M606.39,523.72A7.86,7.86,0,0,0,607,526a2.74,2.74,0,0,0,1.67,1.51,2.48,2.48,0,0,0,2.27-.69,3.89,3.89,0,0,0,1-2.19c.12-.74,0-1.68-.74-1.92a1.91,1.91,0,0,0-.92,0l-4.14.75"/><path class="cls-12" d="M607.12,526.85a5.58,5.58,0,0,0,2,.39,3,3,0,0,0,1.93-.88,3.12,3.12,0,0,0,.83-2.41,2.77,2.77,0,0,0-.15-.66c-.09-.2-.07-.19-.24-.21a5.79,5.79,0,0,0-.67,0l-.69,0c-.89.07-1.7.12-2.38.15a6.76,6.76,0,0,1-2.22,0,7.42,7.42,0,0,1,2.17-.45l2.37-.3.69-.07a5.48,5.48,0,0,1,.77-.06.81.81,0,0,1,.54.19,1.11,1.11,0,0,1,.31.45,3.52,3.52,0,0,1,.19.84,3.66,3.66,0,0,1-1.06,2.93,3.33,3.33,0,0,1-2.37.92,3.14,3.14,0,0,1-1.63-.45C607.22,527.06,607.09,526.88,607.12,526.85Z"/><path class="cls-23" d="M603.41,539s7.53,2.86,14.85.78c0,0-5.52,4.64-15.6,2.86Z"/><path class="cls-19" d="M614.89,646a9.15,9.15,0,0,1-1-.79c-.32-.27-.72-.59-1.2-.93s-1-.76-1.64-1.16-1.3-.86-2.06-1.28-1.58-.87-2.46-1.32a38.63,38.63,0,0,0-12.18-3.65c-1-.1-1.91-.22-2.78-.24s-1.69-.06-2.43-.06-1.42,0-2,.07-1.1.07-1.51.12a10.18,10.18,0,0,1-1.3.09,8,8,0,0,1,1.28-.24,14.68,14.68,0,0,1,1.51-.19c.6,0,1.27-.12,2-.12s1.57,0,2.45,0,1.82.11,2.81.21a40,40,0,0,1,6.31,1.29,41.07,41.07,0,0,1,6,2.38c.88.47,1.72.89,2.46,1.37s1.44.91,2.06,1.34,1.14.85,1.61,1.21a13.8,13.8,0,0,1,1.17,1A7.51,7.51,0,0,1,614.89,646Z"/><path class="cls-24" d="M571,607.69l6.12-26.53c2.35-10,5.12-19.57,9.79-20.7v3.08l-2,75.8s-12.48,14.22-28.4,6.32c-5-2.47-14-19.83-14-19.83s-21.08-37.67-20.21-39.38,13.78-18.33,15.09-19.16Z"/><path class="cls-24" d="M634,553c12.17,2.33,25.87,9.43,32.18,27.61,2.3,6.65,19.06,55.63,19.06,55.63l-28.58-.59L652,625.53l2.28,16.38,1.93,23.38-72.16,1.21.51-35.21.69-70s.81-1.06,13.25-7.92C606.25,549.06,634,553,634,553Z"/><g class="cls-25"><path d="M641.22,599.8c1.18,14.78,2.55,19.35,3.73,34.13a12.92,12.92,0,0,0,.78,4.11,4.44,4.44,0,0,0,3,2.73c2.11.42,4.84,1.94,5.43-.12l-2-14.24a28.09,28.09,0,0,0-2-6c-4.43-9.83-6.07-10.4-9-20.6"/></g><path class="cls-24" d="M598.52,560.9l.24-1.53,2.31-14.76a1.71,1.71,0,0,1,1.84-1.44l28.41,2.37a3.27,3.27,0,0,1,3,3.49l-.64,8.58-8.87,11.57-12.77,2"/><path class="cls-12" d="M584.26,588.65c.11,0,.19,11.55.19,25.81s-.08,25.81-.19,25.81-.19-11.55-.19-25.81S584.15,588.65,584.26,588.65Z"/><path class="cls-12" d="M657.29,638s0,0-.1-.17l-.23-.5-.87-2L653,628.1c-2.61-6.16-6.2-14.62-10.15-24-2-4.68-3.85-9.15-5.55-13.22a24.53,24.53,0,0,1-1.84-6,32.67,32.67,0,0,1-.49-5.44,21.76,21.76,0,0,1,1.14-7.81c.08-.22.15-.43.23-.62l.26-.52a4.26,4.26,0,0,1,.45-.79l.31-.46q.12-.16.12-.15a14.92,14.92,0,0,0-1.23,2.59,22.67,22.67,0,0,0-1,7.75,28.45,28.45,0,0,0,2.39,11.32c1.71,4.06,3.6,8.52,5.57,13.2,3.92,9.37,7.47,17.85,10.05,24l3,7.29c.34.85.61,1.51.8,2l.2.52Z"/><path class="cls-19" d="M642.87,555.55a7.44,7.44,0,0,1-.83.72,12.55,12.55,0,0,1-2.72,1.59,20.67,20.67,0,0,1-4.8,1.34,57.69,57.69,0,0,1-6.57.65c-2.44.11-5.12.06-8,.12a37.12,37.12,0,0,0-9,1.1,16.76,16.76,0,0,0-8.5,5,11.63,11.63,0,0,0-2.36,4.66,10,10,0,0,0,.09,5.34,8.39,8.39,0,0,0,1.25,2.39,6.22,6.22,0,0,0,2,1.7,4.38,4.38,0,0,0,2.49.53,3.44,3.44,0,0,0,2.19-1.13,5.93,5.93,0,0,0,1.11-4.72,8.14,8.14,0,0,0-.71-2.34,12.87,12.87,0,0,0-1.33-2,14.08,14.08,0,0,0-7.66-4.53,16.25,16.25,0,0,0-7.83.08,21.27,21.27,0,0,0-6,2.57,27.79,27.79,0,0,0-4,3c-1,.9-1.75,1.68-2.25,2.19l-.56.59-.2.2a24.55,24.55,0,0,1,2.91-3.09,27.33,27.33,0,0,1,4-3,21.39,21.39,0,0,1,6-2.64,16.58,16.58,0,0,1,8-.14,14.39,14.39,0,0,1,7.85,4.62,11.66,11.66,0,0,1,1.38,2.07,8,8,0,0,1,.75,2.44,7.63,7.63,0,0,1,0,2.61,5.07,5.07,0,0,1-1.15,2.43,3.81,3.81,0,0,1-2.43,1.25,4.74,4.74,0,0,1-2.71-.57,6.53,6.53,0,0,1-2.15-1.8,9,9,0,0,1-1.31-2.51,10.27,10.27,0,0,1-.09-5.55,11.87,11.87,0,0,1,2.44-4.81,17,17,0,0,1,8.7-5.12,36.94,36.94,0,0,1,9.12-1.07c2.87,0,5.55,0,8-.07a63.65,63.65,0,0,0,6.55-.59,20.63,20.63,0,0,0,4.77-1.27,13.78,13.78,0,0,0,2.74-1.51c.3-.2.5-.39.65-.5Z"/><path class="cls-19" d="M667.57,586.63a1.19,1.19,0,0,1-.32,0c-.21,0-.52.06-.92.07a29.85,29.85,0,0,1-3.38-.08c-1.43-.11-3.12-.32-5-.58s-3.92-.54-6.08-.66a24,24,0,0,0-6,.46,15.74,15.74,0,0,0-4.61,1.75,13.41,13.41,0,0,0-3.4,3,1.09,1.09,0,0,1,.16-.28,5.43,5.43,0,0,1,.54-.74,10,10,0,0,1,2.56-2.23,15,15,0,0,1,4.67-1.87,23,23,0,0,1,6.15-.49c2.18.11,4.24.41,6.11.68s3.54.53,5,.66,2.56.2,3.36.21A8.18,8.18,0,0,1,667.57,586.63Z"/><path class="cls-19" d="M649.62,620.1a15.79,15.79,0,0,0-4.29-.36,23.42,23.42,0,0,0-5,.89c-1.91.51-4,1.27-6.42,2a26.66,26.66,0,0,1-8.05,1.41,23.21,23.21,0,0,1-9.17-1.91,22.88,22.88,0,0,1-8.37-6.08,17.56,17.56,0,0,1-3-4.64,10.71,10.71,0,0,1-.85-5.61,8.17,8.17,0,0,1,2.65-5,5.89,5.89,0,0,1,2.51-1.28,5.91,5.91,0,0,1,5.18,1.39,4.52,4.52,0,0,1,1.34,2.33,4.58,4.58,0,0,1-.2,2.62,6.36,6.36,0,0,1-1.4,2.14,11.23,11.23,0,0,1-4.1,2.61,12.1,12.1,0,0,1-2.25.61l-1.11.21-1.11.13a24.23,24.23,0,0,1-8.15-.57,25.4,25.4,0,0,1-6.29-2.42,22.57,22.57,0,0,1-4.19-2.9l-.75-.65-.61-.62a10.87,10.87,0,0,1-.92-1l-.54-.64-.17-.23a1.32,1.32,0,0,1,.2.21l.57.61a10.19,10.19,0,0,0,.94,1l.62.6.76.64a23.48,23.48,0,0,0,4.19,2.82,25.82,25.82,0,0,0,6.25,2.34,24,24,0,0,0,8,.52l1.1-.13,1.1-.21a12.31,12.31,0,0,0,2.19-.61,10.85,10.85,0,0,0,4-2.53,6.08,6.08,0,0,0,1.32-2,4.3,4.3,0,0,0,.18-2.41,4.69,4.69,0,0,0-3.48-3.35,5.28,5.28,0,0,0-2.59-.08,5.4,5.4,0,0,0-2.35,1.21,7.81,7.81,0,0,0-2.52,4.76,10.31,10.31,0,0,0,.83,5.4,17.37,17.37,0,0,0,2.89,4.54,22.47,22.47,0,0,0,8.22,6,22.87,22.87,0,0,0,9,1.91,26.38,26.38,0,0,0,8-1.34c2.38-.71,4.52-1.45,6.44-2a22.75,22.75,0,0,1,5-.83,13.93,13.93,0,0,1,1.86,0c.53.08,1,.12,1.35.2l.81.2Z"/><path class="cls-19" d="M584,612.14c-.06,0-.41-.79-1.13-2a19.51,19.51,0,0,0-8-7.44c-1.26-.63-2.1-.92-2.08-1a1.71,1.71,0,0,1,.61.13,11.27,11.27,0,0,1,1.59.61,17.36,17.36,0,0,1,8.1,7.54,13.88,13.88,0,0,1,.71,1.54A2.16,2.16,0,0,1,584,612.14Z"/><path class="cls-19" d="M555,644.1l-.11-.19-.31-.56c-.27-.5-.66-1.23-1.13-2.19a51.14,51.14,0,0,1-3.42-8.41,27.14,27.14,0,0,1-1.07-6.19,19,19,0,0,1,.14-3.51,20.12,20.12,0,0,1,.89-3.62,15.82,15.82,0,0,1,4.38-6.64,10.73,10.73,0,0,1,8-2.79,5.88,5.88,0,0,1,3.92,1.91A4.81,4.81,0,0,1,567.4,616a3.6,3.6,0,0,1-1.06,1.84,4.24,4.24,0,0,1-1.82,1,5.4,5.4,0,0,1-3.9-.47,8.88,8.88,0,0,1-2.85-2.43,12.76,12.76,0,0,1-1.79-3,13.28,13.28,0,0,1-1-6.19,12.47,12.47,0,0,1,1.48-5,12.73,12.73,0,0,1,2.34-3.13,12.46,12.46,0,0,1,1.92-1.56c.24-.16.43-.25.55-.33l.2-.1s-.24.17-.7.5a12.81,12.81,0,0,0-1.86,1.59,13.62,13.62,0,0,0-2.26,3.14,12.49,12.49,0,0,0-1.4,4.88,13.11,13.11,0,0,0,1,6,12.73,12.73,0,0,0,1.76,2.94,8.63,8.63,0,0,0,2.75,2.33,5,5,0,0,0,3.64.43A3.5,3.5,0,0,0,567,615.9a4.42,4.42,0,0,0-1-3.74,5.54,5.54,0,0,0-3.67-1.78,10.38,10.38,0,0,0-7.68,2.7,15.6,15.6,0,0,0-4.3,6.47,20,20,0,0,0-.88,3.55,19.13,19.13,0,0,0-.16,3.44,27.54,27.54,0,0,0,1,6.14,55.07,55.07,0,0,0,3.29,8.41l1.07,2.23.27.58C555,644,555,644.1,555,644.1Z"/><path class="cls-19" d="M545.82,578.18a1.28,1.28,0,0,1,.07.31c0,.2.08.51.11.9a20.74,20.74,0,0,1,0,3.36,21.33,21.33,0,0,1-12,17.49,18.58,18.58,0,0,1-3.13,1.21c-.37.12-.68.17-.88.22l-.31.05a9.34,9.34,0,0,1,1.15-.42,24,24,0,0,0,3.05-1.3,21.87,21.87,0,0,0,11.89-17.28,24.39,24.39,0,0,0,.12-3.32A10.28,10.28,0,0,1,545.82,578.18Z"/><path class="cls-19" d="M674.1,610.55a11.06,11.06,0,0,0-2.88,2.64c-.74,1-1.49,2.2-2.34,3.58a27.87,27.87,0,0,1-3.19,4.22,26.84,26.84,0,0,1-7.65,5.75,23.86,23.86,0,0,1-2.68,1.15,5.17,5.17,0,0,1-1,.29,5.9,5.9,0,0,1,1-.43c.62-.28,1.53-.67,2.6-1.25a28.73,28.73,0,0,0,7.49-5.77,30,30,0,0,0,3.18-4.15A37.45,37.45,0,0,1,671,613a9.5,9.5,0,0,1,2.15-2,5.26,5.26,0,0,1,.69-.38Z"/><path class="cls-12" d="M633.75,553.84s-.12,0-.35.09l-1,.18c-.86.14-2.12.33-3.67.54-3.1.42-7.4.91-12.17,1.26a60.92,60.92,0,0,1-6.75.24,19.41,19.41,0,0,1-5.44-.93,12.24,12.24,0,0,1-3.33-1.68,9,9,0,0,1-.78-.64c-.17-.16-.25-.25-.24-.26s.38.3,1.11.78a13.55,13.55,0,0,0,3.32,1.54,19.62,19.62,0,0,0,5.38.83,66.11,66.11,0,0,0,6.7-.27c4.76-.35,9.06-.79,12.17-1.14l3.68-.42A10.94,10.94,0,0,1,633.75,553.84Z"/><path class="cls-22" d="M684.89,641.5a20.06,20.06,0,0,1-19.5,23.85l-56.56-.62,1.49-18.32,48.49-7.23"/><path class="cls-22" d="M613.82,647.25a52,52,0,0,1-6.46-2.74,21.08,21.08,0,0,0-9.93-1.92l-13.48.68a6.59,6.59,0,0,0,2.26,3c1.43.79,9.81,1,9.81,1l-.43.44a9.7,9.7,0,0,1-6.71,2.94l-1.28,0a12.91,12.91,0,0,1-2.82-.55l-3.32-1.34c-1-.46-2.07-.38-2.51.63s-.11,2.18,2.64,3.56c1.53.78,7.22,2.74,7.22,2.74a14.48,14.48,0,0,0,.33,2.4c.25.83,2.49,1.66,2.49,1.66a29.38,29.38,0,0,0,2,3.56,20,20,0,0,0,4.43,1.53,19,19,0,0,0,10.63-.08l5.14-1.53V647.59"/><path class="cls-23" d="M595.37,657.47a15.37,15.37,0,0,1-6.8-1.79c0-.09,1.51.48,3.38,1S595.39,657.37,595.37,657.47Z"/><path class="cls-23" d="M594.9,660.63a3.49,3.49,0,0,1-1.9-.14,3.45,3.45,0,0,1-1.7-.84,11.64,11.64,0,0,1,1.79.52A12.79,12.79,0,0,1,594.9,660.63Z"/><path class="cls-23" d="M597.36,646a5.49,5.49,0,0,1-1,1.12,17,17,0,0,1-2.94,2.22,11.63,11.63,0,0,1-3.44,1.33,4.67,4.67,0,0,1-1.52.16,19.51,19.51,0,0,0,4.79-1.78,21.84,21.84,0,0,0,2.95-2.11A8.7,8.7,0,0,1,597.36,646Z"/><path class="cls-24" d="M615.19,644.78l-1.37,20.71,53.28,0a19.86,19.86,0,0,0,10.26-2.85h0a19.91,19.91,0,0,0,9.29-20.92,61.32,61.32,0,0,0-3.44-11.49l-26.78,4.41.86,3.33Z"/><path class="cls-12" d="M669.62,636.26a2,2,0,0,1-.53.13l-1.56.28-5.73,1-18.94,3-19,2.9-5.75.83-1.57.21-.55,0a2.21,2.21,0,0,1,.54-.13l1.55-.28,5.74-1,18.93-3,19-2.9,5.76-.83,1.56-.21A2.84,2.84,0,0,1,669.62,636.26Z"/><path class="cls-19" d="M642.36,665.52c-.09,0,.32-1.49.38-3.93a17.4,17.4,0,0,0-.08-2,20.22,20.22,0,0,0-.33-2.26,21.59,21.59,0,0,0-1.73-4.91,22.87,22.87,0,0,0-2.91-4.33l-.79-.88c-.26-.28-.53-.52-.79-.78-.5-.51-1-.92-1.49-1.32-1.9-1.52-3.26-2.23-3.21-2.31a5.91,5.91,0,0,1,1,.49,8.76,8.76,0,0,1,1.07.65,16,16,0,0,1,1.36,1,16.91,16.91,0,0,1,1.54,1.3c.27.25.55.5.82.78l.81.88a22.13,22.13,0,0,1,3,4.38,21,21,0,0,1,1.73,5,18.31,18.31,0,0,1,.3,2.31,13.81,13.81,0,0,1,0,2,12.77,12.77,0,0,1-.15,1.65,8,8,0,0,1-.22,1.24A4.67,4.67,0,0,1,642.36,665.52Z"/><path class="cls-19" d="M674.79,664a11,11,0,0,1-2.47-.29,12.52,12.52,0,0,1-2.76-1,10.83,10.83,0,0,1-3.12-2.32,10,10,0,0,1-2.29-4.1,11.11,11.11,0,0,1-.39-2.61,10.21,10.21,0,0,1,.22-2.79,8.62,8.62,0,0,1,1.1-2.74,6.19,6.19,0,0,1,2.24-2.13,5.53,5.53,0,0,1,3.13-.72,4.16,4.16,0,0,1,2.92,1.51,4.09,4.09,0,0,1,1,3.15,3.72,3.72,0,0,1-1.83,2.62,8.74,8.74,0,0,1-5.89.81,12.25,12.25,0,0,1-10.38-11.77,8.59,8.59,0,0,1,.21-2.48,20.14,20.14,0,0,0-.06,2.48,12.52,12.52,0,0,0,2.12,6.28,12.24,12.24,0,0,0,8.17,5.14,8.46,8.46,0,0,0,5.63-.78,3.35,3.35,0,0,0,1.65-2.35,3.73,3.73,0,0,0-.9-2.85,3.83,3.83,0,0,0-2.66-1.38,5.22,5.22,0,0,0-2.9.67,6.77,6.77,0,0,0-3.18,4.61,10,10,0,0,0-.23,2.7,11.53,11.53,0,0,0,.36,2.54,9.72,9.72,0,0,0,2.19,4,10.74,10.74,0,0,0,3,2.31,13.25,13.25,0,0,0,2.7,1C673.9,663.89,674.8,663.91,674.79,664Z"/><path class="cls-15" d="M568,445.7a2.62,2.62,0,1,0,2.62-2.61A2.61,2.61,0,0,0,568,445.7Z"/><circle class="cls-15" cx="560.14" cy="445.7" r="2.61"/><path class="cls-15" d="M547.09,444.39a2.62,2.62,0,1,0,3.57-.95A2.62,2.62,0,0,0,547.09,444.39Z"/><path class="cls-15" d="M560,415.17h-.53l-1.56,0c-.34,0-.72,0-1.14.05l-1.37.19-1.6.23-1.79.44a28.86,28.86,0,0,0-8.65,3.78,30.94,30.94,0,0,0-9,8.72,31.4,31.4,0,0,0-5.08,14.24,30.7,30.7,0,0,0-.08,4.19c0,.71,0,1.43.14,2.14s.21,1.43.32,2.16a30.72,30.72,0,0,0,2.91,8.52,32.92,32.92,0,0,0,5.56,7.65,32,32,0,0,0,8,5.76,29.17,29.17,0,0,0,9.77,3,19,19,0,0,0,2.61.22,23.22,23.22,0,0,0,2.64.05,31.38,31.38,0,0,0,5.27-.66A30.86,30.86,0,0,0,577,471.46l-.32,0,10.7,4.29.64.26-.18-.66q-1.62-5.89-3.15-11.44l0,.28a30.71,30.71,0,0,0,5.71-13.07,27.73,27.73,0,0,0,.41-6.7,20.08,20.08,0,0,0-.3-3.22l-.24-1.57c-.1-.51-.25-1-.38-1.51a30.58,30.58,0,0,0-11.94-17.41,29.55,29.55,0,0,0-7.1-3.75l-1.6-.57-1.52-.39-1.39-.34c-.45-.09-.88-.13-1.28-.19-.81-.11-1.52-.25-2.15-.28l-1.57-.05-1,0H560l.32.05,1,.07,1.56.11c.62,0,1.32.2,2.12.32a30.44,30.44,0,0,1,24.34,22.57c.11.5.27,1,.36,1.49s.15,1,.23,1.54a20.62,20.62,0,0,1,.28,3.16,27.17,27.17,0,0,1-.43,6.57,30.29,30.29,0,0,1-5.63,12.79l-.1.12,0,.16,3.12,11.45.46-.41-10.7-4.3-.17-.07-.15.1a30.2,30.2,0,0,1-10.27,4.32,31.25,31.25,0,0,1-5.16.65,22.22,22.22,0,0,1-2.58-.05,19.78,19.78,0,0,1-2.55-.21,28.54,28.54,0,0,1-9.55-2.92,29.83,29.83,0,0,1-13.32-13.11,30.1,30.1,0,0,1-2.88-8.33l-.33-2.12c-.1-.7-.09-1.4-.14-2.1a29.63,29.63,0,0,1,5-18.13,30.86,30.86,0,0,1,8.76-8.67,29.14,29.14,0,0,1,8.51-3.84l1.77-.47,1.58-.26,1.36-.22c.41-.05.79-.06,1.13-.08l1.55-.12Z"/><path class="cls-11" d="M671.27,640l21.57,49.15a.52.52,0,0,0,.94.13l9.33-18a.54.54,0,0,1,.15-.15l18-9.33a.52.52,0,0,0-.13-.94l-49.15-21.57A.54.54,0,0,0,671.27,640Z"/></svg>