<svg id="Layer_1" data-name="Layer 1" xmlns="http://www.w3.org/2000/svg" viewBox="0 0 277.79 307.55"><defs><style>.cls-1,.cls-2,.cls-3{fill:none;stroke-miterlimit:10;}.cls-1{stroke:#a682ae;stroke-width:6.05px;}.cls-2{stroke:#69acc7;}.cls-2,.cls-3{stroke-width:3.93px;}.cls-3{stroke:#7dc7ae;}.cls-4{fill:#7dc7ae;}</style></defs><path class="cls-1" d="M72.87,219.28c-14.7-16.91-8.15-57,17.77-74.37,22-14.72,49.14-7.17,62.72,7.71,3.22,3.53,9.89,10.84,10.17,21.91.62,24.82-22.24,60-51.45,62C106.75,236.84,82.14,230,72.87,219.28Z"/><path class="cls-1" d="M93.58,219.28c-23.39-6.13-41.78-40.11-29-65.63,10.81-21.66,39.72-28.58,60.9-23.48,5,1.2,15.41,3.71,22.36,12.11,15.56,18.82,16.36,56.68-8.67,71.86C134.57,216.91,108.34,223.15,93.58,219.28Z"/><path class="cls-1" d="M154.6,157c10.55,21.73-3.27,57.81-30.91,64.76-23.46,5.91-47.49-11.51-57.39-30.89C64,186.28,59.09,176.76,61,166,65.11,142,93.31,116.7,121.1,125.79,126.17,127.45,147.94,143.28,154.6,157Z"/><path class="cls-2" d="M130.83,93.11c-7.42,6.4-25,3.47-32.5-7.88-6.4-9.64-3.06-21.5,3.47-27.42,1.55-1.4,4.75-4.31,9.59-4.41,10.86-.24,26.22,9.81,27,22.59C138.55,78.32,135.51,89.07,130.83,93.11Z"/><path class="cls-2" d="M130,87.3c-2.72,10.22-17.6,18.21-28.75,12.6-9.45-4.76-12.43-17.41-10.17-26.66.53-2.19,1.64-6.74,5.32-9.76,8.26-6.78,24.81-7.07,31.42,3.9C129.05,69.38,131.74,80.85,130,87.3Z"/><path class="cls-2" d="M110.25,59.6c9.52-4.58,25.27,1.52,28.27,13.62,2.55,10.26-5.1,20.75-13.59,25-2,1-6.18,3.13-10.88,2.3-10.51-1.86-21.51-14.23-17.5-26.36C97.29,72,104.24,62.5,110.25,59.6Z"/><path class="cls-3" d="M208.06,110.72c-8.47,7.31-28.5,4-37.13-9-7.31-11-3.5-24.56,4-31.32,1.77-1.61,5.43-4.93,11-5.05,12.4-.27,29.95,11.21,30.86,25.81C216.89,93.82,213.4,106.11,208.06,110.72Z"/><path class="cls-3" d="M207.14,104.09c-3.1,11.67-20.11,20.8-32.83,14.39C163.51,113.05,160.1,98.6,162.68,88c.61-2.5,1.88-7.69,6.09-11.15,9.43-7.74,28.34-8.07,35.88,4.46C206,83.61,209.1,96.72,207.14,104.09Z"/><path class="cls-4" d="M184.55,72.45c10.87-5.24,28.87,1.73,32.3,15.55,2.91,11.73-5.83,23.71-15.53,28.62-2.3,1.16-7.06,3.57-12.42,2.63-12-2.13-24.59-16.25-20-30.12C169.74,86.6,177.68,75.75,184.55,72.45Z"/></svg>