<svg xmlns="http://www.w3.org/2000/svg" viewBox="0 0 595.11 294.64"><defs><style>.cls-1{isolation:isolate;}.cls-2{fill:#b286b0;}.cls-3{fill:#c7c7c7;}.cls-3,.cls-5{mix-blend-mode:multiply;}.cls-4{fill:none;stroke:#4d4d4d;stroke-linecap:round;stroke-linejoin:round;stroke-width:4.41px;mix-blend-mode:screen;}.cls-5{fill:#e3e3e3;}</style></defs><g class="cls-1"><g id="Layer_2" data-name="Layer 2"><g id="Layer_1-2" data-name="Layer 1"><path class="cls-2" d="M73,283a31.69,31.69,0,0,1-29.72-42.63L124.15,20.73a31.67,31.67,0,0,1,59.44,21.9L102.67,262.24A31.68,31.68,0,0,1,73,283Z"/><path class="cls-2" d="M522.16,283a31.69,31.69,0,0,1-29.72-20.73L411.52,42.63A31.67,31.67,0,0,1,471,20.73l80.92,219.61A31.69,31.69,0,0,1,522.16,283Z"/><path class="cls-3" d="M164.82,2a31.68,31.68,0,0,0-40.67,18.77L86.52,122.87a438.54,438.54,0,0,0,57.84,26.24L183.59,42.63A31.67,31.67,0,0,0,164.82,2Z"/><path class="cls-3" d="M471,20.73a31.67,31.67,0,0,0-59.44,21.9l39.24,106.48a438.54,438.54,0,0,0,57.84-26.24Z"/><path class="cls-2" d="M31.75,236.57H563.36a31.75,31.75,0,0,1,31.75,31.75v26.31a0,0,0,0,1,0,0H0a0,0,0,0,1,0,0V268.32A31.75,31.75,0,0,1,31.75,236.57Z"/><path class="cls-4" d="M16.27,273.44A24,24,0,0,1,40.2,249.51H187.57"/><path class="cls-5" d="M560.1,236.57H548.81a35,35,0,0,1,35,35v23.06h11.29V271.58A35,35,0,0,0,560.1,236.57Z"/></g></g></g></svg>