<svg xmlns="http://www.w3.org/2000/svg" viewBox="0 0 840.89 840.89"><defs><style>.cls-1{isolation:isolate;}.cls-2{fill:#b286b0;}.cls-3{fill:none;stroke:#262626;stroke-linecap:round;stroke-linejoin:round;stroke-width:2.21px;mix-blend-mode:screen;}.cls-4{fill:#e3e3e3;}.cls-4,.cls-6{mix-blend-mode:multiply;}.cls-5{fill:#fff;}.cls-6{fill:#cfcfcf;}</style></defs><g class="cls-1"><g id="Layer_2" data-name="Layer 2"><g id="Layer_1-2" data-name="Layer 1"><circle class="cls-2" cx="420.45" cy="420.45" r="420.45"/><path class="cls-3" d="M15.05,412.5c0-223.9,181.5-405.4,405.4-405.4"/><path class="cls-4" d="M794.81,228.88A418.71,418.71,0,0,1,836.2,411c0,232.21-188.24,420.45-420.45,420.45-163.2,0-304.69-93-374.36-228.88,67.87,141,212.09,238.32,379.06,238.32,232.2,0,420.44-188.24,420.44-420.44A418.63,418.63,0,0,0,794.81,228.88Z"/><circle class="cls-5" cx="623.92" cy="82.66" r="13.79" transform="translate(-4.53 48.62) rotate(-4.45)"/><path class="cls-6" d="M637.63,81.34a13.77,13.77,0,0,1-27.44.19,13.78,13.78,0,1,0,27.44-.19Z"/><circle class="cls-5" cx="743.38" cy="195.17" r="13.79" transform="translate(496.67 923.07) rotate(-85.99)"/><path class="cls-6" d="M757.1,193.85a13.78,13.78,0,0,1-27.45.19,13.78,13.78,0,1,0,27.45-.19Z"/><path class="cls-5" d="M804.2,333a13.78,13.78,0,1,1-11,16.11A13.79,13.79,0,0,1,804.2,333Z"/><path class="cls-6" d="M820.47,345.22a13.65,13.65,0,0,1-2,6A13.77,13.77,0,0,1,793,345.41a13.78,13.78,0,1,0,27.44-.19Z"/><circle class="cls-5" cx="803.09" cy="510.6" r="13.79" transform="translate(-62.86 115.9) rotate(-7.94)"/><path class="cls-6" d="M816.8,509.28a13.77,13.77,0,0,1-27.44.19,13.78,13.78,0,1,0,27.44-.19Z"/><circle class="cls-5" cx="733.01" cy="658.98" r="13.79" transform="translate(-188.19 1009.63) rotate(-62.79)"/><path class="cls-6" d="M746.72,657.66a13.77,13.77,0,0,1-27.44.19,13.78,13.78,0,1,0,27.44-.19Z"/><path class="cls-5" d="M620.72,759.41A13.79,13.79,0,1,1,602,753.94,13.78,13.78,0,0,1,620.72,759.41Z"/><path class="cls-6" d="M622.34,764.72a13.77,13.77,0,0,1-27.44.19,13.78,13.78,0,1,0,27.44-.19Z"/><circle class="cls-5" cx="451.47" cy="813.24" r="13.79" transform="matrix(1, -0.02, 0.02, 1, -15.3, 8.68)"/><path class="cls-6" d="M465.18,811.92a13.77,13.77,0,0,1-27.44.19,13.78,13.78,0,1,0,27.44-.19Z"/><circle class="cls-5" cx="288.69" cy="792.44" r="13.79"/><path class="cls-6" d="M302.4,791.13a13.77,13.77,0,0,1-27.44.19,13.78,13.78,0,1,0,27.44-.19Z"/><circle class="cls-5" cx="148.44" cy="707.23" r="13.79" transform="translate(-560.57 846.92) rotate(-89.29)"/><path class="cls-6" d="M162.15,705.92a13.63,13.63,0,0,1-1.94,6,13.78,13.78,0,0,1-25.5-5.84,13.78,13.78,0,1,0,27.44-.19Z"/><circle class="cls-5" cx="54.98" cy="572.35" r="13.79"/><path class="cls-6" d="M68.69,571a13.61,13.61,0,0,1-2,6,13.77,13.77,0,0,1-25.49-5.84A13.78,13.78,0,1,0,68.69,571Z"/><circle class="cls-5" cx="24.46" cy="411.11" r="13.79" transform="translate(-26.08 2.39) rotate(-3.64)"/><path class="cls-6" d="M38.17,409.79a13.77,13.77,0,0,1-27.44.19,13.78,13.78,0,1,0,27.44-.19Z"/><circle class="cls-5" cx="62.16" cy="251.39" r="13.79" transform="matrix(0.98, -0.22, 0.22, 0.98, -53.86, 19.87)"/><path class="cls-6" d="M75.87,250.08a13.65,13.65,0,0,1-2,6,13.77,13.77,0,0,1-25.49-5.84,13.78,13.78,0,1,0,27.44-.19Z"/><path class="cls-5" d="M151.11,129.82a13.79,13.79,0,1,1,19.44,1.45A13.79,13.79,0,0,1,151.11,129.82Z"/><path class="cls-6" d="M175.27,119.51a13.61,13.61,0,0,1-2,6,13.77,13.77,0,0,1-25.49-5.84,13.78,13.78,0,1,0,27.44-.19Z"/><circle class="cls-5" cx="305.48" cy="41.97" r="13.79" transform="translate(210.07 335.18) rotate(-79.8)"/><path class="cls-6" d="M319.19,40.65a13.78,13.78,0,0,1-27.45.19,13.78,13.78,0,1,0,27.45-.19Z"/><path class="cls-5" d="M455.34,26.72a13.79,13.79,0,1,1,11.93,15.43A13.8,13.8,0,0,1,455.34,26.72Z"/><path class="cls-6" d="M482.73,27.16a13.77,13.77,0,0,1-27.44.19,13.78,13.78,0,1,0,27.44-.19Z"/></g></g></g></svg>