<svg xmlns="http://www.w3.org/2000/svg" viewBox="0 0 103.97 124.07"><defs><style>.cls-1{isolation:isolate;}.cls-2{fill:#4c96e0;}.cls-3{fill:none;stroke:#292929;stroke-linecap:round;stroke-linejoin:round;stroke-width:2.21px;mix-blend-mode:screen;}.cls-4{fill:#ebebeb;mix-blend-mode:multiply;}</style></defs><g class="cls-1"><g id="Layer_2" data-name="Layer 2"><g id="Layer_1-2" data-name="Layer 1"><path class="cls-2" d="M45.49,118.91.67,12.79A8.46,8.46,0,0,1,8.36,1.05L95.41,0a8.45,8.45,0,0,1,8,11.55L61.14,118.72A8.45,8.45,0,0,1,45.49,118.91Z"/><path class="cls-3" d="M28.85,56.94,10,12.31a1.21,1.21,0,0,1,1.09-1.67L52,10.13"/><path class="cls-4" d="M101.7,2.7c-.08.27-.16.54-.27.81L59.86,114a8.45,8.45,0,0,1-15.65.19L.14,8.09a8.29,8.29,0,0,0,.53,4.7L45.49,118.91a8.45,8.45,0,0,0,15.65-.19L103.38,11.55A8.42,8.42,0,0,0,101.7,2.7Z"/></g></g></g></svg>