<svg width="371" height="8" viewBox="0 0 371 8" fill="none" xmlns="http://www.w3.org/2000/svg">
<path d="M371 7.23099C369.206 7.02439 367.412 7.02439 365.498 6.92109C363.704 6.81779 361.91 6.71449 360.116 6.50789C356.05 6.09469 352.103 5.68149 348.037 5.37159C340.263 4.64849 332.608 4.02869 324.834 3.5122C317.658 3.099 310.602 2.6858 303.426 2.3759C301.632 2.2726 299.718 2.2726 297.924 2.1693C290.868 1.9627 283.811 1.6528 276.635 1.5495C260.131 1.1363 243.506 0.723099 227.001 0.516499C210.855 0.3099 194.59 0.1033 178.444 0.1033C170.55 0.1033 162.537 0 154.643 0C146.032 0 137.421 0 128.809 0C111.109 0 93.2882 0.1033 75.5874 0.2066C60.2785 0.3099 44.8501 0.826399 29.5413 1.5495C19.734 2.066 9.80722 2.6858 0 3.4089C11.2424 4.33859 22.3652 5.06169 33.7273 5.57819C41.0229 5.88809 48.3185 6.09469 55.7337 6.30129C60.5177 6.40459 65.1821 6.40459 69.9661 6.40459C72.8365 6.40459 75.8266 6.30129 78.697 6.30129C86.471 6.19799 94.245 5.99139 102.139 5.88809C111.109 5.78479 119.959 5.57819 128.929 5.47489C138.138 5.37159 147.348 5.26829 156.557 5.16499C164.809 5.06169 173.062 5.06169 181.434 5.06169C189.566 5.06169 197.58 5.06169 205.712 5.06169C213.845 5.06169 221.978 5.16499 230.111 5.26829C238.363 5.37159 246.735 5.57819 254.988 5.68149C270.177 5.99139 285.247 6.50789 300.436 7.02439C308.808 7.33429 317.299 7.54089 325.671 7.64419C333.924 7.85079 342.296 7.95409 350.548 7.95409C353.897 7.95409 357.366 8.05739 360.714 7.95409C362.389 7.95409 363.944 7.85079 365.618 7.74749C367.053 7.64419 368.488 7.43759 369.924 7.33429C370.043 7.23099 370.522 7.23099 371 7.23099Z" fill="#FFB33D"/>
</svg>
