<svg width="83" height="51" viewBox="0 0 83 51" fill="none" xmlns="http://www.w3.org/2000/svg">
<path d="M31.0976 5.11056C20.6467 6.16172 10.8648 13.3581 4.84507 21.2821C-0.0877297 27.7508 -2.51233 36.9686 3.75818 43.3563C9.19261 48.8547 18.3894 50.2293 25.914 50.7953C33.4386 51.3613 40.9632 50.7144 48.3206 49.3398C60.778 47.0758 83.8534 41.1732 82.5157 25.0825C81.7632 15.8647 73.5698 7.132 65.3763 3.16997C55.5107 -1.60065 44.0566 -0.306917 33.8566 2.60397C23.4894 5.59571 13.7074 10.8515 7.43688 19.5841C2.33687 26.6996 -1.42544 37.9389 5.43031 45.1352C11.5336 51.4421 22.5697 51.2804 30.5959 50.0675C40.3779 48.6121 50.0763 46.5906 59.273 43.0329C67.7173 39.7986 76.5796 34.8663 80.5092 26.5379C83.3518 20.6353 82.7665 14.3284 77.2485 10.2855C71.5632 6.08085 63.4534 5.19142 56.5976 4.70627C49.073 4.22113 41.7156 4.62541 34.2746 5.99999C32.5189 6.32342 30.7632 6.64685 28.9238 6.97029C28.1713 7.132 28.5058 8.26402 29.2582 8.1023C34.191 7.21287 39.1238 6.16171 44.1402 5.83828C47.6517 5.59571 51.2468 5.5957 54.7583 5.75742C62.1157 6.08085 70.5599 6.97029 76.6632 11.2558C84.0206 16.4307 80.76 25.891 75.7436 31.3894C68.8878 38.99 57.8517 42.6286 48.0697 45.2161C38.7894 47.6418 28.4222 50.0675 18.8074 49.1781C14.1254 48.7738 9.27622 47.2375 6.01556 43.8415C2.25325 39.8794 2.58769 34.2194 4.009 29.3679C7.35327 17.6435 17.6369 9.71946 28.9238 5.43399C39.7927 1.31024 52.5009 -0.953783 63.6206 3.57426C69.1386 5.83828 73.6534 9.88117 76.9977 14.6518C79.6731 18.4521 81.6796 22.8184 81.3452 27.5082C80.76 35.5131 72.2321 40.2837 65.4599 43.1946C57.5173 46.5098 48.8222 48.2887 40.2943 49.1781C32.3517 50.0675 24.0746 49.825 16.2992 48.0461C11.9516 46.9949 7.52048 45.2969 4.42703 42.1435C0.915551 38.5857 0.664728 33.4917 2.08604 28.9636C4.009 22.9802 8.85819 17.8861 13.791 14.0049C18.6402 10.1238 24.8271 6.88943 31.1812 6.24257C31.85 6.24257 31.9336 5.02971 31.0976 5.11056Z" fill="#FFB33D"/>
</svg>
